999
dxflib 3.26.4.0
  0
SECTION
  2
HEADER
  9
$ACADVER
  1
AC1015
  9
$HANDSEED
  5
FFFF
  9
$ANGBASE
 50
0.0
  9
$ANGDIR
 70
0
  9
$ATTMODE
 70
1
  9
$AUNITS
 70
0
  9
$AUPREC
 70
0
  9
$CECOLOR
 62
256
  9
$CELTSCALE
 40
1.0
  9
$CHAMFERA
 40
0.0
  9
$CHAMFERB
 40
0.0
  9
$CHAMFERC
 40
0.0
  9
$CHAMFERD
 40
0.0
  9
$CMLJUST
 70
0
  9
$CMLSCALE
 40
1.0
  9
$DIMADEC
 70
0
  9
$DIMALT
 70
0
  9
$DIMALTD
 70
2
  9
$DIMALTF
 40
0.0393700787
  9
$DIMALTRND
 40
0.0
  9
$DIMALTTD
 70
2
  9
$DIMALTTZ
 70
0
  9
$DIMALTU
 70
2
  9
$DIMALTZ
 70
0
  9
$DIMAPOST
  1

  9
$DIMASZ
 40
6.0
  9
$DIMATFIT
 70
3
  9
$DIMAUNIT
 70
0
  9
$DIMAZIN
 70
0
  9
$DIMBLK
  1
0
  9
$DIMBLK1
  1
0
  9
$DIMBLK2
  1
0
  9
$DIMCEN
 40
6.3360000000000003
  9
$DIMCLRD
 70
0
  9
$DIMCLRE
 70
0
  9
$DIMDEC
 70
4
  9
$DIMDLE
 40
0.0
  9
$DIMDLI
 40
26.7519999999999989
  9
$DIMDSEP
 70
46
  9
$DIMEXE
 40
1.0
  9
$DIMEXO
 40
1.5
  9
$DIMFRAC
 70
0
  9
$DIMGAP
 40
0.625
  9
$DIMJUST
 70
0
  9
$DIMLDRBLK
  1

  9
$DIMLFAC
 40
1.0
  9
$DIMLIM
 70
0
  9
$DIMLUNIT
 70
2
  9
$DIMLWD
 70
-2
  9
$DIMLWE
 70
-2
  9
$DIMPOST
  1

  9
$DIMRND
 40
0.0
  9
$DIMSAH
 70
0
  9
$DIMSCALE
 40
1.0
  9
$DIMSD1
 70
0
  9
$DIMSD2
 70
0
  9
$DIMSE1
 70
0
  9
$DIMSE2
 70
0
  9
$DIMSOXD
 70
0
  9
$DIMTAD
 70
0
  9
$DIMTDEC
 70
4
  9
$DIMTFAC
 40
1.0
  9
$DIMTIH
 70
1
  9
$DIMTIX
 70
0
  9
$DIMTM
 40
0.0001
  9
$DIMTOFL
 70
0
  9
$DIMTOH
 70
1
  9
$DIMTOL
 70
1
  9
$DIMTOLJ
 70
1
  9
$DIMTP
 40
0.0001
  9
$DIMTSZ
 40
0.0
  9
$DIMTVP
 40
0.0
  9
$DIMTXSTY
  7
STANDARD
  9
$DIMTXT
 40
7.0
  9
$DIMTZIN
 70
0
  9
$DIMUPT
 70
0
  9
$DIMZIN
 70
0
  9
$DISPSILH
 70
0
  9
$DWGCODEPAGE
  3
ANSI_1252
  9
$ELEVATION
 40
0.0
  9
$EXTMAX
 10
420.0
 20
594.0
 30
0.0
  9
$EXTMIN
 10
0.0
 20
0.0
 30
0.0
  9
$FILLETRAD
 40
0.0
  9
$FILLMODE
 70
1
  9
$INSBASE
 10
0.0
 20
0.0
 30
0.0
  9
$INSUNITS
 70
4
  9
$LIMCHECK
 70
0
  9
$LIMMAX
 10
420.0
 20
594.0
  9
$LIMMIN
 10
0.0
 20
0.0
  9
$LTSCALE
 40
38.7199999999999989
  9
$LUNITS
 70
2
  9
$LUPREC
 70
4
  9
$MAXACTVP
 70
64
  9
$MEASUREMENT
 70
1
  9
$MIRRTEXT
 70
0
  9
$ORTHOMODE
 70
0
  9
$PDMODE
 70
0
  9
$PDSIZE
 40
0.5
  9
$PELEVATION
 40
0.0
  9
$PEXTMAX
 10
-100000000000000000000.0
 20
-100000000000000000000.0
 30
-100000000000000000000.0
  9
$PEXTMIN
 10
100000000000000000000.0
 20
100000000000000000000.0
 30
100000000000000000000.0
  9
$PINSBASE
 10
0.0
 20
0.0
 30
0.0
  9
$PLIMCHECK
 70
0
  9
$PLIMMAX
 10
12.0
 20
9.0
  9
$PLIMMIN
 10
0.0
 20
0.0
  9
$PLINEGEN
 70
0
  9
$PLINEWID
 40
0.0
  9
$PROXYGRAPHICS
 70
1
  9
$PSLTSCALE
 70
1
  9
$PUCSNAME
  2

  9
$PUCSORG
 10
0.0
 20
0.0
 30
0.0
  9
$PUCSXDIR
 10
1.0
 20
0.0
 30
0.0
  9
$PUCSYDIR
 10
0.0
 20
1.0
 30
0.0
  9
$QTEXTMODE
 70
0
  9
$REGENMODE
 70
1
  9
$SHADEDGE
 70
3
  9
$SHADEDIF
 70
70
  9
$SKETCHINC
 40
0.1
  9
$SKPOLY
 70
0
  9
$SPLFRAME
 70
0
  9
$SPLINESEGS
 70
8
  9
$SPLINETYPE
 70
6
  9
$SURFTAB1
 70
6
  9
$SURFTAB2
 70
6
  9
$SURFTYPE
 70
6
  9
$SURFU
 70
6
  9
$SURFV
 70
6
  9
$TEXTSIZE
 40
0.2
  9
$TEXTSTYLE
  7
STANDARD
  9
$THICKNESS
 40
0.0
  9
$TILEMODE
 70
1
  9
$TRACEWID
 40
0.05
  9
$TREEDEPTH
 70
3020
  9
$UCSNAME
  2

  9
$UCSORG
 10
0.0
 20
0.0
 30
0.0
  9
$UCSXDIR
 10
1.0
 20
0.0
 30
0.0
  9
$UCSYDIR
 10
0.0
 20
1.0
 30
0.0
  9
$UNITMODE
 70
0
  9
$USERI1
 70
0
  9
$USERI2
 70
0
  9
$USERI3
 70
0
  9
$USERI4
 70
0
  9
$USERI5
 70
0
  9
$USERR1
 40
0.0
  9
$USERR2
 40
0.0
  9
$USERR3
 40
0.0
  9
$USERR4
 40
0.0
  9
$USERR5
 40
0.0
  9
$USRTIMER
 70
1
  9
$VISRETAIN
 70
1
  0
ENDSEC
  0
SECTION
  2
TABLES
  0
TABLE
  2
VPORT
  5
8
100
AcDbSymbolTable
 70
1
  0
VPORT
  5
30
100
AcDbSymbolTableRecord
100
AcDbViewportTableRecord
  2
*Active
 70
0
 10
0.0
 20
0.0
 11
1.0
 21
1.0
 12
286.3055555555554861
 22
148.5
 13
0.0
 23
0.0
 14
10.0
 24
10.0
 15
10.0
 25
10.0
 16
0.0
 26
0.0
 36
1.0
 17
0.0
 27
0.0
 37
0.0
 40
297.0
 41
1.92798353909465
 42
50.0
 43
0.0
 44
0.0
 50
0.0
 51
0.0
 71
0
 72
100
 73
1
 74
3
 75
1
 76
1
 77
0
 78
0
281
0
 65
1
110
0.0
120
0.0
130
0.0
111
1.0
121
0.0
131
0.0
112
0.0
122
1.0
132
0.0
 79
0
146
0.0
  0
ENDTAB
  0
TABLE
  2
LTYPE
  5
5
100
AcDbSymbolTable
 70
41
  0
LTYPE
  5
16
100
AcDbSymbolTableRecord
100
AcDbLinetypeTableRecord
  2
CONTINUOUS
 70
0
  3
Solid line
 72
65
 73
0
 40
0.0
  0
LTYPE
  5
31
100
AcDbSymbolTableRecord
100
AcDbLinetypeTableRecord
  2
DOT2
 70
0
  3
Dot (.5x) ........................................
 72
65
 73
2
 40
3.1749999999999998
 49
0.0
 74
0
 49
-3.1749999999999998
 74
0
  0
LTYPE
  5
32
100
AcDbSymbolTableRecord
100
AcDbLinetypeTableRecord
  2
DASHDOTX2
 70
0
  3
Dash dot (2x) ____  .  ____  .  ____  .  ___
 72
65
 73
4
 40
50.7999999999999972
 49
25.3999999999999986
 74
0
 49
-12.6999999999999993
 74
0
 49
0.0
 74
0
 49
-12.6999999999999993
 74
0
  0
LTYPE
  5
33
100
AcDbSymbolTableRecord
100
AcDbLinetypeTableRecord
  2
ACAD_ISO05W100
 70
0
  3
ISO long-dash double-dot ____ .. ____ .. ____ . 
 72
65
 73
6
 40
33.0
 49
24.0
 74
0
 49
-3.0
 74
0
 49
0.0
 74
0
 49
-3.0
 74
0
 49
0.0
 74
0
 49
-3.0
 74
0
  0
LTYPE
  5
34
100
AcDbSymbolTableRecord
100
AcDbLinetypeTableRecord
  2
ACAD_ISO13W100
 70
0
  3
ISO double-dash double-dot __ __ . . __ __ . . _
 72
65
 73
8
 40
36.0
 49
12.0
 74
0
 49
-3.0
 74
0
 49
12.0
 74
0
 49
-3.0
 74
0
 49
0.0
 74
0
 49
-3.0
 74
0
 49
0.0
 74
0
 49
-3.0
 74
0
  0
LTYPE
  5
35
100
AcDbSymbolTableRecord
100
AcDbLinetypeTableRecord
  2
ACAD_ISO15W100
 70
0
  3
ISO double-dash triple-dot __ __ . . . __ __ . .
 72
65
 73
10
 40
39.0
 49
12.0
 74
0
 49
-3.0
 74
0
 49
12.0
 74
0
 49
-3.0
 74
0
 49
0.0
 74
0
 49
-3.0
 74
0
 49
0.0
 74
0
 49
-3.0
 74
0
 49
0.0
 74
0
 49
-3.0
 74
0
  0
LTYPE
  5
36
100
AcDbSymbolTableRecord
100
AcDbLinetypeTableRecord
  2
ACAD_ISO10W100
 70
0
  3
ISO dash dot __ . __ . __ . __ . __ . __ . __ . 
 72
65
 73
4
 40
18.0
 49
12.0
 74
0
 49
-3.0
 74
0
 49
0.0
 74
0
 49
-3.0
 74
0
  0
LTYPE
  5
37
100
AcDbSymbolTableRecord
100
AcDbLinetypeTableRecord
  2
ACAD_ISO08W100
 70
0
  3
ISO long-dash short-dash ____ __ ____ __ ____ _
 72
65
 73
4
 40
36.0
 49
24.0
 74
0
 49
-3.0
 74
0
 49
6.0
 74
0
 49
-3.0
 74
0
  0
LTYPE
  5
38
100
AcDbSymbolTableRecord
100
AcDbLinetypeTableRecord
  2
ACAD_ISO14W100
 70
0
  3
ISO dash triple-dot __ . . . __ . . . __ . . . _
 72
65
 73
8
 40
24.0
 49
12.0
 74
0
 49
-3.0
 74
0
 49
0.0
 74
0
 49
-3.0
 74
0
 49
0.0
 74
0
 49
-3.0
 74
0
 49
0.0
 74
0
 49
-3.0
 74
0
  0
LTYPE
  5
39
100
AcDbSymbolTableRecord
100
AcDbLinetypeTableRecord
  2
ACAD_ISO02W100
 70
0
  3
ISO dash __ __ __ __ __ __ __ __ __ __ __ __ __
 72
65
 73
2
 40
15.0
 49
12.0
 74
0
 49
-3.0
 74
0
  0
LTYPE
  5
14
100
AcDbSymbolTableRecord
100
AcDbLinetypeTableRecord
  2
BYBLOCK
 70
0
  3

 72
65
 73
0
 40
0.0
  0
LTYPE
  5
3A
100
AcDbSymbolTableRecord
100
AcDbLinetypeTableRecord
  2
PHANTOM2
 70
0
  3
Phantom (.5x) ___ _ _ ___ _ _ ___ _ _ ___ _ _
 72
65
 73
6
 40
31.7500000000000036
 49
15.875
 74
0
 49
-3.1749999999999998
 74
0
 49
3.1749999999999998
 74
0
 49
-3.1749999999999998
 74
0
 49
3.1749999999999998
 74
0
 49
-3.1749999999999998
 74
0
  0
LTYPE
  5
3B
100
AcDbSymbolTableRecord
100
AcDbLinetypeTableRecord
  2
DOT
 70
0
  3
. . . . . . . . . . . . . . . . . . . .
 72
65
 73
2
 40
0.2
 49
0.1
 74
0
 49
-0.1
 74
0
  0
LTYPE
  5
3C
100
AcDbSymbolTableRecord
100
AcDbLinetypeTableRecord
  2
CENTER
 70
0
  3
____ _ ____ _ ____ _ ____ _ ____ _ ____ _ ____
 72
65
 73
4
 40
0.6
 49
0.375
 74
0
 49
-0.075
 74
0
 49
0.075
 74
0
 49
-0.075
 74
0
  0
LTYPE
  5
3D
100
AcDbSymbolTableRecord
100
AcDbLinetypeTableRecord
  2
DASHED
 70
0
  3
- - - - - - - - - - - - - - - - - - - -
 72
65
 73
2
 40
0.2
 49
0.1
 74
0
 49
-0.1
 74
0
  0
LTYPE
  5
3E
100
AcDbSymbolTableRecord
100
AcDbLinetypeTableRecord
  2
CENTER2
 70
0
  3
Center (.5x) ___ _ ___ _ ___ _ ___ _ ___ _ ___
 72
65
 73
4
 40
28.5750000000000028
 49
19.0500000000000007
 74
0
 49
-3.1749999999999998
 74
0
 49
3.1749999999999998
 74
0
 49
-3.1749999999999998
 74
0
  0
LTYPE
  5
3F
100
AcDbSymbolTableRecord
100
AcDbLinetypeTableRecord
  2
ACAD_ISO04W100
 70
0
  3
ISO long-dash dot ____ . ____ . ____ . ____ . _
 72
65
 73
4
 40
30.0
 49
24.0
 74
0
 49
-3.0
 74
0
 49
0.0
 74
0
 49
-3.0
 74
0
  0
LTYPE
  5
40
100
AcDbSymbolTableRecord
100
AcDbLinetypeTableRecord
  2
ACAD_ISO03W100
 70
0
  3
ISO dash space __    __    __    __    __    __
 72
65
 73
2
 40
30.0
 49
12.0
 74
0
 49
-18.0
 74
0
  0
LTYPE
  5
41
100
AcDbSymbolTableRecord
100
AcDbLinetypeTableRecord
  2
DIVIDE2
 70
0
  3
Divide (.5x) __..__..__..__..__..__..__..__.._
 72
65
 73
6
 40
15.875
 49
6.3499999999999996
 74
0
 49
-3.1749999999999998
 74
0
 49
0.0
 74
0
 49
-3.1749999999999998
 74
0
 49
0.0
 74
0
 49
-3.1749999999999998
 74
0
  0
LTYPE
  5
42
100
AcDbSymbolTableRecord
100
AcDbLinetypeTableRecord
  2
DIVIDE
 70
0
  3
Divide ____ . . ____ . . ____ . . ____ . . ____
 72
65
 73
6
 40
31.75
 49
12.6999999999999993
 74
0
 49
-6.3499999999999996
 74
0
 49
0.0
 74
0
 49
-6.3499999999999996
 74
0
 49
0.0
 74
0
 49
-6.3499999999999996
 74
0
  0
LTYPE
  5
43
100
AcDbSymbolTableRecord
100
AcDbLinetypeTableRecord
  2
HIDDEN
 70
0
  3
- - - - - - - - - - - - - - - - - - - -
 72
65
 73
2
 40
0.2
 49
0.1
 74
0
 49
-0.1
 74
0
  0
LTYPE
  5
44
100
AcDbSymbolTableRecord
100
AcDbLinetypeTableRecord
  2
DIVIDEX2
 70
0
  3
Divide (2x) ________  .  .  ________  .  .  _
 72
65
 73
6
 40
63.5
 49
25.3999999999999986
 74
0
 49
-12.6999999999999993
 74
0
 49
0.0
 74
0
 49
-12.6999999999999993
 74
0
 49
0.0
 74
0
 49
-12.6999999999999993
 74
0
  0
LTYPE
  5
45
100
AcDbSymbolTableRecord
100
AcDbLinetypeTableRecord
  2
DASHEDX2
 70
0
  3
Dashed (2x) ____  ____  ____  ____  ____  ___
 72
65
 73
2
 40
38.0999999999999943
 49
25.3999999999999986
 74
0
 49
-12.6999999999999993
 74
0
  0
LTYPE
  5
46
100
AcDbSymbolTableRecord
100
AcDbLinetypeTableRecord
  2
ACAD_ISO12W100
 70
0
  3
ISO dash double-dot __ . . __ . . __ . . __ . . 
 72
65
 73
6
 40
21.0
 49
12.0
 74
0
 49
-3.0
 74
0
 49
0.0
 74
0
 49
-3.0
 74
0
 49
0.0
 74
0
 49
-3.0
 74
0
  0
LTYPE
  5
15
100
AcDbSymbolTableRecord
100
AcDbLinetypeTableRecord
  2
BYLAYER
 70
0
  3

 72
65
 73
0
 40
0.0
  0
LTYPE
  5
47
100
AcDbSymbolTableRecord
100
AcDbLinetypeTableRecord
  2
DASHDOT
 70
0
  3
Dash dot __ . __ . __ . __ . __ . __ . __ . __
 72
65
 73
4
 40
25.3999999999999986
 49
12.6999999999999993
 74
0
 49
-6.3499999999999996
 74
0
 49
0.0
 74
0
 49
-6.3499999999999996
 74
0
  0
LTYPE
  5
48
100
AcDbSymbolTableRecord
100
AcDbLinetypeTableRecord
  2
CENTERX2
 70
0
  3
Center (2x) ________  __  ________  __  _____
 72
65
 73
4
 40
101.6000000000000085
 49
63.5
 74
0
 49
-12.6999999999999993
 74
0
 49
12.6999999999999993
 74
0
 49
-12.6999999999999993
 74
0
  0
LTYPE
  5
49
100
AcDbSymbolTableRecord
100
AcDbLinetypeTableRecord
  2
BORDER
 70
0
  3
Border __ __ . __ __ . __ __ . __ __ . __ __ .
 72
65
 73
6
 40
44.4499999999999957
 49
12.6999999999999993
 74
0
 49
-6.3499999999999996
 74
0
 49
12.6999999999999993
 74
0
 49
-6.3499999999999996
 74
0
 49
0.0
 74
0
 49
-6.3499999999999996
 74
0
  0
LTYPE
  5
4A
100
AcDbSymbolTableRecord
100
AcDbLinetypeTableRecord
  2
PHANTOM
 70
0
  3
_____ _ _ _____ _ _ _____ _ _ _____
 72
65
 73
6
 40
0.8
 49
0.45
 74
0
 49
-0.05
 74
0
 49
0.1
 74
0
 49
-0.05
 74
0
 49
0.1
 74
0
 49
-0.05
 74
0
  0
LTYPE
  5
4B
100
AcDbSymbolTableRecord
100
AcDbLinetypeTableRecord
  2
BORDERX2
 70
0
  3
Border (2x) ____  ____  .  ____  ____  .  ___
 72
65
 73
6
 40
88.8999999999999915
 49
25.3999999999999986
 74
0
 49
-12.6999999999999993
 74
0
 49
25.3999999999999986
 74
0
 49
-12.6999999999999993
 74
0
 49
0.0
 74
0
 49
-12.6999999999999993
 74
0
  0
LTYPE
  5
4C
100
AcDbSymbolTableRecord
100
AcDbLinetypeTableRecord
  2
PHANTOMX2
 70
0
  3
Phantom (2x) ____________    ____    ____   _
 72
65
 73
6
 40
127.0000000000000142
 49
63.5
 74
0
 49
-12.6999999999999993
 74
0
 49
12.6999999999999993
 74
0
 49
-12.6999999999999993
 74
0
 49
12.6999999999999993
 74
0
 49
-12.6999999999999993
 74
0
  0
LTYPE
  5
4D
100
AcDbSymbolTableRecord
100
AcDbLinetypeTableRecord
  2
DASHDOT2
 70
0
  3
Dash dot (.5x) _._._._._._._._._._._._._._._.
 72
65
 73
4
 40
12.6999999999999993
 49
6.3499999999999996
 74
0
 49
-3.1749999999999998
 74
0
 49
0.0
 74
0
 49
-3.1749999999999998
 74
0
  0
LTYPE
  5
4E
100
AcDbSymbolTableRecord
100
AcDbLinetypeTableRecord
  2
ACAD_ISO09W100
 70
0
  3
ISO long-dash double-short-dash ____ __ __ ____
 72
65
 73
6
 40
45.0
 49
24.0
 74
0
 49
-3.0
 74
0
 49
6.0
 74
0
 49
-3.0
 74
0
 49
6.0
 74
0
 49
-3.0
 74
0
  0
LTYPE
  5
4F
100
AcDbSymbolTableRecord
100
AcDbLinetypeTableRecord
  2
HIDDEN2
 70
0
  3
Hidden (.5x) _ _ _ _ _ _ _ _ _ _ _ _ _ _ _ _ _ 
 72
65
 73
2
 40
4.7624999999999993
 49
3.1749999999999998
 74
0
 49
-1.5874999999999999
 74
0
  0
LTYPE
  5
50
100
AcDbSymbolTableRecord
100
AcDbLinetypeTableRecord
  2
ACAD_ISO06W100
 70
0
  3
ISO long-dash triple-dot ____ ... ____ ... ____
 72
65
 73
8
 40
36.0
 49
24.0
 74
0
 49
-3.0
 74
0
 49
0.0
 74
0
 49
-3.0
 74
0
 49
0.0
 74
0
 49
-3.0
 74
0
 49
0.0
 74
0
 49
-3.0
 74
0
  0
LTYPE
  5
51
100
AcDbSymbolTableRecord
100
AcDbLinetypeTableRecord
  2
DASHED2
 70
0
  3
Dashed (.5x) _ _ _ _ _ _ _ _ _ _ _ _ _ _ _ _ _ 
 72
65
 73
2
 40
9.5249999999999986
 49
6.3499999999999996
 74
0
 49
-3.1749999999999998
 74
0
  0
LTYPE
  5
52
100
AcDbSymbolTableRecord
100
AcDbLinetypeTableRecord
  2
ACAD_ISO07W100
 70
0
  3
ISO dot . . . . . . . . . . . . . . . . . . . . 
 72
65
 73
2
 40
3.0
 49
0.0
 74
0
 49
-3.0
 74
0
  0
LTYPE
  5
53
100
AcDbSymbolTableRecord
100
AcDbLinetypeTableRecord
  2
HIDDENX2
 70
0
  3
Hidden (2x) ____ ____ ____ ____ ____ ____ ____ 
 72
65
 73
2
 40
19.0499999999999972
 49
12.6999999999999993
 74
0
 49
-6.3499999999999996
 74
0
  0
LTYPE
  5
54
100
AcDbSymbolTableRecord
100
AcDbLinetypeTableRecord
  2
ACAD_ISO11W100
 70
0
  3
ISO double-dash dot __ __ . __ __ . __ __ . __ _
 72
65
 73
6
 40
33.0
 49
12.0
 74
0
 49
-3.0
 74
0
 49
12.0
 74
0
 49
-3.0
 74
0
 49
0.0
 74
0
 49
-3.0
 74
0
  0
LTYPE
  5
55
100
AcDbSymbolTableRecord
100
AcDbLinetypeTableRecord
  2
DOTX2
 70
0
  3
Dot (2x) .  .  .  .  .  .  .  .  .  .  .  .  .  .
 72
65
 73
2
 40
12.6999999999999993
 49
0.0
 74
0
 49
-12.6999999999999993
 74
0
  0
LTYPE
  5
56
100
AcDbSymbolTableRecord
100
AcDbLinetypeTableRecord
  2
BORDER2
 70
0
  3
Border (.5x) __.__.__.__.__.__.__.__.__.__.__.
 72
65
 73
6
 40
22.2249999999999979
 49
6.3499999999999996
 74
0
 49
-3.1749999999999998
 74
0
 49
6.3499999999999996
 74
0
 49
-3.1749999999999998
 74
0
 49
0.0
 74
0
 49
-3.1749999999999998
 74
0
  0
ENDTAB
  0
TABLE
  2
LAYER
  5
2
100
AcDbSymbolTable
 70
31
  0
LAYER
  5
57
100
AcDbSymbolTableRecord
100
AcDbLayerTableRecord
  2
06_ALL_SURFS
 70
0
 62
7
420
16777215
  6
CONTINUOUS
370
-3
390
F
  0
LAYER
  5
58
100
AcDbSymbolTableRecord
100
AcDbLayerTableRecord
  2
Defpoints
 70
0
 62
7
420
16777215
  6
CONTINUOUS
290
0
370
-3
390
F
  0
LAYER
  5
59
100
AcDbSymbolTableRecord
100
AcDbLayerTableRecord
  2
02_ALL_AXES
 70
0
 62
7
420
16777215
  6
CONTINUOUS
370
-3
390
F
  0
LAYER
  5
5A
100
AcDbSymbolTableRecord
100
AcDbLayerTableRecord
  2
06___PRT_ALL_SURFS
 70
0
 62
7
420
16777215
  6
CONTINUOUS
370
-3
390
F
  0
LAYER
  5
5B
100
AcDbSymbolTableRecord
100
AcDbLayerTableRecord
  2
DEFAULT_3
 70
0
 62
7
420
16777215
  6
PHANTOM
370
-3
390
F
  0
LAYER
  5
5C
100
AcDbSymbolTableRecord
100
AcDbLayerTableRecord
  2
01__ASM_ALL_DTM_PLN
 70
0
 62
7
420
16777215
  6
CONTINUOUS
370
-3
390
F
  0
LAYER
  5
5D
100
AcDbSymbolTableRecord
100
AcDbLayerTableRecord
  2
DEFAULT_2
 70
0
 62
6
420
16711935
  6
HIDDEN
370
-3
390
F
  0
LAYER
  5
5E
100
AcDbSymbolTableRecord
100
AcDbLayerTableRecord
  2
05__ASM_DEF_DTM_CSYS
 70
0
 62
7
420
16777215
  6
CONTINUOUS
370
-3
390
F
  0
LAYER
  5
5F
100
AcDbSymbolTableRecord
100
AcDbLayerTableRecord
  2
03__ASM_ALL_CURVES
 70
0
 62
7
420
16777215
  6
CONTINUOUS
370
-3
390
F
  0
LAYER
  5
60
100
AcDbSymbolTableRecord
100
AcDbLayerTableRecord
  2
NOTE3D
 70
0
 62
7
420
16777215
  6
CONTINUOUS
370
-3
390
F
  0
LAYER
  5
61
100
AcDbSymbolTableRecord
100
AcDbLayerTableRecord
  2
04_ALL_DTM_PNT
 70
0
 62
7
420
16777215
  6
CONTINUOUS
370
-3
390
F
  0
LAYER
  5
62
100
AcDbSymbolTableRecord
100
AcDbLayerTableRecord
  2
03___PRT_ALL_CURVES
 70
0
 62
7
420
16777215
  6
CONTINUOUS
370
-3
390
F
  0
LAYER
  5
63
100
AcDbSymbolTableRecord
100
AcDbLayerTableRecord
  2
0_COMPONENTS
 70
0
 62
7
420
16777215
  6
CONTINUOUS
370
-3
390
F
  0
LAYER
  5
64
100
AcDbSymbolTableRecord
100
AcDbLayerTableRecord
  2
02___PRT_ALL_AXES
 70
0
 62
7
420
16777215
  6
CONTINUOUS
370
-3
390
F
  0
LAYER
  5
65
100
AcDbSymbolTableRecord
100
AcDbLayerTableRecord
  2
01_ALL_DTM_PLN
 70
0
 62
7
420
16777215
  6
CONTINUOUS
370
-3
390
F
  0
LAYER
  5
66
100
AcDbSymbolTableRecord
100
AcDbLayerTableRecord
  2
05___PRT_ALL_DTM_CSYS
 70
0
 62
7
420
16777215
  6
CONTINUOUS
370
-3
390
F
  0
LAYER
  5
67
100
AcDbSymbolTableRecord
100
AcDbLayerTableRecord
  2
04__ASM_ALL_DTM_PNT
 70
0
 62
7
420
16777215
  6
CONTINUOUS
370
-3
390
F
  0
LAYER
  5
68
100
AcDbSymbolTableRecord
100
AcDbLayerTableRecord
  2
DEFAULT_1
 70
0
 62
7
420
16777215
  6
CENTER
370
-3
390
F
  0
LAYER
  5
69
100
AcDbSymbolTableRecord
100
AcDbLayerTableRecord
  2
01___PRT_ALL_DTM_PLN
 70
0
 62
7
420
16777215
  6
CONTINUOUS
370
-3
390
F
  0
LAYER
  5
6A
100
AcDbSymbolTableRecord
100
AcDbLayerTableRecord
  2
06__ASM_ALL_SURFS
 70
0
 62
7
420
16777215
  6
CONTINUOUS
370
-3
390
F
  0
LAYER
  5
6B
100
AcDbSymbolTableRecord
100
AcDbLayerTableRecord
  2
05__ASM_ALL_DTM_CSYS
 70
0
 62
7
420
16777215
  6
CONTINUOUS
370
-3
390
F
  0
LAYER
  5
6C
100
AcDbSymbolTableRecord
100
AcDbLayerTableRecord
  2
03_ALL_CURVES
 70
0
 62
7
420
16777215
  6
CONTINUOUS
370
-3
390
F
  0
LAYER
  5
10
100
AcDbSymbolTableRecord
100
AcDbLayerTableRecord
  2
0
 70
0
 62
7
420
16777215
  6
CONTINUOUS
370
-3
390
F
  0
LAYER
  5
6D
100
AcDbSymbolTableRecord
100
AcDbLayerTableRecord
  2
07__ASM_ALL_SKELETONS
 70
0
 62
7
420
16777215
  6
CONTINUOUS
370
-3
390
F
  0
LAYER
  5
6E
100
AcDbSymbolTableRecord
100
AcDbLayerTableRecord
  2
04___PRT_ALL_DTM_PNT
 70
0
 62
7
420
16777215
  6
CONTINUOUS
370
-3
390
F
  0
LAYER
  5
6F
100
AcDbSymbolTableRecord
100
AcDbLayerTableRecord
  2
NOTE2D
 70
0
 62
7
420
16777215
  6
CONTINUOUS
370
-3
390
F
  0
LAYER
  5
70
100
AcDbSymbolTableRecord
100
AcDbLayerTableRecord
  2
01__ASM_DEF_DTM_PLN
 70
0
 62
7
420
16777215
  6
CONTINUOUS
370
-3
390
F
  0
LAYER
  5
71
100
AcDbSymbolTableRecord
100
AcDbLayerTableRecord
  2
05_ALL_DTM_CSYS
 70
0
 62
7
420
16777215
  6
CONTINUOUS
370
-3
390
F
  0
LAYER
  5
72
100
AcDbSymbolTableRecord
100
AcDbLayerTableRecord
  2
01___PRT_DEF_DTM_PLN
 70
0
 62
7
420
16777215
  6
CONTINUOUS
370
-3
390
F
  0
LAYER
  5
73
100
AcDbSymbolTableRecord
100
AcDbLayerTableRecord
  2
02__ASM_ALL_AXES
 70
0
 62
7
420
16777215
  6
CONTINUOUS
370
-3
390
F
  0
LAYER
  5
74
100
AcDbSymbolTableRecord
100
AcDbLayerTableRecord
  2
05___PRT_DEF_DTM_CSYS
 70
0
 62
7
420
16777215
  6
CONTINUOUS
370
-3
390
F
  0
ENDTAB
  0
TABLE
  2
STYLE
  5
3
100
AcDbSymbolTable
 70
36
  0
STYLE
  5
75
100
AcDbSymbolTableRecord
100
AcDbTextStyleTableRecord
  2
Standard
 70
0
 40
0.0
 41
1.0
 50
0.0
 71
0
 42
2.5
  3

  4

1001
ACAD
1000
txt
1071
0
  0
STYLE
  5
76
100
AcDbSymbolTableRecord
100
AcDbTextStyleTableRecord
  2
textstyle0
 70
0
 40
0.0
 41
1.0
 50
0.0
 71
0
 42
0.3125
  3

  4

1001
ACAD
1000
Standard
1071
0
  0
STYLE
  5
77
100
AcDbSymbolTableRecord
100
AcDbTextStyleTableRecord
  2
textstyle1
 70
0
 40
0.0
 41
1.0
 50
0.0
 71
0
 42
0.3125
  3

  4

1001
ACAD
1000
Standard
1071
0
  0
STYLE
  5
78
100
AcDbSymbolTableRecord
100
AcDbTextStyleTableRecord
  2
textstyle2
 70
0
 40
0.0
 41
1.0
 50
0.0
 71
0
 42
0.3125
  3

  4

1001
ACAD
1000
Standard
1071
0
  0
STYLE
  5
79
100
AcDbSymbolTableRecord
100
AcDbTextStyleTableRecord
  2
textstyle3
 70
0
 40
0.0
 41
1.0
 50
0.0
 71
0
 42
0.3125
  3

  4

1001
ACAD
1000
Standard
1071
0
  0
STYLE
  5
7A
100
AcDbSymbolTableRecord
100
AcDbTextStyleTableRecord
  2
textstyle4
 70
0
 40
0.0
 41
1.0
 50
0.0
 71
0
 42
0.3125
  3

  4

1001
ACAD
1000
Standard
1071
0
  0
STYLE
  5
7B
100
AcDbSymbolTableRecord
100
AcDbTextStyleTableRecord
  2
textstyle5
 70
0
 40
0.0
 41
1.0
 50
0.0
 71
0
 42
0.3125
  3

  4

1001
ACAD
1000
Standard
1071
0
  0
STYLE
  5
7C
100
AcDbSymbolTableRecord
100
AcDbTextStyleTableRecord
  2
textstyle6
 70
0
 40
0.0
 41
1.0
 50
0.0
 71
0
 42
0.3125
  3

  4

1001
ACAD
1000
Standard
1071
0
  0
STYLE
  5
7D
100
AcDbSymbolTableRecord
100
AcDbTextStyleTableRecord
  2
textstyle7
 70
0
 40
0.0
 41
1.0
 50
0.0
 71
0
 42
0.3125
  3

  4

1001
ACAD
1000
Standard
1071
0
  0
STYLE
  5
7E
100
AcDbSymbolTableRecord
100
AcDbTextStyleTableRecord
  2
textstyle8
 70
0
 40
0.0
 41
1.0
 50
0.0
 71
0
 42
0.3125
  3

  4

1001
ACAD
1000
Standard
1071
0
  0
STYLE
  5
7F
100
AcDbSymbolTableRecord
100
AcDbTextStyleTableRecord
  2
textstyle9
 70
0
 40
0.0
 41
1.0
 50
0.0
 71
0
 42
0.3125
  3

  4

1001
ACAD
1000
Standard
1071
0
  0
STYLE
  5
80
100
AcDbSymbolTableRecord
100
AcDbTextStyleTableRecord
  2
textstyle10
 70
0
 40
0.0
 41
1.0
 50
0.0
 71
0
 42
0.3125
  3

  4

1001
ACAD
1000
Standard
1071
0
  0
STYLE
  5
81
100
AcDbSymbolTableRecord
100
AcDbTextStyleTableRecord
  2
textstyle11
 70
0
 40
0.0
 41
1.0
 50
0.0
 71
0
 42
0.3125
  3

  4

1001
ACAD
1000
Standard
1071
0
  0
STYLE
  5
82
100
AcDbSymbolTableRecord
100
AcDbTextStyleTableRecord
  2
textstyle12
 70
0
 40
0.0
 41
1.0
 50
0.0
 71
0
 42
0.3125
  3

  4

1001
ACAD
1000
Standard
1071
0
  0
STYLE
  5
83
100
AcDbSymbolTableRecord
100
AcDbTextStyleTableRecord
  2
textstyle13
 70
0
 40
0.0
 41
1.0
 50
0.0
 71
0
 42
0.3125
  3

  4

1001
ACAD
1000
Standard
1071
0
  0
STYLE
  5
84
100
AcDbSymbolTableRecord
100
AcDbTextStyleTableRecord
  2
textstyle14
 70
0
 40
0.0
 41
1.0
 50
0.0
 71
0
 42
0.3125
  3

  4

1001
ACAD
1000
Standard
1071
0
  0
STYLE
  5
85
100
AcDbSymbolTableRecord
100
AcDbTextStyleTableRecord
  2
textstyle15
 70
0
 40
0.0
 41
1.0
 50
0.0
 71
0
 42
0.3125
  3

  4

1001
ACAD
1000
Standard
1071
0
  0
STYLE
  5
86
100
AcDbSymbolTableRecord
100
AcDbTextStyleTableRecord
  2
textstyle16
 70
0
 40
0.0
 41
1.0
 50
0.0
 71
0
 42
0.3125
  3

  4

1001
ACAD
1000
Standard
1071
0
  0
STYLE
  5
87
100
AcDbSymbolTableRecord
100
AcDbTextStyleTableRecord
  2
textstyle17
 70
0
 40
0.0
 41
1.0
 50
0.0
 71
0
 42
0.3125
  3

  4

1001
ACAD
1000
Standard
1071
0
  0
STYLE
  5
88
100
AcDbSymbolTableRecord
100
AcDbTextStyleTableRecord
  2
textstyle18
 70
0
 40
0.0
 41
1.0
 50
0.0
 71
0
 42
7.0
  3

  4

1001
ACAD
1000
Standard
1071
0
  0
STYLE
  5
89
100
AcDbSymbolTableRecord
100
AcDbTextStyleTableRecord
  2
textstyle19
 70
0
 40
0.0
 41
1.0
 50
0.0
 71
0
 42
0.3125
  3

  4

1001
ACAD
1000
Standard
1071
0
  0
STYLE
  5
8A
100
AcDbSymbolTableRecord
100
AcDbTextStyleTableRecord
  2
textstyle20
 70
0
 40
0.0
 41
1.0
 50
0.0
 71
0
 42
0.3125
  3

  4

1001
ACAD
1000
Standard
1071
0
  0
STYLE
  5
8B
100
AcDbSymbolTableRecord
100
AcDbTextStyleTableRecord
  2
textstyle21
 70
0
 40
0.0
 41
1.0
 50
0.0
 71
0
 42
0.3125
  3

  4

1001
ACAD
1000
Standard
1071
0
  0
STYLE
  5
8C
100
AcDbSymbolTableRecord
100
AcDbTextStyleTableRecord
  2
textstyle22
 70
0
 40
0.0
 41
1.0
 50
0.0
 71
0
 42
0.3125
  3

  4

1001
ACAD
1000
Standard
1071
0
  0
STYLE
  5
8D
100
AcDbSymbolTableRecord
100
AcDbTextStyleTableRecord
  2
textstyle23
 70
0
 40
0.0
 41
1.0
 50
0.0
 71
0
 42
0.3125
  3

  4

1001
ACAD
1000
Standard
1071
0
  0
STYLE
  5
8E
100
AcDbSymbolTableRecord
100
AcDbTextStyleTableRecord
  2
textstyle24
 70
0
 40
0.0
 41
1.0
 50
0.0
 71
0
 42
0.3125
  3

  4

1001
ACAD
1000
Standard
1071
0
  0
STYLE
  5
8F
100
AcDbSymbolTableRecord
100
AcDbTextStyleTableRecord
  2
textstyle25
 70
0
 40
0.0
 41
1.0
 50
0.0
 71
0
 42
4.0
  3

  4

1001
ACAD
1000
Standard
1071
0
  0
STYLE
  5
90
100
AcDbSymbolTableRecord
100
AcDbTextStyleTableRecord
  2
textstyle26
 70
0
 40
0.0
 41
1.0
 50
0.0
 71
0
 42
4.0
  3

  4

1001
ACAD
1000
Standard
1071
0
  0
STYLE
  5
91
100
AcDbSymbolTableRecord
100
AcDbTextStyleTableRecord
  2
textstyle27
 70
0
 40
0.0
 41
1.0
 50
0.0
 71
0
 42
7.0
  3

  4

1001
ACAD
1000
Standard
1071
0
  0
STYLE
  5
92
100
AcDbSymbolTableRecord
100
AcDbTextStyleTableRecord
  2
textstyle28
 70
0
 40
0.0
 41
1.0
 50
0.0
 71
0
 42
8.0
  3

  4

1001
ACAD
1000
Standard
1071
0
  0
STYLE
  5
93
100
AcDbSymbolTableRecord
100
AcDbTextStyleTableRecord
  2
textstyle29
 70
0
 40
0.0
 41
1.0
 50
0.0
 71
0
 42
8.0
  3

  4

1001
ACAD
1000
Standard
1071
0
  0
STYLE
  5
94
100
AcDbSymbolTableRecord
100
AcDbTextStyleTableRecord
  2
textstyle30
 70
0
 40
0.0
 41
1.0
 50
0.0
 71
0
 42
8.0
  3

  4

1001
ACAD
1000
Standard
1071
0
  0
STYLE
  5
95
100
AcDbSymbolTableRecord
100
AcDbTextStyleTableRecord
  2
textstyle31
 70
0
 40
0.0
 41
1.0
 50
0.0
 71
0
 42
7.0
  3

  4

1001
ACAD
1000
Standard
1071
0
  0
STYLE
  5
96
100
AcDbSymbolTableRecord
100
AcDbTextStyleTableRecord
  2
textstyle32
 70
0
 40
0.0
 41
1.0
 50
0.0
 71
0
 42
4.0
  3

  4

1001
ACAD
1000
Standard
1071
0
  0
STYLE
  5
97
100
AcDbSymbolTableRecord
100
AcDbTextStyleTableRecord
  2
textstyle33
 70
0
 40
0.0
 41
1.0
 50
0.0
 71
0
 42
4.0
  3

  4

1001
ACAD
1000
Standard
1071
0
  0
STYLE
  5
98
100
AcDbSymbolTableRecord
100
AcDbTextStyleTableRecord
  2
textstyle34
 70
0
 40
0.0
 41
1.0
 50
0.0
 71
0
 42
5.7999883175000004
  3

  4

1001
ACAD
1000
arial
1071
0
  0
ENDTAB
  0
TABLE
  2
VIEW
  5
6
100
AcDbSymbolTable
 70
0
  0
ENDTAB
  0
TABLE
  2
UCS
  5
7
100
AcDbSymbolTable
 70
0
  0
ENDTAB
  0
TABLE
  2
APPID
  5
9
100
AcDbSymbolTable
 70
1
  0
APPID
  5
12
100
AcDbSymbolTableRecord
100
AcDbRegAppTableRecord
  2
ACAD
 70
0
  0
APPID
  5
99
100
AcDbSymbolTableRecord
100
AcDbRegAppTableRecord
  2
QCAD
 70
0
  0
ENDTAB
  0
TABLE
  2
DIMSTYLE
  5
A
100
AcDbSymbolTable
 70
1
100
AcDbDimStyleTable
 71
0
  0
DIMSTYLE
105
27
100
AcDbSymbolTableRecord
100
AcDbDimStyleTableRecord
  2
Standard
 41
6.0
 42
1.5
 43
3.75
 44
1.0
 70
0
 73
1
 74
0
 77
0
 78
8
140
7.0
141
2.5
143
0.03937007874016
147
0.625
171
3
172
1
271
2
272
2
274
3
278
44
283
0
284
8
340
75
  0
ENDTAB
  0
TABLE
  2
BLOCK_RECORD
  5
1
100
AcDbSymbolTable
 70
1
  0
BLOCK_RECORD
  5
1F
100
AcDbSymbolTableRecord
100
AcDbBlockTableRecord
  2
*Model_Space
340
22
  0
BLOCK_RECORD
  5
1B
100
AcDbSymbolTableRecord
100
AcDbBlockTableRecord
  2
*Paper_Space
340
1E
  0
BLOCK_RECORD
  5
23
100
AcDbSymbolTableRecord
100
AcDbBlockTableRecord
  2
*Paper_Space0
340
26
  0
BLOCK_RECORD
  5
9A
100
AcDbSymbolTableRecord
100
AcDbBlockTableRecord
  2
_FILLED
340
0
  0
BLOCK_RECORD
  5
9B
100
AcDbSymbolTableRecord
100
AcDbBlockTableRecord
  2
OMS_LOGO1_BL0
340
0
  0
ENDTAB
  0
ENDSEC
  0
SECTION
  2
BLOCKS
  0
BLOCK
  5
20
100
AcDbEntity
  8
0
100
AcDbBlockBegin
  2
*Model_Space
 70
0
 10
0.0
 20
0.0
 30
0.0
  3
*Model_Space
  1

  0
ENDBLK
  5
21
100
AcDbEntity
  8
0
100
AcDbBlockEnd
  0
BLOCK
  5
1C
100
AcDbEntity
 67
1
  8
0
100
AcDbBlockBegin
  2
*Paper_Space
 70
0
 10
0.0
 20
0.0
 30
0.0
  3
*Paper_Space
  1

  0
ENDBLK
  5
1D
100
AcDbEntity
 67
1
  8
0
100
AcDbBlockEnd
  0
BLOCK
  5
24
100
AcDbEntity
  8
0
100
AcDbBlockBegin
  2
*Paper_Space0
 70
0
 10
0.0
 20
0.0
 30
0.0
  3
*Paper_Space0
  1

  0
ENDBLK
  5
25
100
AcDbEntity
  8
0
100
AcDbBlockEnd
  0
BLOCK
  5
9C
100
AcDbEntity
  8
0
100
AcDbBlockBegin
  2
_FILLED
 70
0
 10
0.0
 20
0.0
 30
0.0
  3
_FILLED
  1

  0
SOLID
  5
9D
100
AcDbEntity
  8
0
 62
0
370
-1
 48
1.0
  6
BYBLOCK
100
AcDbTrace
 10
0.0
 20
0.0
 30
0.0
 11
-1.0
 21
0.1666666667
 31
0.0
 12
-1.0
 22
-0.1666666667
 32
0.0
 13
-1.0
 23
-0.1666666667
 33
0.0
 39
0.0
  0
ENDBLK
  5
9E
100
AcDbEntity
  8
0
100
AcDbBlockEnd
  0
BLOCK
  5
9F
100
AcDbEntity
  8
0
100
AcDbBlockBegin
  2
OMS_LOGO1_BL0
 70
0
 10
72.8529473398999983
 20
29.7256001000999994
 30
0.0
  3
OMS_LOGO1_BL0
  1

  0
TEXT
  5
A0
100
AcDbEntity
  8
0
 62
157
420
4013375
370
-1
 48
1.0
  6
CONTINUOUS
100
AcDbText
 10
70.3619787310000078
 20
27.1279122305999998
 30
0.0
 40
5.7999883175000004
  1
Group
 50
0.0
 41
1.0
  7
textstyle34
 71
0
 72
0
 11
70.3619787310000078
 21
27.1279122305999998
 31
0.0
100
AcDbText
 73
0
  0
LINE
  5
A1
100
AcDbEntity
  8
0
 62
252
420
10263967
370
-1
 48
1.0
  6
CONTINUOUS
100
AcDbLine
 10
91.6571424464999893
 20
34.8352937898999997
 30
0.0
 11
98.8571423440999979
 21
34.8352937898999997
 31
0.0
  0
LINE
  5
A2
100
AcDbEntity
  8
0
 62
252
420
10263967
370
-1
 48
1.0
  6
CONTINUOUS
100
AcDbLine
 10
98.8571423440999979
 20
34.8352937898999997
 30
0.0
 11
105.857142244399995
 21
30.8352938467999991
 31
0.0
  0
LINE
  5
A3
100
AcDbEntity
  8
0
 62
252
420
10263967
370
-1
 48
1.0
  6
CONTINUOUS
100
AcDbLine
 10
91.6571424464999893
 20
34.8352937898999997
 30
0.0
 11
102.4694499849999971
 21
28.6568323392999993
 31
0.0
  0
LINE
  5
A4
100
AcDbEntity
  8
0
 62
252
420
10263967
370
-1
 48
1.0
  6
CONTINUOUS
100
AcDbLine
 10
102.4694499849999971
 20
28.6568323392999993
 30
0.0
 11
65.4571428193000031
 21
15.6352940630999999
 31
0.0
  0
ARC
  5
A5
100
AcDbEntity
  8
0
 62
252
420
10263967
370
-1
 48
1.0
  6
CONTINUOUS
100
AcDbCircle
 10
63.092209717800003
 20
22.3573593463000009
 30
0.0
 40
7.1259434636000014
100
AcDbArc
 50
268.1096141195000087
 51
289.3827104055999939
  0
ARC
  5
A6
100
AcDbEntity
  8
0
 62
252
420
10263967
370
-1
 48
1.0
  6
CONTINUOUS
100
AcDbCircle
 10
62.890476189200001
 20
18.0019606960999994
 30
0.0
 40
2.7668674231999999
100
AcDbArc
 50
238.7994853959999944
 51
269.3097228020998841
  0
LINE
  5
A7
100
AcDbEntity
  8
0
 62
252
420
10263967
370
-1
 48
1.0
  6
CONTINUOUS
100
AcDbLine
 10
61.4571428762999972
 20
15.6352940630999999
 30
0.0
 11
44.8571431124999975
 21
25.0352939292999999
 31
0.0
  0
LINE
  5
A8
100
AcDbEntity
  8
0
 62
252
420
10263967
370
-1
 48
1.0
  6
CONTINUOUS
100
AcDbLine
 10
44.8571431124999975
 20
25.0352939292999999
 30
0.0
 11
38.0571432091999995
 21
25.0352939292999999
 31
0.0
  0
LINE
  5
A9
100
AcDbEntity
  8
0
 62
252
420
10263967
370
-1
 48
1.0
  6
CONTINUOUS
100
AcDbLine
 10
38.0571432091999995
 20
25.0352939292999999
 30
0.0
 11
59.2571429076000129
 21
12.6352941057999999
 31
0.0
  0
ARC
  5
AA
100
AcDbEntity
  8
0
 62
252
420
10263967
370
-1
 48
1.0
  6
CONTINUOUS
100
AcDbCircle
 10
62.9724100302999972
 20
18.9872024123000003
 30
0.0
 40
7.3586648875999998
100
AcDbArc
 50
239.6763931374000265
 51
267.5445261945000084
  0
ARC
  5
AB
100
AcDbEntity
  8
0
 62
252
420
10263967
370
-1
 48
1.0
  6
CONTINUOUS
100
AcDbCircle
 10
63.1518721285999973
 20
23.1721890204999994
 30
0.0
 40
11.5474976075000004
100
AcDbArc
 50
267.5445261945000084
 51
288.7156785138000146
  0
LINE
  5
AC
100
AcDbEntity
  8
0
 62
252
420
10263967
370
-1
 48
1.0
  6
CONTINUOUS
100
AcDbLine
 10
66.8571427993999947
 20
12.2352941115
 30
0.0
 11
104.8571422586999944
 21
25.6352939207999988
 31
0.0
  0
ARC
  5
AD
100
AcDbEntity
  8
0
 62
252
420
10263967
370
-1
 48
1.0
  6
CONTINUOUS
100
AcDbCircle
 10
103.4661864716999986
 20
29.5797954063000006
 30
0.0
 40
4.1825649989000002
100
AcDbArc
 50
289.4242595589000189
 51
329.1545541661000129
  0
ARC
  5
AE
100
AcDbEntity
  8
0
 62
252
420
10263967
370
-1
 48
1.0
  6
CONTINUOUS
100
AcDbCircle
 10
105.2151984215000056
 20
28.5352938794999993
 30
0.0
 40
2.1454036797999998
100
AcDbArc
 50
329.1545541661000129
 51
30.8454458339000013
  0
ARC
  5
AF
100
AcDbEntity
  8
0
 62
252
420
10263967
370
-1
 48
1.0
  6
CONTINUOUS
100
AcDbCircle
 10
104.078031853400006
 20
27.8561834728000015
 30
0.0
 40
3.4699182129000001
100
AcDbArc
 50
30.8454458339000013
 51
59.1545541661000058
  0
ARC
  5
B0
100
AcDbEntity
  8
0
 62
152
420
19863
370
-1
 48
1.0
  6
CONTINUOUS
100
AcDbCircle
 10
52.9729225081999999
 20
35.6659384841000033
 30
0.0
 40
0.6399998655
100
AcDbArc
 50
270.0
 51
360.0
  0
LINE
  5
B1
100
AcDbEntity
  8
0
 62
152
420
19863
370
-1
 48
1.0
  6
CONTINUOUS
100
AcDbLine
 10
53.6129223737000018
 20
35.6659384841000033
 30
0.0
 11
53.6129223737000018
 21
47.1859360627000015
 31
0.0
  0
ARC
  5
B2
100
AcDbEntity
  8
0
 62
152
420
19863
370
-1
 48
1.0
  6
CONTINUOUS
100
AcDbCircle
 10
52.9729225081999999
 20
47.1859360627000015
 30
0.0
 40
0.6399998655
100
AcDbArc
 50
0.0
 51
90.0
  0
LINE
  5
B3
100
AcDbEntity
  8
0
 62
152
420
19863
370
-1
 48
1.0
  6
CONTINUOUS
100
AcDbLine
 10
52.9729225081999999
 20
47.8259359282000034
 30
0.0
 11
41.4529249297000035
 21
47.8259359282000034
 31
0.0
  0
ARC
  5
B4
100
AcDbEntity
  8
0
 62
152
420
19863
370
-1
 48
1.0
  6
CONTINUOUS
100
AcDbCircle
 10
41.4529249297000035
 20
47.1859360627000015
 30
0.0
 40
0.6399998655
100
AcDbArc
 50
90.0
 51
180.0
  0
LINE
  5
B5
100
AcDbEntity
  8
0
 62
152
420
19863
370
-1
 48
1.0
  6
CONTINUOUS
100
AcDbLine
 10
40.8129250642000017
 20
47.1859360627000015
 30
0.0
 11
40.8129250642000017
 21
35.6659384841000033
 31
0.0
  0
ARC
  5
B6
100
AcDbEntity
  8
0
 62
152
420
19863
370
-1
 48
1.0
  6
CONTINUOUS
100
AcDbCircle
 10
41.4529249297000035
 20
35.6659384841000033
 30
0.0
 40
0.6399998655
100
AcDbArc
 50
180.0
 51
270.0
  0
LINE
  5
B7
100
AcDbEntity
  8
0
 62
152
420
19863
370
-1
 48
1.0
  6
CONTINUOUS
100
AcDbLine
 10
41.4529249297000035
 20
35.0259386187000032
 30
0.0
 11
52.9729225081999999
 21
35.0259386187000032
 31
0.0
  0
ARC
  5
B8
100
AcDbEntity
  8
0
 62
152
420
19863
370
-1
 48
1.0
  6
CONTINUOUS
100
AcDbCircle
 10
47.2129237189000008
 20
36.9459382151
 30
0.0
 40
0.6399998655
100
AcDbArc
 50
180.0
 51
360.0
  0
LINE
  5
B9
100
AcDbEntity
  8
0
 62
152
420
19863
370
-1
 48
1.0
  6
CONTINUOUS
100
AcDbLine
 10
46.5729238535000007
 20
36.9459382151
 30
0.0
 11
46.5729238535000007
 21
45.9059363316999978
 31
0.0
  0
ARC
  5
BA
100
AcDbEntity
  8
0
 62
152
420
19863
370
-1
 48
1.0
  6
CONTINUOUS
100
AcDbCircle
 10
47.2129237189000008
 20
45.9059363316999978
 30
0.0
 40
0.6399998655
100
AcDbArc
 50
0.0
 51
180.0
  0
LINE
  5
BB
100
AcDbEntity
  8
0
 62
152
420
19863
370
-1
 48
1.0
  6
CONTINUOUS
100
AcDbLine
 10
47.8529235844000027
 20
45.9059363316999978
 30
0.0
 11
47.8529235844000027
 21
36.9459382151
 31
0.0
  0
ARC
  5
BC
100
AcDbEntity
  8
0
 62
152
420
19863
370
-1
 48
1.0
  6
CONTINUOUS
100
AcDbCircle
 10
62.5729204902999996
 20
45.9059363316999978
 30
0.0
 40
0.6399998655
100
AcDbArc
 50
0.0
 51
180.0
  0
LINE
  5
BD
100
AcDbEntity
  8
0
 62
152
420
19863
370
-1
 48
1.0
  6
CONTINUOUS
100
AcDbLine
 10
63.2129203558000015
 20
45.9059363316999978
 30
0.0
 11
63.2129203558000015
 21
35.6659384841000033
 31
0.0
  0
ARC
  5
BE
100
AcDbEntity
  8
0
 62
152
420
19863
370
-1
 48
1.0
  6
CONTINUOUS
100
AcDbCircle
 10
63.8529202213000033
 20
35.6659384841000033
 30
0.0
 40
0.6399998655
100
AcDbArc
 50
180.0
 51
270.0
  0
LINE
  5
BF
100
AcDbEntity
  8
0
 62
152
420
19863
370
-1
 48
1.0
  6
CONTINUOUS
100
AcDbLine
 10
63.8529202213000033
 20
35.0259386187000032
 30
0.0
 11
68.9729191451000077
 21
35.0259386187000032
 31
0.0
  0
ARC
  5
C0
100
AcDbEntity
  8
0
 62
152
420
19863
370
-1
 48
1.0
  6
CONTINUOUS
100
AcDbCircle
 10
68.9729191451000077
 20
35.6659384841000033
 30
0.0
 40
0.6399998655
100
AcDbArc
 50
270.0
 51
360.0
  0
LINE
  5
C1
100
AcDbEntity
  8
0
 62
152
420
19863
370
-1
 48
1.0
  6
CONTINUOUS
100
AcDbLine
 10
69.6129190106000095
 20
35.6659384841000033
 30
0.0
 11
69.6129190106000095
 21
45.9059363316999978
 31
0.0
  0
ARC
  5
C2
100
AcDbEntity
  8
0
 62
152
420
19863
370
-1
 48
1.0
  6
CONTINUOUS
100
AcDbCircle
 10
70.2529188760000096
 20
45.9059363316999978
 30
0.0
 40
0.6399998655
100
AcDbArc
 50
0.0
 51
180.0
  0
LINE
  5
C3
100
AcDbEntity
  8
0
 62
152
420
19863
370
-1
 48
1.0
  6
CONTINUOUS
100
AcDbLine
 10
70.8929187414999973
 20
45.9059363316999978
 30
0.0
 11
70.8929187414999973
 21
35.6659384841000033
 31
0.0
  0
ARC
  5
C4
100
AcDbEntity
  8
0
 62
152
420
19863
370
-1
 48
1.0
  6
CONTINUOUS
100
AcDbCircle
 10
71.5329186069999992
 20
35.6659384841000033
 30
0.0
 40
0.6399998655
100
AcDbArc
 50
180.0
 51
270.0
  0
LINE
  5
C5
100
AcDbEntity
  8
0
 62
152
420
19863
370
-1
 48
1.0
  6
CONTINUOUS
100
AcDbLine
 10
71.5329186069999992
 20
35.0259386187000032
 30
0.0
 11
76.6529175307999964
 21
35.0259386187000032
 31
0.0
  0
ARC
  5
C6
100
AcDbEntity
  8
0
 62
152
420
19863
370
-1
 48
1.0
  6
CONTINUOUS
100
AcDbCircle
 10
76.6529175307999964
 20
35.6659384841000033
 30
0.0
 40
0.6399998655
100
AcDbArc
 50
270.0
 51
360.0
  0
LINE
  5
C7
100
AcDbEntity
  8
0
 62
152
420
19863
370
-1
 48
1.0
  6
CONTINUOUS
100
AcDbLine
 10
77.2929173962999982
 20
35.6659384841000033
 30
0.0
 11
77.2929173962999982
 21
47.1859360627000015
 31
0.0
  0
ARC
  5
C8
100
AcDbEntity
  8
0
 62
152
420
19863
370
-1
 48
1.0
  6
CONTINUOUS
100
AcDbCircle
 10
76.6529175307999964
 20
47.1859360627000015
 30
0.0
 40
0.6399998655
100
AcDbArc
 50
0.0
 51
90.0
  0
LINE
  5
C9
100
AcDbEntity
  8
0
 62
152
420
19863
370
-1
 48
1.0
  6
CONTINUOUS
100
AcDbLine
 10
76.6529175307999964
 20
47.8259359282000034
 30
0.0
 11
56.1729218356000075
 21
47.8259359282000034
 31
0.0
  0
ARC
  5
CA
100
AcDbEntity
  8
0
 62
152
420
19863
370
-1
 48
1.0
  6
CONTINUOUS
100
AcDbCircle
 10
56.1729218356000075
 20
47.1859360627000015
 30
0.0
 40
0.6399998655
100
AcDbArc
 50
90.0
 51
180.0
  0
LINE
  5
CB
100
AcDbEntity
  8
0
 62
152
420
19863
370
-1
 48
1.0
  6
CONTINUOUS
100
AcDbLine
 10
55.5329219701000127
 20
47.1859360627000015
 30
0.0
 11
55.5329219701000127
 21
35.6659384841000033
 31
0.0
  0
ARC
  5
CC
100
AcDbEntity
  8
0
 62
152
420
19863
370
-1
 48
1.0
  6
CONTINUOUS
100
AcDbCircle
 10
56.1729218356000075
 20
35.6659384841000033
 30
0.0
 40
0.6399998655
100
AcDbArc
 50
180.0
 51
270.0
  0
LINE
  5
CD
100
AcDbEntity
  8
0
 62
152
420
19863
370
-1
 48
1.0
  6
CONTINUOUS
100
AcDbLine
 10
56.1729218356000075
 20
35.0259386187000032
 30
0.0
 11
61.2929207593999976
 21
35.0259386187000032
 31
0.0
  0
ARC
  5
CE
100
AcDbEntity
  8
0
 62
152
420
19863
370
-1
 48
1.0
  6
CONTINUOUS
100
AcDbCircle
 10
61.2929207593999976
 20
35.6659384841000033
 30
0.0
 40
0.6399998655
100
AcDbArc
 50
270.0
 51
360.0
  0
LINE
  5
CF
100
AcDbEntity
  8
0
 62
152
420
19863
370
-1
 48
1.0
  6
CONTINUOUS
100
AcDbLine
 10
61.9329206248999995
 20
35.6659384841000033
 30
0.0
 11
61.9329206248999995
 21
45.9059363316999978
 31
0.0
  0
LINE
  5
D0
100
AcDbEntity
  8
0
 62
152
420
19863
370
-1
 48
1.0
  6
CONTINUOUS
100
AcDbLine
 10
79.2129169927000021
 20
37.713938053699998
 30
0.0
 11
79.2129169927000021
 21
35.6659384841000033
 31
0.0
  0
ARC
  5
D1
100
AcDbEntity
  8
0
 62
152
420
19863
370
-1
 48
1.0
  6
CONTINUOUS
100
AcDbCircle
 10
79.852916858200004
 20
35.6659384841000033
 30
0.0
 40
0.6399998655
100
AcDbArc
 50
180.0
 51
270.0
  0
LINE
  5
D2
100
AcDbEntity
  8
0
 62
152
420
19863
370
-1
 48
1.0
  6
CONTINUOUS
100
AcDbLine
 10
79.852916858200004
 20
35.0259386187000032
 30
0.0
 11
91.3729144367000004
 21
35.0259386187000032
 31
0.0
  0
ARC
  5
D3
100
AcDbEntity
  8
0
 62
152
420
19863
370
-1
 48
1.0
  6
CONTINUOUS
100
AcDbCircle
 10
91.3729144367000004
 20
35.6659384841000033
 30
0.0
 40
0.6399998655
100
AcDbArc
 50
270.0
 51
360.0
  0
LINE
  5
D4
100
AcDbEntity
  8
0
 62
152
420
19863
370
-1
 48
1.0
  6
CONTINUOUS
100
AcDbLine
 10
92.012914302199988
 20
35.6659384841000033
 30
0.0
 11
92.012914302199988
 21
42.577937031300003
 31
0.0
  0
ARC
  5
D5
100
AcDbEntity
  8
0
 62
152
420
19863
370
-1
 48
1.0
  6
CONTINUOUS
100
AcDbCircle
 10
91.3729144367000004
 20
42.577937031300003
 30
0.0
 40
0.6399998655
100
AcDbArc
 50
0.0
 51
90.0
  0
LINE
  5
D6
100
AcDbEntity
  8
0
 62
152
420
19863
370
-1
 48
1.0
  6
CONTINUOUS
100
AcDbLine
 10
91.3729144367000004
 20
43.217936896700003
 30
0.0
 11
91.2536324418000078
 21
43.217936896700003
 31
0.0
  0
LINE
  5
D7
100
AcDbEntity
  8
0
 62
152
420
19863
370
-1
 48
1.0
  6
CONTINUOUS
100
AcDbLine
 10
91.2536324418000078
 20
43.217936896700003
 30
0.0
 11
81.4785903534000084
 21
43.217936896700003
 31
0.0
  0
LINE
  5
D8
100
AcDbEntity
  8
0
 62
152
420
19863
370
-1
 48
1.0
  6
CONTINUOUS
100
AcDbLine
 10
81.4785903534000084
 20
43.217936896700003
 30
0.0
 11
81.1329165890999917
 21
43.217936896700003
 31
0.0
  0
ARC
  5
D9
100
AcDbEntity
  8
0
 62
152
420
19863
370
-1
 48
1.0
  6
CONTINUOUS
100
AcDbCircle
 10
81.1329165890999917
 20
43.8579367621999978
 30
0.0
 40
0.6399998655
100
AcDbArc
 50
90.0
 51
270.0
  0
LINE
  5
DA
100
AcDbEntity
  8
0
 62
152
420
19863
370
-1
 48
1.0
  6
CONTINUOUS
100
AcDbLine
 10
81.1329165890999917
 20
44.4979366277000068
 30
0.0
 11
81.3104357007999994
 21
44.4979366277000068
 31
0.0
  0
LINE
  5
DB
100
AcDbEntity
  8
0
 62
152
420
19863
370
-1
 48
1.0
  6
CONTINUOUS
100
AcDbLine
 10
81.3104357007999994
 20
44.4979366277000068
 30
0.0
 11
91.0854777893000005
 21
44.4979366277000068
 31
0.0
  0
LINE
  5
DC
100
AcDbEntity
  8
0
 62
152
420
19863
370
-1
 48
1.0
  6
CONTINUOUS
100
AcDbLine
 10
91.0854777893000005
 20
44.4979366277000068
 30
0.0
 11
91.3729144367000004
 21
44.4979366277000068
 31
0.0
  0
ARC
  5
DD
100
AcDbEntity
  8
0
 62
152
420
19863
370
-1
 48
1.0
  6
CONTINUOUS
100
AcDbCircle
 10
91.3729144367000004
 20
45.1379364931999874
 30
0.0
 40
0.6399998655
100
AcDbArc
 50
270.0
 51
360.0
  0
LINE
  5
DE
100
AcDbEntity
  8
0
 62
152
420
19863
370
-1
 48
1.0
  6
CONTINUOUS
100
AcDbLine
 10
92.012914302199988
 20
45.1379364931999874
 30
0.0
 11
92.012914302199988
 21
47.1859360627000015
 31
0.0
  0
ARC
  5
DF
100
AcDbEntity
  8
0
 62
152
420
19863
370
-1
 48
1.0
  6
CONTINUOUS
100
AcDbCircle
 10
91.3729144367000004
 20
47.1859360627000015
 30
0.0
 40
0.6399998655
100
AcDbArc
 50
0.0
 51
90.0
  0
LINE
  5
E0
100
AcDbEntity
  8
0
 62
152
420
19863
370
-1
 48
1.0
  6
CONTINUOUS
100
AcDbLine
 10
91.3729144367000004
 20
47.8259359282000034
 30
0.0
 11
79.852916858200004
 21
47.8259359282000034
 31
0.0
  0
ARC
  5
E1
100
AcDbEntity
  8
0
 62
152
420
19863
370
-1
 48
1.0
  6
CONTINUOUS
100
AcDbCircle
 10
79.852916858200004
 20
47.1859360627000015
 30
0.0
 40
0.6399998655
100
AcDbArc
 50
90.0
 51
180.0
  0
LINE
  5
E2
100
AcDbEntity
  8
0
 62
152
420
19863
370
-1
 48
1.0
  6
CONTINUOUS
100
AcDbLine
 10
79.2129169927000021
 20
47.1859360627000015
 30
0.0
 11
79.2129169927000021
 21
40.2739375155999966
 31
0.0
  0
ARC
  5
E3
100
AcDbEntity
  8
0
 62
152
420
19863
370
-1
 48
1.0
  6
CONTINUOUS
100
AcDbCircle
 10
79.852916858200004
 20
40.2739375155999966
 30
0.0
 40
0.6399998655
100
AcDbArc
 50
180.0
 51
270.0
  0
LINE
  5
E4
100
AcDbEntity
  8
0
 62
152
420
19863
370
-1
 48
1.0
  6
CONTINUOUS
100
AcDbLine
 10
79.852916858200004
 20
39.6339376501000018
 30
0.0
 11
80.0668226818999926
 21
39.6339376501000018
 31
0.0
  0
LINE
  5
E5
100
AcDbEntity
  8
0
 62
152
420
19863
370
-1
 48
1.0
  6
CONTINUOUS
100
AcDbLine
 10
80.0668226818999926
 20
39.6339376501000018
 30
0.0
 11
89.841864770400008
 21
39.6339376501000018
 31
0.0
  0
LINE
  5
E6
100
AcDbEntity
  8
0
 62
152
420
19863
370
-1
 48
1.0
  6
CONTINUOUS
100
AcDbLine
 10
89.841864770400008
 20
39.6339376501000018
 30
0.0
 11
90.0929147056999966
 21
39.6339376501000018
 31
0.0
  0
ARC
  5
E7
100
AcDbEntity
  8
0
 62
152
420
19863
370
-1
 48
1.0
  6
CONTINUOUS
100
AcDbCircle
 10
90.0929147056999966
 20
38.9939377845999999
 30
0.0
 40
0.6399998655
100
AcDbArc
 50
270.0
 51
90.0
  0
LINE
  5
E8
100
AcDbEntity
  8
0
 62
152
420
19863
370
-1
 48
1.0
  6
CONTINUOUS
100
AcDbLine
 10
90.0929147056999966
 20
38.3539379190999981
 30
0.0
 11
90.0100194229000152
 21
38.3539379190999981
 31
0.0
  0
LINE
  5
E9
100
AcDbEntity
  8
0
 62
152
420
19863
370
-1
 48
1.0
  6
CONTINUOUS
100
AcDbLine
 10
90.0100194229000152
 20
38.3539379190999981
 30
0.0
 11
79.8729387385999985
 21
38.3539379190999981
 31
0.0
  0
LINE
  5
EA
100
AcDbEntity
  8
0
 62
152
420
19863
370
-1
 48
1.0
  6
CONTINUOUS
100
AcDbLine
 10
79.8729387385999985
 20
38.3539379190999981
 30
0.0
 11
79.852916858200004
 21
38.3539379190999981
 31
0.0
  0
ARC
  5
EB
100
AcDbEntity
  8
0
 62
152
420
19863
370
-1
 48
1.0
  6
CONTINUOUS
100
AcDbCircle
 10
79.852916858200004
 20
37.713938053699998
 30
0.0
 40
0.6399998655
100
AcDbArc
 50
90.0
 51
180.0
  0
LWPOLYLINE
  5
EC
100
AcDbEntity
  8
0
 62
252
420
10263967
370
-1
 48
1.0
  6
CONTINUOUS
100
AcDbPolyline
 90
20
 70
0
 10
107.3519718791000059
 20
28.7275336784999986
 10
107.3606021014000049
 20
28.5352938794999993
 10
65.4571428193000031
 20
15.6352941517000001
 10
102.4694499849999971
 20
28.6568323392999993
 10
91.6571424464999893
 20
34.8352833324000031
 10
98.8571423440999979
 20
34.8352833324000031
 10
105.857142244399995
 20
30.8352938467999991
 10
106.0376257670999962
 20
30.7198042746999995
 10
106.2106369747999963
 20
30.5933951563000015
 10
106.3755161418999933
 20
30.4565485140999996
 10
106.5316345518999981
 20
30.3097861713000007
 10
106.6783968947000005
 20
30.1536677612999995
 10
106.8152435368999988
 20
29.988788594199999
 10
106.941652655300004
 20
29.8157773864999989
 10
107.0571422274000071
 20
29.6352938638999994
 10
107.1482986812000036
 20
29.4658207923000006
 10
107.2239027380999943
 20
29.2888613402999987
 10
107.2833461397000008
 20
29.1058392021000003
 10
107.3261506453000038
 20
28.9182268481999998
 10
107.3519718791000059
 20
28.7275336784999986
  0
HATCH
  5
ED
100
AcDbEntity
  8
0
 62
252
420
10263967
370
-1
 48
1.0
  6
CONTINUOUS
100
AcDbHatch
 10
0.0
 20
0.0
 30
0.0
210
0.0
220
0.0
230
1.0
  2
SOLID
 70
1
 71
0
 91
1
 92
1
 93
19
 72
1
 10
107.3519718791000059
 20
28.7275336784999986
 11
107.3606021014000049
 21
28.5352938794999993
 72
1
 10
107.3606021014000049
 20
28.5352938794999993
 11
65.4571428193000031
 21
15.6352941517000001
 72
1
 10
65.4571428193000031
 20
15.6352941517000001
 11
102.4694499849999971
 21
28.6568323392999993
 72
1
 10
102.4694499849999971
 20
28.6568323392999993
 11
91.6571424464999893
 21
34.8352833324000031
 72
1
 10
91.6571424464999893
 20
34.8352833324000031
 11
98.8571423440999979
 21
34.8352833324000031
 72
1
 10
98.8571423440999979
 20
34.8352833324000031
 11
105.857142244399995
 21
30.8352938467999991
 72
1
 10
105.857142244399995
 20
30.8352938467999991
 11
106.0376257670999962
 21
30.7198042746999995
 72
1
 10
106.0376257670999962
 20
30.7198042746999995
 11
106.2106369747999963
 21
30.5933951563000015
 72
1
 10
106.2106369747999963
 20
30.5933951563000015
 11
106.3755161418999933
 21
30.4565485140999996
 72
1
 10
106.3755161418999933
 20
30.4565485140999996
 11
106.5316345518999981
 21
30.3097861713000007
 72
1
 10
106.5316345518999981
 20
30.3097861713000007
 11
106.6783968947000005
 21
30.1536677612999995
 72
1
 10
106.6783968947000005
 20
30.1536677612999995
 11
106.8152435368999988
 21
29.988788594199999
 72
1
 10
106.8152435368999988
 20
29.988788594199999
 11
106.941652655300004
 21
29.8157773864999989
 72
1
 10
106.941652655300004
 20
29.8157773864999989
 11
107.0571422274000071
 21
29.6352938638999994
 72
1
 10
107.0571422274000071
 20
29.6352938638999994
 11
107.1482986812000036
 21
29.4658207923000006
 72
1
 10
107.1482986812000036
 20
29.4658207923000006
 11
107.2239027380999943
 21
29.2888613402999987
 72
1
 10
107.2239027380999943
 20
29.2888613402999987
 11
107.2833461397000008
 21
29.1058392021000003
 72
1
 10
107.2833461397000008
 20
29.1058392021000003
 11
107.3261506453000038
 21
28.9182268481999998
 72
1
 10
107.3261506453000038
 20
28.9182268481999998
 11
107.3519718791000059
 21
28.7275336784999986
 97
0
 75
0
 76
1
 98
0
1001
ACAD
1010
0.0
1020
0.0
1030
0
  0
LWPOLYLINE
  5
EE
100
AcDbEntity
  8
0
 62
252
420
10263967
370
-1
 48
1.0
  6
CONTINUOUS
100
AcDbPolyline
 90
37
 70
0
 10
104.8571422586999944
 20
25.6352939207999988
 10
66.8571427993999947
 20
12.2352941115
 10
66.2749281629999984
 20
12.0550301207999997
 10
65.6840133797999925
 20
11.9057360879999994
 10
65.0860446082999999
 20
11.7878279134999993
 10
64.4826876580000032
 20
11.7016340635000002
 10
63.8756233485999871
 20
11.6473946549999994
 10
63.2665428276000128
 20
11.6252607871000002
 10
62.6571428592000004
 20
11.6352941199999993
 10
62.2110132448999877
 20
11.6680341628999997
 10
61.7676972656999865
 20
11.7278211658
 10
61.3288331335999999
 20
11.8144341941000004
 10
60.8960426093999985
 20
11.9275531815000004
 10
60.4709250099000002
 20
12.0667601128000008
 10
60.0550512975000004
 20
12.2315405681999998
 10
59.6499582752999871
 20
12.4212856245999994
 10
59.2571429076000129
 20
12.6352941057999999
 10
64.7320979293999983
 20
15.4226757269999997
 10
65.0974403969999997
 20
15.5193684008999995
 10
65.4571428193000031
 20
15.6352941517000001
 10
107.3606021014000049
 20
28.5352938794999993
 10
107.3519718791000059
 20
28.3430540805
 10
107.3261506453000038
 20
28.1523609109000006
 10
107.2833461397000008
 20
27.9647485568999983
 10
107.2239027380999943
 20
27.7817264186999999
 10
107.1482986812000036
 20
27.6047669667000015
 10
107.0571422274000071
 20
27.4352938952000009
 10
106.8999265197000028
 20
27.1916414637999999
 10
106.7262067180000003
 20
26.9594675710000011
 10
106.536817797300003
 20
26.7398881485999986
 10
106.3326700459000023
 20
26.5339585936000013
 10
106.1147446891999948
 20
26.3426686958999987
 10
105.8840891743000014
 20
26.1669378805000008
 10
105.641812134999995
 20
26.0076107884999992
 10
105.3890780634000066
 20
25.8654532173000007
 10
105.1271017126999965
 20
25.7411484399000017
 10
104.8571422586999944
 20
25.6352939207999988
  0
HATCH
  5
EF
100
AcDbEntity
  8
0
 62
252
420
10263967
370
-1
 48
1.0
  6
CONTINUOUS
100
AcDbHatch
 10
0.0
 20
0.0
 30
0.0
210
0.0
220
0.0
230
1.0
  2
SOLID
 70
1
 71
0
 91
1
 92
1
 93
36
 72
1
 10
104.8571422586999944
 20
25.6352939207999988
 11
66.8571427993999947
 21
12.2352941115
 72
1
 10
66.8571427993999947
 20
12.2352941115
 11
66.2749281629999984
 21
12.0550301207999997
 72
1
 10
66.2749281629999984
 20
12.0550301207999997
 11
65.6840133797999925
 21
11.9057360879999994
 72
1
 10
65.6840133797999925
 20
11.9057360879999994
 11
65.0860446082999999
 21
11.7878279134999993
 72
1
 10
65.0860446082999999
 20
11.7878279134999993
 11
64.4826876580000032
 21
11.7016340635000002
 72
1
 10
64.4826876580000032
 20
11.7016340635000002
 11
63.8756233485999871
 21
11.6473946549999994
 72
1
 10
63.8756233485999871
 20
11.6473946549999994
 11
63.2665428276000128
 21
11.6252607871000002
 72
1
 10
63.2665428276000128
 20
11.6252607871000002
 11
62.6571428592000004
 21
11.6352941199999993
 72
1
 10
62.6571428592000004
 20
11.6352941199999993
 11
62.2110132448999877
 21
11.6680341628999997
 72
1
 10
62.2110132448999877
 20
11.6680341628999997
 11
61.7676972656999865
 21
11.7278211658
 72
1
 10
61.7676972656999865
 20
11.7278211658
 11
61.3288331335999999
 21
11.8144341941000004
 72
1
 10
61.3288331335999999
 20
11.8144341941000004
 11
60.8960426093999985
 21
11.9275531815000004
 72
1
 10
60.8960426093999985
 20
11.9275531815000004
 11
60.4709250099000002
 21
12.0667601128000008
 72
1
 10
60.4709250099000002
 20
12.0667601128000008
 11
60.0550512975000004
 21
12.2315405681999998
 72
1
 10
60.0550512975000004
 20
12.2315405681999998
 11
59.6499582752999871
 21
12.4212856245999994
 72
1
 10
59.6499582752999871
 20
12.4212856245999994
 11
59.2571429076000129
 21
12.6352941057999999
 72
1
 10
59.2571429076000129
 20
12.6352941057999999
 11
64.7320979293999983
 21
15.4226757269999997
 72
1
 10
64.7320979293999983
 20
15.4226757269999997
 11
65.0974403969999997
 21
15.5193684008999995
 72
1
 10
65.0974403969999997
 20
15.5193684008999995
 11
65.4571428193000031
 21
15.6352941517000001
 72
1
 10
65.4571428193000031
 20
15.6352941517000001
 11
107.3606021014000049
 21
28.5352938794999993
 72
1
 10
107.3606021014000049
 20
28.5352938794999993
 11
107.3519718791000059
 21
28.3430540805
 72
1
 10
107.3519718791000059
 20
28.3430540805
 11
107.3261506453000038
 21
28.1523609109000006
 72
1
 10
107.3261506453000038
 20
28.1523609109000006
 11
107.2833461397000008
 21
27.9647485568999983
 72
1
 10
107.2833461397000008
 20
27.9647485568999983
 11
107.2239027380999943
 21
27.7817264186999999
 72
1
 10
107.2239027380999943
 20
27.7817264186999999
 11
107.1482986812000036
 21
27.6047669667000015
 72
1
 10
107.1482986812000036
 20
27.6047669667000015
 11
107.0571422274000071
 21
27.4352938952000009
 72
1
 10
107.0571422274000071
 20
27.4352938952000009
 11
106.8999265197000028
 21
27.1916414637999999
 72
1
 10
106.8999265197000028
 20
27.1916414637999999
 11
106.7262067180000003
 21
26.9594675710000011
 72
1
 10
106.7262067180000003
 20
26.9594675710000011
 11
106.536817797300003
 21
26.7398881485999986
 72
1
 10
106.536817797300003
 20
26.7398881485999986
 11
106.3326700459000023
 21
26.5339585936000013
 72
1
 10
106.3326700459000023
 20
26.5339585936000013
 11
106.1147446891999948
 21
26.3426686958999987
 72
1
 10
106.1147446891999948
 20
26.3426686958999987
 11
105.8840891743000014
 21
26.1669378805000008
 72
1
 10
105.8840891743000014
 20
26.1669378805000008
 11
105.641812134999995
 21
26.0076107884999992
 72
1
 10
105.641812134999995
 20
26.0076107884999992
 11
105.3890780634000066
 21
25.8654532173000007
 72
1
 10
105.3890780634000066
 20
25.8654532173000007
 11
105.1271017126999965
 21
25.7411484399000017
 72
1
 10
105.1271017126999965
 20
25.7411484399000017
 11
104.8571422586999944
 21
25.6352939207999988
 97
0
 75
0
 76
1
 98
0
1001
ACAD
1010
0.0
1020
0.0
1030
0
  0
LWPOLYLINE
  5
F0
100
AcDbEntity
  8
0
 62
252
420
10263967
370
-1
 48
1.0
  6
CONTINUOUS
100
AcDbPolyline
 90
19
 70
0
 10
63.2350563484000006
 20
15.232847778
 10
63.612568060400001
 20
15.2504403624999991
 10
63.9886161780000009
 20
15.2880223402999995
 10
64.3621430032000035
 20
15.3454880057
 10
64.7320979293999983
 20
15.4226757269999997
 10
59.2571429076000129
 20
12.6352941057999999
 10
38.0571432091999995
 20
25.0352878877000009
 10
44.8571431124999975
 20
25.0352878877000009
 10
61.4571428762999972
 20
15.6352941517000001
 10
61.5995981809000028
 20
15.5546786719999997
 10
61.746571206299997
 20
15.4826281003999995
 10
61.8975475871
 20
15.4193945054999997
 10
62.0519989471000031
 20
15.3651991876
 10
62.209384748799998
 20
15.3202318157999997
 10
62.3691541845999993
 20
15.2846497632999991
 10
62.5307481051999972
 20
15.2585775578000007
 10
62.6936009760000132
 20
15.2421064447999992
 10
62.8571428563000012
 20
15.2352940688
 10
63.2350563484000006
 20
15.232847778
  0
HATCH
  5
F1
100
AcDbEntity
  8
0
 62
252
420
10263967
370
-1
 48
1.0
  6
CONTINUOUS
100
AcDbHatch
 10
0.0
 20
0.0
 30
0.0
210
0.0
220
0.0
230
1.0
  2
SOLID
 70
1
 71
0
 91
1
 92
1
 93
18
 72
1
 10
63.2350563484000006
 20
15.232847778
 11
63.612568060400001
 21
15.2504403624999991
 72
1
 10
63.612568060400001
 20
15.2504403624999991
 11
63.9886161780000009
 21
15.2880223402999995
 72
1
 10
63.9886161780000009
 20
15.2880223402999995
 11
64.3621430032000035
 21
15.3454880057
 72
1
 10
64.3621430032000035
 20
15.3454880057
 11
64.7320979293999983
 21
15.4226757269999997
 72
1
 10
64.7320979293999983
 20
15.4226757269999997
 11
59.2571429076000129
 21
12.6352941057999999
 72
1
 10
59.2571429076000129
 20
12.6352941057999999
 11
38.0571432091999995
 21
25.0352878877000009
 72
1
 10
38.0571432091999995
 20
25.0352878877000009
 11
44.8571431124999975
 21
25.0352878877000009
 72
1
 10
44.8571431124999975
 20
25.0352878877000009
 11
61.4571428762999972
 21
15.6352941517000001
 72
1
 10
61.4571428762999972
 20
15.6352941517000001
 11
61.5995981809000028
 21
15.5546786719999997
 72
1
 10
61.5995981809000028
 20
15.5546786719999997
 11
61.746571206299997
 21
15.4826281003999995
 72
1
 10
61.746571206299997
 20
15.4826281003999995
 11
61.8975475871
 21
15.4193945054999997
 72
1
 10
61.8975475871
 20
15.4193945054999997
 11
62.0519989471000031
 21
15.3651991876
 72
1
 10
62.0519989471000031
 20
15.3651991876
 11
62.209384748799998
 21
15.3202318157999997
 72
1
 10
62.209384748799998
 20
15.3202318157999997
 11
62.3691541845999993
 21
15.2846497632999991
 72
1
 10
62.3691541845999993
 20
15.2846497632999991
 11
62.5307481051999972
 21
15.2585775578000007
 72
1
 10
62.5307481051999972
 20
15.2585775578000007
 11
62.6936009760000132
 21
15.2421064447999992
 72
1
 10
62.6936009760000132
 20
15.2421064447999992
 11
62.8571428563000012
 21
15.2352940688
 72
1
 10
62.8571428563000012
 20
15.2352940688
 11
63.2350563484000006
 21
15.232847778
 97
0
 75
0
 76
1
 98
0
1001
ACAD
1010
0.0
1020
0.0
1030
0
  0
LWPOLYLINE
  5
F2
100
AcDbEntity
  8
0
 62
152
420
19863
370
-1
 48
1.0
  6
CONTINUOUS
100
AcDbPolyline
 90
42
 70
0
 10
41.3860267271999973
 20
47.8224322136999973
 10
41.4529249297000035
 20
47.8259394130000004
 10
52.9729225081999999
 20
47.8259394130000004
 10
53.0398207105999973
 20
47.8224322136999973
 10
53.1059859623999984
 20
47.811949015899998
 10
53.1706933430000035
 20
47.7946178195999991
 10
53.2332339051000005
 20
47.7706050246000018
 10
53.2929224409
 20
47.7401922310000018
 10
53.3491049905999972
 20
47.7037122386999997
 10
53.4011660063000022
 20
47.661549047500003
 10
53.4485350965000023
 20
47.6141762574999987
 10
53.4906932757999982
 20
47.5621186683999966
 10
53.5271786501000122
 20
47.5059394803000004
 10
53.5575914782000027
 20
47.4462530927999993
 10
53.5815985506999866
 20
47.3837123058999978
 10
53.5989368410999987
 20
47.3189955194999996
 10
53.6094163874999978
 20
47.2528323335000024
 10
53.6129223737000018
 20
47.1859395474999985
 10
47.1293869734999973
 20
46.5404612832000026
 10
47.0472795648999877
 20
46.5241284865999987
 10
46.9680063736999998
 20
46.4972228922999875
 10
46.8929237862000008
 20
46.4601925000999998
 10
46.8233164863000013
 20
46.4136773097999935
 10
46.7603754741000017
 20
46.3584837214000132
 10
46.7051776878999974
 20
46.2955461346999968
 10
46.6586675770000028
 20
46.2259397492999966
 10
40.8129250642000017
 20
35.6659419690000021
 10
40.8129250642000017
 20
47.1859395474999985
 10
40.8164310503999985
 20
47.2528323335000024
 10
40.8269105967999977
 20
47.3189955194999996
 10
40.8442488872000027
 20
47.3837123058999978
 10
40.8682559597000008
 20
47.4462530927999993
 10
40.8986687876999966
 20
47.5059394803000004
 10
40.9351541620999981
 20
47.5621186683999966
 10
40.9773123412999993
 20
47.6141762574999987
 10
41.0246814316000012
 20
47.661549047500003
 10
41.0767424472999991
 20
47.7037122386999997
 10
41.1329249969000017
 20
47.7401922310000018
 10
41.1926135328000029
 20
47.7706050246000018
 10
41.2551540947999982
 20
47.7946178195999991
 10
41.3198614755000122
 20
47.811949015899998
 10
41.3860267271999973
 20
47.8224322136999973
  0
HATCH
  5
F3
100
AcDbEntity
  8
0
 62
152
420
19863
370
-1
 48
1.0
  6
CONTINUOUS
100
AcDbHatch
 10
0.0
 20
0.0
 30
0.0
210
0.0
220
0.0
230
1.0
  2
SOLID
 70
1
 71
0
 91
1
 92
1
 93
41
 72
1
 10
41.3860267271999973
 20
47.8224322136999973
 11
41.4529249297000035
 21
47.8259394130000004
 72
1
 10
41.4529249297000035
 20
47.8259394130000004
 11
52.9729225081999999
 21
47.8259394130000004
 72
1
 10
52.9729225081999999
 20
47.8259394130000004
 11
53.0398207105999973
 21
47.8224322136999973
 72
1
 10
53.0398207105999973
 20
47.8224322136999973
 11
53.1059859623999984
 21
47.811949015899998
 72
1
 10
53.1059859623999984
 20
47.811949015899998
 11
53.1706933430000035
 21
47.7946178195999991
 72
1
 10
53.1706933430000035
 20
47.7946178195999991
 11
53.2332339051000005
 21
47.7706050246000018
 72
1
 10
53.2332339051000005
 20
47.7706050246000018
 11
53.2929224409
 21
47.7401922310000018
 72
1
 10
53.2929224409
 20
47.7401922310000018
 11
53.3491049905999972
 21
47.7037122386999997
 72
1
 10
53.3491049905999972
 20
47.7037122386999997
 11
53.4011660063000022
 21
47.661549047500003
 72
1
 10
53.4011660063000022
 20
47.661549047500003
 11
53.4485350965000023
 21
47.6141762574999987
 72
1
 10
53.4485350965000023
 20
47.6141762574999987
 11
53.4906932757999982
 21
47.5621186683999966
 72
1
 10
53.4906932757999982
 20
47.5621186683999966
 11
53.5271786501000122
 21
47.5059394803000004
 72
1
 10
53.5271786501000122
 20
47.5059394803000004
 11
53.5575914782000027
 21
47.4462530927999993
 72
1
 10
53.5575914782000027
 20
47.4462530927999993
 11
53.5815985506999866
 21
47.3837123058999978
 72
1
 10
53.5815985506999866
 20
47.3837123058999978
 11
53.5989368410999987
 21
47.3189955194999996
 72
1
 10
53.5989368410999987
 20
47.3189955194999996
 11
53.6094163874999978
 21
47.2528323335000024
 72
1
 10
53.6094163874999978
 20
47.2528323335000024
 11
53.6129223737000018
 21
47.1859395474999985
 72
1
 10
53.6129223737000018
 20
47.1859395474999985
 11
47.1293869734999973
 21
46.5404612832000026
 72
1
 10
47.1293869734999973
 20
46.5404612832000026
 11
47.0472795648999877
 21
46.5241284865999987
 72
1
 10
47.0472795648999877
 20
46.5241284865999987
 11
46.9680063736999998
 21
46.4972228922999875
 72
1
 10
46.9680063736999998
 20
46.4972228922999875
 11
46.8929237862000008
 21
46.4601925000999998
 72
1
 10
46.8929237862000008
 20
46.4601925000999998
 11
46.8233164863000013
 21
46.4136773097999935
 72
1
 10
46.8233164863000013
 20
46.4136773097999935
 11
46.7603754741000017
 21
46.3584837214000132
 72
1
 10
46.7603754741000017
 20
46.3584837214000132
 11
46.7051776878999974
 21
46.2955461346999968
 72
1
 10
46.7051776878999974
 20
46.2955461346999968
 11
46.6586675770000028
 21
46.2259397492999966
 72
1
 10
46.6586675770000028
 20
46.2259397492999966
 11
40.8129250642000017
 21
35.6659419690000021
 72
1
 10
40.8129250642000017
 20
35.6659419690000021
 11
40.8129250642000017
 21
47.1859395474999985
 72
1
 10
40.8129250642000017
 20
47.1859395474999985
 11
40.8164310503999985
 21
47.2528323335000024
 72
1
 10
40.8164310503999985
 20
47.2528323335000024
 11
40.8269105967999977
 21
47.3189955194999996
 72
1
 10
40.8269105967999977
 20
47.3189955194999996
 11
40.8442488872000027
 21
47.3837123058999978
 72
1
 10
40.8442488872000027
 20
47.3837123058999978
 11
40.8682559597000008
 21
47.4462530927999993
 72
1
 10
40.8682559597000008
 20
47.4462530927999993
 11
40.8986687876999966
 21
47.5059394803000004
 72
1
 10
40.8986687876999966
 20
47.5059394803000004
 11
40.9351541620999981
 21
47.5621186683999966
 72
1
 10
40.9351541620999981
 20
47.5621186683999966
 11
40.9773123412999993
 21
47.6141762574999987
 72
1
 10
40.9773123412999993
 20
47.6141762574999987
 11
41.0246814316000012
 21
47.661549047500003
 72
1
 10
41.0246814316000012
 20
47.661549047500003
 11
41.0767424472999991
 21
47.7037122386999997
 72
1
 10
41.0767424472999991
 20
47.7037122386999997
 11
41.1329249969000017
 21
47.7401922310000018
 72
1
 10
41.1329249969000017
 20
47.7401922310000018
 11
41.1926135328000029
 21
47.7706050246000018
 72
1
 10
41.1926135328000029
 20
47.7706050246000018
 11
41.2551540947999982
 21
47.7946178195999991
 72
1
 10
41.2551540947999982
 20
47.7946178195999991
 11
41.3198614755000122
 21
47.811949015899998
 72
1
 10
41.3198614755000122
 20
47.811949015899998
 11
41.3860267271999973
 21
47.8224322136999973
 97
0
 75
0
 76
1
 98
0
1001
ACAD
1010
0.0
1020
0.0
1030
0
  0
LWPOLYLINE
  5
F4
100
AcDbEntity
  8
0
 62
152
420
19863
370
-1
 48
1.0
  6
CONTINUOUS
100
AcDbPolyline
 90
50
 70
0
 10
56.1060236332000031
 20
47.8224322136999973
 10
56.1729218356000075
 20
47.8259394130000004
 10
76.6529175307999964
 20
47.8259394130000004
 10
76.7198157331999937
 20
47.8224322136999973
 10
76.785980984899993
 20
47.811949015899998
 10
76.850688365600007
 20
47.7946178195999991
 10
76.9132289276000023
 20
47.7706050246000018
 10
76.9729174635000106
 20
47.7401922310000018
 10
77.0291000131999937
 20
47.7037122386999997
 10
77.0811610287999969
 20
47.661549047500003
 10
77.1285301190999917
 20
47.6141762574999987
 10
77.1706882982999929
 20
47.5621186683999966
 10
77.2071736727000086
 20
47.5059394803000004
 10
77.2375865008000062
 20
47.4462530927999993
 10
77.2615935733000043
 20
47.3837123058999978
 10
77.2789318636999951
 20
47.3189955194999996
 10
77.2894114099999996
 20
47.2528323335000024
 10
77.2929173962999982
 20
47.1859395474999985
 10
70.7054671208999963
 20
46.3584837214000132
 10
70.6425261086999967
 20
46.4136773097999935
 10
70.5729188087999972
 20
46.4601925000999998
 10
70.4978362213000054
 20
46.4972228922999875
 10
70.4185630301000032
 20
46.5241284865999987
 10
70.3364556214999936
 20
46.5404612832000026
 10
70.2529188760000096
 20
46.5459396819999967
 10
62.5729204902999996
 20
46.5459396819999967
 10
62.4893837449000031
 20
46.5404612832000026
 10
62.4072763363000007
 20
46.5241284865999987
 10
62.3280031451000127
 20
46.4972228922999875
 10
62.2529205575999995
 20
46.4601925000999998
 10
62.1833132577000072
 20
46.4136773097999935
 10
62.1203722455000005
 20
46.3584837214000132
 10
62.0651744593000032
 20
46.2955461346999968
 10
62.0186643484000015
 20
46.2259397492999966
 10
55.5329219701000127
 20
35.6659419690000021
 10
55.5329219701000127
 20
47.1859395474999985
 10
55.5364279563000025
 20
47.2528323335000024
 10
55.5469075027000017
 20
47.3189955194999996
 10
55.5642457931000067
 20
47.3837123058999978
 10
55.5882528655999977
 20
47.4462530927999993
 10
55.6186656937000024
 20
47.5059394803000004
 10
55.6551510680000021
 20
47.5621186683999966
 10
55.697309247299998
 20
47.6141762574999987
 10
55.7446783374999981
 20
47.661549047500003
 10
55.7967393532000031
 20
47.7037122386999997
 10
55.8529219027999986
 20
47.7401922310000018
 10
55.9126104386999998
 20
47.7706050246000018
 10
55.9751510007999968
 20
47.7946178195999991
 10
56.039858381400002
 20
47.811949015899998
 10
56.1060236332000031
 20
47.8224322136999973
  0
HATCH
  5
F5
100
AcDbEntity
  8
0
 62
152
420
19863
370
-1
 48
1.0
  6
CONTINUOUS
100
AcDbHatch
 10
0.0
 20
0.0
 30
0.0
210
0.0
220
0.0
230
1.0
  2
SOLID
 70
1
 71
0
 91
1
 92
1
 93
49
 72
1
 10
56.1060236332000031
 20
47.8224322136999973
 11
56.1729218356000075
 21
47.8259394130000004
 72
1
 10
56.1729218356000075
 20
47.8259394130000004
 11
76.6529175307999964
 21
47.8259394130000004
 72
1
 10
76.6529175307999964
 20
47.8259394130000004
 11
76.7198157331999937
 21
47.8224322136999973
 72
1
 10
76.7198157331999937
 20
47.8224322136999973
 11
76.785980984899993
 21
47.811949015899998
 72
1
 10
76.785980984899993
 20
47.811949015899998
 11
76.850688365600007
 21
47.7946178195999991
 72
1
 10
76.850688365600007
 20
47.7946178195999991
 11
76.9132289276000023
 21
47.7706050246000018
 72
1
 10
76.9132289276000023
 20
47.7706050246000018
 11
76.9729174635000106
 21
47.7401922310000018
 72
1
 10
76.9729174635000106
 20
47.7401922310000018
 11
77.0291000131999937
 21
47.7037122386999997
 72
1
 10
77.0291000131999937
 20
47.7037122386999997
 11
77.0811610287999969
 21
47.661549047500003
 72
1
 10
77.0811610287999969
 20
47.661549047500003
 11
77.1285301190999917
 21
47.6141762574999987
 72
1
 10
77.1285301190999917
 20
47.6141762574999987
 11
77.1706882982999929
 21
47.5621186683999966
 72
1
 10
77.1706882982999929
 20
47.5621186683999966
 11
77.2071736727000086
 21
47.5059394803000004
 72
1
 10
77.2071736727000086
 20
47.5059394803000004
 11
77.2375865008000062
 21
47.4462530927999993
 72
1
 10
77.2375865008000062
 20
47.4462530927999993
 11
77.2615935733000043
 21
47.3837123058999978
 72
1
 10
77.2615935733000043
 20
47.3837123058999978
 11
77.2789318636999951
 21
47.3189955194999996
 72
1
 10
77.2789318636999951
 20
47.3189955194999996
 11
77.2894114099999996
 21
47.2528323335000024
 72
1
 10
77.2894114099999996
 20
47.2528323335000024
 11
77.2929173962999982
 21
47.1859395474999985
 72
1
 10
77.2929173962999982
 20
47.1859395474999985
 11
70.7054671208999963
 21
46.3584837214000132
 72
1
 10
70.7054671208999963
 20
46.3584837214000132
 11
70.6425261086999967
 21
46.4136773097999935
 72
1
 10
70.6425261086999967
 20
46.4136773097999935
 11
70.5729188087999972
 21
46.4601925000999998
 72
1
 10
70.5729188087999972
 20
46.4601925000999998
 11
70.4978362213000054
 21
46.4972228922999875
 72
1
 10
70.4978362213000054
 20
46.4972228922999875
 11
70.4185630301000032
 21
46.5241284865999987
 72
1
 10
70.4185630301000032
 20
46.5241284865999987
 11
70.3364556214999936
 21
46.5404612832000026
 72
1
 10
70.3364556214999936
 20
46.5404612832000026
 11
70.2529188760000096
 21
46.5459396819999967
 72
1
 10
70.2529188760000096
 20
46.5459396819999967
 11
62.5729204902999996
 21
46.5459396819999967
 72
1
 10
62.5729204902999996
 20
46.5459396819999967
 11
62.4893837449000031
 21
46.5404612832000026
 72
1
 10
62.4893837449000031
 20
46.5404612832000026
 11
62.4072763363000007
 21
46.5241284865999987
 72
1
 10
62.4072763363000007
 20
46.5241284865999987
 11
62.3280031451000127
 21
46.4972228922999875
 72
1
 10
62.3280031451000127
 20
46.4972228922999875
 11
62.2529205575999995
 21
46.4601925000999998
 72
1
 10
62.2529205575999995
 20
46.4601925000999998
 11
62.1833132577000072
 21
46.4136773097999935
 72
1
 10
62.1833132577000072
 20
46.4136773097999935
 11
62.1203722455000005
 21
46.3584837214000132
 72
1
 10
62.1203722455000005
 20
46.3584837214000132
 11
62.0651744593000032
 21
46.2955461346999968
 72
1
 10
62.0651744593000032
 20
46.2955461346999968
 11
62.0186643484000015
 21
46.2259397492999966
 72
1
 10
62.0186643484000015
 20
46.2259397492999966
 11
55.5329219701000127
 21
35.6659419690000021
 72
1
 10
55.5329219701000127
 20
35.6659419690000021
 11
55.5329219701000127
 21
47.1859395474999985
 72
1
 10
55.5329219701000127
 20
47.1859395474999985
 11
55.5364279563000025
 21
47.2528323335000024
 72
1
 10
55.5364279563000025
 20
47.2528323335000024
 11
55.5469075027000017
 21
47.3189955194999996
 72
1
 10
55.5469075027000017
 20
47.3189955194999996
 11
55.5642457931000067
 21
47.3837123058999978
 72
1
 10
55.5642457931000067
 20
47.3837123058999978
 11
55.5882528655999977
 21
47.4462530927999993
 72
1
 10
55.5882528655999977
 20
47.4462530927999993
 11
55.6186656937000024
 21
47.5059394803000004
 72
1
 10
55.6186656937000024
 20
47.5059394803000004
 11
55.6551510680000021
 21
47.5621186683999966
 72
1
 10
55.6551510680000021
 20
47.5621186683999966
 11
55.697309247299998
 21
47.6141762574999987
 72
1
 10
55.697309247299998
 20
47.6141762574999987
 11
55.7446783374999981
 21
47.661549047500003
 72
1
 10
55.7446783374999981
 20
47.661549047500003
 11
55.7967393532000031
 21
47.7037122386999997
 72
1
 10
55.7967393532000031
 20
47.7037122386999997
 11
55.8529219027999986
 21
47.7401922310000018
 72
1
 10
55.8529219027999986
 20
47.7401922310000018
 11
55.9126104386999998
 21
47.7706050246000018
 72
1
 10
55.9126104386999998
 20
47.7706050246000018
 11
55.9751510007999968
 21
47.7946178195999991
 72
1
 10
55.9751510007999968
 20
47.7946178195999991
 11
56.039858381400002
 21
47.811949015899998
 72
1
 10
56.039858381400002
 20
47.811949015899998
 11
56.1060236332000031
 21
47.8224322136999973
 97
0
 75
0
 76
1
 98
0
1001
ACAD
1010
0.0
1020
0.0
1030
0
  0
LWPOLYLINE
  5
F6
100
AcDbEntity
  8
0
 62
152
420
19863
370
-1
 48
1.0
  6
CONTINUOUS
100
AcDbPolyline
 90
42
 70
0
 10
79.7860186556999906
 20
47.8224322136999973
 10
79.852916858200004
 20
47.8259394130000004
 10
91.3729144367000004
 20
47.8259394130000004
 10
91.4398126390999977
 20
47.8224322136999973
 10
91.505977890799997
 20
47.811949015899998
 10
91.5706852714999968
 20
47.7946178195999991
 10
91.6332258335000063
 20
47.7706050246000018
 10
91.6929143694000004
 20
47.7401922310000018
 10
91.7490969190999976
 20
47.7037122386999997
 10
91.8011579347999884
 20
47.661549047500003
 10
91.8485270249999957
 20
47.6141762574999987
 10
91.8906852042999986
 20
47.5621186683999966
 10
91.9271705786000126
 20
47.5059394803000004
 10
91.957583406699996
 20
47.4462530927999993
 10
91.9815904791999941
 20
47.3837123058999978
 10
91.9989287695999849
 20
47.3189955194999996
 10
92.0094083159000036
 20
47.2528323335000024
 10
92.012914302199988
 20
47.1859395474999985
 10
80.9672724350999999
 20
44.4761291610999976
 10
80.8879992438999977
 20
44.4492195386999995
 10
80.8129166564000059
 20
44.412192904100003
 10
80.7433093564000046
 20
44.3656827933000031
 10
80.6803683443000068
 20
44.3104850070999987
 10
80.6251705580000078
 20
44.2475439948999991
 10
80.5786604472000079
 20
44.1779366949999996
 10
80.5416338125999971
 20
44.1028541075000007
 10
79.2129169927000021
 20
40.2739375155999966
 10
79.2129169927000021
 20
47.1859395474999985
 10
79.216422978899999
 20
47.2528323335000024
 10
79.226902525299991
 20
47.3189955194999996
 10
79.244240815699996
 20
47.3837123058999978
 10
79.2682478881999941
 20
47.4462530927999993
 10
79.2986607162000041
 20
47.5059394803000004
 10
79.3351460906000057
 20
47.5621186683999966
 10
79.3773042697999927
 20
47.6141762574999987
 10
79.4246733601000017
 20
47.661549047500003
 10
79.4767343757999924
 20
47.7037122386999997
 10
79.5329169254000021
 20
47.7401922310000018
 10
79.5926054612999963
 20
47.7706050246000018
 10
79.6551460233000057
 20
47.7946178195999991
 10
79.7198534039999913
 20
47.811949015899998
 10
79.7860186556999906
 20
47.8224322136999973
  0
HATCH
  5
F7
100
AcDbEntity
  8
0
 62
152
420
19863
370
-1
 48
1.0
  6
CONTINUOUS
100
AcDbHatch
 10
0.0
 20
0.0
 30
0.0
210
0.0
220
0.0
230
1.0
  2
SOLID
 70
1
 71
0
 91
1
 92
1
 93
41
 72
1
 10
79.7860186556999906
 20
47.8224322136999973
 11
79.852916858200004
 21
47.8259394130000004
 72
1
 10
79.852916858200004
 20
47.8259394130000004
 11
91.3729144367000004
 21
47.8259394130000004
 72
1
 10
91.3729144367000004
 20
47.8259394130000004
 11
91.4398126390999977
 21
47.8224322136999973
 72
1
 10
91.4398126390999977
 20
47.8224322136999973
 11
91.505977890799997
 21
47.811949015899998
 72
1
 10
91.505977890799997
 20
47.811949015899998
 11
91.5706852714999968
 21
47.7946178195999991
 72
1
 10
91.5706852714999968
 20
47.7946178195999991
 11
91.6332258335000063
 21
47.7706050246000018
 72
1
 10
91.6332258335000063
 20
47.7706050246000018
 11
91.6929143694000004
 21
47.7401922310000018
 72
1
 10
91.6929143694000004
 20
47.7401922310000018
 11
91.7490969190999976
 21
47.7037122386999997
 72
1
 10
91.7490969190999976
 20
47.7037122386999997
 11
91.8011579347999884
 21
47.661549047500003
 72
1
 10
91.8011579347999884
 20
47.661549047500003
 11
91.8485270249999957
 21
47.6141762574999987
 72
1
 10
91.8485270249999957
 20
47.6141762574999987
 11
91.8906852042999986
 21
47.5621186683999966
 72
1
 10
91.8906852042999986
 20
47.5621186683999966
 11
91.9271705786000126
 21
47.5059394803000004
 72
1
 10
91.9271705786000126
 20
47.5059394803000004
 11
91.957583406699996
 21
47.4462530927999993
 72
1
 10
91.957583406699996
 20
47.4462530927999993
 11
91.9815904791999941
 21
47.3837123058999978
 72
1
 10
91.9815904791999941
 20
47.3837123058999978
 11
91.9989287695999849
 21
47.3189955194999996
 72
1
 10
91.9989287695999849
 20
47.3189955194999996
 11
92.0094083159000036
 21
47.2528323335000024
 72
1
 10
92.0094083159000036
 20
47.2528323335000024
 11
92.012914302199988
 21
47.1859395474999985
 72
1
 10
92.012914302199988
 20
47.1859395474999985
 11
80.9672724350999999
 21
44.4761291610999976
 72
1
 10
80.9672724350999999
 20
44.4761291610999976
 11
80.8879992438999977
 21
44.4492195386999995
 72
1
 10
80.8879992438999977
 20
44.4492195386999995
 11
80.8129166564000059
 21
44.412192904100003
 72
1
 10
80.8129166564000059
 20
44.412192904100003
 11
80.7433093564000046
 21
44.3656827933000031
 72
1
 10
80.7433093564000046
 20
44.3656827933000031
 11
80.6803683443000068
 21
44.3104850070999987
 72
1
 10
80.6803683443000068
 20
44.3104850070999987
 11
80.6251705580000078
 21
44.2475439948999991
 72
1
 10
80.6251705580000078
 20
44.2475439948999991
 11
80.5786604472000079
 21
44.1779366949999996
 72
1
 10
80.5786604472000079
 20
44.1779366949999996
 11
80.5416338125999971
 21
44.1028541075000007
 72
1
 10
80.5416338125999971
 20
44.1028541075000007
 11
79.2129169927000021
 21
40.2739375155999966
 72
1
 10
79.2129169927000021
 20
40.2739375155999966
 11
79.2129169927000021
 21
47.1859395474999985
 72
1
 10
79.2129169927000021
 20
47.1859395474999985
 11
79.216422978899999
 21
47.2528323335000024
 72
1
 10
79.216422978899999
 20
47.2528323335000024
 11
79.226902525299991
 21
47.3189955194999996
 72
1
 10
79.226902525299991
 20
47.3189955194999996
 11
79.244240815699996
 21
47.3837123058999978
 72
1
 10
79.244240815699996
 20
47.3837123058999978
 11
79.2682478881999941
 21
47.4462530927999993
 72
1
 10
79.2682478881999941
 20
47.4462530927999993
 11
79.2986607162000041
 21
47.5059394803000004
 72
1
 10
79.2986607162000041
 20
47.5059394803000004
 11
79.3351460906000057
 21
47.5621186683999966
 72
1
 10
79.3351460906000057
 20
47.5621186683999966
 11
79.3773042697999927
 21
47.6141762574999987
 72
1
 10
79.3773042697999927
 20
47.6141762574999987
 11
79.4246733601000017
 21
47.661549047500003
 72
1
 10
79.4246733601000017
 20
47.661549047500003
 11
79.4767343757999924
 21
47.7037122386999997
 72
1
 10
79.4767343757999924
 20
47.7037122386999997
 11
79.5329169254000021
 21
47.7401922310000018
 72
1
 10
79.5329169254000021
 20
47.7401922310000018
 11
79.5926054612999963
 21
47.7706050246000018
 72
1
 10
79.5926054612999963
 20
47.7706050246000018
 11
79.6551460233000057
 21
47.7946178195999991
 72
1
 10
79.6551460233000057
 20
47.7946178195999991
 11
79.7198534039999913
 21
47.811949015899998
 72
1
 10
79.7198534039999913
 20
47.811949015899998
 11
79.7860186556999906
 21
47.8224322136999973
 97
0
 75
0
 76
1
 98
0
1001
ACAD
1010
0.0
1020
0.0
1030
0
  0
LWPOLYLINE
  5
F8
100
AcDbEntity
  8
0
 62
152
420
19863
370
-1
 48
1.0
  6
CONTINUOUS
100
AcDbPolyline
 90
50
 70
0
 10
62.6564572357999978
 20
46.5404612832000026
 10
62.5729204902999996
 20
46.5459396819999967
 10
70.2529188760000096
 20
46.5459396819999967
 10
70.169382130599999
 20
46.5404612832000026
 10
70.0872747220000036
 20
46.5241284865999987
 10
70.0080015308000014
 20
46.4972228922999875
 10
69.9329189432999954
 20
46.4601925000999998
 10
69.8633116433999959
 20
46.4136773097999935
 10
69.8003706311999963
 20
46.3584837214000132
 10
69.745172844999999
 20
46.2955461346999968
 10
69.6986627340999974
 20
46.2259397492999966
 10
69.6616360995000008
 20
46.1508549651000024
 10
69.6347264771000027
 20
46.0715845817000016
 10
69.6183942981000001
 20
45.9894725990000026
 10
69.6129190106000095
 20
45.9059398165999966
 10
69.6129190106000095
 20
35.6659419690000021
 10
69.6094130242999967
 20
35.5990363829999978
 10
69.5989334780000064
 20
35.5328731968999989
 10
69.5815951876000014
 20
35.468169210500001
 10
69.5575881151000033
 20
35.4056284237000014
 10
69.5271752869999915
 20
35.3459420362000003
 10
69.4906899126000042
 20
35.2897500480000019
 10
69.448531733400003
 20
35.2376924590000016
 10
69.4011626431000082
 20
35.1903196689000026
 10
69.349101627500005
 20
35.148169277800001
 10
69.2929190777999935
 20
35.1116764854999985
 10
63.5926088244000027
 20
35.0812636918999985
 10
63.5329202885000015
 20
35.1116764854999985
 10
63.4767377389000131
 20
35.148169277800001
 10
63.4246767231999868
 20
35.1903196689000026
 10
63.3773076328999991
 20
35.2376924590000016
 10
63.3351494536999979
 20
35.2897500480000019
 10
63.2986640793999982
 20
35.3459420362000003
 10
63.2682512513000006
 20
35.4056284237000014
 10
63.2442441788000025
 20
35.468169210500001
 10
63.2269058883999975
 20
35.5328731968999989
 10
63.2164263419999983
 20
35.5990363829999978
 10
63.2129203558000015
 20
35.6659419690000021
 10
63.2129203558000015
 20
45.9059398165999966
 10
63.2074450681999878
 20
45.9894725990000026
 10
63.1911128891999994
 20
46.0715845817000016
 10
63.1642032669000031
 20
46.1508549651000024
 10
63.1271766322999923
 20
46.2259397492999966
 10
63.0806665213999977
 20
46.2955461346999968
 10
63.0254687352000076
 20
46.3584837214000132
 10
62.9625277230000009
 20
46.4136773097999935
 10
62.8929204231000014
 20
46.4601925000999998
 10
62.8178378356000024
 20
46.4972228922999875
 10
62.7385646443999931
 20
46.5241284865999987
 10
62.6564572357999978
 20
46.5404612832000026
  0
HATCH
  5
F9
100
AcDbEntity
  8
0
 62
152
420
19863
370
-1
 48
1.0
  6
CONTINUOUS
100
AcDbHatch
 10
0.0
 20
0.0
 30
0.0
210
0.0
220
0.0
230
1.0
  2
SOLID
 70
1
 71
0
 91
1
 92
1
 93
49
 72
1
 10
62.6564572357999978
 20
46.5404612832000026
 11
62.5729204902999996
 21
46.5459396819999967
 72
1
 10
62.5729204902999996
 20
46.5459396819999967
 11
70.2529188760000096
 21
46.5459396819999967
 72
1
 10
70.2529188760000096
 20
46.5459396819999967
 11
70.169382130599999
 21
46.5404612832000026
 72
1
 10
70.169382130599999
 20
46.5404612832000026
 11
70.0872747220000036
 21
46.5241284865999987
 72
1
 10
70.0872747220000036
 20
46.5241284865999987
 11
70.0080015308000014
 21
46.4972228922999875
 72
1
 10
70.0080015308000014
 20
46.4972228922999875
 11
69.9329189432999954
 21
46.4601925000999998
 72
1
 10
69.9329189432999954
 20
46.4601925000999998
 11
69.8633116433999959
 21
46.4136773097999935
 72
1
 10
69.8633116433999959
 20
46.4136773097999935
 11
69.8003706311999963
 21
46.3584837214000132
 72
1
 10
69.8003706311999963
 20
46.3584837214000132
 11
69.745172844999999
 21
46.2955461346999968
 72
1
 10
69.745172844999999
 20
46.2955461346999968
 11
69.6986627340999974
 21
46.2259397492999966
 72
1
 10
69.6986627340999974
 20
46.2259397492999966
 11
69.6616360995000008
 21
46.1508549651000024
 72
1
 10
69.6616360995000008
 20
46.1508549651000024
 11
69.6347264771000027
 21
46.0715845817000016
 72
1
 10
69.6347264771000027
 20
46.0715845817000016
 11
69.6183942981000001
 21
45.9894725990000026
 72
1
 10
69.6183942981000001
 20
45.9894725990000026
 11
69.6129190106000095
 21
45.9059398165999966
 72
1
 10
69.6129190106000095
 20
45.9059398165999966
 11
69.6129190106000095
 21
35.6659419690000021
 72
1
 10
69.6129190106000095
 20
35.6659419690000021
 11
69.6094130242999967
 21
35.5990363829999978
 72
1
 10
69.6094130242999967
 20
35.5990363829999978
 11
69.5989334780000064
 21
35.5328731968999989
 72
1
 10
69.5989334780000064
 20
35.5328731968999989
 11
69.5815951876000014
 21
35.468169210500001
 72
1
 10
69.5815951876000014
 20
35.468169210500001
 11
69.5575881151000033
 21
35.4056284237000014
 72
1
 10
69.5575881151000033
 20
35.4056284237000014
 11
69.5271752869999915
 21
35.3459420362000003
 72
1
 10
69.5271752869999915
 20
35.3459420362000003
 11
69.4906899126000042
 21
35.2897500480000019
 72
1
 10
69.4906899126000042
 20
35.2897500480000019
 11
69.448531733400003
 21
35.2376924590000016
 72
1
 10
69.448531733400003
 20
35.2376924590000016
 11
69.4011626431000082
 21
35.1903196689000026
 72
1
 10
69.4011626431000082
 20
35.1903196689000026
 11
69.349101627500005
 21
35.148169277800001
 72
1
 10
69.349101627500005
 20
35.148169277800001
 11
69.2929190777999935
 21
35.1116764854999985
 72
1
 10
69.2929190777999935
 20
35.1116764854999985
 11
63.5926088244000027
 21
35.0812636918999985
 72
1
 10
63.5926088244000027
 20
35.0812636918999985
 11
63.5329202885000015
 21
35.1116764854999985
 72
1
 10
63.5329202885000015
 20
35.1116764854999985
 11
63.4767377389000131
 21
35.148169277800001
 72
1
 10
63.4767377389000131
 20
35.148169277800001
 11
63.4246767231999868
 21
35.1903196689000026
 72
1
 10
63.4246767231999868
 20
35.1903196689000026
 11
63.3773076328999991
 21
35.2376924590000016
 72
1
 10
63.3773076328999991
 20
35.2376924590000016
 11
63.3351494536999979
 21
35.2897500480000019
 72
1
 10
63.3351494536999979
 20
35.2897500480000019
 11
63.2986640793999982
 21
35.3459420362000003
 72
1
 10
63.2986640793999982
 20
35.3459420362000003
 11
63.2682512513000006
 21
35.4056284237000014
 72
1
 10
63.2682512513000006
 20
35.4056284237000014
 11
63.2442441788000025
 21
35.468169210500001
 72
1
 10
63.2442441788000025
 20
35.468169210500001
 11
63.2269058883999975
 21
35.5328731968999989
 72
1
 10
63.2269058883999975
 20
35.5328731968999989
 11
63.2164263419999983
 21
35.5990363829999978
 72
1
 10
63.2164263419999983
 20
35.5990363829999978
 11
63.2129203558000015
 21
35.6659419690000021
 72
1
 10
63.2129203558000015
 20
35.6659419690000021
 11
63.2129203558000015
 21
45.9059398165999966
 72
1
 10
63.2129203558000015
 20
45.9059398165999966
 11
63.2074450681999878
 21
45.9894725990000026
 72
1
 10
63.2074450681999878
 20
45.9894725990000026
 11
63.1911128891999994
 21
46.0715845817000016
 72
1
 10
63.1911128891999994
 20
46.0715845817000016
 11
63.1642032669000031
 21
46.1508549651000024
 72
1
 10
63.1642032669000031
 20
46.1508549651000024
 11
63.1271766322999923
 21
46.2259397492999966
 72
1
 10
63.1271766322999923
 20
46.2259397492999966
 11
63.0806665213999977
 21
46.2955461346999968
 72
1
 10
63.0806665213999977
 20
46.2955461346999968
 11
63.0254687352000076
 21
46.3584837214000132
 72
1
 10
63.0254687352000076
 20
46.3584837214000132
 11
62.9625277230000009
 21
46.4136773097999935
 72
1
 10
62.9625277230000009
 20
46.4136773097999935
 11
62.8929204231000014
 21
46.4601925000999998
 72
1
 10
62.8929204231000014
 20
46.4601925000999998
 11
62.8178378356000024
 21
46.4972228922999875
 72
1
 10
62.8178378356000024
 20
46.4972228922999875
 11
62.7385646443999931
 21
46.5241284865999987
 72
1
 10
62.7385646443999931
 20
46.5241284865999987
 11
62.6564572357999978
 21
46.5404612832000026
 97
0
 75
0
 76
1
 98
0
1001
ACAD
1010
0.0
1020
0.0
1030
0
  0
LWPOLYLINE
  5
FA
100
AcDbEntity
  8
0
 62
152
420
19863
370
-1
 48
1.0
  6
CONTINUOUS
100
AcDbPolyline
 90
23
 70
0
 10
81.1329165890999917
 20
44.4979401124999967
 10
81.0493798435999935
 20
44.4924613401000002
 10
80.9672724350999999
 20
44.4761291610999976
 10
92.012914302199988
 20
47.1859395474999985
 10
92.012914302199988
 20
45.1379364931999874
 10
92.0094083159000036
 20
45.0710382907000024
 10
91.9989287695999849
 20
45.0048730390000031
 10
91.9815904791999941
 20
44.9401656583000033
 10
91.957583406699996
 20
44.877625096300001
 10
91.9271705786000126
 20
44.8179365603999997
 10
91.8906852042999986
 20
44.7617540107999972
 10
91.8485270249999957
 20
44.7096929950999993
 10
91.8011579347999884
 20
44.6623239047999974
 10
91.7490969190999976
 20
44.6201657256000033
 10
91.6929143694000004
 20
44.5836803513000035
 10
91.6332258335000063
 20
44.5532675231999988
 10
91.5706852714999968
 20
44.5292604506999865
 10
91.505977890799997
 20
44.5119221603000028
 10
91.4398126390999977
 20
44.5014426138999966
 10
91.3729144367000004
 20
44.4979401124999967
 10
91.0854777893000005
 20
44.4979401124999967
 10
81.3104357007999994
 20
44.4979401124999967
 10
81.1329165890999917
 20
44.4979401124999967
  0
HATCH
  5
FB
100
AcDbEntity
  8
0
 62
152
420
19863
370
-1
 48
1.0
  6
CONTINUOUS
100
AcDbHatch
 10
0.0
 20
0.0
 30
0.0
210
0.0
220
0.0
230
1.0
  2
SOLID
 70
1
 71
0
 91
1
 92
1
 93
22
 72
1
 10
81.1329165890999917
 20
44.4979401124999967
 11
81.0493798435999935
 21
44.4924613401000002
 72
1
 10
81.0493798435999935
 20
44.4924613401000002
 11
80.9672724350999999
 21
44.4761291610999976
 72
1
 10
80.9672724350999999
 20
44.4761291610999976
 11
92.012914302199988
 21
47.1859395474999985
 72
1
 10
92.012914302199988
 20
47.1859395474999985
 11
92.012914302199988
 21
45.1379364931999874
 72
1
 10
92.012914302199988
 20
45.1379364931999874
 11
92.0094083159000036
 21
45.0710382907000024
 72
1
 10
92.0094083159000036
 20
45.0710382907000024
 11
91.9989287695999849
 21
45.0048730390000031
 72
1
 10
91.9989287695999849
 20
45.0048730390000031
 11
91.9815904791999941
 21
44.9401656583000033
 72
1
 10
91.9815904791999941
 20
44.9401656583000033
 11
91.957583406699996
 21
44.877625096300001
 72
1
 10
91.957583406699996
 20
44.877625096300001
 11
91.9271705786000126
 21
44.8179365603999997
 72
1
 10
91.9271705786000126
 20
44.8179365603999997
 11
91.8906852042999986
 21
44.7617540107999972
 72
1
 10
91.8906852042999986
 20
44.7617540107999972
 11
91.8485270249999957
 21
44.7096929950999993
 72
1
 10
91.8485270249999957
 20
44.7096929950999993
 11
91.8011579347999884
 21
44.6623239047999974
 72
1
 10
91.8011579347999884
 20
44.6623239047999974
 11
91.7490969190999976
 21
44.6201657256000033
 72
1
 10
91.7490969190999976
 20
44.6201657256000033
 11
91.6929143694000004
 21
44.5836803513000035
 72
1
 10
91.6929143694000004
 20
44.5836803513000035
 11
91.6332258335000063
 21
44.5532675231999988
 72
1
 10
91.6332258335000063
 20
44.5532675231999988
 11
91.5706852714999968
 21
44.5292604506999865
 72
1
 10
91.5706852714999968
 20
44.5292604506999865
 11
91.505977890799997
 21
44.5119221603000028
 72
1
 10
91.505977890799997
 20
44.5119221603000028
 11
91.4398126390999977
 21
44.5014426138999966
 72
1
 10
91.4398126390999977
 20
44.5014426138999966
 11
91.3729144367000004
 21
44.4979401124999967
 72
1
 10
91.3729144367000004
 20
44.4979401124999967
 11
91.0854777893000005
 21
44.4979401124999967
 72
1
 10
91.0854777893000005
 20
44.4979401124999967
 11
81.3104357007999994
 21
44.4979401124999967
 72
1
 10
81.3104357007999994
 20
44.4979401124999967
 11
81.1329165890999917
 21
44.4979401124999967
 97
0
 75
0
 76
1
 98
0
1001
ACAD
1010
0.0
1020
0.0
1030
0
  0
LWPOLYLINE
  5
FC
100
AcDbEntity
  8
0
 62
152
420
19863
370
-1
 48
1.0
  6
CONTINUOUS
100
AcDbPolyline
 90
50
 70
0
 10
92.012914302199988
 20
42.577937031300003
 10
79.7860186556999906
 20
39.6374436362999987
 10
79.7198534039999913
 20
39.6479231826999978
 10
79.6551460233000057
 20
39.6652614731000028
 10
79.5926054612999963
 20
39.6892685456000009
 10
79.5329169254000021
 20
39.7196813735999967
 10
79.4767343757999924
 20
39.7561667480000125
 10
79.4246733601000017
 20
39.7983249271999995
 10
79.3773042697999927
 20
39.8456940175000014
 10
79.3351460906000057
 20
39.8977550331999993
 10
79.2986607162000041
 20
39.9539375828000018
 10
79.2682478881999941
 20
40.0136261187000031
 10
79.244240815699996
 20
40.0761666806999983
 10
79.226902525299991
 20
40.1408740613999981
 10
79.216422978899999
 20
40.2070393130999975
 10
79.2129169927000021
 20
40.2739375155999966
 10
80.5416338125999971
 20
44.1028541075000007
 10
80.514724190199999
 20
44.0235809162999985
 10
80.4983920111999964
 20
43.9414735077000032
 10
80.4929167235999898
 20
43.8579367621999978
 10
80.4983920111999964
 20
43.7744000168000014
 10
80.514724190199999
 20
43.6922926081999989
 10
80.5416338125999971
 20
43.6130194169999967
 10
80.5786604472000079
 20
43.5379368294999978
 10
80.6251705580000078
 20
43.4683295294999965
 10
80.6803683443000068
 20
43.4053885173999987
 10
80.7433093564000046
 20
43.3501907312000014
 10
80.8129166564000059
 20
43.3036806202999998
 10
80.8879992438999977
 20
43.2666539857000032
 10
80.9672724350999999
 20
43.239744363299998
 10
81.0493798435999935
 20
43.2234121843000025
 10
81.1329165890999917
 20
43.2179403816000018
 10
81.4785903534000084
 20
43.2179403816000018
 10
91.2536324418000078
 20
43.2179403816000018
 10
91.3729144367000004
 20
43.2179403816000018
 10
91.4398126390999977
 20
43.2144309104999991
 10
91.505977890799997
 20
43.2039513642000017
 10
91.5706852714999968
 20
43.1866130737999967
 10
91.6332258335000063
 20
43.1626060012999986
 10
91.6929143694000004
 20
43.1321931731999868
 10
91.7490969190999976
 20
43.0957077987999995
 10
91.8011579347999884
 20
43.0535496195999983
 10
91.8485270249999957
 20
43.0061805293000035
 10
91.8906852042999986
 20
42.9541195137000003
 10
91.9271705786000126
 20
42.897936964000003
 10
91.957583406699996
 20
42.8382484281000018
 10
91.9815904791999941
 20
42.7757078660999994
 10
91.9989287695999849
 20
42.7110004853999996
 10
92.0094083159000036
 20
42.6448352337000003
 10
92.012914302199988
 20
42.577937031300003
  0
HATCH
  5
FD
100
AcDbEntity
  8
0
 62
152
420
19863
370
-1
 48
1.0
  6
CONTINUOUS
100
AcDbHatch
 10
0.0
 20
0.0
 30
0.0
210
0.0
220
0.0
230
1.0
  2
SOLID
 70
1
 71
0
 91
1
 92
1
 93
49
 72
1
 10
92.012914302199988
 20
42.577937031300003
 11
79.7860186556999906
 21
39.6374436362999987
 72
1
 10
79.7860186556999906
 20
39.6374436362999987
 11
79.7198534039999913
 21
39.6479231826999978
 72
1
 10
79.7198534039999913
 20
39.6479231826999978
 11
79.6551460233000057
 21
39.6652614731000028
 72
1
 10
79.6551460233000057
 20
39.6652614731000028
 11
79.5926054612999963
 21
39.6892685456000009
 72
1
 10
79.5926054612999963
 20
39.6892685456000009
 11
79.5329169254000021
 21
39.7196813735999967
 72
1
 10
79.5329169254000021
 20
39.7196813735999967
 11
79.4767343757999924
 21
39.7561667480000125
 72
1
 10
79.4767343757999924
 20
39.7561667480000125
 11
79.4246733601000017
 21
39.7983249271999995
 72
1
 10
79.4246733601000017
 20
39.7983249271999995
 11
79.3773042697999927
 21
39.8456940175000014
 72
1
 10
79.3773042697999927
 20
39.8456940175000014
 11
79.3351460906000057
 21
39.8977550331999993
 72
1
 10
79.3351460906000057
 20
39.8977550331999993
 11
79.2986607162000041
 21
39.9539375828000018
 72
1
 10
79.2986607162000041
 20
39.9539375828000018
 11
79.2682478881999941
 21
40.0136261187000031
 72
1
 10
79.2682478881999941
 20
40.0136261187000031
 11
79.244240815699996
 21
40.0761666806999983
 72
1
 10
79.244240815699996
 20
40.0761666806999983
 11
79.226902525299991
 21
40.1408740613999981
 72
1
 10
79.226902525299991
 20
40.1408740613999981
 11
79.216422978899999
 21
40.2070393130999975
 72
1
 10
79.216422978899999
 20
40.2070393130999975
 11
79.2129169927000021
 21
40.2739375155999966
 72
1
 10
79.2129169927000021
 20
40.2739375155999966
 11
80.5416338125999971
 21
44.1028541075000007
 72
1
 10
80.5416338125999971
 20
44.1028541075000007
 11
80.514724190199999
 21
44.0235809162999985
 72
1
 10
80.514724190199999
 20
44.0235809162999985
 11
80.4983920111999964
 21
43.9414735077000032
 72
1
 10
80.4983920111999964
 20
43.9414735077000032
 11
80.4929167235999898
 21
43.8579367621999978
 72
1
 10
80.4929167235999898
 20
43.8579367621999978
 11
80.4983920111999964
 21
43.7744000168000014
 72
1
 10
80.4983920111999964
 20
43.7744000168000014
 11
80.514724190199999
 21
43.6922926081999989
 72
1
 10
80.514724190199999
 20
43.6922926081999989
 11
80.5416338125999971
 21
43.6130194169999967
 72
1
 10
80.5416338125999971
 20
43.6130194169999967
 11
80.5786604472000079
 21
43.5379368294999978
 72
1
 10
80.5786604472000079
 20
43.5379368294999978
 11
80.6251705580000078
 21
43.4683295294999965
 72
1
 10
80.6251705580000078
 20
43.4683295294999965
 11
80.6803683443000068
 21
43.4053885173999987
 72
1
 10
80.6803683443000068
 20
43.4053885173999987
 11
80.7433093564000046
 21
43.3501907312000014
 72
1
 10
80.7433093564000046
 20
43.3501907312000014
 11
80.8129166564000059
 21
43.3036806202999998
 72
1
 10
80.8129166564000059
 20
43.3036806202999998
 11
80.8879992438999977
 21
43.2666539857000032
 72
1
 10
80.8879992438999977
 20
43.2666539857000032
 11
80.9672724350999999
 21
43.239744363299998
 72
1
 10
80.9672724350999999
 20
43.239744363299998
 11
81.0493798435999935
 21
43.2234121843000025
 72
1
 10
81.0493798435999935
 20
43.2234121843000025
 11
81.1329165890999917
 21
43.2179403816000018
 72
1
 10
81.1329165890999917
 20
43.2179403816000018
 11
81.4785903534000084
 21
43.2179403816000018
 72
1
 10
81.4785903534000084
 20
43.2179403816000018
 11
91.2536324418000078
 21
43.2179403816000018
 72
1
 10
91.2536324418000078
 20
43.2179403816000018
 11
91.3729144367000004
 21
43.2179403816000018
 72
1
 10
91.3729144367000004
 20
43.2179403816000018
 11
91.4398126390999977
 21
43.2144309104999991
 72
1
 10
91.4398126390999977
 20
43.2144309104999991
 11
91.505977890799997
 21
43.2039513642000017
 72
1
 10
91.505977890799997
 20
43.2039513642000017
 11
91.5706852714999968
 21
43.1866130737999967
 72
1
 10
91.5706852714999968
 20
43.1866130737999967
 11
91.6332258335000063
 21
43.1626060012999986
 72
1
 10
91.6332258335000063
 20
43.1626060012999986
 11
91.6929143694000004
 21
43.1321931731999868
 72
1
 10
91.6929143694000004
 20
43.1321931731999868
 11
91.7490969190999976
 21
43.0957077987999995
 72
1
 10
91.7490969190999976
 20
43.0957077987999995
 11
91.8011579347999884
 21
43.0535496195999983
 72
1
 10
91.8011579347999884
 20
43.0535496195999983
 11
91.8485270249999957
 21
43.0061805293000035
 72
1
 10
91.8485270249999957
 20
43.0061805293000035
 11
91.8906852042999986
 21
42.9541195137000003
 72
1
 10
91.8906852042999986
 20
42.9541195137000003
 11
91.9271705786000126
 21
42.897936964000003
 72
1
 10
91.9271705786000126
 20
42.897936964000003
 11
91.957583406699996
 21
42.8382484281000018
 72
1
 10
91.957583406699996
 20
42.8382484281000018
 11
91.9815904791999941
 21
42.7757078660999994
 72
1
 10
91.9815904791999941
 20
42.7757078660999994
 11
91.9989287695999849
 21
42.7110004853999996
 72
1
 10
91.9989287695999849
 20
42.7110004853999996
 11
92.0094083159000036
 21
42.6448352337000003
 72
1
 10
92.0094083159000036
 20
42.6448352337000003
 11
92.012914302199988
 21
42.577937031300003
 97
0
 75
0
 76
1
 98
0
1001
ACAD
1010
0.0
1020
0.0
1030
0
  0
LWPOLYLINE
  5
FE
100
AcDbEntity
  8
0
 62
152
420
19863
370
-1
 48
1.0
  6
CONTINUOUS
100
AcDbPolyline
 90
50
 70
0
 10
90.0929147056999966
 20
38.3539414039999969
 10
90.176451451200009
 20
38.3594132066999975
 10
90.2585588597999902
 20
38.3757453857000002
 10
90.3378320510000066
 20
38.4026550080999982
 10
90.4129146384999984
 20
38.4396816427000019
 10
90.4825219383999979
 20
38.4861917535000018
 10
90.5454629505999975
 20
38.5413895398000008
 10
90.600660736800009
 20
38.6043305518999986
 10
90.6471708477000107
 20
38.6739378518999999
 10
90.684197482299993
 20
38.7490204393999988
 10
92.012914302199988
 20
42.577937031300003
 10
92.012914302199988
 20
35.6659419690000021
 10
92.0094083159000036
 20
35.5990363829999978
 10
91.9989287695999849
 20
35.5328731968999989
 10
91.9815904791999941
 20
35.468169210500001
 10
91.957583406699996
 20
35.4056284237000014
 10
91.9271705786000126
 20
35.3459420362000003
 10
91.8906852042999986
 20
35.2897500480000019
 10
91.8485270249999957
 20
35.2376924590000016
 10
91.8011579347999884
 20
35.1903196689000026
 10
91.7490969190999976
 20
35.148169277800001
 10
79.4767343757999924
 20
35.148169277800001
 10
79.4246733601000017
 20
35.1903196689000026
 10
79.3773042697999927
 20
35.2376924590000016
 10
79.3351460906000057
 20
35.2897500480000019
 10
79.2986607162000041
 20
35.3459420362000003
 10
79.2682478881999941
 20
35.4056284237000014
 10
79.244240815699996
 20
35.468169210500001
 10
79.226902525299991
 20
35.5328731968999989
 10
79.216422978899999
 20
35.5990363829999978
 10
79.2129169927000021
 20
35.6659419690000021
 10
79.2129169927000021
 20
37.713938053699998
 10
79.216422978899999
 20
37.7808362561000024
 10
79.226902525299991
 20
37.8470015078000017
 10
79.244240815699996
 20
37.9117088885000015
 10
79.2682478881999941
 20
37.9742494504999968
 10
79.2986607162000041
 20
38.033937986399998
 10
79.3351460906000057
 20
38.0901205361000024
 10
79.3773042697999927
 20
38.1421815516999985
 10
79.4246733601000017
 20
38.1895506420000004
 10
79.4767343757999924
 20
38.2317088212000016
 10
79.5329169254000021
 20
38.2681941956000031
 10
79.5926054612999963
 20
38.2986070237000007
 10
79.6551460233000057
 20
38.322614096099997
 10
79.7198534039999913
 20
38.339952386500002
 10
79.7860186556999906
 20
38.3504319329000012
 10
79.852916858200004
 20
38.3539414039999969
 10
79.8729387385999985
 20
38.3539414039999969
 10
90.0100194229000152
 20
38.3539414039999969
 10
90.0929147056999966
 20
38.3539414039999969
  0
HATCH
  5
FF
100
AcDbEntity
  8
0
 62
152
420
19863
370
-1
 48
1.0
  6
CONTINUOUS
100
AcDbHatch
 10
0.0
 20
0.0
 30
0.0
210
0.0
220
0.0
230
1.0
  2
SOLID
 70
1
 71
0
 91
1
 92
1
 93
49
 72
1
 10
90.0929147056999966
 20
38.3539414039999969
 11
90.176451451200009
 21
38.3594132066999975
 72
1
 10
90.176451451200009
 20
38.3594132066999975
 11
90.2585588597999902
 21
38.3757453857000002
 72
1
 10
90.2585588597999902
 20
38.3757453857000002
 11
90.3378320510000066
 21
38.4026550080999982
 72
1
 10
90.3378320510000066
 20
38.4026550080999982
 11
90.4129146384999984
 21
38.4396816427000019
 72
1
 10
90.4129146384999984
 20
38.4396816427000019
 11
90.4825219383999979
 21
38.4861917535000018
 72
1
 10
90.4825219383999979
 20
38.4861917535000018
 11
90.5454629505999975
 21
38.5413895398000008
 72
1
 10
90.5454629505999975
 20
38.5413895398000008
 11
90.600660736800009
 21
38.6043305518999986
 72
1
 10
90.600660736800009
 20
38.6043305518999986
 11
90.6471708477000107
 21
38.6739378518999999
 72
1
 10
90.6471708477000107
 20
38.6739378518999999
 11
90.684197482299993
 21
38.7490204393999988
 72
1
 10
90.684197482299993
 20
38.7490204393999988
 11
92.012914302199988
 21
42.577937031300003
 72
1
 10
92.012914302199988
 20
42.577937031300003
 11
92.012914302199988
 21
35.6659419690000021
 72
1
 10
92.012914302199988
 20
35.6659419690000021
 11
92.0094083159000036
 21
35.5990363829999978
 72
1
 10
92.0094083159000036
 20
35.5990363829999978
 11
91.9989287695999849
 21
35.5328731968999989
 72
1
 10
91.9989287695999849
 20
35.5328731968999989
 11
91.9815904791999941
 21
35.468169210500001
 72
1
 10
91.9815904791999941
 20
35.468169210500001
 11
91.957583406699996
 21
35.4056284237000014
 72
1
 10
91.957583406699996
 20
35.4056284237000014
 11
91.9271705786000126
 21
35.3459420362000003
 72
1
 10
91.9271705786000126
 20
35.3459420362000003
 11
91.8906852042999986
 21
35.2897500480000019
 72
1
 10
91.8906852042999986
 20
35.2897500480000019
 11
91.8485270249999957
 21
35.2376924590000016
 72
1
 10
91.8485270249999957
 20
35.2376924590000016
 11
91.8011579347999884
 21
35.1903196689000026
 72
1
 10
91.8011579347999884
 20
35.1903196689000026
 11
91.7490969190999976
 21
35.148169277800001
 72
1
 10
91.7490969190999976
 20
35.148169277800001
 11
79.4767343757999924
 21
35.148169277800001
 72
1
 10
79.4767343757999924
 20
35.148169277800001
 11
79.4246733601000017
 21
35.1903196689000026
 72
1
 10
79.4246733601000017
 20
35.1903196689000026
 11
79.3773042697999927
 21
35.2376924590000016
 72
1
 10
79.3773042697999927
 20
35.2376924590000016
 11
79.3351460906000057
 21
35.2897500480000019
 72
1
 10
79.3351460906000057
 20
35.2897500480000019
 11
79.2986607162000041
 21
35.3459420362000003
 72
1
 10
79.2986607162000041
 20
35.3459420362000003
 11
79.2682478881999941
 21
35.4056284237000014
 72
1
 10
79.2682478881999941
 20
35.4056284237000014
 11
79.244240815699996
 21
35.468169210500001
 72
1
 10
79.244240815699996
 20
35.468169210500001
 11
79.226902525299991
 21
35.5328731968999989
 72
1
 10
79.226902525299991
 20
35.5328731968999989
 11
79.216422978899999
 21
35.5990363829999978
 72
1
 10
79.216422978899999
 20
35.5990363829999978
 11
79.2129169927000021
 21
35.6659419690000021
 72
1
 10
79.2129169927000021
 20
35.6659419690000021
 11
79.2129169927000021
 21
37.713938053699998
 72
1
 10
79.2129169927000021
 20
37.713938053699998
 11
79.216422978899999
 21
37.7808362561000024
 72
1
 10
79.216422978899999
 20
37.7808362561000024
 11
79.226902525299991
 21
37.8470015078000017
 72
1
 10
79.226902525299991
 20
37.8470015078000017
 11
79.244240815699996
 21
37.9117088885000015
 72
1
 10
79.244240815699996
 20
37.9117088885000015
 11
79.2682478881999941
 21
37.9742494504999968
 72
1
 10
79.2682478881999941
 20
37.9742494504999968
 11
79.2986607162000041
 21
38.033937986399998
 72
1
 10
79.2986607162000041
 20
38.033937986399998
 11
79.3351460906000057
 21
38.0901205361000024
 72
1
 10
79.3351460906000057
 20
38.0901205361000024
 11
79.3773042697999927
 21
38.1421815516999985
 72
1
 10
79.3773042697999927
 20
38.1421815516999985
 11
79.4246733601000017
 21
38.1895506420000004
 72
1
 10
79.4246733601000017
 20
38.1895506420000004
 11
79.4767343757999924
 21
38.2317088212000016
 72
1
 10
79.4767343757999924
 20
38.2317088212000016
 11
79.5329169254000021
 21
38.2681941956000031
 72
1
 10
79.5329169254000021
 20
38.2681941956000031
 11
79.5926054612999963
 21
38.2986070237000007
 72
1
 10
79.5926054612999963
 20
38.2986070237000007
 11
79.6551460233000057
 21
38.322614096099997
 72
1
 10
79.6551460233000057
 20
38.322614096099997
 11
79.7198534039999913
 21
38.339952386500002
 72
1
 10
79.7198534039999913
 20
38.339952386500002
 11
79.7860186556999906
 21
38.3504319329000012
 72
1
 10
79.7860186556999906
 20
38.3504319329000012
 11
79.852916858200004
 21
38.3539414039999969
 72
1
 10
79.852916858200004
 20
38.3539414039999969
 11
79.8729387385999985
 21
38.3539414039999969
 72
1
 10
79.8729387385999985
 20
38.3539414039999969
 11
90.0100194229000152
 21
38.3539414039999969
 72
1
 10
90.0100194229000152
 20
38.3539414039999969
 11
90.0929147056999966
 21
38.3539414039999969
 97
0
 75
0
 76
1
 98
0
1001
ACAD
1010
0.0
1020
0.0
1030
0
  0
LWPOLYLINE
  5
100
100
AcDbEntity
  8
0
 62
152
420
19863
370
-1
 48
1.0
  6
CONTINUOUS
100
AcDbPolyline
 90
50
 70
0
 10
47.2129237189000008
 20
36.3059383495999981
 10
47.2964604643999991
 20
36.3114074332999976
 10
47.3785678730000015
 20
36.3277402298999874
 10
47.4578410641999966
 20
36.3546586241999989
 10
47.5329236517000027
 20
36.3916762164000005
 10
47.6025309516000021
 20
36.4381914065999979
 10
47.6654719638000017
 20
36.4933849949999995
 10
47.720669749999999
 20
36.5563353817999968
 10
47.7671798609000007
 20
36.6259417671999969
 10
53.6129223737000018
 20
47.1859395474999985
 10
53.6129223737000018
 20
35.6659419690000021
 10
53.6094163874999978
 20
35.5990363829999978
 10
53.5989368410999987
 20
35.5328731968999989
 10
53.5815985506999866
 20
35.468169210500001
 10
53.5575914782000027
 20
35.4056284237000014
 10
53.5271786501000122
 20
35.3459420362000003
 10
53.4906932757999982
 20
35.2897500480000019
 10
53.4485350965000023
 20
35.2376924590000016
 10
53.4011660063000022
 20
35.1903196689000026
 10
53.3491049905999972
 20
35.148169277800001
 10
53.2929224409
 20
35.1116764854999985
 10
41.1329249969000017
 20
35.1116764854999985
 10
41.0767424472999991
 20
35.148169277800001
 10
41.0246814316000012
 20
35.1903196689000026
 10
40.9773123412999993
 20
35.2376924590000016
 10
40.9351541620999981
 20
35.2897500480000019
 10
40.8986687876999966
 20
35.3459420362000003
 10
40.8682559597000008
 20
35.4056284237000014
 10
40.8442488872000027
 20
35.468169210500001
 10
40.8269105967999977
 20
35.5328731968999989
 10
40.8164310503999985
 20
35.5990363829999978
 10
40.8129250642000017
 20
35.6659419690000021
 10
46.6586675770000028
 20
46.2259397492999966
 10
46.6216409423999991
 20
46.1508549651000024
 10
46.5947313201000028
 20
46.0715845817000016
 10
46.5783991410000127
 20
45.9894725990000026
 10
46.5729238535000007
 20
45.9059398165999966
 10
46.5729238535000007
 20
36.945941699899997
 10
46.5783991410000127
 20
36.8623961174999977
 10
46.5947313201000028
 20
36.7802969346999973
 10
46.6216409423999991
 20
36.7010265513999983
 10
46.6586675770000028
 20
36.6259417671999969
 10
46.7051776878999974
 20
36.5563353817999968
 10
46.7603754741000017
 20
36.4933849949999995
 10
46.8233164863000013
 20
36.4381914065999979
 10
46.8929237862000008
 20
36.3916762164000005
 10
46.9680063736999998
 20
36.3546586241999989
 10
47.0472795648999877
 20
36.3277402298999874
 10
47.1293869734999973
 20
36.3114074332999976
 10
47.2129237189000008
 20
36.3059383495999981
  0
HATCH
  5
101
100
AcDbEntity
  8
0
 62
152
420
19863
370
-1
 48
1.0
  6
CONTINUOUS
100
AcDbHatch
 10
0.0
 20
0.0
 30
0.0
210
0.0
220
0.0
230
1.0
  2
SOLID
 70
1
 71
0
 91
1
 92
1
 93
49
 72
1
 10
47.2129237189000008
 20
36.3059383495999981
 11
47.2964604643999991
 21
36.3114074332999976
 72
1
 10
47.2964604643999991
 20
36.3114074332999976
 11
47.3785678730000015
 21
36.3277402298999874
 72
1
 10
47.3785678730000015
 20
36.3277402298999874
 11
47.4578410641999966
 21
36.3546586241999989
 72
1
 10
47.4578410641999966
 20
36.3546586241999989
 11
47.5329236517000027
 21
36.3916762164000005
 72
1
 10
47.5329236517000027
 20
36.3916762164000005
 11
47.6025309516000021
 21
36.4381914065999979
 72
1
 10
47.6025309516000021
 20
36.4381914065999979
 11
47.6654719638000017
 21
36.4933849949999995
 72
1
 10
47.6654719638000017
 20
36.4933849949999995
 11
47.720669749999999
 21
36.5563353817999968
 72
1
 10
47.720669749999999
 20
36.5563353817999968
 11
47.7671798609000007
 21
36.6259417671999969
 72
1
 10
47.7671798609000007
 20
36.6259417671999969
 11
53.6129223737000018
 21
47.1859395474999985
 72
1
 10
53.6129223737000018
 20
47.1859395474999985
 11
53.6129223737000018
 21
35.6659419690000021
 72
1
 10
53.6129223737000018
 20
35.6659419690000021
 11
53.6094163874999978
 21
35.5990363829999978
 72
1
 10
53.6094163874999978
 20
35.5990363829999978
 11
53.5989368410999987
 21
35.5328731968999989
 72
1
 10
53.5989368410999987
 20
35.5328731968999989
 11
53.5815985506999866
 21
35.468169210500001
 72
1
 10
53.5815985506999866
 20
35.468169210500001
 11
53.5575914782000027
 21
35.4056284237000014
 72
1
 10
53.5575914782000027
 20
35.4056284237000014
 11
53.5271786501000122
 21
35.3459420362000003
 72
1
 10
53.5271786501000122
 20
35.3459420362000003
 11
53.4906932757999982
 21
35.2897500480000019
 72
1
 10
53.4906932757999982
 20
35.2897500480000019
 11
53.4485350965000023
 21
35.2376924590000016
 72
1
 10
53.4485350965000023
 20
35.2376924590000016
 11
53.4011660063000022
 21
35.1903196689000026
 72
1
 10
53.4011660063000022
 20
35.1903196689000026
 11
53.3491049905999972
 21
35.148169277800001
 72
1
 10
53.3491049905999972
 20
35.148169277800001
 11
53.2929224409
 21
35.1116764854999985
 72
1
 10
53.2929224409
 20
35.1116764854999985
 11
41.1329249969000017
 21
35.1116764854999985
 72
1
 10
41.1329249969000017
 20
35.1116764854999985
 11
41.0767424472999991
 21
35.148169277800001
 72
1
 10
41.0767424472999991
 20
35.148169277800001
 11
41.0246814316000012
 21
35.1903196689000026
 72
1
 10
41.0246814316000012
 20
35.1903196689000026
 11
40.9773123412999993
 21
35.2376924590000016
 72
1
 10
40.9773123412999993
 20
35.2376924590000016
 11
40.9351541620999981
 21
35.2897500480000019
 72
1
 10
40.9351541620999981
 20
35.2897500480000019
 11
40.8986687876999966
 21
35.3459420362000003
 72
1
 10
40.8986687876999966
 20
35.3459420362000003
 11
40.8682559597000008
 21
35.4056284237000014
 72
1
 10
40.8682559597000008
 20
35.4056284237000014
 11
40.8442488872000027
 21
35.468169210500001
 72
1
 10
40.8442488872000027
 20
35.468169210500001
 11
40.8269105967999977
 21
35.5328731968999989
 72
1
 10
40.8269105967999977
 20
35.5328731968999989
 11
40.8164310503999985
 21
35.5990363829999978
 72
1
 10
40.8164310503999985
 20
35.5990363829999978
 11
40.8129250642000017
 21
35.6659419690000021
 72
1
 10
40.8129250642000017
 20
35.6659419690000021
 11
46.6586675770000028
 21
46.2259397492999966
 72
1
 10
46.6586675770000028
 20
46.2259397492999966
 11
46.6216409423999991
 21
46.1508549651000024
 72
1
 10
46.6216409423999991
 20
46.1508549651000024
 11
46.5947313201000028
 21
46.0715845817000016
 72
1
 10
46.5947313201000028
 20
46.0715845817000016
 11
46.5783991410000127
 21
45.9894725990000026
 72
1
 10
46.5783991410000127
 20
45.9894725990000026
 11
46.5729238535000007
 21
45.9059398165999966
 72
1
 10
46.5729238535000007
 20
45.9059398165999966
 11
46.5729238535000007
 21
36.945941699899997
 72
1
 10
46.5729238535000007
 20
36.945941699899997
 11
46.5783991410000127
 21
36.8623961174999977
 72
1
 10
46.5783991410000127
 20
36.8623961174999977
 11
46.5947313201000028
 21
36.7802969346999973
 72
1
 10
46.5947313201000028
 20
36.7802969346999973
 11
46.6216409423999991
 21
36.7010265513999983
 72
1
 10
46.6216409423999991
 20
36.7010265513999983
 11
46.6586675770000028
 21
36.6259417671999969
 72
1
 10
46.6586675770000028
 20
36.6259417671999969
 11
46.7051776878999974
 21
36.5563353817999968
 72
1
 10
46.7051776878999974
 20
36.5563353817999968
 11
46.7603754741000017
 21
36.4933849949999995
 72
1
 10
46.7603754741000017
 20
36.4933849949999995
 11
46.8233164863000013
 21
36.4381914065999979
 72
1
 10
46.8233164863000013
 20
36.4381914065999979
 11
46.8929237862000008
 21
36.3916762164000005
 72
1
 10
46.8929237862000008
 20
36.3916762164000005
 11
46.9680063736999998
 21
36.3546586241999989
 72
1
 10
46.9680063736999998
 20
36.3546586241999989
 11
47.0472795648999877
 21
36.3277402298999874
 72
1
 10
47.0472795648999877
 20
36.3277402298999874
 11
47.1293869734999973
 21
36.3114074332999976
 72
1
 10
47.1293869734999973
 20
36.3114074332999976
 11
47.2129237189000008
 21
36.3059383495999981
 97
0
 75
0
 76
1
 98
0
1001
ACAD
1010
0.0
1020
0.0
1030
0
  0
LWPOLYLINE
  5
102
100
AcDbEntity
  8
0
 62
152
420
19863
370
-1
 48
1.0
  6
CONTINUOUS
100
AcDbPolyline
 90
21
 70
0
 10
47.2129237189000008
 20
46.5459396819999967
 10
47.1293869734999973
 20
46.5404612832000026
 10
53.6129223737000018
 20
47.1859395474999985
 10
47.7671798609000007
 20
36.6259417671999969
 10
47.8042064954999972
 20
36.7010265513999983
 10
47.8311161178000006
 20
36.7802969346999973
 10
47.8474482968000032
 20
36.8623961174999977
 10
47.8529235844000027
 20
36.945941699899997
 10
47.8529235844000027
 20
45.9059398165999966
 10
47.8474482968000032
 20
45.9894725990000026
 10
47.8311161178000006
 20
46.0715845817000016
 10
47.8042064954999972
 20
46.1508549651000024
 10
47.7671798609000007
 20
46.2259397492999966
 10
47.720669749999999
 20
46.2955461346999968
 10
47.6654719638000017
 20
46.3584837214000132
 10
47.6025309516000021
 20
46.4136773097999935
 10
47.5329236517000027
 20
46.4601925000999998
 10
47.4578410641999966
 20
46.4972228922999875
 10
47.3785678730000015
 20
46.5241284865999987
 10
47.2964604643999991
 20
46.5404612832000026
 10
47.2129237189000008
 20
46.5459396819999967
  0
HATCH
  5
103
100
AcDbEntity
  8
0
 62
152
420
19863
370
-1
 48
1.0
  6
CONTINUOUS
100
AcDbHatch
 10
0.0
 20
0.0
 30
0.0
210
0.0
220
0.0
230
1.0
  2
SOLID
 70
1
 71
0
 91
1
 92
1
 93
20
 72
1
 10
47.2129237189000008
 20
46.5459396819999967
 11
47.1293869734999973
 21
46.5404612832000026
 72
1
 10
47.1293869734999973
 20
46.5404612832000026
 11
53.6129223737000018
 21
47.1859395474999985
 72
1
 10
53.6129223737000018
 20
47.1859395474999985
 11
47.7671798609000007
 21
36.6259417671999969
 72
1
 10
47.7671798609000007
 20
36.6259417671999969
 11
47.8042064954999972
 21
36.7010265513999983
 72
1
 10
47.8042064954999972
 20
36.7010265513999983
 11
47.8311161178000006
 21
36.7802969346999973
 72
1
 10
47.8311161178000006
 20
36.7802969346999973
 11
47.8474482968000032
 21
36.8623961174999977
 72
1
 10
47.8474482968000032
 20
36.8623961174999977
 11
47.8529235844000027
 21
36.945941699899997
 72
1
 10
47.8529235844000027
 20
36.945941699899997
 11
47.8529235844000027
 21
45.9059398165999966
 72
1
 10
47.8529235844000027
 20
45.9059398165999966
 11
47.8474482968000032
 21
45.9894725990000026
 72
1
 10
47.8474482968000032
 20
45.9894725990000026
 11
47.8311161178000006
 21
46.0715845817000016
 72
1
 10
47.8311161178000006
 20
46.0715845817000016
 11
47.8042064954999972
 21
46.1508549651000024
 72
1
 10
47.8042064954999972
 20
46.1508549651000024
 11
47.7671798609000007
 21
46.2259397492999966
 72
1
 10
47.7671798609000007
 20
46.2259397492999966
 11
47.720669749999999
 21
46.2955461346999968
 72
1
 10
47.720669749999999
 20
46.2955461346999968
 11
47.6654719638000017
 21
46.3584837214000132
 72
1
 10
47.6654719638000017
 20
46.3584837214000132
 11
47.6025309516000021
 21
46.4136773097999935
 72
1
 10
47.6025309516000021
 20
46.4136773097999935
 11
47.5329236517000027
 21
46.4601925000999998
 72
1
 10
47.5329236517000027
 20
46.4601925000999998
 11
47.4578410641999966
 21
46.4972228922999875
 72
1
 10
47.4578410641999966
 20
46.4972228922999875
 11
47.3785678730000015
 21
46.5241284865999987
 72
1
 10
47.3785678730000015
 20
46.5241284865999987
 11
47.2964604643999991
 21
46.5404612832000026
 72
1
 10
47.2964604643999991
 20
46.5404612832000026
 11
47.2129237189000008
 21
46.5459396819999967
 97
0
 75
0
 76
1
 98
0
1001
ACAD
1010
0.0
1020
0.0
1030
0
  0
LWPOLYLINE
  5
104
100
AcDbEntity
  8
0
 62
152
420
19863
370
-1
 48
1.0
  6
CONTINUOUS
100
AcDbPolyline
 90
38
 70
0
 10
61.9329206248999995
 20
45.9059398165999966
 10
61.9329206248999995
 20
35.6659419690000021
 10
61.9294146385999866
 20
35.5990363829999978
 10
61.9189350923000035
 20
35.5328731968999989
 10
61.9015968018999985
 20
35.468169210500001
 10
61.8775897293999932
 20
35.4056284237000014
 10
61.8471769013000028
 20
35.3459420362000003
 10
61.810691526899987
 20
35.2897500480000019
 10
61.7685333477000071
 20
35.2376924590000016
 10
61.7211642573999981
 20
35.1903196689000026
 10
61.669103241800002
 20
35.148169277800001
 10
61.6129206920999977
 20
35.1116764854999985
 10
61.5532321562000035
 20
35.0812636918999985
 10
61.4906915942000012
 20
35.0572636969000015
 10
61.4259842135000014
 20
35.0399197006000023
 10
61.3598189618000021
 20
35.0294493028000034
 10
61.2929207593999976
 20
35.0259421035000003
 10
56.1729218356000075
 20
35.0259421035000003
 10
56.1060236332000031
 20
35.0294493028000034
 10
56.039858381400002
 20
35.0399197006000023
 10
55.9751510007999968
 20
35.0572636969000015
 10
55.9126104386999998
 20
35.0812636918999985
 10
55.8529219027999986
 20
35.1116764854999985
 10
55.7967393532000031
 20
35.148169277800001
 10
55.7446783374999981
 20
35.1903196689000026
 10
55.697309247299998
 20
35.2376924590000016
 10
55.6551510680000021
 20
35.2897500480000019
 10
55.6186656937000024
 20
35.3459420362000003
 10
55.5882528655999977
 20
35.4056284237000014
 10
55.5642457931000067
 20
35.468169210500001
 10
55.5469075027000017
 20
35.5328731968999989
 10
55.5364279563000025
 20
35.5990363829999978
 10
55.5329219701000127
 20
35.6659419690000021
 10
62.0186643484000015
 20
46.2259397492999966
 10
61.9816377137999979
 20
46.1508549651000024
 10
61.9547280914000069
 20
46.0715845817000016
 10
61.9383959123999972
 20
45.9894725990000026
 10
61.9329206248999995
 20
45.9059398165999966
  0
HATCH
  5
105
100
AcDbEntity
  8
0
 62
152
420
19863
370
-1
 48
1.0
  6
CONTINUOUS
100
AcDbHatch
 10
0.0
 20
0.0
 30
0.0
210
0.0
220
0.0
230
1.0
  2
SOLID
 70
1
 71
0
 91
1
 92
1
 93
37
 72
1
 10
61.9329206248999995
 20
45.9059398165999966
 11
61.9329206248999995
 21
35.6659419690000021
 72
1
 10
61.9329206248999995
 20
35.6659419690000021
 11
61.9294146385999866
 21
35.5990363829999978
 72
1
 10
61.9294146385999866
 20
35.5990363829999978
 11
61.9189350923000035
 21
35.5328731968999989
 72
1
 10
61.9189350923000035
 20
35.5328731968999989
 11
61.9015968018999985
 21
35.468169210500001
 72
1
 10
61.9015968018999985
 20
35.468169210500001
 11
61.8775897293999932
 21
35.4056284237000014
 72
1
 10
61.8775897293999932
 20
35.4056284237000014
 11
61.8471769013000028
 21
35.3459420362000003
 72
1
 10
61.8471769013000028
 20
35.3459420362000003
 11
61.810691526899987
 21
35.2897500480000019
 72
1
 10
61.810691526899987
 20
35.2897500480000019
 11
61.7685333477000071
 21
35.2376924590000016
 72
1
 10
61.7685333477000071
 20
35.2376924590000016
 11
61.7211642573999981
 21
35.1903196689000026
 72
1
 10
61.7211642573999981
 20
35.1903196689000026
 11
61.669103241800002
 21
35.148169277800001
 72
1
 10
61.669103241800002
 20
35.148169277800001
 11
61.6129206920999977
 21
35.1116764854999985
 72
1
 10
61.6129206920999977
 20
35.1116764854999985
 11
61.5532321562000035
 21
35.0812636918999985
 72
1
 10
61.5532321562000035
 20
35.0812636918999985
 11
61.4906915942000012
 21
35.0572636969000015
 72
1
 10
61.4906915942000012
 20
35.0572636969000015
 11
61.4259842135000014
 21
35.0399197006000023
 72
1
 10
61.4259842135000014
 20
35.0399197006000023
 11
61.3598189618000021
 21
35.0294493028000034
 72
1
 10
61.3598189618000021
 20
35.0294493028000034
 11
61.2929207593999976
 21
35.0259421035000003
 72
1
 10
61.2929207593999976
 20
35.0259421035000003
 11
56.1729218356000075
 21
35.0259421035000003
 72
1
 10
56.1729218356000075
 20
35.0259421035000003
 11
56.1060236332000031
 21
35.0294493028000034
 72
1
 10
56.1060236332000031
 20
35.0294493028000034
 11
56.039858381400002
 21
35.0399197006000023
 72
1
 10
56.039858381400002
 20
35.0399197006000023
 11
55.9751510007999968
 21
35.0572636969000015
 72
1
 10
55.9751510007999968
 20
35.0572636969000015
 11
55.9126104386999998
 21
35.0812636918999985
 72
1
 10
55.9126104386999998
 20
35.0812636918999985
 11
55.8529219027999986
 21
35.1116764854999985
 72
1
 10
55.8529219027999986
 20
35.1116764854999985
 11
55.7967393532000031
 21
35.148169277800001
 72
1
 10
55.7967393532000031
 20
35.148169277800001
 11
55.7446783374999981
 21
35.1903196689000026
 72
1
 10
55.7446783374999981
 20
35.1903196689000026
 11
55.697309247299998
 21
35.2376924590000016
 72
1
 10
55.697309247299998
 20
35.2376924590000016
 11
55.6551510680000021
 21
35.2897500480000019
 72
1
 10
55.6551510680000021
 20
35.2897500480000019
 11
55.6186656937000024
 21
35.3459420362000003
 72
1
 10
55.6186656937000024
 20
35.3459420362000003
 11
55.5882528655999977
 21
35.4056284237000014
 72
1
 10
55.5882528655999977
 20
35.4056284237000014
 11
55.5642457931000067
 21
35.468169210500001
 72
1
 10
55.5642457931000067
 20
35.468169210500001
 11
55.5469075027000017
 21
35.5328731968999989
 72
1
 10
55.5469075027000017
 20
35.5328731968999989
 11
55.5364279563000025
 21
35.5990363829999978
 72
1
 10
55.5364279563000025
 20
35.5990363829999978
 11
55.5329219701000127
 21
35.6659419690000021
 72
1
 10
55.5329219701000127
 20
35.6659419690000021
 11
62.0186643484000015
 21
46.2259397492999966
 72
1
 10
62.0186643484000015
 20
46.2259397492999966
 11
61.9816377137999979
 21
46.1508549651000024
 72
1
 10
61.9816377137999979
 20
46.1508549651000024
 11
61.9547280914000069
 21
46.0715845817000016
 72
1
 10
61.9547280914000069
 20
46.0715845817000016
 11
61.9383959123999972
 21
45.9894725990000026
 72
1
 10
61.9383959123999972
 20
45.9894725990000026
 11
61.9329206248999995
 21
45.9059398165999966
 97
0
 75
0
 76
1
 98
0
1001
ACAD
1010
0.0
1020
0.0
1030
0
  0
LWPOLYLINE
  5
106
100
AcDbEntity
  8
0
 62
152
420
19863
370
-1
 48
1.0
  6
CONTINUOUS
100
AcDbPolyline
 90
41
 70
0
 10
70.7054671208999963
 20
46.3584837214000132
 10
77.2929173962999982
 20
47.1859395474999985
 10
77.2929173962999982
 20
35.6659419690000021
 10
77.2894114099999996
 20
35.5990363829999978
 10
77.2789318636999951
 20
35.5328731968999989
 10
77.2615935733000043
 20
35.468169210500001
 10
77.2375865008000062
 20
35.4056284237000014
 10
77.2071736727000086
 20
35.3459420362000003
 10
77.1706882982999929
 20
35.2897500480000019
 10
77.1285301190999917
 20
35.2376924590000016
 10
77.0811610287999969
 20
35.1903196689000026
 10
77.0291000131999937
 20
35.148169277800001
 10
76.9729174635000106
 20
35.1116764854999985
 10
76.9132289276000023
 20
35.0812636918999985
 10
76.850688365600007
 20
35.0572636969000015
 10
76.785980984899993
 20
35.0399197006000023
 10
76.7198157331999937
 20
35.0294493028000034
 10
76.6529175307999964
 20
35.0259421035000003
 10
71.5329186069999992
 20
35.0259421035000003
 10
71.4660204045
 20
35.0294493028000034
 10
71.3998551528000007
 20
35.0399197006000023
 10
71.3351477721000009
 20
35.0572636969000015
 10
71.2726072101000057
 20
35.0812636918999985
 10
71.2129186741999973
 20
35.1116764854999985
 10
71.1567361246000019
 20
35.148169277800001
 10
71.1046751088999969
 20
35.1903196689000026
 10
71.0573060186000021
 20
35.2376924590000016
 10
71.0151478394000009
 20
35.2897500480000019
 10
70.9786624651000011
 20
35.3459420362000003
 10
70.9482496370000035
 20
35.4056284237000014
 10
70.9242425644999912
 20
35.468169210500001
 10
70.9069042741000004
 20
35.5328731968999989
 10
70.8964247277000084
 20
35.5990363829999978
 10
70.8929187414999973
 20
35.6659419690000021
 10
70.8929187414999973
 20
45.9059398165999966
 10
70.8874434539000049
 20
45.9894725990000026
 10
70.8711112749000023
 20
46.0715845817000016
 10
70.844201652600006
 20
46.1508549651000024
 10
70.8071750178999935
 20
46.2259397492999966
 10
70.7606649070999936
 20
46.2955461346999968
 10
70.7054671208999963
 20
46.3584837214000132
  0
HATCH
  5
107
100
AcDbEntity
  8
0
 62
152
420
19863
370
-1
 48
1.0
  6
CONTINUOUS
100
AcDbHatch
 10
0.0
 20
0.0
 30
0.0
210
0.0
220
0.0
230
1.0
  2
SOLID
 70
1
 71
0
 91
1
 92
1
 93
40
 72
1
 10
70.7054671208999963
 20
46.3584837214000132
 11
77.2929173962999982
 21
47.1859395474999985
 72
1
 10
77.2929173962999982
 20
47.1859395474999985
 11
77.2929173962999982
 21
35.6659419690000021
 72
1
 10
77.2929173962999982
 20
35.6659419690000021
 11
77.2894114099999996
 21
35.5990363829999978
 72
1
 10
77.2894114099999996
 20
35.5990363829999978
 11
77.2789318636999951
 21
35.5328731968999989
 72
1
 10
77.2789318636999951
 20
35.5328731968999989
 11
77.2615935733000043
 21
35.468169210500001
 72
1
 10
77.2615935733000043
 20
35.468169210500001
 11
77.2375865008000062
 21
35.4056284237000014
 72
1
 10
77.2375865008000062
 20
35.4056284237000014
 11
77.2071736727000086
 21
35.3459420362000003
 72
1
 10
77.2071736727000086
 20
35.3459420362000003
 11
77.1706882982999929
 21
35.2897500480000019
 72
1
 10
77.1706882982999929
 20
35.2897500480000019
 11
77.1285301190999917
 21
35.2376924590000016
 72
1
 10
77.1285301190999917
 20
35.2376924590000016
 11
77.0811610287999969
 21
35.1903196689000026
 72
1
 10
77.0811610287999969
 20
35.1903196689000026
 11
77.0291000131999937
 21
35.148169277800001
 72
1
 10
77.0291000131999937
 20
35.148169277800001
 11
76.9729174635000106
 21
35.1116764854999985
 72
1
 10
76.9729174635000106
 20
35.1116764854999985
 11
76.9132289276000023
 21
35.0812636918999985
 72
1
 10
76.9132289276000023
 20
35.0812636918999985
 11
76.850688365600007
 21
35.0572636969000015
 72
1
 10
76.850688365600007
 20
35.0572636969000015
 11
76.785980984899993
 21
35.0399197006000023
 72
1
 10
76.785980984899993
 20
35.0399197006000023
 11
76.7198157331999937
 21
35.0294493028000034
 72
1
 10
76.7198157331999937
 20
35.0294493028000034
 11
76.6529175307999964
 21
35.0259421035000003
 72
1
 10
76.6529175307999964
 20
35.0259421035000003
 11
71.5329186069999992
 21
35.0259421035000003
 72
1
 10
71.5329186069999992
 20
35.0259421035000003
 11
71.4660204045
 21
35.0294493028000034
 72
1
 10
71.4660204045
 20
35.0294493028000034
 11
71.3998551528000007
 21
35.0399197006000023
 72
1
 10
71.3998551528000007
 20
35.0399197006000023
 11
71.3351477721000009
 21
35.0572636969000015
 72
1
 10
71.3351477721000009
 20
35.0572636969000015
 11
71.2726072101000057
 21
35.0812636918999985
 72
1
 10
71.2726072101000057
 20
35.0812636918999985
 11
71.2129186741999973
 21
35.1116764854999985
 72
1
 10
71.2129186741999973
 20
35.1116764854999985
 11
71.1567361246000019
 21
35.148169277800001
 72
1
 10
71.1567361246000019
 20
35.148169277800001
 11
71.1046751088999969
 21
35.1903196689000026
 72
1
 10
71.1046751088999969
 20
35.1903196689000026
 11
71.0573060186000021
 21
35.2376924590000016
 72
1
 10
71.0573060186000021
 20
35.2376924590000016
 11
71.0151478394000009
 21
35.2897500480000019
 72
1
 10
71.0151478394000009
 20
35.2897500480000019
 11
70.9786624651000011
 21
35.3459420362000003
 72
1
 10
70.9786624651000011
 20
35.3459420362000003
 11
70.9482496370000035
 21
35.4056284237000014
 72
1
 10
70.9482496370000035
 20
35.4056284237000014
 11
70.9242425644999912
 21
35.468169210500001
 72
1
 10
70.9242425644999912
 20
35.468169210500001
 11
70.9069042741000004
 21
35.5328731968999989
 72
1
 10
70.9069042741000004
 20
35.5328731968999989
 11
70.8964247277000084
 21
35.5990363829999978
 72
1
 10
70.8964247277000084
 20
35.5990363829999978
 11
70.8929187414999973
 21
35.6659419690000021
 72
1
 10
70.8929187414999973
 20
35.6659419690000021
 11
70.8929187414999973
 21
45.9059398165999966
 72
1
 10
70.8929187414999973
 20
45.9059398165999966
 11
70.8874434539000049
 21
45.9894725990000026
 72
1
 10
70.8874434539000049
 20
45.9894725990000026
 11
70.8711112749000023
 21
46.0715845817000016
 72
1
 10
70.8711112749000023
 20
46.0715845817000016
 11
70.844201652600006
 21
46.1508549651000024
 72
1
 10
70.844201652600006
 20
46.1508549651000024
 11
70.8071750178999935
 21
46.2259397492999966
 72
1
 10
70.8071750178999935
 20
46.2259397492999966
 11
70.7606649070999936
 21
46.2955461346999968
 72
1
 10
70.7606649070999936
 20
46.2955461346999968
 11
70.7054671208999963
 21
46.3584837214000132
 97
0
 75
0
 76
1
 98
0
1001
ACAD
1010
0.0
1020
0.0
1030
0
  0
LWPOLYLINE
  5
108
100
AcDbEntity
  8
0
 62
152
420
19863
370
-1
 48
1.0
  6
CONTINUOUS
100
AcDbPolyline
 90
22
 70
0
 10
79.7860186556999906
 20
39.6374436362999987
 10
92.012914302199988
 20
42.577937031300003
 10
90.684197482299993
 20
38.7490204393999988
 10
90.7111071045999893
 20
38.8282936306000011
 10
90.7274392837000079
 20
38.9104010391000017
 10
90.7329145712000127
 20
38.9939377845999999
 10
90.7274392837000079
 20
39.0774745301000124
 10
90.7111071045999893
 20
39.1595819387000006
 10
90.684197482299993
 20
39.238855129800001
 10
90.6471708477000107
 20
39.3139377173
 10
90.600660736800009
 20
39.3835450173000012
 10
90.5454629505999975
 20
39.446486029399999
 10
90.4825219383999979
 20
39.5016838157000123
 10
90.4129146384999984
 20
39.548193926499998
 10
90.3378320510000066
 20
39.5852205611000016
 10
90.2585588597999902
 20
39.6121301834999997
 10
90.176451451200009
 20
39.6284623625000023
 10
90.0929147056999966
 20
39.6339411348999988
 10
89.841864770400008
 20
39.6339411348999988
 10
80.0668226818999926
 20
39.6339411348999988
 10
79.852916858200004
 20
39.6339411348999988
 10
79.7860186556999906
 20
39.6374436362999987
  0
HATCH
  5
109
100
AcDbEntity
  8
0
 62
152
420
19863
370
-1
 48
1.0
  6
CONTINUOUS
100
AcDbHatch
 10
0.0
 20
0.0
 30
0.0
210
0.0
220
0.0
230
1.0
  2
SOLID
 70
1
 71
0
 91
1
 92
1
 93
21
 72
1
 10
79.7860186556999906
 20
39.6374436362999987
 11
92.012914302199988
 21
42.577937031300003
 72
1
 10
92.012914302199988
 20
42.577937031300003
 11
90.684197482299993
 21
38.7490204393999988
 72
1
 10
90.684197482299993
 20
38.7490204393999988
 11
90.7111071045999893
 21
38.8282936306000011
 72
1
 10
90.7111071045999893
 20
38.8282936306000011
 11
90.7274392837000079
 21
38.9104010391000017
 72
1
 10
90.7274392837000079
 20
38.9104010391000017
 11
90.7329145712000127
 21
38.9939377845999999
 72
1
 10
90.7329145712000127
 20
38.9939377845999999
 11
90.7274392837000079
 21
39.0774745301000124
 72
1
 10
90.7274392837000079
 20
39.0774745301000124
 11
90.7111071045999893
 21
39.1595819387000006
 72
1
 10
90.7111071045999893
 20
39.1595819387000006
 11
90.684197482299993
 21
39.238855129800001
 72
1
 10
90.684197482299993
 20
39.238855129800001
 11
90.6471708477000107
 21
39.3139377173
 72
1
 10
90.6471708477000107
 20
39.3139377173
 11
90.600660736800009
 21
39.3835450173000012
 72
1
 10
90.600660736800009
 20
39.3835450173000012
 11
90.5454629505999975
 21
39.446486029399999
 72
1
 10
90.5454629505999975
 20
39.446486029399999
 11
90.4825219383999979
 21
39.5016838157000123
 72
1
 10
90.4825219383999979
 20
39.5016838157000123
 11
90.4129146384999984
 21
39.548193926499998
 72
1
 10
90.4129146384999984
 20
39.548193926499998
 11
90.3378320510000066
 21
39.5852205611000016
 72
1
 10
90.3378320510000066
 20
39.5852205611000016
 11
90.2585588597999902
 21
39.6121301834999997
 72
1
 10
90.2585588597999902
 20
39.6121301834999997
 11
90.176451451200009
 21
39.6284623625000023
 72
1
 10
90.176451451200009
 20
39.6284623625000023
 11
90.0929147056999966
 21
39.6339411348999988
 72
1
 10
90.0929147056999966
 20
39.6339411348999988
 11
89.841864770400008
 21
39.6339411348999988
 72
1
 10
89.841864770400008
 20
39.6339411348999988
 11
80.0668226818999926
 21
39.6339411348999988
 72
1
 10
80.0668226818999926
 20
39.6339411348999988
 11
79.852916858200004
 21
39.6339411348999988
 72
1
 10
79.852916858200004
 20
39.6339411348999988
 11
79.7860186556999906
 21
39.6374436362999987
 97
0
 75
0
 76
1
 98
0
1001
ACAD
1010
0.0
1020
0.0
1030
0
  0
LWPOLYLINE
  5
10A
100
AcDbEntity
  8
0
 62
152
420
19863
370
-1
 48
1.0
  6
CONTINUOUS
100
AcDbPolyline
 90
15
 70
0
 10
79.5329169254000021
 20
35.1116764854999985
 10
79.4767343757999924
 20
35.148169277800001
 10
91.7490969190999976
 20
35.148169277800001
 10
91.6929143694000004
 20
35.1116764854999985
 10
91.6332258335000063
 20
35.0812636918999985
 10
91.5706852714999968
 20
35.0572636969000015
 10
91.505977890799997
 20
35.0399197006000023
 10
91.4398126390999977
 20
35.0294493028000034
 10
91.3729144367000004
 20
35.0259421035000003
 10
79.852916858200004
 20
35.0259421035000003
 10
79.7860186556999906
 20
35.0294493028000034
 10
79.7198534039999913
 20
35.0399197006000023
 10
79.6551460233000057
 20
35.0572636969000015
 10
79.5926054612999963
 20
35.0812636918999985
 10
79.5329169254000021
 20
35.1116764854999985
  0
HATCH
  5
10B
100
AcDbEntity
  8
0
 62
152
420
19863
370
-1
 48
1.0
  6
CONTINUOUS
100
AcDbHatch
 10
0.0
 20
0.0
 30
0.0
210
0.0
220
0.0
230
1.0
  2
SOLID
 70
1
 71
0
 91
1
 92
1
 93
14
 72
1
 10
79.5329169254000021
 20
35.1116764854999985
 11
79.4767343757999924
 21
35.148169277800001
 72
1
 10
79.4767343757999924
 20
35.148169277800001
 11
91.7490969190999976
 21
35.148169277800001
 72
1
 10
91.7490969190999976
 20
35.148169277800001
 11
91.6929143694000004
 21
35.1116764854999985
 72
1
 10
91.6929143694000004
 20
35.1116764854999985
 11
91.6332258335000063
 21
35.0812636918999985
 72
1
 10
91.6332258335000063
 20
35.0812636918999985
 11
91.5706852714999968
 21
35.0572636969000015
 72
1
 10
91.5706852714999968
 20
35.0572636969000015
 11
91.505977890799997
 21
35.0399197006000023
 72
1
 10
91.505977890799997
 20
35.0399197006000023
 11
91.4398126390999977
 21
35.0294493028000034
 72
1
 10
91.4398126390999977
 20
35.0294493028000034
 11
91.3729144367000004
 21
35.0259421035000003
 72
1
 10
91.3729144367000004
 20
35.0259421035000003
 11
79.852916858200004
 21
35.0259421035000003
 72
1
 10
79.852916858200004
 20
35.0259421035000003
 11
79.7860186556999906
 21
35.0294493028000034
 72
1
 10
79.7860186556999906
 20
35.0294493028000034
 11
79.7198534039999913
 21
35.0399197006000023
 72
1
 10
79.7198534039999913
 20
35.0399197006000023
 11
79.6551460233000057
 21
35.0572636969000015
 72
1
 10
79.6551460233000057
 20
35.0572636969000015
 11
79.5926054612999963
 21
35.0812636918999985
 72
1
 10
79.5926054612999963
 20
35.0812636918999985
 11
79.5329169254000021
 21
35.1116764854999985
 97
0
 75
0
 76
1
 98
0
1001
ACAD
1010
0.0
1020
0.0
1030
0
  0
LWPOLYLINE
  5
10C
100
AcDbEntity
  8
0
 62
152
420
19863
370
-1
 48
1.0
  6
CONTINUOUS
100
AcDbPolyline
 90
13
 70
0
 10
41.1926135328000029
 20
35.0812636918999985
 10
41.1329249969000017
 20
35.1116764854999985
 10
53.2929224409
 20
35.1116764854999985
 10
53.2332339051000005
 20
35.0812636918999985
 10
53.1706933430000035
 20
35.0572636969000015
 10
53.1059859623999984
 20
35.0399197006000023
 10
53.0398207105999973
 20
35.0294493028000034
 10
52.9729225081999999
 20
35.0259421035000003
 10
41.4529249297000035
 20
35.0259421035000003
 10
41.3860267271999973
 20
35.0294493028000034
 10
41.3198614755000122
 20
35.0399197006000023
 10
41.2551540947999982
 20
35.0572636969000015
 10
41.1926135328000029
 20
35.0812636918999985
  0
HATCH
  5
10D
100
AcDbEntity
  8
0
 62
152
420
19863
370
-1
 48
1.0
  6
CONTINUOUS
100
AcDbHatch
 10
0.0
 20
0.0
 30
0.0
210
0.0
220
0.0
230
1.0
  2
SOLID
 70
1
 71
0
 91
1
 92
1
 93
12
 72
1
 10
41.1926135328000029
 20
35.0812636918999985
 11
41.1329249969000017
 21
35.1116764854999985
 72
1
 10
41.1329249969000017
 20
35.1116764854999985
 11
53.2929224409
 21
35.1116764854999985
 72
1
 10
53.2929224409
 20
35.1116764854999985
 11
53.2332339051000005
 21
35.0812636918999985
 72
1
 10
53.2332339051000005
 20
35.0812636918999985
 11
53.1706933430000035
 21
35.0572636969000015
 72
1
 10
53.1706933430000035
 20
35.0572636969000015
 11
53.1059859623999984
 21
35.0399197006000023
 72
1
 10
53.1059859623999984
 20
35.0399197006000023
 11
53.0398207105999973
 21
35.0294493028000034
 72
1
 10
53.0398207105999973
 20
35.0294493028000034
 11
52.9729225081999999
 21
35.0259421035000003
 72
1
 10
52.9729225081999999
 20
35.0259421035000003
 11
41.4529249297000035
 21
35.0259421035000003
 72
1
 10
41.4529249297000035
 20
35.0259421035000003
 11
41.3860267271999973
 21
35.0294493028000034
 72
1
 10
41.3860267271999973
 20
35.0294493028000034
 11
41.3198614755000122
 21
35.0399197006000023
 72
1
 10
41.3198614755000122
 20
35.0399197006000023
 11
41.2551540947999982
 21
35.0572636969000015
 72
1
 10
41.2551540947999982
 20
35.0572636969000015
 11
41.1926135328000029
 21
35.0812636918999985
 97
0
 75
0
 76
1
 98
0
1001
ACAD
1010
0.0
1020
0.0
1030
0
  0
LWPOLYLINE
  5
10E
100
AcDbEntity
  8
0
 62
152
420
19863
370
-1
 48
1.0
  6
CONTINUOUS
100
AcDbPolyline
 90
12
 70
0
 10
69.2929190777999935
 20
35.1116764854999985
 10
69.2332305418999994
 20
35.0812636918999985
 10
69.1706899799000041
 20
35.0572636969000015
 10
69.1059825992000043
 20
35.0399197006000023
 10
69.039817347500005
 20
35.0294493028000034
 10
68.9729191451000077
 20
35.0259421035000003
 10
63.8529202213000033
 20
35.0259421035000003
 10
63.7860220189000131
 20
35.0294493028000034
 10
63.7198567670999978
 20
35.0399197006000023
 10
63.6551493864999927
 20
35.0572636969000015
 10
63.5926088244000027
 20
35.0812636918999985
 10
69.2929190777999935
 20
35.1116764854999985
  0
HATCH
  5
10F
100
AcDbEntity
  8
0
 62
152
420
19863
370
-1
 48
1.0
  6
CONTINUOUS
100
AcDbHatch
 10
0.0
 20
0.0
 30
0.0
210
0.0
220
0.0
230
1.0
  2
SOLID
 70
1
 71
0
 91
1
 92
1
 93
11
 72
1
 10
69.2929190777999935
 20
35.1116764854999985
 11
69.2332305418999994
 21
35.0812636918999985
 72
1
 10
69.2332305418999994
 20
35.0812636918999985
 11
69.1706899799000041
 21
35.0572636969000015
 72
1
 10
69.1706899799000041
 20
35.0572636969000015
 11
69.1059825992000043
 21
35.0399197006000023
 72
1
 10
69.1059825992000043
 20
35.0399197006000023
 11
69.039817347500005
 21
35.0294493028000034
 72
1
 10
69.039817347500005
 20
35.0294493028000034
 11
68.9729191451000077
 21
35.0259421035000003
 72
1
 10
68.9729191451000077
 20
35.0259421035000003
 11
63.8529202213000033
 21
35.0259421035000003
 72
1
 10
63.8529202213000033
 20
35.0259421035000003
 11
63.7860220189000131
 21
35.0294493028000034
 72
1
 10
63.7860220189000131
 20
35.0294493028000034
 11
63.7198567670999978
 21
35.0399197006000023
 72
1
 10
63.7198567670999978
 20
35.0399197006000023
 11
63.6551493864999927
 21
35.0572636969000015
 72
1
 10
63.6551493864999927
 20
35.0572636969000015
 11
63.5926088244000027
 21
35.0812636918999985
 72
1
 10
63.5926088244000027
 20
35.0812636918999985
 11
69.2929190777999935
 21
35.1116764854999985
 97
0
 75
0
 76
1
 98
0
1001
ACAD
1010
0.0
1020
0.0
1030
0
  0
ENDBLK
  5
110
100
AcDbEntity
  8
0
100
AcDbBlockEnd
  0
ENDSEC
  0
SECTION
  2
ENTITIES
  0
DIMENSION
  5
111
100
AcDbEntity
  8
0
 62
3
420
65280
370
-1
 48
1.0
  6
CONTINUOUS
100
AcDbDimension
 10
252.4279132323999875
 20
386.0880535669999745
 30
0.0
 11
252.4279132323999875
 21
382.0880641626999932
 31
0.0
 70
128
 71
8
 72
2
 74
0
 75
0
 41
0.9
 42
0.0
  1

  3
Standard
100
AcDbAlignedDimension
 13
275.9279132323999875
 23
380.0880535669999745
 33
0.0
 14
275.9279132323999875
 24
386.0880535669999745
 34
0.0
 50
90.0
100
AcDbRotatedDimension
1001
ACAD
1000
DSTYLE
1002
{
1070
279
1070
2
1070
144
1040
1.0
1070
40
1040
1.0
1002
}
  0
DIMENSION
  5
112
100
AcDbEntity
  8
0
 62
3
420
65280
370
-1
 48
1.0
  6
CONTINUOUS
100
AcDbDimension
 10
275.9279132323999875
 20
386.0880535669999745
 30
0.0
 11
284.6592289757999765
 21
422.6836231368000085
 31
0.0
 70
130
 71
8
 72
2
 74
0
 75
0
 41
0.9
 42
0.0
  1

  3
Standard
100
AcDb2LineAngularDimension
 13
316.4279132323999875
 23
432.5646120075999761
 33
0.0
 14
316.4279132323999875
 24
433.049223708999989
 34
0.0
 15
276.4125249338000003
 25
386.0880535669999745
 35
0.0
 16
282.1606912007000005
 26
420.3552755987000182
 36
0.0
  0
DIMENSION
  5
113
100
AcDbEntity
  8
0
 62
3
420
65280
370
-1
 48
1.0
  6
CONTINUOUS
100
AcDbDimension
 10
75.3704226663000014
 20
536.1246760084000016
 30
0.0
 11
64.3704306640999988
 21
536.1246760084000016
 31
0.0
 70
128
 71
8
 72
2
 74
0
 75
0
 41
0.9
 42
0.0
  1

  3
Standard
100
AcDbAlignedDimension
 13
55.3704226663000014
 23
501.5880535669999745
 33
0.0
 14
75.3704226663000014
 24
488.6665631760999986
 34
0.0
 50
0.0
100
AcDbRotatedDimension
1001
ACAD
1000
DSTYLE
1002
{
1070
279
1070
2
1070
144
1040
1.0
1070
40
1040
1.0
1002
}
  0
DIMENSION
  5
114
100
AcDbEntity
  8
0
 62
3
420
65280
370
-1
 48
1.0
  6
CONTINUOUS
100
AcDbDimension
 10
33.2263590104999977
 20
480.0880535669999745
 30
0.0
 11
33.2263590104999977
 21
491.5880500252999923
 31
0.0
 70
128
 71
8
 72
2
 74
0
 75
0
 41
0.9
 42
0.0
  1

  3
Standard
100
AcDbAlignedDimension
 13
58.8704226663000014
 23
505.0880535669999745
 33
0.0
 14
64.6257401426000087
 24
480.0880535669999745
 34
0.0
 50
270.0
100
AcDbRotatedDimension
1001
ACAD
1000
DSTYLE
1002
{
1070
279
1070
2
1070
144
1040
1.0
1070
40
1040
1.0
1002
}
  0
DIMENSION
  5
115
100
AcDbEntity
  8
0
 62
3
420
65280
370
-1
 48
1.0
  6
CONTINUOUS
100
AcDbDimension
 10
75.3704226663000014
 20
324.8703177178999795
 30
0.0
 11
64.3704306640999988
 21
324.8703177178999795
 31
0.0
 70
128
 71
8
 72
2
 74
0
 75
0
 41
0.9
 42
0.0
  1

  3
Standard
100
AcDbAlignedDimension
 13
55.3704226663000014
 23
281.3703177178999795
 33
0.0
 14
75.3704226663000014
 24
275.2668314929999838
 34
0.0
 50
0.0
100
AcDbRotatedDimension
1001
ACAD
1000
DSTYLE
1002
{
1070
279
1070
2
1070
144
1040
1.0
1070
40
1040
1.0
1002
}
  0
DIMENSION
  5
116
100
AcDbEntity
  8
0
 62
3
420
65280
370
-1
 48
1.0
  6
CONTINUOUS
100
AcDbDimension
 10
171.1204226662999872
 20
523.6075172089999796
 30
0.0
 11
190.9927734375000057
 21
523.6075172089999796
 31
0.0
 70
128
 71
8
 72
2
 74
0
 75
0
 41
0.9
 42
0.0
  1

  3
Standard
100
AcDbAlignedDimension
 13
179.6204226662999872
 23
487.3380535669999745
 33
0.0
 14
171.1204226662999872
 24
487.3380535669999745
 34
0.0
 50
180.0
100
AcDbRotatedDimension
1001
ACAD
1000
DSTYLE
1002
{
1070
279
1070
2
1070
144
1040
1.0
1070
40
1040
1.0
1002
}
  0
DIMENSION
  5
117
100
AcDbEntity
  8
0
 62
3
420
65280
370
-1
 48
1.0
  6
CONTINUOUS
100
AcDbDimension
 10
210.1789369283000042
 20
470.0880535669999745
 30
0.0
 11
210.1789369283000042
 21
479.088049255899989
 31
0.0
 70
128
 71
8
 72
2
 74
0
 75
0
 41
0.9
 42
0.0
  1

  3
Standard
100
AcDbAlignedDimension
 13
176.8704226662999872
 23
490.0880535669999745
 33
0.0
 14
176.8704226662999872
 24
470.0880535669999745
 34
0.0
 50
270.0
100
AcDbRotatedDimension
1001
ACAD
1000
DSTYLE
1002
{
1070
279
1070
2
1070
144
1040
1.0
1070
40
1040
1.0
1002
}
  0
DIMENSION
  5
118
100
AcDbEntity
  8
0
 62
3
420
65280
370
-1
 48
1.0
  6
CONTINUOUS
100
AcDbDimension
 10
125.3704226663000014
 20
536.1246760084000016
 30
0.0
 11
149.3704277344000104
 21
536.1246760084000016
 31
0.0
 70
128
 71
8
 72
2
 74
0
 75
0
 41
0.9
 42
0.0
  1

  3
Standard
100
AcDbAlignedDimension
 13
175.3704226662999872
 23
492.5880535669999745
 33
0.0
 14
125.3704226663000014
 24
492.5880535669999745
 34
0.0
 50
180.0
100
AcDbRotatedDimension
1001
ACAD
1000
DSTYLE
1002
{
1070
279
1070
2
1070
144
1040
1.0
1070
40
1040
1.0
1002
}
  0
DIMENSION
  5
119
100
AcDbEntity
  8
0
 62
3
420
65280
370
-1
 48
1.0
  6
CONTINUOUS
100
AcDbDimension
 10
125.3704226663000014
 20
536.1246760084000016
 30
0.0
 11
97.2281396484000027
 21
536.1246760084000016
 31
0.0
 70
128
 71
8
 72
2
 74
0
 75
0
 41
0.9
 42
0.0
  1

  3
Standard
100
AcDbAlignedDimension
 13
75.3704226663000014
 23
492.5880535669999745
 33
0.0
 14
125.3704226663000014
 24
492.5880535669999745
 34
0.0
 50
0.0
100
AcDbRotatedDimension
1001
ACAD
1000
DSTYLE
1002
{
1070
279
1070
2
1070
144
1040
1.0
1070
40
1040
1.0
1002
}
  0
DIMENSION
  5
11A
100
AcDbEntity
  8
0
 62
3
420
65280
370
-1
 48
1.0
  6
CONTINUOUS
100
AcDbDimension
 10
195.3704226662999872
 20
355.6939403594000169
 30
0.0
 11
124.3704248046999936
 21
355.6939403594000169
 31
0.0
 70
128
 71
8
 72
2
 74
0
 75
0
 41
0.9
 42
0.0
  1

  3
Standard
100
AcDbAlignedDimension
 13
55.3704226663000014
 23
378.5880535669999745
 33
0.0
 14
195.3704226662999872
 24
378.5880535669999745
 34
0.0
 50
0.0
100
AcDbRotatedDimension
1001
ACAD
1000
DSTYLE
1002
{
1070
279
1070
2
1070
144
1040
1.0
1070
40
1040
1.0
1002
}
  0
DIMENSION
  5
11B
100
AcDbEntity
  8
0
 62
3
420
65280
370
-1
 48
1.0
  6
CONTINUOUS
100
AcDbDimension
 10
272.4279132323999875
 20
360.0880535669999745
 30
0.0
 11
296.4279023437999854
 21
360.0880535669999745
 31
0.0
 70
128
 71
8
 72
2
 74
0
 75
0
 41
0.9
 42
0.0
  1

  3
Standard
100
AcDbAlignedDimension
 13
322.4279132323999875
 23
378.5880535669999745
 33
0.0
 14
272.4279132323999875
 24
378.5880535669999745
 34
0.0
 50
180.0
100
AcDbRotatedDimension
1001
ACAD
1000
DSTYLE
1002
{
1070
279
1070
2
1070
144
1040
1.0
1070
40
1040
1.0
1002
}
  0
DIMENSION
  5
11C
100
AcDbEntity
  8
0
 62
3
420
65280
370
-1
 48
1.0
  6
CONTINUOUS
100
AcDbDimension
 10
179.8704226662999872
 20
304.8703177178999795
 30
0.0
 11
194.2587099609000063
 21
304.8703177178999795
 31
0.0
 70
128
 71
8
 72
2
 74
0
 75
0
 41
0.9
 42
0.0
  1

  3
Standard
100
AcDbAlignedDimension
 13
170.8704226662999872
 23
276.3703177178999795
 33
0.0
 14
179.8704226662999872
 24
276.3703177178999795
 34
0.0
 50
0.0
100
AcDbRotatedDimension
1001
ACAD
1000
DSTYLE
1002
{
1070
279
1070
2
1070
144
1040
1.0
1070
40
1040
1.0
1002
}
  0
DIMENSION
  5
11D
100
AcDbEntity
  8
0
 62
3
420
65280
370
-1
 48
1.0
  6
CONTINUOUS
100
AcDbDimension
 10
212.7540206474000115
 20
254.3703177179000079
 30
0.0
 11
212.7540206474000115
 21
265.8703117189999716
 31
0.0
 70
128
 71
8
 72
2
 74
0
 75
0
 41
0.9
 42
0.0
  1

  3
Standard
100
AcDbAlignedDimension
 13
176.8704226662999872
 23
279.3703177178999795
 33
0.0
 14
176.8704226662999872
 24
254.3703177179000079
 34
0.0
 50
270.0
100
AcDbRotatedDimension
1001
ACAD
1000
DSTYLE
1002
{
1070
279
1070
2
1070
144
1040
1.0
1070
40
1040
1.0
1002
}
  0
DIMENSION
  5
11E
100
AcDbEntity
  8
0
 62
3
420
65280
370
-1
 48
1.0
  6
CONTINUOUS
100
AcDbDimension
 10
370.4279132323999875
 20
380.0880535669999745
 30
0.0
 11
370.4279132323999875
 21
441.5880602565000004
 31
0.0
 70
128
 71
8
 72
2
 74
0
 75
0
 41
0.9
 42
0.0
  1

  3
Standard
100
AcDbAlignedDimension
 13
323.9279132323999875
 23
505.0880535669999745
 33
0.0
 14
323.9279132323999875
 24
380.0880535669999745
 34
0.0
 50
270.0
100
AcDbRotatedDimension
1001
ACAD
1000
DSTYLE
1002
{
1070
279
1070
2
1070
144
1040
1.0
1070
40
1040
1.0
1002
}
  0
DIMENSION
  5
11F
100
AcDbEntity
  8
0
 62
3
420
65280
370
-1
 48
1.0
  6
CONTINUOUS
100
AcDbDimension
 10
60.3704226663000014
 20
279.8703177178999795
 30
0.0
 11
42.5846509834999978
 21
295.9280238811999766
 31
0.0
 70
132
 71
8
 72
2
 74
0
 41
0.9
 42
0.0
  1
R<>
  3
Standard
100
AcDbRadialDimension
 15
56.0152561018000128
 25
282.3264374615999941
 35
0.0
 40
0.0
1001
ACAD
1000
DSTYLE
1002
{
1070
279
1070
2
1070
144
1040
1.0
1070
40
1040
1.0
1002
}
  0
DIMENSION
  5
120
100
AcDbEntity
  8
0
 62
3
420
65280
370
-1
 48
1.0
  6
CONTINUOUS
100
AcDbDimension
 10
75.3704226663000014
 20
324.8703177178999795
 30
0.0
 11
124.3704248046999936
 21
324.8703177178999795
 31
0.0
 70
128
 71
8
 72
2
 74
0
 75
0
 41
0.9
 42
0.0
  1

  3
Standard
100
AcDbAlignedDimension
 13
175.3704226662999872
 23
287.9787599820999731
 33
0.0
 14
75.3704226663000014
 24
282.8334497934000069
 34
0.0
 50
180.0
100
AcDbRotatedDimension
1001
ACAD
1000
DSTYLE
1002
{
1070
279
1070
2
1070
144
1040
1.0
1070
40
1040
1.0
1002
}
  0
DIMENSION
  5
121
100
AcDbEntity
  8
0
 62
3
420
65280
370
-1
 48
1.0
  6
CONTINUOUS
100
AcDbDimension
 10
330.4279132323999875
 20
525.0880535669999745
 30
0.0
 11
325.4279199219000134
 21
525.0880535669999745
 31
0.0
 70
128
 71
8
 72
2
 74
0
 75
0
 41
0.9
 42
0.0
  1

  3
Standard
100
AcDbAlignedDimension
 13
322.4279132323999875
 23
501.5880535669999745
 33
0.0
 14
330.4279132323999875
 24
501.5880535669999745
 34
0.0
 50
0.0
100
AcDbRotatedDimension
1001
ACAD
1000
DSTYLE
1002
{
1070
279
1070
2
1070
144
1040
1.0
1070
40
1040
1.0
1002
}
  0
DIMENSION
  5
122
100
AcDbEntity
  8
0
 62
3
420
65280
370
-1
 48
1.0
  6
CONTINUOUS
100
AcDbDimension
 10
350.4279132323999875
 20
505.0880535669999745
 30
0.0
 11
350.4279132323999875
 21
479.088038772099992
 31
0.0
 70
128
 71
8
 72
2
 74
0
 75
0
 41
0.9
 42
0.0
  1

  3
Standard
100
AcDbAlignedDimension
 13
323.9279132323999875
 23
455.0880535669999745
 33
0.0
 14
323.9279132323999875
 24
505.0880535669999745
 34
0.0
 50
90.0
100
AcDbRotatedDimension
1001
ACAD
1000
DSTYLE
1002
{
1070
279
1070
2
1070
144
1040
1.0
1070
40
1040
1.0
1002
}
  0
DIMENSION
  5
123
100
AcDbEntity
  8
0
 62
3
420
65280
370
-1
 48
1.0
  6
CONTINUOUS
100
AcDbDimension
 10
60.3704226663000014
 20
500.0880535669999745
 30
0.0
 11
41.900793541699997
 21
525.9823038939999833
 31
0.0
 70
132
 71
8
 72
2
 74
0
 41
0.9
 42
0.0
  1
R<>
  3
Standard
100
AcDbRadialDimension
 15
56.8348887603999984
 25
503.6235874728999988
 35
0.0
 40
0.0
1001
ACAD
1000
DSTYLE
1002
{
1070
279
1070
2
1070
144
1040
1.0
1070
40
1040
1.0
1002
}
  0
LINE
  5
124
100
AcDbEntity
  8
0
 62
4
420
65535
370
-1
 48
1.0
  6
CONTINUOUS
100
AcDbLine
 10
0.0
 20
0.0
 30
0.0
 11
420.0
 21
0.0
 31
0.0
  0
LINE
  5
125
100
AcDbEntity
  8
0
 62
7
420
16777215
370
-1
 48
1.0
  6
CONTINUOUS
100
AcDbLine
 10
10.0
 20
10.0
 30
0.0
 11
410.0
 21
10.0
 31
0.0
  0
LINE
  5
126
100
AcDbEntity
  8
0
 62
4
420
65535
370
-1
 48
1.0
  6
CONTINUOUS
100
AcDbLine
 10
0.0
 20
0.0
 30
0.0
 11
0.0
 21
594.0
 31
0.0
  0
LINE
  5
127
100
AcDbEntity
  8
0
 62
7
420
16777215
370
-1
 48
1.0
  6
CONTINUOUS
100
AcDbLine
 10
10.0
 20
584.0
 30
0.0
 11
10.0
 21
10.0
 31
0.0
  0
LINE
  5
128
100
AcDbEntity
  8
0
 62
7
420
16777215
370
-1
 48
1.0
  6
CONTINUOUS
100
AcDbLine
 10
410.0
 20
10.0
 30
0.0
 11
410.0
 21
584.0
 31
0.0
  0
LINE
  5
129
100
AcDbEntity
  8
0
 62
4
420
65535
370
-1
 48
1.0
  6
CONTINUOUS
100
AcDbLine
 10
420.0
 20
594.0
 30
0.0
 11
420.0
 21
0.0
 31
0.0
  0
LINE
  5
12A
100
AcDbEntity
  8
0
 62
7
420
16777215
370
-1
 48
1.0
  6
CONTINUOUS
100
AcDbLine
 10
410.0
 20
584.0
 30
0.0
 11
10.0
 21
584.0
 31
0.0
  0
LINE
  5
12B
100
AcDbEntity
  8
0
 62
4
420
65535
370
-1
 48
1.0
  6
CONTINUOUS
100
AcDbLine
 10
420.0
 20
594.0
 30
0.0
 11
0.0
 21
594.0
 31
0.0
  0
LINE
  5
12C
100
AcDbEntity
  8
0
 62
7
420
16777215
370
-1
 48
1.0
  6
CONTINUOUS
100
AcDbLine
 10
310.4279132323999875
 20
380.0880535669999745
 30
0.0
 11
272.4279132323999875
 21
380.0880535669999745
 31
0.0
  0
LINE
  5
12D
100
AcDbEntity
  8
02___PRT_ALL_AXES
 62
6
420
16711935
370
-1
 48
1.0
  6
HIDDEN
100
AcDbLine
 10
277.9279132323999875
 20
380.0880535669999745
 30
0.0
 11
302.9272162844999912
 21
380.0880535669999745
 31
0.0
  0
LINE
  5
12E
100
AcDbEntity
  8
0
 62
7
420
16777215
370
-1
 48
1.0
  6
CONTINUOUS
100
AcDbLine
 10
272.4279132323999875
 20
386.0880535669999745
 30
0.0
 11
310.4279132323999875
 21
386.0880535669999745
 31
0.0
  0
LINE
  5
12F
100
AcDbEntity
  8
02___PRT_ALL_AXES
 62
6
420
16711935
370
-1
 48
1.0
  6
HIDDEN
100
AcDbLine
 10
277.9286101801999962
 20
386.0880535669999745
 30
0.0
 11
302.9272162844999912
 21
386.0880535669999745
 31
0.0
  0
LINE
  5
130
100
AcDbEntity
  8
0
 62
7
420
16777215
370
-1
 48
1.0
  6
CONTINUOUS
100
AcDbLine
 10
272.4279132323999875
 20
386.0880535669999745
 30
0.0
 11
272.4279132323999875
 21
380.0880535669999745
 31
0.0
  0
LINE
  5
131
100
AcDbEntity
  8
02___PRT_ALL_AXES
 62
6
420
16711935
370
-1
 48
1.0
  6
HIDDEN
100
AcDbLine
 10
277.9279132323999875
 20
380.0880535669999745
 30
0.0
 11
277.9279132323999875
 21
386.0880535669999745
 31
0.0
  0
LINE
  5
132
100
AcDbEntity
  8
02___PRT_ALL_AXES
 62
3
420
65280
370
-1
 48
1.0
  6
CENTER
100
AcDbLine
 10
290.4279132323999875
 20
392.0880535669999745
 30
0.0
 11
290.4279132323999875
 21
374.0880535669999745
 31
0.0
  0
LINE
  5
133
100
AcDbEntity
  8
02___PRT_ALL_AXES
 62
6
420
16711935
370
-1
 48
1.0
  6
HIDDEN
100
AcDbLine
 10
302.9279132323999875
 20
380.0880535669999745
 30
0.0
 11
302.9279132323999875
 21
386.0880535669999745
 31
0.0
  0
LINE
  5
134
100
AcDbEntity
  8
0
 62
7
420
16777215
370
-1
 48
1.0
  6
CONTINUOUS
100
AcDbLine
 10
322.4279132323999875
 20
455.0880535669999745
 30
0.0
 11
330.4279132323999875
 21
455.0880535669999745
 31
0.0
  0
LINE
  5
135
100
AcDbEntity
  8
0
 62
7
420
16777215
370
-1
 48
1.0
  6
CONTINUOUS
100
AcDbLine
 10
316.4279132323999875
 20
392.0880535669999745
 30
0.0
 11
316.4279132323999875
 21
505.0880535669999745
 31
0.0
  0
LINE
  5
136
100
AcDbEntity
  8
0
 62
7
420
16777215
370
-1
 48
1.0
  6
CONTINUOUS
100
AcDbLine
 10
322.4279132323999875
 20
505.0880535669999745
 30
0.0
 11
322.4279132323999875
 21
392.0880535669999745
 31
0.0
  0
LINE
  5
137
100
AcDbEntity
  8
DEFAULT_2
 62
6
420
16711935
370
-1
 48
1.0
  6
HIDDEN
100
AcDbLine
 10
330.4279132323999875
 20
470.0880535669999745
 30
0.0
 11
316.4279132323999875
 21
470.0880535669999745
 31
0.0
  0
LINE
  5
138
100
AcDbEntity
  8
0
 62
7
420
16777215
370
-1
 48
1.0
  6
CONTINUOUS
100
AcDbLine
 10
330.4279132323999875
 20
455.0880535669999745
 30
0.0
 11
330.4279132323999875
 21
505.0880535669999745
 31
0.0
  0
LINE
  5
139
100
AcDbEntity
  8
02__ASM_ALL_AXES
 62
3
420
65280
370
-1
 48
1.0
  6
CENTER
100
AcDbLine
 10
310.4279132323999875
 20
480.0880535669999745
 30
0.0
 11
336.4279132323999875
 21
480.0880535669999745
 31
0.0
  0
LINE
  5
13A
100
AcDbEntity
  8
DEFAULT_2
 62
6
420
16711935
370
-1
 48
1.0
  6
HIDDEN
100
AcDbLine
 10
330.4279132323999875
 20
490.0880535669999745
 30
0.0
 11
316.4279132323999875
 21
490.0880535669999745
 31
0.0
  0
LINE
  5
13B
100
AcDbEntity
  8
0
 62
7
420
16777215
370
-1
 48
1.0
  6
CONTINUOUS
100
AcDbLine
 10
316.4279132323999875
 20
505.0880535669999745
 30
0.0
 11
330.4279132323999875
 21
505.0880535669999745
 31
0.0
  0
LINE
  5
13C
100
AcDbEntity
  8
0
 62
7
420
16777215
370
-1
 48
1.0
  6
CONTINUOUS
100
AcDbLine
 10
55.3704226663000014
 20
380.0880535669999745
 30
0.0
 11
55.3704226663000014
 21
455.0880535669999745
 31
0.0
  0
LINE
  5
13D
100
AcDbEntity
  8
0
 62
7
420
16777215
370
-1
 48
1.0
  6
CONTINUOUS
100
AcDbLine
 10
55.3704226663000014
 20
455.0880535669999745
 30
0.0
 11
55.3704226663000014
 21
500.0880535669999745
 31
0.0
  0
LINE
  5
13E
100
AcDbEntity
  8
02___PRT_ALL_AXES
 62
6
420
16711935
370
-1
 48
1.0
  6
HIDDEN
100
AcDbLine
 10
179.8704226662999872
 20
380.0880535669999745
 30
0.0
 11
170.8704226662999872
 21
380.0880535669999745
 31
0.0
  0
LINE
  5
13F
100
AcDbEntity
  8
02___PRT_ALL_AXES
 62
6
420
16711935
370
-1
 48
1.0
  6
HIDDEN
100
AcDbLine
 10
79.8704226663000014
 20
380.0880535669999745
 30
0.0
 11
70.8704226663000014
 21
380.0880535669999745
 31
0.0
  0
LINE
  5
140
100
AcDbEntity
  8
0
 62
7
420
16777215
370
-1
 48
1.0
  6
CONTINUOUS
100
AcDbLine
 10
195.3704226662999872
 20
380.0880535669999745
 30
0.0
 11
55.3704226663000014
 21
380.0880535669999745
 31
0.0
  0
LINE
  5
141
100
AcDbEntity
  8
02___PRT_ALL_AXES
 62
6
420
16711935
370
-1
 48
1.0
  6
HIDDEN
100
AcDbLine
 10
179.8704226662999872
 20
386.0880535669999745
 30
0.0
 11
170.8704226662999872
 21
386.0880535669999745
 31
0.0
  0
LINE
  5
142
100
AcDbEntity
  8
02___PRT_ALL_AXES
 62
6
420
16711935
370
-1
 48
1.0
  6
HIDDEN
100
AcDbLine
 10
79.8704226663000014
 20
386.0880535669999745
 30
0.0
 11
70.8704226663000014
 21
386.0880535669999745
 31
0.0
  0
LINE
  5
143
100
AcDbEntity
  8
DEFAULT_2
 62
6
420
16711935
370
-1
 48
1.0
  6
HIDDEN
100
AcDbLine
 10
195.3704226662999872
 20
386.0880535669999745
 30
0.0
 11
55.3704226663000014
 21
386.0880535669999745
 31
0.0
  0
LINE
  5
144
100
AcDbEntity
  8
02___PRT_ALL_AXES
 62
6
420
16711935
370
-1
 48
1.0
  6
HIDDEN
100
AcDbLine
 10
70.8704226663000014
 20
380.0880535669999745
 30
0.0
 11
70.8704226663000014
 21
386.0880535669999745
 31
0.0
  0
LINE
  5
145
100
AcDbEntity
  8
0
 62
7
420
16777215
370
-1
 48
1.0
  6
CONTINUOUS
100
AcDbLine
 10
71.1204226663000014
 20
474.3380535669999745
 30
0.0
 11
71.1204226663000014
 21
485.8380535669999745
 31
0.0
  0
LINE
  5
146
100
AcDbEntity
  8
02__ASM_ALL_AXES
 62
3
420
65280
370
-1
 48
1.0
  6
CENTER
100
AcDbLine
 10
75.3704226663000014
 20
480.0880535669999745
 30
0.0
 11
75.3704226663000014
 21
472.0879535669998859
 31
0.0
  0
LINE
  5
147
100
AcDbEntity
  8
02___PRT_ALL_AXES
 62
3
420
65280
370
-1
 48
1.0
  6
CENTER
100
AcDbLine
 10
75.3704226663000014
 20
392.0880535669999745
 30
0.0
 11
75.3704226663000014
 21
374.0880535669999745
 31
0.0
  0
LINE
  5
148
100
AcDbEntity
  8
02__ASM_ALL_AXES
 62
3
420
65280
370
-1
 48
1.0
  6
CENTER
100
AcDbLine
 10
75.3704226663000014
 20
480.0880535669999745
 30
0.0
 11
75.3704226663000014
 21
488.0881535669998925
 31
0.0
  0
LINE
  5
149
100
AcDbEntity
  8
0
 62
7
420
16777215
370
-1
 48
1.0
  6
CONTINUOUS
100
AcDbLine
 10
79.6204226663000014
 20
485.8380535669999745
 30
0.0
 11
79.6204226663000014
 21
474.3380535669999745
 31
0.0
  0
LINE
  5
14A
100
AcDbEntity
  8
02___PRT_ALL_AXES
 62
6
420
16711935
370
-1
 48
1.0
  6
HIDDEN
100
AcDbLine
 10
79.8704226663000014
 20
380.0880535669999745
 30
0.0
 11
79.8704226663000014
 21
386.0880535669999745
 31
0.0
  0
LINE
  5
14B
100
AcDbEntity
  8
0
 62
7
420
16777215
370
-1
 48
1.0
  6
CONTINUOUS
100
AcDbLine
 10
121.1204226663000014
 20
474.3380535669999745
 30
0.0
 11
121.1204226663000014
 21
485.8380535669999745
 31
0.0
  0
LINE
  5
14C
100
AcDbEntity
  8
02__ASM_ALL_AXES
 62
3
420
65280
370
-1
 48
1.0
  6
CENTER
100
AcDbLine
 10
125.3704226663000014
 20
480.0880535669999745
 30
0.0
 11
125.3704226663000014
 21
472.0879535669998859
 31
0.0
  0
LINE
  5
14D
100
AcDbEntity
  8
02__ASM_ALL_AXES
 62
3
420
65280
370
-1
 48
1.0
  6
CENTER
100
AcDbLine
 10
125.3704226663000014
 20
480.0880535669999745
 30
0.0
 11
125.3704226663000014
 21
488.0881535669998925
 31
0.0
  0
LINE
  5
14E
100
AcDbEntity
  8
0
 62
7
420
16777215
370
-1
 48
1.0
  6
CONTINUOUS
100
AcDbLine
 10
129.6204226662999872
 20
485.8380535669999745
 30
0.0
 11
129.6204226662999872
 21
474.3380535669999745
 31
0.0
  0
LINE
  5
14F
100
AcDbEntity
  8
0
 62
7
420
16777215
370
-1
 48
1.0
  6
CONTINUOUS
100
AcDbLine
 10
195.3704226662999872
 20
455.0880535669999745
 30
0.0
 11
55.3704226663000014
 21
455.0880535669999745
 31
0.0
  0
LINE
  5
150
100
AcDbEntity
  8
02__ASM_ALL_AXES
 62
3
420
65280
370
-1
 48
1.0
  6
CENTER
100
AcDbLine
 10
175.3704226662999872
 20
480.0880535669999745
 30
0.0
 11
167.3703226663000123
 21
480.0880535669999745
 31
0.0
  0
LINE
  5
151
100
AcDbEntity
  8
02__ASM_ALL_AXES
 62
3
420
65280
370
-1
 48
1.0
  6
CENTER
100
AcDbLine
 10
125.3704226663000014
 20
480.0880535669999745
 30
0.0
 11
117.3703226662999981
 21
480.0880535669999745
 31
0.0
  0
LINE
  5
152
100
AcDbEntity
  8
02__ASM_ALL_AXES
 62
3
420
65280
370
-1
 48
1.0
  6
CENTER
100
AcDbLine
 10
75.3704226663000014
 20
480.0880535669999745
 30
0.0
 11
67.3703226662999981
 21
480.0880535669999745
 31
0.0
  0
LINE
  5
153
100
AcDbEntity
  8
02__ASM_ALL_AXES
 62
3
420
65280
370
-1
 48
1.0
  6
CENTER
100
AcDbLine
 10
75.3704226663000014
 20
480.0880535669999745
 30
0.0
 11
83.3705226663000047
 21
480.0880535669999745
 31
0.0
  0
LINE
  5
154
100
AcDbEntity
  8
02__ASM_ALL_AXES
 62
3
420
65280
370
-1
 48
1.0
  6
CENTER
100
AcDbLine
 10
125.3704226663000014
 20
480.0880535669999745
 30
0.0
 11
133.3705226662999905
 21
480.0880535669999745
 31
0.0
  0
LINE
  5
155
100
AcDbEntity
  8
02__ASM_ALL_AXES
 62
3
420
65280
370
-1
 48
1.0
  6
CENTER
100
AcDbLine
 10
175.3704226662999872
 20
480.0880535669999745
 30
0.0
 11
183.3705226662999905
 21
480.0880535669999745
 31
0.0
  0
LINE
  5
156
100
AcDbEntity
  8
02___PRT_ALL_AXES
 62
6
420
16711935
370
-1
 48
1.0
  6
HIDDEN
100
AcDbLine
 10
170.8704226662999872
 20
380.0880535669999745
 30
0.0
 11
170.8704226662999872
 21
386.0880535669999745
 31
0.0
  0
LINE
  5
157
100
AcDbEntity
  8
0
 62
7
420
16777215
370
-1
 48
1.0
  6
CONTINUOUS
100
AcDbLine
 10
171.1204226662999872
 20
474.3380535669999745
 30
0.0
 11
171.1204226662999872
 21
485.8380535669999745
 31
0.0
  0
LINE
  5
158
100
AcDbEntity
  8
02__ASM_ALL_AXES
 62
3
420
65280
370
-1
 48
1.0
  6
CENTER
100
AcDbLine
 10
175.3704226662999872
 20
480.0880535669999745
 30
0.0
 11
175.3704226662999872
 21
472.0879535669998859
 31
0.0
  0
LINE
  5
159
100
AcDbEntity
  8
02___PRT_ALL_AXES
 62
3
420
65280
370
-1
 48
1.0
  6
CENTER
100
AcDbLine
 10
175.3704226662999872
 20
392.0880535669999745
 30
0.0
 11
175.3704226662999872
 21
374.0880535669999745
 31
0.0
  0
LINE
  5
15A
100
AcDbEntity
  8
02__ASM_ALL_AXES
 62
3
420
65280
370
-1
 48
1.0
  6
CENTER
100
AcDbLine
 10
175.3704226662999872
 20
480.0880535669999745
 30
0.0
 11
175.3704226662999872
 21
488.0881535669998925
 31
0.0
  0
LINE
  5
15B
100
AcDbEntity
  8
0
 62
7
420
16777215
370
-1
 48
1.0
  6
CONTINUOUS
100
AcDbLine
 10
179.6204226662999872
 20
485.8380535669999745
 30
0.0
 11
179.6204226662999872
 21
474.3380535669999745
 31
0.0
  0
LINE
  5
15C
100
AcDbEntity
  8
02___PRT_ALL_AXES
 62
6
420
16711935
370
-1
 48
1.0
  6
HIDDEN
100
AcDbLine
 10
179.8704226662999872
 20
380.0880535669999745
 30
0.0
 11
179.8704226662999872
 21
386.0880535669999745
 31
0.0
  0
LINE
  5
15D
100
AcDbEntity
  8
0
 62
7
420
16777215
370
-1
 48
1.0
  6
CONTINUOUS
100
AcDbLine
 10
60.3704226663000014
 20
505.0880535669999745
 30
0.0
 11
190.3704226662999872
 21
505.0880535669999745
 31
0.0
  0
LINE
  5
15E
100
AcDbEntity
  8
0
 62
7
420
16777215
370
-1
 48
1.0
  6
CONTINUOUS
100
AcDbLine
 10
195.3704226662999872
 20
500.0880535669999745
 30
0.0
 11
195.3704226662999872
 21
455.0880535669999745
 31
0.0
  0
LINE
  5
15F
100
AcDbEntity
  8
0
 62
7
420
16777215
370
-1
 48
1.0
  6
CONTINUOUS
100
AcDbLine
 10
195.3704226662999872
 20
455.0880535669999745
 30
0.0
 11
195.3704226662999872
 21
380.0880535669999745
 31
0.0
  0
LINE
  5
160
100
AcDbEntity
  8
0
 62
7
420
16777215
370
-1
 48
1.0
  6
CONTINUOUS
100
AcDbLine
 10
55.3704226663000014
 20
226.8703177179000079
 30
0.0
 11
55.3704226663000014
 21
279.8703177178999795
 31
0.0
  0
LINE
  5
161
100
AcDbEntity
  8
02___PRT_ALL_AXES
 62
7
420
16777215
370
-1
 48
1.0
  6
CONTINUOUS
100
AcDbLine
 10
70.8704226663000014
 20
258.8703177178999795
 30
0.0
 11
70.8704226663000014
 21
274.8703177178999795
 31
0.0
  0
LINE
  5
162
100
AcDbEntity
  8
DEFAULT_2
 62
6
420
16711935
370
-1
 48
1.0
  6
HIDDEN
100
AcDbLine
 10
71.1204226663000014
 20
240.8703177179000079
 30
0.0
 11
71.1204226663000014
 21
226.8703177179000079
 31
0.0
  0
LINE
  5
163
100
AcDbEntity
  8
02___PRT_ALL_AXES
 62
3
420
65280
370
-1
 48
1.0
  6
CENTER
100
AcDbLine
 10
75.3704226663000014
 20
266.8703177178999795
 30
0.0
 11
75.3704226663000014
 21
258.8702177179000046
 31
0.0
  0
LINE
  5
164
100
AcDbEntity
  8
02__ASM_ALL_AXES
 62
3
420
65280
370
-1
 48
1.0
  6
CENTER
100
AcDbLine
 10
75.3704226663000014
 20
246.8703177179000079
 30
0.0
 11
75.3704226663000014
 21
220.8703177179000079
 31
0.0
  0
LINE
  5
165
100
AcDbEntity
  8
02___PRT_ALL_AXES
 62
3
420
65280
370
-1
 48
1.0
  6
CENTER
100
AcDbLine
 10
75.3704226663000014
 20
266.8703177178999795
 30
0.0
 11
75.3704226663000014
 21
274.8704177179000112
 31
0.0
  0
LINE
  5
166
100
AcDbEntity
  8
DEFAULT_2
 62
6
420
16711935
370
-1
 48
1.0
  6
HIDDEN
100
AcDbLine
 10
79.6204226663000014
 20
240.8703177179000079
 30
0.0
 11
79.6204226663000014
 21
226.8703177179000079
 31
0.0
  0
LINE
  5
167
100
AcDbEntity
  8
02___PRT_ALL_AXES
 62
7
420
16777215
370
-1
 48
1.0
  6
CONTINUOUS
100
AcDbLine
 10
79.8704226663000014
 20
274.8703177178999795
 30
0.0
 11
79.8704226663000014
 21
258.8703177178999795
 31
0.0
  0
LINE
  5
168
100
AcDbEntity
  8
0
 62
7
420
16777215
370
-1
 48
1.0
  6
CONTINUOUS
100
AcDbLine
 10
55.3704226663000014
 20
226.8703177179000079
 30
0.0
 11
195.3704226662999872
 21
226.8703177179000079
 31
0.0
  0
LINE
  5
169
100
AcDbEntity
  8
0
 62
7
420
16777215
370
-1
 48
1.0
  6
CONTINUOUS
100
AcDbLine
 10
55.3704226663000014
 20
234.8703177179000079
 30
0.0
 11
195.3704226662999872
 21
234.8703177179000079
 31
0.0
  0
LINE
  5
16A
100
AcDbEntity
  8
0
 62
7
420
16777215
370
-1
 48
1.0
  6
CONTINUOUS
100
AcDbLine
 10
55.3704226663000014
 20
240.8703177179000079
 30
0.0
 11
195.3704226662999872
 21
240.8703177179000079
 31
0.0
  0
LINE
  5
16B
100
AcDbEntity
  8
DEFAULT_2
 62
6
420
16711935
370
-1
 48
1.0
  6
HIDDEN
100
AcDbLine
 10
121.1204226663000014
 20
240.8703177179000079
 30
0.0
 11
121.1204226663000014
 21
226.8703177179000079
 31
0.0
  0
LINE
  5
16C
100
AcDbEntity
  8
02__ASM_ALL_AXES
 62
3
420
65280
370
-1
 48
1.0
  6
CENTER
100
AcDbLine
 10
125.3704226663000014
 20
246.8703177179000079
 30
0.0
 11
125.3704226663000014
 21
220.8703177179000079
 31
0.0
  0
LINE
  5
16D
100
AcDbEntity
  8
DEFAULT_2
 62
6
420
16711935
370
-1
 48
1.0
  6
HIDDEN
100
AcDbLine
 10
129.6204226662999872
 20
240.8703177179000079
 30
0.0
 11
129.6204226662999872
 21
226.8703177179000079
 31
0.0
  0
LINE
  5
16E
100
AcDbEntity
  8
02___PRT_ALL_AXES
 62
3
420
65280
370
-1
 48
1.0
  6
CENTER
100
AcDbLine
 10
175.3704226662999872
 20
266.8703177178999795
 30
0.0
 11
167.3703226663000123
 21
266.8703177178999795
 31
0.0
  0
LINE
  5
16F
100
AcDbEntity
  8
02___PRT_ALL_AXES
 62
3
420
65280
370
-1
 48
1.0
  6
CENTER
100
AcDbLine
 10
75.3704226663000014
 20
266.8703177178999795
 30
0.0
 11
67.3703226662999981
 21
266.8703177178999795
 31
0.0
  0
LINE
  5
170
100
AcDbEntity
  8
02___PRT_ALL_AXES
 62
3
420
65280
370
-1
 48
1.0
  6
CENTER
100
AcDbLine
 10
75.3704226663000014
 20
266.8703177178999795
 30
0.0
 11
83.3705226663000047
 21
266.8703177178999795
 31
0.0
  0
LINE
  5
171
100
AcDbEntity
  8
02___PRT_ALL_AXES
 62
3
420
65280
370
-1
 48
1.0
  6
CENTER
100
AcDbLine
 10
175.3704226662999872
 20
266.8703177178999795
 30
0.0
 11
183.3705226662999905
 21
266.8703177178999795
 31
0.0
  0
LINE
  5
172
100
AcDbEntity
  8
0
 62
7
420
16777215
370
-1
 48
1.0
  6
CONTINUOUS
100
AcDbLine
 10
60.3704226663000014
 20
284.8703177178999795
 30
0.0
 11
190.3704226662999872
 21
284.8703177178999795
 31
0.0
  0
LINE
  5
173
100
AcDbEntity
  8
02___PRT_ALL_AXES
 62
7
420
16777215
370
-1
 48
1.0
  6
CONTINUOUS
100
AcDbLine
 10
170.8704226662999872
 20
258.8703177178999795
 30
0.0
 11
170.8704226662999872
 21
274.8703177178999795
 31
0.0
  0
LINE
  5
174
100
AcDbEntity
  8
DEFAULT_2
 62
6
420
16711935
370
-1
 48
1.0
  6
HIDDEN
100
AcDbLine
 10
171.1204226662999872
 20
240.8703177179000079
 30
0.0
 11
171.1204226662999872
 21
226.8703177179000079
 31
0.0
  0
LINE
  5
175
100
AcDbEntity
  8
02___PRT_ALL_AXES
 62
3
420
65280
370
-1
 48
1.0
  6
CENTER
100
AcDbLine
 10
175.3704226662999872
 20
266.8703177178999795
 30
0.0
 11
175.3704226662999872
 21
258.8702177179000046
 31
0.0
  0
LINE
  5
176
100
AcDbEntity
  8
02__ASM_ALL_AXES
 62
3
420
65280
370
-1
 48
1.0
  6
CENTER
100
AcDbLine
 10
175.3704226662999872
 20
246.8703177179000079
 30
0.0
 11
175.3704226662999872
 21
220.8703177179000079
 31
0.0
  0
LINE
  5
177
100
AcDbEntity
  8
02___PRT_ALL_AXES
 62
3
420
65280
370
-1
 48
1.0
  6
CENTER
100
AcDbLine
 10
175.3704226662999872
 20
266.8703177178999795
 30
0.0
 11
175.3704226662999872
 21
274.8704177179000112
 31
0.0
  0
LINE
  5
178
100
AcDbEntity
  8
DEFAULT_2
 62
6
420
16711935
370
-1
 48
1.0
  6
HIDDEN
100
AcDbLine
 10
179.6204226662999872
 20
240.8703177179000079
 30
0.0
 11
179.6204226662999872
 21
226.8703177179000079
 31
0.0
  0
LINE
  5
179
100
AcDbEntity
  8
02___PRT_ALL_AXES
 62
7
420
16777215
370
-1
 48
1.0
  6
CONTINUOUS
100
AcDbLine
 10
179.8704226662999872
 20
274.8703177178999795
 30
0.0
 11
179.8704226662999872
 21
258.8703177178999795
 31
0.0
  0
LINE
  5
17A
100
AcDbEntity
  8
0
 62
7
420
16777215
370
-1
 48
1.0
  6
CONTINUOUS
100
AcDbLine
 10
195.3704226662999872
 20
226.8703177179000079
 30
0.0
 11
195.3704226662999872
 21
279.8703177178999795
 31
0.0
  0
ARC
  5
17B
100
AcDbEntity
  8
0
 62
7
420
16777215
370
-1
 48
1.0
  6
CONTINUOUS
100
AcDbCircle
 10
310.4279132323999875
 20
392.0880535669999745
 30
0.0
 40
12.0
100
AcDbArc
 50
270.0
 51
360.0
  0
ARC
  5
17C
100
AcDbEntity
  8
0
 62
7
420
16777215
370
-1
 48
1.0
  6
CONTINUOUS
100
AcDbCircle
 10
310.4279132323999875
 20
392.0880535669999745
 30
0.0
 40
6.0
100
AcDbArc
 50
270.0
 51
360.0
  0
ARC
  5
17D
100
AcDbEntity
  8
0
 62
7
420
16777215
370
-1
 48
1.0
  6
CONTINUOUS
100
AcDbCircle
 10
190.3704226662999872
 20
500.0880535669999745
 30
0.0
 40
5.0
100
AcDbArc
 50
0.0
 51
90.0
  0
ARC
  5
17E
100
AcDbEntity
  8
0
 62
7
420
16777215
370
-1
 48
1.0
  6
CONTINUOUS
100
AcDbCircle
 10
60.3704226663000014
 20
500.0880535669999745
 30
0.0
 40
5.0
100
AcDbArc
 50
90.0
 51
180.0
  0
ARC
  5
17F
100
AcDbEntity
  8
0
 62
7
420
16777215
370
-1
 48
1.0
  6
CONTINUOUS
100
AcDbCircle
 10
75.3704226663000014
 20
485.8380535669999745
 30
0.0
 40
4.25
100
AcDbArc
 50
0.0
 51
180.0
  0
ARC
  5
180
100
AcDbEntity
  8
0
 62
7
420
16777215
370
-1
 48
1.0
  6
CONTINUOUS
100
AcDbCircle
 10
75.3704226663000014
 20
474.3380535669999745
 30
0.0
 40
4.25
100
AcDbArc
 50
180.0
 51
360.0
  0
ARC
  5
181
100
AcDbEntity
  8
0
 62
7
420
16777215
370
-1
 48
1.0
  6
CONTINUOUS
100
AcDbCircle
 10
125.3704226663000014
 20
485.8380535669999745
 30
0.0
 40
4.25
100
AcDbArc
 50
0.0
 51
180.0
  0
ARC
  5
182
100
AcDbEntity
  8
0
 62
7
420
16777215
370
-1
 48
1.0
  6
CONTINUOUS
100
AcDbCircle
 10
125.3704226663000014
 20
474.3380535669999745
 30
0.0
 40
4.25
100
AcDbArc
 50
180.0
 51
360.0
  0
ARC
  5
183
100
AcDbEntity
  8
0
 62
7
420
16777215
370
-1
 48
1.0
  6
CONTINUOUS
100
AcDbCircle
 10
175.3704226662999872
 20
485.8380535669999745
 30
0.0
 40
4.25
100
AcDbArc
 50
0.0
 51
180.0
  0
ARC
  5
184
100
AcDbEntity
  8
0
 62
7
420
16777215
370
-1
 48
1.0
  6
CONTINUOUS
100
AcDbCircle
 10
175.3704226662999872
 20
474.3380535669999745
 30
0.0
 40
4.25
100
AcDbArc
 50
180.0
 51
360.0
  0
ARC
  5
185
100
AcDbEntity
  8
0
 62
7
420
16777215
370
-1
 48
1.0
  6
CONTINUOUS
100
AcDbCircle
 10
190.3704226662999872
 20
279.8703177178999795
 30
0.0
 40
5.0
100
AcDbArc
 50
0.0
 51
90.0
  0
ARC
  5
186
100
AcDbEntity
  8
0
 62
7
420
16777215
370
-1
 48
1.0
  6
CONTINUOUS
100
AcDbCircle
 10
60.3704226663000014
 20
279.8703177178999795
 30
0.0
 40
5.0
100
AcDbArc
 50
90.0
 51
180.0
  0
ARC
  5
187
100
AcDbEntity
  8
02___PRT_ALL_AXES
 62
7
420
16777215
370
-1
 48
1.0
  6
CONTINUOUS
100
AcDbCircle
 10
175.3704226662999872
 20
274.8703177178999795
 30
0.0
 40
4.5
100
AcDbArc
 50
0.0
 51
180.0
  0
ARC
  5
188
100
AcDbEntity
  8
02___PRT_ALL_AXES
 62
7
420
16777215
370
-1
 48
1.0
  6
CONTINUOUS
100
AcDbCircle
 10
175.3704226662999872
 20
258.8703177178999795
 30
0.0
 40
4.5
100
AcDbArc
 50
180.0
 51
360.0
  0
ARC
  5
189
100
AcDbEntity
  8
02___PRT_ALL_AXES
 62
7
420
16777215
370
-1
 48
1.0
  6
CONTINUOUS
100
AcDbCircle
 10
75.3704226663000014
 20
274.8703177178999795
 30
0.0
 40
4.5
100
AcDbArc
 50
0.0
 51
180.0
  0
ARC
  5
18A
100
AcDbEntity
  8
02___PRT_ALL_AXES
 62
7
420
16777215
370
-1
 48
1.0
  6
CONTINUOUS
100
AcDbCircle
 10
75.3704226663000014
 20
258.8703177178999795
 30
0.0
 40
4.5
100
AcDbArc
 50
180.0
 51
360.0
  0
ENDSEC
  0
SECTION
  2
OBJECTS
  0
DICTIONARY
  5
C
100
AcDbDictionary
280
0
281
1
  3
ACAD_GROUP
350
D
  3
ACAD_LAYOUT
350
1A
  3
ACAD_MLINESTYLE
350
17
  3
ACAD_PLOTSETTINGS
350
19
  3
ACAD_PLOTSTYLENAME
350
E
  3
AcDbVariableDictionary
350
18B
  3
QCAD_OBJECTS
350
18C
  0
DICTIONARY
  5
D
100
AcDbDictionary
280
0
281
1
  0
ACDBDICTIONARYWDFLT
  5
E
100
AcDbDictionary
281
1
  3
Normal
350
F
100
AcDbDictionaryWithDefault
340
F
  0
ACDBPLACEHOLDER
  5
F
  0
DICTIONARY
  5
17
100
AcDbDictionary
280
0
281
1
  3
Standard
350
18
  0
MLINESTYLE
  5
18
100
AcDbMlineStyle
  2
STANDARD
 70
0
  3

 62
256
 51
90.0
 52
90.0
 71
2
 49
0.5
 62
256
  6
BYLAYER
 49
-0.5
 62
256
  6
BYLAYER
  0
DICTIONARY
  5
19
100
AcDbDictionary
280
0
281
1
  0
DICTIONARY
  5
1A
100
AcDbDictionary
281
1
  3
Layout1
350
1E
  3
Layout2
350
26
  3
Model
350
22
  0
LAYOUT
  5
1E
100
AcDbPlotSettings
  1

  2
none_device
  4

  6

 40
0.0
 41
0.0
 42
0.0
 43
0.0
 44
0.0
 45
0.0
 46
0.0
 47
0.0
 48
0.0
 49
0.0
140
0.0
141
0.0
142
1.0
143
1.0
 70
688
 72
0
 73
0
 74
5
  7

 75
16
147
1.0
148
0.0
149
0.0
100
AcDbLayout
  1
Layout1
 70
1
 71
1
 10
0.0
 20
0.0
 11
420.0
 21
297.0
 12
0.0
 22
0.0
 32
0.0
 14
100000000000000000000.0
 24
100000000000000000000.0
 34
100000000000000000000.0
 15
-100000000000000000000.0
 25
-100000000000000000000.0
 35
-100000000000000000000.0
146
0.0
 13
0.0
 23
0.0
 33
0.0
 16
1.0
 26
0.0
 36
0.0
 17
0.0
 27
1.0
 37
0.0
 76
0
330
1B
  0
LAYOUT
  5
22
100
AcDbPlotSettings
  1

  2
none_device
  4

  6

 40
0.0
 41
0.0
 42
0.0
 43
0.0
 44
0.0
 45
0.0
 46
0.0
 47
0.0
 48
0.0
 49
0.0
140
0.0
141
0.0
142
1.0
143
1.0
 70
1712
 72
0
 73
0
 74
0
  7

 75
0
147
1.0
148
0.0
149
0.0
100
AcDbLayout
  1
Model
 70
1
 71
0
 10
0.0
 20
0.0
 11
12.0
 21
9.0
 12
0.0
 22
0.0
 32
0.0
 14
0.0
 24
0.0
 34
0.0
 15
0.0
 25
0.0
 35
0.0
146
0.0
 13
0.0
 23
0.0
 33
0.0
 16
1.0
 26
0.0
 36
0.0
 17
0.0
 27
1.0
 37
0.0
 76
0
330
1F
  0
LAYOUT
  5
26
100
AcDbPlotSettings
  1

  2
none_device
  4

  6

 40
0.0
 41
0.0
 42
0.0
 43
0.0
 44
0.0
 45
0.0
 46
0.0
 47
0.0
 48
0.0
 49
0.0
140
0.0
141
0.0
142
1.0
143
1.0
 70
688
 72
0
 73
0
 74
5
  7

 75
16
147
1.0
148
0.0
149
0.0
100
AcDbLayout
  1
Layout2
 70
1
 71
2
 10
0.0
 20
0.0
 11
12.0
 21
9.0
 12
0.0
 22
0.0
 32
0.0
 14
0.0
 24
0.0
 34
0.0
 15
0.0
 25
0.0
 35
0.0
146
0.0
 13
0.0
 23
0.0
 33
0.0
 16
1.0
 26
0.0
 36
0.0
 17
0.0
 27
1.0
 37
0.0
 76
0
330
23
  0
DICTIONARY
  5
18B
100
AcDbDictionary
281
1
  3
DIMASSOC
350
18E
  3
HIDETEXT
350
18D
  0
DICTIONARYVAR
  5
18D
100
DictionaryVariables
280
0
  1
2
  0
DICTIONARYVAR
  5
18E
100
DictionaryVariables
280
0
  1
1
  0
DICTIONARY
  5
18C
100
AcDbDictionary
281
1
  3
ColorSettings/BackgroundColor
350
18F
  3
ColorSettings/ColorMode
350
190
  3
Grid/DisplayGrid00
350
191
  3
Grid/DisplayGrid01
350
192
  3
Grid/DisplayGrid02
350
193
  3
Grid/DisplayGrid03
350
194
  3
Grid/GridSpacingX00
350
195
  3
Grid/GridSpacingX01
350
196
  3
Grid/GridSpacingX02
350
197
  3
Grid/GridSpacingX03
350
198
  3
Grid/GridSpacingY00
350
199
  3
Grid/GridSpacingY01
350
19A
  3
Grid/GridSpacingY02
350
19B
  3
Grid/GridSpacingY03
350
19C
  3
Grid/IsometricGrid00
350
19D
  3
Grid/IsometricGrid01
350
19E
  3
Grid/IsometricGrid02
350
19F
  3
Grid/IsometricGrid03
350
1A0
  3
Grid/IsometricProjection00
350
1A1
  3
Grid/IsometricProjection01
350
1A2
  3
Grid/IsometricProjection02
350
1A3
  3
Grid/IsometricProjection03
350
1A4
  3
Grid/MetaGridSpacingX00
350
1A5
  3
Grid/MetaGridSpacingX01
350
1A6
  3
Grid/MetaGridSpacingX02
350
1A7
  3
Grid/MetaGridSpacingX03
350
1A8
  3
Grid/MetaGridSpacingY00
350
1A9
  3
Grid/MetaGridSpacingY01
350
1AA
  3
Grid/MetaGridSpacingY02
350
1AB
  3
Grid/MetaGridSpacingY03
350
1AC
  3
MultiPageSettings/Columns
350
1AD
  3
MultiPageSettings/GlueMarginsBottom
350
1AE
  3
MultiPageSettings/GlueMarginsLeft
350
1AF
  3
MultiPageSettings/GlueMarginsRight
350
1B0
  3
MultiPageSettings/GlueMarginsTop
350
1B1
  3
MultiPageSettings/PrintCropMarks
350
1B2
  3
MultiPageSettings/Rows
350
1B3
  3
PageSettings/OffsetX
350
1B4
  3
PageSettings/OffsetY
350
1B5
  3
PageSettings/PageOrientation
350
1B6
  3
PageSettings/PaperHeight
350
1B7
  3
PageSettings/PaperWidth
350
1B8
  3
PageSettings/Scale
350
1B9
  3
PageSettings/ShowPaperBorders
350
1BA
  3
PageTagSettings/EnablePageTags
350
1BB
  3
PageTagSettings/TagAlignment
350
1BC
  3
PageTagSettings/TagFont
350
1BD
  3
PageTagSettings/TagPosition
350
1BE
  3
QCADVersion
350
1BF
  3
UnitSettings/PaperUnit
350
1C0
  3
ViewportCenter
350
1C1
  3
ViewportHeight
350
1C2
  3
ViewportWidth
350
1C3
  0
XRECORD
  5
18F
330
18C
100
AcDbXrecord
280
1
1000
Bianco
  0
XRECORD
  5
190
330
18C
100
AcDbXrecord
280
1
1000
FullColor
  0
XRECORD
  5
191
330
18C
100
AcDbXrecord
280
1
290
1
  0
XRECORD
  5
192
330
18C
100
AcDbXrecord
280
1
290
1
  0
XRECORD
  5
193
330
18C
100
AcDbXrecord
280
1
290
1
  0
XRECORD
  5
194
330
18C
100
AcDbXrecord
280
1
290
1
  0
XRECORD
  5
195
330
18C
100
AcDbXrecord
280
1
1000
auto
  0
XRECORD
  5
196
330
18C
100
AcDbXrecord
280
1
1000
auto
  0
XRECORD
  5
197
330
18C
100
AcDbXrecord
280
1
1000
auto
  0
XRECORD
  5
198
330
18C
100
AcDbXrecord
280
1
1000
auto
  0
XRECORD
  5
199
330
18C
100
AcDbXrecord
280
1
1000
auto
  0
XRECORD
  5
19A
330
18C
100
AcDbXrecord
280
1
1000
auto
  0
XRECORD
  5
19B
330
18C
100
AcDbXrecord
280
1
1000
auto
  0
XRECORD
  5
19C
330
18C
100
AcDbXrecord
280
1
1000
auto
  0
XRECORD
  5
19D
330
18C
100
AcDbXrecord
280
1
290
0
  0
XRECORD
  5
19E
330
18C
100
AcDbXrecord
280
1
290
0
  0
XRECORD
  5
19F
330
18C
100
AcDbXrecord
280
1
290
0
  0
XRECORD
  5
1A0
330
18C
100
AcDbXrecord
280
1
290
0
  0
XRECORD
  5
1A1
330
18C
100
AcDbXrecord
280
1
 90
65537
  0
XRECORD
  5
1A2
330
18C
100
AcDbXrecord
280
1
 90
65537
  0
XRECORD
  5
1A3
330
18C
100
AcDbXrecord
280
1
 90
65537
  0
XRECORD
  5
1A4
330
18C
100
AcDbXrecord
280
1
 90
65537
  0
XRECORD
  5
1A5
330
18C
100
AcDbXrecord
280
1
1000
auto
  0
XRECORD
  5
1A6
330
18C
100
AcDbXrecord
280
1
1000
auto
  0
XRECORD
  5
1A7
330
18C
100
AcDbXrecord
280
1
1000
auto
  0
XRECORD
  5
1A8
330
18C
100
AcDbXrecord
280
1
1000
auto
  0
XRECORD
  5
1A9
330
18C
100
AcDbXrecord
280
1
1000
auto
  0
XRECORD
  5
1AA
330
18C
100
AcDbXrecord
280
1
1000
auto
  0
XRECORD
  5
1AB
330
18C
100
AcDbXrecord
280
1
1000
auto
  0
XRECORD
  5
1AC
330
18C
100
AcDbXrecord
280
1
1000
auto
  0
XRECORD
  5
1AD
330
18C
100
AcDbXrecord
280
1
 90
1
  0
XRECORD
  5
1AE
330
18C
100
AcDbXrecord
280
1
 40
10.0
  0
XRECORD
  5
1AF
330
18C
100
AcDbXrecord
280
1
 40
10.0
  0
XRECORD
  5
1B0
330
18C
100
AcDbXrecord
280
1
 40
10.0
  0
XRECORD
  5
1B1
330
18C
100
AcDbXrecord
280
1
 40
10.0
  0
XRECORD
  5
1B2
330
18C
100
AcDbXrecord
280
1
290
0
  0
XRECORD
  5
1B3
330
18C
100
AcDbXrecord
280
1
 90
1
  0
XRECORD
  5
1B4
330
18C
100
AcDbXrecord
280
1
 40
0.0
  0
XRECORD
  5
1B5
330
18C
100
AcDbXrecord
280
1
 40
0.0
  0
XRECORD
  5
1B6
330
18C
100
AcDbXrecord
280
1
1000
Portrait
  0
XRECORD
  5
1B7
330
18C
100
AcDbXrecord
280
1
 40
297.0
  0
XRECORD
  5
1B8
330
18C
100
AcDbXrecord
280
1
 40
210.0
  0
XRECORD
  5
1B9
330
18C
100
AcDbXrecord
280
1
1000
1:1
  0
XRECORD
  5
1BA
330
18C
100
AcDbXrecord
280
1
290
1
  0
XRECORD
  5
1BB
330
18C
100
AcDbXrecord
280
1
290
0
  0
XRECORD
  5
1BC
330
18C
100
AcDbXrecord
280
1
1000
Inside
  0
XRECORD
  5
1BD
330
18C
100
AcDbXrecord
280
1
1000
Arial,10,-1,5,50,0,0,0,0,0
  0
XRECORD
  5
1BE
330
18C
100
AcDbXrecord
280
1
1000
TopLeft
  0
XRECORD
  5
1BF
330
18C
100
AcDbXrecord
280
1
1000
3.32.6
  0
XRECORD
  5
1C0
330
18C
100
AcDbXrecord
280
1
 90
4
  0
XRECORD
  5
1C2
330
18C
100
AcDbXrecord
280
1
 40
916.1099999999999
  0
XRECORD
  5
1C3
330
18C
100
AcDbXrecord
280
1
 40
1827.3599999999996726
  0
ENDSEC
  0
EOF
