  0
SECTION
  2
HEADER
  9
$ACADVER
  1
AC1024
  9
$ACADMAINTVER
 70
6
  9
$DWGCODEPAGE
  3
ANSI_1252
  9
$LASTSAVEDBY
  1
ezdxf
  9
$INSBASE
 10
0.0
 20
0.0
 30
0.0
  9
$EXTMIN
 10
1e+20
 20
1e+20
 30
1e+20
  9
$EXTMAX
 10
-1e+20
 20
-1e+20
 30
-1e+20
  9
$LIMMIN
 10
0.0
 20
0.0
  9
$LIMMAX
 10
420.0
 20
297.0
  9
$ORTHOMODE
 70
0
  9
$REGENMODE
 70
1
  9
$FILLMODE
 70
1
  9
$QTEXTMODE
 70
0
  9
$MIRRTEXT
 70
1
  9
$LTSCALE
 40
1.0
  9
$ATTMODE
 70
1
  9
$TEXTSIZE
 40
2.5
  9
$TRACEWID
 40
1.0
  9
$TEXTSTYLE
  7
Standard
  9
$CLAYER
  8
0
  9
$CELTYPE
  6
ByLayer
  9
$CECOLOR
 62
256
  9
$CELTSCALE
 40
1.0
  9
$DISPSILH
 70
0
  9
$DIMSCALE
 40
1.0
  9
$DIMASZ
 40
2.5
  9
$DIMEXO
 40
0.625
  9
$DIMDLI
 40
3.75
  9
$DIMRND
 40
0.0
  9
$DIMDLE
 40
0.0
  9
$DIMEXE
 40
1.25
  9
$DIMTP
 40
0.0
  9
$DIMTM
 40
0.0
  9
$DIMTXT
 40
2.5
  9
$DIMCEN
 40
2.5
  9
$DIMTSZ
 40
0.0
  9
$DIMTOL
 70
0
  9
$DIMLIM
 70
0
  9
$DIMTIH
 70
0
  9
$DIMTOH
 70
0
  9
$DIMSE1
 70
0
  9
$DIMSE2
 70
0
  9
$DIMTAD
 70
1
  9
$DIMZIN
 70
8
  9
$DIMBLK
  1

  9
$DIMASO
 70
1
  9
$DIMSHO
 70
1
  9
$DIMPOST
  1

  9
$DIMAPOST
  1

  9
$DIMALT
 70
0
  9
$DIMALTD
 70
3
  9
$DIMALTF
 40
0.03937007874
  9
$DIMLFAC
 40
1.0
  9
$DIMTOFL
 70
1
  9
$DIMTVP
 40
0.0
  9
$DIMTIX
 70
0
  9
$DIMSOXD
 70
0
  9
$DIMSAH
 70
0
  9
$DIMBLK1
  1

  9
$DIMBLK2
  1

  9
$DIMSTYLE
  2
ISO-25
  9
$DIMCLRD
 70
0
  9
$DIMCLRE
 70
0
  9
$DIMCLRT
 70
0
  9
$DIMTFAC
 40
1.0
  9
$DIMGAP
 40
0.625
  9
$DIMJUST
 70
0
  9
$DIMSD1
 70
0
  9
$DIMSD2
 70
0
  9
$DIMTOLJ
 70
0
  9
$DIMTZIN
 70
8
  9
$DIMALTZ
 70
0
  9
$DIMALTTZ
 70
0
  9
$DIMUPT
 70
0
  9
$DIMDEC
 70
2
  9
$DIMTDEC
 70
2
  9
$DIMALTU
 70
2
  9
$DIMALTTD
 70
3
  9
$DIMTXSTY
  7
Standard
  9
$DIMAUNIT
 70
0
  9
$DIMADEC
 70
0
  9
$DIMALTRND
 40
0.0
  9
$DIMAZIN
 70
0
  9
$DIMDSEP
 70
44
  9
$DIMATFIT
 70
3
  9
$DIMFRAC
 70
0
  9
$DIMLDRBLK
  1

  9
$DIMLUNIT
 70
2
  9
$DIMLWD
 70
-2
  9
$DIMLWE
 70
-2
  9
$DIMTMOVE
 70
0
  9
$DIMFXL
 40
1.0
  9
$DIMFXLON
 70
0
  9
$DIMJOGANG
 40
0.785398163397
  9
$DIMTFILL
 70
0
  9
$DIMTFILLCLR
 70
0
  9
$DIMARCSYM
 70
0
  9
$DIMLTYPE
  6

  9
$DIMLTEX1
  6

  9
$DIMLTEX2
  6

  9
$DIMTXTDIRECTION
 70
0
  9
$LUNITS
 70
2
  9
$LUPREC
 70
4
  9
$SKETCHINC
 40
1.0
  9
$FILLETRAD
 40
10.0
  9
$AUNITS
 70
0
  9
$AUPREC
 70
2
  9
$MENU
  1
.
  9
$ELEVATION
 40
0.0
  9
$PELEVATION
 40
0.0
  9
$THICKNESS
 40
0.0
  9
$LIMCHECK
 70
0
  9
$CHAMFERA
 40
0.0
  9
$CHAMFERB
 40
0.0
  9
$CHAMFERC
 40
0.0
  9
$CHAMFERD
 40
0.0
  9
$SKPOLY
 70
0
  9
$TDCREATE
 40
2461319.7711689817
  9
$TDUCREATE
 40
2458532.153996898
  9
$TDUPDATE
 40
2461319.7711689817
  9
$TDUUPDATE
 40
2458532.1544311
  9
$TDINDWG
 40
0.0
  9
$TDUSRTIMER
 40
0.0
  9
$USRTIMER
 70
1
  9
$ANGBASE
 50
0.0
  9
$ANGDIR
 70
0
  9
$PDMODE
 70
0
  9
$PDSIZE
 40
0.0
  9
$PLINEWID
 40
0.0
  9
$SPLFRAME
 70
0
  9
$SPLINETYPE
 70
6
  9
$SPLINESEGS
 70
8
  9
$HANDSEED
  5
13E
  9
$SURFTAB1
 70
6
  9
$SURFTAB2
 70
6
  9
$SURFTYPE
 70
6
  9
$SURFU
 70
6
  9
$SURFV
 70
6
  9
$UCSBASE
  2

  9
$UCSNAME
  2

  9
$UCSORG
 10
0.0
 20
0.0
 30
0.0
  9
$UCSXDIR
 10
1.0
 20
0.0
 30
0.0
  9
$UCSYDIR
 10
0.0
 20
1.0
 30
0.0
  9
$UCSORTHOREF
  2

  9
$UCSORTHOVIEW
 70
0
  9
$UCSORGTOP
 10
0.0
 20
0.0
 30
0.0
  9
$UCSORGBOTTOM
 10
0.0
 20
0.0
 30
0.0
  9
$UCSORGLEFT
 10
0.0
 20
0.0
 30
0.0
  9
$UCSORGRIGHT
 10
0.0
 20
0.0
 30
0.0
  9
$UCSORGFRONT
 10
0.0
 20
0.0
 30
0.0
  9
$UCSORGBACK
 10
0.0
 20
0.0
 30
0.0
  9
$PUCSBASE
  2

  9
$PUCSNAME
  2

  9
$PUCSORG
 10
0.0
 20
0.0
 30
0.0
  9
$PUCSXDIR
 10
1.0
 20
0.0
 30
0.0
  9
$PUCSYDIR
 10
0.0
 20
1.0
 30
0.0
  9
$PUCSORTHOREF
  2

  9
$PUCSORTHOVIEW
 70
0
  9
$PUCSORGTOP
 10
0.0
 20
0.0
 30
0.0
  9
$PUCSORGBOTTOM
 10
0.0
 20
0.0
 30
0.0
  9
$PUCSORGLEFT
 10
0.0
 20
0.0
 30
0.0
  9
$PUCSORGRIGHT
 10
0.0
 20
0.0
 30
0.0
  9
$PUCSORGFRONT
 10
0.0
 20
0.0
 30
0.0
  9
$PUCSORGBACK
 10
0.0
 20
0.0
 30
0.0
  9
$USERI1
 70
0
  9
$USERI2
 70
0
  9
$USERI3
 70
0
  9
$USERI4
 70
0
  9
$USERI5
 70
0
  9
$USERR1
 40
0.0
  9
$USERR2
 40
0.0
  9
$USERR3
 40
0.0
  9
$USERR4
 40
0.0
  9
$USERR5
 40
0.0
  9
$WORLDVIEW
 70
1
  9
$SHADEDGE
 70
3
  9
$SHADEDIF
 70
70
  9
$TILEMODE
 70
1
  9
$MAXACTVP
 70
64
  9
$PINSBASE
 10
0.0
 20
0.0
 30
0.0
  9
$PLIMCHECK
 70
0
  9
$PEXTMIN
 10
1e+20
 20
1e+20
 30
1e+20
  9
$PEXTMAX
 10
-1e+20
 20
-1e+20
 30
-1e+20
  9
$PLIMMIN
 10
0.0
 20
0.0
  9
$PLIMMAX
 10
420.0
 20
297.0
  9
$UNITMODE
 70
0
  9
$VISRETAIN
 70
1
  9
$PLINEGEN
 70
0
  9
$PSLTSCALE
 70
1
  9
$TREEDEPTH
 70
3020
  9
$CMLSTYLE
  2
Standard
  9
$CMLJUST
 70
0
  9
$CMLSCALE
 40
20.0
  9
$PROXYGRAPHICS
 70
1
  9
$MEASUREMENT
 70
1
  9
$CELWEIGHT
370
-1
  9
$ENDCAPS
280
0
  9
$JOINSTYLE
280
0
  9
$LWDISPLAY
290
0
  9
$INSUNITS
 70
4
  9
$HYPERLINKBASE
  1

  9
$STYLESHEET
  1

  9
$XEDIT
290
1
  9
$CEPSNTYPE
380
0
  9
$PSTYLEMODE
290
1
  9
$FINGERPRINTGUID
  2
{E65A25D2-1B23-4DCA-AC4C-358C4E4B18F4}
  9
$VERSIONGUID
  2
{976E2028-87C1-443E-A834-A043942D8D25}
  9
$EXTNAMES
290
1
  9
$PSVPSCALE
 40
0.0
  9
$OLESTARTUP
290
0
  9
$SORTENTS
280
127
  9
$INDEXCTL
280
0
  9
$HIDETEXT
280
1
  9
$XCLIPFRAME
280
1
  9
$HALOGAP
280
0
  9
$OBSCOLOR
 70
257
  9
$OBSLTYPE
280
0
  9
$INTERSECTIONDISPLAY
280
0
  9
$INTERSECTIONCOLOR
 70
257
  9
$DIMASSOC
280
2
  9
$PROJECTNAME
  1

  9
$CAMERADISPLAY
290
0
  9
$LENSLENGTH
 40
50.0
  9
$CAMERAHEIGHT
 40
0.0
  9
$STEPSPERSEC
 40
24.0
  9
$STEPSIZE
 40
100.0
  9
$3DDWFPREC
 40
2.0
  9
$PSOLWIDTH
 40
0.005
  9
$PSOLHEIGHT
 40
0.08
  9
$LOFTANG1
 40
1.570796326795
  9
$LOFTANG2
 40
1.570796326795
  9
$LOFTMAG1
 40
0.0
  9
$LOFTMAG2
 40
0.0
  9
$LOFTPARAM
 70
7
  9
$LOFTNORMALS
280
1
  9
$LATITUDE
 40
37.795
  9
$LONGITUDE
 40
-122.394
  9
$NORTHDIRECTION
 40
0.0
  9
$TIMEZONE
 70
-8000
  9
$LIGHTGLYPHDISPLAY
280
1
  9
$TILEMODELIGHTSYNCH
280
1
  9
$CMATERIAL
347
20
  9
$SOLIDHIST
280
0
  9
$SHOWHIST
280
1
  9
$DWFFRAME
280
2
  9
$DGNFRAME
280
2
  9
$REALWORLDSCALE
290
1
  9
$INTERFERECOLOR
 62
256
  9
$CSHADOW
280
0
  9
$SHADOWPLANELOCATION
 40
0.0
  0
ENDSEC
  0
SECTION
  2
CLASSES
  0
CLASS
  1
ACDBDICTIONARYWDFLT
  2
AcDbDictionaryWithDefault
  3
ObjectDBX Classes
 90
0
 91
0
280
0
281
0
  0
CLASS
  1
SUN
  2
AcDbSun
  3
SCENEOE
 90
1153
 91
0
280
0
281
0
  0
CLASS
  1
VISUALSTYLE
  2
AcDbVisualStyle
  3
ObjectDBX Classes
 90
4095
 91
0
280
0
281
0
  0
CLASS
  1
MATERIAL
  2
AcDbMaterial
  3
ObjectDBX Classes
 90
1153
 91
0
280
0
281
0
  0
CLASS
  1
SCALE
  2
AcDbScale
  3
ObjectDBX Classes
 90
1153
 91
0
280
0
281
0
  0
CLASS
  1
TABLESTYLE
  2
AcDbTableStyle
  3
ObjectDBX Classes
 90
4095
 91
0
280
0
281
0
  0
CLASS
  1
MLEADERSTYLE
  2
AcDbMLeaderStyle
  3
ACDB_MLEADERSTYLE_CLASS
 90
4095
 91
0
280
0
281
0
  0
CLASS
  1
DICTIONARYVAR
  2
AcDbDictionaryVar
  3
ObjectDBX Classes
 90
0
 91
0
280
0
281
0
  0
CLASS
  1
CELLSTYLEMAP
  2
AcDbCellStyleMap
  3
ObjectDBX Classes
 90
1152
 91
0
280
0
281
0
  0
CLASS
  1
MENTALRAYRENDERSETTINGS
  2
AcDbMentalRayRenderSettings
  3
SCENEOE
 90
1024
 91
0
280
0
281
0
  0
CLASS
  1
ACDBDETAILVIEWSTYLE
  2
AcDbDetailViewStyle
  3
ObjectDBX Classes
 90
1025
 91
0
280
0
281
0
  0
CLASS
  1
ACDBSECTIONVIEWSTYLE
  2
AcDbSectionViewStyle
  3
ObjectDBX Classes
 90
1025
 91
0
280
0
281
0
  0
CLASS
  1
RASTERVARIABLES
  2
AcDbRasterVariables
  3
ISM
 90
0
 91
0
280
0
281
0
  0
CLASS
  1
ACDBPLACEHOLDER
  2
AcDbPlaceHolder
  3
ObjectDBX Classes
 90
0
 91
0
280
0
281
0
  0
CLASS
  1
LAYOUT
  2
AcDbLayout
  3
ObjectDBX Classes
 90
0
 91
0
280
0
281
0
  0
ENDSEC
  0
SECTION
  2
TABLES
  0
TABLE
  2
VPORT
  5
8
330
0
100
AcDbSymbolTable
 70
1
  0
VPORT
  5
23
330
8
100
AcDbSymbolTableRecord
100
AcDbViewportTableRecord
  2
*Active
 70
0
 10
0.0
 20
0.0
 11
1.0
 21
1.0
 12
0.0
 22
0.0
 13
0.0
 23
0.0
 14
0.5
 24
0.5
 15
0.5
 25
0.5
 16
0.0
 26
0.0
 36
1.0
 17
0.0
 27
0.0
 37
0.0
 40
1000.0
 41
1.34
 42
50.0
 43
0.0
 44
0.0
 50
0.0
 51
0.0
 71
0
 72
1000
 73
1
 74
3
 75
0
 76
0
 77
0
 78
0
281
0
 65
0
146
0.0
  0
ENDTAB
  0
TABLE
  2
LTYPE
  5
2
330
0
100
AcDbSymbolTable
 70
4
  0
LTYPE
  5
24
330
2
100
AcDbSymbolTableRecord
100
AcDbLinetypeTableRecord
  2
ByBlock
 70
0
  3

 72
65
 73
0
 40
0.0
  0
LTYPE
  5
25
330
2
100
AcDbSymbolTableRecord
100
AcDbLinetypeTableRecord
  2
ByLayer
 70
0
  3

 72
65
 73
0
 40
0.0
  0
LTYPE
  5
26
330
2
100
AcDbSymbolTableRecord
100
AcDbLinetypeTableRecord
  2
Continuous
 70
0
  3

 72
65
 73
0
 40
0.0
  0
LTYPE
  5
3E
330
2
100
AcDbSymbolTableRecord
100
AcDbLinetypeTableRecord
  2
HIDDEN
 70
0
  3
- - - - - - - - - - - - - - - - - - - -
 72
65
 73
2
 40
0.2
 49
0.1
 74
0
 49
-0.1
 74
0
  0
ENDTAB
  0
TABLE
  2
LAYER
  5
1
330
0
100
AcDbSymbolTable
 70
17
  0
LAYER
  5
27
330
1
100
AcDbSymbolTableRecord
100
AcDbLayerTableRecord
  2
0
 70
0
 62
7
  6
Continuous
370
-3
390
13
347
21
  0
LAYER
  5
28
330
1
100
AcDbSymbolTableRecord
100
AcDbLayerTableRecord
  2
Defpoints
 70
0
 62
7
  6
Continuous
290
0
370
-3
390
13
347
21
  0
LAYER
  5
2F
330
1
100
AcDbSymbolTableRecord
100
AcDbLayerTableRecord
  2
OuterContour
 70
0
 62
3
  6
Continuous
370
-3
390
13
347
21
  0
LAYER
  5
30
330
1
100
AcDbSymbolTableRecord
100
AcDbLayerTableRecord
  2
InnerContour
 70
0
 62
2
  6
Continuous
370
-3
390
13
347
21
  0
LAYER
  5
31
330
1
100
AcDbSymbolTableRecord
100
AcDbLayerTableRecord
  2
Annotation
 70
0
 62
7
  6
Continuous
370
-3
390
13
347
21
  0
LAYER
  5
32
330
1
100
AcDbSymbolTableRecord
100
AcDbLayerTableRecord
  2
Trash
 70
0
 62
1
  6
Continuous
370
-3
390
13
347
21
  0
LAYER
  5
33
330
1
100
AcDbSymbolTableRecord
100
AcDbLayerTableRecord
  2
Frame
 70
0
 62
8
420
1315860
  6
Continuous
370
-3
390
13
347
21
  0
LAYER
  5
34
330
1
100
AcDbSymbolTableRecord
100
AcDbLayerTableRecord
  2
TitleBlock
 70
0
 62
8
420
1315860
  6
Continuous
370
-3
390
13
347
21
  0
LAYER
  5
35
330
1
100
AcDbSymbolTableRecord
100
AcDbLayerTableRecord
  2
Construction
 70
0
 62
8
420
13122590
  6
Continuous
370
-3
390
13
347
21
  0
LAYER
  5
36
330
1
100
AcDbSymbolTableRecord
100
AcDbLayerTableRecord
  2
Hole
 70
0
 62
8
420
9830600
  6
Continuous
370
-3
390
13
347
21
  0
LAYER
  5
37
330
1
100
AcDbSymbolTableRecord
100
AcDbLayerTableRecord
  2
ThreadHole
 70
0
 62
8
420
41120
  6
Continuous
370
-3
390
13
347
21
  0
LAYER
  5
38
330
1
100
AcDbSymbolTableRecord
100
AcDbLayerTableRecord
  2
Countersink
 70
0
 62
8
420
2637020
  6
Continuous
370
-3
390
13
347
21
  0
LAYER
  5
39
330
1
100
AcDbSymbolTableRecord
100
AcDbLayerTableRecord
  2
Counterbore
 70
0
 62
8
420
13135590
  6
Continuous
370
-3
390
13
347
21
  0
LAYER
  5
3A
330
1
100
AcDbSymbolTableRecord
100
AcDbLayerTableRecord
  2
SeatedHole
 70
0
 62
8
420
14428280
  6
Continuous
370
-3
390
13
347
21
  0
LAYER
  5
3B
330
1
100
AcDbSymbolTableRecord
100
AcDbLayerTableRecord
  2
Slot
 70
0
 62
8
420
15104000
  6
Continuous
370
-3
390
13
347
21
  0
LAYER
  5
3C
330
1
100
AcDbSymbolTableRecord
100
AcDbLayerTableRecord
  2
Opening
 70
0
 62
8
420
38470
  6
Continuous
370
-3
390
13
347
21
  0
LAYER
  5
3D
330
1
100
AcDbSymbolTableRecord
100
AcDbLayerTableRecord
  2
geometry
 70
0
 62
8
  6
Continuous
370
-3
390
13
347
21
  0
ENDTAB
  0
TABLE
  2
STYLE
  5
5
330
0
100
AcDbSymbolTable
 70
1
  0
STYLE
  5
29
330
5
100
AcDbSymbolTableRecord
100
AcDbTextStyleTableRecord
  2
Standard
 70
0
 40
0.0
 41
1.0
 50
0.0
 71
0
 42
2.5
  3
txt
  4

  0
ENDTAB
  0
TABLE
  2
VIEW
  5
7
330
0
100
AcDbSymbolTable
 70
0
  0
ENDTAB
  0
TABLE
  2
UCS
  5
6
330
0
100
AcDbSymbolTable
 70
0
  0
ENDTAB
  0
TABLE
  2
APPID
  5
3
330
0
100
AcDbSymbolTable
 70
3
  0
APPID
  5
2A
330
3
100
AcDbSymbolTableRecord
100
AcDbRegAppTableRecord
  2
ACAD
 70
0
  0
APPID
  5
13B
330
3
100
AcDbSymbolTableRecord
100
AcDbRegAppTableRecord
  2
HATCHBACKGROUNDCOLOR
 70
0
  0
APPID
  5
13C
330
3
100
AcDbSymbolTableRecord
100
AcDbRegAppTableRecord
  2
EZDXF
 70
0
  0
ENDTAB
  0
TABLE
  2
DIMSTYLE
  5
4
330
0
100
AcDbSymbolTable
 70
1
100
AcDbDimStyleTable
  0
DIMSTYLE
105
2B
330
4
100
AcDbSymbolTableRecord
100
AcDbDimStyleTableRecord
  2
Standard
 70
0
 40
1.0
 41
2.5
 42
0.625
 43
3.75
 44
1.25
 45
0.0
 46
0.0
 47
0.0
 48
0.0
 49
2.5
140
2.5
141
2.5
142
0.0
143
0.03937007874
144
1.0
145
0.0
146
1.0
147
0.625
148
0.0
 69
0
 70
0
 71
0
 72
0
 73
0
 74
0
 75
0
 76
0
 77
1
 78
8
 79
3
170
0
171
3
172
1
173
0
174
0
175
0
176
0
177
0
178
0
179
2
271
2
272
2
273
2
274
3
275
0
276
0
277
2
278
44
279
0
280
0
281
0
282
0
283
0
284
8
285
0
286
0
288
0
289
3
290
0
371
-2
372
-2
  0
ENDTAB
  0
TABLE
  2
BLOCK_RECORD
  5
9
330
0
100
AcDbSymbolTable
 70
2
  0
BLOCK_RECORD
  5
17
330
9
100
AcDbSymbolTableRecord
100
AcDbBlockTableRecord
  2
*Model_Space
340
1A
 70
0
280
1
281
0
  0
BLOCK_RECORD
  5
1B
330
9
100
AcDbSymbolTableRecord
100
AcDbBlockTableRecord
  2
*Paper_Space
340
1E
 70
0
280
1
281
0
  0
ENDTAB
  0
ENDSEC
  0
SECTION
  2
BLOCKS
  0
BLOCK
  5
18
330
17
100
AcDbEntity
  8
0
100
AcDbBlockBegin
  2
*Model_Space
 70
0
 10
0.0
 20
0.0
 30
0.0
  3
*Model_Space
  1

  0
ENDBLK
  5
19
330
17
100
AcDbEntity
  8
0
100
AcDbBlockEnd
  0
BLOCK
  5
1C
330
1B
100
AcDbEntity
  8
0
100
AcDbBlockBegin
  2
*Paper_Space
 70
0
 10
0.0
 20
0.0
 30
0.0
  3
*Paper_Space
  1

  0
ENDBLK
  5
1D
330
1B
100
AcDbEntity
  8
0
100
AcDbBlockEnd
  0
ENDSEC
  0
SECTION
  2
ENTITIES
  0
LWPOLYLINE
  5
3F
330
17
100
AcDbEntity
  8
geometry
  6
HIDDEN
100
AcDbPolyline
 90
2
 70
0
 10
367.7382799468
 20
180.8144613963
 42
0.9999999999999999
 10
362.7382799468
 20
180.8144613963
  0
LWPOLYLINE
  5
40
330
17
100
AcDbEntity
  8
geometry
  6
HIDDEN
100
AcDbPolyline
 90
2
 70
0
 10
364.5912323340437
 20
178.39964683057732
 42
0.493145426031304
 10
367.7382799468
 20
180.8144613963
  0
LWPOLYLINE
  5
41
330
17
100
AcDbEntity
  8
geometry
  6
HIDDEN
100
AcDbPolyline
 90
2
 70
0
 10
362.7382799468
 20
180.8144613963
 42
0.06554346281523826
 10
362.8234653810773
 20
180.1674137835437
  0
LWPOLYLINE
  5
42
330
17
100
AcDbEntity
  8
geometry
  6
HIDDEN
100
AcDbPolyline
 90
2
 70
0
 10
367.7382799468
 20
160.8144613963
 42
0.9999999999999999
 10
362.7382799468
 20
160.8144613963
  0
LWPOLYLINE
  5
43
330
17
100
AcDbEntity
  8
geometry
  6
HIDDEN
100
AcDbPolyline
 90
2
 70
0
 10
364.5912323340437
 20
158.39964683057732
 42
0.493145426031304
 10
367.7382799468
 20
160.8144613963
  0
LWPOLYLINE
  5
44
330
17
100
AcDbEntity
  8
geometry
  6
HIDDEN
100
AcDbPolyline
 90
2
 70
0
 10
362.7382799468
 20
160.8144613963
 42
0.06554346281523826
 10
362.8234653810773
 20
160.1674137835437
  0
LWPOLYLINE
  5
45
330
17
100
AcDbEntity
  8
geometry
  6
HIDDEN
100
AcDbPolyline
 90
2
 70
0
 10
327.7382799468
 20
180.8144613963
 42
0.9999999999999999
 10
322.7382799468
 20
180.8144613963
  0
LWPOLYLINE
  5
46
330
17
100
AcDbEntity
  8
geometry
  6
HIDDEN
100
AcDbPolyline
 90
2
 70
0
 10
324.5912323340437
 20
178.39964683057732
 42
0.493145426031304
 10
327.7382799468
 20
180.8144613963
  0
LWPOLYLINE
  5
47
330
17
100
AcDbEntity
  8
geometry
  6
HIDDEN
100
AcDbPolyline
 90
2
 70
0
 10
322.7382799468
 20
180.8144613963
 42
0.06554346281523826
 10
322.8234653810773
 20
180.1674137835437
  0
LWPOLYLINE
  5
48
330
17
100
AcDbEntity
  8
geometry
  6
HIDDEN
100
AcDbPolyline
 90
2
 70
0
 10
327.7382799468
 20
160.8144613963
 42
0.9999999999999999
 10
322.7382799468
 20
160.8144613963
  0
LWPOLYLINE
  5
49
330
17
100
AcDbEntity
  8
geometry
  6
HIDDEN
100
AcDbPolyline
 90
2
 70
0
 10
324.5912323340437
 20
158.39964683057732
 42
0.493145426031304
 10
327.7382799468
 20
160.8144613963
  0
LWPOLYLINE
  5
4A
330
17
100
AcDbEntity
  8
geometry
  6
HIDDEN
100
AcDbPolyline
 90
2
 70
0
 10
322.7382799468
 20
160.8144613963
 42
0.06554346281523826
 10
322.8234653810773
 20
160.1674137835437
  0
LWPOLYLINE
  5
4B
330
17
100
AcDbEntity
  8
geometry
  6
CONTINUOUS
100
AcDbPolyline
 90
2
 70
0
 10
367.7382799468
 20
180.8144613963
 42
0.9999999999999999
 10
362.7382799468
 20
180.8144613963
  0
LWPOLYLINE
  5
4C
330
17
100
AcDbEntity
  8
geometry
  6
CONTINUOUS
100
AcDbPolyline
 90
2
 70
0
 10
364.5912323340437
 20
178.39964683057732
 42
0.493145426031304
 10
367.7382799468
 20
180.8144613963
  0
LWPOLYLINE
  5
4D
330
17
100
AcDbEntity
  8
geometry
  6
CONTINUOUS
100
AcDbPolyline
 90
2
 70
0
 10
362.7382799468
 20
180.8144613963
 42
0.06554346281523826
 10
362.8234653810773
 20
180.1674137835437
  0
LWPOLYLINE
  5
4E
330
17
100
AcDbEntity
  8
geometry
  6
CONTINUOUS
100
AcDbPolyline
 90
2
 70
0
 10
367.7382799468
 20
160.8144613963
 42
0.9999999999999999
 10
362.7382799468
 20
160.8144613963
  0
LWPOLYLINE
  5
4F
330
17
100
AcDbEntity
  8
geometry
  6
CONTINUOUS
100
AcDbPolyline
 90
2
 70
0
 10
364.5912323340437
 20
158.39964683057732
 42
0.493145426031304
 10
367.7382799468
 20
160.8144613963
  0
LWPOLYLINE
  5
50
330
17
100
AcDbEntity
  8
geometry
  6
CONTINUOUS
100
AcDbPolyline
 90
2
 70
0
 10
362.7382799468
 20
160.8144613963
 42
0.06554346281523826
 10
362.8234653810773
 20
160.1674137835437
  0
LWPOLYLINE
  5
51
330
17
100
AcDbEntity
  8
geometry
  6
CONTINUOUS
100
AcDbPolyline
 90
2
 70
0
 10
327.7382799468
 20
180.8144613963
 42
0.9999999999999999
 10
322.7382799468
 20
180.8144613963
  0
LWPOLYLINE
  5
52
330
17
100
AcDbEntity
  8
geometry
  6
CONTINUOUS
100
AcDbPolyline
 90
2
 70
0
 10
324.5912323340437
 20
178.39964683057732
 42
0.493145426031304
 10
327.7382799468
 20
180.8144613963
  0
LWPOLYLINE
  5
53
330
17
100
AcDbEntity
  8
geometry
  6
CONTINUOUS
100
AcDbPolyline
 90
2
 70
0
 10
322.7382799468
 20
180.8144613963
 42
0.06554346281523826
 10
322.8234653810773
 20
180.1674137835437
  0
LWPOLYLINE
  5
54
330
17
100
AcDbEntity
  8
geometry
  6
CONTINUOUS
100
AcDbPolyline
 90
2
 70
0
 10
327.7382799468
 20
160.8144613963
 42
0.9999999999999999
 10
322.7382799468
 20
160.8144613963
  0
LWPOLYLINE
  5
55
330
17
100
AcDbEntity
  8
geometry
  6
CONTINUOUS
100
AcDbPolyline
 90
2
 70
0
 10
324.5912323340437
 20
158.39964683057732
 42
0.493145426031304
 10
327.7382799468
 20
160.8144613963
  0
LWPOLYLINE
  5
56
330
17
100
AcDbEntity
  8
geometry
  6
CONTINUOUS
100
AcDbPolyline
 90
2
 70
0
 10
322.7382799468
 20
160.8144613963
 42
0.06554346281523826
 10
322.8234653810773
 20
160.1674137835437
  0
LWPOLYLINE
  5
57
330
17
100
AcDbEntity
  8
geometry
  6
CONTINUOUS
100
AcDbPolyline
 90
2
 70
0
 10
304.2382799468
 20
155.8144613963
 42
0.41421356237309503
 10
299.2382799468
 20
160.8144613963
  0
LWPOLYLINE
  5
58
330
17
100
AcDbEntity
  8
geometry
  6
CONTINUOUS
100
AcDbPolyline
 90
2
 70
0
 10
319.2382799468
 20
215.8144613963
 42
0.41421356237309503
 10
324.2382799468
 20
220.8144613963
  0
LWPOLYLINE
  5
59
330
17
100
AcDbEntity
  8
geometry
  6
CONTINUOUS
100
AcDbPolyline
 90
2
 70
0
 10
264.2382799468
 20
160.8144613963
 10
299.2382799468
 20
160.8144613963
  0
LWPOLYLINE
  5
5A
330
17
100
AcDbEntity
  8
geometry
  6
CONTINUOUS
100
AcDbPolyline
 90
2
 70
0
 10
304.2382799468
 20
135.8144613963
 10
304.2382799468
 20
155.8144613963
  0
LWPOLYLINE
  5
5B
330
17
100
AcDbEntity
  8
geometry
  6
CONTINUOUS
100
AcDbPolyline
 90
2
 70
0
 10
304.2382799468
 20
135.8144613963
 42
0.41421356237309503
 10
309.2382799468
 20
130.8144613963
  0
LWPOLYLINE
  5
5C
330
17
100
AcDbEntity
  8
geometry
  6
CONTINUOUS
100
AcDbPolyline
 90
2
 70
0
 10
309.2382799468
 20
130.8144613963
 10
369.2382799468
 20
130.8144613963
  0
LWPOLYLINE
  5
5D
330
17
100
AcDbEntity
  8
geometry
  6
CONTINUOUS
100
AcDbPolyline
 90
2
 70
0
 10
369.2382799468
 20
130.8144613963
 42
0.41421356237309503
 10
374.2382799468
 20
135.8144613963
  0
LWPOLYLINE
  5
5E
330
17
100
AcDbEntity
  8
geometry
  6
CONTINUOUS
100
AcDbPolyline
 90
2
 70
0
 10
374.2382799468
 20
135.8144613963
 10
374.2382799468
 20
245.8144613963
  0
LWPOLYLINE
  5
5F
330
17
100
AcDbEntity
  8
geometry
  6
CONTINUOUS
100
AcDbPolyline
 90
2
 70
0
 10
374.2382799468
 20
245.8144613963
 42
0.41421356237309503
 10
369.2382799468
 20
250.8144613963
  0
LWPOLYLINE
  5
60
330
17
100
AcDbEntity
  8
geometry
  6
CONTINUOUS
100
AcDbPolyline
 90
2
 70
0
 10
369.2382799468
 20
250.8144613963
 10
329.2382799468
 20
250.8144613963
  0
LWPOLYLINE
  5
61
330
17
100
AcDbEntity
  8
geometry
  6
CONTINUOUS
100
AcDbPolyline
 90
2
 70
0
 10
329.2382799468
 20
250.8144613963
 42
0.41421356237309503
 10
324.2382799468
 20
245.8144613963
  0
LWPOLYLINE
  5
62
330
17
100
AcDbEntity
  8
geometry
  6
CONTINUOUS
100
AcDbPolyline
 90
2
 70
0
 10
324.2382799468
 20
245.8144613963
 10
324.2382799468
 20
220.8144613963
  0
LWPOLYLINE
  5
63
330
17
100
AcDbEntity
  8
geometry
  6
CONTINUOUS
100
AcDbPolyline
 90
2
 70
0
 10
264.2382799468
 20
215.8144613963
 10
319.2382799468
 20
215.8144613963
  0
LWPOLYLINE
  5
64
330
17
100
AcDbEntity
  8
geometry
  6
CONTINUOUS
100
AcDbPolyline
 90
2
 70
0
 10
264.2382799468
 20
215.8144613963
 42
0.41421356237309503
 10
259.2382799468
 20
210.8144613963
  0
LWPOLYLINE
  5
65
330
17
100
AcDbEntity
  8
geometry
  6
CONTINUOUS
100
AcDbPolyline
 90
2
 70
0
 10
267.9882799468
 20
205.8144613963
 42
0.9999999999999999
 10
274.4882799468
 20
205.8144613963
  0
LWPOLYLINE
  5
66
330
17
100
AcDbEntity
  8
geometry
  6
CONTINUOUS
100
AcDbPolyline
 90
2
 70
0
 10
274.4882799468
 20
205.8144613963
 42
0.9999999999999999
 10
267.9882799468
 20
205.8144613963
  0
LWPOLYLINE
  5
67
330
17
100
AcDbEntity
  8
geometry
  6
CONTINUOUS
100
AcDbPolyline
 90
2
 70
0
 10
267.9882799468
 20
175.8144613963
 42
0.9999999999999999
 10
274.4882799468
 20
175.8144613963
  0
LWPOLYLINE
  5
68
330
17
100
AcDbEntity
  8
geometry
  6
CONTINUOUS
100
AcDbPolyline
 90
2
 70
0
 10
274.4882799468
 20
175.8144613963
 42
0.9999999999999999
 10
267.9882799468
 20
175.8144613963
  0
LWPOLYLINE
  5
69
330
17
100
AcDbEntity
  8
geometry
  6
CONTINUOUS
100
AcDbPolyline
 90
2
 70
0
 10
323.1732799468
 20
160.8144613963
 42
0.9999999999999999
 10
327.3032799468
 20
160.8144613963
  0
LWPOLYLINE
  5
6A
330
17
100
AcDbEntity
  8
geometry
  6
CONTINUOUS
100
AcDbPolyline
 90
2
 70
0
 10
327.3032799468
 20
160.8144613963
 42
0.9999999999999999
 10
323.1732799468
 20
160.8144613963
  0
LWPOLYLINE
  5
6B
330
17
100
AcDbEntity
  8
geometry
  6
CONTINUOUS
100
AcDbPolyline
 90
2
 70
0
 10
323.1732799468
 20
180.8144613963
 42
0.9999999999999999
 10
327.3032799468
 20
180.8144613963
  0
LWPOLYLINE
  5
6C
330
17
100
AcDbEntity
  8
geometry
  6
CONTINUOUS
100
AcDbPolyline
 90
2
 70
0
 10
327.3032799468
 20
180.8144613963
 42
0.9999999999999999
 10
323.1732799468
 20
180.8144613963
  0
LWPOLYLINE
  5
6D
330
17
100
AcDbEntity
  8
geometry
  6
CONTINUOUS
100
AcDbPolyline
 90
2
 70
0
 10
363.1732799468
 20
160.8144613963
 42
0.9999999999999999
 10
367.3032799468
 20
160.8144613963
  0
LWPOLYLINE
  5
6E
330
17
100
AcDbEntity
  8
geometry
  6
CONTINUOUS
100
AcDbPolyline
 90
2
 70
0
 10
367.3032799468
 20
160.8144613963
 42
0.9999999999999999
 10
363.1732799468
 20
160.8144613963
  0
LWPOLYLINE
  5
6F
330
17
100
AcDbEntity
  8
geometry
  6
CONTINUOUS
100
AcDbPolyline
 90
2
 70
0
 10
363.1732799468
 20
180.8144613963
 42
0.9999999999999999
 10
367.3032799468
 20
180.8144613963
  0
LWPOLYLINE
  5
70
330
17
100
AcDbEntity
  8
geometry
  6
CONTINUOUS
100
AcDbPolyline
 90
2
 70
0
 10
367.3032799468
 20
180.8144613963
 42
0.9999999999999999
 10
363.1732799468
 20
180.8144613963
  0
LWPOLYLINE
  5
71
330
17
100
AcDbEntity
  8
geometry
  6
CONTINUOUS
100
AcDbPolyline
 90
2
 70
0
 10
356.9882799468
 20
236.5644613963
 42
0.9999999999999999
 10
356.9882799468
 20
245.0644613963
  0
LWPOLYLINE
  5
72
330
17
100
AcDbEntity
  8
geometry
  6
CONTINUOUS
100
AcDbPolyline
 90
2
 70
0
 10
356.9882799468
 20
245.0644613963
 10
345.4882799468
 20
245.0644613963
  0
LWPOLYLINE
  5
73
330
17
100
AcDbEntity
  8
geometry
  6
CONTINUOUS
100
AcDbPolyline
 90
2
 70
0
 10
345.4882799468
 20
245.0644613963
 42
0.9999999999999999
 10
345.4882799468
 20
236.5644613963
  0
LWPOLYLINE
  5
74
330
17
100
AcDbEntity
  8
geometry
  6
CONTINUOUS
100
AcDbPolyline
 90
2
 70
0
 10
345.4882799468
 20
236.5644613963
 10
356.9882799468
 20
236.5644613963
  0
LWPOLYLINE
  5
75
330
17
100
AcDbEntity
  8
geometry
  6
CONTINUOUS
100
AcDbPolyline
 90
2
 70
0
 10
356.9882799468
 20
136.5644613963
 42
0.9999999999999999
 10
356.9882799468
 20
145.0644613963
  0
LWPOLYLINE
  5
76
330
17
100
AcDbEntity
  8
geometry
  6
CONTINUOUS
100
AcDbPolyline
 90
2
 70
0
 10
356.9882799468
 20
145.0644613963
 10
345.4882799468
 20
145.0644613963
  0
LWPOLYLINE
  5
77
330
17
100
AcDbEntity
  8
geometry
  6
CONTINUOUS
100
AcDbPolyline
 90
2
 70
0
 10
345.4882799468
 20
145.0644613963
 42
0.9999999999999999
 10
345.4882799468
 20
136.5644613963
  0
LWPOLYLINE
  5
78
330
17
100
AcDbEntity
  8
geometry
  6
CONTINUOUS
100
AcDbPolyline
 90
2
 70
0
 10
345.4882799468
 20
136.5644613963
 10
356.9882799468
 20
136.5644613963
  0
LWPOLYLINE
  5
79
330
17
100
AcDbEntity
  8
geometry
  6
CONTINUOUS
100
AcDbPolyline
 90
2
 70
0
 10
281.7382799468
 20
165.8144613963
 42
0.9999999999999999
 10
284.7382799468
 20
165.8144613963
  0
LWPOLYLINE
  5
7A
330
17
100
AcDbEntity
  8
geometry
  6
CONTINUOUS
100
AcDbPolyline
 90
2
 70
0
 10
284.7382799468
 20
165.8144613963
 42
0.9999999999999999
 10
281.7382799468
 20
165.8144613963
  0
LWPOLYLINE
  5
7B
330
17
100
AcDbEntity
  8
geometry
  6
CONTINUOUS
100
AcDbPolyline
 90
2
 70
0
 10
276.7382799468
 20
165.8144613963
 42
0.9999999999999999
 10
279.7382799468
 20
165.8144613963
  0
LWPOLYLINE
  5
7C
330
17
100
AcDbEntity
  8
geometry
  6
CONTINUOUS
100
AcDbPolyline
 90
2
 70
0
 10
279.7382799468
 20
165.8144613963
 42
0.9999999999999999
 10
276.7382799468
 20
165.8144613963
  0
LWPOLYLINE
  5
7D
330
17
100
AcDbEntity
  8
geometry
  6
CONTINUOUS
100
AcDbPolyline
 90
2
 70
0
 10
259.2382799468
 20
165.8144613963
 42
0.41421356237309503
 10
264.2382799468
 20
160.8144613963
  0
LWPOLYLINE
  5
7E
330
17
100
AcDbEntity
  8
geometry
  6
CONTINUOUS
100
AcDbPolyline
 90
2
 70
0
 10
259.2382799468
 20
210.8144613963
 10
259.2382799468
 20
165.8144613963
  0
LWPOLYLINE
  5
7F
330
17
100
AcDbEntity
  8
geometry
  6
HIDDEN
100
AcDbPolyline
 90
2
 70
0
 10
212.7696961702
 20
167.3144613963
 10
204.7696961702
 20
167.3144613963
  0
LWPOLYLINE
  5
80
330
17
100
AcDbEntity
  8
geometry
  6
HIDDEN
100
AcDbPolyline
 90
2
 70
0
 10
212.7696961702
 20
164.3144613963
 10
204.7696961702
 20
164.3144613963
  0
LWPOLYLINE
  5
81
330
17
100
AcDbEntity
  8
geometry
  6
HIDDEN
100
AcDbPolyline
 90
2
 70
0
 10
204.7696961702
 20
136.5644613963
 10
212.7696961702
 20
136.5644613963
  0
LWPOLYLINE
  5
82
330
17
100
AcDbEntity
  8
geometry
  6
HIDDEN
100
AcDbPolyline
 90
2
 70
0
 10
204.7696961702
 20
145.0644613963
 10
212.7696961702
 20
145.0644613963
  0
LWPOLYLINE
  5
83
330
17
100
AcDbEntity
  8
geometry
  6
HIDDEN
100
AcDbPolyline
 90
2
 70
0
 10
204.7696961702
 20
236.5644613963
 10
212.7696961702
 20
236.5644613963
  0
LWPOLYLINE
  5
84
330
17
100
AcDbEntity
  8
geometry
  6
HIDDEN
100
AcDbPolyline
 90
2
 70
0
 10
204.7696961702
 20
245.0644613963
 10
212.7696961702
 20
245.0644613963
  0
LWPOLYLINE
  5
85
330
17
100
AcDbEntity
  8
geometry
  6
HIDDEN
100
AcDbPolyline
 90
2
 70
0
 10
212.7696961702
 20
215.8144613963
 10
204.7696961702
 20
215.8144613963
  0
LWPOLYLINE
  5
86
330
17
100
AcDbEntity
  8
geometry
  6
HIDDEN
100
AcDbPolyline
 90
2
 70
0
 10
204.7696961702
 20
182.8794613963
 10
212.7696961702
 20
182.8794613963
  0
LWPOLYLINE
  5
87
330
17
100
AcDbEntity
  8
geometry
  6
HIDDEN
100
AcDbPolyline
 90
2
 70
0
 10
204.7696961702
 20
178.7494613963
 10
212.7696961702
 20
178.7494613963
  0
LWPOLYLINE
  5
88
330
17
100
AcDbEntity
  8
geometry
  6
HIDDEN
100
AcDbPolyline
 90
2
 70
0
 10
204.7696961702
 20
162.8794613963
 10
212.7696961702
 20
162.8794613963
  0
LWPOLYLINE
  5
89
330
17
100
AcDbEntity
  8
geometry
  6
HIDDEN
100
AcDbPolyline
 90
2
 70
0
 10
204.7696961702
 20
158.7494613963
 10
212.7696961702
 20
158.7494613963
  0
LWPOLYLINE
  5
8A
330
17
100
AcDbEntity
  8
geometry
  6
HIDDEN
100
AcDbPolyline
 90
2
 70
0
 10
204.7696961702
 20
162.8794613963
 10
212.7696961702
 20
162.8794613963
  0
LWPOLYLINE
  5
8B
330
17
100
AcDbEntity
  8
geometry
  6
HIDDEN
100
AcDbPolyline
 90
2
 70
0
 10
204.7696961702
 20
158.7494613963
 10
212.7696961702
 20
158.7494613963
  0
LWPOLYLINE
  5
8C
330
17
100
AcDbEntity
  8
geometry
  6
HIDDEN
100
AcDbPolyline
 90
2
 70
0
 10
204.7696961702
 20
209.0644613963
 10
212.7696961702
 20
209.0644613963
  0
LWPOLYLINE
  5
8D
330
17
100
AcDbEntity
  8
geometry
  6
HIDDEN
100
AcDbPolyline
 90
2
 70
0
 10
204.7696961702
 20
202.5644613963
 10
212.7696961702
 20
202.5644613963
  0
LWPOLYLINE
  5
8E
330
17
100
AcDbEntity
  8
geometry
  6
HIDDEN
100
AcDbPolyline
 90
2
 70
0
 10
204.7696961702
 20
179.0644613963
 10
212.7696961702
 20
179.0644613963
  0
LWPOLYLINE
  5
8F
330
17
100
AcDbEntity
  8
geometry
  6
HIDDEN
100
AcDbPolyline
 90
2
 70
0
 10
204.7696961702
 20
172.5644613963
 10
212.7696961702
 20
172.5644613963
  0
LWPOLYLINE
  5
90
330
17
100
AcDbEntity
  8
geometry
  6
HIDDEN
100
AcDbPolyline
 90
2
 70
0
 10
212.7696961702
 20
183.3144613963
 10
212.7696961702
 20
180.814461287
  0
LWPOLYLINE
  5
91
330
17
100
AcDbEntity
  8
geometry
  6
HIDDEN
100
AcDbPolyline
 90
2
 70
0
 10
212.7696961702
 20
205.8144613963
 10
212.7696961702
 20
209.0644613963
  0
LWPOLYLINE
  5
92
330
17
100
AcDbEntity
  8
geometry
  6
HIDDEN
100
AcDbPolyline
 90
2
 70
0
 10
212.7696961702
 20
160.8144613963
 10
212.7696961702
 20
158.7494613963
  0
LWPOLYLINE
  5
93
330
17
100
AcDbEntity
  8
geometry
  6
HIDDEN
100
AcDbPolyline
 90
2
 70
0
 10
212.7696961702
 20
180.8144613963
 10
212.7696961702
 20
178.7494613963
  0
LWPOLYLINE
  5
94
330
17
100
AcDbEntity
  8
geometry
  6
HIDDEN
100
AcDbPolyline
 90
2
 70
0
 10
204.7696961702
 20
183.3144613963
 10
204.7696961702
 20
180.814461287
  0
LWPOLYLINE
  5
95
330
17
100
AcDbEntity
  8
geometry
  6
HIDDEN
100
AcDbPolyline
 90
2
 70
0
 10
212.7696961702
 20
160.8144613963
 10
212.7696961702
 20
158.7494613963
  0
LWPOLYLINE
  5
96
330
17
100
AcDbEntity
  8
geometry
  6
HIDDEN
100
AcDbPolyline
 90
2
 70
0
 10
204.7696961702
 20
183.3144613963
 10
212.7696961702
 20
183.3144613963
  0
LWPOLYLINE
  5
97
330
17
100
AcDbEntity
  8
geometry
  6
HIDDEN
100
AcDbPolyline
 90
2
 70
0
 10
212.7696961702
 20
178.3144613963
 10
212.7696961702
 20
180.8144615056
  0
LWPOLYLINE
  5
98
330
17
100
AcDbEntity
  8
geometry
  6
HIDDEN
100
AcDbPolyline
 90
2
 70
0
 10
212.7696961702
 20
175.8144613963
 10
212.7696961702
 20
178.6290439586
  0
LWPOLYLINE
  5
99
330
17
100
AcDbEntity
  8
geometry
  6
HIDDEN
100
AcDbPolyline
 90
2
 70
0
 10
212.7696961702
 20
178.6290439586
 10
212.7696961702
 20
179.0644613963
  0
LWPOLYLINE
  5
9A
330
17
100
AcDbEntity
  8
geometry
  6
HIDDEN
100
AcDbPolyline
 90
2
 70
0
 10
204.7696961702
 20
178.3144613963
 10
204.7696961702
 20
180.8144615056
  0
LWPOLYLINE
  5
9B
330
17
100
AcDbEntity
  8
geometry
  6
HIDDEN
100
AcDbPolyline
 90
2
 70
0
 10
204.7696961702
 20
178.3144613963
 10
212.7696961702
 20
178.3144613963
  0
LWPOLYLINE
  5
9C
330
17
100
AcDbEntity
  8
geometry
  6
HIDDEN
100
AcDbPolyline
 90
2
 70
0
 10
212.7696961702
 20
163.3144613963
 10
212.7696961702
 20
160.814461287
  0
LWPOLYLINE
  5
9D
330
17
100
AcDbEntity
  8
geometry
  6
HIDDEN
100
AcDbPolyline
 90
2
 70
0
 10
204.7696961702
 20
163.3144613963
 10
204.7696961702
 20
160.814461287
  0
LWPOLYLINE
  5
9E
330
17
100
AcDbEntity
  8
geometry
  6
HIDDEN
100
AcDbPolyline
 90
2
 70
0
 10
212.7696961702
 20
165.8144613963
 10
212.7696961702
 20
164.3144613963
  0
LWPOLYLINE
  5
9F
330
17
100
AcDbEntity
  8
geometry
  6
HIDDEN
100
AcDbPolyline
 90
2
 70
0
 10
204.7696961702
 20
163.3144613963
 10
212.7696961702
 20
163.3144613963
  0
LWPOLYLINE
  5
A0
330
17
100
AcDbEntity
  8
geometry
  6
HIDDEN
100
AcDbPolyline
 90
2
 70
0
 10
212.7696961702
 20
158.3144613963
 10
212.7696961702
 20
160.8144615056
  0
LWPOLYLINE
  5
A1
330
17
100
AcDbEntity
  8
geometry
  6
HIDDEN
100
AcDbPolyline
 90
2
 70
0
 10
204.7696961702
 20
158.3144613963
 10
204.7696961702
 20
160.8144615056
  0
LWPOLYLINE
  5
A2
330
17
100
AcDbEntity
  8
geometry
  6
HIDDEN
100
AcDbPolyline
 90
2
 70
0
 10
204.7696961702
 20
158.3144613963
 10
212.7696961702
 20
158.3144613963
  0
LWPOLYLINE
  5
A3
330
17
100
AcDbEntity
  8
geometry
  6
HIDDEN
100
AcDbPolyline
 90
2
 70
0
 10
204.7696961702
 20
205.8144613963
 10
204.7696961702
 20
209.0644613963
  0
LWPOLYLINE
  5
A4
330
17
100
AcDbEntity
  8
geometry
  6
HIDDEN
100
AcDbPolyline
 90
2
 70
0
 10
204.7696961702
 20
175.8144613963
 10
204.7696961702
 20
178.3144613963
  0
LWPOLYLINE
  5
A5
330
17
100
AcDbEntity
  8
geometry
  6
HIDDEN
100
AcDbPolyline
 90
2
 70
0
 10
204.7696961702
 20
178.3144613963
 10
204.7696961702
 20
178.6290439586
  0
LWPOLYLINE
  5
A6
330
17
100
AcDbEntity
  8
geometry
  6
HIDDEN
100
AcDbPolyline
 90
2
 70
0
 10
204.7696961702
 20
178.6290439586
 10
204.7696961702
 20
179.0644613963
  0
LWPOLYLINE
  5
A7
330
17
100
AcDbEntity
  8
geometry
  6
HIDDEN
100
AcDbPolyline
 90
2
 70
0
 10
204.7696961702
 20
160.8144613963
 10
204.7696961702
 20
158.7494613963
  0
LWPOLYLINE
  5
A8
330
17
100
AcDbEntity
  8
geometry
  6
HIDDEN
100
AcDbPolyline
 90
2
 70
0
 10
204.7696961702
 20
180.8144613963
 10
204.7696961702
 20
178.7494613963
  0
LWPOLYLINE
  5
A9
330
17
100
AcDbEntity
  8
geometry
  6
HIDDEN
100
AcDbPolyline
 90
2
 70
0
 10
204.7696961702
 20
160.8144613963
 10
204.7696961702
 20
158.7494613963
  0
LWPOLYLINE
  5
AA
330
17
100
AcDbEntity
  8
geometry
  6
HIDDEN
100
AcDbPolyline
 90
2
 70
0
 10
204.7696961702
 20
130.8144613963
 10
212.7696961702
 20
130.8144613963
  0
LWPOLYLINE
  5
AB
330
17
100
AcDbEntity
  8
geometry
  6
HIDDEN
100
AcDbPolyline
 90
2
 70
0
 10
204.7696961702
 20
165.8144613963
 10
204.7696961702
 20
164.3144613963
  0
LWPOLYLINE
  5
AC
330
17
100
AcDbEntity
  8
geometry
  6
HIDDEN
100
AcDbPolyline
 90
2
 70
0
 10
204.7696961702
 20
167.3144613963
 10
204.7696961702
 20
165.8144613963
  0
LWPOLYLINE
  5
AD
330
17
100
AcDbEntity
  8
geometry
  6
HIDDEN
100
AcDbPolyline
 90
2
 70
0
 10
212.7696961702
 20
167.3144613963
 10
212.7696961702
 20
165.8144613963
  0
LWPOLYLINE
  5
AE
330
17
100
AcDbEntity
  8
geometry
  6
HIDDEN
100
AcDbPolyline
 90
2
 70
0
 10
212.7696961702
 20
136.5644613963
 10
212.7696961702
 20
145.0644613963
  0
LWPOLYLINE
  5
AF
330
17
100
AcDbEntity
  8
geometry
  6
HIDDEN
100
AcDbPolyline
 90
2
 70
0
 10
204.7696961702
 20
136.5644613963
 10
204.7696961702
 20
145.0644613963
  0
LWPOLYLINE
  5
B0
330
17
100
AcDbEntity
  8
geometry
  6
HIDDEN
100
AcDbPolyline
 90
2
 70
0
 10
212.7696961702
 20
236.5644613963
 10
212.7696961702
 20
245.0644613963
  0
LWPOLYLINE
  5
B1
330
17
100
AcDbEntity
  8
geometry
  6
HIDDEN
100
AcDbPolyline
 90
2
 70
0
 10
204.7696961702
 20
236.5644613963
 10
204.7696961702
 20
245.0644613963
  0
LWPOLYLINE
  5
B2
330
17
100
AcDbEntity
  8
geometry
  6
HIDDEN
100
AcDbPolyline
 90
2
 70
0
 10
212.7696961702
 20
250.8144613963
 10
204.7696961702
 20
250.8144613963
  0
LWPOLYLINE
  5
B3
330
17
100
AcDbEntity
  8
geometry
  6
HIDDEN
100
AcDbPolyline
 90
2
 70
0
 10
212.7696961702
 20
182.8794613963
 10
212.7696961702
 20
180.8144613963
  0
LWPOLYLINE
  5
B4
330
17
100
AcDbEntity
  8
geometry
  6
HIDDEN
100
AcDbPolyline
 90
2
 70
0
 10
204.7696961702
 20
182.8794613963
 10
204.7696961702
 20
180.8144613963
  0
LWPOLYLINE
  5
B5
330
17
100
AcDbEntity
  8
geometry
  6
HIDDEN
100
AcDbPolyline
 90
2
 70
0
 10
212.7696961702
 20
162.8794613963
 10
212.7696961702
 20
160.8144613963
  0
LWPOLYLINE
  5
B6
330
17
100
AcDbEntity
  8
geometry
  6
HIDDEN
100
AcDbPolyline
 90
2
 70
0
 10
204.7696961702
 20
162.8794613963
 10
204.7696961702
 20
160.8144613963
  0
LWPOLYLINE
  5
B7
330
17
100
AcDbEntity
  8
geometry
  6
HIDDEN
100
AcDbPolyline
 90
2
 70
0
 10
212.7696961702
 20
162.8794613963
 10
212.7696961702
 20
160.8144613963
  0
LWPOLYLINE
  5
B8
330
17
100
AcDbEntity
  8
geometry
  6
HIDDEN
100
AcDbPolyline
 90
2
 70
0
 10
204.7696961702
 20
162.8794613963
 10
204.7696961702
 20
160.8144613963
  0
LWPOLYLINE
  5
B9
330
17
100
AcDbEntity
  8
geometry
  6
HIDDEN
100
AcDbPolyline
 90
2
 70
0
 10
212.7696961702
 20
202.5644613963
 10
212.7696961702
 20
205.8144613963
  0
LWPOLYLINE
  5
BA
330
17
100
AcDbEntity
  8
geometry
  6
HIDDEN
100
AcDbPolyline
 90
2
 70
0
 10
204.7696961702
 20
202.5644613963
 10
204.7696961702
 20
205.8144613963
  0
LWPOLYLINE
  5
BB
330
17
100
AcDbEntity
  8
geometry
  6
HIDDEN
100
AcDbPolyline
 90
2
 70
0
 10
212.7696961702
 20
172.5644613963
 10
212.7696961702
 20
175.8144613963
  0
LWPOLYLINE
  5
BC
330
17
100
AcDbEntity
  8
geometry
  6
HIDDEN
100
AcDbPolyline
 90
2
 70
0
 10
204.7696961702
 20
172.5644613963
 10
204.7696961702
 20
175.8144613963
  0
LWPOLYLINE
  5
BD
330
17
100
AcDbEntity
  8
geometry
  6
HIDDEN
100
AcDbPolyline
 90
2
 70
0
 10
212.7696961702
 20
160.8144613963
 10
204.7696961702
 20
160.8144613963
  0
LWPOLYLINE
  5
BE
330
17
100
AcDbEntity
  8
geometry
  6
CONTINUOUS
100
AcDbPolyline
 90
2
 70
0
 10
212.7696961702
 20
135.8144613963
 10
212.7696961702
 20
130.8144613963
  0
LWPOLYLINE
  5
BF
330
17
100
AcDbEntity
  8
geometry
  6
CONTINUOUS
100
AcDbPolyline
 90
2
 70
0
 10
212.7696961702
 20
135.8144613963
 10
212.7696961702
 20
245.8144613963
  0
LWPOLYLINE
  5
C0
330
17
100
AcDbEntity
  8
geometry
  6
CONTINUOUS
100
AcDbPolyline
 90
2
 70
0
 10
212.7696961702
 20
250.8144613963
 10
212.7696961702
 20
245.8144613963
  0
LWPOLYLINE
  5
C1
330
17
100
AcDbEntity
  8
geometry
  6
CONTINUOUS
100
AcDbPolyline
 90
2
 70
0
 10
204.7696961702
 20
245.8144613963
 10
204.7696961702
 20
250.8144613963
  0
LWPOLYLINE
  5
C2
330
17
100
AcDbEntity
  8
geometry
  6
CONTINUOUS
100
AcDbPolyline
 90
2
 70
0
 10
204.7696961702
 20
135.8144613963
 10
204.7696961702
 20
245.8144613963
  0
LWPOLYLINE
  5
C3
330
17
100
AcDbEntity
  8
geometry
  6
CONTINUOUS
100
AcDbPolyline
 90
2
 70
0
 10
204.7696961702
 20
130.8144613963
 10
204.7696961702
 20
135.8144613963
  0
LWPOLYLINE
  5
C4
330
17
100
AcDbEntity
  8
geometry
  6
CONTINUOUS
100
AcDbPolyline
 90
2
 70
0
 10
204.7696961702
 20
130.8144613963
 10
212.7696961702
 20
130.8144613963
  0
LWPOLYLINE
  5
C5
330
17
100
AcDbEntity
  8
geometry
  6
CONTINUOUS
100
AcDbPolyline
 90
2
 70
0
 10
204.7696961702
 20
250.8144613963
 10
212.7696961702
 20
250.8144613963
  0
LWPOLYLINE
  5
C6
330
17
100
AcDbEntity
  8
geometry
  6
HIDDEN
100
AcDbPolyline
 90
2
 70
0
 10
56.1879142553
 20
180.8144613963
 42
0.9999999999999999
 10
51.1879142553
 20
180.8144613963
  0
LWPOLYLINE
  5
C7
330
17
100
AcDbEntity
  8
geometry
  6
HIDDEN
100
AcDbPolyline
 90
2
 70
0
 10
53.0408666425437
 20
178.39964683057732
 42
0.493145426031304
 10
56.1879142553
 20
180.8144613963
  0
LWPOLYLINE
  5
C8
330
17
100
AcDbEntity
  8
geometry
  6
HIDDEN
100
AcDbPolyline
 90
2
 70
0
 10
51.1879142553
 20
180.8144613963
 42
0.06554346281523826
 10
51.27309968957733
 20
180.1674137835437
  0
LWPOLYLINE
  5
C9
330
17
100
AcDbEntity
  8
geometry
  6
HIDDEN
100
AcDbPolyline
 90
2
 70
0
 10
56.1879142553
 20
160.8144613963
 42
0.9999999999999999
 10
51.1879142553
 20
160.8144613963
  0
LWPOLYLINE
  5
CA
330
17
100
AcDbEntity
  8
geometry
  6
HIDDEN
100
AcDbPolyline
 90
2
 70
0
 10
53.0408666425437
 20
158.39964683057732
 42
0.493145426031304
 10
56.1879142553
 20
160.8144613963
  0
LWPOLYLINE
  5
CB
330
17
100
AcDbEntity
  8
geometry
  6
HIDDEN
100
AcDbPolyline
 90
2
 70
0
 10
51.1879142553
 20
160.8144613963
 42
0.06554346281523826
 10
51.27309968957733
 20
160.1674137835437
  0
LWPOLYLINE
  5
CC
330
17
100
AcDbEntity
  8
geometry
  6
HIDDEN
100
AcDbPolyline
 90
2
 70
0
 10
96.1879142553
 20
180.8144613963
 42
0.9999999999999999
 10
91.1879142553
 20
180.8144613963
  0
LWPOLYLINE
  5
CD
330
17
100
AcDbEntity
  8
geometry
  6
HIDDEN
100
AcDbPolyline
 90
2
 70
0
 10
93.0408666425437
 20
178.39964683057732
 42
0.493145426031304
 10
96.1879142553
 20
180.8144613963
  0
LWPOLYLINE
  5
CE
330
17
100
AcDbEntity
  8
geometry
  6
HIDDEN
100
AcDbPolyline
 90
2
 70
0
 10
91.1879142553
 20
180.8144613963
 42
0.06554346281523826
 10
91.27309968957734
 20
180.1674137835437
  0
LWPOLYLINE
  5
CF
330
17
100
AcDbEntity
  8
geometry
  6
HIDDEN
100
AcDbPolyline
 90
2
 70
0
 10
96.1879142553
 20
160.8144613963
 42
0.9999999999999999
 10
91.1879142553
 20
160.8144613963
  0
LWPOLYLINE
  5
D0
330
17
100
AcDbEntity
  8
geometry
  6
HIDDEN
100
AcDbPolyline
 90
2
 70
0
 10
93.0408666425437
 20
158.39964683057732
 42
0.493145426031304
 10
96.1879142553
 20
160.8144613963
  0
LWPOLYLINE
  5
D1
330
17
100
AcDbEntity
  8
geometry
  6
HIDDEN
100
AcDbPolyline
 90
2
 70
0
 10
91.1879142553
 20
160.8144613963
 42
0.06554346281523826
 10
91.27309968957734
 20
160.1674137835437
  0
LWPOLYLINE
  5
D2
330
17
100
AcDbEntity
  8
geometry
  6
CONTINUOUS
100
AcDbPolyline
 90
2
 70
0
 10
56.1879142553
 20
180.8144613963
 42
0.9999999999999999
 10
51.1879142553
 20
180.8144613963
  0
LWPOLYLINE
  5
D3
330
17
100
AcDbEntity
  8
geometry
  6
CONTINUOUS
100
AcDbPolyline
 90
2
 70
0
 10
53.0408666425437
 20
178.39964683057732
 42
0.493145426031304
 10
56.1879142553
 20
180.8144613963
  0
LWPOLYLINE
  5
D4
330
17
100
AcDbEntity
  8
geometry
  6
CONTINUOUS
100
AcDbPolyline
 90
2
 70
0
 10
51.1879142553
 20
180.8144613963
 42
0.06554346281523826
 10
51.27309968957733
 20
180.1674137835437
  0
LWPOLYLINE
  5
D5
330
17
100
AcDbEntity
  8
geometry
  6
CONTINUOUS
100
AcDbPolyline
 90
2
 70
0
 10
56.1879142553
 20
160.8144613963
 42
0.9999999999999999
 10
51.1879142553
 20
160.8144613963
  0
LWPOLYLINE
  5
D6
330
17
100
AcDbEntity
  8
geometry
  6
CONTINUOUS
100
AcDbPolyline
 90
2
 70
0
 10
53.0408666425437
 20
158.39964683057732
 42
0.493145426031304
 10
56.1879142553
 20
160.8144613963
  0
LWPOLYLINE
  5
D7
330
17
100
AcDbEntity
  8
geometry
  6
CONTINUOUS
100
AcDbPolyline
 90
2
 70
0
 10
51.1879142553
 20
160.8144613963
 42
0.06554346281523826
 10
51.27309968957733
 20
160.1674137835437
  0
LWPOLYLINE
  5
D8
330
17
100
AcDbEntity
  8
geometry
  6
CONTINUOUS
100
AcDbPolyline
 90
2
 70
0
 10
96.1879142553
 20
180.8144613963
 42
0.9999999999999999
 10
91.1879142553
 20
180.8144613963
  0
LWPOLYLINE
  5
D9
330
17
100
AcDbEntity
  8
geometry
  6
CONTINUOUS
100
AcDbPolyline
 90
2
 70
0
 10
93.0408666425437
 20
178.39964683057732
 42
0.493145426031304
 10
96.1879142553
 20
180.8144613963
  0
LWPOLYLINE
  5
DA
330
17
100
AcDbEntity
  8
geometry
  6
CONTINUOUS
100
AcDbPolyline
 90
2
 70
0
 10
91.1879142553
 20
180.8144613963
 42
0.06554346281523826
 10
91.27309968957734
 20
180.1674137835437
  0
LWPOLYLINE
  5
DB
330
17
100
AcDbEntity
  8
geometry
  6
CONTINUOUS
100
AcDbPolyline
 90
2
 70
0
 10
96.1879142553
 20
160.8144613963
 42
0.9999999999999999
 10
91.1879142553
 20
160.8144613963
  0
LWPOLYLINE
  5
DC
330
17
100
AcDbEntity
  8
geometry
  6
CONTINUOUS
100
AcDbPolyline
 90
2
 70
0
 10
93.0408666425437
 20
158.39964683057732
 42
0.493145426031304
 10
96.1879142553
 20
160.8144613963
  0
LWPOLYLINE
  5
DD
330
17
100
AcDbEntity
  8
geometry
  6
CONTINUOUS
100
AcDbPolyline
 90
2
 70
0
 10
91.1879142553
 20
160.8144613963
 42
0.06554346281523826
 10
91.27309968957734
 20
160.1674137835437
  0
LWPOLYLINE
  5
DE
330
17
100
AcDbEntity
  8
geometry
  6
CONTINUOUS
100
AcDbPolyline
 90
2
 70
0
 10
144.4379142553
 20
205.8144613963
 42
0.9999999999999999
 10
150.9379142553
 20
205.8144613963
  0
LWPOLYLINE
  5
DF
330
17
100
AcDbEntity
  8
geometry
  6
CONTINUOUS
100
AcDbPolyline
 90
2
 70
0
 10
150.9379142553
 20
205.8144613963
 42
0.9999999999999999
 10
144.4379142553
 20
205.8144613963
  0
LWPOLYLINE
  5
E0
330
17
100
AcDbEntity
  8
geometry
  6
CONTINUOUS
100
AcDbPolyline
 90
2
 70
0
 10
91.6229142553
 20
160.8144613963
 42
0.9999999999999999
 10
95.7529142553
 20
160.8144613963
  0
LWPOLYLINE
  5
E1
330
17
100
AcDbEntity
  8
geometry
  6
CONTINUOUS
100
AcDbPolyline
 90
2
 70
0
 10
95.7529142553
 20
160.8144613963
 42
0.9999999999999999
 10
91.6229142553
 20
160.8144613963
  0
LWPOLYLINE
  5
E2
330
17
100
AcDbEntity
  8
geometry
  6
CONTINUOUS
100
AcDbPolyline
 90
2
 70
0
 10
91.6229142553
 20
180.8144613963
 42
0.9999999999999999
 10
95.7529142553
 20
180.8144613963
  0
LWPOLYLINE
  5
E3
330
17
100
AcDbEntity
  8
geometry
  6
CONTINUOUS
100
AcDbPolyline
 90
2
 70
0
 10
95.7529142553
 20
180.8144613963
 42
0.9999999999999999
 10
91.6229142553
 20
180.8144613963
  0
LWPOLYLINE
  5
E4
330
17
100
AcDbEntity
  8
geometry
  6
CONTINUOUS
100
AcDbPolyline
 90
2
 70
0
 10
51.6229142553
 20
160.8144613963
 42
0.9999999999999999
 10
55.7529142553
 20
160.8144613963
  0
LWPOLYLINE
  5
E5
330
17
100
AcDbEntity
  8
geometry
  6
CONTINUOUS
100
AcDbPolyline
 90
2
 70
0
 10
55.7529142553
 20
160.8144613963
 42
0.9999999999999999
 10
51.6229142553
 20
160.8144613963
  0
LWPOLYLINE
  5
E6
330
17
100
AcDbEntity
  8
geometry
  6
CONTINUOUS
100
AcDbPolyline
 90
2
 70
0
 10
51.6229142553
 20
180.8144613963
 42
0.9999999999999999
 10
55.7529142553
 20
180.8144613963
  0
LWPOLYLINE
  5
E7
330
17
100
AcDbEntity
  8
geometry
  6
CONTINUOUS
100
AcDbPolyline
 90
2
 70
0
 10
55.7529142553
 20
180.8144613963
 42
0.9999999999999999
 10
51.6229142553
 20
180.8144613963
  0
LWPOLYLINE
  5
E8
330
17
100
AcDbEntity
  8
geometry
  6
CONTINUOUS
100
AcDbPolyline
 90
2
 70
0
 10
144.4379142553
 20
175.8144613963
 42
0.9999999999999999
 10
150.9379142553
 20
175.8144613963
  0
LWPOLYLINE
  5
E9
330
17
100
AcDbEntity
  8
geometry
  6
CONTINUOUS
100
AcDbPolyline
 90
2
 70
0
 10
150.9379142553
 20
175.8144613963
 42
0.9999999999999999
 10
144.4379142553
 20
175.8144613963
  0
LWPOLYLINE
  5
EA
330
17
100
AcDbEntity
  8
geometry
  6
CONTINUOUS
100
AcDbPolyline
 90
2
 70
0
 10
61.9379142553
 20
245.0644613963
 42
0.9999999999999999
 10
61.9379142553
 20
236.5644613963
  0
LWPOLYLINE
  5
EB
330
17
100
AcDbEntity
  8
geometry
  6
CONTINUOUS
100
AcDbPolyline
 90
2
 70
0
 10
61.9379142553
 20
236.5644613963
 10
73.4379142553
 20
236.5644613963
  0
LWPOLYLINE
  5
EC
330
17
100
AcDbEntity
  8
geometry
  6
CONTINUOUS
100
AcDbPolyline
 90
2
 70
0
 10
73.4379142553
 20
236.5644613963
 42
0.9999999999999999
 10
73.4379142553
 20
245.0644613963
  0
LWPOLYLINE
  5
ED
330
17
100
AcDbEntity
  8
geometry
  6
CONTINUOUS
100
AcDbPolyline
 90
2
 70
0
 10
73.4379142553
 20
245.0644613963
 10
61.9379142553
 20
245.0644613963
  0
LWPOLYLINE
  5
EE
330
17
100
AcDbEntity
  8
geometry
  6
CONTINUOUS
100
AcDbPolyline
 90
2
 70
0
 10
61.9379142553
 20
145.0644613963
 42
0.9999999999999999
 10
61.9379142553
 20
136.5644613963
  0
LWPOLYLINE
  5
EF
330
17
100
AcDbEntity
  8
geometry
  6
CONTINUOUS
100
AcDbPolyline
 90
2
 70
0
 10
61.9379142553
 20
136.5644613963
 10
73.4379142553
 20
136.5644613963
  0
LWPOLYLINE
  5
F0
330
17
100
AcDbEntity
  8
geometry
  6
CONTINUOUS
100
AcDbPolyline
 90
2
 70
0
 10
73.4379142553
 20
136.5644613963
 42
0.9999999999999999
 10
73.4379142553
 20
145.0644613963
  0
LWPOLYLINE
  5
F1
330
17
100
AcDbEntity
  8
geometry
  6
CONTINUOUS
100
AcDbPolyline
 90
2
 70
0
 10
73.4379142553
 20
145.0644613963
 10
61.9379142553
 20
145.0644613963
  0
LWPOLYLINE
  5
F2
330
17
100
AcDbEntity
  8
geometry
  6
CONTINUOUS
100
AcDbPolyline
 90
2
 70
0
 10
134.1879142553
 20
165.8144613963
 42
0.9999999999999999
 10
137.1879142553
 20
165.8144613963
  0
LWPOLYLINE
  5
F3
330
17
100
AcDbEntity
  8
geometry
  6
CONTINUOUS
100
AcDbPolyline
 90
2
 70
0
 10
137.1879142553
 20
165.8144613963
 42
0.9999999999999999
 10
134.1879142553
 20
165.8144613963
  0
LWPOLYLINE
  5
F4
330
17
100
AcDbEntity
  8
geometry
  6
CONTINUOUS
100
AcDbPolyline
 90
2
 70
0
 10
139.1879142553
 20
165.8144613963
 42
0.9999999999999999
 10
142.1879142553
 20
165.8144613963
  0
LWPOLYLINE
  5
F5
330
17
100
AcDbEntity
  8
geometry
  6
CONTINUOUS
100
AcDbPolyline
 90
2
 70
0
 10
142.1879142553
 20
165.8144613963
 42
0.9999999999999999
 10
139.1879142553
 20
165.8144613963
  0
LWPOLYLINE
  5
F6
330
17
100
AcDbEntity
  8
geometry
  6
CONTINUOUS
100
AcDbPolyline
 90
2
 70
0
 10
154.6879142553
 20
160.8144613963
 42
0.41421356237309503
 10
159.6879142553
 20
165.8144613963
  0
LWPOLYLINE
  5
F7
330
17
100
AcDbEntity
  8
geometry
  6
CONTINUOUS
100
AcDbPolyline
 90
2
 70
0
 10
154.6879142553
 20
160.8144613963
 10
119.6879142553
 20
160.8144613963
  0
LWPOLYLINE
  5
F8
330
17
100
AcDbEntity
  8
geometry
  6
CONTINUOUS
100
AcDbPolyline
 90
2
 70
0
 10
114.6879142553
 20
135.8144613963
 10
114.6879142553
 20
155.8144613963
  0
LWPOLYLINE
  5
F9
330
17
100
AcDbEntity
  8
geometry
  6
CONTINUOUS
100
AcDbPolyline
 90
2
 70
0
 10
109.6879142553
 20
130.8144613963
 42
0.41421356237309503
 10
114.6879142553
 20
135.8144613963
  0
LWPOLYLINE
  5
FA
330
17
100
AcDbEntity
  8
geometry
  6
CONTINUOUS
100
AcDbPolyline
 90
2
 70
0
 10
109.6879142553
 20
130.8144613963
 10
49.6879142553
 20
130.8144613963
  0
LWPOLYLINE
  5
FB
330
17
100
AcDbEntity
  8
geometry
  6
CONTINUOUS
100
AcDbPolyline
 90
2
 70
0
 10
44.6879142553
 20
135.8144613963
 42
0.41421356237309503
 10
49.6879142553
 20
130.8144613963
  0
LWPOLYLINE
  5
FC
330
17
100
AcDbEntity
  8
geometry
  6
CONTINUOUS
100
AcDbPolyline
 90
2
 70
0
 10
44.6879142553
 20
135.8144613963
 10
44.6879142553
 20
245.8144613963
  0
LWPOLYLINE
  5
FD
330
17
100
AcDbEntity
  8
geometry
  6
CONTINUOUS
100
AcDbPolyline
 90
2
 70
0
 10
49.6879142553
 20
250.8144613963
 42
0.41421356237309503
 10
44.6879142553
 20
245.8144613963
  0
LWPOLYLINE
  5
FE
330
17
100
AcDbEntity
  8
geometry
  6
CONTINUOUS
100
AcDbPolyline
 90
2
 70
0
 10
49.6879142553
 20
250.8144613963
 10
89.6879142553
 20
250.8144613963
  0
LWPOLYLINE
  5
FF
330
17
100
AcDbEntity
  8
geometry
  6
CONTINUOUS
100
AcDbPolyline
 90
2
 70
0
 10
94.6879142553
 20
245.8144613963
 42
0.41421356237309503
 10
89.6879142553
 20
250.8144613963
  0
LWPOLYLINE
  5
100
330
17
100
AcDbEntity
  8
geometry
  6
CONTINUOUS
100
AcDbPolyline
 90
2
 70
0
 10
94.6879142553
 20
245.8144613963
 10
94.6879142553
 20
220.8144613963
  0
LWPOLYLINE
  5
101
330
17
100
AcDbEntity
  8
geometry
  6
CONTINUOUS
100
AcDbPolyline
 90
2
 70
0
 10
154.6879142553
 20
215.8144613963
 10
99.6879142553
 20
215.8144613963
  0
LWPOLYLINE
  5
102
330
17
100
AcDbEntity
  8
geometry
  6
CONTINUOUS
100
AcDbPolyline
 90
2
 70
0
 10
159.6879142553
 20
210.8144613963
 42
0.41421356237309503
 10
154.6879142553
 20
215.8144613963
  0
LWPOLYLINE
  5
103
330
17
100
AcDbEntity
  8
geometry
  6
CONTINUOUS
100
AcDbPolyline
 90
2
 70
0
 10
159.6879142553
 20
210.8144613963
 10
159.6879142553
 20
165.8144613963
  0
LWPOLYLINE
  5
104
330
17
100
AcDbEntity
  8
geometry
  6
CONTINUOUS
100
AcDbPolyline
 90
2
 70
0
 10
119.6879142553
 20
160.8144613963
 42
0.41421356237309503
 10
114.6879142553
 20
155.8144613963
  0
LWPOLYLINE
  5
105
330
17
100
AcDbEntity
  8
geometry
  6
CONTINUOUS
100
AcDbPolyline
 90
2
 70
0
 10
94.6879142553
 20
220.8144613963
 42
0.41421356237309503
 10
99.6879142553
 20
215.8144613963
  0
LWPOLYLINE
  5
106
330
17
100
AcDbEntity
  8
geometry
  6
CONTINUOUS
100
AcDbPolyline
 90
2
 70
0
 10
215.7696961702
 20
258.9011699391
 10
212.7696961702
 20
257.1511699391
  0
LWPOLYLINE
  5
107
330
17
100
AcDbEntity
  8
geometry
  6
CONTINUOUS
100
AcDbPolyline
 90
2
 70
0
 10
212.7696961702
 20
257.1511699391
 10
218.7696961702
 20
253.7225985105
  0
CIRCLE
  5
108
330
17
100
AcDbEntity
  8
geometry
  6
CONTINUOUS
100
AcDbCircle
 10
214.9700276398
 20
257.1550858216
 30
0.0
 40
1.1018270385
  0
LWPOLYLINE
  5
109
330
17
100
AcDbEntity
  8
geometry
  6
CONTINUOUS
100
AcDbPolyline
 90
2
 70
0
 10
201.7696961702
 20
255.5141149603
 10
204.7696961702
 20
257.2641149603
  0
LWPOLYLINE
  5
10A
330
17
100
AcDbEntity
  8
geometry
  6
CONTINUOUS
100
AcDbPolyline
 90
2
 70
0
 10
204.7696961702
 20
257.2641149603
 10
198.7696961702
 20
260.6926863889
  0
CIRCLE
  5
10B
330
17
100
AcDbEntity
  8
geometry
  6
CONTINUOUS
100
AcDbCircle
 10
202.5693647006
 20
257.2601990778
 30
0.0
 40
1.1018270385
  0
CIRCLE
  5
10C
330
17
100
AcDbEntity
  8
geometry
  6
CONTINUOUS
100
AcDbCircle
 10
67.6769804197
 20
260.3946312001
 30
0.0
 40
0.5325
  0
LWPOLYLINE
  5
10D
330
17
100
AcDbEntity
  8
geometry
  6
CONTINUOUS
100
AcDbPolyline
 90
2
 70
0
 10
64.8679635595
 20
258.9510456876
 10
62.7379635595
 20
258.9510456876
  0
LWPOLYLINE
  5
10E
330
17
100
AcDbEntity
  8
geometry
  6
CONTINUOUS
100
AcDbPolyline
 90
2
 70
0
 10
62.7379635595
 20
258.2410456876
 10
64.8679635595
 20
258.2410456876
  0
LWPOLYLINE
  5
10F
330
17
100
AcDbEntity
  8
geometry
  6
CONTINUOUS
100
AcDbPolyline
 90
2
 70
0
 10
70.5479635595
 20
258.9510456876
 10
72.6779635595
 20
258.9510456876
  0
LWPOLYLINE
  5
110
330
17
100
AcDbEntity
  8
geometry
  6
CONTINUOUS
100
AcDbPolyline
 90
2
 70
0
 10
70.5479635595
 20
258.2410456876
 10
72.6779635595
 20
258.2410456876
  0
LWPOLYLINE
  5
111
330
17
100
AcDbEntity
  8
geometry
  6
CONTINUOUS
100
AcDbPolyline
 90
2
 70
0
 10
68.2094804197
 20
260.3946312001
 10
68.2034672214
 20
260.3148320919
  0
LWPOLYLINE
  5
112
330
17
100
AcDbEntity
  8
geometry
  6
CONTINUOUS
100
AcDbPolyline
 90
2
 70
0
 10
68.2034672214
 20
260.3148320919
 10
68.1855634331
 20
260.2368352291
  0
LWPOLYLINE
  5
113
330
17
100
AcDbEntity
  8
geometry
  6
CONTINUOUS
100
AcDbPolyline
 90
2
 70
0
 10
68.1855634331
 20
260.2368352291
 10
68.1561734081
 20
260.162402154
  0
LWPOLYLINE
  5
114
330
17
100
AcDbEntity
  8
geometry
  6
CONTINUOUS
100
AcDbPolyline
 90
2
 70
0
 10
68.1561734081
 20
260.162402154
 10
68.1159609137
 20
260.0932139215
  0
LWPOLYLINE
  5
115
330
17
100
AcDbEntity
  8
geometry
  6
CONTINUOUS
100
AcDbPolyline
 90
2
 70
0
 10
68.1159609137
 20
260.0932139215
 10
68.0658341404
 20
260.0308331326
  0
LWPOLYLINE
  5
116
330
17
100
AcDbEntity
  8
geometry
  6
CONTINUOUS
100
AcDbPolyline
 90
2
 70
0
 10
68.0658341404
 20
260.0308331326
 10
68.0069251903
 20
259.9766686439
  0
LWPOLYLINE
  5
117
330
17
100
AcDbEntity
  8
geometry
  6
CONTINUOUS
100
AcDbPolyline
 90
2
 70
0
 10
68.0069251903
 20
259.9766686439
 10
67.9405645093
 20
259.9319437487
  0
LWPOLYLINE
  5
118
330
17
100
AcDbEntity
  8
geometry
  6
CONTINUOUS
100
AcDbPolyline
 90
2
 70
0
 10
67.9405645093
 20
259.9319437487
 10
67.868250839
 20
259.8976685489
  0
LWPOLYLINE
  5
119
330
17
100
AcDbEntity
  8
geometry
  6
CONTINUOUS
100
AcDbPolyline
 90
2
 70
0
 10
67.868250839
 20
259.8976685489
 10
67.7916173679
 20
259.8746171425
  0
LWPOLYLINE
  5
11A
330
17
100
AcDbEntity
  8
geometry
  6
CONTINUOUS
100
AcDbPolyline
 90
2
 70
0
 10
67.7916173679
 20
259.8746171425
 10
67.7123948462
 20
259.8633101405
  0
LWPOLYLINE
  5
11B
330
17
100
AcDbEntity
  8
geometry
  6
CONTINUOUS
100
AcDbPolyline
 90
2
 70
0
 10
67.7123948462
 20
259.8633101405
 10
67.6323724974
 20
259.8640029091
  0
LWPOLYLINE
  5
11C
330
17
100
AcDbEntity
  8
geometry
  6
CONTINUOUS
100
AcDbPolyline
 90
2
 70
0
 10
67.6323724974
 20
259.8640029091
 10
67.5533576089
 20
259.8766798022
  0
LWPOLYLINE
  5
11D
330
17
100
AcDbEntity
  8
geometry
  6
CONTINUOUS
100
AcDbPolyline
 90
2
 70
0
 10
67.5533576089
 20
259.8766798022
 10
67.4771347146
 20
259.9010545149
  0
LWPOLYLINE
  5
11E
330
17
100
AcDbEntity
  8
geometry
  6
CONTINUOUS
100
AcDbPolyline
 90
2
 70
0
 10
67.4771347146
 20
259.9010545149
 10
67.4054252921
 20
259.9365765498
  0
LWPOLYLINE
  5
11F
330
17
100
AcDbEntity
  8
geometry
  6
CONTINUOUS
100
AcDbPolyline
 90
2
 70
0
 10
67.4054252921
 20
259.9365765498
 10
67.3398488831
 20
259.9824436493
  0
LWPOLYLINE
  5
120
330
17
100
AcDbEntity
  8
geometry
  6
CONTINUOUS
100
AcDbPolyline
 90
2
 70
0
 10
67.3398488831
 20
259.9824436493
 10
67.2818865166
 20
260.037619915
  0
LWPOLYLINE
  5
121
330
17
100
AcDbEntity
  8
geometry
  6
CONTINUOUS
100
AcDbPolyline
 90
2
 70
0
 10
67.2818865166
 20
260.037619915
 10
67.2328472599
 20
260.1008592029
  0
LWPOLYLINE
  5
122
330
17
100
AcDbEntity
  8
geometry
  6
CONTINUOUS
100
AcDbPolyline
 90
2
 70
0
 10
67.2328472599
 20
260.1008592029
 10
67.19383865399999
 20
260.1707332675
  0
LWPOLYLINE
  5
123
330
17
100
AcDbEntity
  8
geometry
  6
CONTINUOUS
100
AcDbPolyline
 90
2
 70
0
 10
67.19383865399999
 20
260.1707332675
 10
67.1657416998
 20
260.2456640182
  0
LWPOLYLINE
  5
124
330
17
100
AcDbEntity
  8
geometry
  6
CONTINUOUS
100
AcDbPolyline
 90
2
 70
0
 10
67.1657416998
 20
260.2456640182
 10
67.149190961
 20
260.3239591603
  0
LWPOLYLINE
  5
125
330
17
100
AcDbEntity
  8
geometry
  6
CONTINUOUS
100
AcDbPolyline
 90
2
 70
0
 10
67.149190961
 20
260.3239591603
 10
67.1445602322
 20
260.403850415
  0
LWPOLYLINE
  5
126
330
17
100
AcDbEntity
  8
geometry
  6
CONTINUOUS
100
AcDbPolyline
 90
2
 70
0
 10
67.1445602322
 20
260.403850415
 10
67.1519540976
 20
260.4835334558
  0
LWPOLYLINE
  5
127
330
17
100
AcDbEntity
  8
geometry
  6
CONTINUOUS
100
AcDbPolyline
 90
2
 70
0
 10
67.1519540976
 20
260.4835334558
 10
67.1712055682
 20
260.5612086584
  0
LWPOLYLINE
  5
128
330
17
100
AcDbEntity
  8
geometry
  6
CONTINUOUS
100
AcDbPolyline
 90
2
 70
0
 10
67.1712055682
 20
260.5612086584
 10
67.20187985390001
 20
260.6351217454
  0
LWPOLYLINE
  5
129
330
17
100
AcDbEntity
  8
geometry
  6
CONTINUOUS
100
AcDbPolyline
 90
2
 70
0
 10
67.20187985390001
 20
260.6351217454
 10
67.24328418260001
 20
260.7036034058
  0
LWPOLYLINE
  5
12A
330
17
100
AcDbEntity
  8
geometry
  6
CONTINUOUS
100
AcDbPolyline
 90
2
 70
0
 10
67.24328418260001
 20
260.7036034058
 10
67.29448344640001
 20
260.7651069961
  0
LWPOLYLINE
  5
12B
330
17
100
AcDbEntity
  8
geometry
  6
CONTINUOUS
100
AcDbPolyline
 90
2
 70
0
 10
67.29448344640001
 20
260.7651069961
 10
67.3543213211
 20
260.8182434711
  0
LWPOLYLINE
  5
12C
330
17
100
AcDbEntity
  8
geometry
  6
CONTINUOUS
100
AcDbPolyline
 90
2
 70
0
 10
67.3543213211
 20
260.8182434711
 10
67.42144638149999
 20
260.8618127551
  0
LWPOLYLINE
  5
12D
330
17
100
AcDbEntity
  8
geometry
  6
CONTINUOUS
100
AcDbPolyline
 90
2
 70
0
 10
67.42144638149999
 20
260.8618127551
 10
67.4943426225
 20
260.8948308453
  0
LWPOLYLINE
  5
12E
330
17
100
AcDbEntity
  8
geometry
  6
CONTINUOUS
100
AcDbPolyline
 90
2
 70
0
 10
67.4943426225
 20
260.8948308453
 10
67.5713636984
 20
260.9165520353
  0
LWPOLYLINE
  5
12F
330
17
100
AcDbEntity
  8
geometry
  6
CONTINUOUS
100
AcDbPolyline
 90
2
 70
0
 10
67.5713636984
 20
260.9165520353
 10
67.650770105
 20
260.9264857567
  0
LWPOLYLINE
  5
130
330
17
100
AcDbEntity
  8
geometry
  6
CONTINUOUS
100
AcDbPolyline
 90
2
 70
0
 10
67.650770105
 20
260.9264857567
 10
67.7307684659
 20
260.9244076587
  0
LWPOLYLINE
  5
131
330
17
100
AcDbEntity
  8
geometry
  6
CONTINUOUS
100
AcDbPolyline
 90
2
 70
0
 10
67.7307684659
 20
260.9244076587
 10
67.8095520354
 20
260.9103646746
  0
LWPOLYLINE
  5
132
330
17
100
AcDbEntity
  8
geometry
  6
CONTINUOUS
100
AcDbPolyline
 90
2
 70
0
 10
67.8095520354
 20
260.9103646746
 10
67.88534150390001
 20
260.8846739622
  0
LWPOLYLINE
  5
133
330
17
100
AcDbEntity
  8
geometry
  6
CONTINUOUS
100
AcDbPolyline
 90
2
 70
0
 10
67.88534150390001
 20
260.8846739622
 10
67.9564251825
 20
260.8479157405
  0
LWPOLYLINE
  5
134
330
17
100
AcDbEntity
  8
geometry
  6
CONTINUOUS
100
AcDbPolyline
 90
2
 70
0
 10
67.9564251825
 20
260.8479157405
 10
68.02119766199999
 20
260.8009201861
  0
LWPOLYLINE
  5
135
330
17
100
AcDbEntity
  8
geometry
  6
CONTINUOUS
100
AcDbPolyline
 90
2
 70
0
 10
68.02119766199999
 20
260.8009201861
 10
68.0781960699
 20
260.7447486833
  0
LWPOLYLINE
  5
136
330
17
100
AcDbEntity
  8
geometry
  6
CONTINUOUS
100
AcDbPolyline
 90
2
 70
0
 10
68.0781960699
 20
260.7447486833
 10
68.1261331097
 20
260.6806698533
  0
LWPOLYLINE
  5
137
330
17
100
AcDbEntity
  8
geometry
  6
CONTINUOUS
100
AcDbPolyline
 90
2
 70
0
 10
68.1261331097
 20
260.6806698533
 10
68.1639261336
 20
260.6101309025
  0
LWPOLYLINE
  5
138
330
17
100
AcDbEntity
  8
geometry
  6
CONTINUOUS
100
AcDbPolyline
 90
2
 70
0
 10
68.1639261336
 20
260.6101309025
 10
68.1907215945
 20
260.5347249379
  0
LWPOLYLINE
  5
139
330
17
100
AcDbEntity
  8
geometry
  6
CONTINUOUS
100
AcDbPolyline
 90
2
 70
0
 10
68.1907215945
 20
260.5347249379
 10
68.20591432270001
 20
260.4561549866
  0
LWPOLYLINE
  5
13A
330
17
100
AcDbEntity
  8
geometry
  6
CONTINUOUS
100
AcDbPolyline
 90
2
 70
0
 10
68.20591432270001
 20
260.4561549866
 10
68.2094804197
 20
260.3946312001
  0
ENDSEC
  0
SECTION
  2
OBJECTS
  0
DICTIONARY
  5
A
330
0
100
AcDbDictionary
281
1
  3
ACAD_COLOR
350
B
  3
ACAD_GROUP
350
C
  3
ACAD_LAYOUT
350
D
  3
ACAD_MATERIAL
350
E
  3
ACAD_MLEADERSTYLE
350
F
  3
ACAD_MLINESTYLE
350
10
  3
ACAD_PLOTSETTINGS
350
11
  3
ACAD_PLOTSTYLENAME
350
12
  3
ACAD_SCALELIST
350
14
  3
ACAD_TABLESTYLE
350
15
  3
ACAD_VISUALSTYLE
350
16
  3
EZDXF_META
350
2D
  0
DICTIONARY
  5
B
330
A
100
AcDbDictionary
281
1
  0
DICTIONARY
  5
C
330
A
100
AcDbDictionary
281
1
  0
DICTIONARY
  5
D
330
A
100
AcDbDictionary
281
1
  3
Model
350
1A
  3
Layout1
350
1E
  0
DICTIONARY
  5
E
330
A
100
AcDbDictionary
281
1
  3
ByBlock
350
1F
  3
ByLayer
350
20
  3
Global
350
21
  0
DICTIONARY
  5
F
330
A
100
AcDbDictionary
281
1
  3
Standard
350
2C
  0
DICTIONARY
  5
10
330
A
100
AcDbDictionary
281
1
  3
Standard
350
22
  0
DICTIONARY
  5
11
330
A
100
AcDbDictionary
281
1
  0
ACDBDICTIONARYWDFLT
  5
12
330
A
100
AcDbDictionary
281
1
  3
Normal
350
13
100
AcDbDictionaryWithDefault
340
13
  0
ACDBPLACEHOLDER
  5
13
330
12
  0
DICTIONARY
  5
14
330
A
100
AcDbDictionary
281
1
  0
DICTIONARY
  5
15
330
A
100
AcDbDictionary
281
1
  0
DICTIONARY
  5
16
330
A
100
AcDbDictionary
281
1
  0
LAYOUT
  5
1A
330
D
100
AcDbPlotSettings
  1

  4
A3
  6

 40
7.5
 41
20.0
 42
7.5
 43
20.0
 44
420.0
 45
297.0
 46
0.0
 47
0.0
 48
0.0
 49
0.0
140
0.0
141
0.0
142
1.0
143
1.0
 70
1024
 72
1
 73
0
 74
5
  7

 75
16
 76
0
 77
2
 78
300
147
1.0
148
0.0
149
0.0
100
AcDbLayout
  1
Model
 70
1
 71
0
 10
0.0
 20
0.0
 11
420.0
 21
297.0
 12
0.0
 22
0.0
 32
0.0
 14
1e+20
 24
1e+20
 34
1e+20
 15
-1e+20
 25
-1e+20
 35
-1e+20
146
0.0
 13
0.0
 23
0.0
 33
0.0
 16
1.0
 26
0.0
 36
0.0
 17
0.0
 27
1.0
 37
0.0
 76
1
330
17
  0
LAYOUT
  5
1E
330
D
100
AcDbPlotSettings
  1

  4
A3
  6

 40
7.5
 41
20.0
 42
7.5
 43
20.0
 44
420.0
 45
297.0
 46
0.0
 47
0.0
 48
0.0
 49
0.0
140
0.0
141
0.0
142
1.0
143
1.0
 70
0
 72
1
 73
0
 74
5
  7

 75
16
 76
0
 77
2
 78
300
147
1.0
148
0.0
149
0.0
100
AcDbLayout
  1
Layout1
 70
1
 71
1
 10
0.0
 20
0.0
 11
420.0
 21
297.0
 12
0.0
 22
0.0
 32
0.0
 14
1e+20
 24
1e+20
 34
1e+20
 15
-1e+20
 25
-1e+20
 35
-1e+20
146
0.0
 13
0.0
 23
0.0
 33
0.0
 16
1.0
 26
0.0
 36
0.0
 17
0.0
 27
1.0
 37
0.0
 76
1
330
1B
  0
MATERIAL
  5
1F
102
{ACAD_REACTORS
330
E
102
}
330
E
100
AcDbMaterial
  1
ByBlock
  2

 70
0
 40
1.0
 71
1
 41
1.0
 91
-1023410177
 42
1.0
 72
1
  3

 73
1
 74
1
 75
1
 44
0.5
 73
0
 45
1.0
 46
1.0
 77
1
  4

 78
1
 79
1
170
1
 48
1.0
171
1
  6

172
1
173
1
174
1
140
1.0
141
1.0
175
1
  7

176
1
177
1
178
1
143
1.0
179
1
  8

270
1
271
1
272
1
145
1.0
146
1.0
273
1
  9

274
1
275
1
276
1
 42
1.0
 72
1
  3

 73
1
 74
1
 75
1
 94
63
  0
MATERIAL
  5
20
102
{ACAD_REACTORS
330
E
102
}
330
E
100
AcDbMaterial
  1
ByLayer
  2

 70
0
 40
1.0
 71
1
 41
1.0
 91
-1023410177
 42
1.0
 72
1
  3

 73
1
 74
1
 75
1
 44
0.5
 73
0
 45
1.0
 46
1.0
 77
1
  4

 78
1
 79
1
170
1
 48
1.0
171
1
  6

172
1
173
1
174
1
140
1.0
141
1.0
175
1
  7

176
1
177
1
178
1
143
1.0
179
1
  8

270
1
271
1
272
1
145
1.0
146
1.0
273
1
  9

274
1
275
1
276
1
 42
1.0
 72
1
  3

 73
1
 74
1
 75
1
 94
63
  0
MATERIAL
  5
21
102
{ACAD_REACTORS
330
E
102
}
330
E
100
AcDbMaterial
  1
Global
  2

 70
0
 40
1.0
 71
1
 41
1.0
 91
-1023410177
 42
1.0
 72
1
  3

 73
1
 74
1
 75
1
 44
0.5
 73
0
 45
1.0
 46
1.0
 77
1
  4

 78
1
 79
1
170
1
 48
1.0
171
1
  6

172
1
173
1
174
1
140
1.0
141
1.0
175
1
  7

176
1
177
1
178
1
143
1.0
179
1
  8

270
1
271
1
272
1
145
1.0
146
1.0
273
1
  9

274
1
275
1
276
1
 42
1.0
 72
1
  3

 73
1
 74
1
 75
1
 94
63
  0
MLINESTYLE
  5
22
102
{ACAD_REACTORS
330
10
102
}
330
10
100
AcDbMlineStyle
  2
Standard
 70
0
  3

 62
256
 51
90.0
 52
90.0
 71
2
 49
0.5
 62
256
  6
BYLAYER
 49
-0.5
 62
256
  6
BYLAYER
  0
MLEADERSTYLE
  5
2C
102
{ACAD_REACTORS
330
F
102
}
330
F
100
AcDbMLeaderStyle
179
2
170
2
171
1
172
0
 90
2
 40
0.0
 41
0.0
173
1
 91
-1056964608
 92
-2
290
1
 42
2.0
291
1
 43
8.0
  3
Standard
 44
4.0
300

342
29
174
1
175
1
176
0
178
1
 93
-1056964608
 45
4.0
292
0
297
0
 46
4.0
 94
-1056964608
 47
1.0
 49
1.0
140
1.0
294
1
141
0.0
177
0
142
1.0
295
0
296
0
143
3.75
271
0
272
9
273
9
  0
DICTIONARY
  5
2D
330
A
100
AcDbDictionary
280
1
281
1
  3
CREATED_BY_EZDXF
350
2E
  3
WRITTEN_BY_EZDXF
350
13D
  0
DICTIONARYVAR
  5
2E
330
2D
100
DictionaryVariables
280
0
  1
1.4.4 @ 2026-10-05T16:30:29.676922+00:00
  0
DICTIONARYVAR
  5
13D
330
2D
100
DictionaryVariables
280
0
  1
1.4.4 @ 2026-10-05T16:30:29.686430+00:00
  0
ENDSEC
  0
EOF
