  0
SECTION
  2
HEADER
  9
$ACADVER
  1
AC1024
  9
$ACADMAINTVER
 70
6
  9
$DWGCODEPAGE
  3
ANSI_1252
  9
$LASTSAVEDBY
  1
ezdxf
  9
$INSBASE
 10
0.0
 20
0.0
 30
0.0
  9
$EXTMIN
 10
1e+20
 20
1e+20
 30
1e+20
  9
$EXTMAX
 10
-1e+20
 20
-1e+20
 30
-1e+20
  9
$LIMMIN
 10
0.0
 20
0.0
  9
$LIMMAX
 10
420.0
 20
297.0
  9
$ORTHOMODE
 70
0
  9
$REGENMODE
 70
1
  9
$FILLMODE
 70
1
  9
$QTEXTMODE
 70
0
  9
$MIRRTEXT
 70
1
  9
$LTSCALE
 40
1.0
  9
$ATTMODE
 70
1
  9
$TEXTSIZE
 40
2.5
  9
$TRACEWID
 40
1.0
  9
$TEXTSTYLE
  7
Standard
  9
$CLAYER
  8
0
  9
$CELTYPE
  6
ByLayer
  9
$CECOLOR
 62
256
  9
$CELTSCALE
 40
1.0
  9
$DISPSILH
 70
0
  9
$DIMSCALE
 40
1.0
  9
$DIMASZ
 40
2.5
  9
$DIMEXO
 40
0.625
  9
$DIMDLI
 40
3.75
  9
$DIMRND
 40
0.0
  9
$DIMDLE
 40
0.0
  9
$DIMEXE
 40
1.25
  9
$DIMTP
 40
0.0
  9
$DIMTM
 40
0.0
  9
$DIMTXT
 40
2.5
  9
$DIMCEN
 40
2.5
  9
$DIMTSZ
 40
0.0
  9
$DIMTOL
 70
0
  9
$DIMLIM
 70
0
  9
$DIMTIH
 70
0
  9
$DIMTOH
 70
0
  9
$DIMSE1
 70
0
  9
$DIMSE2
 70
0
  9
$DIMTAD
 70
1
  9
$DIMZIN
 70
8
  9
$DIMBLK
  1

  9
$DIMASO
 70
1
  9
$DIMSHO
 70
1
  9
$DIMPOST
  1

  9
$DIMAPOST
  1

  9
$DIMALT
 70
0
  9
$DIMALTD
 70
3
  9
$DIMALTF
 40
0.03937007874
  9
$DIMLFAC
 40
1.0
  9
$DIMTOFL
 70
1
  9
$DIMTVP
 40
0.0
  9
$DIMTIX
 70
0
  9
$DIMSOXD
 70
0
  9
$DIMSAH
 70
0
  9
$DIMBLK1
  1

  9
$DIMBLK2
  1

  9
$DIMSTYLE
  2
ISO-25
  9
$DIMCLRD
 70
0
  9
$DIMCLRE
 70
0
  9
$DIMCLRT
 70
0
  9
$DIMTFAC
 40
1.0
  9
$DIMGAP
 40
0.625
  9
$DIMJUST
 70
0
  9
$DIMSD1
 70
0
  9
$DIMSD2
 70
0
  9
$DIMTOLJ
 70
0
  9
$DIMTZIN
 70
8
  9
$DIMALTZ
 70
0
  9
$DIMALTTZ
 70
0
  9
$DIMUPT
 70
0
  9
$DIMDEC
 70
2
  9
$DIMTDEC
 70
2
  9
$DIMALTU
 70
2
  9
$DIMALTTD
 70
3
  9
$DIMTXSTY
  7
Standard
  9
$DIMAUNIT
 70
0
  9
$DIMADEC
 70
0
  9
$DIMALTRND
 40
0.0
  9
$DIMAZIN
 70
0
  9
$DIMDSEP
 70
44
  9
$DIMATFIT
 70
3
  9
$DIMFRAC
 70
0
  9
$DIMLDRBLK
  1

  9
$DIMLUNIT
 70
2
  9
$DIMLWD
 70
-2
  9
$DIMLWE
 70
-2
  9
$DIMTMOVE
 70
0
  9
$DIMFXL
 40
1.0
  9
$DIMFXLON
 70
0
  9
$DIMJOGANG
 40
0.785398163397
  9
$DIMTFILL
 70
0
  9
$DIMTFILLCLR
 70
0
  9
$DIMARCSYM
 70
0
  9
$DIMLTYPE
  6

  9
$DIMLTEX1
  6

  9
$DIMLTEX2
  6

  9
$DIMTXTDIRECTION
 70
0
  9
$LUNITS
 70
2
  9
$LUPREC
 70
4
  9
$SKETCHINC
 40
1.0
  9
$FILLETRAD
 40
10.0
  9
$AUNITS
 70
0
  9
$AUPREC
 70
2
  9
$MENU
  1
.
  9
$ELEVATION
 40
0.0
  9
$PELEVATION
 40
0.0
  9
$THICKNESS
 40
0.0
  9
$LIMCHECK
 70
0
  9
$CHAMFERA
 40
0.0
  9
$CHAMFERB
 40
0.0
  9
$CHAMFERC
 40
0.0
  9
$CHAMFERD
 40
0.0
  9
$SKPOLY
 70
0
  9
$TDCREATE
 40
2461319.785636574
  9
$TDUCREATE
 40
2458532.153996898
  9
$TDUPDATE
 40
2461319.785636574
  9
$TDUUPDATE
 40
2458532.1544311
  9
$TDINDWG
 40
0.0
  9
$TDUSRTIMER
 40
0.0
  9
$USRTIMER
 70
1
  9
$ANGBASE
 50
0.0
  9
$ANGDIR
 70
0
  9
$PDMODE
 70
0
  9
$PDSIZE
 40
0.0
  9
$PLINEWID
 40
0.0
  9
$SPLFRAME
 70
0
  9
$SPLINETYPE
 70
6
  9
$SPLINESEGS
 70
8
  9
$HANDSEED
  5
B2
  9
$SURFTAB1
 70
6
  9
$SURFTAB2
 70
6
  9
$SURFTYPE
 70
6
  9
$SURFU
 70
6
  9
$SURFV
 70
6
  9
$UCSBASE
  2

  9
$UCSNAME
  2

  9
$UCSORG
 10
0.0
 20
0.0
 30
0.0
  9
$UCSXDIR
 10
1.0
 20
0.0
 30
0.0
  9
$UCSYDIR
 10
0.0
 20
1.0
 30
0.0
  9
$UCSORTHOREF
  2

  9
$UCSORTHOVIEW
 70
0
  9
$UCSORGTOP
 10
0.0
 20
0.0
 30
0.0
  9
$UCSORGBOTTOM
 10
0.0
 20
0.0
 30
0.0
  9
$UCSORGLEFT
 10
0.0
 20
0.0
 30
0.0
  9
$UCSORGRIGHT
 10
0.0
 20
0.0
 30
0.0
  9
$UCSORGFRONT
 10
0.0
 20
0.0
 30
0.0
  9
$UCSORGBACK
 10
0.0
 20
0.0
 30
0.0
  9
$PUCSBASE
  2

  9
$PUCSNAME
  2

  9
$PUCSORG
 10
0.0
 20
0.0
 30
0.0
  9
$PUCSXDIR
 10
1.0
 20
0.0
 30
0.0
  9
$PUCSYDIR
 10
0.0
 20
1.0
 30
0.0
  9
$PUCSORTHOREF
  2

  9
$PUCSORTHOVIEW
 70
0
  9
$PUCSORGTOP
 10
0.0
 20
0.0
 30
0.0
  9
$PUCSORGBOTTOM
 10
0.0
 20
0.0
 30
0.0
  9
$PUCSORGLEFT
 10
0.0
 20
0.0
 30
0.0
  9
$PUCSORGRIGHT
 10
0.0
 20
0.0
 30
0.0
  9
$PUCSORGFRONT
 10
0.0
 20
0.0
 30
0.0
  9
$PUCSORGBACK
 10
0.0
 20
0.0
 30
0.0
  9
$USERI1
 70
0
  9
$USERI2
 70
0
  9
$USERI3
 70
0
  9
$USERI4
 70
0
  9
$USERI5
 70
0
  9
$USERR1
 40
0.0
  9
$USERR2
 40
0.0
  9
$USERR3
 40
0.0
  9
$USERR4
 40
0.0
  9
$USERR5
 40
0.0
  9
$WORLDVIEW
 70
1
  9
$SHADEDGE
 70
3
  9
$SHADEDIF
 70
70
  9
$TILEMODE
 70
1
  9
$MAXACTVP
 70
64
  9
$PINSBASE
 10
0.0
 20
0.0
 30
0.0
  9
$PLIMCHECK
 70
0
  9
$PEXTMIN
 10
1e+20
 20
1e+20
 30
1e+20
  9
$PEXTMAX
 10
-1e+20
 20
-1e+20
 30
-1e+20
  9
$PLIMMIN
 10
0.0
 20
0.0
  9
$PLIMMAX
 10
420.0
 20
297.0
  9
$UNITMODE
 70
0
  9
$VISRETAIN
 70
1
  9
$PLINEGEN
 70
0
  9
$PSLTSCALE
 70
1
  9
$TREEDEPTH
 70
3020
  9
$CMLSTYLE
  2
Standard
  9
$CMLJUST
 70
0
  9
$CMLSCALE
 40
20.0
  9
$PROXYGRAPHICS
 70
1
  9
$MEASUREMENT
 70
1
  9
$CELWEIGHT
370
-1
  9
$ENDCAPS
280
0
  9
$JOINSTYLE
280
0
  9
$LWDISPLAY
290
0
  9
$INSUNITS
 70
4
  9
$HYPERLINKBASE
  1

  9
$STYLESHEET
  1

  9
$XEDIT
290
1
  9
$CEPSNTYPE
380
0
  9
$PSTYLEMODE
290
1
  9
$FINGERPRINTGUID
  2
{58757E2F-47B6-4778-8804-51D9537CD431}
  9
$VERSIONGUID
  2
{FFCF3BBB-3F0C-4E13-8AB6-9D63030477E5}
  9
$EXTNAMES
290
1
  9
$PSVPSCALE
 40
0.0
  9
$OLESTARTUP
290
0
  9
$SORTENTS
280
127
  9
$INDEXCTL
280
0
  9
$HIDETEXT
280
1
  9
$XCLIPFRAME
280
1
  9
$HALOGAP
280
0
  9
$OBSCOLOR
 70
257
  9
$OBSLTYPE
280
0
  9
$INTERSECTIONDISPLAY
280
0
  9
$INTERSECTIONCOLOR
 70
257
  9
$DIMASSOC
280
2
  9
$PROJECTNAME
  1

  9
$CAMERADISPLAY
290
0
  9
$LENSLENGTH
 40
50.0
  9
$CAMERAHEIGHT
 40
0.0
  9
$STEPSPERSEC
 40
24.0
  9
$STEPSIZE
 40
100.0
  9
$3DDWFPREC
 40
2.0
  9
$PSOLWIDTH
 40
0.005
  9
$PSOLHEIGHT
 40
0.08
  9
$LOFTANG1
 40
1.570796326795
  9
$LOFTANG2
 40
1.570796326795
  9
$LOFTMAG1
 40
0.0
  9
$LOFTMAG2
 40
0.0
  9
$LOFTPARAM
 70
7
  9
$LOFTNORMALS
280
1
  9
$LATITUDE
 40
37.795
  9
$LONGITUDE
 40
-122.394
  9
$NORTHDIRECTION
 40
0.0
  9
$TIMEZONE
 70
-8000
  9
$LIGHTGLYPHDISPLAY
280
1
  9
$TILEMODELIGHTSYNCH
280
1
  9
$CMATERIAL
347
20
  9
$SOLIDHIST
280
0
  9
$SHOWHIST
280
1
  9
$DWFFRAME
280
2
  9
$DGNFRAME
280
2
  9
$REALWORLDSCALE
290
1
  9
$INTERFERECOLOR
 62
256
  9
$CSHADOW
280
0
  9
$SHADOWPLANELOCATION
 40
0.0
  0
ENDSEC
  0
SECTION
  2
CLASSES
  0
CLASS
  1
ACDBDICTIONARYWDFLT
  2
AcDbDictionaryWithDefault
  3
ObjectDBX Classes
 90
0
 91
0
280
0
281
0
  0
CLASS
  1
SUN
  2
AcDbSun
  3
SCENEOE
 90
1153
 91
0
280
0
281
0
  0
CLASS
  1
VISUALSTYLE
  2
AcDbVisualStyle
  3
ObjectDBX Classes
 90
4095
 91
0
280
0
281
0
  0
CLASS
  1
MATERIAL
  2
AcDbMaterial
  3
ObjectDBX Classes
 90
1153
 91
0
280
0
281
0
  0
CLASS
  1
SCALE
  2
AcDbScale
  3
ObjectDBX Classes
 90
1153
 91
0
280
0
281
0
  0
CLASS
  1
TABLESTYLE
  2
AcDbTableStyle
  3
ObjectDBX Classes
 90
4095
 91
0
280
0
281
0
  0
CLASS
  1
MLEADERSTYLE
  2
AcDbMLeaderStyle
  3
ACDB_MLEADERSTYLE_CLASS
 90
4095
 91
0
280
0
281
0
  0
CLASS
  1
DICTIONARYVAR
  2
AcDbDictionaryVar
  3
ObjectDBX Classes
 90
0
 91
0
280
0
281
0
  0
CLASS
  1
CELLSTYLEMAP
  2
AcDbCellStyleMap
  3
ObjectDBX Classes
 90
1152
 91
0
280
0
281
0
  0
CLASS
  1
MENTALRAYRENDERSETTINGS
  2
AcDbMentalRayRenderSettings
  3
SCENEOE
 90
1024
 91
0
280
0
281
0
  0
CLASS
  1
ACDBDETAILVIEWSTYLE
  2
AcDbDetailViewStyle
  3
ObjectDBX Classes
 90
1025
 91
0
280
0
281
0
  0
CLASS
  1
ACDBSECTIONVIEWSTYLE
  2
AcDbSectionViewStyle
  3
ObjectDBX Classes
 90
1025
 91
0
280
0
281
0
  0
CLASS
  1
RASTERVARIABLES
  2
AcDbRasterVariables
  3
ISM
 90
0
 91
0
280
0
281
0
  0
CLASS
  1
ACDBPLACEHOLDER
  2
AcDbPlaceHolder
  3
ObjectDBX Classes
 90
0
 91
0
280
0
281
0
  0
CLASS
  1
LAYOUT
  2
AcDbLayout
  3
ObjectDBX Classes
 90
0
 91
0
280
0
281
0
  0
ENDSEC
  0
SECTION
  2
TABLES
  0
TABLE
  2
VPORT
  5
8
330
0
100
AcDbSymbolTable
 70
1
  0
VPORT
  5
23
330
8
100
AcDbSymbolTableRecord
100
AcDbViewportTableRecord
  2
*Active
 70
0
 10
0.0
 20
0.0
 11
1.0
 21
1.0
 12
0.0
 22
0.0
 13
0.0
 23
0.0
 14
0.5
 24
0.5
 15
0.5
 25
0.5
 16
0.0
 26
0.0
 36
1.0
 17
0.0
 27
0.0
 37
0.0
 40
1000.0
 41
1.34
 42
50.0
 43
0.0
 44
0.0
 50
0.0
 51
0.0
 71
0
 72
1000
 73
1
 74
3
 75
0
 76
0
 77
0
 78
0
281
0
 65
0
146
0.0
  0
ENDTAB
  0
TABLE
  2
LTYPE
  5
2
330
0
100
AcDbSymbolTable
 70
4
  0
LTYPE
  5
24
330
2
100
AcDbSymbolTableRecord
100
AcDbLinetypeTableRecord
  2
ByBlock
 70
0
  3

 72
65
 73
0
 40
0.0
  0
LTYPE
  5
25
330
2
100
AcDbSymbolTableRecord
100
AcDbLinetypeTableRecord
  2
ByLayer
 70
0
  3

 72
65
 73
0
 40
0.0
  0
LTYPE
  5
26
330
2
100
AcDbSymbolTableRecord
100
AcDbLinetypeTableRecord
  2
Continuous
 70
0
  3

 72
65
 73
0
 40
0.0
  0
LTYPE
  5
60
330
2
100
AcDbSymbolTableRecord
100
AcDbLinetypeTableRecord
  2
HIDDEN
 70
0
  3
Hidden __ __ __ __ __ __ __ __ __ __ __ __ __ __
 72
65
 73
2
 40
1.905
 49
1.27
 74
0
 49
-0.635
 74
0
  0
ENDTAB
  0
TABLE
  2
LAYER
  5
1
330
0
100
AcDbSymbolTable
 70
17
  0
LAYER
  5
27
330
1
100
AcDbSymbolTableRecord
100
AcDbLayerTableRecord
  2
0
 70
0
 62
7
  6
Continuous
370
-3
390
13
347
21
  0
LAYER
  5
28
330
1
100
AcDbSymbolTableRecord
100
AcDbLayerTableRecord
  2
Defpoints
 70
0
 62
7
  6
Continuous
290
0
370
-3
390
13
347
21
  0
LAYER
  5
2F
330
1
100
AcDbSymbolTableRecord
100
AcDbLayerTableRecord
  2
OuterContour
 70
0
 62
3
  6
Continuous
370
-3
390
13
347
21
  0
LAYER
  5
30
330
1
100
AcDbSymbolTableRecord
100
AcDbLayerTableRecord
  2
InnerContour
 70
0
 62
2
  6
Continuous
370
-3
390
13
347
21
  0
LAYER
  5
31
330
1
100
AcDbSymbolTableRecord
100
AcDbLayerTableRecord
  2
Annotation
 70
0
 62
7
  6
Continuous
370
-3
390
13
347
21
  0
LAYER
  5
32
330
1
100
AcDbSymbolTableRecord
100
AcDbLayerTableRecord
  2
Trash
 70
0
 62
1
  6
Continuous
370
-3
390
13
347
21
  0
LAYER
  5
33
330
1
100
AcDbSymbolTableRecord
100
AcDbLayerTableRecord
  2
Frame
 70
0
 62
8
420
1315860
  6
Continuous
370
-3
390
13
347
21
  0
LAYER
  5
34
330
1
100
AcDbSymbolTableRecord
100
AcDbLayerTableRecord
  2
TitleBlock
 70
0
 62
8
420
1315860
  6
Continuous
370
-3
390
13
347
21
  0
LAYER
  5
35
330
1
100
AcDbSymbolTableRecord
100
AcDbLayerTableRecord
  2
Construction
 70
0
 62
8
420
13122590
  6
Continuous
370
-3
390
13
347
21
  0
LAYER
  5
36
330
1
100
AcDbSymbolTableRecord
100
AcDbLayerTableRecord
  2
Hole
 70
0
 62
8
420
9830600
  6
Continuous
370
-3
390
13
347
21
  0
LAYER
  5
37
330
1
100
AcDbSymbolTableRecord
100
AcDbLayerTableRecord
  2
ThreadHole
 70
0
 62
8
420
41120
  6
Continuous
370
-3
390
13
347
21
  0
LAYER
  5
38
330
1
100
AcDbSymbolTableRecord
100
AcDbLayerTableRecord
  2
Countersink
 70
0
 62
8
420
2637020
  6
Continuous
370
-3
390
13
347
21
  0
LAYER
  5
39
330
1
100
AcDbSymbolTableRecord
100
AcDbLayerTableRecord
  2
Counterbore
 70
0
 62
8
420
13135590
  6
Continuous
370
-3
390
13
347
21
  0
LAYER
  5
3A
330
1
100
AcDbSymbolTableRecord
100
AcDbLayerTableRecord
  2
SeatedHole
 70
0
 62
8
420
14428280
  6
Continuous
370
-3
390
13
347
21
  0
LAYER
  5
3B
330
1
100
AcDbSymbolTableRecord
100
AcDbLayerTableRecord
  2
Slot
 70
0
 62
8
420
15104000
  6
Continuous
370
-3
390
13
347
21
  0
LAYER
  5
3C
330
1
100
AcDbSymbolTableRecord
100
AcDbLayerTableRecord
  2
Opening
 70
0
 62
8
420
38470
  6
Continuous
370
-3
390
13
347
21
  0
LAYER
  5
3D
330
1
100
AcDbSymbolTableRecord
100
AcDbLayerTableRecord
  2
geometry
 70
0
 62
8
  6
Continuous
370
-3
390
13
347
21
  0
ENDTAB
  0
TABLE
  2
STYLE
  5
5
330
0
100
AcDbSymbolTable
 70
1
  0
STYLE
  5
29
330
5
100
AcDbSymbolTableRecord
100
AcDbTextStyleTableRecord
  2
Standard
 70
0
 40
0.0
 41
1.0
 50
0.0
 71
0
 42
2.5
  3
txt
  4

  0
ENDTAB
  0
TABLE
  2
VIEW
  5
7
330
0
100
AcDbSymbolTable
 70
0
  0
ENDTAB
  0
TABLE
  2
UCS
  5
6
330
0
100
AcDbSymbolTable
 70
0
  0
ENDTAB
  0
TABLE
  2
APPID
  5
3
330
0
100
AcDbSymbolTable
 70
3
  0
APPID
  5
2A
330
3
100
AcDbSymbolTableRecord
100
AcDbRegAppTableRecord
  2
ACAD
 70
0
  0
APPID
  5
AF
330
3
100
AcDbSymbolTableRecord
100
AcDbRegAppTableRecord
  2
HATCHBACKGROUNDCOLOR
 70
0
  0
APPID
  5
B0
330
3
100
AcDbSymbolTableRecord
100
AcDbRegAppTableRecord
  2
EZDXF
 70
0
  0
ENDTAB
  0
TABLE
  2
DIMSTYLE
  5
4
330
0
100
AcDbSymbolTable
 70
1
100
AcDbDimStyleTable
  0
DIMSTYLE
105
2B
330
4
100
AcDbSymbolTableRecord
100
AcDbDimStyleTableRecord
  2
Standard
 70
0
 40
1.0
 41
2.5
 42
0.625
 43
3.75
 44
1.25
 45
0.0
 46
0.0
 47
0.0
 48
0.0
 49
2.5
140
2.5
141
2.5
142
0.0
143
0.03937007874
144
1.0
145
0.0
146
1.0
147
0.625
148
0.0
 69
0
 70
0
 71
0
 72
0
 73
0
 74
0
 75
0
 76
0
 77
1
 78
8
 79
3
170
0
171
3
172
1
173
0
174
0
175
0
176
0
177
0
178
0
179
2
271
2
272
2
273
2
274
3
275
0
276
0
277
2
278
44
279
0
280
0
281
0
282
0
283
0
284
8
285
0
286
0
288
0
289
3
290
0
371
-2
372
-2
  0
ENDTAB
  0
TABLE
  2
BLOCK_RECORD
  5
9
330
0
100
AcDbSymbolTable
 70
2
  0
BLOCK_RECORD
  5
17
330
9
100
AcDbSymbolTableRecord
100
AcDbBlockTableRecord
  2
*Model_Space
340
1A
 70
0
280
1
281
0
  0
BLOCK_RECORD
  5
1B
330
9
100
AcDbSymbolTableRecord
100
AcDbBlockTableRecord
  2
*Paper_Space
340
1E
 70
0
280
1
281
0
  0
ENDTAB
  0
ENDSEC
  0
SECTION
  2
BLOCKS
  0
BLOCK
  5
18
330
17
100
AcDbEntity
  8
0
100
AcDbBlockBegin
  2
*Model_Space
 70
0
 10
0.0
 20
0.0
 30
0.0
  3
*Model_Space
  1

  0
ENDBLK
  5
19
330
17
100
AcDbEntity
  8
0
100
AcDbBlockEnd
  0
BLOCK
  5
1C
330
1B
100
AcDbEntity
  8
0
100
AcDbBlockBegin
  2
*Paper_Space
 70
0
 10
0.0
 20
0.0
 30
0.0
  3
*Paper_Space
  1

  0
ENDBLK
  5
1D
330
1B
100
AcDbEntity
  8
0
100
AcDbBlockEnd
  0
ENDSEC
  0
SECTION
  2
ENTITIES
  0
LWPOLYLINE
  5
3E
330
17
100
AcDbEntity
  8
geometry
  6
Continuous
100
AcDbPolyline
 90
2
 70
0
 10
2.5
 20
105.0
 10
10.0
 20
105.0
  0
LWPOLYLINE
  5
3F
330
17
100
AcDbEntity
  8
geometry
  6
Continuous
100
AcDbPolyline
 90
2
 70
0
 10
148.5
 20
207.5
 10
148.5
 20
200.0
  0
LWPOLYLINE
  5
40
330
17
100
AcDbEntity
  8
geometry
  6
Continuous
100
AcDbPolyline
 90
2
 70
0
 10
294.5
 20
105.0
 10
287.0
 20
105.0
  0
LWPOLYLINE
  5
41
330
17
100
AcDbEntity
  8
geometry
  6
Continuous
100
AcDbPolyline
 90
2
 70
0
 10
148.5
 20
2.5
 10
148.5
 20
10.0
  0
LWPOLYLINE
  5
42
330
17
100
AcDbEntity
  8
geometry
  6
Continuous
100
AcDbPolyline
 90
2
 70
0
 10
10.0
 20
55.0
 10
2.5
 20
55.0
  0
LWPOLYLINE
  5
43
330
17
100
AcDbEntity
  8
geometry
  6
Continuous
100
AcDbPolyline
 90
2
 70
0
 10
287.0
 20
55.0
 10
294.5
 20
55.0
  0
LWPOLYLINE
  5
44
330
17
100
AcDbEntity
  8
geometry
  6
Continuous
100
AcDbPolyline
 90
2
 70
0
 10
10.0
 20
155.0
 10
2.5
 20
155.0
  0
LWPOLYLINE
  5
45
330
17
100
AcDbEntity
  8
geometry
  6
Continuous
100
AcDbPolyline
 90
2
 70
0
 10
287.0
 20
155.0
 10
294.5
 20
155.0
  0
LWPOLYLINE
  5
46
330
17
100
AcDbEntity
  8
geometry
  6
Continuous
100
AcDbPolyline
 90
2
 70
0
 10
48.5
 20
200.0
 10
48.5
 20
207.5
  0
LWPOLYLINE
  5
47
330
17
100
AcDbEntity
  8
geometry
  6
Continuous
100
AcDbPolyline
 90
2
 70
0
 10
48.5
 20
10.0
 10
48.5
 20
2.5
  0
LWPOLYLINE
  5
48
330
17
100
AcDbEntity
  8
geometry
  6
Continuous
100
AcDbPolyline
 90
2
 70
0
 10
98.5
 20
200.0
 10
98.5
 20
207.5
  0
LWPOLYLINE
  5
49
330
17
100
AcDbEntity
  8
geometry
  6
Continuous
100
AcDbPolyline
 90
2
 70
0
 10
98.5
 20
10.0
 10
98.5
 20
2.5
  0
LWPOLYLINE
  5
4A
330
17
100
AcDbEntity
  8
geometry
  6
Continuous
100
AcDbPolyline
 90
2
 70
0
 10
198.5
 20
200.0
 10
198.5
 20
207.5
  0
LWPOLYLINE
  5
4B
330
17
100
AcDbEntity
  8
geometry
  6
Continuous
100
AcDbPolyline
 90
2
 70
0
 10
198.5
 20
10.0
 10
198.5
 20
2.5
  0
LWPOLYLINE
  5
4C
330
17
100
AcDbEntity
  8
geometry
  6
Continuous
100
AcDbPolyline
 90
2
 70
0
 10
248.5
 20
200.0
 10
248.5
 20
207.5
  0
LWPOLYLINE
  5
4D
330
17
100
AcDbEntity
  8
geometry
  6
Continuous
100
AcDbPolyline
 90
2
 70
0
 10
248.5
 20
10.0
 10
248.5
 20
2.5
  0
LWPOLYLINE
  5
4E
330
17
100
AcDbEntity
  8
geometry
  6
Continuous
100
AcDbPolyline
 90
2
 70
0
 10
212.9718765327
 20
152.145751609
 10
259.991799266
 20
152.145751609
  0
LWPOLYLINE
  5
4F
330
17
100
AcDbEntity
  8
geometry
  6
Continuous
100
AcDbPolyline
 90
2
 70
0
 10
259.991799266
 20
144.261221631
 10
259.991799266
 20
152.145751609
  0
CIRCLE
  5
50
330
17
100
AcDbEntity
  8
geometry
  6
Continuous
100
AcDbCircle
 10
229.9917975996
 20
149.1457488105
 30
0.0
 40
1.000001943124012
  0
LWPOLYLINE
  5
51
330
17
100
AcDbEntity
  8
geometry
  6
Continuous
100
AcDbPolyline
 90
2
 70
0
 10
259.991799266
 20
143.8282089741
 10
259.991799266
 20
144.261221631
  0
LWPOLYLINE
  5
52
330
17
100
AcDbEntity
  8
geometry
  6
Continuous
100
AcDbPolyline
 90
2
 70
0
 10
210.5169757911
 20
140.8859439628
 10
259.991799266
 20
140.8859439628
  0
LWPOLYLINE
  5
53
330
17
100
AcDbEntity
  8
geometry
  6
Continuous
100
AcDbPolyline
 90
2
 70
0
 10
259.991799266
 20
140.8859439628
 10
259.991799266
 20
143.8282089741
  0
LWPOLYLINE
  5
54
330
17
100
AcDbEntity
  8
geometry
  6
Continuous
100
AcDbPolyline
 90
2
 70
0
 10
148.0636283616
 20
152.145751609
 10
202.9718741635
 20
152.145751609
  0
CIRCLE
  5
55
330
17
100
AcDbEntity
  8
geometry
  6
Continuous
100
AcDbCircle
 10
168.3604477103
 20
149.1457495945
 30
0.0
 40
1.000000599926129
  0
LWPOLYLINE
  5
56
330
17
100
AcDbEntity
  8
geometry
  6
Continuous
100
AcDbPolyline
 90
2
 70
0
 10
145.6087246398
 20
140.8859439628
 10
200.516973422
 20
140.8859439628
  0
LWPOLYLINE
  5
57
330
17
100
AcDbEntity
  8
geometry
  6
Continuous
100
AcDbPolyline
 90
2
 70
0
 10
87.3962490003
 20
152.145751609
 10
138.0636287968
 20
152.145751609
  0
CIRCLE
  5
58
330
17
100
AcDbEntity
  8
geometry
  6
Continuous
100
AcDbCircle
 10
109.2660325701
 20
149.1457513552
 30
0.0
 40
1.000000727435987
  0
LWPOLYLINE
  5
59
330
17
100
AcDbEntity
  8
geometry
  6
Continuous
100
AcDbPolyline
 90
2
 70
0
 10
84.9413482587
 20
140.8859439628
 10
135.6087235849
 20
140.8859439628
  0
LWPOLYLINE
  5
5A
330
17
100
AcDbEntity
  8
geometry
  6
Continuous
100
AcDbPolyline
 90
2
 70
0
 10
29.1797430104
 20
144.261221631
 10
29.1797430104
 20
152.145751609
  0
LWPOLYLINE
  5
5B
330
17
100
AcDbEntity
  8
geometry
  6
Continuous
100
AcDbPolyline
 90
2
 70
0
 10
29.1797430104
 20
152.145751609
 10
77.3962528294
 20
152.145751609
  0
CIRCLE
  5
5C
330
17
100
AcDbEntity
  8
geometry
  6
Continuous
100
AcDbCircle
 10
59.1797437282
 20
149.1457488105
 30
0.0
 40
1.000001943124012
  0
LWPOLYLINE
  5
5D
330
17
100
AcDbEntity
  8
geometry
  6
Continuous
100
AcDbPolyline
 90
2
 70
0
 10
29.1797430104
 20
143.8282089741
 10
29.1797430104
 20
144.261221631
  0
LWPOLYLINE
  5
5E
330
17
100
AcDbEntity
  8
geometry
  6
Continuous
100
AcDbPolyline
 90
2
 70
0
 10
29.1797430104
 20
140.8859439628
 10
74.9413520879
 20
140.8859439628
  0
LWPOLYLINE
  5
5F
330
17
100
AcDbEntity
  8
geometry
  6
Continuous
100
AcDbPolyline
 90
2
 70
0
 10
29.1797430104
 20
140.8859439628
 10
29.1797430104
 20
143.8282089741
  0
LWPOLYLINE
  5
61
330
17
100
AcDbEntity
  8
geometry
  6
HIDDEN
100
AcDbPolyline
 90
2
 70
0
 10
76.1687994774
 20
155.3207515965
 10
78.1687994774
 20
152.9182996912
  0
LWPOLYLINE
  5
62
330
17
100
AcDbEntity
  8
geometry
  6
HIDDEN
100
AcDbPolyline
 90
2
 70
0
 10
78.1687994774
 20
152.9182996912
 10
74.1687994774
 20
148.9182996912
  0
LWPOLYLINE
  5
63
330
17
100
AcDbEntity
  8
geometry
  6
HIDDEN
100
AcDbPolyline
 90
2
 70
0
 10
74.1687994774
 20
148.9182996912
 10
78.1687994774
 20
144.1133958806
  0
LWPOLYLINE
  5
64
330
17
100
AcDbEntity
  8
geometry
  6
HIDDEN
100
AcDbPolyline
 90
2
 70
0
 10
78.1687994774
 20
144.1133958806
 10
74.1687994774
 20
140.1133958806
  0
LWPOLYLINE
  5
65
330
17
100
AcDbEntity
  8
geometry
  6
HIDDEN
100
AcDbPolyline
 90
2
 70
0
 10
74.1687994774
 20
140.1133958806
 10
76.1687994774
 20
137.7109439753
  0
LWPOLYLINE
  5
66
330
17
100
AcDbEntity
  8
geometry
  6
HIDDEN
100
AcDbPolyline
 90
2
 70
0
 10
86.1687994774
 20
155.3207515965
 10
88.1687994774
 20
152.9182996912
  0
LWPOLYLINE
  5
67
330
17
100
AcDbEntity
  8
geometry
  6
HIDDEN
100
AcDbPolyline
 90
2
 70
0
 10
88.1687994774
 20
152.9182996912
 10
84.1687994774
 20
148.9182996912
  0
LWPOLYLINE
  5
68
330
17
100
AcDbEntity
  8
geometry
  6
HIDDEN
100
AcDbPolyline
 90
2
 70
0
 10
84.1687994774
 20
148.9182996912
 10
88.1687994774
 20
144.1133958806
  0
LWPOLYLINE
  5
69
330
17
100
AcDbEntity
  8
geometry
  6
HIDDEN
100
AcDbPolyline
 90
2
 70
0
 10
88.1687994774
 20
144.1133958806
 10
84.1687994774
 20
140.1133958806
  0
LWPOLYLINE
  5
6A
330
17
100
AcDbEntity
  8
geometry
  6
HIDDEN
100
AcDbPolyline
 90
2
 70
0
 10
84.1687994774
 20
140.1133958806
 10
86.1687994774
 20
137.7109439753
  0
LWPOLYLINE
  5
6B
330
17
100
AcDbEntity
  8
geometry
  6
HIDDEN
100
AcDbPolyline
 90
2
 70
0
 10
136.8361762362
 20
155.3207515965
 10
138.8361762362
 20
152.9182996912
  0
LWPOLYLINE
  5
6C
330
17
100
AcDbEntity
  8
geometry
  6
HIDDEN
100
AcDbPolyline
 90
2
 70
0
 10
138.8361762362
 20
152.9182996912
 10
134.8361762362
 20
148.9182996912
  0
LWPOLYLINE
  5
6D
330
17
100
AcDbEntity
  8
geometry
  6
HIDDEN
100
AcDbPolyline
 90
2
 70
0
 10
134.8361762362
 20
148.9182996912
 10
138.8361762362
 20
144.1133958806
  0
LWPOLYLINE
  5
6E
330
17
100
AcDbEntity
  8
geometry
  6
HIDDEN
100
AcDbPolyline
 90
2
 70
0
 10
138.8361762362
 20
144.1133958806
 10
134.8361762362
 20
140.1133958806
  0
LWPOLYLINE
  5
6F
330
17
100
AcDbEntity
  8
geometry
  6
HIDDEN
100
AcDbPolyline
 90
2
 70
0
 10
134.8361762362
 20
140.1133958806
 10
136.8361762362
 20
137.7109439753
  0
LWPOLYLINE
  5
70
330
17
100
AcDbEntity
  8
geometry
  6
HIDDEN
100
AcDbPolyline
 90
2
 70
0
 10
146.8361762362
 20
155.3207515965
 10
148.8361762362
 20
152.9182996912
  0
LWPOLYLINE
  5
71
330
17
100
AcDbEntity
  8
geometry
  6
HIDDEN
100
AcDbPolyline
 90
2
 70
0
 10
148.8361762362
 20
152.9182996912
 10
144.8361762362
 20
148.9182996912
  0
LWPOLYLINE
  5
72
330
17
100
AcDbEntity
  8
geometry
  6
HIDDEN
100
AcDbPolyline
 90
2
 70
0
 10
144.8361762362
 20
148.9182996912
 10
148.8361762362
 20
144.1133958806
  0
LWPOLYLINE
  5
73
330
17
100
AcDbEntity
  8
geometry
  6
HIDDEN
100
AcDbPolyline
 90
2
 70
0
 10
148.8361762362
 20
144.1133958806
 10
144.8361762362
 20
140.1133958806
  0
LWPOLYLINE
  5
74
330
17
100
AcDbEntity
  8
geometry
  6
HIDDEN
100
AcDbPolyline
 90
2
 70
0
 10
144.8361762362
 20
140.1133958806
 10
146.8361762362
 20
137.7109439753
  0
LWPOLYLINE
  5
75
330
17
100
AcDbEntity
  8
geometry
  6
HIDDEN
100
AcDbPolyline
 90
2
 70
0
 10
201.7444230625
 20
155.3207515965
 10
203.7444230625
 20
152.9182996912
  0
LWPOLYLINE
  5
76
330
17
100
AcDbEntity
  8
geometry
  6
HIDDEN
100
AcDbPolyline
 90
2
 70
0
 10
203.7444230625
 20
152.9182996912
 10
199.7444230625
 20
148.9182996912
  0
LWPOLYLINE
  5
77
330
17
100
AcDbEntity
  8
geometry
  6
HIDDEN
100
AcDbPolyline
 90
2
 70
0
 10
199.7444230625
 20
148.9182996912
 10
203.7444230625
 20
144.1133958806
  0
LWPOLYLINE
  5
78
330
17
100
AcDbEntity
  8
geometry
  6
HIDDEN
100
AcDbPolyline
 90
2
 70
0
 10
203.7444230625
 20
144.1133958806
 10
199.7444230625
 20
140.1133958806
  0
LWPOLYLINE
  5
79
330
17
100
AcDbEntity
  8
geometry
  6
HIDDEN
100
AcDbPolyline
 90
2
 70
0
 10
199.7444230625
 20
140.1133958806
 10
201.7444230625
 20
137.7109439753
  0
LWPOLYLINE
  5
7A
330
17
100
AcDbEntity
  8
geometry
  6
HIDDEN
100
AcDbPolyline
 90
2
 70
0
 10
211.7444230625
 20
155.3207515965
 10
213.7444230625
 20
152.9182996912
  0
LWPOLYLINE
  5
7B
330
17
100
AcDbEntity
  8
geometry
  6
HIDDEN
100
AcDbPolyline
 90
2
 70
0
 10
213.7444230625
 20
152.9182996912
 10
209.7444230625
 20
148.9182996912
  0
LWPOLYLINE
  5
7C
330
17
100
AcDbEntity
  8
geometry
  6
HIDDEN
100
AcDbPolyline
 90
2
 70
0
 10
209.7444230625
 20
148.9182996912
 10
213.7444230625
 20
144.1133958806
  0
LWPOLYLINE
  5
7D
330
17
100
AcDbEntity
  8
geometry
  6
HIDDEN
100
AcDbPolyline
 90
2
 70
0
 10
213.7444230625
 20
144.1133958806
 10
209.7444230625
 20
140.1133958806
  0
LWPOLYLINE
  5
7E
330
17
100
AcDbEntity
  8
geometry
  6
HIDDEN
100
AcDbPolyline
 90
2
 70
0
 10
209.7444230625
 20
140.1133958806
 10
211.7444230625
 20
137.7109439753
  0
LWPOLYLINE
  5
7F
330
17
100
AcDbEntity
  8
geometry
  6
Continuous
100
AcDbPolyline
 90
2
 70
0
 10
226.9073986564
 20
144.61893392472695
 42
0.26794919243112264
 10
226.9698986564
 20
144.7271871002
  0
LWPOLYLINE
  5
80
330
17
100
AcDbEntity
  8
geometry
  6
Continuous
100
AcDbPolyline
 90
2
 70
0
 10
226.86989865639998
 20
144.6838858300108
 42
0.26794919243112264
 10
226.8948986564
 20
144.7271871002
  0
LWPOLYLINE
  5
81
330
17
100
AcDbEntity
  8
geometry
  6
Continuous
100
AcDbPolyline
 90
2
 70
0
 10
226.8948986564
 20
146.6983195867
 10
226.9698986564
 20
146.6983195867
  0
LWPOLYLINE
  5
82
330
17
100
AcDbEntity
  8
geometry
  6
Continuous
100
AcDbPolyline
 90
2
 70
0
 10
226.9698986564
 20
144.7271871002
 10
226.9698986564
 20
146.6983195867
  0
LWPOLYLINE
  5
83
330
17
100
AcDbEntity
  8
geometry
  6
Continuous
100
AcDbPolyline
 90
2
 70
0
 10
226.8948986564
 20
144.7271871002
 10
226.8948986564
 20
146.6983195867
  0
LWPOLYLINE
  5
84
330
17
100
AcDbEntity
  8
geometry
  6
Continuous
100
AcDbPolyline
 90
2
 70
0
 10
225.6333605508
 20
143.8833676814
 10
225.5958605508
 20
143.9483195867
  0
LWPOLYLINE
  5
85
330
17
100
AcDbEntity
  8
geometry
  6
Continuous
100
AcDbPolyline
 90
2
 70
0
 10
225.5958605508
 20
143.9483195867
 10
226.8698986564
 20
144.68388583
  0
LWPOLYLINE
  5
86
330
17
100
AcDbEntity
  8
geometry
  6
Continuous
100
AcDbPolyline
 90
2
 70
0
 10
225.6333605508
 20
143.8833676814
 10
226.9073986564
 20
144.6189339247
  0
LWPOLYLINE
  5
87
330
17
100
AcDbEntity
  8
geometry
  6
Continuous
100
AcDbPolyline
 90
2
 70
0
 10
276.8881709758
 20
143.8282089484078
 42
0.26794919243112264
 10
277.1381709758
 20
144.2612216503
  0
LWPOLYLINE
  5
88
330
17
100
AcDbEntity
  8
geometry
  6
Continuous
100
AcDbPolyline
 90
2
 70
0
 10
276.7381709758
 20
144.08801656954307
 42
0.26794919243112264
 10
276.83817097580004
 20
144.2612216503
  0
LWPOLYLINE
  5
89
330
17
100
AcDbEntity
  8
geometry
  6
Continuous
100
AcDbPolyline
 90
2
 70
0
 10
276.8381709758
 20
152.1457515965
 10
277.1381709758
 20
152.1457515965
  0
LWPOLYLINE
  5
8A
330
17
100
AcDbEntity
  8
geometry
  6
Continuous
100
AcDbPolyline
 90
2
 70
0
 10
277.1381709758
 20
144.2612216503
 10
277.1381709758
 20
152.1457515965
  0
LWPOLYLINE
  5
8B
330
17
100
AcDbEntity
  8
geometry
  6
Continuous
100
AcDbPolyline
 90
2
 70
0
 10
276.8381709758
 20
144.2612216503
 10
276.8381709758
 20
152.1457515965
  0
LWPOLYLINE
  5
8C
330
17
100
AcDbEntity
  8
geometry
  6
Continuous
100
AcDbPolyline
 90
2
 70
0
 10
271.7920185531
 20
140.8859439753
 10
271.6420185531
 20
141.1457515965
  0
LWPOLYLINE
  5
8D
330
17
100
AcDbEntity
  8
geometry
  6
Continuous
100
AcDbPolyline
 90
2
 70
0
 10
271.6420185531
 20
141.1457515965
 10
276.7381709758
 20
144.0880165695
  0
LWPOLYLINE
  5
8E
330
17
100
AcDbEntity
  8
geometry
  6
Continuous
100
AcDbPolyline
 90
2
 70
0
 10
271.7920185531
 20
140.8859439753
 10
276.8881709758
 20
143.8282089484
  0
LWPOLYLINE
  5
8F
330
17
100
AcDbEntity
  8
geometry
  6
Continuous
100
AcDbPolyline
 90
2
 70
0
 10
229.9918040344
 20
149.1457516761
 10
229.9918040344
 20
149.6457517581
  0
LWPOLYLINE
  5
90
330
17
100
AcDbEntity
  8
geometry
  6
Continuous
100
AcDbPolyline
 90
2
 70
0
 10
229.9918040344
 20
149.1457516761
 10
229.4918045112
 20
149.1457516761
  0
LWPOLYLINE
  5
91
330
17
100
AcDbEntity
  8
geometry
  6
Continuous
100
AcDbPolyline
 90
2
 70
0
 10
229.9918040344
 20
149.1457516761
 10
229.9918040344
 20
148.64575159409998
  0
LWPOLYLINE
  5
92
330
17
100
AcDbEntity
  8
geometry
  6
Continuous
100
AcDbPolyline
 90
2
 70
0
 10
229.9918040344
 20
149.1457516761
 10
230.49180355759998
 20
149.1457516761
  0
LWPOLYLINE
  5
93
330
17
100
AcDbEntity
  8
geometry
  6
Continuous
100
AcDbPolyline
 90
2
 70
0
 10
229.9918040344
 20
150.1457516537
 10
229.9918040344
 20
150.6457515494
  0
LWPOLYLINE
  5
94
330
17
100
AcDbEntity
  8
geometry
  6
Continuous
100
AcDbPolyline
 90
2
 70
0
 10
228.9918049881
 20
149.1457516761
 10
228.491793544
 20
149.1457516761
  0
LWPOLYLINE
  5
95
330
17
100
AcDbEntity
  8
geometry
  6
Continuous
100
AcDbPolyline
 90
2
 70
0
 10
229.9918040344
 20
148.14575151219998
 10
229.9918040344
 20
147.64575161649998
  0
LWPOLYLINE
  5
96
330
17
100
AcDbEntity
  8
geometry
  6
Continuous
100
AcDbPolyline
 90
2
 70
0
 10
230.99180308069998
 20
149.1457516761
 10
231.4918026039
 20
149.1457516761
  0
LWPOLYLINE
  5
97
330
17
100
AcDbEntity
  8
geometry
  6
Continuous
100
AcDbPolyline
 90
2
 70
0
 10
109.2660335939
 20
149.1457516761
 10
109.2660335939
 20
149.6457517581
  0
LWPOLYLINE
  5
98
330
17
100
AcDbEntity
  8
geometry
  6
Continuous
100
AcDbPolyline
 90
2
 70
0
 10
109.2660335939
 20
149.1457516761
 10
108.7660340707
 20
149.1457516761
  0
LWPOLYLINE
  5
99
330
17
100
AcDbEntity
  8
geometry
  6
Continuous
100
AcDbPolyline
 90
2
 70
0
 10
109.2660335939
 20
149.1457516761
 10
109.2660335939
 20
148.64575159409998
  0
LWPOLYLINE
  5
9A
330
17
100
AcDbEntity
  8
geometry
  6
Continuous
100
AcDbPolyline
 90
2
 70
0
 10
109.2660335939
 20
149.1457516761
 10
109.76603311710001
 20
149.1457516761
  0
LWPOLYLINE
  5
9B
330
17
100
AcDbEntity
  8
geometry
  6
Continuous
100
AcDbPolyline
 90
2
 70
0
 10
109.2660335939
 20
150.1457516537
 10
109.2660335939
 20
150.6457515494
  0
LWPOLYLINE
  5
9C
330
17
100
AcDbEntity
  8
geometry
  6
Continuous
100
AcDbPolyline
 90
2
 70
0
 10
108.2660345476
 20
149.1457516761
 10
107.76603502440001
 20
149.1457516761
  0
LWPOLYLINE
  5
9D
330
17
100
AcDbEntity
  8
geometry
  6
Continuous
100
AcDbPolyline
 90
2
 70
0
 10
109.2660335939
 20
148.14575151219998
 10
109.2660335939
 20
147.64575161649998
  0
LWPOLYLINE
  5
9E
330
17
100
AcDbEntity
  8
geometry
  6
Continuous
100
AcDbPolyline
 90
2
 70
0
 10
110.26603264020001
 20
149.1457516761
 10
110.7660321634
 20
149.1457516761
  0
LWPOLYLINE
  5
9F
330
17
100
AcDbEntity
  8
geometry
  6
Continuous
100
AcDbPolyline
 90
2
 70
0
 10
168.3604463796
 20
149.1457516761
 10
168.3604463796
 20
149.6457517581
  0
LWPOLYLINE
  5
A0
330
17
100
AcDbEntity
  8
geometry
  6
Continuous
100
AcDbPolyline
 90
2
 70
0
 10
168.3604463796
 20
149.1457516761
 10
167.86044685640002
 20
149.1457516761
  0
LWPOLYLINE
  5
A1
330
17
100
AcDbEntity
  8
geometry
  6
Continuous
100
AcDbPolyline
 90
2
 70
0
 10
168.3604463796
 20
149.1457516761
 10
168.3604463796
 20
148.64575159409998
  0
LWPOLYLINE
  5
A2
330
17
100
AcDbEntity
  8
geometry
  6
Continuous
100
AcDbPolyline
 90
2
 70
0
 10
168.3604463796
 20
149.1457516761
 10
168.8604459028
 20
149.1457516761
  0
LWPOLYLINE
  5
A3
330
17
100
AcDbEntity
  8
geometry
  6
Continuous
100
AcDbPolyline
 90
2
 70
0
 10
168.3604463796
 20
150.1457516537
 10
168.3604463796
 20
150.6457515494
  0
LWPOLYLINE
  5
A4
330
17
100
AcDbEntity
  8
geometry
  6
Continuous
100
AcDbPolyline
 90
2
 70
0
 10
167.36044733330002
 20
149.1457516761
 10
166.8604478101
 20
149.1457516761
  0
LWPOLYLINE
  5
A5
330
17
100
AcDbEntity
  8
geometry
  6
Continuous
100
AcDbPolyline
 90
2
 70
0
 10
168.3604463796
 20
148.14575151219998
 10
168.3604463796
 20
147.64575161649998
  0
LWPOLYLINE
  5
A6
330
17
100
AcDbEntity
  8
geometry
  6
Continuous
100
AcDbPolyline
 90
2
 70
0
 10
169.3604454259
 20
149.1457516761
 10
169.8604449491
 20
149.1457516761
  0
LWPOLYLINE
  5
A7
330
17
100
AcDbEntity
  8
geometry
  6
Continuous
100
AcDbPolyline
 90
2
 70
0
 10
59.179738242
 20
149.1457516761
 10
59.179738242
 20
149.6457517581
  0
LWPOLYLINE
  5
A8
330
17
100
AcDbEntity
  8
geometry
  6
Continuous
100
AcDbPolyline
 90
2
 70
0
 10
59.179738242
 20
149.1457516761
 10
58.679738718799996
 20
149.1457516761
  0
LWPOLYLINE
  5
A9
330
17
100
AcDbEntity
  8
geometry
  6
Continuous
100
AcDbPolyline
 90
2
 70
0
 10
59.179738242
 20
149.1457516761
 10
59.179738242
 20
148.64575159409998
  0
LWPOLYLINE
  5
AA
330
17
100
AcDbEntity
  8
geometry
  6
Continuous
100
AcDbPolyline
 90
2
 70
0
 10
59.179738242
 20
149.1457516761
 10
59.6797377652
 20
149.1457516761
  0
LWPOLYLINE
  5
AB
330
17
100
AcDbEntity
  8
geometry
  6
Continuous
100
AcDbPolyline
 90
2
 70
0
 10
59.179738242
 20
150.1457516537
 10
59.179738242
 20
150.6457515494
  0
LWPOLYLINE
  5
AC
330
17
100
AcDbEntity
  8
geometry
  6
Continuous
100
AcDbPolyline
 90
2
 70
0
 10
58.1797391957
 20
149.1457516761
 10
57.6797396725
 20
149.1457516761
  0
LWPOLYLINE
  5
AD
330
17
100
AcDbEntity
  8
geometry
  6
Continuous
100
AcDbPolyline
 90
2
 70
0
 10
59.179738242
 20
148.14575151219998
 10
59.179738242
 20
147.64575161649998
  0
LWPOLYLINE
  5
AE
330
17
100
AcDbEntity
  8
geometry
  6
Continuous
100
AcDbPolyline
 90
2
 70
0
 10
60.1797372883
 20
149.1457516761
 10
60.6797487324
 20
149.1457516761
  0
ENDSEC
  0
SECTION
  2
OBJECTS
  0
DICTIONARY
  5
A
330
0
100
AcDbDictionary
281
1
  3
ACAD_COLOR
350
B
  3
ACAD_GROUP
350
C
  3
ACAD_LAYOUT
350
D
  3
ACAD_MATERIAL
350
E
  3
ACAD_MLEADERSTYLE
350
F
  3
ACAD_MLINESTYLE
350
10
  3
ACAD_PLOTSETTINGS
350
11
  3
ACAD_PLOTSTYLENAME
350
12
  3
ACAD_SCALELIST
350
14
  3
ACAD_TABLESTYLE
350
15
  3
ACAD_VISUALSTYLE
350
16
  3
EZDXF_META
350
2D
  0
DICTIONARY
  5
B
330
A
100
AcDbDictionary
281
1
  0
DICTIONARY
  5
C
330
A
100
AcDbDictionary
281
1
  0
DICTIONARY
  5
D
330
A
100
AcDbDictionary
281
1
  3
Model
350
1A
  3
Layout1
350
1E
  0
DICTIONARY
  5
E
330
A
100
AcDbDictionary
281
1
  3
ByBlock
350
1F
  3
ByLayer
350
20
  3
Global
350
21
  0
DICTIONARY
  5
F
330
A
100
AcDbDictionary
281
1
  3
Standard
350
2C
  0
DICTIONARY
  5
10
330
A
100
AcDbDictionary
281
1
  3
Standard
350
22
  0
DICTIONARY
  5
11
330
A
100
AcDbDictionary
281
1
  0
ACDBDICTIONARYWDFLT
  5
12
330
A
100
AcDbDictionary
281
1
  3
Normal
350
13
100
AcDbDictionaryWithDefault
340
13
  0
ACDBPLACEHOLDER
  5
13
330
12
  0
DICTIONARY
  5
14
330
A
100
AcDbDictionary
281
1
  0
DICTIONARY
  5
15
330
A
100
AcDbDictionary
281
1
  0
DICTIONARY
  5
16
330
A
100
AcDbDictionary
281
1
  0
LAYOUT
  5
1A
330
D
100
AcDbPlotSettings
  1

  4
A3
  6

 40
7.5
 41
20.0
 42
7.5
 43
20.0
 44
420.0
 45
297.0
 46
0.0
 47
0.0
 48
0.0
 49
0.0
140
0.0
141
0.0
142
1.0
143
1.0
 70
1024
 72
1
 73
0
 74
5
  7

 75
16
 76
0
 77
2
 78
300
147
1.0
148
0.0
149
0.0
100
AcDbLayout
  1
Model
 70
1
 71
0
 10
0.0
 20
0.0
 11
420.0
 21
297.0
 12
0.0
 22
0.0
 32
0.0
 14
1e+20
 24
1e+20
 34
1e+20
 15
-1e+20
 25
-1e+20
 35
-1e+20
146
0.0
 13
0.0
 23
0.0
 33
0.0
 16
1.0
 26
0.0
 36
0.0
 17
0.0
 27
1.0
 37
0.0
 76
1
330
17
  0
LAYOUT
  5
1E
330
D
100
AcDbPlotSettings
  1

  4
A3
  6

 40
7.5
 41
20.0
 42
7.5
 43
20.0
 44
420.0
 45
297.0
 46
0.0
 47
0.0
 48
0.0
 49
0.0
140
0.0
141
0.0
142
1.0
143
1.0
 70
0
 72
1
 73
0
 74
5
  7

 75
16
 76
0
 77
2
 78
300
147
1.0
148
0.0
149
0.0
100
AcDbLayout
  1
Layout1
 70
1
 71
1
 10
0.0
 20
0.0
 11
420.0
 21
297.0
 12
0.0
 22
0.0
 32
0.0
 14
1e+20
 24
1e+20
 34
1e+20
 15
-1e+20
 25
-1e+20
 35
-1e+20
146
0.0
 13
0.0
 23
0.0
 33
0.0
 16
1.0
 26
0.0
 36
0.0
 17
0.0
 27
1.0
 37
0.0
 76
1
330
1B
  0
MATERIAL
  5
1F
102
{ACAD_REACTORS
330
E
102
}
330
E
100
AcDbMaterial
  1
ByBlock
  2

 70
0
 40
1.0
 71
1
 41
1.0
 91
-1023410177
 42
1.0
 72
1
  3

 73
1
 74
1
 75
1
 44
0.5
 73
0
 45
1.0
 46
1.0
 77
1
  4

 78
1
 79
1
170
1
 48
1.0
171
1
  6

172
1
173
1
174
1
140
1.0
141
1.0
175
1
  7

176
1
177
1
178
1
143
1.0
179
1
  8

270
1
271
1
272
1
145
1.0
146
1.0
273
1
  9

274
1
275
1
276
1
 42
1.0
 72
1
  3

 73
1
 74
1
 75
1
 94
63
  0
MATERIAL
  5
20
102
{ACAD_REACTORS
330
E
102
}
330
E
100
AcDbMaterial
  1
ByLayer
  2

 70
0
 40
1.0
 71
1
 41
1.0
 91
-1023410177
 42
1.0
 72
1
  3

 73
1
 74
1
 75
1
 44
0.5
 73
0
 45
1.0
 46
1.0
 77
1
  4

 78
1
 79
1
170
1
 48
1.0
171
1
  6

172
1
173
1
174
1
140
1.0
141
1.0
175
1
  7

176
1
177
1
178
1
143
1.0
179
1
  8

270
1
271
1
272
1
145
1.0
146
1.0
273
1
  9

274
1
275
1
276
1
 42
1.0
 72
1
  3

 73
1
 74
1
 75
1
 94
63
  0
MATERIAL
  5
21
102
{ACAD_REACTORS
330
E
102
}
330
E
100
AcDbMaterial
  1
Global
  2

 70
0
 40
1.0
 71
1
 41
1.0
 91
-1023410177
 42
1.0
 72
1
  3

 73
1
 74
1
 75
1
 44
0.5
 73
0
 45
1.0
 46
1.0
 77
1
  4

 78
1
 79
1
170
1
 48
1.0
171
1
  6

172
1
173
1
174
1
140
1.0
141
1.0
175
1
  7

176
1
177
1
178
1
143
1.0
179
1
  8

270
1
271
1
272
1
145
1.0
146
1.0
273
1
  9

274
1
275
1
276
1
 42
1.0
 72
1
  3

 73
1
 74
1
 75
1
 94
63
  0
MLINESTYLE
  5
22
102
{ACAD_REACTORS
330
10
102
}
330
10
100
AcDbMlineStyle
  2
Standard
 70
0
  3

 62
256
 51
90.0
 52
90.0
 71
2
 49
0.5
 62
256
  6
BYLAYER
 49
-0.5
 62
256
  6
BYLAYER
  0
MLEADERSTYLE
  5
2C
102
{ACAD_REACTORS
330
F
102
}
330
F
100
AcDbMLeaderStyle
179
2
170
2
171
1
172
0
 90
2
 40
0.0
 41
0.0
173
1
 91
-1056964608
 92
-2
290
1
 42
2.0
291
1
 43
8.0
  3
Standard
 44
4.0
300

342
29
174
1
175
1
176
0
178
1
 93
-1056964608
 45
4.0
292
0
297
0
 46
4.0
 94
-1056964608
 47
1.0
 49
1.0
140
1.0
294
1
141
0.0
177
0
142
1.0
295
0
296
0
143
3.75
271
0
272
9
273
9
  0
DICTIONARY
  5
2D
330
A
100
AcDbDictionary
280
1
281
1
  3
CREATED_BY_EZDXF
350
2E
  3
WRITTEN_BY_EZDXF
350
B1
  0
DICTIONARYVAR
  5
2E
330
2D
100
DictionaryVariables
280
0
  1
1.4.4 @ 2026-10-05T16:51:19.713504+00:00
  0
DICTIONARYVAR
  5
B1
330
2D
100
DictionaryVariables
280
0
  1
1.4.4 @ 2026-10-05T16:51:19.718508+00:00
  0
ENDSEC
  0
EOF
