  0
SECTION
  2
HEADER
  9
$ACADVER
  1
AC1024
  9
$ACADMAINTVER
 70
6
  9
$DWGCODEPAGE
  3
ANSI_1252
  9
$LASTSAVEDBY
  1
ezdxf
  9
$INSBASE
 10
0.0
 20
0.0
 30
0.0
  9
$EXTMIN
 10
1e+20
 20
1e+20
 30
1e+20
  9
$EXTMAX
 10
-1e+20
 20
-1e+20
 30
-1e+20
  9
$LIMMIN
 10
0.0
 20
0.0
  9
$LIMMAX
 10
420.0
 20
297.0
  9
$ORTHOMODE
 70
0
  9
$REGENMODE
 70
1
  9
$FILLMODE
 70
1
  9
$QTEXTMODE
 70
0
  9
$MIRRTEXT
 70
1
  9
$LTSCALE
 40
1.0
  9
$ATTMODE
 70
1
  9
$TEXTSIZE
 40
2.5
  9
$TRACEWID
 40
1.0
  9
$TEXTSTYLE
  7
Standard
  9
$CLAYER
  8
0
  9
$CELTYPE
  6
ByLayer
  9
$CECOLOR
 62
256
  9
$CELTSCALE
 40
1.0
  9
$DISPSILH
 70
0
  9
$DIMSCALE
 40
1.0
  9
$DIMASZ
 40
2.5
  9
$DIMEXO
 40
0.625
  9
$DIMDLI
 40
3.75
  9
$DIMRND
 40
0.0
  9
$DIMDLE
 40
0.0
  9
$DIMEXE
 40
1.25
  9
$DIMTP
 40
0.0
  9
$DIMTM
 40
0.0
  9
$DIMTXT
 40
2.5
  9
$DIMCEN
 40
2.5
  9
$DIMTSZ
 40
0.0
  9
$DIMTOL
 70
0
  9
$DIMLIM
 70
0
  9
$DIMTIH
 70
0
  9
$DIMTOH
 70
0
  9
$DIMSE1
 70
0
  9
$DIMSE2
 70
0
  9
$DIMTAD
 70
1
  9
$DIMZIN
 70
8
  9
$DIMBLK
  1

  9
$DIMASO
 70
1
  9
$DIMSHO
 70
1
  9
$DIMPOST
  1

  9
$DIMAPOST
  1

  9
$DIMALT
 70
0
  9
$DIMALTD
 70
3
  9
$DIMALTF
 40
0.03937007874
  9
$DIMLFAC
 40
1.0
  9
$DIMTOFL
 70
1
  9
$DIMTVP
 40
0.0
  9
$DIMTIX
 70
0
  9
$DIMSOXD
 70
0
  9
$DIMSAH
 70
0
  9
$DIMBLK1
  1

  9
$DIMBLK2
  1

  9
$DIMSTYLE
  2
ISO-25
  9
$DIMCLRD
 70
0
  9
$DIMCLRE
 70
0
  9
$DIMCLRT
 70
0
  9
$DIMTFAC
 40
1.0
  9
$DIMGAP
 40
0.625
  9
$DIMJUST
 70
0
  9
$DIMSD1
 70
0
  9
$DIMSD2
 70
0
  9
$DIMTOLJ
 70
0
  9
$DIMTZIN
 70
8
  9
$DIMALTZ
 70
0
  9
$DIMALTTZ
 70
0
  9
$DIMUPT
 70
0
  9
$DIMDEC
 70
2
  9
$DIMTDEC
 70
2
  9
$DIMALTU
 70
2
  9
$DIMALTTD
 70
3
  9
$DIMTXSTY
  7
Standard
  9
$DIMAUNIT
 70
0
  9
$DIMADEC
 70
0
  9
$DIMALTRND
 40
0.0
  9
$DIMAZIN
 70
0
  9
$DIMDSEP
 70
44
  9
$DIMATFIT
 70
3
  9
$DIMFRAC
 70
0
  9
$DIMLDRBLK
  1

  9
$DIMLUNIT
 70
2
  9
$DIMLWD
 70
-2
  9
$DIMLWE
 70
-2
  9
$DIMTMOVE
 70
0
  9
$DIMFXL
 40
1.0
  9
$DIMFXLON
 70
0
  9
$DIMJOGANG
 40
0.785398163397
  9
$DIMTFILL
 70
0
  9
$DIMTFILLCLR
 70
0
  9
$DIMARCSYM
 70
0
  9
$DIMLTYPE
  6

  9
$DIMLTEX1
  6

  9
$DIMLTEX2
  6

  9
$DIMTXTDIRECTION
 70
0
  9
$LUNITS
 70
2
  9
$LUPREC
 70
4
  9
$SKETCHINC
 40
1.0
  9
$FILLETRAD
 40
10.0
  9
$AUNITS
 70
0
  9
$AUPREC
 70
2
  9
$MENU
  1
.
  9
$ELEVATION
 40
0.0
  9
$PELEVATION
 40
0.0
  9
$THICKNESS
 40
0.0
  9
$LIMCHECK
 70
0
  9
$CHAMFERA
 40
0.0
  9
$CHAMFERB
 40
0.0
  9
$CHAMFERC
 40
0.0
  9
$CHAMFERD
 40
0.0
  9
$SKPOLY
 70
0
  9
$TDCREATE
 40
2461141.50375
  9
$TDUCREATE
 40
2458532.153996898
  9
$TDUPDATE
 40
2461141.50375
  9
$TDUUPDATE
 40
2458532.1544311
  9
$TDINDWG
 40
0.0
  9
$TDUSRTIMER
 40
0.0
  9
$USRTIMER
 70
1
  9
$ANGBASE
 50
0.0
  9
$ANGDIR
 70
0
  9
$PDMODE
 70
0
  9
$PDSIZE
 40
0.0
  9
$PLINEWID
 40
0.0
  9
$SPLFRAME
 70
0
  9
$SPLINETYPE
 70
6
  9
$SPLINESEGS
 70
8
  9
$HANDSEED
  5
69
  9
$SURFTAB1
 70
6
  9
$SURFTAB2
 70
6
  9
$SURFTYPE
 70
6
  9
$SURFU
 70
6
  9
$SURFV
 70
6
  9
$UCSBASE
  2

  9
$UCSNAME
  2

  9
$UCSORG
 10
0.0
 20
0.0
 30
0.0
  9
$UCSXDIR
 10
1.0
 20
0.0
 30
0.0
  9
$UCSYDIR
 10
0.0
 20
1.0
 30
0.0
  9
$UCSORTHOREF
  2

  9
$UCSORTHOVIEW
 70
0
  9
$UCSORGTOP
 10
0.0
 20
0.0
 30
0.0
  9
$UCSORGBOTTOM
 10
0.0
 20
0.0
 30
0.0
  9
$UCSORGLEFT
 10
0.0
 20
0.0
 30
0.0
  9
$UCSORGRIGHT
 10
0.0
 20
0.0
 30
0.0
  9
$UCSORGFRONT
 10
0.0
 20
0.0
 30
0.0
  9
$UCSORGBACK
 10
0.0
 20
0.0
 30
0.0
  9
$PUCSBASE
  2

  9
$PUCSNAME
  2

  9
$PUCSORG
 10
0.0
 20
0.0
 30
0.0
  9
$PUCSXDIR
 10
1.0
 20
0.0
 30
0.0
  9
$PUCSYDIR
 10
0.0
 20
1.0
 30
0.0
  9
$PUCSORTHOREF
  2

  9
$PUCSORTHOVIEW
 70
0
  9
$PUCSORGTOP
 10
0.0
 20
0.0
 30
0.0
  9
$PUCSORGBOTTOM
 10
0.0
 20
0.0
 30
0.0
  9
$PUCSORGLEFT
 10
0.0
 20
0.0
 30
0.0
  9
$PUCSORGRIGHT
 10
0.0
 20
0.0
 30
0.0
  9
$PUCSORGFRONT
 10
0.0
 20
0.0
 30
0.0
  9
$PUCSORGBACK
 10
0.0
 20
0.0
 30
0.0
  9
$USERI1
 70
0
  9
$USERI2
 70
0
  9
$USERI3
 70
0
  9
$USERI4
 70
0
  9
$USERI5
 70
0
  9
$USERR1
 40
0.0
  9
$USERR2
 40
0.0
  9
$USERR3
 40
0.0
  9
$USERR4
 40
0.0
  9
$USERR5
 40
0.0
  9
$WORLDVIEW
 70
1
  9
$SHADEDGE
 70
3
  9
$SHADEDIF
 70
70
  9
$TILEMODE
 70
1
  9
$MAXACTVP
 70
64
  9
$PINSBASE
 10
0.0
 20
0.0
 30
0.0
  9
$PLIMCHECK
 70
0
  9
$PEXTMIN
 10
1e+20
 20
1e+20
 30
1e+20
  9
$PEXTMAX
 10
-1e+20
 20
-1e+20
 30
-1e+20
  9
$PLIMMIN
 10
0.0
 20
0.0
  9
$PLIMMAX
 10
420.0
 20
297.0
  9
$UNITMODE
 70
0
  9
$VISRETAIN
 70
1
  9
$PLINEGEN
 70
0
  9
$PSLTSCALE
 70
1
  9
$TREEDEPTH
 70
3020
  9
$CMLSTYLE
  2
Standard
  9
$CMLJUST
 70
0
  9
$CMLSCALE
 40
20.0
  9
$PROXYGRAPHICS
 70
1
  9
$MEASUREMENT
 70
1
  9
$CELWEIGHT
370
-1
  9
$ENDCAPS
280
0
  9
$JOINSTYLE
280
0
  9
$LWDISPLAY
290
0
  9
$INSUNITS
 70
6
  9
$HYPERLINKBASE
  1

  9
$STYLESHEET
  1

  9
$XEDIT
290
1
  9
$CEPSNTYPE
380
0
  9
$PSTYLEMODE
290
1
  9
$FINGERPRINTGUID
  2
{47819618-E715-4726-8D54-440AE717CD0D}
  9
$VERSIONGUID
  2
{25393EEE-F456-4FAA-A3B2-900A68BDB38B}
  9
$EXTNAMES
290
1
  9
$PSVPSCALE
 40
0.0
  9
$OLESTARTUP
290
0
  9
$SORTENTS
280
127
  9
$INDEXCTL
280
0
  9
$HIDETEXT
280
1
  9
$XCLIPFRAME
280
1
  9
$HALOGAP
280
0
  9
$OBSCOLOR
 70
257
  9
$OBSLTYPE
280
0
  9
$INTERSECTIONDISPLAY
280
0
  9
$INTERSECTIONCOLOR
 70
257
  9
$DIMASSOC
280
2
  9
$PROJECTNAME
  1

  9
$CAMERADISPLAY
290
0
  9
$LENSLENGTH
 40
50.0
  9
$CAMERAHEIGHT
 40
0.0
  9
$STEPSPERSEC
 40
24.0
  9
$STEPSIZE
 40
100.0
  9
$3DDWFPREC
 40
2.0
  9
$PSOLWIDTH
 40
0.005
  9
$PSOLHEIGHT
 40
0.08
  9
$LOFTANG1
 40
1.570796326795
  9
$LOFTANG2
 40
1.570796326795
  9
$LOFTMAG1
 40
0.0
  9
$LOFTMAG2
 40
0.0
  9
$LOFTPARAM
 70
7
  9
$LOFTNORMALS
280
1
  9
$LATITUDE
 40
37.795
  9
$LONGITUDE
 40
-122.394
  9
$NORTHDIRECTION
 40
0.0
  9
$TIMEZONE
 70
-8000
  9
$LIGHTGLYPHDISPLAY
280
1
  9
$TILEMODELIGHTSYNCH
280
1
  9
$CMATERIAL
347
20
  9
$SOLIDHIST
280
0
  9
$SHOWHIST
280
1
  9
$DWFFRAME
280
2
  9
$DGNFRAME
280
2
  9
$REALWORLDSCALE
290
1
  9
$INTERFERECOLOR
 62
256
  9
$CSHADOW
280
0
  9
$SHADOWPLANELOCATION
 40
0.0
  0
ENDSEC
  0
SECTION
  2
CLASSES
  0
CLASS
  1
ACDBDICTIONARYWDFLT
  2
AcDbDictionaryWithDefault
  3
ObjectDBX Classes
 90
0
 91
0
280
0
281
0
  0
CLASS
  1
SUN
  2
AcDbSun
  3
SCENEOE
 90
1153
 91
0
280
0
281
0
  0
CLASS
  1
VISUALSTYLE
  2
AcDbVisualStyle
  3
ObjectDBX Classes
 90
4095
 91
0
280
0
281
0
  0
CLASS
  1
MATERIAL
  2
AcDbMaterial
  3
ObjectDBX Classes
 90
1153
 91
0
280
0
281
0
  0
CLASS
  1
SCALE
  2
AcDbScale
  3
ObjectDBX Classes
 90
1153
 91
0
280
0
281
0
  0
CLASS
  1
TABLESTYLE
  2
AcDbTableStyle
  3
ObjectDBX Classes
 90
4095
 91
0
280
0
281
0
  0
CLASS
  1
MLEADERSTYLE
  2
AcDbMLeaderStyle
  3
ACDB_MLEADERSTYLE_CLASS
 90
4095
 91
0
280
0
281
0
  0
CLASS
  1
DICTIONARYVAR
  2
AcDbDictionaryVar
  3
ObjectDBX Classes
 90
0
 91
0
280
0
281
0
  0
CLASS
  1
CELLSTYLEMAP
  2
AcDbCellStyleMap
  3
ObjectDBX Classes
 90
1152
 91
0
280
0
281
0
  0
CLASS
  1
MENTALRAYRENDERSETTINGS
  2
AcDbMentalRayRenderSettings
  3
SCENEOE
 90
1024
 91
0
280
0
281
0
  0
CLASS
  1
ACDBDETAILVIEWSTYLE
  2
AcDbDetailViewStyle
  3
ObjectDBX Classes
 90
1025
 91
0
280
0
281
0
  0
CLASS
  1
ACDBSECTIONVIEWSTYLE
  2
AcDbSectionViewStyle
  3
ObjectDBX Classes
 90
1025
 91
0
280
0
281
0
  0
CLASS
  1
RASTERVARIABLES
  2
AcDbRasterVariables
  3
ISM
 90
0
 91
0
280
0
281
0
  0
CLASS
  1
LAYOUT
  2
AcDbLayout
  3
ObjectDBX Classes
 90
0
 91
0
280
0
281
0
  0
CLASS
  1
ACDBPLACEHOLDER
  2
AcDbPlaceHolder
  3
ObjectDBX Classes
 90
0
 91
0
280
0
281
0
  0
ENDSEC
  0
SECTION
  2
TABLES
  0
TABLE
  2
VPORT
  5
8
330
0
100
AcDbSymbolTable
 70
1
  0
VPORT
  5
23
330
8
100
AcDbSymbolTableRecord
100
AcDbViewportTableRecord
  2
*Active
 70
0
 10
0.0
 20
0.0
 11
1.0
 21
1.0
 12
0.0
 22
0.0
 13
0.0
 23
0.0
 14
0.5
 24
0.5
 15
0.5
 25
0.5
 16
0.0
 26
0.0
 36
1.0
 17
0.0
 27
0.0
 37
0.0
 40
1000.0
 41
1.34
 42
50.0
 43
0.0
 44
0.0
 50
0.0
 51
0.0
 71
0
 72
1000
 73
1
 74
3
 75
0
 76
0
 77
0
 78
0
281
0
 65
0
146
0.0
  0
ENDTAB
  0
TABLE
  2
LTYPE
  5
2
330
0
100
AcDbSymbolTable
 70
3
  0
LTYPE
  5
24
330
2
100
AcDbSymbolTableRecord
100
AcDbLinetypeTableRecord
  2
ByBlock
 70
0
  3

 72
65
 73
0
 40
0.0
  0
LTYPE
  5
25
330
2
100
AcDbSymbolTableRecord
100
AcDbLinetypeTableRecord
  2
ByLayer
 70
0
  3

 72
65
 73
0
 40
0.0
  0
LTYPE
  5
26
330
2
100
AcDbSymbolTableRecord
100
AcDbLinetypeTableRecord
  2
Continuous
 70
0
  3

 72
65
 73
0
 40
0.0
  0
ENDTAB
  0
TABLE
  2
LAYER
  5
1
330
0
100
AcDbSymbolTable
 70
4
  0
LAYER
  5
27
330
1
100
AcDbSymbolTableRecord
100
AcDbLayerTableRecord
  2
0
 70
0
 62
7
  6
Continuous
370
-3
390
13
347
21
  0
LAYER
  5
28
330
1
100
AcDbSymbolTableRecord
100
AcDbLayerTableRecord
  2
Defpoints
 70
0
 62
7
  6
Continuous
290
0
370
-3
390
13
347
21
  0
LAYER
  5
2F
330
1
100
AcDbSymbolTableRecord
100
AcDbLayerTableRecord
  2
InnerContour
 70
0
 62
2
  6
Continuous
370
-3
390
13
347
21
  0
LAYER
  5
30
330
1
100
AcDbSymbolTableRecord
100
AcDbLayerTableRecord
  2
OuterContour
 70
0
 62
3
  6
Continuous
370
-3
390
13
347
21
  0
ENDTAB
  0
TABLE
  2
STYLE
  5
5
330
0
100
AcDbSymbolTable
 70
1
  0
STYLE
  5
29
330
5
100
AcDbSymbolTableRecord
100
AcDbTextStyleTableRecord
  2
Standard
 70
0
 40
0.0
 41
1.0
 50
0.0
 71
0
 42
2.5
  3
txt
  4

  0
ENDTAB
  0
TABLE
  2
VIEW
  5
7
330
0
100
AcDbSymbolTable
 70
0
  0
ENDTAB
  0
TABLE
  2
UCS
  5
6
330
0
100
AcDbSymbolTable
 70
0
  0
ENDTAB
  0
TABLE
  2
APPID
  5
3
330
0
100
AcDbSymbolTable
 70
3
  0
APPID
  5
2A
330
3
100
AcDbSymbolTableRecord
100
AcDbRegAppTableRecord
  2
ACAD
 70
0
  0
APPID
  5
66
330
3
100
AcDbSymbolTableRecord
100
AcDbRegAppTableRecord
  2
HATCHBACKGROUNDCOLOR
 70
0
  0
APPID
  5
67
330
3
100
AcDbSymbolTableRecord
100
AcDbRegAppTableRecord
  2
EZDXF
 70
0
  0
ENDTAB
  0
TABLE
  2
DIMSTYLE
  5
4
330
0
100
AcDbSymbolTable
 70
1
100
AcDbDimStyleTable
  0
DIMSTYLE
105
2B
330
4
100
AcDbSymbolTableRecord
100
AcDbDimStyleTableRecord
  2
Standard
 70
0
 40
1.0
 41
2.5
 42
0.625
 43
3.75
 44
1.25
 45
0.0
 46
0.0
 47
0.0
 48
0.0
 49
2.5
140
2.5
141
2.5
142
0.0
143
0.03937007874
144
1.0
145
0.0
146
1.0
147
0.625
148
0.0
 69
0
 70
0
 71
0
 72
0
 73
0
 74
0
 75
0
 76
0
 77
1
 78
8
 79
3
170
0
171
3
172
1
173
0
174
0
175
0
176
0
177
0
178
0
179
2
271
2
272
2
273
2
274
3
275
0
276
0
277
2
278
44
279
0
280
0
281
0
282
0
283
0
284
8
285
0
286
0
288
0
289
3
290
0
371
-2
372
-2
  0
ENDTAB
  0
TABLE
  2
BLOCK_RECORD
  5
9
330
0
100
AcDbSymbolTable
 70
2
  0
BLOCK_RECORD
  5
17
330
9
100
AcDbSymbolTableRecord
100
AcDbBlockTableRecord
  2
*Model_Space
340
1A
 70
0
280
1
281
0
  0
BLOCK_RECORD
  5
1B
330
9
100
AcDbSymbolTableRecord
100
AcDbBlockTableRecord
  2
*Paper_Space
340
1E
 70
0
280
1
281
0
  0
ENDTAB
  0
ENDSEC
  0
SECTION
  2
BLOCKS
  0
BLOCK
  5
18
330
17
100
AcDbEntity
  8
0
100
AcDbBlockBegin
  2
*Model_Space
 70
0
 10
0.0
 20
0.0
 30
0.0
  3
*Model_Space
  1

  0
ENDBLK
  5
19
330
17
100
AcDbEntity
  8
0
100
AcDbBlockEnd
  0
BLOCK
  5
1C
330
1B
100
AcDbEntity
  8
0
100
AcDbBlockBegin
  2
*Paper_Space
 70
0
 10
0.0
 20
0.0
 30
0.0
  3
*Paper_Space
  1

  0
ENDBLK
  5
1D
330
1B
100
AcDbEntity
  8
0
100
AcDbBlockEnd
  0
ENDSEC
  0
SECTION
  2
ENTITIES
  0
LWPOLYLINE
  5
31
330
17
100
AcDbEntity
  8
OuterContour
100
AcDbPolyline
 90
28
 70
1
 10
40.9438341124
 20
51.621961023
 10
830.9438341124
 20
51.621961023
 10
830.9438341124
 20
101.621961023
 10
720.2738341124
 20
101.621961023
 10
720.2738341124
 20
76.621961023
 10
718.2738341124
 20
76.621961023
 10
718.2738341124
 20
101.621961023
 10
606.9418341124
 20
101.621961023
 10
606.9418341124
 20
76.621961023
 10
604.9418341124
 20
76.621961023
 10
604.9418341124
 20
101.621961023
 10
493.6098341124
 20
101.621961023
 10
493.6098341124
 20
76.621961023
 10
491.6098341124
 20
76.621961023
 10
491.6098341124
 20
101.621961023
 10
380.2778341124
 20
101.621961023
 10
380.2778341124
 20
76.621961023
 10
378.2778341124
 20
76.621961023
 10
378.2778341124
 20
101.621961023
 10
266.9458341124
 20
101.621961023
 10
266.9458341124
 20
76.621961023
 10
264.9458341124
 20
76.621961023
 10
264.9458341124
 20
101.621961023
 10
153.6138341124
 20
101.621961023
 10
153.6138341124
 20
76.621961023
 10
151.6138341124
 20
76.621961023
 10
151.6138341124
 20
101.621961023
 10
40.9438341124
 20
101.621961023
  0
LINE
  5
32
330
17
100
AcDbEntity
  8
InnerContour
  6
Continuous
100
AcDbLine
 10
402.4555437143
 20
60.5098884235
 30
0.0
 11
402.4555437143
 21
61.8728860815
 31
0.0
  0
SPLINE
  5
33
330
17
100
AcDbEntity
  8
InnerContour
  6
Continuous
100
AcDbSpline
 70
8
 71
3
 72
32
 73
28
 74
0
 40
0.0
 40
0.0
 40
0.0
 40
0.0
 40
0.0767292189618942
 40
0.0767292189618942
 40
0.0767292189618942
 40
0.1621023515642115
 40
0.1621023515642115
 40
0.1621023515642115
 40
0.2574026842977408
 40
0.2574026842977408
 40
0.2574026842977408
 40
0.3586993936810259
 40
0.3586993936810259
 40
0.4799233245823346
 40
0.4799233245823346
 40
0.601147255483643
 40
0.601147255483643
 40
0.7446368063464158
 40
0.7446368063464158
 40
0.7446368063464158
 40
0.8535345520750885
 40
0.8535345520750885
 40
0.8535345520750885
 40
0.9240211295714166
 40
0.9240211295714166
 40
0.9240211295714166
 40
1.0
 40
1.0
 40
1.0
 40
1.0
 10
402.4555437143199
 20
61.87288608154583
 30
0.0
 10
402.7787287260295
 20
61.91504064829056
 30
0.0
 10
403.038681887622
 20
61.9923240206559
 30
0.0
 10
403.2283774379733
 20
62.09771043751773
 30
0.0
 10
403.4675847200201
 20
62.23060337198815
 30
0.0
 10
403.6288458220482
 20
62.4771015382203
 30
0.0
 10
403.7061291944136
 20
62.8283895944264
 30
0.0
 10
403.7819382559745
 20
63.17297623788533
 30
0.0
 10
403.8396186557719
 20
63.50286266234207
 30
0.0
 10
403.8747474613925
 20
63.81902191292757
 30
0.0
 10
403.90841970678
 20
64.1220721214156
 30
0.0
 10
403.9309535503855
 20
64.49349498084325
 30
0.0
 10
403.9309535503855
 20
65.43494697147557
 30
0.0
 10
403.9309535503855
 20
65.90567296679173
 30
0.0
 10
403.9309535503855
 20
66.76281582393459
 30
0.0
 10
403.9309535503855
 20
67.15625844688542
 30
0.0
 10
403.9309535503855
 20
67.90801488716644
 30
0.0
 10
403.9098762670131
 20
68.39279240473084
 30
0.0
 10
403.8606959391443
 20
68.95485329466058
 30
0.0
 10
403.8121790767002
 20
69.50933172259252
 30
0.0
 10
403.7693610445306
 20
69.88927952416877
 30
0.0
 10
403.7131549555377
 20
70.09302659676831
 30
0.0
 10
403.659246795045
 20
70.28844367855439
 30
0.0
 10
403.502382121814
 20
70.4724176974709
 30
0.0
 10
403.2354031990974
 20
70.64103596444981
 30
0.0
 10
403.0805025568084
 20
70.73886794905343
 30
0.0
 10
402.8208832927742
 20
70.78155118693225
 30
0.0
 10
402.4555437143199
 20
70.78155118693225
 30
0.0
  0
LINE
  5
34
330
17
100
AcDbEntity
  8
InnerContour
  6
Continuous
100
AcDbLine
 10
402.4555437143
 20
70.7815511869
 30
0.0
 11
402.4555437143
 21
72.1304973228
 31
0.0
  0
SPLINE
  5
35
330
17
100
AcDbEntity
  8
InnerContour
  6
Continuous
100
AcDbSpline
 70
8
 71
3
 72
47
 73
43
 74
0
 40
0.0
 40
0.0
 40
0.0
 40
0.0
 40
0.0572490204446905
 40
0.0572490204446905
 40
0.1144980408893786
 40
0.1144980408893786
 40
0.1144980408893786
 40
0.1553375492524585
 40
0.1553375492524585
 40
0.1553375492524585
 40
0.1941091789292768
 40
0.1941091789292768
 40
0.1941091789292768
 40
0.2271981451960099
 40
0.2271981451960099
 40
0.2271981451960099
 40
0.2683198114639101
 40
0.2683198114639101
 40
0.2683198114639101
 40
0.3668687071833111
 40
0.3668687071833111
 40
0.3668687071833111
 40
0.5022561109540309
 40
0.5022561109540309
 40
0.7515207702328324
 40
0.7515207702328324
 40
0.7515207702328324
 40
0.8119160464019305
 40
0.8119160464019305
 40
0.8119160464019305
 40
0.8423965364932717
 40
0.8423965364932717
 40
0.8423965364932717
 40
0.8754235260842165
 40
0.8754235260842165
 40
0.8754235260842165
 40
0.917176663876019
 40
0.917176663876019
 40
0.9589298016678216
 40
0.9589298016678216
 40
0.9589298016678216
 40
1.0
 40
1.0
 40
1.0
 40
1.0
 10
402.4555437143199
 20
72.13049732276363
 30
0.0
 10
402.9613985152567
 20
72.13049732276363
 30
0.0
 10
403.3407896159592
 20
72.1164458005154
 30
0.0
 10
403.8747474613925
 20
72.06023971152241
 30
0.0
 10
404.1276748618609
 20
72.01808514477769
 30
0.0
 10
404.3595249789569
 20
71.94782753353645
 30
0.0
 10
404.5978099605308
 20
71.87561996336255
 30
0.0
 10
404.8021479297766
 20
71.78623502768167
 30
0.0
 10
404.9848177190037
 20
71.67382284969571
 30
0.0
 10
405.1706234702777
 20
71.55948084891173
 30
0.0
 10
405.3290800140857
 20
71.4138696881032
 30
0.0
 10
405.4695952365682
 20
71.24525142112428
 30
0.0
 10
405.6066551666945
 20
71.08077950497271
 30
0.0
 10
405.7225226370365
 20
70.92909217053881
 30
0.0
 10
405.7927802482778
 20
70.79560270918049
 30
0.0
 10
405.86593350944
 20
70.65661151297228
 30
0.0
 10
405.9262697096361
 20
70.43728889185027
 30
0.0
 10
405.9824757986291
 20
70.13518116351304
 30
0.0
 10
406.0384468386351
 20
69.8343368234804
 30
0.0
 10
406.0878622154909
 20
69.2850640674943
 30
0.0
 10
406.1370425433597
 20
68.49115306046855
 30
0.0
 10
406.185816168564
 20
67.70380739645611
 30
0.0
 10
406.2143259157251
 20
66.93143409091351
 30
0.0
 10
406.2143259157251
 20
64.79560270918049
 30
0.0
 10
406.1089394988632
 20
63.42557928997675
 30
0.0
 10
405.8841151428913
 20
62.06258163189712
 30
0.0
 10
405.8320438215418
 20
61.74689924621567
 30
0.0
 10
405.6803680702918
 20
61.45134041409852
 30
0.0
 10
405.4344664309476
 20
61.17030996913365
 30
0.0
 10
405.3395875683333
 20
61.0618769832888
 30
0.0
 10
405.2096420749756
 20
60.95251137428588
 30
0.0
 10
405.0410238079967
 20
60.84712495742405
 30
0.0
 10
404.8692478955688
 20
60.73976501215657
 30
0.0
 10
404.7037872740389
 20
60.66445516819689
 30
0.0
 10
404.5351690070599
 20
60.62932636257627
 30
0.0
 10
404.3584144177143
 20
60.59250248979593
 30
0.0
 10
404.1838809508539
 20
60.55906875133505
 30
0.0
 10
403.8044898501513
 20
60.51691418459033
 30
0.0
 10
403.5234594051864
 20
60.5098884234662
 30
0.0
 10
403.1440683044838
 20
60.5098884234662
 30
0.0
 10
402.9145601077626
 20
60.5098884234662
 30
0.0
 10
402.6850519110412
 20
60.5098884234662
 30
0.0
 10
402.4555437143199
 20
60.5098884234662
 30
0.0
  0
LINE
  5
36
330
17
100
AcDbEntity
  8
InnerContour
  6
Continuous
100
AcDbLine
 10
419.5562462904
 20
72.1304973228
 30
0.0
 11
419.5562462904
 21
60.5098884235
 31
0.0
  0
LINE
  5
37
330
17
100
AcDbEntity
  8
InnerContour
  6
Continuous
100
AcDbLine
 10
419.5562462904
 20
60.5098884235
 30
0.0
 11
417.2377451195
 21
60.5098884235
 31
0.0
  0
SPLINE
  5
38
330
17
100
AcDbEntity
  8
InnerContour
  6
Continuous
100
AcDbSpline
 70
8
 71
3
 72
22
 73
18
 74
0
 40
0.0
 40
0.0
 40
0.0
 40
0.0
 40
0.6650737710456702
 40
0.6650737710456702
 40
0.6650737710456702
 40
0.731148630980989
 40
0.731148630980989
 40
0.7972234909163084
 40
0.7972234909163084
 40
0.7972234909163084
 40
0.8548649882610907
 40
0.8548649882610907
 40
0.8548649882610907
 40
0.9664691804287758
 40
0.9664691804287758
 40
0.9664691804287758
 40
1.0
 40
1.0
 40
1.0
 40
1.0
 10
417.2377451194722
 20
60.5098884234662
 30
0.0
 10
417.2377451194722
 20
62.78857694805637
 30
0.0
 10
417.2377451194722
 20
65.06726547264653
 30
0.0
 10
417.2377451194722
 20
67.34595399723669
 30
0.0
 10
417.2377451194722
 20
67.79560270918049
 30
0.0
 10
417.2166678360998
 20
68.10473619864185
 30
0.0
 10
417.1183071803621
 20
68.42792121035144
 30
0.0
 10
417.0691268524932
 20
68.56141067170977
 30
0.0
 10
417.0058950023761
 20
68.6667970885716
 30
0.0
 10
416.9036081860102
 20
68.83727511584807
 30
0.0
 10
416.7529676019077
 20
68.96187905578472
 30
0.0
 10
416.5632720515564
 20
69.04618818927416
 30
0.0
 10
416.3044777783968
 20
69.16120786623401
 30
0.0
 10
415.9309535503854
 20
69.24290950074958
 30
0.0
 10
415.4461760328211
 20
69.2850640674943
 30
0.0
 10
415.362499613279
 20
69.29234027788928
 30
0.0
 10
415.2494547213457
 20
69.2850640674943
 30
0.0
 10
415.1019137377391
 20
69.29911558974256
 30
0.0
  0
LINE
  5
39
330
17
100
AcDbEntity
  8
InnerContour
  6
Continuous
100
AcDbLine
 10
415.1019137377
 20
69.2991155897
 30
0.0
 11
415.1019137377
 21
70.2265160581
 31
0.0
  0
SPLINE
  5
3A
330
17
100
AcDbEntity
  8
InnerContour
  6
Continuous
100
AcDbSpline
 70
8
 71
3
 72
11
 73
7
 74
0
 40
0.0
 40
0.0
 40
0.0
 40
0.0
 40
0.6332571830781567
 40
0.6332571830781567
 40
0.6332571830781567
 40
1.0
 40
1.0
 40
1.0
 40
1.0
 10
415.1019137377391
 20
70.22651605812663
 30
0.0
 10
415.9731081171302
 20
70.33190247498845
 30
0.0
 10
416.6124523794253
 20
70.59888139770509
 30
0.0
 10
417.0199465246244
 20
71.04150434852475
 30
0.0
 10
417.238614117882
 20
71.27902259637358
 30
0.0
 10
417.4274406698234
 20
71.63869404407511
 30
0.0
 10
417.57498165343
 20
72.13049732276363
 30
0.0
  0
LINE
  5
3B
330
17
100
AcDbEntity
  8
InnerContour
  6
Continuous
100
AcDbLine
 10
417.5749816534
 20
72.1304973228
 30
0.0
 11
419.5562462904
 21
72.1304973228
 31
0.0
  0
SPLINE
  5
3C
330
17
100
AcDbEntity
  8
InnerContour
  6
Continuous
100
AcDbSpline
 70
8
 71
3
 72
34
 73
30
 74
0
 40
0.0
 40
0.0
 40
0.0
 40
0.0
 40
0.0717897942000687
 40
0.0717897942000687
 40
0.0717897942000687
 40
0.127283636052746
 40
0.127283636052746
 40
0.270755519866995
 40
0.270755519866995
 40
0.270755519866995
 40
0.4602431452162598
 40
0.4602431452162598
 40
0.4602431452162598
 40
0.5904938382406386
 40
0.5904938382406386
 40
0.5904938382406386
 40
0.7221497575925878
 40
0.7221497575925878
 40
0.7221497575925878
 40
0.8067198776940668
 40
0.8067198776940668
 40
0.8067198776940668
 40
0.8954419257030151
 40
0.8954419257030151
 40
0.8954419257030151
 40
0.949738457566183
 40
0.949738457566183
 40
0.949738457566183
 40
1.0
 40
1.0
 40
1.0
 40
1.0
 10
424.2494547213457
 20
68.17499380988306
 30
0.0
 10
424.4953563606899
 20
68.42089544922733
 30
0.0
 10
424.7623352834066
 20
68.6035652384545
 30
0.0
 10
425.0574172506197
 20
68.71597741644045
 30
0.0
 10
425.3586345854679
 20
68.83072687733502
 30
0.0
 10
425.65460694617
 20
68.88459568341936
 30
0.0
 10
426.687393831416
 20
68.88459568341936
 30
0.0
 10
427.2354031990974
 20
68.68084861081982
 30
0.0
 10
427.5937170164276
 20
68.28740598786902
 30
0.0
 10
427.9587136956115
 20
67.88662532052989
 30
0.0
 10
428.134700622985
 20
67.05789779114771
 30
0.0
 10
428.134700622985
 20
65.80731231105402
 30
0.0
 10
428.134700622985
 20
65.21480645625309
 30
0.0
 10
428.134700622985
 20
64.62230060145215
 30
0.0
 10
428.134700622985
 20
64.02979474665122
 30
0.0
 10
428.134700622985
 20
63.22183221737721
 30
0.0
 10
428.0995718173644
 20
62.62464252182687
 30
0.0
 10
428.0293142061232
 20
62.23822566000016
 30
0.0
 10
427.9588317705259
 20
61.85057226421562
 30
0.0
 10
427.7974640890272
 20
61.5075465030915
 30
0.0
 10
427.5445366885588
 20
61.20543877475426
 30
0.0
 10
427.3008578257864
 20
60.91437791088723
 30
0.0
 10
426.9754500375049
 20
60.67850669044513
 30
0.0
 10
426.5679558923059
 20
60.5098884234662
 30
0.0
 10
426.3726896623221
 20
60.4290886041626
 30
0.0
 10
426.1323587026103
 20
60.37639896210789
 30
0.0
 10
425.8513282576454
 20
60.32721863423904
 30
0.0
 10
425.5783077768488
 20
60.27944005009962
 30
0.0
 10
425.3454734567086
 20
60.25696102299782
 30
0.0
 10
425.1698294286056
 20
60.25696102299782
 30
0.0
  0
LINE
  5
3D
330
17
100
AcDbEntity
  8
InnerContour
  6
Continuous
100
AcDbLine
 10
425.1698294286
 20
60.256961023
 30
0.0
 11
425.1698294286
 21
61.4372888919
 31
0.0
  0
SPLINE
  5
3E
330
17
100
AcDbEntity
  8
InnerContour
  6
Continuous
100
AcDbSpline
 70
8
 71
3
 72
34
 73
30
 74
0
 40
0.0
 40
0.0
 40
0.0
 40
0.0
 40
0.0302251274604584
 40
0.0302251274604584
 40
0.0302251274604584
 40
0.0630802001458228
 40
0.0630802001458228
 40
0.0630802001458228
 40
0.1008633141639944
 40
0.1008633141639944
 40
0.1386464281821686
 40
0.1386464281821686
 40
0.1386464281821686
 40
0.3349608747973676
 40
0.3349608747973676
 40
0.6468623320364691
 40
0.6468623320364691
 40
0.6468623320364691
 40
0.7370189527003747
 40
0.7370189527003747
 40
0.7370189527003747
 40
0.7979295790835479
 40
0.7979295790835479
 40
0.7979295790835479
 40
0.9182095915338163
 40
0.9182095915338163
 40
0.9591047957669073
 40
0.9591047957669073
 40
1.0
 40
1.0
 40
1.0
 40
1.0
 10
425.1698294286056
 20
61.43728889185028
 30
0.0
 10
425.247112800971
 20
61.45836617522264
 30
0.0
 10
425.3173704122122
 20
61.47944345859501
 30
0.0
 10
425.3876280234534
 20
61.51457226421562
 30
0.0
 10
425.4550753302449
 20
61.54829591761141
 30
0.0
 10
425.5211174848117
 20
61.59888139770508
 30
0.0
 10
425.5843493349288
 20
61.6691390089463
 30
0.0
 10
425.644437059902
 20
61.73590314780535
 30
0.0
 10
425.6967615129147
 20
61.82370575367698
 30
0.0
 10
425.7810706464043
 20
61.9923240206559
 30
0.0
 10
425.8091736909007
 20
62.08365891526949
 30
0.0
 10
425.8161994520248
 20
62.18904533213131
 30
0.0
 10
425.8494630113292
 20
62.68799872169836
 30
0.0
 10
425.8161994520248
 20
63.19138725250602
 30
0.0
 10
425.8161994520248
 20
64.48881114009383
 30
0.0
 10
425.8161994520248
 20
65.2850640674943
 30
0.0
 10
425.8161994520248
 20
66.08131699489478
 30
0.0
 10
425.8161994520248
 20
66.36234743985965
 30
0.0
 10
425.8021479297765
 20
66.59419755695566
 30
0.0
 10
425.7740448852801
 20
66.7698415850587
 30
0.0
 10
425.7446704081933
 20
66.95343206685128
 30
0.0
 10
425.6967615129147
 20
67.09302659676831
 30
0.0
 10
425.6335296627977
 20
67.21246453587838
 30
0.0
 10
425.5291116616584
 20
67.40969853803041
 30
0.0
 10
425.3033188899639
 20
67.5075465030915
 30
0.0
 10
424.8325928946478
 20
67.5075465030915
 30
0.0
 10
424.7131549555377
 20
67.48646921971913
 30
0.0
 10
424.4602275550693
 20
67.40216008622969
 30
0.0
 10
424.3478153770834
 20
67.33892823611258
 30
0.0
 10
424.2494547213457
 20
67.24759334149898
 30
0.0
  0
LINE
  5
3F
330
17
100
AcDbEntity
  8
InnerContour
  6
Continuous
100
AcDbLine
 10
424.2494547213
 20
67.2475933415
 30
0.0
 11
424.2494547213
 21
68.1749938099
 31
0.0
  0
SPLINE
  5
40
330
17
100
AcDbEntity
  8
InnerContour
  6
Continuous
100
AcDbSpline
 70
8
 71
3
 72
16
 73
12
 74
0
 40
0.0
 40
0.0
 40
0.0
 40
0.0
 40
0.1145763515028584
 40
0.1145763515028584
 40
0.1145763515028584
 40
0.4802635597003858
 40
0.4802635597003858
 40
0.8459507678979162
 40
0.8459507678979162
 40
0.8459507678979162
 40
1.0
 40
1.0
 40
1.0
 40
1.0
 10
423.8208832927743
 20
64.36703128060905
 30
0.0
 10
423.8208832927742
 20
64.24056758037487
 30
0.0
 10
423.8208832927742
 20
64.11410388014068
 30
0.0
 10
423.8208832927742
 20
63.98764017990649
 30
0.0
 10
423.8208832927742
 20
63.15860036726012
 30
0.0
 10
423.8489863372707
 20
62.59653947733037
 30
0.0
 10
423.9473469930084
 20
61.9923240206559
 30
0.0
 10
424.038681887622
 20
61.77452542580812
 30
0.0
 10
424.1721713489803
 20
61.63401020332569
 30
0.0
 10
424.2988196947106
 20
61.50069615518861
 30
0.0
 10
424.4461760328211
 20
61.42323736960203
 30
0.0
 10
424.6147942998
 20
61.40216008622967
 30
0.0
  0
LINE
  5
41
330
17
100
AcDbEntity
  8
InnerContour
  6
Continuous
100
AcDbLine
 10
424.6147942998
 20
61.4021600862
 30
0.0
 11
424.6147942998
 21
60.256961023
 31
0.0
  0
SPLINE
  5
42
330
17
100
AcDbEntity
  8
InnerContour
  6
Continuous
100
AcDbSpline
 70
8
 71
3
 72
20
 73
16
 74
0
 40
0.0
 40
0.0
 40
0.0
 40
0.0
 40
0.142897711114418
 40
0.142897711114418
 40
0.142897711114418
 40
0.2874608433297991
 40
0.2874608433297991
 40
0.2874608433297991
 40
0.5451120701220319
 40
0.5451120701220319
 40
0.5451120701220319
 40
0.9519416635638996
 40
0.9519416635638996
 40
0.9519416635638996
 40
1.0
 40
1.0
 40
1.0
 40
1.0
 10
424.6147942998
 20
60.25696102299782
 30
0.0
 10
424.3197123325869
 20
60.25696102299782
 30
0.0
 10
424.038681887622
 20
60.29208982861843
 30
0.0
 10
423.7646772037813
 20
60.3482959176114
 30
0.0
 10
423.489289531
 20
60.40478569664345
 30
0.0
 10
423.2166678360998
 20
60.5098884234662
 30
0.0
 10
422.9496889133831
 20
60.6363521237004
 30
0.0
 10
422.4269055251224
 20
60.88398636024495
 30
0.0
 10
422.0644430117438
 20
61.22651605812662
 30
0.0
 10
421.8606959391443
 20
61.68319053119455
 30
0.0
 10
421.6223609308093
 20
62.21738968780734
 30
0.0
 10
421.5023821218141
 20
63.01808514477768
 30
0.0
 10
421.5023821218141
 20
64.07897507452007
 30
0.0
 10
421.5023821218141
 20
64.17499380988306
 30
0.0
 10
421.5023821218141
 20
64.27101254524607
 30
0.0
 10
421.5023821218141
 20
64.36703128060905
 30
0.0
  0
LINE
  5
43
330
17
100
AcDbEntity
  8
InnerContour
  6
Continuous
100
AcDbLine
 10
421.5023821218
 20
64.3670312806
 30
0.0
 11
423.8208832928
 21
64.3670312806
 31
0.0
  0
LINE
  5
44
330
17
100
AcDbEntity
  8
InnerContour
  6
Continuous
100
AcDbLine
 10
443.078494534
 20
60.5098884235
 30
0.0
 11
443.078494534
 21
61.8728860815
 31
0.0
  0
SPLINE
  5
45
330
17
100
AcDbEntity
  8
InnerContour
  6
Continuous
100
AcDbSpline
 70
8
 71
3
 72
32
 73
28
 74
0
 40
0.0
 40
0.0
 40
0.0
 40
0.0
 40
0.0767223672749169
 40
0.0767223672749169
 40
0.0767223672749169
 40
0.1620878763149354
 40
0.1620878763149354
 40
0.1620878763149354
 40
0.2573796990172456
 40
0.2573796990172456
 40
0.2573796990172456
 40
0.3586673629110292
 40
0.3586673629110292
 40
0.4798804688822782
 40
0.4798804688822782
 40
0.6010935748535271
 40
0.6010935748535271
 40
0.7445703125337808
 40
0.7445703125337808
 40
0.7445703125337808
 40
0.853428448408804
 40
0.853428448408804
 40
0.853428448408804
 40
0.9240279142545419
 40
0.9240279142545419
 40
0.9240279142545419
 40
1.0
 40
1.0
 40
1.0
 40
1.0
 10
443.0784945339921
 20
61.87288608154583
 30
0.0
 10
443.4016795457017
 20
61.91504064829056
 30
0.0
 10
443.6616327072941
 20
61.9923240206559
 30
0.0
 10
443.8513282576454
 20
62.09771043751773
 30
0.0
 10
444.0905355396922
 20
62.23060337198815
 30
0.0
 10
444.2517966417204
 20
62.4771015382203
 30
0.0
 10
444.3290800140857
 20
62.8283895944264
 30
0.0
 10
444.4048890756467
 20
63.17297623788532
 30
0.0
 10
444.4625694754441
 20
63.50286266234207
 30
0.0
 10
444.4976982810647
 20
63.81902191292757
 30
0.0
 10
444.5313705264522
 20
64.1220721214156
 30
0.0
 10
444.5539043700576
 20
64.49349498084325
 30
0.0
 10
444.5539043700576
 20
65.43494697147557
 30
0.0
 10
444.5539043700576
 20
65.90567296679173
 30
0.0
 10
444.5539043700576
 20
66.76281582393459
 30
0.0
 10
444.5539043700576
 20
67.15625844688542
 30
0.0
 10
444.5539043700576
 20
67.90801488716644
 30
0.0
 10
444.5328270866852
 20
68.39279240473084
 30
0.0
 10
444.4836467588164
 20
68.95485329466058
 30
0.0
 10
444.4351298963724
 20
69.50933172259252
 30
0.0
 10
444.3852861030787
 20
69.88927952416877
 30
0.0
 10
444.3361057752098
 20
70.09302659676831
 30
0.0
 10
444.2885279524064
 20
70.29013471981123
 30
0.0
 10
444.1253329414861
 20
70.4724176974709
 30
0.0
 10
443.8583540187695
 20
70.64103596444981
 30
0.0
 10
443.7034533764805
 20
70.73886794905343
 30
0.0
 10
443.4438341124464
 20
70.78155118693225
 30
0.0
 10
443.0784945339921
 20
70.78155118693225
 30
0.0
  0
LINE
  5
46
330
17
100
AcDbEntity
  8
InnerContour
  6
Continuous
100
AcDbLine
 10
443.078494534
 20
70.7815511869
 30
0.0
 11
443.078494534
 21
72.1304973228
 31
0.0
  0
SPLINE
  5
47
330
17
100
AcDbEntity
  8
InnerContour
  6
Continuous
100
AcDbSpline
 70
8
 71
3
 72
48
 73
44
 74
0
 40
0.0
 40
0.0
 40
0.0
 40
0.0
 40
0.0572490301732139
 40
0.0572490301732139
 40
0.1144980603464279
 40
0.1144980603464279
 40
0.1144980603464279
 40
0.1553375756495068
 40
0.1553375756495068
 40
0.1553375756495068
 40
0.1941092119149219
 40
0.1941092119149219
 40
0.1941092119149219
 40
0.2271981838045774
 40
0.2271981838045774
 40
0.2271981838045774
 40
0.2683198570604247
 40
0.2683198570604247
 40
0.2683198570604247
 40
0.3668687695265805
 40
0.3668687695265805
 40
0.3668687695265805
 40
0.5022561963041507
 40
0.5022561963041507
 40
0.7515208979413582
 40
0.7515208979413582
 40
0.7515208979413582
 40
0.8119161843736346
 40
0.8119161843736346
 40
0.8119161843736346
 40
0.8423966796446313
 40
0.8423966796446313
 40
0.8423966796446313
 40
0.8754236748479659
 40
0.8754236748479659
 40
0.8754236748479659
 40
0.9081634056738861
 40
0.9081634056738861
 40
0.9081634056738861
 40
0.9589262236482213
 40
0.9589262236482213
 40
0.9589262236482213
 40
1.0
 40
1.0
 40
1.0
 40
1.0
 10
443.0784945339921
 20
72.13049732276363
 30
0.0
 10
443.5843493349288
 20
72.13049732276363
 30
0.0
 10
443.9637404356313
 20
72.1164458005154
 30
0.0
 10
444.4976982810647
 20
72.06023971152241
 30
0.0
 10
444.750625681533
 20
72.01808514477769
 30
0.0
 10
444.982475798629
 20
71.94782753353645
 30
0.0
 10
445.2207607802029
 20
71.87561996336257
 30
0.0
 10
445.4250987494487
 20
71.78623502768167
 30
0.0
 10
445.6077685386759
 20
71.67382284969571
 30
0.0
 10
445.7935742899498
 20
71.55948084891173
 30
0.0
 10
445.9520308337578
 20
71.4138696881032
 30
0.0
 10
446.0925460562403
 20
71.24525142112428
 30
0.0
 10
446.2296059863666
 20
71.08077950497271
 30
0.0
 10
446.3454734567086
 20
70.92909217053881
 30
0.0
 10
446.4157310679499
 20
70.79560270918049
 30
0.0
 10
446.4888843291121
 20
70.65661151297228
 30
0.0
 10
446.5492205293082
 20
70.43728889185027
 30
0.0
 10
446.6054266183012
 20
70.13518116351304
 30
0.0
 10
446.6613976583072
 20
69.8343368234804
 30
0.0
 10
446.710813035163
 20
69.2850640674943
 30
0.0
 10
446.7599933630319
 20
68.49115306046855
 30
0.0
 10
446.8087669882362
 20
67.70380739645611
 30
0.0
 10
446.8372767353972
 20
66.93143409091351
 30
0.0
 10
446.8372767353972
 20
64.79560270918049
 30
0.0
 10
446.7318903185353
 20
63.42557928997675
 30
0.0
 10
446.5070659625634
 20
62.06258163189712
 30
0.0
 10
446.4549946412139
 20
61.74689924621567
 30
0.0
 10
446.3033188899639
 20
61.45134041409852
 30
0.0
 10
446.0574172506197
 20
61.17030996913365
 30
0.0
 10
445.9625383880054
 20
61.0618769832888
 30
0.0
 10
445.8325928946477
 20
60.95251137428588
 30
0.0
 10
445.6639746276688
 20
60.84712495742405
 30
0.0
 10
445.4921987152409
 20
60.73976501215657
 30
0.0
 10
445.326738093711
 20
60.66445516819689
 30
0.0
 10
445.1581198267321
 20
60.62932636257627
 30
0.0
 10
444.9813652373865
 20
60.59250248979593
 30
0.0
 10
444.7998060094019
 20
60.55906875133505
 30
0.0
 10
444.6171362201748
 20
60.5379914679627
 30
0.0
 10
444.4275329790937
 20
60.51611417091488
 30
0.0
 10
444.1464102248586
 20
60.5098884234662
 30
0.0
 10
443.7670191241559
 20
60.5098884234662
 30
0.0
 10
443.5375109274347
 20
60.5098884234662
 30
0.0
 10
443.3080027307134
 20
60.5098884234662
 30
0.0
 10
443.0784945339921
 20
60.5098884234662
 30
0.0
  0
SPLINE
  5
48
330
17
100
AcDbEntity
  8
InnerContour
  6
Continuous
100
AcDbSpline
 70
8
 71
3
 72
17
 73
13
 74
0
 40
0.0
 40
0.0
 40
0.0
 40
0.0
 40
0.2931083168563082
 40
0.2931083168563082
 40
0.2931083168563082
 40
0.5048476921271943
 40
0.5048476921271943
 40
0.5048476921271943
 40
0.7400950862858977
 40
0.7400950862858977
 40
0.7400950862858977
 40
1.0
 40
1.0
 40
1.0
 40
1.0
 10
456.0831783747415
 20
68.71597741644045
 30
0.0
 10
456.0831783747415
 20
69.38342472323201
 30
0.0
 10
456.1183071803621
 20
69.89630528529291
 30
0.0
 10
456.1815390304791
 20
70.26164486374724
 30
0.0
 10
456.2437945899122
 20
70.6213436515827
 30
0.0
 10
456.3993376253269
 20
70.96422097615941
 30
0.0
 10
456.6241619812989
 20
71.2803802267449
 30
0.0
 10
456.8513459238208
 20
71.59985764591637
 30
0.0
 10
457.1721713489804
 20
71.85649263892289
 30
0.0
 10
457.5866912553035
 20
72.04618818927416
 30
0.0
 10
458.0043619067579
 20
72.23732560604142
 30
0.0
 10
458.4508598735705
 20
72.32721863423903
 30
0.0
 10
458.9215858688867
 20
72.32721863423903
 30
0.0
  0
LINE
  5
49
330
17
100
AcDbEntity
  8
InnerContour
  6
Continuous
100
AcDbLine
 10
458.9215858689
 20
72.3272186342
 30
0.0
 11
458.9215858689
 21
71.1679680488
 31
0.0
  0
SPLINE
  5
4A
330
17
100
AcDbEntity
  8
InnerContour
  6
Continuous
100
AcDbSpline
 70
8
 71
3
 72
17
 73
13
 74
0
 40
0.0
 40
0.0
 40
0.0
 40
0.0
 40
0.2667908660008752
 40
0.2667908660008752
 40
0.2667908660008752
 40
0.4565541955748608
 40
0.4565541955748608
 40
0.4565541955748608
 40
0.7390072918803431
 40
0.7390072918803431
 40
0.7390072918803431
 40
1.0
 40
1.0
 40
1.0
 40
1.0
 10
458.9215858688867
 20
71.16796804875894
 30
0.0
 10
458.7037872740389
 20
71.13986500426246
 30
0.0
 10
458.5000402014394
 20
71.00637554290415
 30
0.0
 10
458.3173704122122
 20
70.75344814243576
 30
0.0
 10
458.2456734462579
 20
70.65417542034523
 30
0.0
 10
458.1979324731021
 20
70.47944345859501
 30
0.0
 10
458.1487521452333
 20
70.247593341499
 30
0.0
 10
458.0981456742891
 20
70.00901997847664
 30
0.0
 10
458.0784945339921
 20
69.74173854056224
 30
0.0
 10
458.0784945339921
 20
69.45368233447323
 30
0.0
 10
458.0784945339921
 20
69.20778069512896
 30
0.0
 10
458.0784945339921
 20
68.96187905578472
 30
0.0
 10
458.0784945339921
 20
68.71597741644045
 30
0.0
  0
LINE
  5
4B
330
17
100
AcDbEntity
  8
InnerContour
  6
Continuous
100
AcDbLine
 10
458.078494534
 20
68.7159774164
 30
0.0
 11
456.0831783747
 21
68.7159774164
 31
0.0
  0
SPLINE
  5
4C
330
17
100
AcDbEntity
  8
InnerContour
  6
Continuous
100
AcDbSpline
 70
8
 71
3
 72
11
 73
7
 74
0
 40
0.0
 40
0.0
 40
0.0
 40
0.0
 40
0.5144122614341194
 40
0.5144122614341194
 40
0.5144122614341194
 40
1.0
 40
1.0
 40
1.0
 40
1.0
 10
459.4836467588164
 20
72.32721863423903
 30
0.0
 10
459.8981666651396
 20
72.32721863423903
 30
0.0
 10
460.2845835269663
 20
72.25696102299781
 30
0.0
 10
460.6428973442965
 20
72.1234715616395
 30
0.0
 10
460.9973401143092
 20
71.9914242551642
 30
0.0
 10
461.310344651088
 20
71.78623502768167
 30
0.0
 10
461.5773235738047
 20
71.52628186608915
 30
0.0
  0
SPLINE
  5
4D
330
17
100
AcDbEntity
  8
InnerContour
  6
Continuous
100
AcDbSpline
 70
8
 71
3
 72
16
 73
12
 74
0
 40
0.0
 40
0.0
 40
0.0
 40
0.0
 40
0.2231625754641772
 40
0.2231625754641772
 40
0.404718569062152
 40
0.404718569062152
 40
0.404718569062152
 40
0.6022607420382469
 40
0.6022607420382469
 40
0.6022607420382469
 40
1.0
 40
1.0
 40
1.0
 40
1.0
 10
461.5773235738047
 20
71.52628186608915
 30
0.0
 10
462.1256126731769
 20
70.99242142722676
 30
0.0
 10
462.4133891475752
 20
70.3178509527402
 30
0.0
 10
462.4133891475752
 20
68.81433807217816
 30
0.0
 10
462.2517966417204
 20
68.13283924313835
 30
0.0
 10
461.9286116300108
 20
67.43026313072616
 30
0.0
 10
461.6039862096983
 20
66.72455569526427
 30
0.0
 10
461.2962931288398
 20
66.08131699489478
 30
0.0
 10
460.9801338782543
 20
65.50520458271679
 30
0.0
 10
460.402309393529
 20
64.45227996610619
 30
0.0
 10
459.6452392646712
 20
63.22885797850134
 30
0.0
 10
458.6967615129147
 20
61.83775727592522
 30
0.0
  0
LINE
  5
4E
330
17
100
AcDbEntity
  8
InnerContour
  6
Continuous
100
AcDbLine
 10
458.6967615129
 20
61.8377572759
 30
0.0
 11
462.1323587026
 21
61.8377572759
 31
0.0
  0
LINE
  5
4F
330
17
100
AcDbEntity
  8
InnerContour
  6
Continuous
100
AcDbLine
 10
462.1323587026
 20
61.8377572759
 30
0.0
 11
462.1323587026
 21
60.5098884235
 31
0.0
  0
LINE
  5
50
330
17
100
AcDbEntity
  8
InnerContour
  6
Continuous
100
AcDbLine
 10
462.1323587026
 20
60.5098884235
 30
0.0
 11
455.9918434801
 21
60.5098884235
 31
0.0
  0
LINE
  5
51
330
17
100
AcDbEntity
  8
InnerContour
  6
Continuous
100
AcDbLine
 10
455.9918434801
 20
60.5098884235
 30
0.0
 11
455.9918434801
 21
61.7815511869
 31
0.0
  0
SPLINE
  5
52
330
17
100
AcDbEntity
  8
InnerContour
  6
Continuous
100
AcDbSpline
 70
8
 71
3
 72
22
 73
18
 74
0
 40
0.0
 40
0.0
 40
0.0
 40
0.0
 40
0.3269252085032989
 40
0.3269252085032989
 40
0.3269252085032989
 40
0.5573752290878227
 40
0.5573752290878227
 40
0.5573752290878227
 40
0.6912707285363926
 40
0.6912707285363926
 40
0.6912707285363926
 40
0.8108517788069741
 40
0.8108517788069741
 40
0.8108517788069741
 40
0.8800027413936728
 40
0.8800027413936728
 40
1.0
 40
1.0
 40
1.0
 40
1.0
 10
455.9918434801279
 20
61.78155118693225
 30
0.0
 10
456.6311877424229
 20
62.82136383330226
 30
0.0
 10
457.2143259157251
 20
63.76281582393459
 30
0.0
 10
457.7412580000342
 20
64.61293291995332
 30
0.0
 10
458.3525626597693
 20
65.59917110432599
 30
0.0
 10
458.7599933630319
 20
66.26398678412194
 30
0.0
 10
458.9637404356314
 20
66.61527484032803
 30
0.0
 10
459.2786000991547
 20
67.15813632916134
 30
0.0
 10
459.518775564437
 20
67.5426753087121
 30
0.0
 10
459.6452392646712
 20
67.79560270918049
 30
0.0
 10
459.839150271697
 20
68.18342472323201
 30
0.0
 10
459.9965273208772
 20
68.55438491058564
 30
0.0
 10
460.1089394988632
 20
68.91972448903998
 30
0.0
 10
460.2187692349225
 20
69.27667113123252
 30
0.0
 10
460.270532004718
 20
69.5731202735833
 30
0.0
 10
460.270532004718
 20
70.22651605812663
 30
0.0
 10
460.1862228712286
 20
70.54970106983623
 30
0.0
 10
460.0246303653738
 20
70.78155118693225
 30
0.0
  0
SPLINE
  5
53
330
17
100
AcDbEntity
  8
InnerContour
  6
Continuous
100
AcDbSpline
 70
8
 71
3
 72
11
 73
7
 74
0
 40
0.0
 40
0.0
 40
0.0
 40
0.0
 40
0.533192122778389
 40
0.533192122778389
 40
0.533192122778389
 40
1.0
 40
1.0
 40
1.0
 40
1.0
 10
460.0246303653738
 20
70.78155118693225
 30
0.0
 10
459.9543727541325
 20
70.90801488716644
 30
0.0
 10
459.8700636206431
 20
70.99934978178001
 30
0.0
 10
459.7857544871537
 20
71.06258163189712
 30
0.0
 10
459.7003212318843
 20
71.12665657334911
 30
0.0
 10
459.5960589368023
 20
71.15391652651071
 30
0.0
 10
459.4836467588163
 20
71.17499380988306
 30
0.0
  0
LINE
  5
54
330
17
100
AcDbEntity
  8
InnerContour
  6
Continuous
100
AcDbLine
 10
459.4836467588
 20
71.1749938099
 30
0.0
 11
459.4836467588
 21
72.3272186342
 31
0.0
  0
SPLINE
  5
55
330
17
100
AcDbEntity
  8
InnerContour
  6
Continuous
100
AcDbSpline
 70
8
 71
3
 72
8
 73
4
 74
0
 40
0.0
 40
0.0
 40
0.0
 40
0.0
 40
1.0
 40
1.0
 40
1.0
 40
1.0
 10
467.6827099906665
 20
61.62698444220157
 30
0.0
 10
467.8864570632661
 20
61.7042678145669
 30
0.0
 10
468.0410238079967
 20
61.88693760379407
 30
0.0
 10
468.1464102248585
 20
62.19607109325543
 30
0.0
  0
SPLINE
  5
56
330
17
100
AcDbEntity
  8
InnerContour
  6
Continuous
100
AcDbSpline
 70
8
 71
3
 72
17
 73
13
 74
0
 40
0.0
 40
0.0
 40
0.0
 40
0.0
 40
0.1656213441145274
 40
0.1656213441145274
 40
0.1656213441145274
 40
0.7788449153724571
 40
0.7788449153724571
 40
0.7788449153724571
 40
0.9240362593771941
 40
0.9240362593771941
 40
0.9240362593771941
 40
1.0
 40
1.0
 40
1.0
 40
1.0
 10
468.1464102248585
 20
62.19607109325543
 30
0.0
 10
468.2166678360998
 20
62.43494697147557
 30
0.0
 10
468.2588224028445
 20
62.93377601128822
 30
0.0
 10
468.2588224028445
 20
63.68553245156924
 30
0.0
 10
468.2588224028445
 20
65.53330762721328
 30
0.0
 10
468.2588224028445
 20
67.3810828028573
 30
0.0
 10
468.2588224028445
 20
69.22885797850134
 30
0.0
 10
468.2588224028445
 20
69.86820224079642
 30
0.0
 10
468.2166678360998
 20
70.30379943049196
 30
0.0
 10
468.1253329414862
 20
70.52862378646387
 30
0.0
 10
468.0325434257513
 20
70.75702874827269
 30
0.0
 10
467.8724055410178
 20
70.90098912604232
 30
0.0
 10
467.6265039016735
 20
70.9571952150353
 30
0.0
  0
LINE
  5
57
330
17
100
AcDbEntity
  8
InnerContour
  6
Continuous
100
AcDbLine
 10
467.6265039017
 20
70.957195215
 30
0.0
 11
467.6265039017
 21
72.2920898286
 31
0.0
  0
SPLINE
  5
58
330
17
100
AcDbEntity
  8
InnerContour
  6
Continuous
100
AcDbSpline
 70
8
 71
3
 72
41
 73
37
 74
0
 40
0.0
 40
0.0
 40
0.0
 40
0.0
 40
0.0472274361346526
 40
0.0472274361346526
 40
0.0472274361346526
 40
0.0924371905123432
 40
0.0924371905123432
 40
0.137646944890036
 40
0.137646944890036
 40
0.182856699267729
 40
0.182856699267729
 40
0.182856699267729
 40
0.2729485565920683
 40
0.2729485565920683
 40
0.2729485565920683
 40
0.4385776862707538
 40
0.4385776862707538
 40
0.4385776862707538
 40
0.5648332164532633
 40
0.5648332164532633
 40
0.5648332164532633
 40
0.73230649703846
 40
0.73230649703846
 40
0.73230649703846
 40
0.8183442066030067
 40
0.8183442066030067
 40
0.8183442066030067
 40
0.8635546923048844
 40
0.8635546923048844
 40
0.9087651780067616
 40
0.9087651780067616
 40
0.9087651780067616
 40
0.9548666860417913
 40
0.9548666860417913
 40
0.9548666860417913
 40
1.0
 40
1.0
 40
1.0
 40
1.0
 10
467.6265039016735
 20
72.29208982861843
 30
0.0
 10
467.8583540187695
 20
72.29208982861843
 30
0.0
 10
468.0972298969897
 20
72.26398678412194
 30
0.0
 10
468.3571830585822
 20
72.21480645625309
 30
0.0
 10
468.6116365058956
 20
72.16666661486948
 30
0.0
 10
468.8419605761466
 20
72.0883427560189
 30
0.0
 10
469.2494547213457
 20
71.91972448903998
 30
0.0
 10
469.4461760328211
 20
71.80731231105403
 30
0.0
 10
469.8255671335236
 20
71.49817882159266
 30
0.0
 10
469.9871596393784
 20
71.32956055461375
 30
0.0
 10
470.1206491007367
 20
71.14689076538657
 30
0.0
 10
470.4107988074886
 20
70.7498437982525
 30
0.0
 10
470.5913750960529
 20
70.33190247498845
 30
0.0
 10
470.6405554239218
 20
69.8611764796723
 30
0.0
 10
470.6890855050581
 20
69.39667427451016
 30
0.0
 10
470.7178387962871
 20
68.53330762721329
 30
0.0
 10
470.7178387962871
 20
67.2827221471196
 30
0.0
 10
470.7178387962871
 20
66.62698444220156
 30
0.0
 10
470.7178387962871
 20
65.97124673728354
 30
0.0
 10
470.7178387962871
 20
65.31550903236551
 30
0.0
 10
470.7178387962871
 20
64.07897507452007
 30
0.0
 10
470.6897357517906
 20
63.21480645625309
 30
0.0
 10
470.6265039016735
 20
62.70895165531633
 30
0.0
 10
470.5705139899459
 20
62.26103236149539
 30
0.0
 10
470.422756829074
 20
61.84478303704935
 30
0.0
 10
470.1487521452333
 20
61.47241769747089
 30
0.0
 10
470.0113068396208
 20
61.28563305138211
 30
0.0
 10
469.8536701780201
 20
61.11410388014068
 30
0.0
 10
469.4883305995658
 20
60.81902191292756
 30
0.0
 10
469.2845835269663
 20
60.6995839738175
 30
0.0
 10
469.0597591709944
 20
60.60824907920391
 30
0.0
 10
468.8324849268183
 20
60.51591891750736
 30
0.0
 10
468.6101104590506
 20
60.43963081222499
 30
0.0
 10
468.3782603419546
 20
60.38342472323201
 30
0.0
 10
468.1514373306065
 20
60.32843732654158
 30
0.0
 10
467.9215858688867
 20
60.29208982861843
 30
0.0
 10
467.6827099906665
 20
60.29208982861843
 30
0.0
  0
LINE
  5
59
330
17
100
AcDbEntity
  8
InnerContour
  6
Continuous
100
AcDbLine
 10
467.6827099907
 20
60.2920898286
 30
0.0
 11
467.6827099907
 21
61.6269844422
 31
0.0
  0
LINE
  5
5A
330
17
100
AcDbEntity
  8
InnerContour
  6
Continuous
100
AcDbLine
 10
467.1206491007
 20
61.6269844422
 30
0.0
 11
467.1206491007
 21
60.2920898286
 31
0.0
  0
SPLINE
  5
5B
330
17
100
AcDbEntity
  8
InnerContour
  6
Continuous
100
AcDbSpline
 70
8
 71
3
 72
25
 73
21
 74
0
 40
0.0
 40
0.0
 40
0.0
 40
0.0
 40
0.0606262105881162
 40
0.0606262105881162
 40
0.0606262105881162
 40
0.1260294733926994
 40
0.1260294733926994
 40
0.1260294733926994
 40
0.24971374958254
 40
0.24971374958254
 40
0.3733980257723786
 40
0.3733980257723786
 40
0.3733980257723786
 40
0.5997218943392064
 40
0.5997218943392064
 40
0.5997218943392064
 40
0.7717762608093082
 40
0.7717762608093082
 40
0.7717762608093082
 40
1.0
 40
1.0
 40
1.0
 40
1.0
 10
467.1206491007367
 20
60.29208982861843
 30
0.0
 10
466.8817732225166
 20
60.29208982861843
 30
0.0
 10
466.6499231054206
 20
60.32019287311491
 30
0.0
 10
466.4321245105728
 20
60.36234743985965
 30
0.0
 10
466.2130151919848
 20
60.40475569507024
 30
0.0
 10
465.9754500375049
 20
60.48881114009384
 30
0.0
 10
465.7225226370365
 20
60.59419755695566
 30
0.0
 10
465.2710447328474
 20
60.7823133503678
 30
0.0
 10
464.8864570632661
 20
61.05087203002358
 30
0.0
 10
464.310344651088
 20
61.82370575367698
 30
0.0
 10
464.1417263841091
 20
62.25227718224841
 30
0.0
 10
464.0925460562403
 20
62.73002893868869
 30
0.0
 10
464.0440077142478
 20
63.20154426090195
 30
0.0
 10
464.0152626838749
 20
64.05789779114771
 30
0.0
 10
464.0152626838749
 20
65.31550903236551
 30
0.0
 10
464.0152626838749
 20
65.97124673728354
 30
0.0
 10
464.0152626838749
 20
66.62698444220156
 30
0.0
 10
464.0152626838749
 20
67.2827221471196
 30
0.0
 10
464.0152626838749
 20
68.51925610496504
 30
0.0
 10
464.0433657283714
 20
69.38342472323201
 30
0.0
 10
464.1065975784886
 20
69.88927952416877
 30
0.0
  0
SPLINE
  5
5C
330
17
100
AcDbEntity
  8
InnerContour
  6
Continuous
100
AcDbSpline
 70
8
 71
3
 72
16
 73
12
 74
0
 40
0.0
 40
0.0
 40
0.0
 40
0.0
 40
0.1593101053829263
 40
0.1593101053829263
 40
0.3186202107658508
 40
0.3186202107658508
 40
0.3186202107658508
 40
0.653065377525711
 40
0.653065377525711
 40
0.653065377525711
 40
1.0
 40
1.0
 40
1.0
 40
1.0
 10
464.1065975784886
 20
69.88927952416877
 30
0.0
 10
464.1065975784886
 20
70.10707811901656
 30
0.0
 10
464.1487521452333
 20
70.3178509527402
 30
0.0
 10
464.303318889964
 20
70.72534509793928
 30
0.0
 10
464.4157310679499
 20
70.92909217053881
 30
0.0
 10
464.5632720515565
 20
71.12581348201422
 30
0.0
 10
464.8423352834066
 20
71.49789779114771
 30
0.0
 10
465.1885647916033
 20
71.8002865499299
 30
0.0
 10
465.6522650257953
 20
71.9899821002812
 30
0.0
 10
466.0883347445576
 20
72.16837425795669
 30
0.0
 10
466.5515624496829
 20
72.29208982861843
 30
0.0
 10
467.0714687728679
 20
72.29208982861843
 30
0.0
  0
LINE
  5
5D
330
17
100
AcDbEntity
  8
InnerContour
  6
Continuous
100
AcDbLine
 10
467.0714687729
 20
72.2920898286
 30
0.0
 11
467.0714687729
 21
70.957195215
 31
0.0
  0
SPLINE
  5
5E
330
17
100
AcDbEntity
  8
InnerContour
  6
Continuous
100
AcDbSpline
 70
8
 71
3
 72
8
 73
4
 74
0
 40
0.0
 40
0.0
 40
0.0
 40
0.0
 40
1.0
 40
1.0
 40
1.0
 40
1.0
 10
467.0714687728679
 20
70.9571952150353
 30
0.0
 10
466.9871596393784
 20
70.93611793166293
 30
0.0
 10
466.9239277892613
 20
70.90801488716644
 30
0.0
 10
466.8817732225166
 20
70.87991184266996
 30
0.0
  0
SPLINE
  5
5F
330
17
100
AcDbEntity
  8
InnerContour
  6
Continuous
100
AcDbSpline
 70
8
 71
3
 72
22
 73
18
 74
0
 40
0.0
 40
0.0
 40
0.0
 40
0.0
 40
0.0395955635717838
 40
0.0395955635717838
 40
0.0395955635717838
 40
0.1820525322618042
 40
0.1820525322618042
 40
0.1820525322618042
 40
0.7666416443887255
 40
0.7666416443887255
 40
0.7666416443887255
 40
0.9159885202543528
 40
0.9159885202543528
 40
0.9159885202543528
 40
0.9563140305322658
 40
0.9563140305322658
 40
1.0
 40
1.0
 40
1.0
 40
1.0
 10
466.8817732225166
 20
70.87991184266996
 30
0.0
 10
466.8396186557719
 20
70.84478303704934
 30
0.0
 10
466.7623352834066
 20
70.74642238131163
 30
0.0
 10
466.6499231054206
 20
70.57780411433272
 30
0.0
 10
466.535349154781
 20
70.40594318837343
 30
0.0
 10
466.4742790773175
 20
69.95953713541
 30
0.0
 10
466.4742790773175
 20
69.22885797850134
 30
0.0
 10
466.4742790773175
 20
67.35063783798611
 30
0.0
 10
466.4742790773175
 20
65.47241769747089
 30
0.0
 10
466.4742790773175
 20
63.59419755695567
 30
0.0
 10
466.4742790773175
 20
62.79326078880579
 30
0.0
 10
466.5094078829381
 20
62.3155090323655
 30
0.0
 10
466.5656139719312
 20
62.16094228763482
 30
0.0
 10
466.6226405877707
 20
62.00411909407596
 30
0.0
 10
466.7061291944136
 20
61.87991184266995
 30
0.0
 10
466.8817732225166
 20
61.7042678145669
 30
0.0
 10
466.9871596393784
 20
61.64806172557393
 30
0.0
 10
467.1206491007367
 20
61.62698444220157
 30
0.0
  0
LWPOLYLINE
  5
60
330
17
100
AcDbEntity
  8
InnerContour
100
AcDbPolyline
 90
12
 70
1
 10
413.8021479298
 20
72.1304973228
 10
411.5749816534
 20
72.1304973228
 10
411.5749816534
 20
67.2475933415
 10
411.4625694754
 20
67.2475933415
 10
409.2213516768
 20
72.1304973228
 10
407.5843493349
 20
72.1304973228
 10
407.5843493349
 20
60.5098884235
 10
409.8115156113
 20
60.5098884235
 10
409.8115156113
 20
65.3787408825
 10
409.9379793115
 20
65.3787408825
 10
412.1932486324
 20
60.5098884235
 10
413.8021479298
 20
60.5098884235
  0
LWPOLYLINE
  5
61
330
17
100
AcDbEntity
  8
InnerContour
100
AcDbPolyline
 90
6
 70
1
 10
423.6944195925
 20
70.9290921705
 10
427.5445366886
 20
70.9290921705
 10
427.5445366886
 20
72.1304973228
 10
421.6639746277
 20
72.1304973228
 10
421.5515624497
 20
66.6433778848
 10
423.6944195925
 20
66.6433778848
  0
LWPOLYLINE
  5
62
330
17
100
AcDbEntity
  8
InnerContour
100
AcDbPolyline
 90
4
 70
1
 10
435.834934815
 20
65.7792092666
 10
432.5468786089
 20
65.7792092666
 10
432.5468786089
 20
64.4372888919
 10
435.834934815
 20
64.4372888919
  0
LWPOLYLINE
  5
63
330
17
100
AcDbEntity
  8
InnerContour
100
AcDbPolyline
 90
4
 70
1
 10
442.5375109274
 20
72.1304973228
 10
440.078494534
 20
72.1304973228
 10
440.078494534
 20
60.5098884235
 10
442.5375109274
 20
60.5098884235
  0
LWPOLYLINE
  5
64
330
17
100
AcDbEntity
  8
InnerContour
100
AcDbPolyline
 90
12
 70
1
 10
454.4250987494
 20
72.1304973228
 10
452.1979324731
 20
72.1304973228
 10
452.1979324731
 20
67.2475933415
 10
452.0855202951
 20
67.2475933415
 10
449.8443024965
 20
72.1304973228
 10
448.2073001546
 20
72.1304973228
 10
448.2073001546
 20
60.5098884235
 10
450.4344664309
 20
60.5098884235
 10
450.4344664309
 20
65.3787408825
 10
450.5609301312
 20
65.3787408825
 10
452.816199452
 20
60.5098884235
 10
454.4250987494
 20
60.5098884235
  0
LWPOLYLINE
  5
65
330
17
100
AcDbEntity
  8
InnerContour
100
AcDbPolyline
 90
4
 70
1
 10
401.9215858689
 20
72.1304973228
 10
399.4555437143
 20
72.1304973228
 10
399.4555437143
 20
60.5098884235
 10
401.9215858689
 20
60.5098884235
  0
ENDSEC
  0
SECTION
  2
OBJECTS
  0
DICTIONARY
  5
A
330
0
100
AcDbDictionary
281
1
  3
ACAD_COLOR
350
B
  3
ACAD_GROUP
350
C
  3
ACAD_LAYOUT
350
D
  3
ACAD_MATERIAL
350
E
  3
ACAD_MLEADERSTYLE
350
F
  3
ACAD_MLINESTYLE
350
10
  3
ACAD_PLOTSETTINGS
350
11
  3
ACAD_PLOTSTYLENAME
350
12
  3
ACAD_SCALELIST
350
14
  3
ACAD_TABLESTYLE
350
15
  3
ACAD_VISUALSTYLE
350
16
  3
EZDXF_META
350
2D
  0
DICTIONARY
  5
B
330
A
100
AcDbDictionary
281
1
  0
DICTIONARY
  5
C
330
A
100
AcDbDictionary
281
1
  0
DICTIONARY
  5
D
330
A
100
AcDbDictionary
281
1
  3
Model
350
1A
  3
Layout1
350
1E
  0
DICTIONARY
  5
E
330
A
100
AcDbDictionary
281
1
  3
ByBlock
350
1F
  3
ByLayer
350
20
  3
Global
350
21
  0
DICTIONARY
  5
F
330
A
100
AcDbDictionary
281
1
  3
Standard
350
2C
  0
DICTIONARY
  5
10
330
A
100
AcDbDictionary
281
1
  3
Standard
350
22
  0
DICTIONARY
  5
11
330
A
100
AcDbDictionary
281
1
  0
ACDBDICTIONARYWDFLT
  5
12
330
A
100
AcDbDictionary
281
1
  3
Normal
350
13
100
AcDbDictionaryWithDefault
340
13
  0
ACDBPLACEHOLDER
  5
13
330
12
  0
DICTIONARY
  5
14
330
A
100
AcDbDictionary
281
1
  0
DICTIONARY
  5
15
330
A
100
AcDbDictionary
281
1
  0
DICTIONARY
  5
16
330
A
100
AcDbDictionary
281
1
  0
LAYOUT
  5
1A
330
D
100
AcDbPlotSettings
  1

  4
A3
  6

 40
7.5
 41
20.0
 42
7.5
 43
20.0
 44
420.0
 45
297.0
 46
0.0
 47
0.0
 48
0.0
 49
0.0
140
0.0
141
0.0
142
1.0
143
1.0
 70
1024
 72
1
 73
0
 74
5
  7

 75
16
 76
0
 77
2
 78
300
147
1.0
148
0.0
149
0.0
100
AcDbLayout
  1
Model
 70
1
 71
0
 10
0.0
 20
0.0
 11
420.0
 21
297.0
 12
0.0
 22
0.0
 32
0.0
 14
1e+20
 24
1e+20
 34
1e+20
 15
-1e+20
 25
-1e+20
 35
-1e+20
146
0.0
 13
0.0
 23
0.0
 33
0.0
 16
1.0
 26
0.0
 36
0.0
 17
0.0
 27
1.0
 37
0.0
 76
1
330
17
  0
LAYOUT
  5
1E
330
D
100
AcDbPlotSettings
  1

  4
A3
  6

 40
7.5
 41
20.0
 42
7.5
 43
20.0
 44
420.0
 45
297.0
 46
0.0
 47
0.0
 48
0.0
 49
0.0
140
0.0
141
0.0
142
1.0
143
1.0
 70
0
 72
1
 73
0
 74
5
  7

 75
16
 76
0
 77
2
 78
300
147
1.0
148
0.0
149
0.0
100
AcDbLayout
  1
Layout1
 70
1
 71
1
 10
0.0
 20
0.0
 11
420.0
 21
297.0
 12
0.0
 22
0.0
 32
0.0
 14
1e+20
 24
1e+20
 34
1e+20
 15
-1e+20
 25
-1e+20
 35
-1e+20
146
0.0
 13
0.0
 23
0.0
 33
0.0
 16
1.0
 26
0.0
 36
0.0
 17
0.0
 27
1.0
 37
0.0
 76
1
330
1B
  0
MATERIAL
  5
1F
102
{ACAD_REACTORS
330
E
102
}
330
E
100
AcDbMaterial
  1
ByBlock
  2

 70
0
 40
1.0
 71
1
 41
1.0
 91
-1023410177
 42
1.0
 72
1
  3

 73
1
 74
1
 75
1
 44
0.5
 73
0
 45
1.0
 46
1.0
 77
1
  4

 78
1
 79
1
170
1
 48
1.0
171
1
  6

172
1
173
1
174
1
140
1.0
141
1.0
175
1
  7

176
1
177
1
178
1
143
1.0
179
1
  8

270
1
271
1
272
1
145
1.0
146
1.0
273
1
  9

274
1
275
1
276
1
 42
1.0
 72
1
  3

 73
1
 74
1
 75
1
 94
63
  0
MATERIAL
  5
20
102
{ACAD_REACTORS
330
E
102
}
330
E
100
AcDbMaterial
  1
ByLayer
  2

 70
0
 40
1.0
 71
1
 41
1.0
 91
-1023410177
 42
1.0
 72
1
  3

 73
1
 74
1
 75
1
 44
0.5
 73
0
 45
1.0
 46
1.0
 77
1
  4

 78
1
 79
1
170
1
 48
1.0
171
1
  6

172
1
173
1
174
1
140
1.0
141
1.0
175
1
  7

176
1
177
1
178
1
143
1.0
179
1
  8

270
1
271
1
272
1
145
1.0
146
1.0
273
1
  9

274
1
275
1
276
1
 42
1.0
 72
1
  3

 73
1
 74
1
 75
1
 94
63
  0
MATERIAL
  5
21
102
{ACAD_REACTORS
330
E
102
}
330
E
100
AcDbMaterial
  1
Global
  2

 70
0
 40
1.0
 71
1
 41
1.0
 91
-1023410177
 42
1.0
 72
1
  3

 73
1
 74
1
 75
1
 44
0.5
 73
0
 45
1.0
 46
1.0
 77
1
  4

 78
1
 79
1
170
1
 48
1.0
171
1
  6

172
1
173
1
174
1
140
1.0
141
1.0
175
1
  7

176
1
177
1
178
1
143
1.0
179
1
  8

270
1
271
1
272
1
145
1.0
146
1.0
273
1
  9

274
1
275
1
276
1
 42
1.0
 72
1
  3

 73
1
 74
1
 75
1
 94
63
  0
MLINESTYLE
  5
22
102
{ACAD_REACTORS
330
10
102
}
330
10
100
AcDbMlineStyle
  2
Standard
 70
0
  3

 62
256
 51
90.0
 52
90.0
 71
2
 49
0.5
 62
256
  6
BYLAYER
 49
-0.5
 62
256
  6
BYLAYER
  0
MLEADERSTYLE
  5
2C
102
{ACAD_REACTORS
330
F
102
}
330
F
100
AcDbMLeaderStyle
179
2
170
2
171
1
172
0
 90
2
 40
0.0
 41
0.0
173
1
 91
-1056964608
 92
-2
290
1
 42
2.0
291
1
 43
8.0
  3
Standard
 44
4.0
300

342
29
174
1
175
1
176
0
178
1
 93
-1056964608
 45
4.0
292
0
297
0
 46
4.0
 94
-1056964608
 47
1.0
 49
1.0
140
1.0
294
1
141
0.0
177
0
142
1.0
295
0
296
0
143
3.75
271
0
272
9
273
9
  0
DICTIONARY
  5
2D
330
A
100
AcDbDictionary
280
1
281
1
  3
CREATED_BY_EZDXF
350
2E
  3
WRITTEN_BY_EZDXF
350
68
  0
DICTIONARYVAR
  5
2E
330
2D
100
DictionaryVariables
280
0
  1
1.4.3 @ 2026-04-10T10:05:24.097548+00:00
  0
DICTIONARYVAR
  5
68
330
2D
100
DictionaryVariables
280
0
  1
1.4.3 @ 2026-04-10T10:05:24.115563+00:00
  0
ENDSEC
  0
EOF
