  0
SECTION
  2
HEADER
  9
$ACADVER
  1
AC1015
  9
$ACADMAINTVER
 70
6
  9
$DWGCODEPAGE
  3
ANSI_1252
  9
$INSBASE
 10
0.0
 20
0.0
 30
0.0
  9
$EXTMIN
 10
-61.4420906347
 20
-140.0
 30
0.0
  9
$EXTMAX
 10
218.5579093653
 20
140.0
 30
0.0
  9
$LIMMIN
 10
0.0
 20
0.0
  9
$LIMMAX
 10
420.0
 20
297.0
  9
$ORTHOMODE
 70
0
  9
$REGENMODE
 70
1
  9
$FILLMODE
 70
1
  9
$QTEXTMODE
 70
0
  9
$MIRRTEXT
 70
1
  9
$LTSCALE
 40
1.0
  9
$ATTMODE
 70
1
  9
$TEXTSIZE
 40
3.5
  9
$TRACEWID
 40
1.0
  9
$TEXTSTYLE
  7
Standard
  9
$CLAYER
  8
0
  9
$CELTYPE
  6
ByLayer
  9
$CECOLOR
 62
256
  9
$CELTSCALE
 40
1.0
  9
$DISPSILH
 70
0
  9
$DIMSCALE
 40
1.0
  9
$DIMASZ
 40
3.302
  9
$DIMEXO
 40
0.0
  9
$DIMDLI
 40
3.75
  9
$DIMRND
 40
0.0
  9
$DIMDLE
 40
0.0
  9
$DIMEXE
 40
1.0
  9
$DIMTP
 40
0.0
  9
$DIMTM
 40
0.0
  9
$DIMTXT
 40
3.5
  9
$DIMCEN
 40
2.5
  9
$DIMTSZ
 40
0.0
  9
$DIMTOL
 70
0
  9
$DIMLIM
 70
0
  9
$DIMTIH
 70
1
  9
$DIMTOH
 70
1
  9
$DIMSE1
 70
0
  9
$DIMSE2
 70
0
  9
$DIMTAD
 70
1
  9
$DIMZIN
 70
1
  9
$DIMBLK
  1

  9
$DIMASO
 70
1
  9
$DIMSHO
 70
1
  9
$DIMPOST
  1

  9
$DIMAPOST
  1

  9
$DIMALT
 70
0
  9
$DIMALTD
 70
3
  9
$DIMALTF
 40
0.0393700787
  9
$DIMLFAC
 40
1.0
  9
$DIMTOFL
 70
1
  9
$DIMTVP
 40
0.0
  9
$DIMTIX
 70
0
  9
$DIMSOXD
 70
0
  9
$DIMSAH
 70
0
  9
$DIMBLK1
  1

  9
$DIMBLK2
  1

  9
$DIMSTYLE
  2
ISO-25
  9
$DIMCLRD
 70
0
  9
$DIMCLRE
 70
0
  9
$DIMCLRT
 70
0
  9
$DIMTFAC
 40
1.0
  9
$DIMGAP
 40
1.524
  9
$DIMJUST
 70
0
  9
$DIMSD1
 70
0
  9
$DIMSD2
 70
0
  9
$DIMTOLJ
 70
0
  9
$DIMTZIN
 70
1
  9
$DIMALTZ
 70
0
  9
$DIMALTTZ
 70
0
  9
$DIMUPT
 70
0
  9
$DIMDEC
 70
2
  9
$DIMTDEC
 70
2
  9
$DIMALTU
 70
2
  9
$DIMALTTD
 70
3
  9
$DIMTXSTY
  7
Standard
  9
$DIMAUNIT
 70
0
  9
$DIMADEC
 70
2
  9
$DIMALTRND
 40
0.0
  9
$DIMAZIN
 70
0
  9
$DIMDSEP
 70
44
  9
$DIMATFIT
 70
3
  9
$DIMFRAC
 70
0
  9
$DIMLDRBLK
  1

  9
$DIMLUNIT
 70
2
  9
$DIMLWD
 70
-2
  9
$DIMLWE
 70
-2
  9
$DIMTMOVE
 70
0
  9
$LUNITS
 70
2
  9
$LUPREC
 70
6
  9
$SKETCHINC
 40
1.0
  9
$FILLETRAD
 40
0.0
  9
$AUNITS
 70
0
  9
$AUPREC
 70
2
  9
$MENU
  1
.
  9
$ELEVATION
 40
0.0
  9
$PELEVATION
 40
0.0
  9
$THICKNESS
 40
0.0
  9
$LIMCHECK
 70
0
  9
$CHAMFERA
 40
0.0
  9
$CHAMFERB
 40
0.0
  9
$CHAMFERC
 40
0.0
  9
$CHAMFERD
 40
0.0
  9
$SKPOLY
 70
0
  9
$TDCREATE
 40
2461192.6068055555
  9
$TDUCREATE
 40
2460168.373551679
  9
$TDUPDATE
 40
2461192.6068055555
  9
$TDUUPDATE
 40
2460168.373578507
  9
$TDINDWG
 40
1.16e-08
  9
$TDUSRTIMER
 40
1.16e-08
  9
$USRTIMER
 70
1
  9
$ANGBASE
 50
0.0
  9
$ANGDIR
 70
0
  9
$PDMODE
 70
0
  9
$PDSIZE
 40
-1.0
  9
$PLINEWID
 40
0.0
  9
$SPLFRAME
 70
0
  9
$SPLINETYPE
 70
6
  9
$SPLINESEGS
 70
8
  9
$HANDSEED
  5
81
  9
$SURFTAB1
 70
6
  9
$SURFTAB2
 70
6
  9
$SURFTYPE
 70
6
  9
$SURFU
 70
6
  9
$SURFV
 70
6
  9
$UCSBASE
  2

  9
$UCSNAME
  2

  9
$UCSORG
 10
0.0
 20
0.0
 30
0.0
  9
$UCSXDIR
 10
1.0
 20
0.0
 30
0.0
  9
$UCSYDIR
 10
0.0
 20
1.0
 30
0.0
  9
$UCSORTHOREF
  2

  9
$UCSORTHOVIEW
 70
0
  9
$UCSORGTOP
 10
0.0
 20
0.0
 30
0.0
  9
$UCSORGBOTTOM
 10
0.0
 20
0.0
 30
0.0
  9
$UCSORGLEFT
 10
0.0
 20
0.0
 30
0.0
  9
$UCSORGRIGHT
 10
0.0
 20
0.0
 30
0.0
  9
$UCSORGFRONT
 10
0.0
 20
0.0
 30
0.0
  9
$UCSORGBACK
 10
0.0
 20
0.0
 30
0.0
  9
$PUCSBASE
  2

  9
$PUCSNAME
  2

  9
$PUCSORG
 10
0.0
 20
0.0
 30
0.0
  9
$PUCSXDIR
 10
1.0
 20
0.0
 30
0.0
  9
$PUCSYDIR
 10
0.0
 20
1.0
 30
0.0
  9
$PUCSORTHOREF
  2

  9
$PUCSORTHOVIEW
 70
0
  9
$PUCSORGTOP
 10
0.0
 20
0.0
 30
0.0
  9
$PUCSORGBOTTOM
 10
0.0
 20
0.0
 30
0.0
  9
$PUCSORGLEFT
 10
0.0
 20
0.0
 30
0.0
  9
$PUCSORGRIGHT
 10
0.0
 20
0.0
 30
0.0
  9
$PUCSORGFRONT
 10
0.0
 20
0.0
 30
0.0
  9
$PUCSORGBACK
 10
0.0
 20
0.0
 30
0.0
  9
$USERI1
 70
0
  9
$USERI2
 70
0
  9
$USERI3
 70
0
  9
$USERI4
 70
0
  9
$USERI5
 70
0
  9
$USERR1
 40
0.0
  9
$USERR2
 40
0.0
  9
$USERR3
 40
0.0
  9
$USERR4
 40
0.0
  9
$USERR5
 40
0.0
  9
$WORLDVIEW
 70
1
  9
$SHADEDGE
 70
3
  9
$SHADEDIF
 70
70
  9
$TILEMODE
 70
1
  9
$MAXACTVP
 70
64
  9
$PINSBASE
 10
0.0
 20
0.0
 30
0.0
  9
$PLIMCHECK
 70
0
  9
$PEXTMIN
 10
1e+20
 20
1e+20
 30
1e+20
  9
$PEXTMAX
 10
-1e+20
 20
-1e+20
 30
-1e+20
  9
$PLIMMIN
 10
0.0
 20
0.0
  9
$PLIMMAX
 10
420.0
 20
297.0
  9
$UNITMODE
 70
0
  9
$VISRETAIN
 70
1
  9
$PLINEGEN
 70
0
  9
$PSLTSCALE
 70
1
  9
$TREEDEPTH
 70
3020
  9
$CMLSTYLE
  2
Standard
  9
$CMLJUST
 70
0
  9
$CMLSCALE
 40
20.0
  9
$PROXYGRAPHICS
 70
1
  9
$MEASUREMENT
 70
1
  9
$CELWEIGHT
370
-1
  9
$ENDCAPS
280
0
  9
$JOINSTYLE
280
0
  9
$LWDISPLAY
290
1
  9
$INSUNITS
 70
4
  9
$HYPERLINKBASE
  1

  9
$STYLESHEET
  1

  9
$XEDIT
290
1
  9
$CEPSNTYPE
380
0
  9
$PSTYLEMODE
290
1
  9
$FINGERPRINTGUID
  2
{de4b7740-8f68-4ac0-97f2-eb09193481f2}
  9
$VERSIONGUID
  2
{7E8687DD-A18D-444C-B7A9-8D6C79801183}
  9
$EXTNAMES
290
1
  9
$PSVPSCALE
 40
0.0
  9
$OLESTARTUP
290
0
  0
ENDSEC
  0
SECTION
  2
CLASSES
  0
CLASS
  1
ACDBDICTIONARYWDFLT
  2
AcDbDictionaryWithDefault
  3
ObjectDBX Classes
 90
0
280
0
281
0
  0
CLASS
  1
VISUALSTYLE
  2
AcDbVisualStyle
  3
ObjectDBX Classes
 90
4095
280
0
281
0
  0
CLASS
  1
MATERIAL
  2
AcDbMaterial
  3
ObjectDBX Classes
 90
1153
280
0
281
0
  0
CLASS
  1
SCALE
  2
AcDbScale
  3
ObjectDBX Classes
 90
1153
280
0
281
0
  0
CLASS
  1
TABLESTYLE
  2
AcDbTableStyle
  3
ObjectDBX Classes
 90
4095
280
0
281
0
  0
CLASS
  1
MLEADERSTYLE
  2
AcDbMLeaderStyle
  3
ACDB_MLEADERSTYLE_CLASS
 90
4095
280
0
281
0
  0
CLASS
  1
SUN
  2
AcDbSun
  3
SCENEOE
 90
1153
280
0
281
0
  0
CLASS
  1
ACDBPLACEHOLDER
  2
AcDbPlaceHolder
  3
ObjectDBX Classes
 90
0
280
0
281
0
  0
CLASS
  1
LAYOUT
  2
AcDbLayout
  3
ObjectDBX Classes
 90
0
280
0
281
0
  0
CLASS
  1
DICTIONARYVAR
  2
AcDbDictionaryVar
  3
ObjectDBX Classes
 90
0
280
0
281
0
  0
CLASS
  1
CELLSTYLEMAP
  2
AcDbCellStyleMap
  3
ObjectDBX Classes
 90
1152
280
0
281
0
  0
CLASS
  1
MENTALRAYRENDERSETTINGS
  2
AcDbMentalRayRenderSettings
  3
SCENEOE
 90
1024
280
0
281
0
  0
CLASS
  1
ACDBDETAILVIEWSTYLE
  2
AcDbDetailViewStyle
  3
ObjectDBX Classes
 90
1025
280
0
281
0
  0
CLASS
  1
ACDBSECTIONVIEWSTYLE
  2
AcDbSectionViewStyle
  3
ObjectDBX Classes
 90
1025
280
0
281
0
  0
CLASS
  1
RASTERVARIABLES
  2
AcDbRasterVariables
  3
ISM
 90
0
280
0
281
0
  0
ENDSEC
  0
SECTION
  2
TABLES
  0
TABLE
  2
VPORT
  5
8
330
0
100
AcDbSymbolTable
 70
1
  0
VPORT
  5
29
330
8
100
AcDbSymbolTableRecord
100
AcDbViewportTableRecord
  2
*Active
 70
0
 10
0.0
 20
0.0
 11
1.0
 21
1.0
 12
78.5579093653
 22
0.0
 13
0.0
 23
0.0
 14
10.0
 24
10.0
 15
10.0
 25
10.0
 16
0.0
 26
0.0
 36
1.0
 17
0.0
 27
0.0
 37
0.0
 40
285.6
 41
1.0
 42
50.0
 43
0.0
 44
0.0
 50
0.0
 51
0.0
 71
0
 72
100
 73
1
 74
3
 75
0
 76
0
 77
0
 78
0
281
0
 65
1
110
0.0
120
0.0
130
0.0
111
1.0
121
0.0
131
0.0
112
0.0
122
1.0
132
0.0
 79
0
146
0.0
  0
ENDTAB
  0
TABLE
  2
LTYPE
  5
5
330
0
100
AcDbSymbolTable
 70
8
  0
LTYPE
  5
14
330
5
100
AcDbSymbolTableRecord
100
AcDbLinetypeTableRecord
  2
ByBlock
 70
0
  3

 72
65
 73
0
 40
0.0
  0
LTYPE
  5
15
330
5
100
AcDbSymbolTableRecord
100
AcDbLinetypeTableRecord
  2
ByLayer
 70
0
  3

 72
65
 73
0
 40
0.0
  0
LTYPE
  5
16
330
5
100
AcDbSymbolTableRecord
100
AcDbLinetypeTableRecord
  2
Continuous
 70
0
  3
Solid line
 72
65
 73
0
 40
0.0
  0
LTYPE
  5
5E
330
5
100
AcDbSymbolTableRecord
100
AcDbLinetypeTableRecord
  2
HIDDEN
 70
0
  3
Hidden __ __ __ __ __ __ __ __ __ __ __ __ __ __
 72
65
 73
2
 40
1.905
 49
1.27
 74
0
 49
-0.635
 74
0
  0
LTYPE
  5
5F
330
5
100
AcDbSymbolTableRecord
100
AcDbLinetypeTableRecord
  2
PHANTOM
 70
0
  3
Phantom ______  __  __  ______  __  __  ______
 72
65
 73
6
 40
12.7
 49
6.35
 74
0
 49
-1.27
 74
0
 49
1.27
 74
0
 49
-1.27
 74
0
 49
1.27
 74
0
 49
-1.27
 74
0
  0
LTYPE
  5
60
330
5
100
AcDbSymbolTableRecord
100
AcDbLinetypeTableRecord
  2
CENTER
 70
0
  3
Center ____ _ ____ _ ____ _ ____ _ ____ _ ____
 72
65
 73
4
 40
10.16
 49
6.35
 74
0
 49
-1.27
 74
0
 49
1.27
 74
0
 49
-1.27
 74
0
  0
LTYPE
  5
61
330
5
100
AcDbSymbolTableRecord
100
AcDbLinetypeTableRecord
  2
CENTERX2
 70
0
  3
Center (2x) ________  __  ________  __  _____
 72
65
 73
4
 40
20.32
 49
12.7
 74
0
 49
-2.54
 74
0
 49
2.54
 74
0
 49
-2.54
 74
0
  0
LTYPE
  5
62
330
5
100
AcDbSymbolTableRecord
100
AcDbLinetypeTableRecord
  2
DOT2
 70
0
  3
Dot (.5x) ........................................
 72
65
 73
2
 40
0.635
 49
0.0
 74
0
 49
-0.635
 74
0
  0
ENDTAB
  0
TABLE
  2
LAYER
  5
2
330
0
100
AcDbSymbolTable
 70
2
  0
LAYER
  5
10
330
2
100
AcDbSymbolTableRecord
100
AcDbLayerTableRecord
  2
0
 70
0
 62
7
  6
Continuous
370
-3
390
F
  0
LAYER
  5
77
330
2
100
AcDbSymbolTableRecord
100
AcDbLayerTableRecord
  2
Defpoints
 70
0
 62
7
  6
Continuous
290
0
370
-3
390
F
  0
ENDTAB
  0
TABLE
  2
STYLE
  5
3
330
0
100
AcDbSymbolTable
 70
1
  0
STYLE
  5
11
330
3
100
AcDbSymbolTableRecord
100
AcDbTextStyleTableRecord
  2
Standard
 70
0
 40
0.0
 41
1.0
 50
0.0
 71
0
 42
3.5
  3
txt
  4

  0
ENDTAB
  0
TABLE
  2
VIEW
  5
6
330
0
100
AcDbSymbolTable
 70
0
  0
ENDTAB
  0
TABLE
  2
UCS
  5
7
330
0
100
AcDbSymbolTable
 70
0
  0
ENDTAB
  0
TABLE
  2
APPID
  5
9
330
0
100
AcDbSymbolTable
 70
4
  0
APPID
  5
12
330
9
100
AcDbSymbolTableRecord
100
AcDbRegAppTableRecord
  2
ACAD
 70
0
  0
APPID
  5
7C
330
9
100
AcDbSymbolTableRecord
100
AcDbRegAppTableRecord
  2
FORGE
 70
0
  0
APPID
  5
7D
330
9
100
AcDbSymbolTableRecord
100
AcDbRegAppTableRecord
  2
HATCHBACKGROUNDCOLOR
 70
0
  0
APPID
  5
7E
330
9
100
AcDbSymbolTableRecord
100
AcDbRegAppTableRecord
  2
EZDXF
 70
0
  0
ENDTAB
  0
TABLE
  2
DIMSTYLE
  5
A
330
0
100
AcDbSymbolTable
 70
2
100
AcDbDimStyleTable
  0
DIMSTYLE
105
27
330
A
100
AcDbSymbolTableRecord
100
AcDbDimStyleTableRecord
  2
ISO-25
 70
0
  3

  4

 40
1.0
 41
2.5
 42
0.625
 43
3.75
 44
1.25
 45
0.0
 46
0.0
 47
0.0
 48
0.0
140
2.5
141
2.5
142
0.0
143
0.0393700787
144
1.0
145
0.0
146
1.0
147
0.625
148
0.0
 71
0
 72
0
 73
0
 74
0
 75
0
 76
0
 77
1
 78
8
 79
3
170
0
171
3
172
1
173
0
174
0
175
0
176
0
177
0
178
0
179
2
271
2
272
2
273
2
274
3
275
0
276
0
277
2
278
44
279
0
280
0
281
0
282
0
283
0
284
8
285
0
286
0
288
0
289
3
340
11
371
-2
372
-2
  0
DIMSTYLE
105
78
330
A
100
AcDbSymbolTableRecord
100
AcDbDimStyleTableRecord
  2
Standard
 70
0
  3

  4

 40
1.0
 41
2.5
 42
0.625
 43
3.75
 44
1.25
 45
0.0
 46
0.0
 47
0.0
 48
0.0
140
2.5
141
2.5
142
0.0
143
0.03937007874
144
1.0
145
0.0
146
1.0
147
0.625
148
0.0
 71
0
 72
0
 73
0
 74
0
 75
0
 76
0
 77
1
 78
8
 79
3
170
0
171
3
172
1
173
0
174
0
175
0
176
0
177
0
178
0
179
2
271
2
272
2
273
2
274
3
275
0
276
0
277
2
278
44
279
0
280
0
281
0
282
0
283
0
284
8
285
0
286
0
288
0
289
3
371
-2
372
-2
  0
ENDTAB
  0
TABLE
  2
BLOCK_RECORD
  5
1
330
0
100
AcDbSymbolTable
 70
3
  0
BLOCK_RECORD
  5
1F
330
1
100
AcDbSymbolTableRecord
100
AcDbBlockTableRecord
  2
*Model_Space
340
22
  0
BLOCK_RECORD
  5
1B
330
1
100
AcDbSymbolTableRecord
100
AcDbBlockTableRecord
  2
*Paper_Space
340
1E
  0
BLOCK_RECORD
  5
23
330
1
100
AcDbSymbolTableRecord
100
AcDbBlockTableRecord
  2
*Paper_Space0
340
26
  0
ENDTAB
  0
ENDSEC
  0
SECTION
  2
BLOCKS
  0
BLOCK
  5
20
330
1F
100
AcDbEntity
  8
0
100
AcDbBlockBegin
  2
*Model_Space
 70
0
 10
0.0
 20
0.0
 30
0.0
  3
*Model_Space
  1

  0
ENDBLK
  5
21
330
1F
100
AcDbEntity
  8
0
100
AcDbBlockEnd
  0
BLOCK
  5
1C
330
1B
100
AcDbEntity
 67
1
  8
0
100
AcDbBlockBegin
  2
*Paper_Space
 70
0
 10
0.0
 20
0.0
 30
0.0
  3
*Paper_Space
  1

  0
ENDBLK
  5
1D
330
1B
100
AcDbEntity
 67
1
  8
0
100
AcDbBlockEnd
  0
BLOCK
  5
24
330
23
100
AcDbEntity
  8
0
100
AcDbBlockBegin
  2
*Paper_Space0
 70
0
 10
0.0
 20
0.0
 30
0.0
  3
*Paper_Space0
  1

  0
ENDBLK
  5
25
330
23
100
AcDbEntity
  8
0
100
AcDbBlockEnd
  0
ENDSEC
  0
SECTION
  2
ENTITIES
  0
CIRCLE
  5
63
330
1F
100
AcDbEntity
  8
Hole
  6
Continuous
 62
6
370
25
100
AcDbCircle
 10
-41.4420906347
 20
-120.0
 30
0.0
 40
4.500000000000014
  0
CIRCLE
  5
64
330
1F
100
AcDbEntity
  8
Hole
  6
Continuous
 62
6
370
25
100
AcDbCircle
 10
78.5579093653
 20
-120.0
 30
0.0
 40
4.500000000000014
  0
CIRCLE
  5
65
330
1F
100
AcDbEntity
  8
Hole
  6
Continuous
 62
6
370
25
100
AcDbCircle
 10
198.5579093653
 20
-120.0
 30
0.0
 40
4.5
  0
CIRCLE
  5
66
330
1F
100
AcDbEntity
  8
Hole
  6
Continuous
 62
6
370
25
100
AcDbCircle
 10
198.5579093653
 20
120.0
 30
0.0
 40
4.499999999999943
  0
CIRCLE
  5
67
330
1F
100
AcDbEntity
  8
Hole
  6
Continuous
 62
6
370
25
100
AcDbCircle
 10
78.5579093653
 20
120.0
 30
0.0
 40
4.500000000000028
  0
CIRCLE
  5
68
330
1F
100
AcDbEntity
  8
Hole
  6
Continuous
 62
6
370
25
100
AcDbCircle
 10
-41.4420906347
 20
120.0
 30
0.0
 40
4.500000000000021
  0
SPLINE
  5
69
330
1F
100
AcDbEntity
  8
Trash
  6
Continuous
 62
1
370
25
100
AcDbSpline
 70
11
 71
3
 72
98
 73
94
 74
0
 42
1e-08
 43
1e-08
 40
0.0
 40
0.0
 40
0.0
 40
0.0
 40
0.0066160709274561
 40
0.0066160709274561
 40
0.0066160709274561
 40
0.0195826653954609
 40
0.0195826653954609
 40
0.0195826653954609
 40
0.0364211129221947
 40
0.0364211129221947
 40
0.0364211129221947
 40
0.0479475367920736
 40
0.0479475367920736
 40
0.0479475367920736
 40
0.059450771655203
 40
0.059450771655203
 40
0.059450771655203
 40
0.070940952051757
 40
0.070940952051757
 40
0.070940952051757
 40
0.0882705544559582
 40
0.0882705544559582
 40
0.0882705544559582
 40
0.1055856538449892
 40
0.1055856538449892
 40
0.1055856538449892
 40
0.1229023734517787
 40
0.1229023734517787
 40
0.1229023734517787
 40
0.1391172555859114
 40
0.1391172555859114
 40
0.1391172555859114
 40
0.152838488820659
 40
0.152838488820659
 40
0.152838488820659
 40
0.1642533728529282
 40
0.1642533728529282
 40
0.1642533728529282
 40
0.1737828090880266
 40
0.1737828090880266
 40
0.1737828090880266
 40
0.1818977932090611
 40
0.1818977932090611
 40
0.1818977932090611
 40
0.1964600694174191
 40
0.1964600694174191
 40
0.1964600694174191
 40
0.2104404946257299
 40
0.2104404946257299
 40
0.2104404946257299
 40
0.2227761126273882
 40
0.2227761126273882
 40
0.2227761126273882
 40
0.2393442292509804
 40
0.2393442292509804
 40
0.2393442292509804
 40
0.2506329495681524
 40
0.2506329495681524
 40
0.2506329495681524
 40
0.2618989167065241
 40
0.2618989167065241
 40
0.2618989167065241
 40
0.2731519080058079
 40
0.2731519080058079
 40
0.2731519080058079
 40
0.2843975082385687
 40
0.2843975082385687
 40
0.2843975082385687
 40
0.3024157399085964
 40
0.3024157399085964
 40
0.3024157399085964
 40
0.3204282891816457
 40
0.3204282891816457
 40
0.3204282891816457
 40
0.3374314428367425
 40
0.3374314428367425
 40
0.3374314428367425
 40
0.3521129965678101
 40
0.3521129965678101
 40
0.3521129965678101
 40
0.3643764238617763
 40
0.3643764238617763
 40
0.3643764238617763
 40
0.3745756500445988
 40
0.3745756500445988
 40
0.3745756500445988
 40
0.3831838061136422
 40
0.3831838061136422
 40
0.3831838061136422
 40
0.3984473853153215
 40
0.3984473853153215
 40
0.3984473853153215
 40
0.4082233849610403
 40
0.4082233849610403
 40
0.4082233849610403
 40
0.4082233849610403
 10
2.639094977587186
 20
3.8e-15
 30
0.0
 10
2.639094977587186
 20
-2.205356975818689
 30
0.0
 10
2.843794749536555
 20
-4.419527041443983
 30
0.0
 10
3.243003063321932
 20
-6.588451224765474
 30
0.0
 10
4.01777221325434
 20
-10.79782133994606
 30
0.0
 10
5.553997046772737
 20
-14.91244017817021
 30
0.0
 10
7.626500305919014
 20
-18.65727585455048
 30
0.0
 10
10.31111940127346
 20
-23.50815235928339
 30
0.0
 10
13.95302741654828
 20
-27.88446765360143
 30
0.0
 10
18.05443290999156
 20
-31.6149710418407
 30
0.0
 10
20.8846605401229
 20
-34.18925290218642
 30
0.0
 10
23.9700552243959
 20
-36.49996725383929
 30
0.0
 10
27.20238660578369
 20
-38.54670841377123
 30
0.0
 10
30.43066587714667
 20
-40.59088374136925
 30
0.0
 10
33.82654853596922
 20
-42.38597803805187
 30
0.0
 10
37.31616745721435
 20
-43.94257676873375
 30
0.0
 10
40.80331745529619
 20
-45.49807419788419
 30
0.0
 10
44.4005590331976
 20
-46.82300059026966
 30
0.0
 10
48.05537489287583
 20
-47.92849070468061
 30
0.0
 10
53.55778597226616
 20
-49.59283202507392
 30
0.0
 10
59.2261074329011
 20
-50.77102473468687
 30
0.0
 10
64.92976779072536
 20
-51.48853309000413
 30
0.0
 10
70.63031401877991
 20
-52.20564969441248
 30
0.0
 10
76.4055873045687
 20
-52.46757457200803
 30
0.0
 10
82.148004744569
 20
-52.28015667722254
 30
0.0
 10
87.8905484009979
 20
-52.09273466305395
 30
0.0
 10
93.63783860302556
 20
-51.45472127618702
 30
0.0
 10
99.2766210247368
 20
-50.35196678946408
 30
0.0
 10
104.5566754554408
 20
-49.31936732416442
 30
0.0
 10
109.7767203562158
 20
-47.87228478840267
 30
0.0
 10
114.8146804120096
 20
-45.98437723686332
 30
0.0
 10
119.0796817389712
 20
-44.38612553908816
 30
0.0
 10
123.2412010346815
 20
-42.46137146870988
 30
0.0
 10
127.1894757888253
 20
-40.19073911753198
 30
0.0
 10
130.475468261665
 20
-38.30098187439022
 30
0.0
 10
133.6337162789993
 20
-36.159454690168
 30
0.0
 10
136.569704042931
 20
-33.76176730028381
 30
0.0
 10
139.0216940129679
 20
-31.75933884894476
 30
0.0
 10
141.3332199942824
 20
-29.56547180235976
 30
0.0
 10
143.4272052514874
 20
-27.19119291004278
 30
0.0
 10
145.2109785063386
 20
-25.16864992742134
 30
0.0
 10
146.8473889628411
 20
-23.00232048796835
 30
0.0
 10
148.2769538812358
 20
-20.71564795230244
 30
0.0
 10
150.813963325159
 20
-16.65755325265178
 30
0.0
 10
152.7347483786436
 20
-12.11090792561495
 30
0.0
 10
153.7088430800844
 20
-7.425218112736463
 30
0.0
 10
154.6428235316366
 20
-2.932489961364078
 30
0.0
 10
154.7175288934209
 20
1.820996071072132
 30
0.0
 10
153.9177501965493
 20
6.339544484229374
 30
0.0
 10
153.208158875293
 20
10.34855691628649
 30
0.0
 10
151.8092155701745
 20
14.27596103989695
 30
0.0
 10
149.9106072251593
 20
17.87748667160215
 30
0.0
 10
147.3694481623778
 20
22.69788552999566
 30
0.0
 10
143.8786847519768
 20
27.07211059028023
 30
0.0
 10
139.9208225933939
 20
30.81764949276344
 30
0.0
 10
137.2021463026846
 20
33.39047982441804
 30
0.0
 10
134.2287545082685
 20
35.71043822762277
 30
0.0
 10
131.1064070834185
 20
37.7748033231615
 30
0.0
 10
127.9879770806234
 20
39.83657838362267
 30
0.0
 10
124.7007036406434
 20
41.65775690867468
 30
0.0
 10
121.3172606413536
 20
43.24767374701209
 30
0.0
 10
117.9362450516808
 20
44.83644991904461
 30
0.0
 10
114.443268202636
 20
46.20203570827706
 30
0.0
 10
110.8899649864855
 20
47.35508054544625
 30
0.0
 10
107.3381165588126
 20
48.50765330459641
 30
0.0
 10
103.7130357408556
 20
49.45212458990068
 30
0.0
 10
100.053882237652
 20
50.19687076027714
 30
0.0
 10
94.20282992836077
 20
51.38773329069627
 30
0.0
 10
88.22959179468815
 20
52.07541298439907
 30
0.0
 10
82.26196415141145
 20
52.27637816451347
 30
0.0
 10
76.29571421307989
 20
52.47729694918583
 30
0.0
 10
70.29266766536725
 20
52.1931563462195
 30
0.0
 10
64.37369405060578
 20
51.41710349207035
 30
0.0
 10
58.78593961321266
 20
50.68447769211597
 30
0.0
 10
53.23491182676902
 20
49.50837986771045
 30
0.0
 10
47.84444294299719
 20
47.86442566261444
 30
0.0
 10
43.18824231635225
 20
46.44440436855077
 30
0.0
 10
38.62172963528485
 20
44.66579765476182
 30
0.0
 10
34.25960680439317
 20
42.50511508682718
 30
0.0
 10
30.6144154361776
 20
40.69954890920551
 30
0.0
 10
27.0895072693663
 20
38.61543807485721
 30
0.0
 10
23.78560231107452
 20
36.24231747967885
 30
0.0
 10
21.03670680439818
 20
34.26784768613501
 30
0.0
 10
18.4243695856918
 20
32.0806769378751
 30
0.0
 10
16.03239331843128
 20
29.68622355367552
 30
0.0
 10
14.01284245260971
 20
27.66458125253016
 30
0.0
 10
12.13846659021117
 20
25.48231396758075
 30
0.0
 10
10.47537595880925
 20
23.15857713971833
 30
0.0
 10
7.55914605421261
 20
19.08390393798635
 30
0.0
 10
5.245978148765921
 20
14.46027591214407
 30
0.0
 10
3.933716956684409
 20
9.624437916394708
 30
0.0
 10
3.085966879031031
 20
6.500378421872202
 30
0.0
 10
2.639094977587186
 20
3.237039993493676
 30
0.0
 10
2.639094977587186
 20
3.8e-15
 30
0.0
  0
LWPOLYLINE
  5
7A
330
1F
100
AcDbEntity
  8
OuterContour
 62
3
100
AcDbPolyline
 90
4
 70
1
 10
-61.4420906347
 20
-140.0
 10
218.5579093653
 20
-140.0
 10
218.5579093653
 20
140.0
 10
-61.4420906347
 20
140.0
1001
FORGE
1000
{"label": "quadro_fori_spline", "source_file": "quadro_fori_spline.DXF", "quantity": 1, "material": "S275JR", "thickness_mm": 0.0, "bending_lines": 0, "countersink_count": 0, "threaded_holes_count": 0, "total_engrave_length_mm": 0.0, "area_mm2": 65537.4345, "holes_count": 6, "inner_contours_count": 1, "outer_perimeter_mm": 1120.0, "inner_perimeter_mm": 406.3275, "total_perimeter_mm": 1526.3275, "bbox": {"minx": -61.4421, "miny": -140.0, "maxx": 218.5579, "maxy": 140.0}}
  0
LWPOLYLINE
  5
7B
330
1F
100
AcDbEntity
  8
InnerContour
 62
2
100
AcDbPolyline
 90
268
 70
1
 10
2.677316946857171
 20
-1.6548255147635282
 10
2.7913459027850425
 20
-3.3078879095691858
 10
2.980226417547672
 20
-4.954119155781617
 10
3.243003063321932
 20
-6.588451224765474
 10
3.568794930382729
 20
-8.161986380200691
 10
3.963334471788016
 20
-9.723415573520215
 10
4.423982891546096
 20
-11.269515774823025
 10
4.948101393665272
 20
-12.797063954208095
 10
5.53305118215385
 20
-14.302837081774403
 10
6.17619346102013
 20
-15.783612127620918
 10
6.874889434272416
 20
-17.236166061846617
 10
7.626500305919014
 20
-18.65727585455048
 10
8.14096308471458
 20
-19.56121212575148
 10
8.677133135888525
 20
-20.453775013072157
 10
9.234281272758599
 20
-21.334713661001278
 10
9.811678308642545
 20
-22.20377721402762
 10
10.40859505685811
 20
-23.060714816639972
 10
11.024302330723039
 20
-23.90527561332708
 10
11.658070943555078
 20
-24.73720874857774
 10
12.309171708671974
 20
-25.556263366880703
 10
12.976875439391474
 20
-26.36218861272476
 10
13.660452949031324
 20
-27.15473363059869
 10
14.359175050909274
 20
-27.933647564991258
 10
15.07231255834306
 20
-28.69867956039123
 10
16.538917043149148
 20
-30.186094312168496
 10
18.054432909991558
 20
-31.614971041840697
 10
19.12751783953764
 20
-32.5679712201507
 10
20.22325635591308
 20
-33.49625719042276
 10
21.340380134621487
 20
-34.399824198558896
 10
22.47762085116646
 20
-35.278667490461125
 10
23.63371018105157
 20
-36.13278231203146
 10
24.80737979978042
 20
-36.96216390917191
 10
25.997361382856596
 20
-37.76680752778449
 10
27.20238660578369
 20
-38.54670841377123
 10
28.42070346960339
 20
-39.301619163032484
 10
29.65386752062589
 20
-40.0333026140624
 10
30.90101312847968
 20
-40.74188281527792
 10
32.16127466279322
 20
-41.427483815096046
 10
33.43378649319497
 20
-42.090229661933705
 10
34.71768298931344
 20
-42.73024440420791
 10
36.01209852077707
 20
-43.3476520903356
 10
37.31616745721435
 20
-43.94257676873375
 10
38.62890667645134
 20
-44.51510203489257
 10
39.95135154420998
 20
-45.06614175180925
 10
41.28288662340383
 20
-45.59582640493837
 10
42.62289647694645
 20
-46.10428647973449
 10
43.9707656677514
 20
-46.5916524616522
 10
45.325878758732244
 20
-47.058054836146084
 10
46.687620312802515
 20
-47.503624088670676
 10
48.05537489287583
 20
-47.92849070468061
 10
50.12630107433826
 20
-48.529880218573716
 10
52.21125121946358
 20
-49.08599170946185
 10
54.30869519367303
 20
-49.59712358660067
 10
56.417102862387864
 20
-50.06357425924588
 10
58.53494409102929
 20
-50.485642136653155
 10
60.66068874501853
 20
-50.86362562807817
 10
62.792806689776796
 20
-51.19782314277659
 10
64.92976779072536
 20
-51.48853309000413
 10
67.07076533421866
 20
-51.73612612820203
 10
69.2175078022239
 20
-51.94111348444599
 10
71.36873445759042
 20
-52.10356370117074
 10
73.52318456316753
 20
-52.22354532081102
 10
75.67959738180463
 20
-52.30112688580161
 10
77.836712176351
 20
-52.33637693857723
 10
79.99326820965601
 20
-52.32936402157262
 10
82.148004744569
 20
-52.28015667722254
 10
84.30145991019947
 20
-52.18872431512823
 10
86.45403286534801
 20
-52.054883194728326
 10
88.60439641088281
 20
-51.878467498907696
 10
90.75122334767204
 20
-51.65931141055119
 10
92.89318647658385
 20
-51.39724911254372
 10
95.0289585984865
 20
-51.09211478777013
 10
97.15721251424806
 20
-50.74374261911528
 10
99.2766210247368
 20
-50.35196678946408
 10
101.25359006118566
 20
-49.94526164693685
 10
103.22350263410544
 20
-49.49939002188214
 10
105.18492817339784
 20
-49.01404321962828
 10
107.13643610896455
 20
-48.48891254550359
 10
109.07659587070734
 20
-47.923689304836415
 10
111.00397688852797
 20
-47.318064802955085
 10
112.91714859232818
 20
-46.67173034518795
 10
114.81468041200958
 20
-45.98437723686331
 10
116.40899080950233
 20
-45.36969020791117
 10
117.99231348714748
 20
-44.72416652010329
 10
119.56336216552734
 20
-44.04757911201551
 10
121.12085056522413
 20
-43.33970092222368
 10
122.66349240682008
 20
-42.60030488930357
 10
124.19000141089742
 20
-41.829163951831035
 10
125.69909129803841
 20
-41.026051048381895
 10
127.1894757888253
 20
-40.19073911753198
 10
128.41555034362062
 20
-39.470269860630154
 10
129.62854124870566
 20
-38.72614572333898
 10
130.82734089707387
 20
-37.95831525724539
 10
132.01084168171866
 20
-37.1667270139363
 10
133.17793599563333
 20
-36.35132954499867
 10
134.3275162318114
 20
-35.512071402019416
 10
135.45847478324612
 20
-34.648901136585486
 10
136.569704042931
 20
-33.76176730028381
 10
137.48246549172467
 20
-33.001904483499644
 10
138.3811551985828
 20
-32.224223518132064
 10
139.26486992051252
 20
-31.4288536239019
 10
140.13270641452118
 20
-30.61592402053002
 10
140.98376143761575
 20
-29.785563927737286
 10
141.81713174680354
 20
-28.937902565244613
 10
142.63191409909166
 20
-28.073069152772824
 10
143.4272052514874
 20
-27.19119291004278
 10
144.7364752501267
 20
-25.647692014930445
 10
145.36864469753715
 20
-24.856408414087973
 10
145.98490769253277
 20
-24.05246901356429
 10
146.58456717175702
 20
-23.236148540241643
 10
147.1669260718533
 20
-22.407721721002282
 10
147.7312873294651
 20
-21.56746328272847
 10
148.27695388123578
 20
-20.715647952302437
 10
149.19880146307395
 20
-19.171644258457416
 10
150.0590053603209
 20
-17.585934718391158
 10
150.85369292498908
 20
-15.962615107199898
 10
151.578991509091
 20
-14.30578119997986
 10
151.91440973093344
 20
-13.46607631507663
 10
152.23102846463905
 20
-12.619528771827266
 10
152.52836362920925
 20
-11.76665054211882
 10
152.80593114364564
 20
-10.907953597838343
 10
153.06324692694983
 20
-10.043949910872843
 10
153.29982689812329
 20
-9.175151453109343
 10
153.51518697616763
 20
-8.302070196434872
 10
153.7088430800844
 20
-7.425218112736463
 10
153.87389107166504
 20
-6.579896847344676
 10
154.01877752456625
 20
-5.729190185571063
 10
154.14348016002495
 20
-4.873824243871176
 10
154.24797669927815
 20
-4.014525138700569
 10
154.3322448635629
 20
-3.152018986514851
 10
154.39626237411608
 20
-2.2870319037696283
 10
154.4400069521747
 20
-1.4202900069204536
 10
154.46345631897577
 20
-0.55251941242288
 10
154.46658819575623
 20
0.3155537632674852
 10
154.44938030375312
 20
1.1832034036950347
 10
154.41181036420332
 20
2.049703392404214
 10
154.3538560983439
 20
2.9143276129394717
 10
154.2754952274118
 20
3.7763499488451995
 10
154.17670547264402
 20
4.635044283665818
 10
154.0574645552775
 20
5.489684500945744
 10
153.91775019654926
 20
6.339544484229373
 10
153.61971055914705
 20
7.838621666590287
 10
153.25926706713238
 20
9.327185528821921
 10
152.83864261437975
 20
10.802373529711872
 10
152.36006009476387
 20
12.26132312804773
 10
151.8257424021593
 20
13.701171782617093
 10
151.23791243044062
 20
15.119056952207554
 10
150.5987930734824
 20
16.512116095606707
 10
149.9106072251593
 20
17.87748667160215
 10
149.42312952415773
 20
18.77603829967278
 10
148.91410226657047
 20
19.663865377260823
 10
148.3842322477093
 20
20.540700552276917
 10
147.83422626288575
 20
21.40627647263166
 10
147.26479110741158
 20
22.260325786235647
 10
146.67663357659848
 20
23.102581140999483
 10
146.0704604657581
 20
23.93277518483377
 10
145.44697857020216
 20
24.75064056564915
 10
144.80689468524224
 20
25.555909931356197
 10
144.15091560619007
 20
26.348315929865507
 10
142.79409904705577
 20
27.89346841693345
 10
141.38218325529257
 20
29.383959210137817
 10
139.9208225933939
 20
30.81764949276344
 10
138.88958575739414
 20
31.770602180294045
 10
137.83570871643678
 20
32.69981623336978
 10
136.76043084403676
 20
33.60525976082798
 10
135.66499151370897
 20
34.48690087150592
 10
134.55063009896833
 20
35.34470767424094
 10
133.41858597332975
 20
36.17864827787033
 10
132.27009851030817
 20
36.98869079123141
 10
131.1064070834185
 20
37.7748033231615
 10
129.92922323742005
 20
38.536709240363486
 10
128.73706196619182
 20
39.27616862512901
 10
127.53077491674019
 20
39.99329087021622
 10
126.31121373607158
 20
40.6881853683832
 10
125.07923007119226
 20
41.360961512388144
 10
123.83567556910856
 20
42.01172869498919
 10
122.5814018768269
 20
42.640596308944474
 10
121.31726064135358
 20
43.24767374701208
 10
120.04423246059217
 20
43.83302356199993
 10
118.76131300815844
 20
44.397574076616735
 10
117.469107380446
 20
44.94145008887891
 10
116.16822067384868
 20
45.46477639680291
 10
114.85925798476025
 20
45.96767779840521
 10
113.54282440957442
 20
46.45027909170224
 10
112.21952504468487
 20
46.91270507471042
 10
110.8899649864855
 20
47.35508054544625
 10
109.5546655416125
 20
47.77755693361705
 10
108.21295946294374
 20
48.18062196907086
 10
105.51216301539274
 20
48.92891062365183
 10
102.7912468661797
 20
49.60073179283774
 10
100.053882237652
 20
50.19687076027714
 10
97.8542597633272
 20
50.61988967840685
 10
95.64467998103045
 20
50.99592819375605
 10
93.42664050382552
 20
51.32517929448641
 10
91.20163894477625
 20
51.60783596875959
 10
88.97117291694639
 20
51.84409120473722
 10
86.73674003339977
 20
52.03413799058097
 10
84.49983790720017
 20
52.17816931445251
 10
82.26196415141145
 20
52.27637816451347
 10
80.02313165679719
 20
52.32897216547092
 10
77.78226592000273
 20
52.33601154184261
 10
75.54078338097722
 20
52.29741598663384
 10
73.30010047966982
 20
52.21310519284997
 10
71.06163365602978
 20
52.08299885349635
 10
68.82679935000631
 20
51.90701666157832
 10
66.59701400154859
 20
51.685078310101204
 10
64.37369405060578
 20
51.41710349207035
 10
62.280249558213235
 20
51.12153344024554
 10
60.19169934854712
 20
50.78410213195374
 10
58.109494580807265
 20
50.40452381302029
 10
56.03508641419348
 20
49.9825127292705
 10
53.969926007905684
 20
49.51778312652969
 10
51.91546452114383
 20
49.01004925062321
 10
49.873153113107705
 20
48.459025347376354
 10
47.84444294299719
 20
47.86442566261444
 10
46.102795857611696
 20
47.31506310603621
 10
44.3709011800686
 20
46.731807887830364
 10
42.650103073312415
 20
46.114384729468554
 10
40.94174570028766
 20
45.46251835242241
 10
39.24717322393884
 20
44.77593347816355
 10
37.56772980721046
 20
44.054354828163625
 10
35.904759613047084
 20
43.297507123894306
 10
34.25960680439317
 20
42.50511508682718
 10
32.898495035142055
 20
41.81495054977853
 10
31.549840128605958
 20
41.09854981322306
 10
30.214822397368284
 20
40.35579023922203
 10
28.894622154012403
 20
39.58654918983676
 10
27.5904197111217
 20
38.79070402712851
 10
26.30339538127955
 20
37.968132113158575
 10
25.034729477069348
 20
37.11871080998825
 10
23.78560231107452
 20
36.24231747967885
 10
22.76133134289659
 20
35.49193153250146
 10
21.75084477667844
 20
34.72166836674259
 10
20.7551246748827
 20
33.931591478325416
 10
19.775153099971966
 20
33.12176436317309
 10
18.811912114408848
 20
32.29225051720877
 10
17.86638378065596
 20
31.443113436355638
 10
16.9395501611759
 20
30.574416616536837
 10
16.03239331843128
 20
29.68622355367552
 10
15.281995943571872
 20
28.920615807600687
 10
14.545983454512747
 20
28.14017394711715
 10
13.82513058048329
 20
27.345122450047878
 10
13.120212050712876
 20
26.5356857942158
 10
12.432002594430887
 20
25.712088457443862
 10
11.761276940866694
 20
24.874554917555
 10
11.108809819249679
 20
24.023309652372163
 10
10.47537595880925
 20
23.15857713971833
 10
9.410835316253113
 20
21.605500136482025
 10
8.407493978861991
 20
20.00490484724558
 10
7.470014189380599
 20
18.360737500769176
 10
7.027429325963773
 20
17.52354750255355
 10
6.603058190553645
 20
16.67694432581301
 10
6.197483563493304
 20
15.821421249142585
 10
5.811288225125837
 20
14.957471551137285
 10
5.445054955794336
 20
14.085588510392146
 10
5.099366535841886
 20
13.206265405502187
 10
4.7748057456115784
 20
12.319995515062434
 10
4.471955365446503
 20
11.427272117667913
 10
4.19139817568976
 20
10.528588491913697
 10
3.933716956684409
 20
9.624437916394708
 10
3.6346916735688115
 20
8.446710299222584
 10
3.3737877084404473
 20
7.257865641791389
 10
3.1515440502669056
 20
6.0598443038910546
 10
2.9684996880157772
 20
4.8545866453115165
 10
2.8251936106546514
 20
3.644033025842704
 10
2.722164807151118
 20
2.4301238052745506
 10
2.659952266472767
 20
1.2147993433969881
 10
2.639094977587186
 20
3.8e-15
  0
ENDSEC
  0
SECTION
  2
OBJECTS
  0
DICTIONARY
  5
C
330
0
100
AcDbDictionary
281
1
  3
ACAD_GROUP
350
D
  3
ACAD_LAYOUT
350
1A
  3
ACAD_MLINESTYLE
350
17
  3
ACAD_PLOTSETTINGS
350
19
  3
ACAD_PLOTSTYLENAME
350
E
  3
ACAD_SCALELIST
350
47
  3
DWGPROPS
350
6E
  3
ACAD_COLOR
350
6F
  3
ACAD_MATERIAL
350
70
  3
ACAD_MLEADERSTYLE
350
71
  3
ACAD_TABLESTYLE
350
72
  3
ACAD_VISUALSTYLE
350
73
  3
EZDXF_META
350
7F
  0
DICTIONARY
  5
D
102
{ACAD_REACTORS
330
C
102
}
330
C
100
AcDbDictionary
281
1
  0
DICTIONARY
  5
1A
102
{ACAD_REACTORS
330
C
102
}
330
C
100
AcDbDictionary
281
1
  3
Layout1
350
1E
  3
Layout2
350
26
  3
Model
350
22
  0
DICTIONARY
  5
17
102
{ACAD_REACTORS
330
C
102
}
330
C
100
AcDbDictionary
281
1
  3
Standard
350
18
  0
DICTIONARY
  5
19
102
{ACAD_REACTORS
330
C
102
}
330
C
100
AcDbDictionary
281
1
  0
ACDBDICTIONARYWDFLT
  5
E
102
{ACAD_REACTORS
330
C
102
}
330
C
100
AcDbDictionary
281
1
  3
Normal
350
F
100
AcDbDictionaryWithDefault
340
F
  0
DICTIONARY
  5
47
102
{ACAD_REACTORS
330
C
102
}
330
C
100
AcDbDictionary
281
1
  3
A0
350
48
  3
A1
350
49
  3
A2
350
4A
  3
A3
350
4B
  3
A4
350
4C
  3
A5
350
4D
  3
A6
350
4E
  3
A7
350
4F
  3
A8
350
50
  3
A9
350
51
  3
B0
350
52
  3
B1
350
53
  3
B2
350
54
  3
B3
350
55
  3
B4
350
56
  3
B5
350
57
  3
B6
350
58
  0
XRECORD
  5
6E
102
{ACAD_REACTORS
330
C
102
}
330
C
100
AcDbXrecord
280
1
  1
DWGPROPS COOKIE
  2

  3

  4

  6

  7

  8
STB
  9

300
=
301
=
302
=
303
=
304
=
305
=
306
=
307
=
308
=
309
=
 40
0.0
 41
2460168.373551679
 42
2460168.373578507
  1

 90
0
  0
LAYOUT
  5
1E
102
{ACAD_REACTORS
330
1A
102
}
330
1A
100
AcDbPlotSettings
  1

  2
none_device
  4

  6

 40
0.0
 41
0.0
 42
0.0
 43
0.0
 44
0.0
 45
0.0
 46
0.0
 47
0.0
 48
0.0
 49
0.0
140
0.0
141
0.0
142
1.0
143
1.0
 70
688
 72
1
 73
0
 74
5
  7

 75
16
 76
0
 77
2
 78
300
147
1.0
148
0.0
149
0.0
100
AcDbLayout
  1
Layout1
 70
1
 71
1
 10
0.0
 20
0.0
 11
420.0
 21
297.0
 12
0.0
 22
0.0
 32
0.0
 14
1e+20
 24
1e+20
 34
1e+20
 15
-1e+20
 25
-1e+20
 35
-1e+20
146
0.0
 13
0.0
 23
0.0
 33
0.0
 16
1.0
 26
0.0
 36
0.0
 17
0.0
 27
1.0
 37
0.0
 76
0
330
1B
  0
LAYOUT
  5
26
102
{ACAD_REACTORS
330
1A
102
}
330
1A
100
AcDbPlotSettings
  1

  2
none_device
  4

  6

 40
0.0
 41
0.0
 42
0.0
 43
0.0
 44
0.0
 45
0.0
 46
0.0
 47
0.0
 48
0.0
 49
0.0
140
0.0
141
0.0
142
1.0
143
1.0
 70
688
 72
1
 73
0
 74
5
  7

 75
16
 76
0
 77
2
 78
300
147
1.0
148
0.0
149
0.0
100
AcDbLayout
  1
Layout2
 70
1
 71
2
 10
0.0
 20
0.0
 11
0.0
 21
0.0
 12
0.0
 22
0.0
 32
0.0
 14
0.0
 24
0.0
 34
0.0
 15
0.0
 25
0.0
 35
0.0
146
0.0
 13
0.0
 23
0.0
 33
0.0
 16
1.0
 26
0.0
 36
0.0
 17
0.0
 27
1.0
 37
0.0
 76
0
330
23
  0
LAYOUT
  5
22
102
{ACAD_REACTORS
330
1A
102
}
330
1A
100
AcDbPlotSettings
  1

  2
none_device
  4
ANSI_A_(11.00_x_8.50_Inches)
  6

 40
6.35
 41
19.05
 42
6.35000508
 43
19.05000254
 44
279.4
 45
215.9
 46
73.3819756541
 47
88.89999873
 48
0.0
 49
0.0
140
0.0
141
0.0
142
0.0300535714
143
1.0
 70
1696
 72
0
 73
0
 74
0
  7

 75
0
 76
0
 77
2
 78
300
147
0.0179189148
148
-1300.4909072572
149
0.0
100
AcDbLayout
  1
Model
 70
1
 71
0
 10
0.0
 20
0.0
 11
420.0
 21
297.0
 12
0.0
 22
0.0
 32
0.0
 14
-61.4420906347
 24
-140.0
 34
0.0
 15
218.5579093653
 25
140.0
 35
0.0
146
0.0
 13
0.0
 23
0.0
 33
0.0
 16
1.0
 26
0.0
 36
0.0
 17
0.0
 27
1.0
 37
0.0
 76
0
330
1F
331
29
  0
MLINESTYLE
  5
18
102
{ACAD_REACTORS
330
17
102
}
330
17
100
AcDbMlineStyle
  2
Standard
 70
0
  3

 62
256
 51
90.0
 52
90.0
 71
2
 49
0.5
 62
256
  6
BYLAYER
 49
-0.5
 62
256
  6
BYLAYER
  0
ACDBPLACEHOLDER
  5
F
102
{ACAD_REACTORS
330
E
102
}
330
E
  0
SCALE
  5
48
102
{ACAD_REACTORS
330
47
102
}
330
47
100
AcDbScale
 70
0
300
1:1
140
1.0
141
1.0
290
1
  0
SCALE
  5
49
102
{ACAD_REACTORS
330
47
102
}
330
47
100
AcDbScale
 70
0
300
1:2
140
1.0
141
2.0
290
0
  0
SCALE
  5
4A
102
{ACAD_REACTORS
330
47
102
}
330
47
100
AcDbScale
 70
0
300
1:4
140
1.0
141
4.0
290
0
  0
SCALE
  5
4B
102
{ACAD_REACTORS
330
47
102
}
330
47
100
AcDbScale
 70
0
300
1:5
140
1.0
141
5.0
290
0
  0
SCALE
  5
4C
102
{ACAD_REACTORS
330
47
102
}
330
47
100
AcDbScale
 70
0
300
1:8
140
1.0
141
8.0
290
0
  0
SCALE
  5
4D
102
{ACAD_REACTORS
330
47
102
}
330
47
100
AcDbScale
 70
0
300
1:10
140
1.0
141
10.0
290
0
  0
SCALE
  5
4E
102
{ACAD_REACTORS
330
47
102
}
330
47
100
AcDbScale
 70
0
300
1:16
140
1.0
141
16.0
290
0
  0
SCALE
  5
4F
102
{ACAD_REACTORS
330
47
102
}
330
47
100
AcDbScale
 70
0
300
1:20
140
1.0
141
20.0
290
0
  0
SCALE
  5
50
102
{ACAD_REACTORS
330
47
102
}
330
47
100
AcDbScale
 70
0
300
1:30
140
1.0
141
30.0
290
0
  0
SCALE
  5
51
102
{ACAD_REACTORS
330
47
102
}
330
47
100
AcDbScale
 70
0
300
1:40
140
1.0
141
40.0
290
0
  0
SCALE
  5
52
102
{ACAD_REACTORS
330
47
102
}
330
47
100
AcDbScale
 70
0
300
1:50
140
1.0
141
50.0
290
0
  0
SCALE
  5
53
102
{ACAD_REACTORS
330
47
102
}
330
47
100
AcDbScale
 70
0
300
1:100
140
1.0
141
100.0
290
0
  0
SCALE
  5
54
102
{ACAD_REACTORS
330
47
102
}
330
47
100
AcDbScale
 70
0
300
2:1
140
2.0
141
1.0
290
0
  0
SCALE
  5
55
102
{ACAD_REACTORS
330
47
102
}
330
47
100
AcDbScale
 70
0
300
4:1
140
4.0
141
1.0
290
0
  0
SCALE
  5
56
102
{ACAD_REACTORS
330
47
102
}
330
47
100
AcDbScale
 70
0
300
8:1
140
8.0
141
1.0
290
0
  0
SCALE
  5
57
102
{ACAD_REACTORS
330
47
102
}
330
47
100
AcDbScale
 70
0
300
10:1
140
10.0
141
1.0
290
0
  0
SCALE
  5
58
102
{ACAD_REACTORS
330
47
102
}
330
47
100
AcDbScale
 70
0
300
100:1
140
100.0
141
1.0
290
0
  0
DICTIONARY
  5
6F
330
C
100
AcDbDictionary
281
1
  0
DICTIONARY
  5
70
330
C
100
AcDbDictionary
281
1
  3
ByBlock
350
74
  3
ByLayer
350
75
  3
Global
350
76
  0
DICTIONARY
  5
71
330
C
100
AcDbDictionary
281
1
  3
Standard
350
79
  0
DICTIONARY
  5
72
330
C
100
AcDbDictionary
281
1
  0
DICTIONARY
  5
73
330
C
100
AcDbDictionary
281
1
  0
MATERIAL
  5
74
102
{ACAD_REACTORS
330
70
102
}
330
70
100
AcDbMaterial
  1
ByBlock
  2

 70
0
 40
1.0
 71
1
 41
1.0
 91
-1023410177
 42
1.0
 72
1
  3

 73
1
 74
1
 75
1
 44
0.5
 73
0
 45
1.0
 46
1.0
 77
1
  4

 78
1
 79
1
170
1
 48
1.0
171
1
  6

172
1
173
1
174
1
140
1.0
141
1.0
175
1
  7

176
1
177
1
178
1
143
1.0
179
1
  8

270
1
271
1
272
1
145
1.0
146
1.0
273
1
  9

274
1
275
1
276
1
 42
1.0
 72
1
  3

 73
1
 74
1
 75
1
 94
63
  0
MATERIAL
  5
75
102
{ACAD_REACTORS
330
70
102
}
330
70
100
AcDbMaterial
  1
ByLayer
  2

 70
0
 40
1.0
 71
1
 41
1.0
 91
-1023410177
 42
1.0
 72
1
  3

 73
1
 74
1
 75
1
 44
0.5
 73
0
 45
1.0
 46
1.0
 77
1
  4

 78
1
 79
1
170
1
 48
1.0
171
1
  6

172
1
173
1
174
1
140
1.0
141
1.0
175
1
  7

176
1
177
1
178
1
143
1.0
179
1
  8

270
1
271
1
272
1
145
1.0
146
1.0
273
1
  9

274
1
275
1
276
1
 42
1.0
 72
1
  3

 73
1
 74
1
 75
1
 94
63
  0
MATERIAL
  5
76
102
{ACAD_REACTORS
330
70
102
}
330
70
100
AcDbMaterial
  1
Global
  2

 70
0
 40
1.0
 71
1
 41
1.0
 91
-1023410177
 42
1.0
 72
1
  3

 73
1
 74
1
 75
1
 44
0.5
 73
0
 45
1.0
 46
1.0
 77
1
  4

 78
1
 79
1
170
1
 48
1.0
171
1
  6

172
1
173
1
174
1
140
1.0
141
1.0
175
1
  7

176
1
177
1
178
1
143
1.0
179
1
  8

270
1
271
1
272
1
145
1.0
146
1.0
273
1
  9

274
1
275
1
276
1
 42
1.0
 72
1
  3

 73
1
 74
1
 75
1
 94
63
  0
MLEADERSTYLE
  5
79
102
{ACAD_REACTORS
330
71
102
}
330
71
100
AcDbMLeaderStyle
179
2
170
2
171
1
172
0
 90
2
 40
0.0
 41
0.0
173
1
 91
-1056964608
 92
-2
290
1
 42
2.0
291
1
 43
8.0
  3
Standard
 44
4.0
300

342
11
174
1
175
1
176
0
178
1
 93
-1056964608
 45
4.0
292
0
297
0
 46
4.0
 94
-1056964608
 47
1.0
 49
1.0
140
1.0
294
1
141
0.0
177
0
142
1.0
295
0
296
0
143
3.75
271
0
272
9
273
9
  0
DICTIONARY
  5
7F
330
C
100
AcDbDictionary
280
1
281
1
  3
WRITTEN_BY_EZDXF
350
80
  0
DICTIONARYVAR
  5
80
330
7F
100
DictionaryVariables
280
0
  1
1.4.3 @ 2026-05-31T12:33:48.548336+00:00
  0
ENDSEC
  0
EOF
