  0
SECTION
  2
HEADER
  9
$ACADVER
  1
AC1015
  9
$ACADMAINTVER
 70
6
  9
$DWGCODEPAGE
  3
ANSI_1252
  9
$LIMMIN
 10
0.0
 20
0.0
  9
$LIMMAX
 10
12.0
 20
9.0
  9
$MIRRTEXT
 70
0
  9
$LTSCALE
 40
1.0
  9
$DIMSCALE
 40
1.0
  9
$DIMASZ
 40
2.5
  9
$DIMEXO
 40
0.625
  9
$DIMDLI
 40
5.0
  9
$DIMEXE
 40
1.25
  9
$DIMTXT
 40
2.5
  9
$DIMTSZ
 40
0.0
  9
$DIMTIH
 70
0
  9
$DIMTAD
 70
1
  9
$DIMZIN
 70
8
  9
$DIMBLK
  1

  9
$DIMLFAC
 40
1.0
  9
$DIMGAP
 40
0.625
  9
$DIMDEC
 70
4
  9
$DIMAUNIT
 70
0
  9
$DIMADEC
 70
0
  9
$DIMAZIN
 70
2
  9
$DIMDSEP
 70
46
  9
$DIMATFIT
 70
0
  9
$DIMLUNIT
 70
2
  9
$TDCREATE
 40
2461141.36755787
  9
$TDUPDATE
 40
2461141.36755787
  9
$PDMODE
 70
0
  9
$PDSIZE
 40
0.0
  9
$HANDSEED
  5
1008A
  9
$MAXACTVP
 70
64
  9
$PEXTMIN
 10
1e+20
 20
1e+20
 30
1e+20
  9
$PEXTMAX
 10
-1e+20
 20
-1e+20
 30
-1e+20
  9
$PLIMMIN
 10
0.0
 20
0.0
  9
$PLIMMAX
 10
420.0
 20
297.0
  9
$MEASUREMENT
 70
1
  9
$INSUNITS
 70
4
  9
$FINGERPRINTGUID
  2
{056CC683-1D86-40C8-8043-AF19C28EB304}
  9
$VERSIONGUID
  2
{2BD23165-88CA-4850-90EF-B039D96C68DF}
  0
ENDSEC
  0
SECTION
  2
CLASSES
  0
CLASS
  1
ACDBDICTIONARYWDFLT
  2
AcDbDictionaryWithDefault
  3
ObjectDBX Classes
 90
0
280
0
281
0
  0
CLASS
  1
SUN
  2
AcDbSun
  3
SCENEOE
 90
1153
280
0
281
0
  0
CLASS
  1
VISUALSTYLE
  2
AcDbVisualStyle
  3
ObjectDBX Classes
 90
4095
280
0
281
0
  0
CLASS
  1
MATERIAL
  2
AcDbMaterial
  3
ObjectDBX Classes
 90
1153
280
0
281
0
  0
CLASS
  1
SCALE
  2
AcDbScale
  3
ObjectDBX Classes
 90
1153
280
0
281
0
  0
CLASS
  1
TABLESTYLE
  2
AcDbTableStyle
  3
ObjectDBX Classes
 90
4095
280
0
281
0
  0
CLASS
  1
MLEADERSTYLE
  2
AcDbMLeaderStyle
  3
ACDB_MLEADERSTYLE_CLASS
 90
4095
280
0
281
0
  0
CLASS
  1
DICTIONARYVAR
  2
AcDbDictionaryVar
  3
ObjectDBX Classes
 90
0
280
0
281
0
  0
CLASS
  1
CELLSTYLEMAP
  2
AcDbCellStyleMap
  3
ObjectDBX Classes
 90
1152
280
0
281
0
  0
CLASS
  1
MENTALRAYRENDERSETTINGS
  2
AcDbMentalRayRenderSettings
  3
SCENEOE
 90
1024
280
0
281
0
  0
CLASS
  1
ACDBDETAILVIEWSTYLE
  2
AcDbDetailViewStyle
  3
ObjectDBX Classes
 90
1025
280
0
281
0
  0
CLASS
  1
ACDBSECTIONVIEWSTYLE
  2
AcDbSectionViewStyle
  3
ObjectDBX Classes
 90
1025
280
0
281
0
  0
CLASS
  1
RASTERVARIABLES
  2
AcDbRasterVariables
  3
ISM
 90
0
280
0
281
0
  0
CLASS
  1
ACDBPLACEHOLDER
  2
AcDbPlaceHolder
  3
ObjectDBX Classes
 90
0
280
0
281
0
  0
CLASS
  1
LAYOUT
  2
AcDbLayout
  3
ObjectDBX Classes
 90
0
280
0
281
0
  0
ENDSEC
  0
SECTION
  2
TABLES
  0
TABLE
  2
VPORT
  5
8
330
0
100
AcDbSymbolTable
 70
1
  0
VPORT
  5
30
330
8
100
AcDbSymbolTableRecord
100
AcDbViewportTableRecord
  2
*Active
 70
0
 10
0.0
 20
0.0
 11
1.0
 21
1.0
 12
286.3055555555555
 22
148.5
 13
0.0
 23
0.0
 14
10.0
 24
10.0
 15
10.0
 25
10.0
 16
0.0
 26
0.0
 36
1.0
 17
0.0
 27
0.0
 37
0.0
 40
297.0
 41
1.92798353909465
 42
50.0
 43
0.0
 44
0.0
 50
0.0
 51
0.0
 71
0
 72
100
 73
1
 74
3
 75
1
 76
1
 77
0
 78
0
281
0
 65
1
110
0.0
120
0.0
130
0.0
111
1.0
121
0.0
131
0.0
112
0.0
122
1.0
132
0.0
 79
0
146
0.0
  0
ENDTAB
  0
TABLE
  2
LTYPE
  5
5
330
0
100
AcDbSymbolTable
 70
41
  0
LTYPE
  5
16
330
5
100
AcDbSymbolTableRecord
100
AcDbLinetypeTableRecord
  2
Continuous
 70
0
  3
Solid line
 72
65
 73
0
 40
0.0
  0
LTYPE
  5
14
330
5
100
AcDbSymbolTableRecord
100
AcDbLinetypeTableRecord
  2
BYBLOCK
 70
0
  3

 72
65
 73
0
 40
0.0
  0
LTYPE
  5
31
330
5
100
AcDbSymbolTableRecord
100
AcDbLinetypeTableRecord
  2
HIDDENX2
 70
0
  3
Hidden (2x) ____ ____ ____ ____ ____ ____ ____ 
 72
65
 73
2
 40
19.049999999999997
 49
12.7
 74
0
 49
-6.35
 74
0
  0
LTYPE
  5
32
330
5
100
AcDbSymbolTableRecord
100
AcDbLinetypeTableRecord
  2
ACAD_ISO09W100
 70
0
  3
ISO long-dash double-short-dash ____ __ __ ____
 72
65
 73
6
 40
45.0
 49
24.0
 74
0
 49
-3.0
 74
0
 49
6.0
 74
0
 49
-3.0
 74
0
 49
6.0
 74
0
 49
-3.0
 74
0
  0
LTYPE
  5
33
330
5
100
AcDbSymbolTableRecord
100
AcDbLinetypeTableRecord
  2
DASHDOT2
 70
0
  3
Dash dot (.5x) _._._._._._._._._._._._._._._.
 72
65
 73
4
 40
12.7
 49
6.35
 74
0
 49
-3.175
 74
0
 49
0.0
 74
0
 49
-3.175
 74
0
  0
LTYPE
  5
34
330
5
100
AcDbSymbolTableRecord
100
AcDbLinetypeTableRecord
  2
DOT
 70
0
  3
Dot . . . . . . . . . . . . . . . . . . . . . . . .
 72
65
 73
2
 40
6.35
 49
0.0
 74
0
 49
-6.35
 74
0
  0
LTYPE
  5
35
330
5
100
AcDbSymbolTableRecord
100
AcDbLinetypeTableRecord
  2
CENTERX2
 70
0
  3
Center (2x) ________  __  ________  __  _____
 72
65
 73
4
 40
101.60000000000001
 49
63.5
 74
0
 49
-12.7
 74
0
 49
12.7
 74
0
 49
-12.7
 74
0
  0
LTYPE
  5
36
330
5
100
AcDbSymbolTableRecord
100
AcDbLinetypeTableRecord
  2
DASHEDX2
 70
0
  3
Dashed (2x) ____  ____  ____  ____  ____  ___
 72
65
 73
2
 40
38.099999999999994
 49
25.4
 74
0
 49
-12.7
 74
0
  0
LTYPE
  5
37
330
5
100
AcDbSymbolTableRecord
100
AcDbLinetypeTableRecord
  2
ACAD_ISO11W100
 70
0
  3
ISO double-dash dot __ __ . __ __ . __ __ . __ _
 72
65
 73
6
 40
33.0
 49
12.0
 74
0
 49
-3.0
 74
0
 49
12.0
 74
0
 49
-3.0
 74
0
 49
0.0
 74
0
 49
-3.0
 74
0
  0
LTYPE
  5
38
330
5
100
AcDbSymbolTableRecord
100
AcDbLinetypeTableRecord
  2
ACAD_ISO04W100
 70
0
  3
ISO long-dash dot ____ . ____ . ____ . ____ . _
 72
65
 73
4
 40
30.0
 49
24.0
 74
0
 49
-3.0
 74
0
 49
0.0
 74
0
 49
-3.0
 74
0
  0
LTYPE
  5
39
330
5
100
AcDbSymbolTableRecord
100
AcDbLinetypeTableRecord
  2
ACAD_ISO10W100
 70
0
  3
ISO dash dot __ . __ . __ . __ . __ . __ . __ . 
 72
65
 73
4
 40
18.0
 49
12.0
 74
0
 49
-3.0
 74
0
 49
0.0
 74
0
 49
-3.0
 74
0
  0
LTYPE
  5
3A
330
5
100
AcDbSymbolTableRecord
100
AcDbLinetypeTableRecord
  2
ACAD_ISO02W100
 70
0
  3
ISO dash __ __ __ __ __ __ __ __ __ __ __ __ __
 72
65
 73
2
 40
15.0
 49
12.0
 74
0
 49
-3.0
 74
0
  0
LTYPE
  5
3B
330
5
100
AcDbSymbolTableRecord
100
AcDbLinetypeTableRecord
  2
ACAD_ISO06W100
 70
0
  3
ISO long-dash triple-dot ____ ... ____ ... ____
 72
65
 73
8
 40
36.0
 49
24.0
 74
0
 49
-3.0
 74
0
 49
0.0
 74
0
 49
-3.0
 74
0
 49
0.0
 74
0
 49
-3.0
 74
0
 49
0.0
 74
0
 49
-3.0
 74
0
  0
LTYPE
  5
3C
330
5
100
AcDbSymbolTableRecord
100
AcDbLinetypeTableRecord
  2
DOTX2
 70
0
  3
Dot (2x) .  .  .  .  .  .  .  .  .  .  .  .  .  .
 72
65
 73
2
 40
12.7
 49
0.0
 74
0
 49
-12.7
 74
0
  0
LTYPE
  5
3D
330
5
100
AcDbSymbolTableRecord
100
AcDbLinetypeTableRecord
  2
DASHED2
 70
0
  3
Dashed (.5x) _ _ _ _ _ _ _ _ _ _ _ _ _ _ _ _ _ 
 72
65
 73
2
 40
9.524999999999999
 49
6.35
 74
0
 49
-3.175
 74
0
  0
LTYPE
  5
3E
330
5
100
AcDbSymbolTableRecord
100
AcDbLinetypeTableRecord
  2
BORDERX2
 70
0
  3
Border (2x) ____  ____  .  ____  ____  .  ___
 72
65
 73
6
 40
88.89999999999999
 49
25.4
 74
0
 49
-12.7
 74
0
 49
25.4
 74
0
 49
-12.7
 74
0
 49
0.0
 74
0
 49
-12.7
 74
0
  0
LTYPE
  5
3F
330
5
100
AcDbSymbolTableRecord
100
AcDbLinetypeTableRecord
  2
ACAD_ISO05W100
 70
0
  3
ISO long-dash double-dot ____ .. ____ .. ____ . 
 72
65
 73
6
 40
33.0
 49
24.0
 74
0
 49
-3.0
 74
0
 49
0.0
 74
0
 49
-3.0
 74
0
 49
0.0
 74
0
 49
-3.0
 74
0
  0
LTYPE
  5
40
330
5
100
AcDbSymbolTableRecord
100
AcDbLinetypeTableRecord
  2
DIVIDE2
 70
0
  3
Divide (.5x) __..__..__..__..__..__..__..__.._
 72
65
 73
6
 40
15.875
 49
6.35
 74
0
 49
-3.175
 74
0
 49
0.0
 74
0
 49
-3.175
 74
0
 49
0.0
 74
0
 49
-3.175
 74
0
  0
LTYPE
  5
41
330
5
100
AcDbSymbolTableRecord
100
AcDbLinetypeTableRecord
  2
PHANTOM
 70
0
  3
Phantom ______  __  __  ______  __  __  ______ 
 72
65
 73
6
 40
63.50000000000001
 49
31.75
 74
0
 49
-6.35
 74
0
 49
6.35
 74
0
 49
-6.35
 74
0
 49
6.35
 74
0
 49
-6.35
 74
0
  0
LTYPE
  5
42
330
5
100
AcDbSymbolTableRecord
100
AcDbLinetypeTableRecord
  2
ACAD_ISO07W100
 70
0
  3
ISO dot . . . . . . . . . . . . . . . . . . . . 
 72
65
 73
2
 40
3.0
 49
0.0
 74
0
 49
-3.0
 74
0
  0
LTYPE
  5
43
330
5
100
AcDbSymbolTableRecord
100
AcDbLinetypeTableRecord
  2
CENTER
 70
0
  3
Center ____ _ ____ _ ____ _ ____ _ ____ _ ____
 72
65
 73
4
 40
50.800000000000004
 49
31.75
 74
0
 49
-6.35
 74
0
 49
6.35
 74
0
 49
-6.35
 74
0
  0
LTYPE
  5
44
330
5
100
AcDbSymbolTableRecord
100
AcDbLinetypeTableRecord
  2
PHANTOM2
 70
0
  3
Phantom (.5x) ___ _ _ ___ _ _ ___ _ _ ___ _ _
 72
65
 73
6
 40
31.750000000000004
 49
15.875
 74
0
 49
-3.175
 74
0
 49
3.175
 74
0
 49
-3.175
 74
0
 49
3.175
 74
0
 49
-3.175
 74
0
  0
LTYPE
  5
45
330
5
100
AcDbSymbolTableRecord
100
AcDbLinetypeTableRecord
  2
DASHED
 70
0
  3
Dashed __ __ __ __ __ __ __ __ __ __ __ __ __ _
 72
65
 73
2
 40
19.049999999999997
 49
12.7
 74
0
 49
-6.35
 74
0
  0
LTYPE
  5
46
330
5
100
AcDbSymbolTableRecord
100
AcDbLinetypeTableRecord
  2
HIDDEN2
 70
0
  3
Hidden (.5x) _ _ _ _ _ _ _ _ _ _ _ _ _ _ _ _ _ 
 72
65
 73
2
 40
4.762499999999999
 49
3.175
 74
0
 49
-1.5875
 74
0
  0
LTYPE
  5
47
330
5
100
AcDbSymbolTableRecord
100
AcDbLinetypeTableRecord
  2
DIVIDEX2
 70
0
  3
Divide (2x) ________  .  .  ________  .  .  _
 72
65
 73
6
 40
63.5
 49
25.4
 74
0
 49
-12.7
 74
0
 49
0.0
 74
0
 49
-12.7
 74
0
 49
0.0
 74
0
 49
-12.7
 74
0
  0
LTYPE
  5
48
330
5
100
AcDbSymbolTableRecord
100
AcDbLinetypeTableRecord
  2
DOT2
 70
0
  3
Dot (.5x) ........................................
 72
65
 73
2
 40
3.175
 49
0.0
 74
0
 49
-3.175
 74
0
  0
LTYPE
  5
49
330
5
100
AcDbSymbolTableRecord
100
AcDbLinetypeTableRecord
  2
PHANTOMX2
 70
0
  3
Phantom (2x) ____________    ____    ____   _
 72
65
 73
6
 40
127.00000000000001
 49
63.5
 74
0
 49
-12.7
 74
0
 49
12.7
 74
0
 49
-12.7
 74
0
 49
12.7
 74
0
 49
-12.7
 74
0
  0
LTYPE
  5
15
330
5
100
AcDbSymbolTableRecord
100
AcDbLinetypeTableRecord
  2
BYLAYER
 70
0
  3

 72
65
 73
0
 40
0.0
  0
LTYPE
  5
4A
330
5
100
AcDbSymbolTableRecord
100
AcDbLinetypeTableRecord
  2
ACAD_ISO08W100
 70
0
  3
ISO long-dash short-dash ____ __ ____ __ ____ _
 72
65
 73
4
 40
36.0
 49
24.0
 74
0
 49
-3.0
 74
0
 49
6.0
 74
0
 49
-3.0
 74
0
  0
LTYPE
  5
4B
330
5
100
AcDbSymbolTableRecord
100
AcDbLinetypeTableRecord
  2
ACAD_ISO03W100
 70
0
  3
ISO dash space __    __    __    __    __    __
 72
65
 73
2
 40
30.0
 49
12.0
 74
0
 49
-18.0
 74
0
  0
LTYPE
  5
4C
330
5
100
AcDbSymbolTableRecord
100
AcDbLinetypeTableRecord
  2
DASHDOT
 70
0
  3
Dash dot __ . __ . __ . __ . __ . __ . __ . __
 72
65
 73
4
 40
25.4
 49
12.7
 74
0
 49
-6.35
 74
0
 49
0.0
 74
0
 49
-6.35
 74
0
  0
LTYPE
  5
4D
330
5
100
AcDbSymbolTableRecord
100
AcDbLinetypeTableRecord
  2
HIDDEN
 70
0
  3
Hidden __ __ __ __ __ __ __ __ __ __ __ __ __ __
 72
65
 73
2
 40
9.524999999999999
 49
6.35
 74
0
 49
-3.175
 74
0
  0
LTYPE
  5
4E
330
5
100
AcDbSymbolTableRecord
100
AcDbLinetypeTableRecord
  2
BORDER
 70
0
  3
Border __ __ . __ __ . __ __ . __ __ . __ __ .
 72
65
 73
6
 40
44.449999999999996
 49
12.7
 74
0
 49
-6.35
 74
0
 49
12.7
 74
0
 49
-6.35
 74
0
 49
0.0
 74
0
 49
-6.35
 74
0
  0
LTYPE
  5
4F
330
5
100
AcDbSymbolTableRecord
100
AcDbLinetypeTableRecord
  2
ACAD_ISO14W100
 70
0
  3
ISO dash triple-dot __ . . . __ . . . __ . . . _
 72
65
 73
8
 40
24.0
 49
12.0
 74
0
 49
-3.0
 74
0
 49
0.0
 74
0
 49
-3.0
 74
0
 49
0.0
 74
0
 49
-3.0
 74
0
 49
0.0
 74
0
 49
-3.0
 74
0
  0
LTYPE
  5
50
330
5
100
AcDbSymbolTableRecord
100
AcDbLinetypeTableRecord
  2
ACAD_ISO12W100
 70
0
  3
ISO dash double-dot __ . . __ . . __ . . __ . . 
 72
65
 73
6
 40
21.0
 49
12.0
 74
0
 49
-3.0
 74
0
 49
0.0
 74
0
 49
-3.0
 74
0
 49
0.0
 74
0
 49
-3.0
 74
0
  0
LTYPE
  5
51
330
5
100
AcDbSymbolTableRecord
100
AcDbLinetypeTableRecord
  2
DASHDOTX2
 70
0
  3
Dash dot (2x) ____  .  ____  .  ____  .  ___
 72
65
 73
4
 40
50.8
 49
25.4
 74
0
 49
-12.7
 74
0
 49
0.0
 74
0
 49
-12.7
 74
0
  0
LTYPE
  5
52
330
5
100
AcDbSymbolTableRecord
100
AcDbLinetypeTableRecord
  2
ACAD_ISO13W100
 70
0
  3
ISO double-dash double-dot __ __ . . __ __ . . _
 72
65
 73
8
 40
36.0
 49
12.0
 74
0
 49
-3.0
 74
0
 49
12.0
 74
0
 49
-3.0
 74
0
 49
0.0
 74
0
 49
-3.0
 74
0
 49
0.0
 74
0
 49
-3.0
 74
0
  0
LTYPE
  5
53
330
5
100
AcDbSymbolTableRecord
100
AcDbLinetypeTableRecord
  2
CENTER2
 70
0
  3
Center (.5x) ___ _ ___ _ ___ _ ___ _ ___ _ ___
 72
65
 73
4
 40
28.575000000000003
 49
19.05
 74
0
 49
-3.175
 74
0
 49
3.175
 74
0
 49
-3.175
 74
0
  0
LTYPE
  5
54
330
5
100
AcDbSymbolTableRecord
100
AcDbLinetypeTableRecord
  2
ACAD_ISO15W100
 70
0
  3
ISO double-dash triple-dot __ __ . . . __ __ . .
 72
65
 73
10
 40
39.0
 49
12.0
 74
0
 49
-3.0
 74
0
 49
12.0
 74
0
 49
-3.0
 74
0
 49
0.0
 74
0
 49
-3.0
 74
0
 49
0.0
 74
0
 49
-3.0
 74
0
 49
0.0
 74
0
 49
-3.0
 74
0
  0
LTYPE
  5
55
330
5
100
AcDbSymbolTableRecord
100
AcDbLinetypeTableRecord
  2
DIVIDE
 70
0
  3
Divide ____ . . ____ . . ____ . . ____ . . ____
 72
65
 73
6
 40
31.75
 49
12.7
 74
0
 49
-6.35
 74
0
 49
0.0
 74
0
 49
-6.35
 74
0
 49
0.0
 74
0
 49
-6.35
 74
0
  0
LTYPE
  5
56
330
5
100
AcDbSymbolTableRecord
100
AcDbLinetypeTableRecord
  2
BORDER2
 70
0
  3
Border (.5x) __.__.__.__.__.__.__.__.__.__.__.
 72
65
 73
6
 40
22.224999999999998
 49
6.35
 74
0
 49
-3.175
 74
0
 49
6.35
 74
0
 49
-3.175
 74
0
 49
0.0
 74
0
 49
-3.175
 74
0
  0
ENDTAB
  0
TABLE
  2
LAYER
  5
2
330
0
100
AcDbSymbolTable
 70
4
  0
LAYER
  5
57
330
2
100
AcDbSymbolTableRecord
100
AcDbLayerTableRecord
  2
6200002991_5
 70
0
 62
7
  6
Continuous
370
-3
390
F
  0
LAYER
  5
58
330
2
100
AcDbSymbolTableRecord
100
AcDbLayerTableRecord
  2
Default
 70
0
 62
7
  6
Continuous
370
-3
390
F
  0
LAYER
  5
10
330
2
100
AcDbSymbolTableRecord
100
AcDbLayerTableRecord
  2
0
 70
0
 62
7
  6
Continuous
370
25
390
F
  0
LAYER
  5
10009
330
2
100
AcDbSymbolTableRecord
100
AcDbLayerTableRecord
  2
Defpoints
 70
0
 62
7
  6
Continuous
290
0
370
-3
390
F
  0
ENDTAB
  0
TABLE
  2
STYLE
  5
3
330
0
100
AcDbSymbolTable
 70
1
  0
STYLE
  5
59
330
3
100
AcDbSymbolTableRecord
100
AcDbTextStyleTableRecord
  2
Standard
 70
0
 40
0.0
 41
1.0
 50
0.0
 71
0
 42
2.5
  3

  4

1001
ACAD
1000
txt
1071
0
  0
ENDTAB
  0
TABLE
  2
VIEW
  5
6
330
0
100
AcDbSymbolTable
 70
0
  0
ENDTAB
  0
TABLE
  2
UCS
  5
7
330
0
100
AcDbSymbolTable
 70
0
  0
ENDTAB
  0
TABLE
  2
APPID
  5
9
330
0
100
AcDbSymbolTable
 70
4
  0
APPID
  5
12
330
9
100
AcDbSymbolTableRecord
100
AcDbRegAppTableRecord
  2
ACAD
 70
0
  0
APPID
  5
5A
330
9
100
AcDbSymbolTableRecord
100
AcDbRegAppTableRecord
  2
QCAD
 70
0
  0
APPID
  5
10086
330
9
100
AcDbSymbolTableRecord
100
AcDbRegAppTableRecord
  2
HATCHBACKGROUNDCOLOR
 70
0
  0
APPID
  5
10087
330
9
100
AcDbSymbolTableRecord
100
AcDbRegAppTableRecord
  2
EZDXF
 70
0
  0
ENDTAB
  0
TABLE
  2
DIMSTYLE
  5
A
330
0
100
AcDbSymbolTable
 70
1
100
AcDbDimStyleTable
  0
DIMSTYLE
105
27
330
A
100
AcDbSymbolTableRecord
100
AcDbDimStyleTableRecord
  2
Standard
 70
0
  3

  4

 40
1.0
 41
2.5
 42
0.625
 43
3.75
 44
1.25
 45
0.0
 46
0.0
 47
0.0
 48
0.0
140
2.5
141
2.5
142
0.0
143
0.03937007874016
144
1.0
145
0.0
146
1.0
147
0.625
148
0.0
 71
0
 72
0
 73
0
 74
0
 75
0
 76
0
 77
1
 78
8
 79
3
170
0
171
3
172
1
173
0
174
0
175
0
176
0
177
0
178
0
179
2
271
2
272
2
273
2
274
3
275
0
276
0
277
2
278
44
279
0
280
0
281
0
282
0
283
0
284
8
285
0
286
0
288
0
289
3
340
59
371
-2
372
-2
  0
ENDTAB
  0
TABLE
  2
BLOCK_RECORD
  5
1
330
0
100
AcDbSymbolTable
 70
4
  0
BLOCK_RECORD
  5
1F
330
1
100
AcDbSymbolTableRecord
100
AcDbBlockTableRecord
  2
*Model_Space
340
22
  0
BLOCK_RECORD
  5
1B
330
1
100
AcDbSymbolTableRecord
100
AcDbBlockTableRecord
  2
*Paper_Space
340
1E
  0
BLOCK_RECORD
  5
23
330
1
100
AcDbSymbolTableRecord
100
AcDbBlockTableRecord
  2
*Paper_Space0
340
26
  0
BLOCK_RECORD
  5
5B
330
1
100
AcDbSymbolTableRecord
100
AcDbBlockTableRecord
  2
SE4
340
0
  0
ENDTAB
  0
ENDSEC
  0
SECTION
  2
BLOCKS
  0
BLOCK
  5
20
330
1F
100
AcDbEntity
  8
0
100
AcDbBlockBegin
  2
*Model_Space
 70
0
 10
0.0
 20
0.0
 30
0.0
  3
*Model_Space
  1

  0
ENDBLK
  5
21
330
1F
100
AcDbEntity
  8
0
100
AcDbBlockEnd
  0
BLOCK
  5
1C
330
1B
100
AcDbEntity
 67
1
  8
0
100
AcDbBlockBegin
  2
*Paper_Space
 70
0
 10
0.0
 20
0.0
 30
0.0
  3
*Paper_Space
  1

  0
ENDBLK
  5
1D
330
1B
100
AcDbEntity
 67
1
  8
0
100
AcDbBlockEnd
  0
BLOCK
  5
24
330
23
100
AcDbEntity
  8
0
100
AcDbBlockBegin
  2
*Paper_Space0
 70
0
 10
0.0
 20
0.0
 30
0.0
  3
*Paper_Space0
  1

  0
ENDBLK
  5
25
330
23
100
AcDbEntity
  8
0
100
AcDbBlockEnd
  0
BLOCK
  5
5C
330
5B
100
AcDbEntity
  8
0
100
AcDbBlockBegin
  2
SE4
 70
0
 10
0.0
 20
0.0
 30
0.0
  3
SE4
  1

  0
LINE
  5
5D
330
5B
100
AcDbEntity
  8
6200002991_5
  6
Continuous
 62
7
100
AcDbLine
 10
40.9438341124
 20
51.621961023
 30
0.0
 11
830.9438341124
 21
51.621961023
 31
0.0
  0
LINE
  5
5E
330
5B
100
AcDbEntity
  8
6200002991_5
  6
Continuous
 62
7
100
AcDbLine
 10
830.9438341124
 20
51.621961023
 30
0.0
 11
830.9438341124
 21
101.621961023
 31
0.0
  0
LINE
  5
5F
330
5B
100
AcDbEntity
  8
6200002991_5
  6
Continuous
 62
7
100
AcDbLine
 10
830.9438341124
 20
101.621961023
 30
0.0
 11
720.2738341124
 21
101.621961023
 31
0.0
  0
LINE
  5
60
330
5B
100
AcDbEntity
  8
6200002991_5
  6
Continuous
 62
7
100
AcDbLine
 10
40.9438341124
 20
101.621961023
 30
0.0
 11
40.9438341124
 21
51.621961023
 31
0.0
  0
LINE
  5
61
330
5B
100
AcDbEntity
  8
6200002991_5
  6
Continuous
 62
7
100
AcDbLine
 10
151.6138341124
 20
101.621961023
 30
0.0
 11
40.9438341124
 21
101.621961023
 31
0.0
  0
LINE
  5
62
330
5B
100
AcDbEntity
  8
6200002991_5
  6
Continuous
 62
7
100
AcDbLine
 10
153.6138341124
 20
101.621961023
 30
0.0
 11
153.6138341124
 21
76.621961023
 31
0.0
  0
LINE
  5
63
330
5B
100
AcDbEntity
  8
6200002991_5
  6
Continuous
 62
7
100
AcDbLine
 10
153.6138341124
 20
76.621961023
 30
0.0
 11
151.6138341124
 21
76.621961023
 31
0.0
  0
LINE
  5
64
330
5B
100
AcDbEntity
  8
6200002991_5
  6
Continuous
 62
7
100
AcDbLine
 10
151.6138341124
 20
76.621961023
 30
0.0
 11
151.6138341124
 21
101.621961023
 31
0.0
  0
LINE
  5
65
330
5B
100
AcDbEntity
  8
6200002991_5
  6
Continuous
 62
7
100
AcDbLine
 10
264.9458341124
 20
101.621961023
 30
0.0
 11
153.6138341124
 21
101.621961023
 31
0.0
  0
LINE
  5
66
330
5B
100
AcDbEntity
  8
6200002991_5
  6
Continuous
 62
7
100
AcDbLine
 10
264.9458341124
 20
76.621961023
 30
0.0
 11
264.9458341124
 21
101.621961023
 31
0.0
  0
LINE
  5
67
330
5B
100
AcDbEntity
  8
6200002991_5
  6
Continuous
 62
7
100
AcDbLine
 10
266.9458341124
 20
76.621961023
 30
0.0
 11
264.9458341124
 21
76.621961023
 31
0.0
  0
LINE
  5
68
330
5B
100
AcDbEntity
  8
6200002991_5
  6
Continuous
 62
7
100
AcDbLine
 10
266.9458341124
 20
101.621961023
 30
0.0
 11
266.9458341124
 21
76.621961023
 31
0.0
  0
LINE
  5
69
330
5B
100
AcDbEntity
  8
6200002991_5
  6
Continuous
 62
7
100
AcDbLine
 10
378.2778341124
 20
101.621961023
 30
0.0
 11
266.9458341124
 21
101.621961023
 31
0.0
  0
LINE
  5
6A
330
5B
100
AcDbEntity
  8
6200002991_5
  6
Continuous
 62
7
100
AcDbLine
 10
378.2778341124
 20
76.621961023
 30
0.0
 11
378.2778341124
 21
101.621961023
 31
0.0
  0
LINE
  5
6B
330
5B
100
AcDbEntity
  8
6200002991_5
  6
Continuous
 62
7
100
AcDbLine
 10
380.2778341124
 20
76.621961023
 30
0.0
 11
378.2778341124
 21
76.621961023
 31
0.0
  0
LINE
  5
6C
330
5B
100
AcDbEntity
  8
6200002991_5
  6
Continuous
 62
7
100
AcDbLine
 10
380.2778341124
 20
101.621961023
 30
0.0
 11
380.2778341124
 21
76.621961023
 31
0.0
  0
LINE
  5
6D
330
5B
100
AcDbEntity
  8
6200002991_5
  6
Continuous
 62
7
100
AcDbLine
 10
491.6098341124
 20
101.621961023
 30
0.0
 11
380.2778341124
 21
101.621961023
 31
0.0
  0
LINE
  5
6E
330
5B
100
AcDbEntity
  8
6200002991_5
  6
Continuous
 62
7
100
AcDbLine
 10
491.6098341124
 20
76.621961023
 30
0.0
 11
491.6098341124
 21
101.621961023
 31
0.0
  0
LINE
  5
6F
330
5B
100
AcDbEntity
  8
6200002991_5
  6
Continuous
 62
7
100
AcDbLine
 10
493.6098341124
 20
76.621961023
 30
0.0
 11
491.6098341124
 21
76.621961023
 31
0.0
  0
LINE
  5
70
330
5B
100
AcDbEntity
  8
6200002991_5
  6
Continuous
 62
7
100
AcDbLine
 10
493.6098341124
 20
101.621961023
 30
0.0
 11
493.6098341124
 21
76.621961023
 31
0.0
  0
LINE
  5
71
330
5B
100
AcDbEntity
  8
6200002991_5
  6
Continuous
 62
7
100
AcDbLine
 10
604.9418341124
 20
101.621961023
 30
0.0
 11
493.6098341124
 21
101.621961023
 31
0.0
  0
LINE
  5
72
330
5B
100
AcDbEntity
  8
6200002991_5
  6
Continuous
 62
7
100
AcDbLine
 10
604.9418341124
 20
76.621961023
 30
0.0
 11
604.9418341124
 21
101.621961023
 31
0.0
  0
LINE
  5
73
330
5B
100
AcDbEntity
  8
6200002991_5
  6
Continuous
 62
7
100
AcDbLine
 10
606.9418341124
 20
76.621961023
 30
0.0
 11
604.9418341124
 21
76.621961023
 31
0.0
  0
LINE
  5
74
330
5B
100
AcDbEntity
  8
6200002991_5
  6
Continuous
 62
7
100
AcDbLine
 10
606.9418341124
 20
101.621961023
 30
0.0
 11
606.9418341124
 21
76.621961023
 31
0.0
  0
LINE
  5
75
330
5B
100
AcDbEntity
  8
6200002991_5
  6
Continuous
 62
7
100
AcDbLine
 10
718.2738341124
 20
101.621961023
 30
0.0
 11
606.9418341124
 21
101.621961023
 31
0.0
  0
LINE
  5
76
330
5B
100
AcDbEntity
  8
6200002991_5
  6
Continuous
 62
7
100
AcDbLine
 10
718.2738341124
 20
76.621961023
 30
0.0
 11
718.2738341124
 21
101.621961023
 31
0.0
  0
LINE
  5
77
330
5B
100
AcDbEntity
  8
6200002991_5
  6
Continuous
 62
7
100
AcDbLine
 10
720.2738341124
 20
76.621961023
 30
0.0
 11
718.2738341124
 21
76.621961023
 31
0.0
  0
LINE
  5
78
330
5B
100
AcDbEntity
  8
6200002991_5
  6
Continuous
 62
7
100
AcDbLine
 10
720.2738341124
 20
101.621961023
 30
0.0
 11
720.2738341124
 21
76.621961023
 31
0.0
  0
LINE
  5
79
330
5B
100
AcDbEntity
  8
6200002991_5
  6
Continuous
 62
7
100
AcDbLine
 10
402.4555437143
 20
60.5098884235
 30
0.0
 11
402.4555437143
 21
61.8728860815
 31
0.0
  0
SPLINE
  5
7A
330
5B
100
AcDbEntity
  8
6200002991_5
  6
Continuous
 62
7
100
AcDbSpline
 70
8
 71
3
 72
32
 73
28
 74
0
 40
0.0
 40
0.0
 40
0.0
 40
0.0
 40
0.0767292189618942
 40
0.0767292189618942
 40
0.0767292189618942
 40
0.1621023515642115
 40
0.1621023515642115
 40
0.1621023515642115
 40
0.2574026842977408
 40
0.2574026842977408
 40
0.2574026842977408
 40
0.3586993936810259
 40
0.3586993936810259
 40
0.4799233245823346
 40
0.4799233245823346
 40
0.601147255483643
 40
0.601147255483643
 40
0.7446368063464158
 40
0.7446368063464158
 40
0.7446368063464158
 40
0.8535345520750885
 40
0.8535345520750885
 40
0.8535345520750885
 40
0.9240211295714166
 40
0.9240211295714166
 40
0.9240211295714166
 40
1.0
 40
1.0
 40
1.0
 40
1.0
 10
402.4555437143199
 20
61.87288608154583
 30
0.0
 10
402.7787287260295
 20
61.91504064829056
 30
0.0
 10
403.038681887622
 20
61.9923240206559
 30
0.0
 10
403.2283774379733
 20
62.09771043751773
 30
0.0
 10
403.4675847200201
 20
62.23060337198815
 30
0.0
 10
403.6288458220482
 20
62.4771015382203
 30
0.0
 10
403.7061291944136
 20
62.8283895944264
 30
0.0
 10
403.7819382559745
 20
63.17297623788533
 30
0.0
 10
403.8396186557719
 20
63.50286266234207
 30
0.0
 10
403.8747474613925
 20
63.81902191292757
 30
0.0
 10
403.90841970678
 20
64.1220721214156
 30
0.0
 10
403.9309535503855
 20
64.49349498084325
 30
0.0
 10
403.9309535503855
 20
65.43494697147557
 30
0.0
 10
403.9309535503855
 20
65.90567296679173
 30
0.0
 10
403.9309535503855
 20
66.76281582393459
 30
0.0
 10
403.9309535503855
 20
67.15625844688542
 30
0.0
 10
403.9309535503855
 20
67.90801488716644
 30
0.0
 10
403.9098762670131
 20
68.39279240473084
 30
0.0
 10
403.8606959391443
 20
68.95485329466058
 30
0.0
 10
403.8121790767002
 20
69.50933172259252
 30
0.0
 10
403.7693610445306
 20
69.88927952416877
 30
0.0
 10
403.7131549555377
 20
70.09302659676831
 30
0.0
 10
403.659246795045
 20
70.28844367855439
 30
0.0
 10
403.502382121814
 20
70.4724176974709
 30
0.0
 10
403.2354031990974
 20
70.64103596444981
 30
0.0
 10
403.0805025568084
 20
70.73886794905343
 30
0.0
 10
402.8208832927742
 20
70.78155118693225
 30
0.0
 10
402.4555437143199
 20
70.78155118693225
 30
0.0
  0
LINE
  5
7B
330
5B
100
AcDbEntity
  8
6200002991_5
  6
Continuous
 62
7
100
AcDbLine
 10
402.4555437143
 20
70.7815511869
 30
0.0
 11
402.4555437143
 21
72.1304973228
 31
0.0
  0
SPLINE
  5
7C
330
5B
100
AcDbEntity
  8
6200002991_5
  6
Continuous
 62
7
100
AcDbSpline
 70
8
 71
3
 72
47
 73
43
 74
0
 40
0.0
 40
0.0
 40
0.0
 40
0.0
 40
0.0572490204446905
 40
0.0572490204446905
 40
0.1144980408893786
 40
0.1144980408893786
 40
0.1144980408893786
 40
0.1553375492524585
 40
0.1553375492524585
 40
0.1553375492524585
 40
0.1941091789292768
 40
0.1941091789292768
 40
0.1941091789292768
 40
0.2271981451960099
 40
0.2271981451960099
 40
0.2271981451960099
 40
0.2683198114639101
 40
0.2683198114639101
 40
0.2683198114639101
 40
0.3668687071833111
 40
0.3668687071833111
 40
0.3668687071833111
 40
0.5022561109540309
 40
0.5022561109540309
 40
0.7515207702328324
 40
0.7515207702328324
 40
0.7515207702328324
 40
0.8119160464019305
 40
0.8119160464019305
 40
0.8119160464019305
 40
0.8423965364932717
 40
0.8423965364932717
 40
0.8423965364932717
 40
0.8754235260842165
 40
0.8754235260842165
 40
0.8754235260842165
 40
0.917176663876019
 40
0.917176663876019
 40
0.9589298016678216
 40
0.9589298016678216
 40
0.9589298016678216
 40
1.0
 40
1.0
 40
1.0
 40
1.0
 10
402.4555437143199
 20
72.13049732276363
 30
0.0
 10
402.9613985152567
 20
72.13049732276363
 30
0.0
 10
403.3407896159592
 20
72.1164458005154
 30
0.0
 10
403.8747474613925
 20
72.06023971152241
 30
0.0
 10
404.1276748618609
 20
72.01808514477769
 30
0.0
 10
404.3595249789569
 20
71.94782753353645
 30
0.0
 10
404.5978099605308
 20
71.87561996336255
 30
0.0
 10
404.8021479297766
 20
71.78623502768167
 30
0.0
 10
404.9848177190037
 20
71.67382284969571
 30
0.0
 10
405.1706234702777
 20
71.55948084891173
 30
0.0
 10
405.3290800140857
 20
71.4138696881032
 30
0.0
 10
405.4695952365682
 20
71.24525142112428
 30
0.0
 10
405.6066551666945
 20
71.08077950497271
 30
0.0
 10
405.7225226370365
 20
70.92909217053881
 30
0.0
 10
405.7927802482778
 20
70.79560270918049
 30
0.0
 10
405.86593350944
 20
70.65661151297228
 30
0.0
 10
405.9262697096361
 20
70.43728889185027
 30
0.0
 10
405.9824757986291
 20
70.13518116351304
 30
0.0
 10
406.0384468386351
 20
69.8343368234804
 30
0.0
 10
406.0878622154909
 20
69.2850640674943
 30
0.0
 10
406.1370425433597
 20
68.49115306046855
 30
0.0
 10
406.185816168564
 20
67.70380739645611
 30
0.0
 10
406.2143259157251
 20
66.93143409091351
 30
0.0
 10
406.2143259157251
 20
64.79560270918049
 30
0.0
 10
406.1089394988632
 20
63.42557928997675
 30
0.0
 10
405.8841151428913
 20
62.06258163189712
 30
0.0
 10
405.8320438215418
 20
61.74689924621567
 30
0.0
 10
405.6803680702918
 20
61.45134041409852
 30
0.0
 10
405.4344664309476
 20
61.17030996913365
 30
0.0
 10
405.3395875683333
 20
61.0618769832888
 30
0.0
 10
405.2096420749756
 20
60.95251137428588
 30
0.0
 10
405.0410238079967
 20
60.84712495742405
 30
0.0
 10
404.8692478955688
 20
60.73976501215657
 30
0.0
 10
404.7037872740389
 20
60.66445516819689
 30
0.0
 10
404.5351690070599
 20
60.62932636257627
 30
0.0
 10
404.3584144177143
 20
60.59250248979593
 30
0.0
 10
404.1838809508539
 20
60.55906875133505
 30
0.0
 10
403.8044898501513
 20
60.51691418459033
 30
0.0
 10
403.5234594051864
 20
60.5098884234662
 30
0.0
 10
403.1440683044838
 20
60.5098884234662
 30
0.0
 10
402.9145601077626
 20
60.5098884234662
 30
0.0
 10
402.6850519110412
 20
60.5098884234662
 30
0.0
 10
402.4555437143199
 20
60.5098884234662
 30
0.0
  0
LINE
  5
7D
330
5B
100
AcDbEntity
  8
6200002991_5
  6
Continuous
 62
7
100
AcDbLine
 10
413.8021479298
 20
72.1304973228
 30
0.0
 11
413.8021479298
 21
60.5098884235
 31
0.0
  0
LINE
  5
7E
330
5B
100
AcDbEntity
  8
6200002991_5
  6
Continuous
 62
7
100
AcDbLine
 10
413.8021479298
 20
60.5098884235
 30
0.0
 11
412.1932486324
 21
60.5098884235
 31
0.0
  0
LINE
  5
7F
330
5B
100
AcDbEntity
  8
6200002991_5
  6
Continuous
 62
7
100
AcDbLine
 10
412.1932486324
 20
60.5098884235
 30
0.0
 11
409.9379793115
 21
65.3787408825
 31
0.0
  0
LINE
  5
80
330
5B
100
AcDbEntity
  8
6200002991_5
  6
Continuous
 62
7
100
AcDbLine
 10
409.9379793115
 20
65.3787408825
 30
0.0
 11
409.8115156113
 21
65.3787408825
 31
0.0
  0
LINE
  5
81
330
5B
100
AcDbEntity
  8
6200002991_5
  6
Continuous
 62
7
100
AcDbLine
 10
409.8115156113
 20
65.3787408825
 30
0.0
 11
409.8115156113
 21
60.5098884235
 31
0.0
  0
LINE
  5
82
330
5B
100
AcDbEntity
  8
6200002991_5
  6
Continuous
 62
7
100
AcDbLine
 10
409.8115156113
 20
60.5098884235
 30
0.0
 11
407.5843493349
 21
60.5098884235
 31
0.0
  0
LINE
  5
83
330
5B
100
AcDbEntity
  8
6200002991_5
  6
Continuous
 62
7
100
AcDbLine
 10
407.5843493349
 20
60.5098884235
 30
0.0
 11
407.5843493349
 21
72.1304973228
 31
0.0
  0
LINE
  5
84
330
5B
100
AcDbEntity
  8
6200002991_5
  6
Continuous
 62
7
100
AcDbLine
 10
407.5843493349
 20
72.1304973228
 30
0.0
 11
409.2213516768
 21
72.1304973228
 31
0.0
  0
LINE
  5
85
330
5B
100
AcDbEntity
  8
6200002991_5
  6
Continuous
 62
7
100
AcDbLine
 10
409.2213516768
 20
72.1304973228
 30
0.0
 11
411.4625694754
 21
67.2475933415
 31
0.0
  0
LINE
  5
86
330
5B
100
AcDbEntity
  8
6200002991_5
  6
Continuous
 62
7
100
AcDbLine
 10
411.4625694754
 20
67.2475933415
 30
0.0
 11
411.5749816534
 21
67.2475933415
 31
0.0
  0
LINE
  5
87
330
5B
100
AcDbEntity
  8
6200002991_5
  6
Continuous
 62
7
100
AcDbLine
 10
411.5749816534
 20
67.2475933415
 30
0.0
 11
411.5749816534
 21
72.1304973228
 31
0.0
  0
LINE
  5
88
330
5B
100
AcDbEntity
  8
6200002991_5
  6
Continuous
 62
7
100
AcDbLine
 10
411.5749816534
 20
72.1304973228
 30
0.0
 11
413.8021479298
 21
72.1304973228
 31
0.0
  0
LINE
  5
89
330
5B
100
AcDbEntity
  8
6200002991_5
  6
Continuous
 62
7
100
AcDbLine
 10
419.5562462904
 20
72.1304973228
 30
0.0
 11
419.5562462904
 21
60.5098884235
 31
0.0
  0
LINE
  5
8A
330
5B
100
AcDbEntity
  8
6200002991_5
  6
Continuous
 62
7
100
AcDbLine
 10
419.5562462904
 20
60.5098884235
 30
0.0
 11
417.2377451195
 21
60.5098884235
 31
0.0
  0
SPLINE
  5
8B
330
5B
100
AcDbEntity
  8
6200002991_5
  6
Continuous
 62
7
100
AcDbSpline
 70
8
 71
3
 72
22
 73
18
 74
0
 40
0.0
 40
0.0
 40
0.0
 40
0.0
 40
0.6650737710456702
 40
0.6650737710456702
 40
0.6650737710456702
 40
0.731148630980989
 40
0.731148630980989
 40
0.7972234909163084
 40
0.7972234909163084
 40
0.7972234909163084
 40
0.8548649882610907
 40
0.8548649882610907
 40
0.8548649882610907
 40
0.9664691804287758
 40
0.9664691804287758
 40
0.9664691804287758
 40
1.0
 40
1.0
 40
1.0
 40
1.0
 10
417.2377451194722
 20
60.5098884234662
 30
0.0
 10
417.2377451194722
 20
62.78857694805637
 30
0.0
 10
417.2377451194722
 20
65.06726547264653
 30
0.0
 10
417.2377451194722
 20
67.34595399723669
 30
0.0
 10
417.2377451194722
 20
67.79560270918049
 30
0.0
 10
417.2166678360998
 20
68.10473619864185
 30
0.0
 10
417.1183071803621
 20
68.42792121035144
 30
0.0
 10
417.0691268524932
 20
68.56141067170977
 30
0.0
 10
417.0058950023761
 20
68.6667970885716
 30
0.0
 10
416.9036081860102
 20
68.83727511584807
 30
0.0
 10
416.7529676019077
 20
68.96187905578472
 30
0.0
 10
416.5632720515564
 20
69.04618818927416
 30
0.0
 10
416.3044777783968
 20
69.16120786623401
 30
0.0
 10
415.9309535503854
 20
69.24290950074958
 30
0.0
 10
415.4461760328211
 20
69.2850640674943
 30
0.0
 10
415.362499613279
 20
69.29234027788928
 30
0.0
 10
415.2494547213457
 20
69.2850640674943
 30
0.0
 10
415.1019137377391
 20
69.29911558974256
 30
0.0
  0
LINE
  5
8C
330
5B
100
AcDbEntity
  8
6200002991_5
  6
Continuous
 62
7
100
AcDbLine
 10
415.1019137377
 20
69.2991155897
 30
0.0
 11
415.1019137377
 21
70.2265160581
 31
0.0
  0
SPLINE
  5
8D
330
5B
100
AcDbEntity
  8
6200002991_5
  6
Continuous
 62
7
100
AcDbSpline
 70
8
 71
3
 72
11
 73
7
 74
0
 40
0.0
 40
0.0
 40
0.0
 40
0.0
 40
0.6332571830781567
 40
0.6332571830781567
 40
0.6332571830781567
 40
1.0
 40
1.0
 40
1.0
 40
1.0
 10
415.1019137377391
 20
70.22651605812663
 30
0.0
 10
415.9731081171302
 20
70.33190247498845
 30
0.0
 10
416.6124523794253
 20
70.59888139770509
 30
0.0
 10
417.0199465246244
 20
71.04150434852475
 30
0.0
 10
417.238614117882
 20
71.27902259637358
 30
0.0
 10
417.4274406698234
 20
71.63869404407511
 30
0.0
 10
417.57498165343
 20
72.13049732276363
 30
0.0
  0
LINE
  5
8E
330
5B
100
AcDbEntity
  8
6200002991_5
  6
Continuous
 62
7
100
AcDbLine
 10
417.5749816534
 20
72.1304973228
 30
0.0
 11
419.5562462904
 21
72.1304973228
 31
0.0
  0
LINE
  5
8F
330
5B
100
AcDbEntity
  8
6200002991_5
  6
Continuous
 62
7
100
AcDbLine
 10
423.6944195925
 20
70.9290921705
 30
0.0
 11
423.6944195925
 21
66.6433778848
 31
0.0
  0
LINE
  5
90
330
5B
100
AcDbEntity
  8
6200002991_5
  6
Continuous
 62
7
100
AcDbLine
 10
423.6944195925
 20
66.6433778848
 30
0.0
 11
421.5515624497
 21
66.6433778848
 31
0.0
  0
LINE
  5
91
330
5B
100
AcDbEntity
  8
6200002991_5
  6
Continuous
 62
7
100
AcDbLine
 10
421.5515624497
 20
66.6433778848
 30
0.0
 11
421.6639746277
 21
72.1304973228
 31
0.0
  0
LINE
  5
92
330
5B
100
AcDbEntity
  8
6200002991_5
  6
Continuous
 62
7
100
AcDbLine
 10
421.6639746277
 20
72.1304973228
 30
0.0
 11
427.5445366886
 21
72.1304973228
 31
0.0
  0
LINE
  5
93
330
5B
100
AcDbEntity
  8
6200002991_5
  6
Continuous
 62
7
100
AcDbLine
 10
427.5445366886
 20
72.1304973228
 30
0.0
 11
427.5445366886
 21
70.9290921705
 31
0.0
  0
LINE
  5
94
330
5B
100
AcDbEntity
  8
6200002991_5
  6
Continuous
 62
7
100
AcDbLine
 10
427.5445366886
 20
70.9290921705
 30
0.0
 11
423.6944195925
 21
70.9290921705
 31
0.0
  0
SPLINE
  5
95
330
5B
100
AcDbEntity
  8
6200002991_5
  6
Continuous
 62
7
100
AcDbSpline
 70
8
 71
3
 72
34
 73
30
 74
0
 40
0.0
 40
0.0
 40
0.0
 40
0.0
 40
0.0717897942000687
 40
0.0717897942000687
 40
0.0717897942000687
 40
0.127283636052746
 40
0.127283636052746
 40
0.270755519866995
 40
0.270755519866995
 40
0.270755519866995
 40
0.4602431452162598
 40
0.4602431452162598
 40
0.4602431452162598
 40
0.5904938382406386
 40
0.5904938382406386
 40
0.5904938382406386
 40
0.7221497575925878
 40
0.7221497575925878
 40
0.7221497575925878
 40
0.8067198776940668
 40
0.8067198776940668
 40
0.8067198776940668
 40
0.8954419257030151
 40
0.8954419257030151
 40
0.8954419257030151
 40
0.949738457566183
 40
0.949738457566183
 40
0.949738457566183
 40
1.0
 40
1.0
 40
1.0
 40
1.0
 10
424.2494547213457
 20
68.17499380988306
 30
0.0
 10
424.4953563606899
 20
68.42089544922733
 30
0.0
 10
424.7623352834066
 20
68.6035652384545
 30
0.0
 10
425.0574172506197
 20
68.71597741644045
 30
0.0
 10
425.3586345854679
 20
68.83072687733502
 30
0.0
 10
425.65460694617
 20
68.88459568341936
 30
0.0
 10
426.687393831416
 20
68.88459568341936
 30
0.0
 10
427.2354031990974
 20
68.68084861081982
 30
0.0
 10
427.5937170164276
 20
68.28740598786902
 30
0.0
 10
427.9587136956115
 20
67.88662532052989
 30
0.0
 10
428.134700622985
 20
67.05789779114771
 30
0.0
 10
428.134700622985
 20
65.80731231105402
 30
0.0
 10
428.134700622985
 20
65.21480645625309
 30
0.0
 10
428.134700622985
 20
64.62230060145215
 30
0.0
 10
428.134700622985
 20
64.02979474665122
 30
0.0
 10
428.134700622985
 20
63.22183221737721
 30
0.0
 10
428.0995718173644
 20
62.62464252182687
 30
0.0
 10
428.0293142061232
 20
62.23822566000016
 30
0.0
 10
427.9588317705259
 20
61.85057226421562
 30
0.0
 10
427.7974640890272
 20
61.5075465030915
 30
0.0
 10
427.5445366885588
 20
61.20543877475426
 30
0.0
 10
427.3008578257864
 20
60.91437791088723
 30
0.0
 10
426.9754500375049
 20
60.67850669044513
 30
0.0
 10
426.5679558923059
 20
60.5098884234662
 30
0.0
 10
426.3726896623221
 20
60.4290886041626
 30
0.0
 10
426.1323587026103
 20
60.37639896210789
 30
0.0
 10
425.8513282576454
 20
60.32721863423904
 30
0.0
 10
425.5783077768488
 20
60.27944005009962
 30
0.0
 10
425.3454734567086
 20
60.25696102299782
 30
0.0
 10
425.1698294286056
 20
60.25696102299782
 30
0.0
  0
LINE
  5
96
330
5B
100
AcDbEntity
  8
6200002991_5
  6
Continuous
 62
7
100
AcDbLine
 10
425.1698294286
 20
60.256961023
 30
0.0
 11
425.1698294286
 21
61.4372888919
 31
0.0
  0
SPLINE
  5
97
330
5B
100
AcDbEntity
  8
6200002991_5
  6
Continuous
 62
7
100
AcDbSpline
 70
8
 71
3
 72
34
 73
30
 74
0
 40
0.0
 40
0.0
 40
0.0
 40
0.0
 40
0.0302251274604584
 40
0.0302251274604584
 40
0.0302251274604584
 40
0.0630802001458228
 40
0.0630802001458228
 40
0.0630802001458228
 40
0.1008633141639944
 40
0.1008633141639944
 40
0.1386464281821686
 40
0.1386464281821686
 40
0.1386464281821686
 40
0.3349608747973676
 40
0.3349608747973676
 40
0.6468623320364691
 40
0.6468623320364691
 40
0.6468623320364691
 40
0.7370189527003747
 40
0.7370189527003747
 40
0.7370189527003747
 40
0.7979295790835479
 40
0.7979295790835479
 40
0.7979295790835479
 40
0.9182095915338163
 40
0.9182095915338163
 40
0.9591047957669073
 40
0.9591047957669073
 40
1.0
 40
1.0
 40
1.0
 40
1.0
 10
425.1698294286056
 20
61.43728889185028
 30
0.0
 10
425.247112800971
 20
61.45836617522264
 30
0.0
 10
425.3173704122122
 20
61.47944345859501
 30
0.0
 10
425.3876280234534
 20
61.51457226421562
 30
0.0
 10
425.4550753302449
 20
61.54829591761141
 30
0.0
 10
425.5211174848117
 20
61.59888139770508
 30
0.0
 10
425.5843493349288
 20
61.6691390089463
 30
0.0
 10
425.644437059902
 20
61.73590314780535
 30
0.0
 10
425.6967615129147
 20
61.82370575367698
 30
0.0
 10
425.7810706464043
 20
61.9923240206559
 30
0.0
 10
425.8091736909007
 20
62.08365891526949
 30
0.0
 10
425.8161994520248
 20
62.18904533213131
 30
0.0
 10
425.8494630113292
 20
62.68799872169836
 30
0.0
 10
425.8161994520248
 20
63.19138725250602
 30
0.0
 10
425.8161994520248
 20
64.48881114009383
 30
0.0
 10
425.8161994520248
 20
65.2850640674943
 30
0.0
 10
425.8161994520248
 20
66.08131699489478
 30
0.0
 10
425.8161994520248
 20
66.36234743985965
 30
0.0
 10
425.8021479297765
 20
66.59419755695566
 30
0.0
 10
425.7740448852801
 20
66.7698415850587
 30
0.0
 10
425.7446704081933
 20
66.95343206685128
 30
0.0
 10
425.6967615129147
 20
67.09302659676831
 30
0.0
 10
425.6335296627977
 20
67.21246453587838
 30
0.0
 10
425.5291116616584
 20
67.40969853803041
 30
0.0
 10
425.3033188899639
 20
67.5075465030915
 30
0.0
 10
424.8325928946478
 20
67.5075465030915
 30
0.0
 10
424.7131549555377
 20
67.48646921971913
 30
0.0
 10
424.4602275550693
 20
67.40216008622969
 30
0.0
 10
424.3478153770834
 20
67.33892823611258
 30
0.0
 10
424.2494547213457
 20
67.24759334149898
 30
0.0
  0
LINE
  5
98
330
5B
100
AcDbEntity
  8
6200002991_5
  6
Continuous
 62
7
100
AcDbLine
 10
424.2494547213
 20
67.2475933415
 30
0.0
 11
424.2494547213
 21
68.1749938099
 31
0.0
  0
SPLINE
  5
99
330
5B
100
AcDbEntity
  8
6200002991_5
  6
Continuous
 62
7
100
AcDbSpline
 70
8
 71
3
 72
16
 73
12
 74
0
 40
0.0
 40
0.0
 40
0.0
 40
0.0
 40
0.1145763515028584
 40
0.1145763515028584
 40
0.1145763515028584
 40
0.4802635597003858
 40
0.4802635597003858
 40
0.8459507678979162
 40
0.8459507678979162
 40
0.8459507678979162
 40
1.0
 40
1.0
 40
1.0
 40
1.0
 10
423.8208832927743
 20
64.36703128060905
 30
0.0
 10
423.8208832927742
 20
64.24056758037487
 30
0.0
 10
423.8208832927742
 20
64.11410388014068
 30
0.0
 10
423.8208832927742
 20
63.98764017990649
 30
0.0
 10
423.8208832927742
 20
63.15860036726012
 30
0.0
 10
423.8489863372707
 20
62.59653947733037
 30
0.0
 10
423.9473469930084
 20
61.9923240206559
 30
0.0
 10
424.038681887622
 20
61.77452542580812
 30
0.0
 10
424.1721713489803
 20
61.63401020332569
 30
0.0
 10
424.2988196947106
 20
61.50069615518861
 30
0.0
 10
424.4461760328211
 20
61.42323736960203
 30
0.0
 10
424.6147942998
 20
61.40216008622967
 30
0.0
  0
LINE
  5
9A
330
5B
100
AcDbEntity
  8
6200002991_5
  6
Continuous
 62
7
100
AcDbLine
 10
424.6147942998
 20
61.4021600862
 30
0.0
 11
424.6147942998
 21
60.256961023
 31
0.0
  0
SPLINE
  5
9B
330
5B
100
AcDbEntity
  8
6200002991_5
  6
Continuous
 62
7
100
AcDbSpline
 70
8
 71
3
 72
20
 73
16
 74
0
 40
0.0
 40
0.0
 40
0.0
 40
0.0
 40
0.142897711114418
 40
0.142897711114418
 40
0.142897711114418
 40
0.2874608433297991
 40
0.2874608433297991
 40
0.2874608433297991
 40
0.5451120701220319
 40
0.5451120701220319
 40
0.5451120701220319
 40
0.9519416635638996
 40
0.9519416635638996
 40
0.9519416635638996
 40
1.0
 40
1.0
 40
1.0
 40
1.0
 10
424.6147942998
 20
60.25696102299782
 30
0.0
 10
424.3197123325869
 20
60.25696102299782
 30
0.0
 10
424.038681887622
 20
60.29208982861843
 30
0.0
 10
423.7646772037813
 20
60.3482959176114
 30
0.0
 10
423.489289531
 20
60.40478569664345
 30
0.0
 10
423.2166678360998
 20
60.5098884234662
 30
0.0
 10
422.9496889133831
 20
60.6363521237004
 30
0.0
 10
422.4269055251224
 20
60.88398636024495
 30
0.0
 10
422.0644430117438
 20
61.22651605812662
 30
0.0
 10
421.8606959391443
 20
61.68319053119455
 30
0.0
 10
421.6223609308093
 20
62.21738968780734
 30
0.0
 10
421.5023821218141
 20
63.01808514477768
 30
0.0
 10
421.5023821218141
 20
64.07897507452007
 30
0.0
 10
421.5023821218141
 20
64.17499380988306
 30
0.0
 10
421.5023821218141
 20
64.27101254524607
 30
0.0
 10
421.5023821218141
 20
64.36703128060905
 30
0.0
  0
LINE
  5
9C
330
5B
100
AcDbEntity
  8
6200002991_5
  6
Continuous
 62
7
100
AcDbLine
 10
421.5023821218
 20
64.3670312806
 30
0.0
 11
423.8208832928
 21
64.3670312806
 31
0.0
  0
LINE
  5
9D
330
5B
100
AcDbEntity
  8
6200002991_5
  6
Continuous
 62
7
100
AcDbLine
 10
435.834934815
 20
65.7792092666
 30
0.0
 11
435.834934815
 21
64.4372888919
 31
0.0
  0
LINE
  5
9E
330
5B
100
AcDbEntity
  8
6200002991_5
  6
Continuous
 62
7
100
AcDbLine
 10
435.834934815
 20
64.4372888919
 30
0.0
 11
432.5468786089
 21
64.4372888919
 31
0.0
  0
LINE
  5
9F
330
5B
100
AcDbEntity
  8
6200002991_5
  6
Continuous
 62
7
100
AcDbLine
 10
432.5468786089
 20
64.4372888919
 30
0.0
 11
432.5468786089
 21
65.7792092666
 31
0.0
  0
LINE
  5
A0
330
5B
100
AcDbEntity
  8
6200002991_5
  6
Continuous
 62
7
100
AcDbLine
 10
432.5468786089
 20
65.7792092666
 30
0.0
 11
435.834934815
 21
65.7792092666
 31
0.0
  0
LINE
  5
A1
330
5B
100
AcDbEntity
  8
6200002991_5
  6
Continuous
 62
7
100
AcDbLine
 10
442.5375109274
 20
72.1304973228
 30
0.0
 11
442.5375109274
 21
60.5098884235
 31
0.0
  0
LINE
  5
A2
330
5B
100
AcDbEntity
  8
6200002991_5
  6
Continuous
 62
7
100
AcDbLine
 10
442.5375109274
 20
60.5098884235
 30
0.0
 11
440.078494534
 21
60.5098884235
 31
0.0
  0
LINE
  5
A3
330
5B
100
AcDbEntity
  8
6200002991_5
  6
Continuous
 62
7
100
AcDbLine
 10
440.078494534
 20
60.5098884235
 30
0.0
 11
440.078494534
 21
72.1304973228
 31
0.0
  0
LINE
  5
A4
330
5B
100
AcDbEntity
  8
6200002991_5
  6
Continuous
 62
7
100
AcDbLine
 10
440.078494534
 20
72.1304973228
 30
0.0
 11
442.5375109274
 21
72.1304973228
 31
0.0
  0
LINE
  5
A5
330
5B
100
AcDbEntity
  8
6200002991_5
  6
Continuous
 62
7
100
AcDbLine
 10
443.078494534
 20
60.5098884235
 30
0.0
 11
443.078494534
 21
61.8728860815
 31
0.0
  0
SPLINE
  5
A6
330
5B
100
AcDbEntity
  8
6200002991_5
  6
Continuous
 62
7
100
AcDbSpline
 70
8
 71
3
 72
32
 73
28
 74
0
 40
0.0
 40
0.0
 40
0.0
 40
0.0
 40
0.0767223672749169
 40
0.0767223672749169
 40
0.0767223672749169
 40
0.1620878763149354
 40
0.1620878763149354
 40
0.1620878763149354
 40
0.2573796990172456
 40
0.2573796990172456
 40
0.2573796990172456
 40
0.3586673629110292
 40
0.3586673629110292
 40
0.4798804688822782
 40
0.4798804688822782
 40
0.6010935748535271
 40
0.6010935748535271
 40
0.7445703125337808
 40
0.7445703125337808
 40
0.7445703125337808
 40
0.853428448408804
 40
0.853428448408804
 40
0.853428448408804
 40
0.9240279142545419
 40
0.9240279142545419
 40
0.9240279142545419
 40
1.0
 40
1.0
 40
1.0
 40
1.0
 10
443.0784945339921
 20
61.87288608154583
 30
0.0
 10
443.4016795457017
 20
61.91504064829056
 30
0.0
 10
443.6616327072941
 20
61.9923240206559
 30
0.0
 10
443.8513282576454
 20
62.09771043751773
 30
0.0
 10
444.0905355396922
 20
62.23060337198815
 30
0.0
 10
444.2517966417204
 20
62.4771015382203
 30
0.0
 10
444.3290800140857
 20
62.8283895944264
 30
0.0
 10
444.4048890756467
 20
63.17297623788532
 30
0.0
 10
444.4625694754441
 20
63.50286266234207
 30
0.0
 10
444.4976982810647
 20
63.81902191292757
 30
0.0
 10
444.5313705264522
 20
64.1220721214156
 30
0.0
 10
444.5539043700576
 20
64.49349498084325
 30
0.0
 10
444.5539043700576
 20
65.43494697147557
 30
0.0
 10
444.5539043700576
 20
65.90567296679173
 30
0.0
 10
444.5539043700576
 20
66.76281582393459
 30
0.0
 10
444.5539043700576
 20
67.15625844688542
 30
0.0
 10
444.5539043700576
 20
67.90801488716644
 30
0.0
 10
444.5328270866852
 20
68.39279240473084
 30
0.0
 10
444.4836467588164
 20
68.95485329466058
 30
0.0
 10
444.4351298963724
 20
69.50933172259252
 30
0.0
 10
444.3852861030787
 20
69.88927952416877
 30
0.0
 10
444.3361057752098
 20
70.09302659676831
 30
0.0
 10
444.2885279524064
 20
70.29013471981123
 30
0.0
 10
444.1253329414861
 20
70.4724176974709
 30
0.0
 10
443.8583540187695
 20
70.64103596444981
 30
0.0
 10
443.7034533764805
 20
70.73886794905343
 30
0.0
 10
443.4438341124464
 20
70.78155118693225
 30
0.0
 10
443.0784945339921
 20
70.78155118693225
 30
0.0
  0
LINE
  5
A7
330
5B
100
AcDbEntity
  8
6200002991_5
  6
Continuous
 62
7
100
AcDbLine
 10
443.078494534
 20
70.7815511869
 30
0.0
 11
443.078494534
 21
72.1304973228
 31
0.0
  0
SPLINE
  5
A8
330
5B
100
AcDbEntity
  8
6200002991_5
  6
Continuous
 62
7
100
AcDbSpline
 70
8
 71
3
 72
48
 73
44
 74
0
 40
0.0
 40
0.0
 40
0.0
 40
0.0
 40
0.0572490301732139
 40
0.0572490301732139
 40
0.1144980603464279
 40
0.1144980603464279
 40
0.1144980603464279
 40
0.1553375756495068
 40
0.1553375756495068
 40
0.1553375756495068
 40
0.1941092119149219
 40
0.1941092119149219
 40
0.1941092119149219
 40
0.2271981838045774
 40
0.2271981838045774
 40
0.2271981838045774
 40
0.2683198570604247
 40
0.2683198570604247
 40
0.2683198570604247
 40
0.3668687695265805
 40
0.3668687695265805
 40
0.3668687695265805
 40
0.5022561963041507
 40
0.5022561963041507
 40
0.7515208979413582
 40
0.7515208979413582
 40
0.7515208979413582
 40
0.8119161843736346
 40
0.8119161843736346
 40
0.8119161843736346
 40
0.8423966796446313
 40
0.8423966796446313
 40
0.8423966796446313
 40
0.8754236748479659
 40
0.8754236748479659
 40
0.8754236748479659
 40
0.9081634056738861
 40
0.9081634056738861
 40
0.9081634056738861
 40
0.9589262236482213
 40
0.9589262236482213
 40
0.9589262236482213
 40
1.0
 40
1.0
 40
1.0
 40
1.0
 10
443.0784945339921
 20
72.13049732276363
 30
0.0
 10
443.5843493349288
 20
72.13049732276363
 30
0.0
 10
443.9637404356313
 20
72.1164458005154
 30
0.0
 10
444.4976982810647
 20
72.06023971152241
 30
0.0
 10
444.750625681533
 20
72.01808514477769
 30
0.0
 10
444.982475798629
 20
71.94782753353645
 30
0.0
 10
445.2207607802029
 20
71.87561996336257
 30
0.0
 10
445.4250987494487
 20
71.78623502768167
 30
0.0
 10
445.6077685386759
 20
71.67382284969571
 30
0.0
 10
445.7935742899498
 20
71.55948084891173
 30
0.0
 10
445.9520308337578
 20
71.4138696881032
 30
0.0
 10
446.0925460562403
 20
71.24525142112428
 30
0.0
 10
446.2296059863666
 20
71.08077950497271
 30
0.0
 10
446.3454734567086
 20
70.92909217053881
 30
0.0
 10
446.4157310679499
 20
70.79560270918049
 30
0.0
 10
446.4888843291121
 20
70.65661151297228
 30
0.0
 10
446.5492205293082
 20
70.43728889185027
 30
0.0
 10
446.6054266183012
 20
70.13518116351304
 30
0.0
 10
446.6613976583072
 20
69.8343368234804
 30
0.0
 10
446.710813035163
 20
69.2850640674943
 30
0.0
 10
446.7599933630319
 20
68.49115306046855
 30
0.0
 10
446.8087669882362
 20
67.70380739645611
 30
0.0
 10
446.8372767353972
 20
66.93143409091351
 30
0.0
 10
446.8372767353972
 20
64.79560270918049
 30
0.0
 10
446.7318903185353
 20
63.42557928997675
 30
0.0
 10
446.5070659625634
 20
62.06258163189712
 30
0.0
 10
446.4549946412139
 20
61.74689924621567
 30
0.0
 10
446.3033188899639
 20
61.45134041409852
 30
0.0
 10
446.0574172506197
 20
61.17030996913365
 30
0.0
 10
445.9625383880054
 20
61.0618769832888
 30
0.0
 10
445.8325928946477
 20
60.95251137428588
 30
0.0
 10
445.6639746276688
 20
60.84712495742405
 30
0.0
 10
445.4921987152409
 20
60.73976501215657
 30
0.0
 10
445.326738093711
 20
60.66445516819689
 30
0.0
 10
445.1581198267321
 20
60.62932636257627
 30
0.0
 10
444.9813652373865
 20
60.59250248979593
 30
0.0
 10
444.7998060094019
 20
60.55906875133505
 30
0.0
 10
444.6171362201748
 20
60.5379914679627
 30
0.0
 10
444.4275329790937
 20
60.51611417091488
 30
0.0
 10
444.1464102248586
 20
60.5098884234662
 30
0.0
 10
443.7670191241559
 20
60.5098884234662
 30
0.0
 10
443.5375109274347
 20
60.5098884234662
 30
0.0
 10
443.3080027307134
 20
60.5098884234662
 30
0.0
 10
443.0784945339921
 20
60.5098884234662
 30
0.0
  0
LINE
  5
A9
330
5B
100
AcDbEntity
  8
6200002991_5
  6
Continuous
 62
7
100
AcDbLine
 10
454.4250987494
 20
72.1304973228
 30
0.0
 11
454.4250987494
 21
60.5098884235
 31
0.0
  0
LINE
  5
AA
330
5B
100
AcDbEntity
  8
6200002991_5
  6
Continuous
 62
7
100
AcDbLine
 10
454.4250987494
 20
60.5098884235
 30
0.0
 11
452.816199452
 21
60.5098884235
 31
0.0
  0
LINE
  5
AB
330
5B
100
AcDbEntity
  8
6200002991_5
  6
Continuous
 62
7
100
AcDbLine
 10
452.816199452
 20
60.5098884235
 30
0.0
 11
450.5609301312
 21
65.3787408825
 31
0.0
  0
LINE
  5
AC
330
5B
100
AcDbEntity
  8
6200002991_5
  6
Continuous
 62
7
100
AcDbLine
 10
450.5609301312
 20
65.3787408825
 30
0.0
 11
450.4344664309
 21
65.3787408825
 31
0.0
  0
LINE
  5
AD
330
5B
100
AcDbEntity
  8
6200002991_5
  6
Continuous
 62
7
100
AcDbLine
 10
450.4344664309
 20
65.3787408825
 30
0.0
 11
450.4344664309
 21
60.5098884235
 31
0.0
  0
LINE
  5
AE
330
5B
100
AcDbEntity
  8
6200002991_5
  6
Continuous
 62
7
100
AcDbLine
 10
450.4344664309
 20
60.5098884235
 30
0.0
 11
448.2073001546
 21
60.5098884235
 31
0.0
  0
LINE
  5
AF
330
5B
100
AcDbEntity
  8
6200002991_5
  6
Continuous
 62
7
100
AcDbLine
 10
448.2073001546
 20
60.5098884235
 30
0.0
 11
448.2073001546
 21
72.1304973228
 31
0.0
  0
LINE
  5
B0
330
5B
100
AcDbEntity
  8
6200002991_5
  6
Continuous
 62
7
100
AcDbLine
 10
448.2073001546
 20
72.1304973228
 30
0.0
 11
449.8443024965
 21
72.1304973228
 31
0.0
  0
LINE
  5
B1
330
5B
100
AcDbEntity
  8
6200002991_5
  6
Continuous
 62
7
100
AcDbLine
 10
449.8443024965
 20
72.1304973228
 30
0.0
 11
452.0855202951
 21
67.2475933415
 31
0.0
  0
LINE
  5
B2
330
5B
100
AcDbEntity
  8
6200002991_5
  6
Continuous
 62
7
100
AcDbLine
 10
452.0855202951
 20
67.2475933415
 30
0.0
 11
452.1979324731
 21
67.2475933415
 31
0.0
  0
LINE
  5
B3
330
5B
100
AcDbEntity
  8
6200002991_5
  6
Continuous
 62
7
100
AcDbLine
 10
452.1979324731
 20
67.2475933415
 30
0.0
 11
452.1979324731
 21
72.1304973228
 31
0.0
  0
LINE
  5
B4
330
5B
100
AcDbEntity
  8
6200002991_5
  6
Continuous
 62
7
100
AcDbLine
 10
452.1979324731
 20
72.1304973228
 30
0.0
 11
454.4250987494
 21
72.1304973228
 31
0.0
  0
SPLINE
  5
B5
330
5B
100
AcDbEntity
  8
6200002991_5
  6
Continuous
 62
7
100
AcDbSpline
 70
8
 71
3
 72
17
 73
13
 74
0
 40
0.0
 40
0.0
 40
0.0
 40
0.0
 40
0.2931083168563082
 40
0.2931083168563082
 40
0.2931083168563082
 40
0.5048476921271943
 40
0.5048476921271943
 40
0.5048476921271943
 40
0.7400950862858977
 40
0.7400950862858977
 40
0.7400950862858977
 40
1.0
 40
1.0
 40
1.0
 40
1.0
 10
456.0831783747415
 20
68.71597741644045
 30
0.0
 10
456.0831783747415
 20
69.38342472323201
 30
0.0
 10
456.1183071803621
 20
69.89630528529291
 30
0.0
 10
456.1815390304791
 20
70.26164486374724
 30
0.0
 10
456.2437945899122
 20
70.6213436515827
 30
0.0
 10
456.3993376253269
 20
70.96422097615941
 30
0.0
 10
456.6241619812989
 20
71.2803802267449
 30
0.0
 10
456.8513459238208
 20
71.59985764591637
 30
0.0
 10
457.1721713489804
 20
71.85649263892289
 30
0.0
 10
457.5866912553035
 20
72.04618818927416
 30
0.0
 10
458.0043619067579
 20
72.23732560604142
 30
0.0
 10
458.4508598735705
 20
72.32721863423903
 30
0.0
 10
458.9215858688867
 20
72.32721863423903
 30
0.0
  0
LINE
  5
B6
330
5B
100
AcDbEntity
  8
6200002991_5
  6
Continuous
 62
7
100
AcDbLine
 10
458.9215858689
 20
72.3272186342
 30
0.0
 11
458.9215858689
 21
71.1679680488
 31
0.0
  0
SPLINE
  5
B7
330
5B
100
AcDbEntity
  8
6200002991_5
  6
Continuous
 62
7
100
AcDbSpline
 70
8
 71
3
 72
17
 73
13
 74
0
 40
0.0
 40
0.0
 40
0.0
 40
0.0
 40
0.2667908660008752
 40
0.2667908660008752
 40
0.2667908660008752
 40
0.4565541955748608
 40
0.4565541955748608
 40
0.4565541955748608
 40
0.7390072918803431
 40
0.7390072918803431
 40
0.7390072918803431
 40
1.0
 40
1.0
 40
1.0
 40
1.0
 10
458.9215858688867
 20
71.16796804875894
 30
0.0
 10
458.7037872740389
 20
71.13986500426246
 30
0.0
 10
458.5000402014394
 20
71.00637554290415
 30
0.0
 10
458.3173704122122
 20
70.75344814243576
 30
0.0
 10
458.2456734462579
 20
70.65417542034523
 30
0.0
 10
458.1979324731021
 20
70.47944345859501
 30
0.0
 10
458.1487521452333
 20
70.247593341499
 30
0.0
 10
458.0981456742891
 20
70.00901997847664
 30
0.0
 10
458.0784945339921
 20
69.74173854056224
 30
0.0
 10
458.0784945339921
 20
69.45368233447323
 30
0.0
 10
458.0784945339921
 20
69.20778069512896
 30
0.0
 10
458.0784945339921
 20
68.96187905578472
 30
0.0
 10
458.0784945339921
 20
68.71597741644045
 30
0.0
  0
LINE
  5
B8
330
5B
100
AcDbEntity
  8
6200002991_5
  6
Continuous
 62
7
100
AcDbLine
 10
458.078494534
 20
68.7159774164
 30
0.0
 11
456.0831783747
 21
68.7159774164
 31
0.0
  0
SPLINE
  5
B9
330
5B
100
AcDbEntity
  8
6200002991_5
  6
Continuous
 62
7
100
AcDbSpline
 70
8
 71
3
 72
11
 73
7
 74
0
 40
0.0
 40
0.0
 40
0.0
 40
0.0
 40
0.5144122614341194
 40
0.5144122614341194
 40
0.5144122614341194
 40
1.0
 40
1.0
 40
1.0
 40
1.0
 10
459.4836467588164
 20
72.32721863423903
 30
0.0
 10
459.8981666651396
 20
72.32721863423903
 30
0.0
 10
460.2845835269663
 20
72.25696102299781
 30
0.0
 10
460.6428973442965
 20
72.1234715616395
 30
0.0
 10
460.9973401143092
 20
71.9914242551642
 30
0.0
 10
461.310344651088
 20
71.78623502768167
 30
0.0
 10
461.5773235738047
 20
71.52628186608915
 30
0.0
  0
SPLINE
  5
BA
330
5B
100
AcDbEntity
  8
6200002991_5
  6
Continuous
 62
7
100
AcDbSpline
 70
8
 71
3
 72
16
 73
12
 74
0
 40
0.0
 40
0.0
 40
0.0
 40
0.0
 40
0.2231625754641772
 40
0.2231625754641772
 40
0.404718569062152
 40
0.404718569062152
 40
0.404718569062152
 40
0.6022607420382469
 40
0.6022607420382469
 40
0.6022607420382469
 40
1.0
 40
1.0
 40
1.0
 40
1.0
 10
461.5773235738047
 20
71.52628186608915
 30
0.0
 10
462.1256126731769
 20
70.99242142722676
 30
0.0
 10
462.4133891475752
 20
70.3178509527402
 30
0.0
 10
462.4133891475752
 20
68.81433807217816
 30
0.0
 10
462.2517966417204
 20
68.13283924313835
 30
0.0
 10
461.9286116300108
 20
67.43026313072616
 30
0.0
 10
461.6039862096983
 20
66.72455569526427
 30
0.0
 10
461.2962931288398
 20
66.08131699489478
 30
0.0
 10
460.9801338782543
 20
65.50520458271679
 30
0.0
 10
460.402309393529
 20
64.45227996610619
 30
0.0
 10
459.6452392646712
 20
63.22885797850134
 30
0.0
 10
458.6967615129147
 20
61.83775727592522
 30
0.0
  0
LINE
  5
BB
330
5B
100
AcDbEntity
  8
6200002991_5
  6
Continuous
 62
7
100
AcDbLine
 10
458.6967615129
 20
61.8377572759
 30
0.0
 11
462.1323587026
 21
61.8377572759
 31
0.0
  0
LINE
  5
BC
330
5B
100
AcDbEntity
  8
6200002991_5
  6
Continuous
 62
7
100
AcDbLine
 10
462.1323587026
 20
61.8377572759
 30
0.0
 11
462.1323587026
 21
60.5098884235
 31
0.0
  0
LINE
  5
BD
330
5B
100
AcDbEntity
  8
6200002991_5
  6
Continuous
 62
7
100
AcDbLine
 10
462.1323587026
 20
60.5098884235
 30
0.0
 11
455.9918434801
 21
60.5098884235
 31
0.0
  0
LINE
  5
BE
330
5B
100
AcDbEntity
  8
6200002991_5
  6
Continuous
 62
7
100
AcDbLine
 10
455.9918434801
 20
60.5098884235
 30
0.0
 11
455.9918434801
 21
61.7815511869
 31
0.0
  0
SPLINE
  5
BF
330
5B
100
AcDbEntity
  8
6200002991_5
  6
Continuous
 62
7
100
AcDbSpline
 70
8
 71
3
 72
22
 73
18
 74
0
 40
0.0
 40
0.0
 40
0.0
 40
0.0
 40
0.3269252085032989
 40
0.3269252085032989
 40
0.3269252085032989
 40
0.5573752290878227
 40
0.5573752290878227
 40
0.5573752290878227
 40
0.6912707285363926
 40
0.6912707285363926
 40
0.6912707285363926
 40
0.8108517788069741
 40
0.8108517788069741
 40
0.8108517788069741
 40
0.8800027413936728
 40
0.8800027413936728
 40
1.0
 40
1.0
 40
1.0
 40
1.0
 10
455.9918434801279
 20
61.78155118693225
 30
0.0
 10
456.6311877424229
 20
62.82136383330226
 30
0.0
 10
457.2143259157251
 20
63.76281582393459
 30
0.0
 10
457.7412580000342
 20
64.61293291995332
 30
0.0
 10
458.3525626597693
 20
65.59917110432599
 30
0.0
 10
458.7599933630319
 20
66.26398678412194
 30
0.0
 10
458.9637404356314
 20
66.61527484032803
 30
0.0
 10
459.2786000991547
 20
67.15813632916134
 30
0.0
 10
459.518775564437
 20
67.5426753087121
 30
0.0
 10
459.6452392646712
 20
67.79560270918049
 30
0.0
 10
459.839150271697
 20
68.18342472323201
 30
0.0
 10
459.9965273208772
 20
68.55438491058564
 30
0.0
 10
460.1089394988632
 20
68.91972448903998
 30
0.0
 10
460.2187692349225
 20
69.27667113123252
 30
0.0
 10
460.270532004718
 20
69.5731202735833
 30
0.0
 10
460.270532004718
 20
70.22651605812663
 30
0.0
 10
460.1862228712286
 20
70.54970106983623
 30
0.0
 10
460.0246303653738
 20
70.78155118693225
 30
0.0
  0
SPLINE
  5
C0
330
5B
100
AcDbEntity
  8
6200002991_5
  6
Continuous
 62
7
100
AcDbSpline
 70
8
 71
3
 72
11
 73
7
 74
0
 40
0.0
 40
0.0
 40
0.0
 40
0.0
 40
0.533192122778389
 40
0.533192122778389
 40
0.533192122778389
 40
1.0
 40
1.0
 40
1.0
 40
1.0
 10
460.0246303653738
 20
70.78155118693225
 30
0.0
 10
459.9543727541325
 20
70.90801488716644
 30
0.0
 10
459.8700636206431
 20
70.99934978178001
 30
0.0
 10
459.7857544871537
 20
71.06258163189712
 30
0.0
 10
459.7003212318843
 20
71.12665657334911
 30
0.0
 10
459.5960589368023
 20
71.15391652651071
 30
0.0
 10
459.4836467588163
 20
71.17499380988306
 30
0.0
  0
LINE
  5
C1
330
5B
100
AcDbEntity
  8
6200002991_5
  6
Continuous
 62
7
100
AcDbLine
 10
459.4836467588
 20
71.1749938099
 30
0.0
 11
459.4836467588
 21
72.3272186342
 31
0.0
  0
SPLINE
  5
C2
330
5B
100
AcDbEntity
  8
6200002991_5
  6
Continuous
 62
7
100
AcDbSpline
 70
8
 71
3
 72
8
 73
4
 74
0
 40
0.0
 40
0.0
 40
0.0
 40
0.0
 40
1.0
 40
1.0
 40
1.0
 40
1.0
 10
467.6827099906665
 20
61.62698444220157
 30
0.0
 10
467.8864570632661
 20
61.7042678145669
 30
0.0
 10
468.0410238079967
 20
61.88693760379407
 30
0.0
 10
468.1464102248585
 20
62.19607109325543
 30
0.0
  0
SPLINE
  5
C3
330
5B
100
AcDbEntity
  8
6200002991_5
  6
Continuous
 62
7
100
AcDbSpline
 70
8
 71
3
 72
17
 73
13
 74
0
 40
0.0
 40
0.0
 40
0.0
 40
0.0
 40
0.1656213441145274
 40
0.1656213441145274
 40
0.1656213441145274
 40
0.7788449153724571
 40
0.7788449153724571
 40
0.7788449153724571
 40
0.9240362593771941
 40
0.9240362593771941
 40
0.9240362593771941
 40
1.0
 40
1.0
 40
1.0
 40
1.0
 10
468.1464102248585
 20
62.19607109325543
 30
0.0
 10
468.2166678360998
 20
62.43494697147557
 30
0.0
 10
468.2588224028445
 20
62.93377601128822
 30
0.0
 10
468.2588224028445
 20
63.68553245156924
 30
0.0
 10
468.2588224028445
 20
65.53330762721328
 30
0.0
 10
468.2588224028445
 20
67.3810828028573
 30
0.0
 10
468.2588224028445
 20
69.22885797850134
 30
0.0
 10
468.2588224028445
 20
69.86820224079642
 30
0.0
 10
468.2166678360998
 20
70.30379943049196
 30
0.0
 10
468.1253329414862
 20
70.52862378646387
 30
0.0
 10
468.0325434257513
 20
70.75702874827269
 30
0.0
 10
467.8724055410178
 20
70.90098912604232
 30
0.0
 10
467.6265039016735
 20
70.9571952150353
 30
0.0
  0
LINE
  5
C4
330
5B
100
AcDbEntity
  8
6200002991_5
  6
Continuous
 62
7
100
AcDbLine
 10
467.6265039017
 20
70.957195215
 30
0.0
 11
467.6265039017
 21
72.2920898286
 31
0.0
  0
SPLINE
  5
C5
330
5B
100
AcDbEntity
  8
6200002991_5
  6
Continuous
 62
7
100
AcDbSpline
 70
8
 71
3
 72
41
 73
37
 74
0
 40
0.0
 40
0.0
 40
0.0
 40
0.0
 40
0.0472274361346526
 40
0.0472274361346526
 40
0.0472274361346526
 40
0.0924371905123432
 40
0.0924371905123432
 40
0.137646944890036
 40
0.137646944890036
 40
0.182856699267729
 40
0.182856699267729
 40
0.182856699267729
 40
0.2729485565920683
 40
0.2729485565920683
 40
0.2729485565920683
 40
0.4385776862707538
 40
0.4385776862707538
 40
0.4385776862707538
 40
0.5648332164532633
 40
0.5648332164532633
 40
0.5648332164532633
 40
0.73230649703846
 40
0.73230649703846
 40
0.73230649703846
 40
0.8183442066030067
 40
0.8183442066030067
 40
0.8183442066030067
 40
0.8635546923048844
 40
0.8635546923048844
 40
0.9087651780067616
 40
0.9087651780067616
 40
0.9087651780067616
 40
0.9548666860417913
 40
0.9548666860417913
 40
0.9548666860417913
 40
1.0
 40
1.0
 40
1.0
 40
1.0
 10
467.6265039016735
 20
72.29208982861843
 30
0.0
 10
467.8583540187695
 20
72.29208982861843
 30
0.0
 10
468.0972298969897
 20
72.26398678412194
 30
0.0
 10
468.3571830585822
 20
72.21480645625309
 30
0.0
 10
468.6116365058956
 20
72.16666661486948
 30
0.0
 10
468.8419605761466
 20
72.0883427560189
 30
0.0
 10
469.2494547213457
 20
71.91972448903998
 30
0.0
 10
469.4461760328211
 20
71.80731231105403
 30
0.0
 10
469.8255671335236
 20
71.49817882159266
 30
0.0
 10
469.9871596393784
 20
71.32956055461375
 30
0.0
 10
470.1206491007367
 20
71.14689076538657
 30
0.0
 10
470.4107988074886
 20
70.7498437982525
 30
0.0
 10
470.5913750960529
 20
70.33190247498845
 30
0.0
 10
470.6405554239218
 20
69.8611764796723
 30
0.0
 10
470.6890855050581
 20
69.39667427451016
 30
0.0
 10
470.7178387962871
 20
68.53330762721329
 30
0.0
 10
470.7178387962871
 20
67.2827221471196
 30
0.0
 10
470.7178387962871
 20
66.62698444220156
 30
0.0
 10
470.7178387962871
 20
65.97124673728354
 30
0.0
 10
470.7178387962871
 20
65.31550903236551
 30
0.0
 10
470.7178387962871
 20
64.07897507452007
 30
0.0
 10
470.6897357517906
 20
63.21480645625309
 30
0.0
 10
470.6265039016735
 20
62.70895165531633
 30
0.0
 10
470.5705139899459
 20
62.26103236149539
 30
0.0
 10
470.422756829074
 20
61.84478303704935
 30
0.0
 10
470.1487521452333
 20
61.47241769747089
 30
0.0
 10
470.0113068396208
 20
61.28563305138211
 30
0.0
 10
469.8536701780201
 20
61.11410388014068
 30
0.0
 10
469.4883305995658
 20
60.81902191292756
 30
0.0
 10
469.2845835269663
 20
60.6995839738175
 30
0.0
 10
469.0597591709944
 20
60.60824907920391
 30
0.0
 10
468.8324849268183
 20
60.51591891750736
 30
0.0
 10
468.6101104590506
 20
60.43963081222499
 30
0.0
 10
468.3782603419546
 20
60.38342472323201
 30
0.0
 10
468.1514373306065
 20
60.32843732654158
 30
0.0
 10
467.9215858688867
 20
60.29208982861843
 30
0.0
 10
467.6827099906665
 20
60.29208982861843
 30
0.0
  0
LINE
  5
C6
330
5B
100
AcDbEntity
  8
6200002991_5
  6
Continuous
 62
7
100
AcDbLine
 10
467.6827099907
 20
60.2920898286
 30
0.0
 11
467.6827099907
 21
61.6269844422
 31
0.0
  0
LINE
  5
C7
330
5B
100
AcDbEntity
  8
6200002991_5
  6
Continuous
 62
7
100
AcDbLine
 10
467.1206491007
 20
61.6269844422
 30
0.0
 11
467.1206491007
 21
60.2920898286
 31
0.0
  0
SPLINE
  5
C8
330
5B
100
AcDbEntity
  8
6200002991_5
  6
Continuous
 62
7
100
AcDbSpline
 70
8
 71
3
 72
25
 73
21
 74
0
 40
0.0
 40
0.0
 40
0.0
 40
0.0
 40
0.0606262105881162
 40
0.0606262105881162
 40
0.0606262105881162
 40
0.1260294733926994
 40
0.1260294733926994
 40
0.1260294733926994
 40
0.24971374958254
 40
0.24971374958254
 40
0.3733980257723786
 40
0.3733980257723786
 40
0.3733980257723786
 40
0.5997218943392064
 40
0.5997218943392064
 40
0.5997218943392064
 40
0.7717762608093082
 40
0.7717762608093082
 40
0.7717762608093082
 40
1.0
 40
1.0
 40
1.0
 40
1.0
 10
467.1206491007367
 20
60.29208982861843
 30
0.0
 10
466.8817732225166
 20
60.29208982861843
 30
0.0
 10
466.6499231054206
 20
60.32019287311491
 30
0.0
 10
466.4321245105728
 20
60.36234743985965
 30
0.0
 10
466.2130151919848
 20
60.40475569507024
 30
0.0
 10
465.9754500375049
 20
60.48881114009384
 30
0.0
 10
465.7225226370365
 20
60.59419755695566
 30
0.0
 10
465.2710447328474
 20
60.7823133503678
 30
0.0
 10
464.8864570632661
 20
61.05087203002358
 30
0.0
 10
464.310344651088
 20
61.82370575367698
 30
0.0
 10
464.1417263841091
 20
62.25227718224841
 30
0.0
 10
464.0925460562403
 20
62.73002893868869
 30
0.0
 10
464.0440077142478
 20
63.20154426090195
 30
0.0
 10
464.0152626838749
 20
64.05789779114771
 30
0.0
 10
464.0152626838749
 20
65.31550903236551
 30
0.0
 10
464.0152626838749
 20
65.97124673728354
 30
0.0
 10
464.0152626838749
 20
66.62698444220156
 30
0.0
 10
464.0152626838749
 20
67.2827221471196
 30
0.0
 10
464.0152626838749
 20
68.51925610496504
 30
0.0
 10
464.0433657283714
 20
69.38342472323201
 30
0.0
 10
464.1065975784886
 20
69.88927952416877
 30
0.0
  0
SPLINE
  5
C9
330
5B
100
AcDbEntity
  8
6200002991_5
  6
Continuous
 62
7
100
AcDbSpline
 70
8
 71
3
 72
16
 73
12
 74
0
 40
0.0
 40
0.0
 40
0.0
 40
0.0
 40
0.1593101053829263
 40
0.1593101053829263
 40
0.3186202107658508
 40
0.3186202107658508
 40
0.3186202107658508
 40
0.653065377525711
 40
0.653065377525711
 40
0.653065377525711
 40
1.0
 40
1.0
 40
1.0
 40
1.0
 10
464.1065975784886
 20
69.88927952416877
 30
0.0
 10
464.1065975784886
 20
70.10707811901656
 30
0.0
 10
464.1487521452333
 20
70.3178509527402
 30
0.0
 10
464.303318889964
 20
70.72534509793928
 30
0.0
 10
464.4157310679499
 20
70.92909217053881
 30
0.0
 10
464.5632720515565
 20
71.12581348201422
 30
0.0
 10
464.8423352834066
 20
71.49789779114771
 30
0.0
 10
465.1885647916033
 20
71.8002865499299
 30
0.0
 10
465.6522650257953
 20
71.9899821002812
 30
0.0
 10
466.0883347445576
 20
72.16837425795669
 30
0.0
 10
466.5515624496829
 20
72.29208982861843
 30
0.0
 10
467.0714687728679
 20
72.29208982861843
 30
0.0
  0
LINE
  5
CA
330
5B
100
AcDbEntity
  8
6200002991_5
  6
Continuous
 62
7
100
AcDbLine
 10
467.0714687729
 20
72.2920898286
 30
0.0
 11
467.0714687729
 21
70.957195215
 31
0.0
  0
SPLINE
  5
CB
330
5B
100
AcDbEntity
  8
6200002991_5
  6
Continuous
 62
7
100
AcDbSpline
 70
8
 71
3
 72
8
 73
4
 74
0
 40
0.0
 40
0.0
 40
0.0
 40
0.0
 40
1.0
 40
1.0
 40
1.0
 40
1.0
 10
467.0714687728679
 20
70.9571952150353
 30
0.0
 10
466.9871596393784
 20
70.93611793166293
 30
0.0
 10
466.9239277892613
 20
70.90801488716644
 30
0.0
 10
466.8817732225166
 20
70.87991184266996
 30
0.0
  0
SPLINE
  5
CC
330
5B
100
AcDbEntity
  8
6200002991_5
  6
Continuous
 62
7
100
AcDbSpline
 70
8
 71
3
 72
22
 73
18
 74
0
 40
0.0
 40
0.0
 40
0.0
 40
0.0
 40
0.0395955635717838
 40
0.0395955635717838
 40
0.0395955635717838
 40
0.1820525322618042
 40
0.1820525322618042
 40
0.1820525322618042
 40
0.7666416443887255
 40
0.7666416443887255
 40
0.7666416443887255
 40
0.9159885202543528
 40
0.9159885202543528
 40
0.9159885202543528
 40
0.9563140305322658
 40
0.9563140305322658
 40
1.0
 40
1.0
 40
1.0
 40
1.0
 10
466.8817732225166
 20
70.87991184266996
 30
0.0
 10
466.8396186557719
 20
70.84478303704934
 30
0.0
 10
466.7623352834066
 20
70.74642238131163
 30
0.0
 10
466.6499231054206
 20
70.57780411433272
 30
0.0
 10
466.535349154781
 20
70.40594318837343
 30
0.0
 10
466.4742790773175
 20
69.95953713541
 30
0.0
 10
466.4742790773175
 20
69.22885797850134
 30
0.0
 10
466.4742790773175
 20
67.35063783798611
 30
0.0
 10
466.4742790773175
 20
65.47241769747089
 30
0.0
 10
466.4742790773175
 20
63.59419755695567
 30
0.0
 10
466.4742790773175
 20
62.79326078880579
 30
0.0
 10
466.5094078829381
 20
62.3155090323655
 30
0.0
 10
466.5656139719312
 20
62.16094228763482
 30
0.0
 10
466.6226405877707
 20
62.00411909407596
 30
0.0
 10
466.7061291944136
 20
61.87991184266995
 30
0.0
 10
466.8817732225166
 20
61.7042678145669
 30
0.0
 10
466.9871596393784
 20
61.64806172557393
 30
0.0
 10
467.1206491007367
 20
61.62698444220157
 30
0.0
  0
LINE
  5
CD
330
5B
100
AcDbEntity
  8
6200002991_5
  6
Continuous
 62
7
100
AcDbLine
 10
401.9215858689
 20
72.1304973228
 30
0.0
 11
401.9215858689
 21
60.5098884235
 31
0.0
  0
LINE
  5
CE
330
5B
100
AcDbEntity
  8
6200002991_5
  6
Continuous
 62
7
100
AcDbLine
 10
401.9215858689
 20
60.5098884235
 30
0.0
 11
399.4555437143
 21
60.5098884235
 31
0.0
  0
LINE
  5
CF
330
5B
100
AcDbEntity
  8
6200002991_5
  6
Continuous
 62
7
100
AcDbLine
 10
399.4555437143
 20
60.5098884235
 30
0.0
 11
399.4555437143
 21
72.1304973228
 31
0.0
  0
LINE
  5
D0
330
5B
100
AcDbEntity
  8
6200002991_5
  6
Continuous
 62
7
100
AcDbLine
 10
399.4555437143
 20
72.1304973228
 30
0.0
 11
401.9215858689
 21
72.1304973228
 31
0.0
  0
ENDBLK
  5
D1
330
5B
100
AcDbEntity
  8
0
100
AcDbBlockEnd
  0
ENDSEC
  0
SECTION
  2
ENTITIES
  0
LINE
  5
10027
330
1F
100
AcDbEntity
  8
InnerContour
  6
Continuous
 62
2
100
AcDbLine
 10
26.511709601899952
 20
13.887927400500004
 30
0.0
 11
26.511709601899952
 21
15.250925058500002
 31
0.0
  0
SPLINE
  5
10028
330
1F
100
AcDbEntity
  8
InnerContour
  6
Continuous
 62
2
100
AcDbSpline
 70
8
 71
3
 72
32
 73
28
 74
0
 40
0.0
 40
0.0
 40
0.0
 40
0.0
 40
0.0767292189618942
 40
0.0767292189618942
 40
0.0767292189618942
 40
0.1621023515642115
 40
0.1621023515642115
 40
0.1621023515642115
 40
0.2574026842977408
 40
0.2574026842977408
 40
0.2574026842977408
 40
0.3586993936810259
 40
0.3586993936810259
 40
0.4799233245823346
 40
0.4799233245823346
 40
0.601147255483643
 40
0.601147255483643
 40
0.7446368063464158
 40
0.7446368063464158
 40
0.7446368063464158
 40
0.8535345520750885
 40
0.8535345520750885
 40
0.8535345520750885
 40
0.9240211295714166
 40
0.9240211295714166
 40
0.9240211295714166
 40
1.0
 40
1.0
 40
1.0
 40
1.0
 10
26.511709601919847
 20
15.250925058545832
 30
0.0
 10
26.834894613629444
 20
15.29307962529056
 30
0.0
 10
27.094847775221922
 20
15.370362997655903
 30
0.0
 10
27.284543325573225
 20
15.475749414517736
 30
0.0
 10
27.52375060762006
 20
15.608642348988155
 30
0.0
 10
27.685011709648165
 20
15.855140515220306
 30
0.0
 10
27.762295082013566
 20
16.2064285714264
 30
0.0
 10
27.83810414357447
 20
16.551015214885332
 30
0.0
 10
27.89578454337186
 20
16.88090163934207
 30
0.0
 10
27.93091334899242
 20
17.19706088992757
 30
0.0
 10
27.96458559437997
 20
17.5001110984156
 30
0.0
 10
27.987119437985427
 20
17.871533957843255
 30
0.0
 10
27.987119437985427
 20
18.81298594847557
 30
0.0
 10
27.987119437985427
 20
19.28371194379173
 30
0.0
 10
27.987119437985427
 20
20.14085480093459
 30
0.0
 10
27.987119437985427
 20
20.53429742388542
 30
0.0
 10
27.987119437985427
 20
21.286053864166448
 30
0.0
 10
27.966042154613035
 20
21.770831381730844
 30
0.0
 10
27.916861826744253
 20
22.332892271660583
 30
0.0
 10
27.86834496430015
 20
22.887370699592523
 30
0.0
 10
27.825526932130572
 20
23.267318501168774
 30
0.0
 10
27.76932084313762
 20
23.471065573768314
 30
0.0
 10
27.715412682644967
 20
23.66648265555439
 30
0.0
 10
27.558548009413926
 20
23.850456674470905
 30
0.0
 10
27.291569086697336
 20
24.019074941449816
 30
0.0
 10
27.13666844440837
 20
24.11690692605343
 30
0.0
 10
26.877049180374172
 20
24.15959016393225
 30
0.0
 10
26.511709601919847
 20
24.15959016393225
 30
0.0
  0
LINE
  5
10029
330
1F
100
AcDbEntity
  8
InnerContour
  6
Continuous
 62
2
100
AcDbLine
 10
26.511709601899952
 20
24.159590163900006
 30
0.0
 11
26.511709601899952
 21
25.5085362998
 31
0.0
  0
SPLINE
  5
1002A
330
1F
100
AcDbEntity
  8
InnerContour
  6
Continuous
 62
2
100
AcDbSpline
 70
8
 71
3
 72
47
 73
43
 74
0
 40
0.0
 40
0.0
 40
0.0
 40
0.0
 40
0.0572490204446905
 40
0.0572490204446905
 40
0.1144980408893786
 40
0.1144980408893786
 40
0.1144980408893786
 40
0.1553375492524585
 40
0.1553375492524585
 40
0.1553375492524585
 40
0.1941091789292768
 40
0.1941091789292768
 40
0.1941091789292768
 40
0.2271981451960099
 40
0.2271981451960099
 40
0.2271981451960099
 40
0.2683198114639101
 40
0.2683198114639101
 40
0.2683198114639101
 40
0.3668687071833111
 40
0.3668687071833111
 40
0.3668687071833111
 40
0.5022561109540309
 40
0.5022561109540309
 40
0.7515207702328324
 40
0.7515207702328324
 40
0.7515207702328324
 40
0.8119160464019305
 40
0.8119160464019305
 40
0.8119160464019305
 40
0.8423965364932717
 40
0.8423965364932717
 40
0.8423965364932717
 40
0.8754235260842165
 40
0.8754235260842165
 40
0.8754235260842165
 40
0.917176663876019
 40
0.917176663876019
 40
0.9589298016678216
 40
0.9589298016678216
 40
0.9589298016678216
 40
1.0
 40
1.0
 40
1.0
 40
1.0
 10
26.511709601919847
 20
25.508536299763634
 30
0.0
 10
27.017564402856635
 20
25.508536299763634
 30
0.0
 10
27.396955503559127
 20
25.494484777515396
 30
0.0
 10
27.93091334899242
 20
25.438278688522416
 30
0.0
 10
28.183840749460842
 20
25.39612412177769
 30
0.0
 10
28.415690866556872
 20
25.325866510536457
 30
0.0
 10
28.653975848130756
 20
25.253658940362556
 30
0.0
 10
28.85831381737654
 20
25.164274004681673
 30
0.0
 10
29.040983606603618
 20
25.051861826695713
 30
0.0
 10
29.226789357877635
 20
24.937519825911735
 30
0.0
 10
29.385245901685664
 20
24.791908665103207
 30
0.0
 10
29.525761124168127
 20
24.623290398124283
 30
0.0
 10
29.662821054294454
 20
24.458818481972713
 30
0.0
 10
29.778688524636436
 20
24.30713114753881
 30
0.0
 10
29.848946135877725
 20
24.17364168618049
 30
0.0
 10
29.922099397039972
 20
24.03465048997228
 30
0.0
 10
29.98243559723602
 20
23.815327868850275
 30
0.0
 10
30.038641686229028
 20
23.51322014051304
 30
0.0
 10
30.094612726235027
 20
23.2123758004804
 30
0.0
 10
30.144028103090818
 20
22.663103044494306
 30
0.0
 10
30.193208430959658
 20
21.86919203746855
 30
0.0
 10
30.24198205616392
 20
21.081846373456116
 30
0.0
 10
30.270491803325058
 20
20.309473067913515
 30
0.0
 10
30.270491803325058
 20
18.17364168618049
 30
0.0
 10
30.165105386463154
 20
16.803618266976756
 30
0.0
 10
29.940281030491235
 20
15.44062060889712
 30
0.0
 10
29.888209709141734
 20
15.124938223215672
 30
0.0
 10
29.736533957891766
 20
14.82937939109852
 30
0.0
 10
29.49063231854757
 20
14.54834894613365
 30
0.0
 10
29.39575345593323
 20
14.4399159602888
 30
0.0
 10
29.265807962575536
 20
14.330550351285886
 30
0.0
 10
29.097189695596626
 20
14.225163934424053
 30
0.0
 10
28.92541378316872
 20
14.11780398915657
 30
0.0
 10
28.75995316163886
 20
14.04249414519689
 30
0.0
 10
28.591334894659838
 20
14.007365339576275
 30
0.0
 10
28.414580305314246
 20
13.970541466795936
 30
0.0
 10
28.24004683845385
 20
13.93710772833505
 30
0.0
 10
27.860655737751244
 20
13.89495316159033
 30
0.0
 10
27.579625292786318
 20
13.887927400466204
 30
0.0
 10
27.20023419208377
 20
13.887927400466204
 30
0.0
 10
26.970725995362557
 20
13.887927400466204
 30
0.0
 10
26.741217798641173
 20
13.887927400466204
 30
0.0
 10
26.511709601919847
 20
13.887927400466204
 30
0.0
  0
LINE
  5
10037
330
1F
100
AcDbEntity
  8
InnerContour
  6
Continuous
 62
2
100
AcDbLine
 10
43.61241217799994
 20
25.5085362998
 30
0.0
 11
43.61241217799994
 21
13.887927400500004
 31
0.0
  0
LINE
  5
10038
330
1F
100
AcDbEntity
  8
InnerContour
  6
Continuous
 62
2
100
AcDbLine
 10
43.61241217799994
 20
13.887927400500004
 30
0.0
 11
41.29391100709995
 21
13.887927400500004
 31
0.0
  0
SPLINE
  5
10039
330
1F
100
AcDbEntity
  8
InnerContour
  6
Continuous
 62
2
100
AcDbSpline
 70
8
 71
3
 72
22
 73
18
 74
0
 40
0.0
 40
0.0
 40
0.0
 40
0.0
 40
0.6650737710456702
 40
0.6650737710456702
 40
0.6650737710456702
 40
0.731148630980989
 40
0.731148630980989
 40
0.7972234909163084
 40
0.7972234909163084
 40
0.7972234909163084
 40
0.8548649882610907
 40
0.8548649882610907
 40
0.8548649882610907
 40
0.9664691804287758
 40
0.9664691804287758
 40
0.9664691804287758
 40
1.0
 40
1.0
 40
1.0
 40
1.0
 10
41.293911007072154
 20
13.887927400466204
 30
0.0
 10
41.293911007072154
 20
16.16661592505637
 30
0.0
 10
41.293911007072154
 20
18.445304449646528
 30
0.0
 10
41.293911007072154
 20
20.723992974236694
 30
0.0
 10
41.293911007072154
 20
21.17364168618049
 30
0.0
 10
41.27283372369976
 20
21.482775175641848
 30
0.0
 10
41.174473067962026
 20
21.805960187351445
 30
0.0
 10
41.12529274009313
 20
21.93944964870977
 30
0.0
 10
41.06206088997607
 20
22.0448360655716
 30
0.0
 10
40.95977407361016
 20
22.215314092848075
 30
0.0
 10
40.809133489507644
 20
22.339918032784723
 30
0.0
 10
40.61943793915634
 20
22.424227166274164
 30
0.0
 10
40.36064366599675
 20
22.53924684323401
 30
0.0
 10
39.98711943798537
 20
22.62094847774958
 30
0.0
 10
39.50234192042103
 20
22.663103044494306
 30
0.0
 10
39.418665500878944
 20
22.670379254889284
 30
0.0
 10
39.305620608945674
 20
22.663103044494306
 30
0.0
 10
39.15807962533904
 20
22.67715456674256
 30
0.0
  0
LINE
  5
1003A
330
1F
100
AcDbEntity
  8
InnerContour
  6
Continuous
 62
2
100
AcDbLine
 10
39.15807962529993
 20
22.677154566699997
 30
0.0
 11
39.15807962529993
 21
23.604555035100006
 31
0.0
  0
SPLINE
  5
1003B
330
1F
100
AcDbEntity
  8
InnerContour
  6
Continuous
 62
2
100
AcDbSpline
 70
8
 71
3
 72
11
 73
7
 74
0
 40
0.0
 40
0.0
 40
0.0
 40
0.0
 40
0.6332571830781567
 40
0.6332571830781567
 40
0.6332571830781567
 40
1.0
 40
1.0
 40
1.0
 40
1.0
 10
39.15807962533904
 20
23.604555035126637
 30
0.0
 10
40.029274004730155
 20
23.709941451988456
 30
0.0
 10
40.66861826702524
 20
23.976920374705088
 30
0.0
 10
41.07611241222435
 20
24.419543325524756
 30
0.0
 10
41.294780005481925
 20
24.657061573373582
 30
0.0
 10
41.48360655742334
 20
25.01673302107511
 30
0.0
 10
41.63114754102992
 20
25.508536299763634
 30
0.0
  0
LINE
  5
1003C
330
1F
100
AcDbEntity
  8
InnerContour
  6
Continuous
 62
2
100
AcDbLine
 10
41.63114754099996
 20
25.5085362998
 30
0.0
 11
43.61241217799994
 21
25.5085362998
 31
0.0
  0
SPLINE
  5
10043
330
1F
100
AcDbEntity
  8
InnerContour
  6
Continuous
 62
2
100
AcDbSpline
 70
8
 71
3
 72
34
 73
30
 74
0
 40
0.0
 40
0.0
 40
0.0
 40
0.0
 40
0.0717897942000687
 40
0.0717897942000687
 40
0.0717897942000687
 40
0.127283636052746
 40
0.127283636052746
 40
0.270755519866995
 40
0.270755519866995
 40
0.270755519866995
 40
0.4602431452162598
 40
0.4602431452162598
 40
0.4602431452162598
 40
0.5904938382406386
 40
0.5904938382406386
 40
0.5904938382406386
 40
0.7221497575925878
 40
0.7221497575925878
 40
0.7221497575925878
 40
0.8067198776940668
 40
0.8067198776940668
 40
0.8067198776940668
 40
0.8954419257030151
 40
0.8954419257030151
 40
0.8954419257030151
 40
0.949738457566183
 40
0.949738457566183
 40
0.949738457566183
 40
1.0
 40
1.0
 40
1.0
 40
1.0
 10
48.305620608945674
 20
21.553032786883065
 30
0.0
 10
48.55152224828987
 20
21.798934426227333
 30
0.0
 10
48.818501171006574
 20
21.981604215454496
 30
0.0
 10
49.11358313821967
 20
22.094016393440455
 30
0.0
 10
49.41480047306783
 20
22.208765854335027
 30
0.0
 10
49.710772833769965
 20
22.262634660419366
 30
0.0
 10
50.743559719015934
 20
22.262634660419366
 30
0.0
 10
51.291569086697336
 20
22.058887587819825
 30
0.0
 10
51.64988290402755
 20
21.665444964869025
 30
0.0
 10
52.01487958321144
 20
21.26466429752989
 30
0.0
 10
52.190866510584954
 20
20.435936768147712
 30
0.0
 10
52.190866510584954
 20
19.185351288054022
 30
0.0
 10
52.190866510584954
 20
18.59284543325309
 30
0.0
 10
52.190866510584954
 20
18.000339578452156
 30
0.0
 10
52.190866510584954
 20
17.407833723651223
 30
0.0
 10
52.190866510584954
 20
16.599871194377215
 30
0.0
 10
52.15573770496434
 20
16.002681498826874
 30
0.0
 10
52.08548009372316
 20
15.616264637000164
 30
0.0
 10
52.01499765812582
 20
15.228611241215624
 30
0.0
 10
51.85362997662713
 20
14.8855854800915
 30
0.0
 10
51.60070257615877
 20
14.583477751754266
 30
0.0
 10
51.357023713386354
 20
14.292416887887235
 30
0.0
 10
51.03161592510486
 20
14.056545667445135
 30
0.0
 10
50.62412177990586
 20
13.887927400466204
 30
0.0
 10
50.42885554992205
 20
13.807127581162604
 30
0.0
 10
50.18852459021025
 20
13.754437939107895
 30
0.0
 10
49.90749414524532
 20
13.705257611239041
 30
0.0
 10
49.63447366444876
 20
13.657479027099626
 30
0.0
 10
49.401639344308535
 20
13.634999999997824
 30
0.0
 10
49.22599531620557
 20
13.634999999997824
 30
0.0
  0
LINE
  5
10044
330
1F
100
AcDbEntity
  8
InnerContour
  6
Continuous
 62
2
100
AcDbLine
 10
49.22599531619994
 20
13.635000000000005
 30
0.0
 11
49.22599531619994
 21
14.815327868900006
 31
0.0
  0
SPLINE
  5
10045
330
1F
100
AcDbEntity
  8
InnerContour
  6
Continuous
 62
2
100
AcDbSpline
 70
8
 71
3
 72
34
 73
30
 74
0
 40
0.0
 40
0.0
 40
0.0
 40
0.0
 40
0.0302251274604584
 40
0.0302251274604584
 40
0.0302251274604584
 40
0.0630802001458228
 40
0.0630802001458228
 40
0.0630802001458228
 40
0.1008633141639944
 40
0.1008633141639944
 40
0.1386464281821686
 40
0.1386464281821686
 40
0.1386464281821686
 40
0.3349608747973676
 40
0.3349608747973676
 40
0.6468623320364691
 40
0.6468623320364691
 40
0.6468623320364691
 40
0.7370189527003747
 40
0.7370189527003747
 40
0.7370189527003747
 40
0.7979295790835479
 40
0.7979295790835479
 40
0.7979295790835479
 40
0.9182095915338163
 40
0.9182095915338163
 40
0.9591047957669073
 40
0.9591047957669073
 40
1.0
 40
1.0
 40
1.0
 40
1.0
 10
49.22599531620557
 20
14.815327868850282
 30
0.0
 10
49.30327868857097
 20
14.836405152222646
 30
0.0
 10
49.373536299812145
 20
14.85748243559501
 30
0.0
 10
49.44379391105332
 20
14.892611241215626
 30
0.0
 10
49.51124121784483
 20
14.926334894611415
 30
0.0
 10
49.57728337241167
 20
14.976920374705081
 30
0.0
 10
49.640515222528734
 20
15.047177985946306
 30
0.0
 10
49.70060294750192
 20
15.113942124805355
 30
0.0
 10
49.752927400514636
 20
15.201744730676985
 30
0.0
 10
49.83723653400426
 20
15.370362997655903
 30
0.0
 10
49.86533957850065
 20
15.461697892269491
 30
0.0
 10
49.872365339624764
 20
15.56708430913131
 30
0.0
 10
49.90562889892914
 20
16.06603769869836
 30
0.0
 10
49.872365339624764
 20
16.56942622950602
 30
0.0
 10
49.872365339624764
 20
17.866850117093833
 30
0.0
 10
49.872365339624764
 20
18.663103044494306
 30
0.0
 10
49.872365339624764
 20
19.45935597189478
 30
0.0
 10
49.872365339624764
 20
19.74038641685965
 30
0.0
 10
49.85831381737643
 20
19.972236533955666
 30
0.0
 10
49.83021077288004
 20
20.147880562058702
 30
0.0
 10
49.80083629579326
 20
20.33147104385128
 30
0.0
 10
49.752927400514636
 20
20.471065573768314
 30
0.0
 10
49.68969555039763
 20
20.590503512878385
 30
0.0
 10
49.585277549258365
 20
20.787737515030415
 30
0.0
 10
49.359484777563864
 20
20.885585480091507
 30
0.0
 10
48.88875878224775
 20
20.885585480091507
 30
0.0
 10
48.76932084313762
 20
20.86450819671913
 30
0.0
 10
48.516393442669255
 20
20.780199063229688
 30
0.0
 10
48.40398126468335
 20
20.716967213112582
 30
0.0
 10
48.305620608945674
 20
20.625632318498987
 30
0.0
  0
LINE
  5
10046
330
1F
100
AcDbEntity
  8
InnerContour
  6
Continuous
 62
2
100
AcDbLine
 10
48.30562060889997
 20
20.625632318499996
 30
0.0
 11
48.30562060889997
 21
21.553032786900005
 31
0.0
  0
SPLINE
  5
10047
330
1F
100
AcDbEntity
  8
InnerContour
  6
Continuous
 62
2
100
AcDbSpline
 70
8
 71
3
 72
16
 73
12
 74
0
 40
0.0
 40
0.0
 40
0.0
 40
0.0
 40
0.1145763515028584
 40
0.1145763515028584
 40
0.1145763515028584
 40
0.4802635597003858
 40
0.4802635597003858
 40
0.8459507678979162
 40
0.8459507678979162
 40
0.8459507678979162
 40
1.0
 40
1.0
 40
1.0
 40
1.0
 10
47.87704918037423
 20
17.745070257609058
 30
0.0
 10
47.87704918037417
 20
17.618606557374875
 30
0.0
 10
47.87704918037417
 20
17.492142857140678
 30
0.0
 10
47.87704918037417
 20
17.365679156906495
 30
0.0
 10
47.87704918037417
 20
16.536639344260124
 30
0.0
 10
47.90515222487062
 20
15.97457845433037
 30
0.0
 10
48.003512880608355
 20
15.370362997655903
 30
0.0
 10
48.09484777522192
 20
15.152564402808125
 30
0.0
 10
48.22833723658027
 20
15.01204918032569
 30
0.0
 10
48.35498558231052
 20
14.878735132188616
 30
0.0
 10
48.50234192042103
 20
14.80127634660203
 30
0.0
 10
48.67096018739994
 20
14.780199063229674
 30
0.0
  0
LINE
  5
10048
330
1F
100
AcDbEntity
  8
InnerContour
  6
Continuous
 62
2
100
AcDbLine
 10
48.67096018739994
 20
14.780199063200001
 30
0.0
 11
48.67096018739994
 21
13.635000000000005
 31
0.0
  0
SPLINE
  5
10049
330
1F
100
AcDbEntity
  8
InnerContour
  6
Continuous
 62
2
100
AcDbSpline
 70
8
 71
3
 72
20
 73
16
 74
0
 40
0.0
 40
0.0
 40
0.0
 40
0.0
 40
0.142897711114418
 40
0.142897711114418
 40
0.142897711114418
 40
0.2874608433297991
 40
0.2874608433297991
 40
0.2874608433297991
 40
0.5451120701220319
 40
0.5451120701220319
 40
0.5451120701220319
 40
0.9519416635638996
 40
0.9519416635638996
 40
0.9519416635638996
 40
1.0
 40
1.0
 40
1.0
 40
1.0
 10
48.67096018739994
 20
13.634999999997824
 30
0.0
 10
48.37587822018685
 20
13.634999999997824
 30
0.0
 10
48.09484777522192
 20
13.670128805618432
 30
0.0
 10
47.82084309138122
 20
13.726334894611405
 30
0.0
 10
47.54545541859994
 20
13.782824673643454
 30
0.0
 10
47.27283372369976
 20
13.887927400466204
 30
0.0
 10
47.00585480098306
 20
14.0143911007004
 30
0.0
 10
46.483071412722325
 20
14.26202533724495
 30
0.0
 10
46.12060889934372
 20
14.604555035126623
 30
0.0
 10
45.91686182674425
 20
15.06122950819455
 30
0.0
 10
45.67852681840924
 20
15.595428664807343
 30
0.0
 10
45.55854800941404
 20
16.39612412177768
 30
0.0
 10
45.55854800941404
 20
17.457014051520076
 30
0.0
 10
45.55854800941404
 20
17.553032786883065
 30
0.0
 10
45.55854800941404
 20
17.64905152224607
 30
0.0
 10
45.55854800941404
 20
17.745070257609058
 30
0.0
  0
LINE
  5
1004A
330
1F
100
AcDbEntity
  8
InnerContour
  6
Continuous
 62
2
100
AcDbLine
 10
45.55854800939994
 20
17.745070257600005
 30
0.0
 11
47.87704918039992
 21
17.745070257600005
 31
0.0
  0
LINE
  5
10053
330
1F
100
AcDbEntity
  8
InnerContour
  6
Continuous
 62
2
100
AcDbLine
 10
67.13466042159996
 20
13.887927400500004
 30
0.0
 11
67.13466042159996
 21
15.250925058500002
 31
0.0
  0
SPLINE
  5
10054
330
1F
100
AcDbEntity
  8
InnerContour
  6
Continuous
 62
2
100
AcDbSpline
 70
8
 71
3
 72
32
 73
28
 74
0
 40
0.0
 40
0.0
 40
0.0
 40
0.0
 40
0.0767223672749169
 40
0.0767223672749169
 40
0.0767223672749169
 40
0.1620878763149354
 40
0.1620878763149354
 40
0.1620878763149354
 40
0.2573796990172456
 40
0.2573796990172456
 40
0.2573796990172456
 40
0.3586673629110292
 40
0.3586673629110292
 40
0.4798804688822782
 40
0.4798804688822782
 40
0.6010935748535271
 40
0.6010935748535271
 40
0.7445703125337808
 40
0.7445703125337808
 40
0.7445703125337808
 40
0.853428448408804
 40
0.853428448408804
 40
0.853428448408804
 40
0.9240279142545419
 40
0.9240279142545419
 40
0.9240279142545419
 40
1.0
 40
1.0
 40
1.0
 40
1.0
 10
67.13466042159206
 20
15.250925058545832
 30
0.0
 10
67.45784543330166
 20
15.29307962529056
 30
0.0
 10
67.71779859489402
 20
15.370362997655903
 30
0.0
 10
67.90749414524532
 20
15.475749414517736
 30
0.0
 10
68.14670142729216
 20
15.608642348988155
 30
0.0
 10
68.30796252932032
 20
15.855140515220306
 30
0.0
 10
68.38524590168566
 20
16.2064285714264
 30
0.0
 10
68.46105496324662
 20
16.551015214885325
 30
0.0
 10
68.51873536304407
 20
16.88090163934207
 30
0.0
 10
68.55386416866463
 20
17.19706088992757
 30
0.0
 10
68.58753641405212
 20
17.5001110984156
 30
0.0
 10
68.61007025765753
 20
17.871533957843255
 30
0.0
 10
68.61007025765753
 20
18.81298594847557
 30
0.0
 10
68.61007025765753
 20
19.28371194379173
 30
0.0
 10
68.61007025765753
 20
20.14085480093459
 30
0.0
 10
68.61007025765753
 20
20.53429742388542
 30
0.0
 10
68.61007025765753
 20
21.286053864166448
 30
0.0
 10
68.58899297428513
 20
21.770831381730844
 30
0.0
 10
68.53981264641635
 20
22.332892271660583
 30
0.0
 10
68.49129578397236
 20
22.887370699592523
 30
0.0
 10
68.44145199067867
 20
23.267318501168774
 30
0.0
 10
68.39227166280972
 20
23.471065573768314
 30
0.0
 10
68.34469384000636
 20
23.668173696811238
 30
0.0
 10
68.18149882908602
 20
23.850456674470905
 30
0.0
 10
67.91451990636943
 20
24.019074941449816
 30
0.0
 10
67.75961926408047
 20
24.11690692605343
 30
0.0
 10
67.50000000004633
 20
24.15959016393225
 30
0.0
 10
67.13466042159206
 20
24.15959016393225
 30
0.0
  0
LINE
  5
10055
330
1F
100
AcDbEntity
  8
InnerContour
  6
Continuous
 62
2
100
AcDbLine
 10
67.13466042159996
 20
24.159590163900006
 30
0.0
 11
67.13466042159996
 21
25.5085362998
 31
0.0
  0
SPLINE
  5
10056
330
1F
100
AcDbEntity
  8
InnerContour
  6
Continuous
 62
2
100
AcDbSpline
 70
8
 71
3
 72
48
 73
44
 74
0
 40
0.0
 40
0.0
 40
0.0
 40
0.0
 40
0.0572490301732139
 40
0.0572490301732139
 40
0.1144980603464279
 40
0.1144980603464279
 40
0.1144980603464279
 40
0.1553375756495068
 40
0.1553375756495068
 40
0.1553375756495068
 40
0.1941092119149219
 40
0.1941092119149219
 40
0.1941092119149219
 40
0.2271981838045774
 40
0.2271981838045774
 40
0.2271981838045774
 40
0.2683198570604247
 40
0.2683198570604247
 40
0.2683198570604247
 40
0.3668687695265805
 40
0.3668687695265805
 40
0.3668687695265805
 40
0.5022561963041507
 40
0.5022561963041507
 40
0.7515208979413582
 40
0.7515208979413582
 40
0.7515208979413582
 40
0.8119161843736346
 40
0.8119161843736346
 40
0.8119161843736346
 40
0.8423966796446313
 40
0.8423966796446313
 40
0.8423966796446313
 40
0.8754236748479659
 40
0.8754236748479659
 40
0.8754236748479659
 40
0.9081634056738861
 40
0.9081634056738861
 40
0.9081634056738861
 40
0.9589262236482213
 40
0.9589262236482213
 40
0.9589262236482213
 40
1.0
 40
1.0
 40
1.0
 40
1.0
 10
67.13466042159206
 20
25.508536299763634
 30
0.0
 10
67.64051522252873
 20
25.508536299763634
 30
0.0
 10
68.01990632323123
 20
25.494484777515396
 30
0.0
 10
68.55386416866463
 20
25.438278688522416
 30
0.0
 10
68.80679156913294
 20
25.39612412177769
 30
0.0
 10
69.03864168622897
 20
25.325866510536457
 30
0.0
 10
69.27692666780285
 20
25.25365894036257
 30
0.0
 10
69.48126463704864
 20
25.164274004681673
 30
0.0
 10
69.66393442627583
 20
25.051861826695713
 30
0.0
 10
69.84974017754973
 20
24.937519825911735
 30
0.0
 10
70.00819672135776
 20
24.791908665103207
 30
0.0
 10
70.14871194384023
 20
24.623290398124283
 30
0.0
 10
70.28577187396655
 20
24.458818481972713
 30
0.0
 10
70.40163934430853
 20
24.30713114753881
 30
0.0
 10
70.47189695554982
 20
24.17364168618049
 30
0.0
 10
70.54505021671207
 20
24.03465048997228
 30
0.0
 10
70.60538641690812
 20
23.815327868850275
 30
0.0
 10
70.66159250590113
 20
23.51322014051304
 30
0.0
 10
70.71756354590713
 20
23.2123758004804
 30
0.0
 10
70.76697892276297
 20
22.663103044494306
 30
0.0
 10
70.81615925063187
 20
21.86919203746855
 30
0.0
 10
70.86493287583613
 20
21.081846373456116
 30
0.0
 10
70.89344262299716
 20
20.309473067913515
 30
0.0
 10
70.89344262299716
 20
18.17364168618049
 30
0.0
 10
70.78805620613525
 20
16.803618266976756
 30
0.0
 10
70.56323185016333
 20
15.44062060889712
 30
0.0
 10
70.51116052881383
 20
15.124938223215672
 30
0.0
 10
70.35948477756386
 20
14.82937939109852
 30
0.0
 10
70.11358313821967
 20
14.54834894613365
 30
0.0
 10
70.01870427560533
 20
14.4399159602888
 30
0.0
 10
69.88875878224763
 20
14.330550351285886
 30
0.0
 10
69.72014051526872
 20
14.225163934424053
 30
0.0
 10
69.54836460284082
 20
14.11780398915657
 30
0.0
 10
69.38290398131096
 20
14.04249414519689
 30
0.0
 10
69.21428571433205
 20
14.007365339576275
 30
0.0
 10
69.03753112498646
 20
13.970541466795936
 30
0.0
 10
68.85597189700184
 20
13.93710772833505
 30
0.0
 10
68.67330210777476
 20
13.9160304449627
 30
0.0
 10
68.48369886669366
 20
13.894153147914885
 30
0.0
 10
68.20257611245853
 20
13.887927400466204
 30
0.0
 10
67.82318501175587
 20
13.887927400466204
 30
0.0
 10
67.59367681503466
 20
13.887927400466204
 30
0.0
 10
67.36416861831333
 20
13.887927400466204
 30
0.0
 10
67.13466042159206
 20
13.887927400466204
 30
0.0
  0
SPLINE
  5
10063
330
1F
100
AcDbEntity
  8
InnerContour
  6
Continuous
 62
2
100
AcDbSpline
 70
8
 71
3
 72
17
 73
13
 74
0
 40
0.0
 40
0.0
 40
0.0
 40
0.0
 40
0.2931083168563082
 40
0.2931083168563082
 40
0.2931083168563082
 40
0.5048476921271943
 40
0.5048476921271943
 40
0.5048476921271943
 40
0.7400950862858977
 40
0.7400950862858977
 40
0.7400950862858977
 40
1.0
 40
1.0
 40
1.0
 40
1.0
 10
80.13934426234147
 20
22.094016393440455
 30
0.0
 10
80.13934426234147
 20
22.761463700232014
 30
0.0
 10
80.17447306796203
 20
23.274344262292914
 30
0.0
 10
80.23770491807903
 20
23.63968384074724
 30
0.0
 10
80.29996047751217
 20
23.99938262858271
 30
0.0
 10
80.45550351292684
 20
24.342259953159413
 30
0.0
 10
80.68032786889887
 20
24.6584192037449
 30
0.0
 10
80.90751181142076
 20
24.977896622916376
 30
0.0
 10
81.22833723658033
 20
25.23453161592289
 30
0.0
 10
81.64285714290344
 20
25.424227166274164
 30
0.0
 10
82.06052779435782
 20
25.615364583041426
 30
0.0
 10
82.50702576117044
 20
25.705257611239034
 30
0.0
 10
82.97775175648667
 20
25.705257611239034
 30
0.0
  0
LINE
  5
10064
330
1F
100
AcDbEntity
  8
InnerContour
  6
Continuous
 62
2
100
AcDbLine
 10
82.97775175649997
 20
25.705257611199997
 30
0.0
 11
82.97775175649997
 21
24.54600702580001
 31
0.0
  0
SPLINE
  5
10065
330
1F
100
AcDbEntity
  8
InnerContour
  6
Continuous
 62
2
100
AcDbSpline
 70
8
 71
3
 72
17
 73
13
 74
0
 40
0.0
 40
0.0
 40
0.0
 40
0.0
 40
0.2667908660008752
 40
0.2667908660008752
 40
0.2667908660008752
 40
0.4565541955748608
 40
0.4565541955748608
 40
0.4565541955748608
 40
0.7390072918803431
 40
0.7390072918803431
 40
0.7390072918803431
 40
1.0
 40
1.0
 40
1.0
 40
1.0
 10
82.97775175648667
 20
24.54600702575894
 30
0.0
 10
82.75995316163886
 20
24.517903981262464
 30
0.0
 10
82.55620608903934
 20
24.384414519904155
 30
0.0
 10
82.37353629981214
 20
24.13148711943576
 30
0.0
 10
82.30183933385786
 20
24.03221439734523
 30
0.0
 10
82.25409836070207
 20
23.857482435595017
 30
0.0
 10
82.20491803283323
 20
23.625632318499
 30
0.0
 10
82.15431156188907
 20
23.387058955476647
 30
0.0
 10
82.13466042159206
 20
23.11977751756224
 30
0.0
 10
82.13466042159206
 20
22.83172131147323
 30
0.0
 10
82.13466042159206
 20
22.585819672128963
 30
0.0
 10
82.13466042159206
 20
22.339918032784723
 30
0.0
 10
82.13466042159206
 20
22.094016393440455
 30
0.0
  0
LINE
  5
10066
330
1F
100
AcDbEntity
  8
InnerContour
  6
Continuous
 62
2
100
AcDbLine
 10
82.13466042159996
 20
22.094016393399997
 30
0.0
 11
80.13934426229997
 21
22.094016393399997
 31
0.0
  0
SPLINE
  5
10067
330
1F
100
AcDbEntity
  8
InnerContour
  6
Continuous
 62
2
100
AcDbSpline
 70
8
 71
3
 72
11
 73
7
 74
0
 40
0.0
 40
0.0
 40
0.0
 40
0.0
 40
0.5144122614341194
 40
0.5144122614341194
 40
0.5144122614341194
 40
1.0
 40
1.0
 40
1.0
 40
1.0
 10
83.53981264641635
 20
25.705257611239034
 30
0.0
 10
83.95433255273957
 20
25.705257611239034
 30
0.0
 10
84.34074941456623
 20
25.634999999997817
 30
0.0
 10
84.69906323189645
 20
25.501510538639508
 30
0.0
 10
85.05350600190917
 20
25.369463232164208
 30
0.0
 10
85.36651053868792
 20
25.164274004681673
 30
0.0
 10
85.63348946140462
 20
24.904320843089153
 30
0.0
  0
SPLINE
  5
10068
330
1F
100
AcDbEntity
  8
InnerContour
  6
Continuous
 62
2
100
AcDbSpline
 70
8
 71
3
 72
16
 73
12
 74
0
 40
0.0
 40
0.0
 40
0.0
 40
0.0
 40
0.2231625754641772
 40
0.2231625754641772
 40
0.404718569062152
 40
0.404718569062152
 40
0.404718569062152
 40
0.6022607420382469
 40
0.6022607420382469
 40
0.6022607420382469
 40
1.0
 40
1.0
 40
1.0
 40
1.0
 10
85.63348946140462
 20
24.904320843089153
 30
0.0
 10
86.18177856077682
 20
24.370460404226762
 30
0.0
 10
86.46955503517512
 20
23.695889929740204
 30
0.0
 10
86.46955503517512
 20
22.192377049178162
 30
0.0
 10
86.30796252932032
 20
21.510878220138352
 30
0.0
 10
85.98477751761072
 20
20.808302107726163
 30
0.0
 10
85.66015209729824
 20
20.102594672264274
 30
0.0
 10
85.35245901643975
 20
19.45935597189478
 30
0.0
 10
85.03629976585427
 20
18.88324355971679
 30
0.0
 10
84.45847528112893
 20
17.830318943106192
 30
0.0
 10
83.70140515227115
 20
16.60689695550134
 30
0.0
 10
82.75292740051464
 20
15.215796252925223
 30
0.0
  0
LINE
  5
10069
330
1F
100
AcDbEntity
  8
InnerContour
  6
Continuous
 62
2
100
AcDbLine
 10
82.75292740049997
 20
15.215796252900006
 30
0.0
 11
86.18852459019996
 21
15.215796252900006
 31
0.0
  0
LINE
  5
1006A
330
1F
100
AcDbEntity
  8
InnerContour
  6
Continuous
 62
2
100
AcDbLine
 10
86.18852459019996
 20
15.215796252900006
 30
0.0
 11
86.18852459019996
 21
13.887927400500004
 31
0.0
  0
LINE
  5
1006B
330
1F
100
AcDbEntity
  8
InnerContour
  6
Continuous
 62
2
100
AcDbLine
 10
86.18852459019996
 20
13.887927400500004
 30
0.0
 11
80.04800936769993
 21
13.887927400500004
 31
0.0
  0
LINE
  5
1006C
330
1F
100
AcDbEntity
  8
InnerContour
  6
Continuous
 62
2
100
AcDbLine
 10
80.04800936769993
 20
13.887927400500004
 30
0.0
 11
80.04800936769993
 21
15.159590163900006
 31
0.0
  0
SPLINE
  5
1006D
330
1F
100
AcDbEntity
  8
InnerContour
  6
Continuous
 62
2
100
AcDbSpline
 70
8
 71
3
 72
22
 73
18
 74
0
 40
0.0
 40
0.0
 40
0.0
 40
0.0
 40
0.3269252085032989
 40
0.3269252085032989
 40
0.3269252085032989
 40
0.5573752290878227
 40
0.5573752290878227
 40
0.5573752290878227
 40
0.6912707285363926
 40
0.6912707285363926
 40
0.6912707285363926
 40
0.8108517788069741
 40
0.8108517788069741
 40
0.8108517788069741
 40
0.8800027413936728
 40
0.8800027413936728
 40
1.0
 40
1.0
 40
1.0
 40
1.0
 10
80.04800936772784
 20
15.15959016393225
 30
0.0
 10
80.68735363002287
 20
16.19940281030226
 30
0.0
 10
81.27049180332506
 20
17.14085480093459
 30
0.0
 10
81.79742388763412
 20
17.990971896953326
 30
0.0
 10
82.40872854736926
 20
18.977210081325993
 30
0.0
 10
82.81615925063187
 20
19.642025761121943
 30
0.0
 10
83.01990632323134
 20
19.99331381732803
 30
0.0
 10
83.33476598675463
 20
20.53617530616134
 30
0.0
 10
83.57494145203697
 20
20.92071428571211
 30
0.0
 10
83.70140515227115
 20
21.17364168618049
 30
0.0
 10
83.89531615929695
 20
21.56146370023201
 30
0.0
 10
84.05269320847714
 20
21.932423887585642
 30
0.0
 10
84.16510538646315
 20
22.29776346603998
 30
0.0
 10
84.27493512252244
 20
22.65471010823252
 30
0.0
 10
84.32669789231795
 20
22.951159250583302
 30
0.0
 10
84.32669789231795
 20
23.604555035126637
 30
0.0
 10
84.24238875882855
 20
23.927740046836234
 30
0.0
 10
84.08079625297376
 20
24.15959016393225
 30
0.0
  0
SPLINE
  5
1006E
330
1F
100
AcDbEntity
  8
InnerContour
  6
Continuous
 62
2
100
AcDbSpline
 70
8
 71
3
 72
11
 73
7
 74
0
 40
0.0
 40
0.0
 40
0.0
 40
0.0
 40
0.533192122778389
 40
0.533192122778389
 40
0.533192122778389
 40
1.0
 40
1.0
 40
1.0
 40
1.0
 10
84.08079625297376
 20
24.15959016393225
 30
0.0
 10
84.01053864173247
 20
24.286053864166448
 30
0.0
 10
83.92622950824307
 20
24.377388758780015
 30
0.0
 10
83.84192037475367
 20
24.44062060889712
 30
0.0
 10
83.75648711948423
 20
24.504695550349112
 30
0.0
 10
83.65222482440225
 20
24.531955503510716
 30
0.0
 10
83.53981264641624
 20
24.553032786883065
 30
0.0
  0
LINE
  5
1006F
330
1F
100
AcDbEntity
  8
InnerContour
  6
Continuous
 62
2
100
AcDbLine
 10
83.53981264639992
 20
24.553032786900005
 30
0.0
 11
83.53981264639992
 21
25.705257611199997
 31
0.0
  0
SPLINE
  5
10070
330
1F
100
AcDbEntity
  8
InnerContour
  6
Continuous
 62
2
100
AcDbSpline
 70
8
 71
3
 72
8
 73
4
 74
0
 40
0.0
 40
0.0
 40
0.0
 40
0.0
 40
1.0
 40
1.0
 40
1.0
 40
1.0
 10
91.73887587826647
 20
15.00502341920157
 30
0.0
 10
91.94262295086605
 20
15.0823067915669
 30
0.0
 10
92.09718969559663
 20
15.26497658079407
 30
0.0
 10
92.20257611245847
 20
15.574110070255436
 30
0.0
  0
SPLINE
  5
10071
330
1F
100
AcDbEntity
  8
InnerContour
  6
Continuous
 62
2
100
AcDbSpline
 70
8
 71
3
 72
17
 73
13
 74
0
 40
0.0
 40
0.0
 40
0.0
 40
0.0
 40
0.1656213441145274
 40
0.1656213441145274
 40
0.1656213441145274
 40
0.7788449153724571
 40
0.7788449153724571
 40
0.7788449153724571
 40
0.9240362593771941
 40
0.9240362593771941
 40
0.9240362593771941
 40
1.0
 40
1.0
 40
1.0
 40
1.0
 10
92.20257611245847
 20
15.574110070255436
 30
0.0
 10
92.27283372369976
 20
15.812985948475571
 30
0.0
 10
92.31498829044443
 20
16.31181498828822
 30
0.0
 10
92.31498829044443
 20
17.06357142856924
 30
0.0
 10
92.31498829044443
 20
18.91134660421328
 30
0.0
 10
92.31498829044443
 20
20.75912177985731
 30
0.0
 10
92.31498829044443
 20
22.60689695550134
 30
0.0
 10
92.31498829044443
 20
23.246241217796424
 30
0.0
 10
92.27283372369976
 20
23.681838407491966
 30
0.0
 10
92.18149882908614
 20
23.90666276346387
 30
0.0
 10
92.08870931335127
 20
24.13506772527269
 30
0.0
 10
91.92857142861777
 20
24.27902810304232
 30
0.0
 10
91.68266978927346
 20
24.3352341920353
 30
0.0
  0
LINE
  5
10072
330
1F
100
AcDbEntity
  8
InnerContour
  6
Continuous
 62
2
100
AcDbLine
 10
91.68266978929995
 20
24.335234192
 30
0.0
 11
91.68266978929995
 21
25.6701288056
 31
0.0
  0
SPLINE
  5
10073
330
1F
100
AcDbEntity
  8
InnerContour
  6
Continuous
 62
2
100
AcDbSpline
 70
8
 71
3
 72
41
 73
37
 74
0
 40
0.0
 40
0.0
 40
0.0
 40
0.0
 40
0.0472274361346526
 40
0.0472274361346526
 40
0.0472274361346526
 40
0.0924371905123432
 40
0.0924371905123432
 40
0.137646944890036
 40
0.137646944890036
 40
0.182856699267729
 40
0.182856699267729
 40
0.182856699267729
 40
0.2729485565920683
 40
0.2729485565920683
 40
0.2729485565920683
 40
0.4385776862707538
 40
0.4385776862707538
 40
0.4385776862707538
 40
0.5648332164532633
 40
0.5648332164532633
 40
0.5648332164532633
 40
0.73230649703846
 40
0.73230649703846
 40
0.73230649703846
 40
0.8183442066030067
 40
0.8183442066030067
 40
0.8183442066030067
 40
0.8635546923048844
 40
0.8635546923048844
 40
0.9087651780067616
 40
0.9087651780067616
 40
0.9087651780067616
 40
0.9548666860417913
 40
0.9548666860417913
 40
0.9548666860417913
 40
1.0
 40
1.0
 40
1.0
 40
1.0
 10
91.68266978927346
 20
25.670128805618432
 30
0.0
 10
91.91451990636943
 20
25.670128805618432
 30
0.0
 10
92.15339578458963
 20
25.642025761121943
 30
0.0
 10
92.41334894618217
 20
25.59284543325309
 30
0.0
 10
92.66780239349555
 20
25.544705591869487
 30
0.0
 10
92.89812646374656
 20
25.466381733018906
 30
0.0
 10
93.30562060894567
 20
25.29776346603998
 30
0.0
 10
93.50234192042103
 20
25.185351288054036
 30
0.0
 10
93.88173302112352
 20
24.876217798592663
 30
0.0
 10
94.04332552697832
 20
24.707599531613752
 30
0.0
 10
94.17681498833667
 20
24.524929742386576
 30
0.0
 10
94.46696469508856
 20
24.127882775252502
 30
0.0
 10
94.64754098365285
 20
23.709941451988456
 30
0.0
 10
94.69672131152174
 20
23.239215456672298
 30
0.0
 10
94.74525139265802
 20
22.774713251510164
 30
0.0
 10
94.77400468388703
 20
21.911346604213293
 30
0.0
 10
94.77400468388703
 20
20.660761124119603
 30
0.0
 10
94.77400468388703
 20
20.005023419201564
 30
0.0
 10
94.77400468388703
 20
19.34928571428354
 30
0.0
 10
94.77400468388703
 20
18.693548009365514
 30
0.0
 10
94.77400468388703
 20
17.457014051520076
 30
0.0
 10
94.74590163939052
 20
16.592845433253096
 30
0.0
 10
94.68266978927346
 20
16.086990632316336
 30
0.0
 10
94.62667987754583
 20
15.639071338495391
 30
0.0
 10
94.47892271667394
 20
15.222822014049356
 30
0.0
 10
94.20491803283323
 20
14.850456674470891
 30
0.0
 10
94.06747272722072
 20
14.663672028382116
 30
0.0
 10
93.90983606562003
 20
14.492142857140685
 30
0.0
 10
93.54449648716576
 20
14.197060889927563
 30
0.0
 10
93.34074941456623
 20
14.0776229508175
 30
0.0
 10
93.11592505859437
 20
13.986288056203911
 30
0.0
 10
92.88865081441827
 20
13.893957894507366
 30
0.0
 10
92.66627634665053
 20
13.817669789224993
 30
0.0
 10
92.43442622955456
 20
13.761463700232014
 30
0.0
 10
92.20760321820643
 20
13.706476303541585
 30
0.0
 10
91.97775175648667
 20
13.670128805618432
 30
0.0
 10
91.73887587826647
 20
13.670128805618432
 30
0.0
  0
LINE
  5
10074
330
1F
100
AcDbEntity
  8
InnerContour
  6
Continuous
 62
2
100
AcDbLine
 10
91.73887587829995
 20
13.670128805600001
 30
0.0
 11
91.73887587829995
 21
15.0050234192
 31
0.0
  0
LINE
  5
10075
330
1F
100
AcDbEntity
  8
InnerContour
  6
Continuous
 62
2
100
AcDbLine
 10
91.17681498829995
 20
15.0050234192
 30
0.0
 11
91.17681498829995
 21
13.670128805600001
 31
0.0
  0
SPLINE
  5
10076
330
1F
100
AcDbEntity
  8
InnerContour
  6
Continuous
 62
2
100
AcDbSpline
 70
8
 71
3
 72
25
 73
21
 74
0
 40
0.0
 40
0.0
 40
0.0
 40
0.0
 40
0.0606262105881162
 40
0.0606262105881162
 40
0.0606262105881162
 40
0.1260294733926994
 40
0.1260294733926994
 40
0.1260294733926994
 40
0.24971374958254
 40
0.24971374958254
 40
0.3733980257723786
 40
0.3733980257723786
 40
0.3733980257723786
 40
0.5997218943392064
 40
0.5997218943392064
 40
0.5997218943392064
 40
0.7717762608093082
 40
0.7717762608093082
 40
0.7717762608093082
 40
1.0
 40
1.0
 40
1.0
 40
1.0
 10
91.17681498833667
 20
13.670128805618432
 30
0.0
 10
90.93793911011653
 20
13.670128805618432
 30
0.0
 10
90.70608899302056
 20
13.698231850114915
 30
0.0
 10
90.48829039817275
 20
13.74038641685965
 30
0.0
 10
90.26918107958477
 20
13.782794672070246
 30
0.0
 10
90.03161592510486
 20
13.86685011709384
 30
0.0
 10
89.77868852463644
 20
13.972236533955666
 30
0.0
 10
89.32721062044732
 20
14.160352327367804
 30
0.0
 10
88.94262295086605
 20
14.42891100702358
 30
0.0
 10
88.36651053868792
 20
15.201744730676985
 30
0.0
 10
88.19789227170907
 20
15.630316159248416
 30
0.0
 10
88.14871194384023
 20
16.108067915688693
 30
0.0
 10
88.10017360184776
 20
16.57958323790195
 30
0.0
 10
88.07142857147483
 20
17.435936768147712
 30
0.0
 10
88.07142857147483
 20
18.693548009365514
 30
0.0
 10
88.07142857147483
 20
19.34928571428354
 30
0.0
 10
88.07142857147483
 20
20.005023419201564
 30
0.0
 10
88.07142857147483
 20
20.660761124119603
 30
0.0
 10
88.07142857147483
 20
21.89729508196504
 30
0.0
 10
88.09953161597133
 20
22.761463700232014
 30
0.0
 10
88.16276346608856
 20
23.267318501168774
 30
0.0
  0
SPLINE
  5
10077
330
1F
100
AcDbEntity
  8
InnerContour
  6
Continuous
 62
2
100
AcDbSpline
 70
8
 71
3
 72
16
 73
12
 74
0
 40
0.0
 40
0.0
 40
0.0
 40
0.0
 40
0.1593101053829263
 40
0.1593101053829263
 40
0.3186202107658508
 40
0.3186202107658508
 40
0.3186202107658508
 40
0.653065377525711
 40
0.653065377525711
 40
0.653065377525711
 40
1.0
 40
1.0
 40
1.0
 40
1.0
 10
88.16276346608856
 20
23.267318501168774
 30
0.0
 10
88.16276346608856
 20
23.485117096016566
 30
0.0
 10
88.20491803283323
 20
23.695889929740204
 30
0.0
 10
88.35948477756392
 20
24.103384074939285
 30
0.0
 10
88.47189695554982
 20
24.30713114753881
 30
0.0
 10
88.61943793915646
 20
24.503852459014226
 30
0.0
 10
88.89850117100656
 20
24.87593676814771
 30
0.0
 10
89.24473067920326
 20
25.178325526929896
 30
0.0
 10
89.70843091339526
 20
25.3680210772812
 30
0.0
 10
90.14450063215753
 20
25.546413234956688
 30
0.0
 10
90.60772833728282
 20
25.670128805618432
 30
0.0
 10
91.12763466046783
 20
25.670128805618432
 30
0.0
  0
LINE
  5
10078
330
1F
100
AcDbEntity
  8
InnerContour
  6
Continuous
 62
2
100
AcDbLine
 10
91.12763466049995
 20
25.6701288056
 30
0.0
 11
91.12763466049995
 21
24.335234192
 31
0.0
  0
SPLINE
  5
10079
330
1F
100
AcDbEntity
  8
InnerContour
  6
Continuous
 62
2
100
AcDbSpline
 70
8
 71
3
 72
8
 73
4
 74
0
 40
0.0
 40
0.0
 40
0.0
 40
0.0
 40
1.0
 40
1.0
 40
1.0
 40
1.0
 10
91.12763466046783
 20
24.3352341920353
 30
0.0
 10
91.04332552697832
 20
24.314156908662937
 30
0.0
 10
90.98009367686126
 20
24.286053864166448
 30
0.0
 10
90.93793911011653
 20
24.257950819669958
 30
0.0
  0
SPLINE
  5
1007A
330
1F
100
AcDbEntity
  8
InnerContour
  6
Continuous
 62
2
100
AcDbSpline
 70
8
 71
3
 72
22
 73
18
 74
0
 40
0.0
 40
0.0
 40
0.0
 40
0.0
 40
0.0395955635717838
 40
0.0395955635717838
 40
0.0395955635717838
 40
0.1820525322618042
 40
0.1820525322618042
 40
0.1820525322618042
 40
0.7666416443887255
 40
0.7666416443887255
 40
0.7666416443887255
 40
0.9159885202543528
 40
0.9159885202543528
 40
0.9159885202543528
 40
0.9563140305322658
 40
0.9563140305322658
 40
1.0
 40
1.0
 40
1.0
 40
1.0
 10
90.93793911011653
 20
24.257950819669958
 30
0.0
 10
90.89578454337186
 20
24.222822014049342
 30
0.0
 10
90.81850117100657
 20
24.124461358311635
 30
0.0
 10
90.70608899302056
 20
23.955843091332724
 30
0.0
 10
90.59151504238093
 20
23.78398216537343
 30
0.0
 10
90.53044496491742
 20
23.337576112410005
 30
0.0
 10
90.53044496491742
 20
22.60689695550134
 30
0.0
 10
90.53044496491742
 20
20.728676814986116
 30
0.0
 10
90.53044496491742
 20
18.85045667447089
 30
0.0
 10
90.53044496491742
 20
16.972236533955673
 30
0.0
 10
90.53044496491742
 20
16.17129976580579
 30
0.0
 10
90.56557377053804
 20
15.6935480093655
 30
0.0
 10
90.62177985953116
 20
15.53898126463482
 30
0.0
 10
90.67880647537066
 20
15.382158071075963
 30
0.0
 10
90.76229508201357
 20
15.25795081966995
 30
0.0
 10
90.93793911011653
 20
15.0823067915669
 30
0.0
 10
91.04332552697832
 20
15.026100702573935
 30
0.0
 10
91.17681498833667
 20
15.00502341920157
 30
0.0
  0
LWPOLYLINE
  5
1007F
330
1F
100
AcDbEntity
  8
OuterContour
 62
3
100
AcDbPolyline
 90
28
 70
1
 10
-335.00000000000006
 20
5.0
 10
455.0
 20
5.0
 10
455.0
 20
55.0
 10
344.3299999999999
 20
55.0
 10
344.3299999999999
 20
30.0
 10
342.3299999999999
 20
30.0
 10
342.3299999999999
 20
55.0
 10
230.99799999999993
 20
55.0
 10
230.99799999999993
 20
30.0
 10
228.99799999999993
 20
30.0
 10
228.99799999999993
 20
55.0
 10
117.66599999999994
 20
55.0
 10
117.66599999999994
 20
30.0
 10
115.66599999999994
 20
30.0
 10
115.66599999999994
 20
55.0
 10
4.333999999999946
 20
55.0
 10
4.333999999999946
 20
30.0
 10
2.3339999999999463
 20
30.0
 10
2.3339999999999463
 20
55.0
 10
-108.99800000000005
 20
55.0
 10
-108.99800000000005
 20
30.0
 10
-110.99800000000005
 20
30.0
 10
-110.99800000000005
 20
55.0
 10
-222.33000000000004
 20
55.0
 10
-222.33000000000004
 20
30.0
 10
-224.33000000000004
 20
30.0
 10
-224.33000000000004
 20
55.0
 10
-335.00000000000006
 20
55.0
  0
LWPOLYLINE
  5
10080
330
1F
100
AcDbEntity
  8
InnerContour
 62
2
100
AcDbPolyline
 90
12
 70
1
 10
37.85831381739996
 20
25.5085362998
 10
35.63114754099996
 20
25.5085362998
 10
35.63114754099996
 20
20.625632318499996
 10
35.51873536299996
 20
20.625632318499996
 10
33.27751756439994
 20
25.5085362998
 10
31.64051522249997
 20
25.5085362998
 10
31.64051522249997
 20
13.887927400500004
 10
33.86768149889997
 20
13.887927400500004
 10
33.86768149889997
 20
18.7567798595
 10
33.99414519909993
 20
18.7567798595
 10
36.24941451999996
 20
13.887927400500004
 10
37.85831381739996
 20
13.887927400500004
  0
LWPOLYLINE
  5
10081
330
1F
100
AcDbEntity
  8
InnerContour
 62
2
100
AcDbPolyline
 90
6
 70
1
 10
47.75058548009997
 20
24.3071311475
 10
51.60070257619992
 20
24.3071311475
 10
51.60070257619992
 20
25.5085362998
 10
45.72014051529993
 20
25.5085362998
 10
45.60772833729993
 20
20.021416861800006
 10
47.75058548009997
 20
20.021416861800006
  0
LWPOLYLINE
  5
10082
330
1F
100
AcDbEntity
  8
InnerContour
 62
2
100
AcDbPolyline
 90
4
 70
1
 10
59.89110070259994
 20
19.15724824360001
 10
56.60304449649993
 20
19.15724824360001
 10
56.60304449649993
 20
17.8153278689
 10
59.89110070259994
 20
17.8153278689
  0
LWPOLYLINE
  5
10083
330
1F
100
AcDbEntity
  8
InnerContour
 62
2
100
AcDbPolyline
 90
4
 70
1
 10
66.59367681499992
 20
25.5085362998
 10
64.13466042159996
 20
25.5085362998
 10
64.13466042159996
 20
13.887927400500004
 10
66.59367681499992
 20
13.887927400500004
  0
LWPOLYLINE
  5
10084
330
1F
100
AcDbEntity
  8
InnerContour
 62
2
100
AcDbPolyline
 90
12
 70
1
 10
78.48126463699992
 20
25.5085362998
 10
76.25409836069997
 20
25.5085362998
 10
76.25409836069997
 20
20.625632318499996
 10
76.14168618269997
 20
20.625632318499996
 10
73.90046838409995
 20
25.5085362998
 10
72.26346604219992
 20
25.5085362998
 10
72.26346604219992
 20
13.887927400500004
 10
74.49063231849993
 20
13.887927400500004
 10
74.49063231849993
 20
18.7567798595
 10
74.61709601879994
 20
18.7567798595
 10
76.87236533959992
 20
13.887927400500004
 10
78.48126463699992
 20
13.887927400500004
  0
LWPOLYLINE
  5
10085
330
1F
100
AcDbEntity
  8
InnerContour
 62
2
100
AcDbPolyline
 90
4
 70
1
 10
25.97775175649997
 20
25.5085362998
 10
23.511709601899952
 20
25.5085362998
 10
23.511709601899952
 20
13.887927400500004
 10
25.97775175649997
 20
13.887927400500004
  0
ENDSEC
  0
SECTION
  2
OBJECTS
  0
DICTIONARY
  5
C
330
0
100
AcDbDictionary
281
1
  3
ACAD_GROUP
350
D
  3
ACAD_LAYOUT
350
1A
  3
ACAD_MLINESTYLE
350
17
  3
ACAD_PLOTSETTINGS
350
19
  3
ACAD_PLOTSTYLENAME
350
E
  3
AcDbVariableDictionary
350
D3
  3
QCAD_OBJECTS
350
D4
  3
ACAD_COLOR
350
10000
  3
ACAD_MATERIAL
350
10001
  3
ACAD_MLEADERSTYLE
350
10002
  3
ACAD_SCALELIST
350
10003
  3
ACAD_TABLESTYLE
350
10004
  3
ACAD_VISUALSTYLE
350
10005
  3
EZDXF_META
350
10088
  0
DICTIONARY
  5
D
330
0
100
AcDbDictionary
281
1
  0
ACDBDICTIONARYWDFLT
  5
E
330
0
100
AcDbDictionary
281
1
  3
Normal
350
F
100
AcDbDictionaryWithDefault
340
F
  0
ACDBPLACEHOLDER
  5
F
330
0
  0
DICTIONARY
  5
17
330
0
100
AcDbDictionary
281
1
  3
Standard
350
18
  0
MLINESTYLE
  5
18
330
0
100
AcDbMlineStyle
  2
STANDARD
 70
0
  3

 62
256
 51
90.0
 52
90.0
 71
2
 49
0.5
 62
256
  6
BYLAYER
 49
-0.5
 62
256
  6
BYLAYER
  0
DICTIONARY
  5
19
330
0
100
AcDbDictionary
281
1
  0
DICTIONARY
  5
1A
330
0
100
AcDbDictionary
281
1
  3
Layout1
350
1E
  3
Layout2
350
26
  3
Model
350
22
  0
LAYOUT
  5
1E
330
0
100
AcDbPlotSettings
  1

  2
none_device
  4

  6

 40
0.0
 41
0.0
 42
0.0
 43
0.0
 44
0.0
 45
0.0
 46
0.0
 47
0.0
 48
0.0
 49
0.0
140
0.0
141
0.0
142
1.0
143
1.0
 70
688
 72
0
 73
0
 74
5
  7

 75
16
 76
0
 77
2
 78
300
147
1.0
148
0.0
149
0.0
100
AcDbLayout
  1
Layout1
 70
1
 71
1
 10
0.0
 20
0.0
 11
420.0
 21
297.0
 12
0.0
 22
0.0
 32
0.0
 14
1e+20
 24
1e+20
 34
1e+20
 15
-1e+20
 25
-1e+20
 35
-1e+20
146
0.0
 13
0.0
 23
0.0
 33
0.0
 16
1.0
 26
0.0
 36
0.0
 17
0.0
 27
1.0
 37
0.0
 76
0
330
1B
  0
LAYOUT
  5
22
330
0
100
AcDbPlotSettings
  1

  2
none_device
  4

  6

 40
0.0
 41
0.0
 42
0.0
 43
0.0
 44
0.0
 45
0.0
 46
0.0
 47
0.0
 48
0.0
 49
0.0
140
0.0
141
0.0
142
1.0
143
1.0
 70
1712
 72
0
 73
0
 74
0
  7

 75
0
 76
0
 77
2
 78
300
147
1.0
148
0.0
149
0.0
100
AcDbLayout
  1
Model
 70
1
 71
0
 10
0.0
 20
0.0
 11
12.0
 21
9.0
 12
0.0
 22
0.0
 32
0.0
 14
0.0
 24
0.0
 34
0.0
 15
0.0
 25
0.0
 35
0.0
146
0.0
 13
0.0
 23
0.0
 33
0.0
 16
1.0
 26
0.0
 36
0.0
 17
0.0
 27
1.0
 37
0.0
 76
0
330
1F
  0
LAYOUT
  5
26
330
0
100
AcDbPlotSettings
  1

  2
none_device
  4

  6

 40
0.0
 41
0.0
 42
0.0
 43
0.0
 44
0.0
 45
0.0
 46
0.0
 47
0.0
 48
0.0
 49
0.0
140
0.0
141
0.0
142
1.0
143
1.0
 70
688
 72
0
 73
0
 74
5
  7

 75
16
 76
0
 77
2
 78
300
147
1.0
148
0.0
149
0.0
100
AcDbLayout
  1
Layout2
 70
1
 71
2
 10
0.0
 20
0.0
 11
12.0
 21
9.0
 12
0.0
 22
0.0
 32
0.0
 14
0.0
 24
0.0
 34
0.0
 15
0.0
 25
0.0
 35
0.0
146
0.0
 13
0.0
 23
0.0
 33
0.0
 16
1.0
 26
0.0
 36
0.0
 17
0.0
 27
1.0
 37
0.0
 76
0
330
23
  0
DICTIONARY
  5
D3
330
0
100
AcDbDictionary
281
1
  3
DIMASSOC
350
D6
  3
HIDETEXT
350
D5
  0
DICTIONARYVAR
  5
D5
330
0
100
DictionaryVariables
280
0
  1
2
  0
DICTIONARYVAR
  5
D6
330
0
100
DictionaryVariables
280
0
  1
1
  0
DICTIONARY
  5
D4
330
0
100
AcDbDictionary
281
1
  3
ColorSettings/BackgroundColor
350
D7
  3
ColorSettings/ColorMode
350
D8
  3
Grid/DisplayGrid00
350
D9
  3
Grid/DisplayGrid01
350
DA
  3
Grid/DisplayGrid02
350
DB
  3
Grid/DisplayGrid03
350
DC
  3
Grid/GridSpacingX00
350
DD
  3
Grid/GridSpacingX01
350
DE
  3
Grid/GridSpacingX02
350
DF
  3
Grid/GridSpacingX03
350
E0
  3
Grid/GridSpacingY00
350
E1
  3
Grid/GridSpacingY01
350
E2
  3
Grid/GridSpacingY02
350
E3
  3
Grid/GridSpacingY03
350
E4
  3
Grid/IsometricGrid00
350
E5
  3
Grid/IsometricGrid01
350
E6
  3
Grid/IsometricGrid02
350
E7
  3
Grid/IsometricGrid03
350
E8
  3
Grid/IsometricProjection00
350
E9
  3
Grid/IsometricProjection01
350
EA
  3
Grid/IsometricProjection02
350
EB
  3
Grid/IsometricProjection03
350
EC
  3
Grid/MetaGridSpacingX00
350
ED
  3
Grid/MetaGridSpacingX01
350
EE
  3
Grid/MetaGridSpacingX02
350
EF
  3
Grid/MetaGridSpacingX03
350
F0
  3
Grid/MetaGridSpacingY00
350
F1
  3
Grid/MetaGridSpacingY01
350
F2
  3
Grid/MetaGridSpacingY02
350
F3
  3
Grid/MetaGridSpacingY03
350
F4
  3
MultiPageSettings/Columns
350
F5
  3
MultiPageSettings/GlueMarginsBottom
350
F6
  3
MultiPageSettings/GlueMarginsLeft
350
F7
  3
MultiPageSettings/GlueMarginsRight
350
F8
  3
MultiPageSettings/GlueMarginsTop
350
F9
  3
MultiPageSettings/PrintCropMarks
350
FA
  3
MultiPageSettings/Rows
350
FB
  3
PageSettings/OffsetX
350
FC
  3
PageSettings/OffsetY
350
FD
  3
PageSettings/PageOrientation
350
FE
  3
PageSettings/PaperHeight
350
FF
  3
PageSettings/PaperWidth
350
100
  3
PageSettings/Scale
350
101
  3
PageSettings/ShowPaperBorders
350
102
  3
PageTagSettings/EnablePageTags
350
103
  3
PageTagSettings/TagAlignment
350
104
  3
PageTagSettings/TagFont
350
105
  3
PageTagSettings/TagPosition
350
106
  3
QCADVersion
350
107
  3
UnitSettings/PaperUnit
350
108
  3
ViewportCenter
350
109
  3
ViewportHeight
350
10A
  3
ViewportWidth
350
10B
  0
XRECORD
  5
D7
330
D4
100
AcDbXrecord
280
1
1000
Bianco
  0
XRECORD
  5
D8
330
D4
100
AcDbXrecord
280
1
1000
FullColor
  0
XRECORD
  5
D9
330
D4
100
AcDbXrecord
280
1
290
1
  0
XRECORD
  5
DA
330
D4
100
AcDbXrecord
280
1
290
1
  0
XRECORD
  5
DB
330
D4
100
AcDbXrecord
280
1
290
1
  0
XRECORD
  5
DC
330
D4
100
AcDbXrecord
280
1
290
1
  0
XRECORD
  5
DD
330
D4
100
AcDbXrecord
280
1
1000
auto
  0
XRECORD
  5
DE
330
D4
100
AcDbXrecord
280
1
1000
auto
  0
XRECORD
  5
DF
330
D4
100
AcDbXrecord
280
1
1000
auto
  0
XRECORD
  5
E0
330
D4
100
AcDbXrecord
280
1
1000
auto
  0
XRECORD
  5
E1
330
D4
100
AcDbXrecord
280
1
1000
auto
  0
XRECORD
  5
E2
330
D4
100
AcDbXrecord
280
1
1000
auto
  0
XRECORD
  5
E3
330
D4
100
AcDbXrecord
280
1
1000
auto
  0
XRECORD
  5
E4
330
D4
100
AcDbXrecord
280
1
1000
auto
  0
XRECORD
  5
E5
330
D4
100
AcDbXrecord
280
1
290
0
  0
XRECORD
  5
E6
330
D4
100
AcDbXrecord
280
1
290
0
  0
XRECORD
  5
E7
330
D4
100
AcDbXrecord
280
1
290
0
  0
XRECORD
  5
E8
330
D4
100
AcDbXrecord
280
1
290
0
  0
XRECORD
  5
E9
330
D4
100
AcDbXrecord
280
1
 90
65537
  0
XRECORD
  5
EA
330
D4
100
AcDbXrecord
280
1
 90
65537
  0
XRECORD
  5
EB
330
D4
100
AcDbXrecord
280
1
 90
65537
  0
XRECORD
  5
EC
330
D4
100
AcDbXrecord
280
1
 90
65537
  0
XRECORD
  5
ED
330
D4
100
AcDbXrecord
280
1
1000
auto
  0
XRECORD
  5
EE
330
D4
100
AcDbXrecord
280
1
1000
auto
  0
XRECORD
  5
EF
330
D4
100
AcDbXrecord
280
1
1000
auto
  0
XRECORD
  5
F0
330
D4
100
AcDbXrecord
280
1
1000
auto
  0
XRECORD
  5
F1
330
D4
100
AcDbXrecord
280
1
1000
auto
  0
XRECORD
  5
F2
330
D4
100
AcDbXrecord
280
1
1000
auto
  0
XRECORD
  5
F3
330
D4
100
AcDbXrecord
280
1
1000
auto
  0
XRECORD
  5
F4
330
D4
100
AcDbXrecord
280
1
1000
auto
  0
XRECORD
  5
F5
330
D4
100
AcDbXrecord
280
1
 90
1
  0
XRECORD
  5
F6
330
D4
100
AcDbXrecord
280
1
 40
10.0
  0
XRECORD
  5
F7
330
D4
100
AcDbXrecord
280
1
 40
10.0
  0
XRECORD
  5
F8
330
D4
100
AcDbXrecord
280
1
 40
10.0
  0
XRECORD
  5
F9
330
D4
100
AcDbXrecord
280
1
 40
10.0
  0
XRECORD
  5
FA
330
D4
100
AcDbXrecord
280
1
290
0
  0
XRECORD
  5
FB
330
D4
100
AcDbXrecord
280
1
 90
1
  0
XRECORD
  5
FC
330
D4
100
AcDbXrecord
280
1
 40
0.0
  0
XRECORD
  5
FD
330
D4
100
AcDbXrecord
280
1
 40
0.0
  0
XRECORD
  5
FE
330
D4
100
AcDbXrecord
280
1
1000
Portrait
  0
XRECORD
  5
FF
330
D4
100
AcDbXrecord
280
1
 40
297.0
  0
XRECORD
  5
100
330
D4
100
AcDbXrecord
280
1
 40
210.0
  0
XRECORD
  5
101
330
D4
100
AcDbXrecord
280
1
1000
1:1
  0
XRECORD
  5
102
330
D4
100
AcDbXrecord
280
1
290
1
  0
XRECORD
  5
103
330
D4
100
AcDbXrecord
280
1
290
0
  0
XRECORD
  5
104
330
D4
100
AcDbXrecord
280
1
1000
Inside
  0
XRECORD
  5
105
330
D4
100
AcDbXrecord
280
1
1000
Arial,10,-1,5,50,0,0,0,0,0
  0
XRECORD
  5
106
330
D4
100
AcDbXrecord
280
1
1000
TopLeft
  0
XRECORD
  5
107
330
D4
100
AcDbXrecord
280
1
1000
3.32.6
  0
XRECORD
  5
108
330
D4
100
AcDbXrecord
280
1
 90
4
  0
XRECORD
  5
10A
330
D4
100
AcDbXrecord
280
1
 40
1161.689426723811
  0
XRECORD
  5
10B
330
D4
100
AcDbXrecord
280
1
 40
2317.216044817788
  0
DICTIONARY
  5
10000
330
C
100
AcDbDictionary
281
1
  0
DICTIONARY
  5
10001
330
C
100
AcDbDictionary
281
1
  3
ByBlock
350
10006
  3
ByLayer
350
10007
  3
Global
350
10008
  0
DICTIONARY
  5
10002
330
C
100
AcDbDictionary
281
1
  3
Standard
350
1000A
  0
DICTIONARY
  5
10003
330
C
100
AcDbDictionary
281
1
  0
DICTIONARY
  5
10004
330
C
100
AcDbDictionary
281
1
  0
DICTIONARY
  5
10005
330
C
100
AcDbDictionary
281
1
  0
MATERIAL
  5
10006
102
{ACAD_REACTORS
330
10001
102
}
330
10001
100
AcDbMaterial
  1
ByBlock
  2

 70
0
 40
1.0
 71
1
 41
1.0
 91
-1023410177
 42
1.0
 72
1
  3

 73
1
 74
1
 75
1
 44
0.5
 73
0
 45
1.0
 46
1.0
 77
1
  4

 78
1
 79
1
170
1
 48
1.0
171
1
  6

172
1
173
1
174
1
140
1.0
141
1.0
175
1
  7

176
1
177
1
178
1
143
1.0
179
1
  8

270
1
271
1
272
1
145
1.0
146
1.0
273
1
  9

274
1
275
1
276
1
 42
1.0
 72
1
  3

 73
1
 74
1
 75
1
 94
63
  0
MATERIAL
  5
10007
102
{ACAD_REACTORS
330
10001
102
}
330
10001
100
AcDbMaterial
  1
ByLayer
  2

 70
0
 40
1.0
 71
1
 41
1.0
 91
-1023410177
 42
1.0
 72
1
  3

 73
1
 74
1
 75
1
 44
0.5
 73
0
 45
1.0
 46
1.0
 77
1
  4

 78
1
 79
1
170
1
 48
1.0
171
1
  6

172
1
173
1
174
1
140
1.0
141
1.0
175
1
  7

176
1
177
1
178
1
143
1.0
179
1
  8

270
1
271
1
272
1
145
1.0
146
1.0
273
1
  9

274
1
275
1
276
1
 42
1.0
 72
1
  3

 73
1
 74
1
 75
1
 94
63
  0
MATERIAL
  5
10008
102
{ACAD_REACTORS
330
10001
102
}
330
10001
100
AcDbMaterial
  1
Global
  2

 70
0
 40
1.0
 71
1
 41
1.0
 91
-1023410177
 42
1.0
 72
1
  3

 73
1
 74
1
 75
1
 44
0.5
 73
0
 45
1.0
 46
1.0
 77
1
  4

 78
1
 79
1
170
1
 48
1.0
171
1
  6

172
1
173
1
174
1
140
1.0
141
1.0
175
1
  7

176
1
177
1
178
1
143
1.0
179
1
  8

270
1
271
1
272
1
145
1.0
146
1.0
273
1
  9

274
1
275
1
276
1
 42
1.0
 72
1
  3

 73
1
 74
1
 75
1
 94
63
  0
MLEADERSTYLE
  5
1000A
102
{ACAD_REACTORS
330
10002
102
}
330
10002
100
AcDbMLeaderStyle
179
2
170
2
171
1
172
0
 90
2
 40
0.0
 41
0.0
173
1
 91
-1056964608
 92
-2
290
1
 42
2.0
291
1
 43
8.0
  3
Standard
 44
4.0
300

342
59
174
1
175
1
176
0
178
1
 93
-1056964608
 45
4.0
292
0
297
0
 46
4.0
 94
-1056964608
 47
1.0
 49
1.0
140
1.0
294
1
141
0.0
177
0
142
1.0
295
0
296
0
143
3.75
271
0
272
9
273
9
  0
DICTIONARY
  5
10088
330
C
100
AcDbDictionary
280
1
281
1
  3
WRITTEN_BY_EZDXF
350
10089
  0
DICTIONARYVAR
  5
10089
330
10088
100
DictionaryVariables
280
0
  1
1.4.3 @ 2026-04-10T06:49:17.835560+00:00
  0
ENDSEC
  0
EOF
