999
dxflib 3.26.4.0
  0
SECTION
  2
HEADER
  9
$ACADVER
  1
AC1015
  9
$HANDSEED
  5
FFFF
  9
$DIMADEC
 70
0
  9
$DIMASZ
 40
2.5
  9
$DIMATFIT
 70
0
  9
$DIMAUNIT
 70
0
  9
$DIMAZIN
 70
2
  9
$DIMBLK
  1

  9
$DIMDEC
 70
4
  9
$DIMDLI
 40
5.0
  9
$DIMDSEP
 70
46
  9
$DIMEXE
 40
1.25
  9
$DIMEXO
 40
0.625
  9
$DIMGAP
 40
0.625
  9
$DIMLFAC
 40
1.0
  9
$DIMLUNIT
 70
2
  9
$DIMSCALE
 40
1.0
  9
$DIMTAD
 70
1
  9
$DIMTIH
 70
0
  9
$DIMTSZ
 40
0.0
  9
$DIMTXT
 40
2.5
  9
$DIMZIN
 70
8
  9
$DWGCODEPAGE
  3
ANSI_1252
  9
$INSUNITS
 70
4
  9
$LTSCALE
 40
1.0
  9
$MAXACTVP
 70
64
  9
$MEASUREMENT
 70
1
  9
$MIRRTEXT
 70
0
  9
$PDMODE
 70
0
  9
$PDSIZE
 40
0.0
  0
ENDSEC
  0
SECTION
  2
TABLES
  0
TABLE
  2
VPORT
  5
8
100
AcDbSymbolTable
 70
1
  0
VPORT
  5
30
100
AcDbSymbolTableRecord
100
AcDbViewportTableRecord
  2
*Active
 70
0
 10
0.0
 20
0.0
 11
1.0
 21
1.0
 12
286.3055555555554861
 22
148.5
 13
0.0
 23
0.0
 14
10.0
 24
10.0
 15
10.0
 25
10.0
 16
0.0
 26
0.0
 36
1.0
 17
0.0
 27
0.0
 37
0.0
 40
297.0
 41
1.92798353909465
 42
50.0
 43
0.0
 44
0.0
 50
0.0
 51
0.0
 71
0
 72
100
 73
1
 74
3
 75
1
 76
1
 77
0
 78
0
281
0
 65
1
110
0.0
120
0.0
130
0.0
111
1.0
121
0.0
131
0.0
112
0.0
122
1.0
132
0.0
 79
0
146
0.0
  0
ENDTAB
  0
TABLE
  2
LTYPE
  5
5
100
AcDbSymbolTable
 70
41
  0
LTYPE
  5
16
100
AcDbSymbolTableRecord
100
AcDbLinetypeTableRecord
  2
Continuous
 70
0
  3
Solid line
 72
65
 73
0
 40
0.0
  0
LTYPE
  5
14
100
AcDbSymbolTableRecord
100
AcDbLinetypeTableRecord
  2
BYBLOCK
 70
0
  3

 72
65
 73
0
 40
0.0
  0
LTYPE
  5
31
100
AcDbSymbolTableRecord
100
AcDbLinetypeTableRecord
  2
HIDDENX2
 70
0
  3
Hidden (2x) ____ ____ ____ ____ ____ ____ ____ 
 72
65
 73
2
 40
19.0499999999999972
 49
12.6999999999999993
 74
0
 49
-6.3499999999999996
 74
0
  0
LTYPE
  5
32
100
AcDbSymbolTableRecord
100
AcDbLinetypeTableRecord
  2
ACAD_ISO09W100
 70
0
  3
ISO long-dash double-short-dash ____ __ __ ____
 72
65
 73
6
 40
45.0
 49
24.0
 74
0
 49
-3.0
 74
0
 49
6.0
 74
0
 49
-3.0
 74
0
 49
6.0
 74
0
 49
-3.0
 74
0
  0
LTYPE
  5
33
100
AcDbSymbolTableRecord
100
AcDbLinetypeTableRecord
  2
DASHDOT2
 70
0
  3
Dash dot (.5x) _._._._._._._._._._._._._._._.
 72
65
 73
4
 40
12.6999999999999993
 49
6.3499999999999996
 74
0
 49
-3.1749999999999998
 74
0
 49
0.0
 74
0
 49
-3.1749999999999998
 74
0
  0
LTYPE
  5
34
100
AcDbSymbolTableRecord
100
AcDbLinetypeTableRecord
  2
DOT
 70
0
  3
Dot . . . . . . . . . . . . . . . . . . . . . . . .
 72
65
 73
2
 40
6.3499999999999996
 49
0.0
 74
0
 49
-6.3499999999999996
 74
0
  0
LTYPE
  5
35
100
AcDbSymbolTableRecord
100
AcDbLinetypeTableRecord
  2
CENTERX2
 70
0
  3
Center (2x) ________  __  ________  __  _____
 72
65
 73
4
 40
101.6000000000000085
 49
63.5
 74
0
 49
-12.6999999999999993
 74
0
 49
12.6999999999999993
 74
0
 49
-12.6999999999999993
 74
0
  0
LTYPE
  5
36
100
AcDbSymbolTableRecord
100
AcDbLinetypeTableRecord
  2
DASHEDX2
 70
0
  3
Dashed (2x) ____  ____  ____  ____  ____  ___
 72
65
 73
2
 40
38.0999999999999943
 49
25.3999999999999986
 74
0
 49
-12.6999999999999993
 74
0
  0
LTYPE
  5
37
100
AcDbSymbolTableRecord
100
AcDbLinetypeTableRecord
  2
ACAD_ISO11W100
 70
0
  3
ISO double-dash dot __ __ . __ __ . __ __ . __ _
 72
65
 73
6
 40
33.0
 49
12.0
 74
0
 49
-3.0
 74
0
 49
12.0
 74
0
 49
-3.0
 74
0
 49
0.0
 74
0
 49
-3.0
 74
0
  0
LTYPE
  5
38
100
AcDbSymbolTableRecord
100
AcDbLinetypeTableRecord
  2
ACAD_ISO04W100
 70
0
  3
ISO long-dash dot ____ . ____ . ____ . ____ . _
 72
65
 73
4
 40
30.0
 49
24.0
 74
0
 49
-3.0
 74
0
 49
0.0
 74
0
 49
-3.0
 74
0
  0
LTYPE
  5
39
100
AcDbSymbolTableRecord
100
AcDbLinetypeTableRecord
  2
ACAD_ISO10W100
 70
0
  3
ISO dash dot __ . __ . __ . __ . __ . __ . __ . 
 72
65
 73
4
 40
18.0
 49
12.0
 74
0
 49
-3.0
 74
0
 49
0.0
 74
0
 49
-3.0
 74
0
  0
LTYPE
  5
3A
100
AcDbSymbolTableRecord
100
AcDbLinetypeTableRecord
  2
ACAD_ISO02W100
 70
0
  3
ISO dash __ __ __ __ __ __ __ __ __ __ __ __ __
 72
65
 73
2
 40
15.0
 49
12.0
 74
0
 49
-3.0
 74
0
  0
LTYPE
  5
3B
100
AcDbSymbolTableRecord
100
AcDbLinetypeTableRecord
  2
ACAD_ISO06W100
 70
0
  3
ISO long-dash triple-dot ____ ... ____ ... ____
 72
65
 73
8
 40
36.0
 49
24.0
 74
0
 49
-3.0
 74
0
 49
0.0
 74
0
 49
-3.0
 74
0
 49
0.0
 74
0
 49
-3.0
 74
0
 49
0.0
 74
0
 49
-3.0
 74
0
  0
LTYPE
  5
3C
100
AcDbSymbolTableRecord
100
AcDbLinetypeTableRecord
  2
DOTX2
 70
0
  3
Dot (2x) .  .  .  .  .  .  .  .  .  .  .  .  .  .
 72
65
 73
2
 40
12.6999999999999993
 49
0.0
 74
0
 49
-12.6999999999999993
 74
0
  0
LTYPE
  5
3D
100
AcDbSymbolTableRecord
100
AcDbLinetypeTableRecord
  2
DASHED2
 70
0
  3
Dashed (.5x) _ _ _ _ _ _ _ _ _ _ _ _ _ _ _ _ _ 
 72
65
 73
2
 40
9.5249999999999986
 49
6.3499999999999996
 74
0
 49
-3.1749999999999998
 74
0
  0
LTYPE
  5
3E
100
AcDbSymbolTableRecord
100
AcDbLinetypeTableRecord
  2
BORDERX2
 70
0
  3
Border (2x) ____  ____  .  ____  ____  .  ___
 72
65
 73
6
 40
88.8999999999999915
 49
25.3999999999999986
 74
0
 49
-12.6999999999999993
 74
0
 49
25.3999999999999986
 74
0
 49
-12.6999999999999993
 74
0
 49
0.0
 74
0
 49
-12.6999999999999993
 74
0
  0
LTYPE
  5
3F
100
AcDbSymbolTableRecord
100
AcDbLinetypeTableRecord
  2
ACAD_ISO05W100
 70
0
  3
ISO long-dash double-dot ____ .. ____ .. ____ . 
 72
65
 73
6
 40
33.0
 49
24.0
 74
0
 49
-3.0
 74
0
 49
0.0
 74
0
 49
-3.0
 74
0
 49
0.0
 74
0
 49
-3.0
 74
0
  0
LTYPE
  5
40
100
AcDbSymbolTableRecord
100
AcDbLinetypeTableRecord
  2
DIVIDE2
 70
0
  3
Divide (.5x) __..__..__..__..__..__..__..__.._
 72
65
 73
6
 40
15.875
 49
6.3499999999999996
 74
0
 49
-3.1749999999999998
 74
0
 49
0.0
 74
0
 49
-3.1749999999999998
 74
0
 49
0.0
 74
0
 49
-3.1749999999999998
 74
0
  0
LTYPE
  5
41
100
AcDbSymbolTableRecord
100
AcDbLinetypeTableRecord
  2
PHANTOM
 70
0
  3
Phantom ______  __  __  ______  __  __  ______ 
 72
65
 73
6
 40
63.5000000000000071
 49
31.75
 74
0
 49
-6.3499999999999996
 74
0
 49
6.3499999999999996
 74
0
 49
-6.3499999999999996
 74
0
 49
6.3499999999999996
 74
0
 49
-6.3499999999999996
 74
0
  0
LTYPE
  5
42
100
AcDbSymbolTableRecord
100
AcDbLinetypeTableRecord
  2
ACAD_ISO07W100
 70
0
  3
ISO dot . . . . . . . . . . . . . . . . . . . . 
 72
65
 73
2
 40
3.0
 49
0.0
 74
0
 49
-3.0
 74
0
  0
LTYPE
  5
43
100
AcDbSymbolTableRecord
100
AcDbLinetypeTableRecord
  2
CENTER
 70
0
  3
Center ____ _ ____ _ ____ _ ____ _ ____ _ ____
 72
65
 73
4
 40
50.8000000000000043
 49
31.75
 74
0
 49
-6.3499999999999996
 74
0
 49
6.3499999999999996
 74
0
 49
-6.3499999999999996
 74
0
  0
LTYPE
  5
44
100
AcDbSymbolTableRecord
100
AcDbLinetypeTableRecord
  2
PHANTOM2
 70
0
  3
Phantom (.5x) ___ _ _ ___ _ _ ___ _ _ ___ _ _
 72
65
 73
6
 40
31.7500000000000036
 49
15.875
 74
0
 49
-3.1749999999999998
 74
0
 49
3.1749999999999998
 74
0
 49
-3.1749999999999998
 74
0
 49
3.1749999999999998
 74
0
 49
-3.1749999999999998
 74
0
  0
LTYPE
  5
45
100
AcDbSymbolTableRecord
100
AcDbLinetypeTableRecord
  2
DASHED
 70
0
  3
Dashed __ __ __ __ __ __ __ __ __ __ __ __ __ _
 72
65
 73
2
 40
19.0499999999999972
 49
12.6999999999999993
 74
0
 49
-6.3499999999999996
 74
0
  0
LTYPE
  5
46
100
AcDbSymbolTableRecord
100
AcDbLinetypeTableRecord
  2
HIDDEN2
 70
0
  3
Hidden (.5x) _ _ _ _ _ _ _ _ _ _ _ _ _ _ _ _ _ 
 72
65
 73
2
 40
4.7624999999999993
 49
3.1749999999999998
 74
0
 49
-1.5874999999999999
 74
0
  0
LTYPE
  5
47
100
AcDbSymbolTableRecord
100
AcDbLinetypeTableRecord
  2
DIVIDEX2
 70
0
  3
Divide (2x) ________  .  .  ________  .  .  _
 72
65
 73
6
 40
63.5
 49
25.3999999999999986
 74
0
 49
-12.6999999999999993
 74
0
 49
0.0
 74
0
 49
-12.6999999999999993
 74
0
 49
0.0
 74
0
 49
-12.6999999999999993
 74
0
  0
LTYPE
  5
48
100
AcDbSymbolTableRecord
100
AcDbLinetypeTableRecord
  2
DOT2
 70
0
  3
Dot (.5x) ........................................
 72
65
 73
2
 40
3.1749999999999998
 49
0.0
 74
0
 49
-3.1749999999999998
 74
0
  0
LTYPE
  5
49
100
AcDbSymbolTableRecord
100
AcDbLinetypeTableRecord
  2
PHANTOMX2
 70
0
  3
Phantom (2x) ____________    ____    ____   _
 72
65
 73
6
 40
127.0000000000000142
 49
63.5
 74
0
 49
-12.6999999999999993
 74
0
 49
12.6999999999999993
 74
0
 49
-12.6999999999999993
 74
0
 49
12.6999999999999993
 74
0
 49
-12.6999999999999993
 74
0
  0
LTYPE
  5
15
100
AcDbSymbolTableRecord
100
AcDbLinetypeTableRecord
  2
BYLAYER
 70
0
  3

 72
65
 73
0
 40
0.0
  0
LTYPE
  5
4A
100
AcDbSymbolTableRecord
100
AcDbLinetypeTableRecord
  2
ACAD_ISO08W100
 70
0
  3
ISO long-dash short-dash ____ __ ____ __ ____ _
 72
65
 73
4
 40
36.0
 49
24.0
 74
0
 49
-3.0
 74
0
 49
6.0
 74
0
 49
-3.0
 74
0
  0
LTYPE
  5
4B
100
AcDbSymbolTableRecord
100
AcDbLinetypeTableRecord
  2
ACAD_ISO03W100
 70
0
  3
ISO dash space __    __    __    __    __    __
 72
65
 73
2
 40
30.0
 49
12.0
 74
0
 49
-18.0
 74
0
  0
LTYPE
  5
4C
100
AcDbSymbolTableRecord
100
AcDbLinetypeTableRecord
  2
DASHDOT
 70
0
  3
Dash dot __ . __ . __ . __ . __ . __ . __ . __
 72
65
 73
4
 40
25.3999999999999986
 49
12.6999999999999993
 74
0
 49
-6.3499999999999996
 74
0
 49
0.0
 74
0
 49
-6.3499999999999996
 74
0
  0
LTYPE
  5
4D
100
AcDbSymbolTableRecord
100
AcDbLinetypeTableRecord
  2
HIDDEN
 70
0
  3
Hidden __ __ __ __ __ __ __ __ __ __ __ __ __ __
 72
65
 73
2
 40
9.5249999999999986
 49
6.3499999999999996
 74
0
 49
-3.1749999999999998
 74
0
  0
LTYPE
  5
4E
100
AcDbSymbolTableRecord
100
AcDbLinetypeTableRecord
  2
BORDER
 70
0
  3
Border __ __ . __ __ . __ __ . __ __ . __ __ .
 72
65
 73
6
 40
44.4499999999999957
 49
12.6999999999999993
 74
0
 49
-6.3499999999999996
 74
0
 49
12.6999999999999993
 74
0
 49
-6.3499999999999996
 74
0
 49
0.0
 74
0
 49
-6.3499999999999996
 74
0
  0
LTYPE
  5
4F
100
AcDbSymbolTableRecord
100
AcDbLinetypeTableRecord
  2
ACAD_ISO14W100
 70
0
  3
ISO dash triple-dot __ . . . __ . . . __ . . . _
 72
65
 73
8
 40
24.0
 49
12.0
 74
0
 49
-3.0
 74
0
 49
0.0
 74
0
 49
-3.0
 74
0
 49
0.0
 74
0
 49
-3.0
 74
0
 49
0.0
 74
0
 49
-3.0
 74
0
  0
LTYPE
  5
50
100
AcDbSymbolTableRecord
100
AcDbLinetypeTableRecord
  2
ACAD_ISO12W100
 70
0
  3
ISO dash double-dot __ . . __ . . __ . . __ . . 
 72
65
 73
6
 40
21.0
 49
12.0
 74
0
 49
-3.0
 74
0
 49
0.0
 74
0
 49
-3.0
 74
0
 49
0.0
 74
0
 49
-3.0
 74
0
  0
LTYPE
  5
51
100
AcDbSymbolTableRecord
100
AcDbLinetypeTableRecord
  2
DASHDOTX2
 70
0
  3
Dash dot (2x) ____  .  ____  .  ____  .  ___
 72
65
 73
4
 40
50.7999999999999972
 49
25.3999999999999986
 74
0
 49
-12.6999999999999993
 74
0
 49
0.0
 74
0
 49
-12.6999999999999993
 74
0
  0
LTYPE
  5
52
100
AcDbSymbolTableRecord
100
AcDbLinetypeTableRecord
  2
ACAD_ISO13W100
 70
0
  3
ISO double-dash double-dot __ __ . . __ __ . . _
 72
65
 73
8
 40
36.0
 49
12.0
 74
0
 49
-3.0
 74
0
 49
12.0
 74
0
 49
-3.0
 74
0
 49
0.0
 74
0
 49
-3.0
 74
0
 49
0.0
 74
0
 49
-3.0
 74
0
  0
LTYPE
  5
53
100
AcDbSymbolTableRecord
100
AcDbLinetypeTableRecord
  2
CENTER2
 70
0
  3
Center (.5x) ___ _ ___ _ ___ _ ___ _ ___ _ ___
 72
65
 73
4
 40
28.5750000000000028
 49
19.0500000000000007
 74
0
 49
-3.1749999999999998
 74
0
 49
3.1749999999999998
 74
0
 49
-3.1749999999999998
 74
0
  0
LTYPE
  5
54
100
AcDbSymbolTableRecord
100
AcDbLinetypeTableRecord
  2
ACAD_ISO15W100
 70
0
  3
ISO double-dash triple-dot __ __ . . . __ __ . .
 72
65
 73
10
 40
39.0
 49
12.0
 74
0
 49
-3.0
 74
0
 49
12.0
 74
0
 49
-3.0
 74
0
 49
0.0
 74
0
 49
-3.0
 74
0
 49
0.0
 74
0
 49
-3.0
 74
0
 49
0.0
 74
0
 49
-3.0
 74
0
  0
LTYPE
  5
55
100
AcDbSymbolTableRecord
100
AcDbLinetypeTableRecord
  2
DIVIDE
 70
0
  3
Divide ____ . . ____ . . ____ . . ____ . . ____
 72
65
 73
6
 40
31.75
 49
12.6999999999999993
 74
0
 49
-6.3499999999999996
 74
0
 49
0.0
 74
0
 49
-6.3499999999999996
 74
0
 49
0.0
 74
0
 49
-6.3499999999999996
 74
0
  0
LTYPE
  5
56
100
AcDbSymbolTableRecord
100
AcDbLinetypeTableRecord
  2
BORDER2
 70
0
  3
Border (.5x) __.__.__.__.__.__.__.__.__.__.__.
 72
65
 73
6
 40
22.2249999999999979
 49
6.3499999999999996
 74
0
 49
-3.1749999999999998
 74
0
 49
6.3499999999999996
 74
0
 49
-3.1749999999999998
 74
0
 49
0.0
 74
0
 49
-3.1749999999999998
 74
0
  0
ENDTAB
  0
TABLE
  2
LAYER
  5
2
100
AcDbSymbolTable
 70
3
  0
LAYER
  5
57
100
AcDbSymbolTableRecord
100
AcDbLayerTableRecord
  2
6200002991_5
 70
0
 62
7
420
16777215
  6
Continuous
370
-3
390
F
  0
LAYER
  5
58
100
AcDbSymbolTableRecord
100
AcDbLayerTableRecord
  2
Default
 70
0
 62
7
420
16777215
  6
Continuous
370
-3
390
F
  0
LAYER
  5
10
100
AcDbSymbolTableRecord
100
AcDbLayerTableRecord
  2
0
 70
0
 62
7
420
16777215
  6
Continuous
370
25
390
F
  0
ENDTAB
  0
TABLE
  2
STYLE
  5
3
100
AcDbSymbolTable
 70
1
  0
STYLE
  5
59
100
AcDbSymbolTableRecord
100
AcDbTextStyleTableRecord
  2
Standard
 70
0
 40
0.0
 41
1.0
 50
0.0
 71
0
 42
2.5
  3

  4

1001
ACAD
1000
txt
1071
0
  0
ENDTAB
  0
TABLE
  2
VIEW
  5
6
100
AcDbSymbolTable
 70
0
  0
ENDTAB
  0
TABLE
  2
UCS
  5
7
100
AcDbSymbolTable
 70
0
  0
ENDTAB
  0
TABLE
  2
APPID
  5
9
100
AcDbSymbolTable
 70
1
  0
APPID
  5
12
100
AcDbSymbolTableRecord
100
AcDbRegAppTableRecord
  2
ACAD
 70
0
  0
APPID
  5
5A
100
AcDbSymbolTableRecord
100
AcDbRegAppTableRecord
  2
QCAD
 70
0
  0
ENDTAB
  0
TABLE
  2
DIMSTYLE
  5
A
100
AcDbSymbolTable
 70
1
100
AcDbDimStyleTable
 71
0
  0
DIMSTYLE
105
27
100
AcDbSymbolTableRecord
100
AcDbDimStyleTableRecord
  2
Standard
 41
2.5
 42
0.625
 43
3.75
 44
1.25
 70
0
 73
0
 74
0
 77
1
 78
8
140
2.5
141
2.5
143
0.03937007874016
147
0.625
171
3
172
1
271
2
272
2
274
3
278
44
283
0
284
8
340
59
  0
ENDTAB
  0
TABLE
  2
BLOCK_RECORD
  5
1
100
AcDbSymbolTable
 70
1
  0
BLOCK_RECORD
  5
1F
100
AcDbSymbolTableRecord
100
AcDbBlockTableRecord
  2
*Model_Space
340
22
  0
BLOCK_RECORD
  5
1B
100
AcDbSymbolTableRecord
100
AcDbBlockTableRecord
  2
*Paper_Space
340
1E
  0
BLOCK_RECORD
  5
23
100
AcDbSymbolTableRecord
100
AcDbBlockTableRecord
  2
*Paper_Space0
340
26
  0
BLOCK_RECORD
  5
5B
100
AcDbSymbolTableRecord
100
AcDbBlockTableRecord
  2
SE4
340
0
  0
ENDTAB
  0
ENDSEC
  0
SECTION
  2
BLOCKS
  0
BLOCK
  5
20
100
AcDbEntity
  8
0
100
AcDbBlockBegin
  2
*Model_Space
 70
0
 10
0.0
 20
0.0
 30
0.0
  3
*Model_Space
  1

  0
ENDBLK
  5
21
100
AcDbEntity
  8
0
100
AcDbBlockEnd
  0
BLOCK
  5
1C
100
AcDbEntity
 67
1
  8
0
100
AcDbBlockBegin
  2
*Paper_Space
 70
0
 10
0.0
 20
0.0
 30
0.0
  3
*Paper_Space
  1

  0
ENDBLK
  5
1D
100
AcDbEntity
 67
1
  8
0
100
AcDbBlockEnd
  0
BLOCK
  5
24
100
AcDbEntity
  8
0
100
AcDbBlockBegin
  2
*Paper_Space0
 70
0
 10
0.0
 20
0.0
 30
0.0
  3
*Paper_Space0
  1

  0
ENDBLK
  5
25
100
AcDbEntity
  8
0
100
AcDbBlockEnd
  0
BLOCK
  5
5C
100
AcDbEntity
  8
0
100
AcDbBlockBegin
  2
SE4
 70
0
 10
0.0
 20
0.0
 30
0.0
  3
SE4
  1

  0
LINE
  5
5D
100
AcDbEntity
  8
6200002991_5
 62
7
420
16777215
370
-1
 48
1.0
  6
Continuous
100
AcDbLine
 10
40.9438341123999976
 20
51.6219610229999972
 30
0.0
 11
830.9438341124000544
 21
51.6219610229999972
 31
0.0
  0
LINE
  5
5E
100
AcDbEntity
  8
6200002991_5
 62
7
420
16777215
370
-1
 48
1.0
  6
Continuous
100
AcDbLine
 10
830.9438341124000544
 20
51.6219610229999972
 30
0.0
 11
830.9438341124000544
 21
101.6219610229999972
 31
0.0
  0
LINE
  5
5F
100
AcDbEntity
  8
6200002991_5
 62
7
420
16777215
370
-1
 48
1.0
  6
Continuous
100
AcDbLine
 10
830.9438341124000544
 20
101.6219610229999972
 30
0.0
 11
720.2738341123999817
 21
101.6219610229999972
 31
0.0
  0
LINE
  5
60
100
AcDbEntity
  8
6200002991_5
 62
7
420
16777215
370
-1
 48
1.0
  6
Continuous
100
AcDbLine
 10
40.9438341123999976
 20
101.6219610229999972
 30
0.0
 11
40.9438341123999976
 21
51.6219610229999972
 31
0.0
  0
LINE
  5
61
100
AcDbEntity
  8
6200002991_5
 62
7
420
16777215
370
-1
 48
1.0
  6
Continuous
100
AcDbLine
 10
151.6138341124000135
 20
101.6219610229999972
 30
0.0
 11
40.9438341123999976
 21
101.6219610229999972
 31
0.0
  0
LINE
  5
62
100
AcDbEntity
  8
6200002991_5
 62
7
420
16777215
370
-1
 48
1.0
  6
Continuous
100
AcDbLine
 10
153.6138341124000135
 20
101.6219610229999972
 30
0.0
 11
153.6138341124000135
 21
76.6219610229999972
 31
0.0
  0
LINE
  5
63
100
AcDbEntity
  8
6200002991_5
 62
7
420
16777215
370
-1
 48
1.0
  6
Continuous
100
AcDbLine
 10
153.6138341124000135
 20
76.6219610229999972
 30
0.0
 11
151.6138341124000135
 21
76.6219610229999972
 31
0.0
  0
LINE
  5
64
100
AcDbEntity
  8
6200002991_5
 62
7
420
16777215
370
-1
 48
1.0
  6
Continuous
100
AcDbLine
 10
151.6138341124000135
 20
76.6219610229999972
 30
0.0
 11
151.6138341124000135
 21
101.6219610229999972
 31
0.0
  0
LINE
  5
65
100
AcDbEntity
  8
6200002991_5
 62
7
420
16777215
370
-1
 48
1.0
  6
Continuous
100
AcDbLine
 10
264.9458341124000071
 20
101.6219610229999972
 30
0.0
 11
153.6138341124000135
 21
101.6219610229999972
 31
0.0
  0
LINE
  5
66
100
AcDbEntity
  8
6200002991_5
 62
7
420
16777215
370
-1
 48
1.0
  6
Continuous
100
AcDbLine
 10
264.9458341124000071
 20
76.6219610229999972
 30
0.0
 11
264.9458341124000071
 21
101.6219610229999972
 31
0.0
  0
LINE
  5
67
100
AcDbEntity
  8
6200002991_5
 62
7
420
16777215
370
-1
 48
1.0
  6
Continuous
100
AcDbLine
 10
266.9458341124000071
 20
76.6219610229999972
 30
0.0
 11
264.9458341124000071
 21
76.6219610229999972
 31
0.0
  0
LINE
  5
68
100
AcDbEntity
  8
6200002991_5
 62
7
420
16777215
370
-1
 48
1.0
  6
Continuous
100
AcDbLine
 10
266.9458341124000071
 20
101.6219610229999972
 30
0.0
 11
266.9458341124000071
 21
76.6219610229999972
 31
0.0
  0
LINE
  5
69
100
AcDbEntity
  8
6200002991_5
 62
7
420
16777215
370
-1
 48
1.0
  6
Continuous
100
AcDbLine
 10
378.2778341124000008
 20
101.6219610229999972
 30
0.0
 11
266.9458341124000071
 21
101.6219610229999972
 31
0.0
  0
LINE
  5
6A
100
AcDbEntity
  8
6200002991_5
 62
7
420
16777215
370
-1
 48
1.0
  6
Continuous
100
AcDbLine
 10
378.2778341124000008
 20
76.6219610229999972
 30
0.0
 11
378.2778341124000008
 21
101.6219610229999972
 31
0.0
  0
LINE
  5
6B
100
AcDbEntity
  8
6200002991_5
 62
7
420
16777215
370
-1
 48
1.0
  6
Continuous
100
AcDbLine
 10
380.2778341124000008
 20
76.6219610229999972
 30
0.0
 11
378.2778341124000008
 21
76.6219610229999972
 31
0.0
  0
LINE
  5
6C
100
AcDbEntity
  8
6200002991_5
 62
7
420
16777215
370
-1
 48
1.0
  6
Continuous
100
AcDbLine
 10
380.2778341124000008
 20
101.6219610229999972
 30
0.0
 11
380.2778341124000008
 21
76.6219610229999972
 31
0.0
  0
LINE
  5
6D
100
AcDbEntity
  8
6200002991_5
 62
7
420
16777215
370
-1
 48
1.0
  6
Continuous
100
AcDbLine
 10
491.6098341123999944
 20
101.6219610229999972
 30
0.0
 11
380.2778341124000008
 21
101.6219610229999972
 31
0.0
  0
LINE
  5
6E
100
AcDbEntity
  8
6200002991_5
 62
7
420
16777215
370
-1
 48
1.0
  6
Continuous
100
AcDbLine
 10
491.6098341123999944
 20
76.6219610229999972
 30
0.0
 11
491.6098341123999944
 21
101.6219610229999972
 31
0.0
  0
LINE
  5
6F
100
AcDbEntity
  8
6200002991_5
 62
7
420
16777215
370
-1
 48
1.0
  6
Continuous
100
AcDbLine
 10
493.6098341123999944
 20
76.6219610229999972
 30
0.0
 11
491.6098341123999944
 21
76.6219610229999972
 31
0.0
  0
LINE
  5
70
100
AcDbEntity
  8
6200002991_5
 62
7
420
16777215
370
-1
 48
1.0
  6
Continuous
100
AcDbLine
 10
493.6098341123999944
 20
101.6219610229999972
 30
0.0
 11
493.6098341123999944
 21
76.6219610229999972
 31
0.0
  0
LINE
  5
71
100
AcDbEntity
  8
6200002991_5
 62
7
420
16777215
370
-1
 48
1.0
  6
Continuous
100
AcDbLine
 10
604.941834112399988
 20
101.6219610229999972
 30
0.0
 11
493.6098341123999944
 21
101.6219610229999972
 31
0.0
  0
LINE
  5
72
100
AcDbEntity
  8
6200002991_5
 62
7
420
16777215
370
-1
 48
1.0
  6
Continuous
100
AcDbLine
 10
604.941834112399988
 20
76.6219610229999972
 30
0.0
 11
604.941834112399988
 21
101.6219610229999972
 31
0.0
  0
LINE
  5
73
100
AcDbEntity
  8
6200002991_5
 62
7
420
16777215
370
-1
 48
1.0
  6
Continuous
100
AcDbLine
 10
606.941834112399988
 20
76.6219610229999972
 30
0.0
 11
604.941834112399988
 21
76.6219610229999972
 31
0.0
  0
LINE
  5
74
100
AcDbEntity
  8
6200002991_5
 62
7
420
16777215
370
-1
 48
1.0
  6
Continuous
100
AcDbLine
 10
606.941834112399988
 20
101.6219610229999972
 30
0.0
 11
606.941834112399988
 21
76.6219610229999972
 31
0.0
  0
LINE
  5
75
100
AcDbEntity
  8
6200002991_5
 62
7
420
16777215
370
-1
 48
1.0
  6
Continuous
100
AcDbLine
 10
718.2738341123999817
 20
101.6219610229999972
 30
0.0
 11
606.941834112399988
 21
101.6219610229999972
 31
0.0
  0
LINE
  5
76
100
AcDbEntity
  8
6200002991_5
 62
7
420
16777215
370
-1
 48
1.0
  6
Continuous
100
AcDbLine
 10
718.2738341123999817
 20
76.6219610229999972
 30
0.0
 11
718.2738341123999817
 21
101.6219610229999972
 31
0.0
  0
LINE
  5
77
100
AcDbEntity
  8
6200002991_5
 62
7
420
16777215
370
-1
 48
1.0
  6
Continuous
100
AcDbLine
 10
720.2738341123999817
 20
76.6219610229999972
 30
0.0
 11
718.2738341123999817
 21
76.6219610229999972
 31
0.0
  0
LINE
  5
78
100
AcDbEntity
  8
6200002991_5
 62
7
420
16777215
370
-1
 48
1.0
  6
Continuous
100
AcDbLine
 10
720.2738341123999817
 20
101.6219610229999972
 30
0.0
 11
720.2738341123999817
 21
76.6219610229999972
 31
0.0
  0
LINE
  5
79
100
AcDbEntity
  8
6200002991_5
 62
7
420
16777215
370
-1
 48
1.0
  6
Continuous
100
AcDbLine
 10
402.4555437143000063
 20
60.5098884235000014
 30
0.0
 11
402.4555437143000063
 21
61.872886081499999
 31
0.0
  0
SPLINE
  5
7A
100
AcDbEntity
  8
6200002991_5
 62
7
420
16777215
370
-1
 48
1.0
  6
Continuous
100
AcDbSpline
 70
8
 71
3
 72
32
 73
28
 74
0
 40
0.0
 40
0.0
 40
0.0
 40
0.0
 40
0.0767292189618942
 40
0.0767292189618942
 40
0.0767292189618942
 40
0.1621023515642115
 40
0.1621023515642115
 40
0.1621023515642115
 40
0.2574026842977408
 40
0.2574026842977408
 40
0.2574026842977408
 40
0.3586993936810259
 40
0.3586993936810259
 40
0.4799233245823346
 40
0.4799233245823346
 40
0.601147255483643
 40
0.601147255483643
 40
0.7446368063464158
 40
0.7446368063464158
 40
0.7446368063464158
 40
0.8535345520750885
 40
0.8535345520750885
 40
0.8535345520750885
 40
0.9240211295714166
 40
0.9240211295714166
 40
0.9240211295714166
 40
1.0
 40
1.0
 40
1.0
 40
1.0
 10
402.4555437143199015
 20
61.872886081545829
 30
0.0
 10
402.7787287260294988
 20
61.9150406482905566
 30
0.0
 10
403.0386818876219763
 20
61.9923240206559001
 30
0.0
 10
403.228377437973279
 20
62.0977104375177333
 30
0.0
 10
403.4675847200201133
 20
62.2306033719881526
 30
0.0
 10
403.6288458220482198
 20
62.4771015382203032
 30
0.0
 10
403.7061291944136201
 20
62.8283895944263975
 30
0.0
 10
403.7819382559745236
 20
63.1729762378853295
 30
0.0
 10
403.8396186557719147
 20
63.5028626623420678
 30
0.0
 10
403.8747474613924737
 20
63.8190219129275675
 30
0.0
 10
403.9084197067800233
 20
64.1220721214155986
 30
0.0
 10
403.9309535503854818
 20
64.4934949808432521
 30
0.0
 10
403.9309535503854818
 20
65.4349469714755685
 30
0.0
 10
403.9309535503854818
 20
65.9056729667917267
 30
0.0
 10
403.9309535503854818
 20
66.7628158239345879
 30
0.0
 10
403.9309535503854818
 20
67.1562584468854169
 30
0.0
 10
403.9309535503854818
 20
67.9080148871664449
 30
0.0
 10
403.9098762670130895
 20
68.3927924047308409
 30
0.0
 10
403.860695939144307
 20
68.9548532946605803
 30
0.0
 10
403.812179076700204
 20
69.5093317225925205
 30
0.0
 10
403.7693610445306263
 20
69.8892795241687708
 30
0.0
 10
403.7131549555376751
 20
70.0930265967683113
 30
0.0
 10
403.6592467950450214
 20
70.2884436785543869
 30
0.0
 10
403.5023821218139801
 20
70.4724176974709025
 30
0.0
 10
403.2354031990973908
 20
70.6410359644498129
 30
0.0
 10
403.0805025568084261
 20
70.7388679490534287
 30
0.0
 10
402.8208832927742264
 20
70.7815511869322478
 30
0.0
 10
402.4555437143199015
 20
70.7815511869322478
 30
0.0
  0
LINE
  5
7B
100
AcDbEntity
  8
6200002991_5
 62
7
420
16777215
370
-1
 48
1.0
  6
Continuous
100
AcDbLine
 10
402.4555437143000063
 20
70.7815511869000034
 30
0.0
 11
402.4555437143000063
 21
72.1304973227999966
 31
0.0
  0
SPLINE
  5
7C
100
AcDbEntity
  8
6200002991_5
 62
7
420
16777215
370
-1
 48
1.0
  6
Continuous
100
AcDbSpline
 70
8
 71
3
 72
47
 73
43
 74
0
 40
0.0
 40
0.0
 40
0.0
 40
0.0
 40
0.0572490204446905
 40
0.0572490204446905
 40
0.1144980408893786
 40
0.1144980408893786
 40
0.1144980408893786
 40
0.1553375492524585
 40
0.1553375492524585
 40
0.1553375492524585
 40
0.1941091789292768
 40
0.1941091789292768
 40
0.1941091789292768
 40
0.2271981451960099
 40
0.2271981451960099
 40
0.2271981451960099
 40
0.2683198114639101
 40
0.2683198114639101
 40
0.2683198114639101
 40
0.3668687071833111
 40
0.3668687071833111
 40
0.3668687071833111
 40
0.5022561109540309
 40
0.5022561109540309
 40
0.7515207702328324
 40
0.7515207702328324
 40
0.7515207702328324
 40
0.8119160464019305
 40
0.8119160464019305
 40
0.8119160464019305
 40
0.8423965364932717
 40
0.8423965364932717
 40
0.8423965364932717
 40
0.8754235260842165
 40
0.8754235260842165
 40
0.8754235260842165
 40
0.917176663876019
 40
0.917176663876019
 40
0.9589298016678216
 40
0.9589298016678216
 40
0.9589298016678216
 40
1.0
 40
1.0
 40
1.0
 40
1.0
 10
402.4555437143199015
 20
72.130497322763631
 30
0.0
 10
402.9613985152566897
 20
72.130497322763631
 30
0.0
 10
403.3407896159591814
 20
72.1164458005153932
 30
0.0
 10
403.8747474613924737
 20
72.0602397115224136
 30
0.0
 10
404.1276748618608963
 20
72.018085144777686
 30
0.0
 10
404.3595249789569266
 20
71.9478275335364543
 30
0.0
 10
404.5978099605308103
 20
71.8756199633625528
 30
0.0
 10
404.802147929776595
 20
71.7862350276816699
 30
0.0
 10
404.9848177190036722
 20
71.6738228496957106
 30
0.0
 10
405.1706234702776896
 20
71.5594808489117327
 30
0.0
 10
405.3290800140857186
 20
71.4138696881032047
 30
0.0
 10
405.4695952365681819
 20
71.24525142112428
 30
0.0
 10
405.6066551666945088
 20
71.0807795049727105
 30
0.0
 10
405.7225226370364908
 20
70.9290921705388087
 30
0.0
 10
405.7927802482777793
 20
70.7956027091804856
 30
0.0
 10
405.8659335094400262
 20
70.656611512972276
 30
0.0
 10
405.9262697096360739
 20
70.4372888918502724
 30
0.0
 10
405.982475798629082
 20
70.1351811635130389
 30
0.0
 10
406.0384468386350818
 20
69.8343368234803989
 30
0.0
 10
406.0878622154908726
 20
69.2850640674943037
 30
0.0
 10
406.137042543359712
 20
68.4911530604685481
 30
0.0
 10
406.1858161685639743
 20
67.7038073964561136
 30
0.0
 10
406.2143259157251123
 20
66.9314340909135126
 30
0.0
 10
406.2143259157251123
 20
64.7956027091804856
 30
0.0
 10
406.108939498863208
 20
63.4255792899767528
 30
0.0
 10
405.8841151428912895
 20
62.0625816318971175
 30
0.0
 10
405.832043821541788
 20
61.7468992462156692
 30
0.0
 10
405.68036807029182
 20
61.4513404140985173
 30
0.0
 10
405.4344664309476229
 20
61.1703099691336476
 30
0.0
 10
405.3395875683332861
 20
61.0618769832887978
 30
0.0
 10
405.2096420749755907
 20
60.9525113742858835
 30
0.0
 10
405.0410238079966803
 20
60.8471249574240503
 30
0.0
 10
404.8692478955687761
 20
60.7397650121565675
 30
0.0
 10
404.7037872740389162
 20
60.6644551681968878
 30
0.0
 10
404.535169007059892
 20
60.6293263625762719
 30
0.0
 10
404.3584144177143003
 20
60.5925024897959332
 30
0.0
 10
404.1838809508539043
 20
60.5590687513350474
 30
0.0
 10
403.8044898501512989
 20
60.5169141845903269
 30
0.0
 10
403.5234594051863724
 20
60.5098884234662009
 30
0.0
 10
403.1440683044838238
 20
60.5098884234662009
 30
0.0
 10
402.9145601077626111
 20
60.5098884234662009
 30
0.0
 10
402.6850519110412279
 20
60.5098884234662009
 30
0.0
 10
402.4555437143199015
 20
60.5098884234662009
 30
0.0
  0
LINE
  5
7D
100
AcDbEntity
  8
6200002991_5
 62
7
420
16777215
370
-1
 48
1.0
  6
Continuous
100
AcDbLine
 10
413.8021479298000145
 20
72.1304973227999966
 30
0.0
 11
413.8021479298000145
 21
60.5098884235000014
 31
0.0
  0
LINE
  5
7E
100
AcDbEntity
  8
6200002991_5
 62
7
420
16777215
370
-1
 48
1.0
  6
Continuous
100
AcDbLine
 10
413.8021479298000145
 20
60.5098884235000014
 30
0.0
 11
412.1932486324000138
 21
60.5098884235000014
 31
0.0
  0
LINE
  5
7F
100
AcDbEntity
  8
6200002991_5
 62
7
420
16777215
370
-1
 48
1.0
  6
Continuous
100
AcDbLine
 10
412.1932486324000138
 20
60.5098884235000014
 30
0.0
 11
409.937979311499987
 21
65.3787408824999972
 31
0.0
  0
LINE
  5
80
100
AcDbEntity
  8
6200002991_5
 62
7
420
16777215
370
-1
 48
1.0
  6
Continuous
100
AcDbLine
 10
409.937979311499987
 20
65.3787408824999972
 30
0.0
 11
409.8115156113000239
 21
65.3787408824999972
 31
0.0
  0
LINE
  5
81
100
AcDbEntity
  8
6200002991_5
 62
7
420
16777215
370
-1
 48
1.0
  6
Continuous
100
AcDbLine
 10
409.8115156113000239
 20
65.3787408824999972
 30
0.0
 11
409.8115156113000239
 21
60.5098884235000014
 31
0.0
  0
LINE
  5
82
100
AcDbEntity
  8
6200002991_5
 62
7
420
16777215
370
-1
 48
1.0
  6
Continuous
100
AcDbLine
 10
409.8115156113000239
 20
60.5098884235000014
 30
0.0
 11
407.5843493349000255
 21
60.5098884235000014
 31
0.0
  0
LINE
  5
83
100
AcDbEntity
  8
6200002991_5
 62
7
420
16777215
370
-1
 48
1.0
  6
Continuous
100
AcDbLine
 10
407.5843493349000255
 20
60.5098884235000014
 30
0.0
 11
407.5843493349000255
 21
72.1304973227999966
 31
0.0
  0
LINE
  5
84
100
AcDbEntity
  8
6200002991_5
 62
7
420
16777215
370
-1
 48
1.0
  6
Continuous
100
AcDbLine
 10
407.5843493349000255
 20
72.1304973227999966
 30
0.0
 11
409.2213516767999977
 21
72.1304973227999966
 31
0.0
  0
LINE
  5
85
100
AcDbEntity
  8
6200002991_5
 62
7
420
16777215
370
-1
 48
1.0
  6
Continuous
100
AcDbLine
 10
409.2213516767999977
 20
72.1304973227999966
 30
0.0
 11
411.4625694754000165
 21
67.2475933414999929
 31
0.0
  0
LINE
  5
86
100
AcDbEntity
  8
6200002991_5
 62
7
420
16777215
370
-1
 48
1.0
  6
Continuous
100
AcDbLine
 10
411.4625694754000165
 20
67.2475933414999929
 30
0.0
 11
411.5749816534000161
 21
67.2475933414999929
 31
0.0
  0
LINE
  5
87
100
AcDbEntity
  8
6200002991_5
 62
7
420
16777215
370
-1
 48
1.0
  6
Continuous
100
AcDbLine
 10
411.5749816534000161
 20
67.2475933414999929
 30
0.0
 11
411.5749816534000161
 21
72.1304973227999966
 31
0.0
  0
LINE
  5
88
100
AcDbEntity
  8
6200002991_5
 62
7
420
16777215
370
-1
 48
1.0
  6
Continuous
100
AcDbLine
 10
411.5749816534000161
 20
72.1304973227999966
 30
0.0
 11
413.8021479298000145
 21
72.1304973227999966
 31
0.0
  0
LINE
  5
89
100
AcDbEntity
  8
6200002991_5
 62
7
420
16777215
370
-1
 48
1.0
  6
Continuous
100
AcDbLine
 10
419.5562462903999972
 20
72.1304973227999966
 30
0.0
 11
419.5562462903999972
 21
60.5098884235000014
 31
0.0
  0
LINE
  5
8A
100
AcDbEntity
  8
6200002991_5
 62
7
420
16777215
370
-1
 48
1.0
  6
Continuous
100
AcDbLine
 10
419.5562462903999972
 20
60.5098884235000014
 30
0.0
 11
417.2377451195000049
 21
60.5098884235000014
 31
0.0
  0
SPLINE
  5
8B
100
AcDbEntity
  8
6200002991_5
 62
7
420
16777215
370
-1
 48
1.0
  6
Continuous
100
AcDbSpline
 70
8
 71
3
 72
22
 73
18
 74
0
 40
0.0
 40
0.0
 40
0.0
 40
0.0
 40
0.6650737710456702
 40
0.6650737710456702
 40
0.6650737710456702
 40
0.731148630980989
 40
0.731148630980989
 40
0.7972234909163084
 40
0.7972234909163084
 40
0.7972234909163084
 40
0.8548649882610907
 40
0.8548649882610907
 40
0.8548649882610907
 40
0.9664691804287758
 40
0.9664691804287758
 40
0.9664691804287758
 40
1.0
 40
1.0
 40
1.0
 40
1.0
 10
417.2377451194722084
 20
60.5098884234662009
 30
0.0
 10
417.2377451194722084
 20
62.7885769480563667
 30
0.0
 10
417.2377451194722084
 20
65.0672654726465254
 30
0.0
 10
417.2377451194722084
 20
67.3459539972366912
 30
0.0
 10
417.2377451194722084
 20
67.7956027091804856
 30
0.0
 10
417.2166678360998162
 20
68.1047361986418451
 30
0.0
 10
417.1183071803620805
 20
68.4279212103514425
 30
0.0
 10
417.0691268524931843
 20
68.5614106717097656
 30
0.0
 10
417.0058950023761213
 20
68.6667970885715988
 30
0.0
 10
416.9036081860102172
 20
68.8372751158480725
 30
0.0
 10
416.7529676019076987
 20
68.9618790557847205
 30
0.0
 10
416.563272051556396
 20
69.0461881892741616
 30
0.0
 10
416.3044777783968016
 20
69.1612078662340082
 30
0.0
 10
415.9309535503854249
 20
69.2429095007495761
 30
0.0
 10
415.4461760328210858
 20
69.2850640674943037
 30
0.0
 10
415.3624996132789988
 20
69.2923402778892807
 30
0.0
 10
415.2494547213457281
 20
69.2850640674943037
 30
0.0
 10
415.1019137377390962
 20
69.2991155897425557
 30
0.0
  0
LINE
  5
8C
100
AcDbEntity
  8
6200002991_5
 62
7
420
16777215
370
-1
 48
1.0
  6
Continuous
100
AcDbLine
 10
415.1019137376999879
 20
69.2991155896999942
 30
0.0
 11
415.1019137376999879
 21
70.2265160581000032
 31
0.0
  0
SPLINE
  5
8D
100
AcDbEntity
  8
6200002991_5
 62
7
420
16777215
370
-1
 48
1.0
  6
Continuous
100
AcDbSpline
 70
8
 71
3
 72
11
 73
7
 74
0
 40
0.0
 40
0.0
 40
0.0
 40
0.0
 40
0.6332571830781567
 40
0.6332571830781567
 40
0.6332571830781567
 40
1.0
 40
1.0
 40
1.0
 40
1.0
 10
415.1019137377390962
 20
70.2265160581266343
 30
0.0
 10
415.9731081171302094
 20
70.3319024749884534
 30
0.0
 10
416.6124523794252923
 20
70.5988813977050853
 30
0.0
 10
417.0199465246244017
 20
71.0415043485247537
 30
0.0
 10
417.2386141178819798
 20
71.2790225963735793
 30
0.0
 10
417.4274406698233975
 20
71.638694044075109
 30
0.0
 10
417.5749816534299725
 20
72.130497322763631
 30
0.0
  0
LINE
  5
8E
100
AcDbEntity
  8
6200002991_5
 62
7
420
16777215
370
-1
 48
1.0
  6
Continuous
100
AcDbLine
 10
417.5749816534000161
 20
72.1304973227999966
 30
0.0
 11
419.5562462903999972
 21
72.1304973227999966
 31
0.0
  0
LINE
  5
8F
100
AcDbEntity
  8
6200002991_5
 62
7
420
16777215
370
-1
 48
1.0
  6
Continuous
100
AcDbLine
 10
423.6944195925000258
 20
70.9290921704999988
 30
0.0
 11
423.6944195925000258
 21
66.6433778848000031
 31
0.0
  0
LINE
  5
90
100
AcDbEntity
  8
6200002991_5
 62
7
420
16777215
370
-1
 48
1.0
  6
Continuous
100
AcDbLine
 10
423.6944195925000258
 20
66.6433778848000031
 30
0.0
 11
421.5515624496999862
 21
66.6433778848000031
 31
0.0
  0
LINE
  5
91
100
AcDbEntity
  8
6200002991_5
 62
7
420
16777215
370
-1
 48
1.0
  6
Continuous
100
AcDbLine
 10
421.5515624496999862
 20
66.6433778848000031
 30
0.0
 11
421.6639746276999858
 21
72.1304973227999966
 31
0.0
  0
LINE
  5
92
100
AcDbEntity
  8
6200002991_5
 62
7
420
16777215
370
-1
 48
1.0
  6
Continuous
100
AcDbLine
 10
421.6639746276999858
 20
72.1304973227999966
 30
0.0
 11
427.5445366885999761
 21
72.1304973227999966
 31
0.0
  0
LINE
  5
93
100
AcDbEntity
  8
6200002991_5
 62
7
420
16777215
370
-1
 48
1.0
  6
Continuous
100
AcDbLine
 10
427.5445366885999761
 20
72.1304973227999966
 30
0.0
 11
427.5445366885999761
 21
70.9290921704999988
 31
0.0
  0
LINE
  5
94
100
AcDbEntity
  8
6200002991_5
 62
7
420
16777215
370
-1
 48
1.0
  6
Continuous
100
AcDbLine
 10
427.5445366885999761
 20
70.9290921704999988
 30
0.0
 11
423.6944195925000258
 21
70.9290921704999988
 31
0.0
  0
SPLINE
  5
95
100
AcDbEntity
  8
6200002991_5
 62
7
420
16777215
370
-1
 48
1.0
  6
Continuous
100
AcDbSpline
 70
8
 71
3
 72
34
 73
30
 74
0
 40
0.0
 40
0.0
 40
0.0
 40
0.0
 40
0.0717897942000687
 40
0.0717897942000687
 40
0.0717897942000687
 40
0.127283636052746
 40
0.127283636052746
 40
0.270755519866995
 40
0.270755519866995
 40
0.270755519866995
 40
0.4602431452162598
 40
0.4602431452162598
 40
0.4602431452162598
 40
0.5904938382406386
 40
0.5904938382406386
 40
0.5904938382406386
 40
0.7221497575925878
 40
0.7221497575925878
 40
0.7221497575925878
 40
0.8067198776940668
 40
0.8067198776940668
 40
0.8067198776940668
 40
0.8954419257030151
 40
0.8954419257030151
 40
0.8954419257030151
 40
0.949738457566183
 40
0.949738457566183
 40
0.949738457566183
 40
1.0
 40
1.0
 40
1.0
 40
1.0
 10
424.2494547213457281
 20
68.1749938098830626
 30
0.0
 10
424.4953563606899252
 20
68.4208954492273307
 30
0.0
 10
424.7623352834066282
 20
68.6035652384544932
 30
0.0
 10
425.0574172506197215
 20
68.7159774164404524
 30
0.0
 10
425.3586345854678825
 20
68.8307268773350245
 30
0.0
 10
425.6546069461700199
 20
68.8845956834193629
 30
0.0
 10
426.6873938314159886
 20
68.8845956834193629
 30
0.0
 10
427.2354031990973908
 20
68.6808486108198224
 30
0.0
 10
427.593717016427604
 20
68.2874059878690218
 30
0.0
 10
427.9587136956114932
 20
67.8866253205298875
 30
0.0
 10
428.1347006229850081
 20
67.0578977911477097
 30
0.0
 10
428.1347006229850081
 20
65.8073123110540195
 30
0.0
 10
428.1347006229850081
 20
65.2148064562530863
 30
0.0
 10
428.1347006229850081
 20
64.622300601452153
 30
0.0
 10
428.1347006229850081
 20
64.0297947466512198
 30
0.0
 10
428.1347006229850081
 20
63.2218322173772123
 30
0.0
 10
428.0995718173643922
 20
62.6246425218268712
 30
0.0
 10
428.0293142061232174
 20
62.2382256600001611
 30
0.0
 10
427.958831770525876
 20
61.8505722642156215
 30
0.0
 10
427.7974640890271871
 20
61.507546503091497
 30
0.0
 10
427.5445366885588214
 20
61.2054387747542634
 30
0.0
 10
427.3008578257864087
 20
60.9143779108872323
 30
0.0
 10
426.9754500375049133
 20
60.6785066904451327
 30
0.0
 10
426.5679558923059176
 20
60.5098884234662009
 30
0.0
 10
426.3726896623221023
 20
60.429088604162601
 30
0.0
 10
426.1323587026103041
 20
60.376398962107892
 30
0.0
 10
425.8513282576453776
 20
60.3272186342390384
 30
0.0
 10
425.578307776848817
 20
60.2794400500996232
 30
0.0
 10
425.3454734567085893
 20
60.256961022997821
 30
0.0
 10
425.1698294286056239
 20
60.256961022997821
 30
0.0
  0
LINE
  5
96
100
AcDbEntity
  8
6200002991_5
 62
7
420
16777215
370
-1
 48
1.0
  6
Continuous
100
AcDbLine
 10
425.1698294285999964
 20
60.2569610230000023
 30
0.0
 11
425.1698294285999964
 21
61.4372888919000033
 31
0.0
  0
SPLINE
  5
97
100
AcDbEntity
  8
6200002991_5
 62
7
420
16777215
370
-1
 48
1.0
  6
Continuous
100
AcDbSpline
 70
8
 71
3
 72
34
 73
30
 74
0
 40
0.0
 40
0.0
 40
0.0
 40
0.0
 40
0.0302251274604584
 40
0.0302251274604584
 40
0.0302251274604584
 40
0.0630802001458228
 40
0.0630802001458228
 40
0.0630802001458228
 40
0.1008633141639944
 40
0.1008633141639944
 40
0.1386464281821686
 40
0.1386464281821686
 40
0.1386464281821686
 40
0.3349608747973676
 40
0.3349608747973676
 40
0.6468623320364691
 40
0.6468623320364691
 40
0.6468623320364691
 40
0.7370189527003747
 40
0.7370189527003747
 40
0.7370189527003747
 40
0.7979295790835479
 40
0.7979295790835479
 40
0.7979295790835479
 40
0.9182095915338163
 40
0.9182095915338163
 40
0.9591047957669073
 40
0.9591047957669073
 40
1.0
 40
1.0
 40
1.0
 40
1.0
 10
425.1698294286056239
 20
61.4372888918502795
 30
0.0
 10
425.2471128009710242
 20
61.4583661752226433
 30
0.0
 10
425.317370412212199
 20
61.4794434585950071
 30
0.0
 10
425.3876280234533738
 20
61.514572264215623
 30
0.0
 10
425.4550753302448811
 20
61.5482959176114122
 30
0.0
 10
425.5211174848117253
 20
61.5988813977050782
 30
0.0
 10
425.5843493349287883
 20
61.6691390089463027
 30
0.0
 10
425.6444370599019749
 20
61.7359031478053524
 30
0.0
 10
425.6967615129146907
 20
61.8237057536769825
 30
0.0
 10
425.7810706464043164
 20
61.9923240206559001
 30
0.0
 10
425.8091736909007068
 20
62.0836589152694884
 30
0.0
 10
425.8161994520248186
 20
62.1890453321313075
 30
0.0
 10
425.8494630113291919
 20
62.6879987216983565
 30
0.0
 10
425.8161994520248186
 20
63.1913872525060185
 30
0.0
 10
425.8161994520248186
 20
64.48881114009383
 30
0.0
 10
425.8161994520248186
 20
65.2850640674943037
 30
0.0
 10
425.8161994520248186
 20
66.0813169948947774
 30
0.0
 10
425.8161994520248186
 20
66.3623474398596471
 30
0.0
 10
425.8021479297764813
 20
66.5941975569556632
 30
0.0
 10
425.774044885280091
 20
66.7698415850586997
 30
0.0
 10
425.7446704081933149
 20
66.9534320668512777
 30
0.0
 10
425.6967615129146907
 20
67.0930265967683113
 30
0.0
 10
425.6335296627976845
 20
67.2124645358783823
 30
0.0
 10
425.5291116616584191
 20
67.4096985380304119
 30
0.0
 10
425.3033188899639185
 20
67.5075465030915041
 30
0.0
 10
424.832592894647803
 20
67.5075465030915041
 30
0.0
 10
424.7131549555376751
 20
67.486469219719126
 30
0.0
 10
424.4602275550693093
 20
67.402160086229685
 30
0.0
 10
424.3478153770834069
 20
67.3389282361125794
 30
0.0
 10
424.2494547213457281
 20
67.2475933414989839
 30
0.0
  0
LINE
  5
98
100
AcDbEntity
  8
6200002991_5
 62
7
420
16777215
370
-1
 48
1.0
  6
Continuous
100
AcDbLine
 10
424.249454721300026
 20
67.2475933414999929
 30
0.0
 11
424.249454721300026
 21
68.1749938099000019
 31
0.0
  0
SPLINE
  5
99
100
AcDbEntity
  8
6200002991_5
 62
7
420
16777215
370
-1
 48
1.0
  6
Continuous
100
AcDbSpline
 70
8
 71
3
 72
16
 73
12
 74
0
 40
0.0
 40
0.0
 40
0.0
 40
0.0
 40
0.1145763515028584
 40
0.1145763515028584
 40
0.1145763515028584
 40
0.4802635597003858
 40
0.4802635597003858
 40
0.8459507678979162
 40
0.8459507678979162
 40
0.8459507678979162
 40
1.0
 40
1.0
 40
1.0
 40
1.0
 10
423.8208832927742833
 20
64.367031280609055
 30
0.0
 10
423.8208832927742264
 20
64.2405675803748721
 30
0.0
 10
423.8208832927742264
 20
64.1141038801406751
 30
0.0
 10
423.8208832927742264
 20
63.9876401799064922
 30
0.0
 10
423.8208832927742264
 20
63.1586003672601208
 30
0.0
 10
423.8489863372706736
 20
62.5965394773303672
 30
0.0
 10
423.9473469930084093
 20
61.9923240206559001
 30
0.0
 10
424.0386818876219763
 20
61.7745254258081218
 30
0.0
 10
424.1721713489803278
 20
61.6340102033256869
 30
0.0
 10
424.2988196947105735
 20
61.5006961551886135
 30
0.0
 10
424.4461760328210858
 20
61.4232373696020275
 30
0.0
 10
424.6147942997999962
 20
61.4021600862296708
 30
0.0
  0
LINE
  5
9A
100
AcDbEntity
  8
6200002991_5
 62
7
420
16777215
370
-1
 48
1.0
  6
Continuous
100
AcDbLine
 10
424.6147942997999962
 20
61.4021600861999985
 30
0.0
 11
424.6147942997999962
 21
60.2569610230000023
 31
0.0
  0
SPLINE
  5
9B
100
AcDbEntity
  8
6200002991_5
 62
7
420
16777215
370
-1
 48
1.0
  6
Continuous
100
AcDbSpline
 70
8
 71
3
 72
20
 73
16
 74
0
 40
0.0
 40
0.0
 40
0.0
 40
0.0
 40
0.142897711114418
 40
0.142897711114418
 40
0.142897711114418
 40
0.2874608433297991
 40
0.2874608433297991
 40
0.2874608433297991
 40
0.5451120701220319
 40
0.5451120701220319
 40
0.5451120701220319
 40
0.9519416635638996
 40
0.9519416635638996
 40
0.9519416635638996
 40
1.0
 40
1.0
 40
1.0
 40
1.0
 10
424.6147942997999962
 20
60.256961022997821
 30
0.0
 10
424.3197123325869029
 20
60.256961022997821
 30
0.0
 10
424.0386818876219763
 20
60.2920898286184297
 30
0.0
 10
423.7646772037812752
 20
60.3482959176114022
 30
0.0
 10
423.4892895309999972
 20
60.4047856966434509
 30
0.0
 10
423.2166678360998162
 20
60.5098884234662009
 30
0.0
 10
422.9496889133831132
 20
60.636352123700398
 30
0.0
 10
422.426905525122379
 20
60.8839863602449469
 30
0.0
 10
422.0644430117437764
 20
61.2265160581266201
 30
0.0
 10
421.860695939144307
 20
61.6831905311945476
 30
0.0
 10
421.6223609308092932
 20
62.2173896878073407
 30
0.0
 10
421.5023821218140938
 20
63.0180851447776789
 30
0.0
 10
421.5023821218140938
 20
64.0789750745200735
 30
0.0
 10
421.5023821218140938
 20
64.1749938098830626
 30
0.0
 10
421.5023821218140938
 20
64.2710125452460659
 30
0.0
 10
421.5023821218140938
 20
64.367031280609055
 30
0.0
  0
LINE
  5
9C
100
AcDbEntity
  8
6200002991_5
 62
7
420
16777215
370
-1
 48
1.0
  6
Continuous
100
AcDbLine
 10
421.5023821217999966
 20
64.3670312806000027
 30
0.0
 11
423.8208832927999765
 21
64.3670312806000027
 31
0.0
  0
LINE
  5
9D
100
AcDbEntity
  8
6200002991_5
 62
7
420
16777215
370
-1
 48
1.0
  6
Continuous
100
AcDbLine
 10
435.8349348149999969
 20
65.7792092666000059
 30
0.0
 11
435.8349348149999969
 21
64.4372888918999962
 31
0.0
  0
LINE
  5
9E
100
AcDbEntity
  8
6200002991_5
 62
7
420
16777215
370
-1
 48
1.0
  6
Continuous
100
AcDbLine
 10
435.8349348149999969
 20
64.4372888918999962
 30
0.0
 11
432.5468786088999877
 21
64.4372888918999962
 31
0.0
  0
LINE
  5
9F
100
AcDbEntity
  8
6200002991_5
 62
7
420
16777215
370
-1
 48
1.0
  6
Continuous
100
AcDbLine
 10
432.5468786088999877
 20
64.4372888918999962
 30
0.0
 11
432.5468786088999877
 21
65.7792092666000059
 31
0.0
  0
LINE
  5
A0
100
AcDbEntity
  8
6200002991_5
 62
7
420
16777215
370
-1
 48
1.0
  6
Continuous
100
AcDbLine
 10
432.5468786088999877
 20
65.7792092666000059
 30
0.0
 11
435.8349348149999969
 21
65.7792092666000059
 31
0.0
  0
LINE
  5
A1
100
AcDbEntity
  8
6200002991_5
 62
7
420
16777215
370
-1
 48
1.0
  6
Continuous
100
AcDbLine
 10
442.5375109273999783
 20
72.1304973227999966
 30
0.0
 11
442.5375109273999783
 21
60.5098884235000014
 31
0.0
  0
LINE
  5
A2
100
AcDbEntity
  8
6200002991_5
 62
7
420
16777215
370
-1
 48
1.0
  6
Continuous
100
AcDbLine
 10
442.5375109273999783
 20
60.5098884235000014
 30
0.0
 11
440.0784945340000149
 21
60.5098884235000014
 31
0.0
  0
LINE
  5
A3
100
AcDbEntity
  8
6200002991_5
 62
7
420
16777215
370
-1
 48
1.0
  6
Continuous
100
AcDbLine
 10
440.0784945340000149
 20
60.5098884235000014
 30
0.0
 11
440.0784945340000149
 21
72.1304973227999966
 31
0.0
  0
LINE
  5
A4
100
AcDbEntity
  8
6200002991_5
 62
7
420
16777215
370
-1
 48
1.0
  6
Continuous
100
AcDbLine
 10
440.0784945340000149
 20
72.1304973227999966
 30
0.0
 11
442.5375109273999783
 21
72.1304973227999966
 31
0.0
  0
LINE
  5
A5
100
AcDbEntity
  8
6200002991_5
 62
7
420
16777215
370
-1
 48
1.0
  6
Continuous
100
AcDbLine
 10
443.0784945340000149
 20
60.5098884235000014
 30
0.0
 11
443.0784945340000149
 21
61.872886081499999
 31
0.0
  0
SPLINE
  5
A6
100
AcDbEntity
  8
6200002991_5
 62
7
420
16777215
370
-1
 48
1.0
  6
Continuous
100
AcDbSpline
 70
8
 71
3
 72
32
 73
28
 74
0
 40
0.0
 40
0.0
 40
0.0
 40
0.0
 40
0.0767223672749169
 40
0.0767223672749169
 40
0.0767223672749169
 40
0.1620878763149354
 40
0.1620878763149354
 40
0.1620878763149354
 40
0.2573796990172456
 40
0.2573796990172456
 40
0.2573796990172456
 40
0.3586673629110292
 40
0.3586673629110292
 40
0.4798804688822782
 40
0.4798804688822782
 40
0.6010935748535271
 40
0.6010935748535271
 40
0.7445703125337808
 40
0.7445703125337808
 40
0.7445703125337808
 40
0.8534284484088041
 40
0.8534284484088041
 40
0.8534284484088041
 40
0.9240279142545419
 40
0.9240279142545419
 40
0.9240279142545419
 40
1.0
 40
1.0
 40
1.0
 40
1.0
 10
443.0784945339921137
 20
61.872886081545829
 30
0.0
 10
443.401679545701711
 20
61.9150406482905566
 30
0.0
 10
443.6616327072940749
 20
61.9923240206559001
 30
0.0
 10
443.8513282576453776
 20
62.0977104375177333
 30
0.0
 10
444.0905355396922118
 20
62.2306033719881526
 30
0.0
 10
444.2517966417203752
 20
62.4771015382203032
 30
0.0
 10
444.3290800140857186
 20
62.8283895944263975
 30
0.0
 10
444.404889075646679
 20
63.1729762378853223
 30
0.0
 10
444.462569475444127
 20
63.5028626623420678
 30
0.0
 10
444.4976982810646859
 20
63.8190219129275675
 30
0.0
 10
444.5313705264521786
 20
64.1220721214155986
 30
0.0
 10
444.5539043700575803
 20
64.4934949808432521
 30
0.0
 10
444.5539043700575803
 20
65.4349469714755685
 30
0.0
 10
444.5539043700575803
 20
65.9056729667917267
 30
0.0
 10
444.5539043700575803
 20
66.7628158239345879
 30
0.0
 10
444.5539043700575803
 20
67.1562584468854169
 30
0.0
 10
444.5539043700575803
 20
67.9080148871664449
 30
0.0
 10
444.5328270866851881
 20
68.3927924047308409
 30
0.0
 10
444.4836467588164055
 20
68.9548532946605803
 30
0.0
 10
444.4351298963724162
 20
69.5093317225925205
 30
0.0
 10
444.3852861030787267
 20
69.8892795241687708
 30
0.0
 10
444.3361057752097736
 20
70.0930265967683113
 30
0.0
 10
444.2885279524064117
 20
70.2901347198112347
 30
0.0
 10
444.1253329414860787
 20
70.4724176974709025
 30
0.0
 10
443.8583540187694894
 20
70.6410359644498129
 30
0.0
 10
443.7034533764805246
 20
70.7388679490534287
 30
0.0
 10
443.4438341124463818
 20
70.7815511869322478
 30
0.0
 10
443.0784945339921137
 20
70.7815511869322478
 30
0.0
  0
LINE
  5
A7
100
AcDbEntity
  8
6200002991_5
 62
7
420
16777215
370
-1
 48
1.0
  6
Continuous
100
AcDbLine
 10
443.0784945340000149
 20
70.7815511869000034
 30
0.0
 11
443.0784945340000149
 21
72.1304973227999966
 31
0.0
  0
SPLINE
  5
A8
100
AcDbEntity
  8
6200002991_5
 62
7
420
16777215
370
-1
 48
1.0
  6
Continuous
100
AcDbSpline
 70
8
 71
3
 72
48
 73
44
 74
0
 40
0.0
 40
0.0
 40
0.0
 40
0.0
 40
0.0572490301732139
 40
0.0572490301732139
 40
0.1144980603464279
 40
0.1144980603464279
 40
0.1144980603464279
 40
0.1553375756495068
 40
0.1553375756495068
 40
0.1553375756495068
 40
0.1941092119149219
 40
0.1941092119149219
 40
0.1941092119149219
 40
0.2271981838045774
 40
0.2271981838045774
 40
0.2271981838045774
 40
0.2683198570604247
 40
0.2683198570604247
 40
0.2683198570604247
 40
0.3668687695265805
 40
0.3668687695265805
 40
0.3668687695265805
 40
0.5022561963041507
 40
0.5022561963041507
 40
0.7515208979413582
 40
0.7515208979413582
 40
0.7515208979413582
 40
0.8119161843736346
 40
0.8119161843736346
 40
0.8119161843736346
 40
0.8423966796446313
 40
0.8423966796446313
 40
0.8423966796446313
 40
0.8754236748479659
 40
0.8754236748479659
 40
0.8754236748479659
 40
0.9081634056738861
 40
0.9081634056738861
 40
0.9081634056738861
 40
0.9589262236482213
 40
0.9589262236482213
 40
0.9589262236482213
 40
1.0
 40
1.0
 40
1.0
 40
1.0
 10
443.0784945339921137
 20
72.130497322763631
 30
0.0
 10
443.5843493349287883
 20
72.130497322763631
 30
0.0
 10
443.96374043563128
 20
72.1164458005153932
 30
0.0
 10
444.4976982810646859
 20
72.0602397115224136
 30
0.0
 10
444.7506256815329948
 20
72.018085144777686
 30
0.0
 10
444.9824757986290251
 20
71.9478275335364543
 30
0.0
 10
445.2207607802029088
 20
71.875619963362567
 30
0.0
 10
445.4250987494486935
 20
71.7862350276816699
 30
0.0
 10
445.6077685386758844
 20
71.6738228496957106
 30
0.0
 10
445.7935742899497882
 20
71.5594808489117327
 30
0.0
 10
445.9520308337578172
 20
71.4138696881032047
 30
0.0
 10
446.0925460562402804
 20
71.24525142112428
 30
0.0
 10
446.2296059863666073
 20
71.0807795049727105
 30
0.0
 10
446.3454734567085893
 20
70.9290921705388087
 30
0.0
 10
446.4157310679498778
 20
70.7956027091804856
 30
0.0
 10
446.4888843291121248
 20
70.656611512972276
 30
0.0
 10
446.5492205293081724
 20
70.4372888918502724
 30
0.0
 10
446.6054266183011805
 20
70.1351811635130389
 30
0.0
 10
446.6613976583071803
 20
69.8343368234803989
 30
0.0
 10
446.710813035163028
 20
69.2850640674943037
 30
0.0
 10
446.7599933630319242
 20
68.4911530604685481
 30
0.0
 10
446.8087669882361865
 20
67.7038073964561136
 30
0.0
 10
446.8372767353972108
 20
66.9314340909135126
 30
0.0
 10
446.8372767353972108
 20
64.7956027091804856
 30
0.0
 10
446.7318903185353065
 20
63.4255792899767528
 30
0.0
 10
446.507065962563388
 20
62.0625816318971175
 30
0.0
 10
446.4549946412138866
 20
61.7468992462156692
 30
0.0
 10
446.3033188899639185
 20
61.4513404140985173
 30
0.0
 10
446.0574172506197215
 20
61.1703099691336476
 30
0.0
 10
445.9625383880053846
 20
61.0618769832887978
 30
0.0
 10
445.8325928946476893
 20
60.9525113742858835
 30
0.0
 10
445.6639746276687788
 20
60.8471249574240503
 30
0.0
 10
445.4921987152408747
 20
60.7397650121565675
 30
0.0
 10
445.3267380937110147
 20
60.6644551681968878
 30
0.0
 10
445.1581198267321042
 20
60.6293263625762719
 30
0.0
 10
444.9813652373865125
 20
60.5925024897959332
 30
0.0
 10
444.7998060094018911
 20
60.5590687513350474
 30
0.0
 10
444.6171362201748138
 20
60.5379914679626978
 30
0.0
 10
444.4275329790937121
 20
60.5161141709148822
 30
0.0
 10
444.1464102248585846
 20
60.5098884234662009
 30
0.0
 10
443.7670191241559223
 20
60.5098884234662009
 30
0.0
 10
443.5375109274347096
 20
60.5098884234662009
 30
0.0
 10
443.3080027307133832
 20
60.5098884234662009
 30
0.0
 10
443.0784945339921137
 20
60.5098884234662009
 30
0.0
  0
LINE
  5
A9
100
AcDbEntity
  8
6200002991_5
 62
7
420
16777215
370
-1
 48
1.0
  6
Continuous
100
AcDbLine
 10
454.4250987493999787
 20
72.1304973227999966
 30
0.0
 11
454.4250987493999787
 21
60.5098884235000014
 31
0.0
  0
LINE
  5
AA
100
AcDbEntity
  8
6200002991_5
 62
7
420
16777215
370
-1
 48
1.0
  6
Continuous
100
AcDbLine
 10
454.4250987493999787
 20
60.5098884235000014
 30
0.0
 11
452.816199451999978
 21
60.5098884235000014
 31
0.0
  0
LINE
  5
AB
100
AcDbEntity
  8
6200002991_5
 62
7
420
16777215
370
-1
 48
1.0
  6
Continuous
100
AcDbLine
 10
452.816199451999978
 20
60.5098884235000014
 30
0.0
 11
450.5609301311999957
 21
65.3787408824999972
 31
0.0
  0
LINE
  5
AC
100
AcDbEntity
  8
6200002991_5
 62
7
420
16777215
370
-1
 48
1.0
  6
Continuous
100
AcDbLine
 10
450.5609301311999957
 20
65.3787408824999972
 30
0.0
 11
450.4344664308999882
 21
65.3787408824999972
 31
0.0
  0
LINE
  5
AD
100
AcDbEntity
  8
6200002991_5
 62
7
420
16777215
370
-1
 48
1.0
  6
Continuous
100
AcDbLine
 10
450.4344664308999882
 20
65.3787408824999972
 30
0.0
 11
450.4344664308999882
 21
60.5098884235000014
 31
0.0
  0
LINE
  5
AE
100
AcDbEntity
  8
6200002991_5
 62
7
420
16777215
370
-1
 48
1.0
  6
Continuous
100
AcDbLine
 10
450.4344664308999882
 20
60.5098884235000014
 30
0.0
 11
448.2073001545999773
 21
60.5098884235000014
 31
0.0
  0
LINE
  5
AF
100
AcDbEntity
  8
6200002991_5
 62
7
420
16777215
370
-1
 48
1.0
  6
Continuous
100
AcDbLine
 10
448.2073001545999773
 20
60.5098884235000014
 30
0.0
 11
448.2073001545999773
 21
72.1304973227999966
 31
0.0
  0
LINE
  5
B0
100
AcDbEntity
  8
6200002991_5
 62
7
420
16777215
370
-1
 48
1.0
  6
Continuous
100
AcDbLine
 10
448.2073001545999773
 20
72.1304973227999966
 30
0.0
 11
449.8443024965000063
 21
72.1304973227999966
 31
0.0
  0
LINE
  5
B1
100
AcDbEntity
  8
6200002991_5
 62
7
420
16777215
370
-1
 48
1.0
  6
Continuous
100
AcDbLine
 10
449.8443024965000063
 20
72.1304973227999966
 30
0.0
 11
452.0855202951000251
 21
67.2475933414999929
 31
0.0
  0
LINE
  5
B2
100
AcDbEntity
  8
6200002991_5
 62
7
420
16777215
370
-1
 48
1.0
  6
Continuous
100
AcDbLine
 10
452.0855202951000251
 20
67.2475933414999929
 30
0.0
 11
452.1979324731000247
 21
67.2475933414999929
 31
0.0
  0
LINE
  5
B3
100
AcDbEntity
  8
6200002991_5
 62
7
420
16777215
370
-1
 48
1.0
  6
Continuous
100
AcDbLine
 10
452.1979324731000247
 20
67.2475933414999929
 30
0.0
 11
452.1979324731000247
 21
72.1304973227999966
 31
0.0
  0
LINE
  5
B4
100
AcDbEntity
  8
6200002991_5
 62
7
420
16777215
370
-1
 48
1.0
  6
Continuous
100
AcDbLine
 10
452.1979324731000247
 20
72.1304973227999966
 30
0.0
 11
454.4250987493999787
 21
72.1304973227999966
 31
0.0
  0
SPLINE
  5
B5
100
AcDbEntity
  8
6200002991_5
 62
7
420
16777215
370
-1
 48
1.0
  6
Continuous
100
AcDbSpline
 70
8
 71
3
 72
17
 73
13
 74
0
 40
0.0
 40
0.0
 40
0.0
 40
0.0
 40
0.2931083168563082
 40
0.2931083168563082
 40
0.2931083168563082
 40
0.5048476921271943
 40
0.5048476921271943
 40
0.5048476921271943
 40
0.7400950862858977
 40
0.7400950862858977
 40
0.7400950862858977
 40
1.0
 40
1.0
 40
1.0
 40
1.0
 10
456.0831783747415216
 20
68.7159774164404524
 30
0.0
 10
456.0831783747415216
 20
69.3834247232320109
 30
0.0
 10
456.1183071803620805
 20
69.896305285292911
 30
0.0
 10
456.1815390304790867
 20
70.2616448637472359
 30
0.0
 10
456.2437945899122269
 20
70.6213436515827055
 30
0.0
 10
456.3993376253268934
 20
70.9642209761594103
 30
0.0
 10
456.6241619812989256
 20
71.2803802267448958
 30
0.0
 10
456.8513459238208156
 20
71.5998576459163729
 30
0.0
 10
457.1721713489803847
 20
71.8564926389228873
 30
0.0
 10
457.5866912553034922
 20
72.0461881892741616
 30
0.0
 10
458.0043619067578788
 20
72.2373256060414235
 30
0.0
 10
458.4508598735704936
 20
72.3272186342390313
 30
0.0
 10
458.9215858688867229
 20
72.3272186342390313
 30
0.0
  0
LINE
  5
B6
100
AcDbEntity
  8
6200002991_5
 62
7
420
16777215
370
-1
 48
1.0
  6
Continuous
100
AcDbLine
 10
458.9215858689000243
 20
72.3272186341999941
 30
0.0
 11
458.9215858689000243
 21
71.1679680488000059
 31
0.0
  0
SPLINE
  5
B7
100
AcDbEntity
  8
6200002991_5
 62
7
420
16777215
370
-1
 48
1.0
  6
Continuous
100
AcDbSpline
 70
8
 71
3
 72
17
 73
13
 74
0
 40
0.0
 40
0.0
 40
0.0
 40
0.0
 40
0.2667908660008752
 40
0.2667908660008752
 40
0.2667908660008752
 40
0.4565541955748608
 40
0.4565541955748608
 40
0.4565541955748608
 40
0.7390072918803431
 40
0.7390072918803431
 40
0.7390072918803431
 40
1.0
 40
1.0
 40
1.0
 40
1.0
 10
458.9215858688867229
 20
71.1679680487589366
 30
0.0
 10
458.7037872740389162
 20
71.139865004262461
 30
0.0
 10
458.5000402014393899
 20
71.0063755429041521
 30
0.0
 10
458.317370412212199
 20
70.753448142435758
 30
0.0
 10
458.2456734462579107
 20
70.6541754203452257
 30
0.0
 10
458.1979324731021279
 20
70.4794434585950142
 30
0.0
 10
458.1487521452332885
 20
70.2475933414989981
 30
0.0
 10
458.0981456742891282
 20
70.009019978476644
 30
0.0
 10
458.0784945339921137
 20
69.7417385405622383
 30
0.0
 10
458.0784945339921137
 20
69.4536823344732284
 30
0.0
 10
458.0784945339921137
 20
69.2077806951289602
 30
0.0
 10
458.0784945339921137
 20
68.9618790557847205
 30
0.0
 10
458.0784945339921137
 20
68.7159774164404524
 30
0.0
  0
LINE
  5
B8
100
AcDbEntity
  8
6200002991_5
 62
7
420
16777215
370
-1
 48
1.0
  6
Continuous
100
AcDbLine
 10
458.0784945340000149
 20
68.7159774163999941
 30
0.0
 11
456.0831783747000259
 21
68.7159774163999941
 31
0.0
  0
SPLINE
  5
B9
100
AcDbEntity
  8
6200002991_5
 62
7
420
16777215
370
-1
 48
1.0
  6
Continuous
100
AcDbSpline
 70
8
 71
3
 72
11
 73
7
 74
0
 40
0.0
 40
0.0
 40
0.0
 40
0.0
 40
0.5144122614341194
 40
0.5144122614341194
 40
0.5144122614341194
 40
1.0
 40
1.0
 40
1.0
 40
1.0
 10
459.4836467588164055
 20
72.3272186342390313
 30
0.0
 10
459.8981666651396267
 20
72.3272186342390313
 30
0.0
 10
460.2845835269662871
 20
72.2569610229978139
 30
0.0
 10
460.6428973442965003
 20
72.123471561639505
 30
0.0
 10
460.9973401143092246
 20
71.9914242551642047
 30
0.0
 10
461.3103446510879735
 20
71.7862350276816699
 30
0.0
 10
461.5773235738046765
 20
71.5262818660891497
 30
0.0
  0
SPLINE
  5
BA
100
AcDbEntity
  8
6200002991_5
 62
7
420
16777215
370
-1
 48
1.0
  6
Continuous
100
AcDbSpline
 70
8
 71
3
 72
16
 73
12
 74
0
 40
0.0
 40
0.0
 40
0.0
 40
0.0
 40
0.2231625754641772
 40
0.2231625754641772
 40
0.404718569062152
 40
0.404718569062152
 40
0.404718569062152
 40
0.6022607420382469
 40
0.6022607420382469
 40
0.6022607420382469
 40
1.0
 40
1.0
 40
1.0
 40
1.0
 10
461.5773235738046765
 20
71.5262818660891497
 30
0.0
 10
462.1256126731768745
 20
70.9924214272267591
 30
0.0
 10
462.4133891475751739
 20
70.3178509527402014
 30
0.0
 10
462.4133891475751739
 20
68.8143380721781597
 30
0.0
 10
462.2517966417203752
 20
68.1328392431383492
 30
0.0
 10
461.9286116300107778
 20
67.4302631307261606
 30
0.0
 10
461.6039862096982915
 20
66.7245556952642715
 30
0.0
 10
461.2962931288398067
 20
66.0813169948947774
 30
0.0
 10
460.9801338782543212
 20
65.5052045827167859
 30
0.0
 10
460.4023093935289808
 20
64.4522799661061896
 30
0.0
 10
459.6452392646712042
 20
63.2288579785013383
 30
0.0
 10
458.6967615129146907
 20
61.8377572759252203
 30
0.0
  0
LINE
  5
BB
100
AcDbEntity
  8
6200002991_5
 62
7
420
16777215
370
-1
 48
1.0
  6
Continuous
100
AcDbLine
 10
458.6967615129000251
 20
61.8377572759000032
 30
0.0
 11
462.1323587026000155
 21
61.8377572759000032
 31
0.0
  0
LINE
  5
BC
100
AcDbEntity
  8
6200002991_5
 62
7
420
16777215
370
-1
 48
1.0
  6
Continuous
100
AcDbLine
 10
462.1323587026000155
 20
61.8377572759000032
 30
0.0
 11
462.1323587026000155
 21
60.5098884235000014
 31
0.0
  0
LINE
  5
BD
100
AcDbEntity
  8
6200002991_5
 62
7
420
16777215
370
-1
 48
1.0
  6
Continuous
100
AcDbLine
 10
462.1323587026000155
 20
60.5098884235000014
 30
0.0
 11
455.9918434800999876
 21
60.5098884235000014
 31
0.0
  0
LINE
  5
BE
100
AcDbEntity
  8
6200002991_5
 62
7
420
16777215
370
-1
 48
1.0
  6
Continuous
100
AcDbLine
 10
455.9918434800999876
 20
60.5098884235000014
 30
0.0
 11
455.9918434800999876
 21
61.7815511869000034
 31
0.0
  0
SPLINE
  5
BF
100
AcDbEntity
  8
6200002991_5
 62
7
420
16777215
370
-1
 48
1.0
  6
Continuous
100
AcDbSpline
 70
8
 71
3
 72
22
 73
18
 74
0
 40
0.0
 40
0.0
 40
0.0
 40
0.0
 40
0.3269252085032989
 40
0.3269252085032989
 40
0.3269252085032989
 40
0.5573752290878227
 40
0.5573752290878227
 40
0.5573752290878227
 40
0.6912707285363926
 40
0.6912707285363926
 40
0.6912707285363926
 40
0.8108517788069741
 40
0.8108517788069741
 40
0.8108517788069741
 40
0.8800027413936728
 40
0.8800027413936728
 40
1.0
 40
1.0
 40
1.0
 40
1.0
 10
455.9918434801278977
 20
61.7815511869322478
 30
0.0
 10
456.6311877424229237
 20
62.8213638333022573
 30
0.0
 10
457.2143259157251123
 20
63.7628158239345879
 30
0.0
 10
457.7412580000341791
 20
64.6129329199533231
 30
0.0
 10
458.352562659769319
 20
65.5991711043259897
 30
0.0
 10
458.7599933630319242
 20
66.2639867841219399
 30
0.0
 10
458.9637404356313937
 20
66.615274840328027
 30
0.0
 10
459.2786000991546871
 20
67.1581363291613371
 30
0.0
 10
459.5187755644370213
 20
67.5426753087121057
 30
0.0
 10
459.6452392646712042
 20
67.7956027091804856
 30
0.0
 10
459.8391502716970081
 20
68.1834247232320081
 30
0.0
 10
459.9965273208771919
 20
68.5543849105856395
 30
0.0
 10
460.108939498863208
 20
68.9197244890399787
 30
0.0
 10
460.2187692349224903
 20
69.2766711312325185
 30
0.0
 10
460.2705320047180066
 20
69.5731202735832994
 30
0.0
 10
460.2705320047180066
 20
70.2265160581266343
 30
0.0
 10
460.1862228712286083
 20
70.5497010698362317
 30
0.0
 10
460.0246303653738096
 20
70.7815511869322478
 30
0.0
  0
SPLINE
  5
C0
100
AcDbEntity
  8
6200002991_5
 62
7
420
16777215
370
-1
 48
1.0
  6
Continuous
100
AcDbSpline
 70
8
 71
3
 72
11
 73
7
 74
0
 40
0.0
 40
0.0
 40
0.0
 40
0.0
 40
0.533192122778389
 40
0.533192122778389
 40
0.533192122778389
 40
1.0
 40
1.0
 40
1.0
 40
1.0
 10
460.0246303653738096
 20
70.7815511869322478
 30
0.0
 10
459.9543727541325211
 20
70.9080148871664449
 30
0.0
 10
459.8700636206431227
 20
70.9993497817800119
 30
0.0
 10
459.7857544871537243
 20
71.0625816318971175
 30
0.0
 10
459.7003212318842884
 20
71.1266565733491092
 30
0.0
 10
459.5960589368023079
 20
71.153916526510713
 30
0.0
 10
459.4836467588162918
 20
71.1749938098830626
 30
0.0
  0
LINE
  5
C1
100
AcDbEntity
  8
6200002991_5
 62
7
420
16777215
370
-1
 48
1.0
  6
Continuous
100
AcDbLine
 10
459.4836467587999778
 20
71.1749938099000019
 30
0.0
 11
459.4836467587999778
 21
72.3272186341999941
 31
0.0
  0
SPLINE
  5
C2
100
AcDbEntity
  8
6200002991_5
 62
7
420
16777215
370
-1
 48
1.0
  6
Continuous
100
AcDbSpline
 70
8
 71
3
 72
8
 73
4
 74
0
 40
0.0
 40
0.0
 40
0.0
 40
0.0
 40
1.0
 40
1.0
 40
1.0
 40
1.0
 10
467.6827099906665239
 20
61.626984442201568
 30
0.0
 10
467.8864570632661071
 20
61.7042678145668972
 30
0.0
 10
468.0410238079966803
 20
61.8869376037940668
 30
0.0
 10
468.1464102248585277
 20
62.1960710932554335
 30
0.0
  0
SPLINE
  5
C3
100
AcDbEntity
  8
6200002991_5
 62
7
420
16777215
370
-1
 48
1.0
  6
Continuous
100
AcDbSpline
 70
8
 71
3
 72
17
 73
13
 74
0
 40
0.0
 40
0.0
 40
0.0
 40
0.0
 40
0.1656213441145274
 40
0.1656213441145274
 40
0.1656213441145274
 40
0.7788449153724571
 40
0.7788449153724571
 40
0.7788449153724571
 40
0.9240362593771941
 40
0.9240362593771941
 40
0.9240362593771941
 40
1.0
 40
1.0
 40
1.0
 40
1.0
 10
468.1464102248585277
 20
62.1960710932554335
 30
0.0
 10
468.2166678360998162
 20
62.4349469714755685
 30
0.0
 10
468.258822402844487
 20
62.9337760112882165
 30
0.0
 10
468.258822402844487
 20
63.6855324515692374
 30
0.0
 10
468.258822402844487
 20
65.5333076272132757
 30
0.0
 10
468.258822402844487
 20
67.381082802857307
 30
0.0
 10
468.258822402844487
 20
69.2288579785013383
 30
0.0
 10
468.258822402844487
 20
69.8682022407964212
 30
0.0
 10
468.2166678360998162
 20
70.3037994304919636
 30
0.0
 10
468.1253329414861923
 20
70.5286237864638679
 30
0.0
 10
468.032543425751328
 20
70.7570287482726883
 30
0.0
 10
467.8724055410178266
 20
70.9009891260423188
 30
0.0
 10
467.6265039016735159
 20
70.9571952150352985
 30
0.0
  0
LINE
  5
C4
100
AcDbEntity
  8
6200002991_5
 62
7
420
16777215
370
-1
 48
1.0
  6
Continuous
100
AcDbLine
 10
467.6265039017000049
 20
70.9571952149999987
 30
0.0
 11
467.6265039017000049
 21
72.2920898285999982
 31
0.0
  0
SPLINE
  5
C5
100
AcDbEntity
  8
6200002991_5
 62
7
420
16777215
370
-1
 48
1.0
  6
Continuous
100
AcDbSpline
 70
8
 71
3
 72
41
 73
37
 74
0
 40
0.0
 40
0.0
 40
0.0
 40
0.0
 40
0.0472274361346526
 40
0.0472274361346526
 40
0.0472274361346526
 40
0.0924371905123432
 40
0.0924371905123432
 40
0.137646944890036
 40
0.137646944890036
 40
0.182856699267729
 40
0.182856699267729
 40
0.182856699267729
 40
0.2729485565920683
 40
0.2729485565920683
 40
0.2729485565920683
 40
0.4385776862707538
 40
0.4385776862707538
 40
0.4385776862707538
 40
0.5648332164532633
 40
0.5648332164532633
 40
0.5648332164532633
 40
0.73230649703846
 40
0.73230649703846
 40
0.73230649703846
 40
0.8183442066030067
 40
0.8183442066030067
 40
0.8183442066030067
 40
0.8635546923048844
 40
0.8635546923048844
 40
0.9087651780067616
 40
0.9087651780067616
 40
0.9087651780067616
 40
0.9548666860417913
 40
0.9548666860417913
 40
0.9548666860417913
 40
1.0
 40
1.0
 40
1.0
 40
1.0
 10
467.6265039016735159
 20
72.2920898286184297
 30
0.0
 10
467.8583540187694894
 20
72.2920898286184297
 30
0.0
 10
468.0972298969896883
 20
72.2639867841219399
 30
0.0
 10
468.3571830585822227
 20
72.2148064562530863
 30
0.0
 10
468.6116365058956035
 20
72.1666666148694844
 30
0.0
 10
468.8419605761466187
 20
72.0883427560189034
 30
0.0
 10
469.2494547213457281
 20
71.9197244890399787
 30
0.0
 10
469.4461760328210858
 20
71.8073123110540337
 30
0.0
 10
469.8255671335235775
 20
71.4981788215926599
 30
0.0
 10
469.9871596393783761
 20
71.3295605546137494
 30
0.0
 10
470.1206491007367276
 20
71.1468907653865728
 30
0.0
 10
470.410798807488618
 20
70.749843798252499
 30
0.0
 10
470.5913750960529001
 20
70.3319024749884534
 30
0.0
 10
470.6405554239217963
 20
69.8611764796722952
 30
0.0
 10
470.689085505058074
 20
69.3966742745101612
 30
0.0
 10
470.7178387962870829
 20
68.5333076272132899
 30
0.0
 10
470.7178387962870829
 20
67.2827221471195998
 30
0.0
 10
470.7178387962870829
 20
66.6269844422015609
 30
0.0
 10
470.7178387962870829
 20
65.9712467372835363
 30
0.0
 10
470.7178387962870829
 20
65.3155090323655116
 30
0.0
 10
470.7178387962870829
 20
64.0789750745200735
 30
0.0
 10
470.6897357517905789
 20
63.2148064562530934
 30
0.0
 10
470.6265039016735159
 20
62.7089516553163335
 30
0.0
 10
470.57051398994588
 20
62.2610323614953884
 30
0.0
 10
470.4227568290739896
 20
61.8447830370493534
 30
0.0
 10
470.1487521452332885
 20
61.4724176974708882
 30
0.0
 10
470.0113068396207723
 20
61.2856330513821135
 30
0.0
 10
469.8536701780200815
 20
61.1141038801406822
 30
0.0
 10
469.4883305995658134
 20
60.8190219129275604
 30
0.0
 10
469.2845835269662871
 20
60.6995839738174965
 30
0.0
 10
469.0597591709944254
 20
60.6082490792039081
 30
0.0
 10
468.8324849268183243
 20
60.5159189175073635
 30
0.0
 10
468.6101104590505884
 20
60.4396308122249906
 30
0.0
 10
468.3782603419546149
 20
60.3834247232320109
 30
0.0
 10
468.151437330606484
 20
60.3284373265415823
 30
0.0
 10
467.9215858688867229
 20
60.2920898286184297
 30
0.0
 10
467.6827099906665239
 20
60.2920898286184297
 30
0.0
  0
LINE
  5
C6
100
AcDbEntity
  8
6200002991_5
 62
7
420
16777215
370
-1
 48
1.0
  6
Continuous
100
AcDbLine
 10
467.6827099907000047
 20
60.2920898285999982
 30
0.0
 11
467.6827099907000047
 21
61.6269844421999977
 31
0.0
  0
LINE
  5
C7
100
AcDbEntity
  8
6200002991_5
 62
7
420
16777215
370
-1
 48
1.0
  6
Continuous
100
AcDbLine
 10
467.1206491007000068
 20
61.6269844421999977
 30
0.0
 11
467.1206491007000068
 21
60.2920898285999982
 31
0.0
  0
SPLINE
  5
C8
100
AcDbEntity
  8
6200002991_5
 62
7
420
16777215
370
-1
 48
1.0
  6
Continuous
100
AcDbSpline
 70
8
 71
3
 72
25
 73
21
 74
0
 40
0.0
 40
0.0
 40
0.0
 40
0.0
 40
0.0606262105881162
 40
0.0606262105881162
 40
0.0606262105881162
 40
0.1260294733926994
 40
0.1260294733926994
 40
0.1260294733926994
 40
0.24971374958254
 40
0.24971374958254
 40
0.3733980257723786
 40
0.3733980257723786
 40
0.3733980257723786
 40
0.5997218943392064
 40
0.5997218943392064
 40
0.5997218943392064
 40
0.7717762608093082
 40
0.7717762608093082
 40
0.7717762608093082
 40
1.0
 40
1.0
 40
1.0
 40
1.0
 10
467.1206491007367276
 20
60.2920898286184297
 30
0.0
 10
466.8817732225165855
 20
60.2920898286184297
 30
0.0
 10
466.649923105420612
 20
60.3201928731149124
 30
0.0
 10
466.4321245105728053
 20
60.3623474398596471
 30
0.0
 10
466.2130151919848231
 20
60.4047556950702429
 30
0.0
 10
465.9754500375049133
 20
60.4888111400938371
 30
0.0
 10
465.7225226370364908
 20
60.5941975569556632
 30
0.0
 10
465.271044732847372
 20
60.7823133503678008
 30
0.0
 10
464.8864570632661071
 20
61.0508720300235765
 30
0.0
 10
464.3103446510879735
 20
61.8237057536769825
 30
0.0
 10
464.1417263841091199
 20
62.2522771822484131
 30
0.0
 10
464.0925460562402804
 20
62.7300289386886902
 30
0.0
 10
464.0440077142478117
 20
63.2015442609019473
 30
0.0
 10
464.0152626838748802
 20
64.0578977911477097
 30
0.0
 10
464.0152626838748802
 20
65.3155090323655116
 30
0.0
 10
464.0152626838748802
 20
65.9712467372835363
 30
0.0
 10
464.0152626838748802
 20
66.6269844422015609
 30
0.0
 10
464.0152626838748802
 20
67.2827221471195998
 30
0.0
 10
464.0152626838748802
 20
68.5192561049650379
 30
0.0
 10
464.0433657283713842
 20
69.3834247232320109
 30
0.0
 10
464.1065975784886177
 20
69.8892795241687708
 30
0.0
  0
SPLINE
  5
C9
100
AcDbEntity
  8
6200002991_5
 62
7
420
16777215
370
-1
 48
1.0
  6
Continuous
100
AcDbSpline
 70
8
 71
3
 72
16
 73
12
 74
0
 40
0.0
 40
0.0
 40
0.0
 40
0.0
 40
0.1593101053829263
 40
0.1593101053829263
 40
0.3186202107658508
 40
0.3186202107658508
 40
0.3186202107658508
 40
0.653065377525711
 40
0.653065377525711
 40
0.653065377525711
 40
1.0
 40
1.0
 40
1.0
 40
1.0
 10
464.1065975784886177
 20
69.8892795241687708
 30
0.0
 10
464.1065975784886177
 20
70.1070781190165633
 30
0.0
 10
464.1487521452332885
 20
70.3178509527402014
 30
0.0
 10
464.3033188899639754
 20
70.7253450979392824
 30
0.0
 10
464.4157310679498778
 20
70.9290921705388087
 30
0.0
 10
464.5632720515565097
 20
71.1258134820142232
 30
0.0
 10
464.8423352834066122
 20
71.4978977911477074
 30
0.0
 10
465.1885647916033122
 20
71.8002865499298935
 30
0.0
 10
465.652265025795316
 20
71.9899821002811962
 30
0.0
 10
466.0883347445575851
 20
72.1683742579566854
 30
0.0
 10
466.5515624496828764
 20
72.2920898286184297
 30
0.0
 10
467.0714687728678882
 20
72.2920898286184297
 30
0.0
  0
LINE
  5
CA
100
AcDbEntity
  8
6200002991_5
 62
7
420
16777215
370
-1
 48
1.0
  6
Continuous
100
AcDbLine
 10
467.0714687729000048
 20
72.2920898285999982
 30
0.0
 11
467.0714687729000048
 21
70.9571952149999987
 31
0.0
  0
SPLINE
  5
CB
100
AcDbEntity
  8
6200002991_5
 62
7
420
16777215
370
-1
 48
1.0
  6
Continuous
100
AcDbSpline
 70
8
 71
3
 72
8
 73
4
 74
0
 40
0.0
 40
0.0
 40
0.0
 40
0.0
 40
1.0
 40
1.0
 40
1.0
 40
1.0
 10
467.0714687728678882
 20
70.9571952150352985
 30
0.0
 10
466.9871596393783761
 20
70.9361179316629347
 30
0.0
 10
466.9239277892613131
 20
70.9080148871664449
 30
0.0
 10
466.8817732225165855
 20
70.879911842669955
 30
0.0
  0
SPLINE
  5
CC
100
AcDbEntity
  8
6200002991_5
 62
7
420
16777215
370
-1
 48
1.0
  6
Continuous
100
AcDbSpline
 70
8
 71
3
 72
22
 73
18
 74
0
 40
0.0
 40
0.0
 40
0.0
 40
0.0
 40
0.0395955635717838
 40
0.0395955635717838
 40
0.0395955635717838
 40
0.1820525322618042
 40
0.1820525322618042
 40
0.1820525322618042
 40
0.7666416443887255
 40
0.7666416443887255
 40
0.7666416443887255
 40
0.9159885202543528
 40
0.9159885202543528
 40
0.9159885202543528
 40
0.9563140305322658
 40
0.9563140305322658
 40
1.0
 40
1.0
 40
1.0
 40
1.0
 10
466.8817732225165855
 20
70.879911842669955
 30
0.0
 10
466.8396186557719147
 20
70.8447830370493392
 30
0.0
 10
466.7623352834066282
 20
70.746422381311632
 30
0.0
 10
466.649923105420612
 20
70.5778041143327215
 30
0.0
 10
466.5353491547809881
 20
70.4059431883734277
 30
0.0
 10
466.4742790773174761
 20
69.9595371354100024
 30
0.0
 10
466.4742790773174761
 20
69.2288579785013383
 30
0.0
 10
466.4742790773174761
 20
67.3506378379861133
 30
0.0
 10
466.4742790773174761
 20
65.4724176974708882
 30
0.0
 10
466.4742790773174761
 20
63.5941975569556703
 30
0.0
 10
466.4742790773174761
 20
62.7932607888057888
 30
0.0
 10
466.5094078829380919
 20
62.3155090323654974
 30
0.0
 10
466.5656139719312137
 20
62.1609422876348177
 30
0.0
 10
466.622640587770718
 20
62.0041190940759606
 30
0.0
 10
466.7061291944136201
 20
61.8799118426699479
 30
0.0
 10
466.8817732225165855
 20
61.7042678145668972
 30
0.0
 10
466.9871596393783761
 20
61.6480617255739318
 30
0.0
 10
467.1206491007367276
 20
61.626984442201568
 30
0.0
  0
LINE
  5
CD
100
AcDbEntity
  8
6200002991_5
 62
7
420
16777215
370
-1
 48
1.0
  6
Continuous
100
AcDbLine
 10
401.9215858689000243
 20
72.1304973227999966
 30
0.0
 11
401.9215858689000243
 21
60.5098884235000014
 31
0.0
  0
LINE
  5
CE
100
AcDbEntity
  8
6200002991_5
 62
7
420
16777215
370
-1
 48
1.0
  6
Continuous
100
AcDbLine
 10
401.9215858689000243
 20
60.5098884235000014
 30
0.0
 11
399.4555437143000063
 21
60.5098884235000014
 31
0.0
  0
LINE
  5
CF
100
AcDbEntity
  8
6200002991_5
 62
7
420
16777215
370
-1
 48
1.0
  6
Continuous
100
AcDbLine
 10
399.4555437143000063
 20
60.5098884235000014
 30
0.0
 11
399.4555437143000063
 21
72.1304973227999966
 31
0.0
  0
LINE
  5
D0
100
AcDbEntity
  8
6200002991_5
 62
7
420
16777215
370
-1
 48
1.0
  6
Continuous
100
AcDbLine
 10
399.4555437143000063
 20
72.1304973227999966
 30
0.0
 11
401.9215858689000243
 21
72.1304973227999966
 31
0.0
  0
ENDBLK
  5
D1
100
AcDbEntity
  8
0
100
AcDbBlockEnd
  0
ENDSEC
  0
SECTION
  2
ENTITIES
  0
INSERT
  5
D2
100
AcDbEntity
  8
Default
 62
256
370
-1
 48
1.0
  6
BYLAYER
100
AcDbBlockReference
  2
SE4
 10
-375.9438341124000544
 20
-46.6219610229999972
 30
0.0
  0
ENDSEC
  0
SECTION
  2
OBJECTS
  0
DICTIONARY
  5
C
100
AcDbDictionary
280
0
281
1
  3
ACAD_GROUP
350
D
  3
ACAD_LAYOUT
350
1A
  3
ACAD_MLINESTYLE
350
17
  3
ACAD_PLOTSETTINGS
350
19
  3
ACAD_PLOTSTYLENAME
350
E
  3
AcDbVariableDictionary
350
D3
  3
QCAD_OBJECTS
350
D4
  0
DICTIONARY
  5
D
100
AcDbDictionary
280
0
281
1
  0
ACDBDICTIONARYWDFLT
  5
E
100
AcDbDictionary
281
1
  3
Normal
350
F
100
AcDbDictionaryWithDefault
340
F
  0
ACDBPLACEHOLDER
  5
F
  0
DICTIONARY
  5
17
100
AcDbDictionary
280
0
281
1
  3
Standard
350
18
  0
MLINESTYLE
  5
18
100
AcDbMlineStyle
  2
STANDARD
 70
0
  3

 62
256
 51
90.0
 52
90.0
 71
2
 49
0.5
 62
256
  6
BYLAYER
 49
-0.5
 62
256
  6
BYLAYER
  0
DICTIONARY
  5
19
100
AcDbDictionary
280
0
281
1
  0
DICTIONARY
  5
1A
100
AcDbDictionary
281
1
  3
Layout1
350
1E
  3
Layout2
350
26
  3
Model
350
22
  0
LAYOUT
  5
1E
100
AcDbPlotSettings
  1

  2
none_device
  4

  6

 40
0.0
 41
0.0
 42
0.0
 43
0.0
 44
0.0
 45
0.0
 46
0.0
 47
0.0
 48
0.0
 49
0.0
140
0.0
141
0.0
142
1.0
143
1.0
 70
688
 72
0
 73
0
 74
5
  7

 75
16
147
1.0
148
0.0
149
0.0
100
AcDbLayout
  1
Layout1
 70
1
 71
1
 10
0.0
 20
0.0
 11
420.0
 21
297.0
 12
0.0
 22
0.0
 32
0.0
 14
100000000000000000000.0
 24
100000000000000000000.0
 34
100000000000000000000.0
 15
-100000000000000000000.0
 25
-100000000000000000000.0
 35
-100000000000000000000.0
146
0.0
 13
0.0
 23
0.0
 33
0.0
 16
1.0
 26
0.0
 36
0.0
 17
0.0
 27
1.0
 37
0.0
 76
0
330
1B
  0
LAYOUT
  5
22
100
AcDbPlotSettings
  1

  2
none_device
  4

  6

 40
0.0
 41
0.0
 42
0.0
 43
0.0
 44
0.0
 45
0.0
 46
0.0
 47
0.0
 48
0.0
 49
0.0
140
0.0
141
0.0
142
1.0
143
1.0
 70
1712
 72
0
 73
0
 74
0
  7

 75
0
147
1.0
148
0.0
149
0.0
100
AcDbLayout
  1
Model
 70
1
 71
0
 10
0.0
 20
0.0
 11
12.0
 21
9.0
 12
0.0
 22
0.0
 32
0.0
 14
0.0
 24
0.0
 34
0.0
 15
0.0
 25
0.0
 35
0.0
146
0.0
 13
0.0
 23
0.0
 33
0.0
 16
1.0
 26
0.0
 36
0.0
 17
0.0
 27
1.0
 37
0.0
 76
0
330
1F
  0
LAYOUT
  5
26
100
AcDbPlotSettings
  1

  2
none_device
  4

  6

 40
0.0
 41
0.0
 42
0.0
 43
0.0
 44
0.0
 45
0.0
 46
0.0
 47
0.0
 48
0.0
 49
0.0
140
0.0
141
0.0
142
1.0
143
1.0
 70
688
 72
0
 73
0
 74
5
  7

 75
16
147
1.0
148
0.0
149
0.0
100
AcDbLayout
  1
Layout2
 70
1
 71
2
 10
0.0
 20
0.0
 11
12.0
 21
9.0
 12
0.0
 22
0.0
 32
0.0
 14
0.0
 24
0.0
 34
0.0
 15
0.0
 25
0.0
 35
0.0
146
0.0
 13
0.0
 23
0.0
 33
0.0
 16
1.0
 26
0.0
 36
0.0
 17
0.0
 27
1.0
 37
0.0
 76
0
330
23
  0
DICTIONARY
  5
D3
100
AcDbDictionary
281
1
  3
DIMASSOC
350
D6
  3
HIDETEXT
350
D5
  0
DICTIONARYVAR
  5
D5
100
DictionaryVariables
280
0
  1
2
  0
DICTIONARYVAR
  5
D6
100
DictionaryVariables
280
0
  1
1
  0
DICTIONARY
  5
D4
100
AcDbDictionary
281
1
  3
ColorSettings/BackgroundColor
350
D7
  3
ColorSettings/ColorMode
350
D8
  3
Grid/DisplayGrid00
350
D9
  3
Grid/DisplayGrid01
350
DA
  3
Grid/DisplayGrid02
350
DB
  3
Grid/DisplayGrid03
350
DC
  3
Grid/GridSpacingX00
350
DD
  3
Grid/GridSpacingX01
350
DE
  3
Grid/GridSpacingX02
350
DF
  3
Grid/GridSpacingX03
350
E0
  3
Grid/GridSpacingY00
350
E1
  3
Grid/GridSpacingY01
350
E2
  3
Grid/GridSpacingY02
350
E3
  3
Grid/GridSpacingY03
350
E4
  3
Grid/IsometricGrid00
350
E5
  3
Grid/IsometricGrid01
350
E6
  3
Grid/IsometricGrid02
350
E7
  3
Grid/IsometricGrid03
350
E8
  3
Grid/IsometricProjection00
350
E9
  3
Grid/IsometricProjection01
350
EA
  3
Grid/IsometricProjection02
350
EB
  3
Grid/IsometricProjection03
350
EC
  3
Grid/MetaGridSpacingX00
350
ED
  3
Grid/MetaGridSpacingX01
350
EE
  3
Grid/MetaGridSpacingX02
350
EF
  3
Grid/MetaGridSpacingX03
350
F0
  3
Grid/MetaGridSpacingY00
350
F1
  3
Grid/MetaGridSpacingY01
350
F2
  3
Grid/MetaGridSpacingY02
350
F3
  3
Grid/MetaGridSpacingY03
350
F4
  3
MultiPageSettings/Columns
350
F5
  3
MultiPageSettings/GlueMarginsBottom
350
F6
  3
MultiPageSettings/GlueMarginsLeft
350
F7
  3
MultiPageSettings/GlueMarginsRight
350
F8
  3
MultiPageSettings/GlueMarginsTop
350
F9
  3
MultiPageSettings/PrintCropMarks
350
FA
  3
MultiPageSettings/Rows
350
FB
  3
PageSettings/OffsetX
350
FC
  3
PageSettings/OffsetY
350
FD
  3
PageSettings/PageOrientation
350
FE
  3
PageSettings/PaperHeight
350
FF
  3
PageSettings/PaperWidth
350
100
  3
PageSettings/Scale
350
101
  3
PageSettings/ShowPaperBorders
350
102
  3
PageTagSettings/EnablePageTags
350
103
  3
PageTagSettings/TagAlignment
350
104
  3
PageTagSettings/TagFont
350
105
  3
PageTagSettings/TagPosition
350
106
  3
QCADVersion
350
107
  3
UnitSettings/PaperUnit
350
108
  3
ViewportCenter
350
109
  3
ViewportHeight
350
10A
  3
ViewportWidth
350
10B
  0
XRECORD
  5
D7
330
D4
100
AcDbXrecord
280
1
1000
Bianco
  0
XRECORD
  5
D8
330
D4
100
AcDbXrecord
280
1
1000
FullColor
  0
XRECORD
  5
D9
330
D4
100
AcDbXrecord
280
1
290
1
  0
XRECORD
  5
DA
330
D4
100
AcDbXrecord
280
1
290
1
  0
XRECORD
  5
DB
330
D4
100
AcDbXrecord
280
1
290
1
  0
XRECORD
  5
DC
330
D4
100
AcDbXrecord
280
1
290
1
  0
XRECORD
  5
DD
330
D4
100
AcDbXrecord
280
1
1000
auto
  0
XRECORD
  5
DE
330
D4
100
AcDbXrecord
280
1
1000
auto
  0
XRECORD
  5
DF
330
D4
100
AcDbXrecord
280
1
1000
auto
  0
XRECORD
  5
E0
330
D4
100
AcDbXrecord
280
1
1000
auto
  0
XRECORD
  5
E1
330
D4
100
AcDbXrecord
280
1
1000
auto
  0
XRECORD
  5
E2
330
D4
100
AcDbXrecord
280
1
1000
auto
  0
XRECORD
  5
E3
330
D4
100
AcDbXrecord
280
1
1000
auto
  0
XRECORD
  5
E4
330
D4
100
AcDbXrecord
280
1
1000
auto
  0
XRECORD
  5
E5
330
D4
100
AcDbXrecord
280
1
290
0
  0
XRECORD
  5
E6
330
D4
100
AcDbXrecord
280
1
290
0
  0
XRECORD
  5
E7
330
D4
100
AcDbXrecord
280
1
290
0
  0
XRECORD
  5
E8
330
D4
100
AcDbXrecord
280
1
290
0
  0
XRECORD
  5
E9
330
D4
100
AcDbXrecord
280
1
 90
65537
  0
XRECORD
  5
EA
330
D4
100
AcDbXrecord
280
1
 90
65537
  0
XRECORD
  5
EB
330
D4
100
AcDbXrecord
280
1
 90
65537
  0
XRECORD
  5
EC
330
D4
100
AcDbXrecord
280
1
 90
65537
  0
XRECORD
  5
ED
330
D4
100
AcDbXrecord
280
1
1000
auto
  0
XRECORD
  5
EE
330
D4
100
AcDbXrecord
280
1
1000
auto
  0
XRECORD
  5
EF
330
D4
100
AcDbXrecord
280
1
1000
auto
  0
XRECORD
  5
F0
330
D4
100
AcDbXrecord
280
1
1000
auto
  0
XRECORD
  5
F1
330
D4
100
AcDbXrecord
280
1
1000
auto
  0
XRECORD
  5
F2
330
D4
100
AcDbXrecord
280
1
1000
auto
  0
XRECORD
  5
F3
330
D4
100
AcDbXrecord
280
1
1000
auto
  0
XRECORD
  5
F4
330
D4
100
AcDbXrecord
280
1
1000
auto
  0
XRECORD
  5
F5
330
D4
100
AcDbXrecord
280
1
 90
1
  0
XRECORD
  5
F6
330
D4
100
AcDbXrecord
280
1
 40
10.0
  0
XRECORD
  5
F7
330
D4
100
AcDbXrecord
280
1
 40
10.0
  0
XRECORD
  5
F8
330
D4
100
AcDbXrecord
280
1
 40
10.0
  0
XRECORD
  5
F9
330
D4
100
AcDbXrecord
280
1
 40
10.0
  0
XRECORD
  5
FA
330
D4
100
AcDbXrecord
280
1
290
0
  0
XRECORD
  5
FB
330
D4
100
AcDbXrecord
280
1
 90
1
  0
XRECORD
  5
FC
330
D4
100
AcDbXrecord
280
1
 40
0.0
  0
XRECORD
  5
FD
330
D4
100
AcDbXrecord
280
1
 40
0.0
  0
XRECORD
  5
FE
330
D4
100
AcDbXrecord
280
1
1000
Portrait
  0
XRECORD
  5
FF
330
D4
100
AcDbXrecord
280
1
 40
297.0
  0
XRECORD
  5
100
330
D4
100
AcDbXrecord
280
1
 40
210.0
  0
XRECORD
  5
101
330
D4
100
AcDbXrecord
280
1
1000
1:1
  0
XRECORD
  5
102
330
D4
100
AcDbXrecord
280
1
290
1
  0
XRECORD
  5
103
330
D4
100
AcDbXrecord
280
1
290
0
  0
XRECORD
  5
104
330
D4
100
AcDbXrecord
280
1
1000
Inside
  0
XRECORD
  5
105
330
D4
100
AcDbXrecord
280
1
1000
Arial,10,-1,5,50,0,0,0,0,0
  0
XRECORD
  5
106
330
D4
100
AcDbXrecord
280
1
1000
TopLeft
  0
XRECORD
  5
107
330
D4
100
AcDbXrecord
280
1
1000
3.32.6
  0
XRECORD
  5
108
330
D4
100
AcDbXrecord
280
1
 90
4
  0
XRECORD
  5
10A
330
D4
100
AcDbXrecord
280
1
 40
1161.6894267238110388
  0
XRECORD
  5
10B
330
D4
100
AcDbXrecord
280
1
 40
2317.2160448177878607
  0
ENDSEC
  0
EOF
