  0
SECTION
  2
HEADER
  9
$ACADVER
  1
AC1015
  9
$ACADMAINTVER
 70
6
  9
$DWGCODEPAGE
  3
ANSI_1252
  9
$EXTMIN
 10
1e+20
 20
1e+20
 30
1e+20
  9
$EXTMAX
 10
-1e+20
 20
-1e+20
 30
-1e+20
  9
$LIMMIN
 10
0.0
 20
0.0
  9
$LIMMAX
 10
420.0
 20
297.0
  9
$TDCREATE
 40
2461193.519618056
  9
$TDUPDATE
 40
2461193.519618056
  9
$HANDSEED
  5
10075
  9
$PEXTMIN
 10
1e+20
 20
1e+20
 30
1e+20
  9
$PEXTMAX
 10
-1e+20
 20
-1e+20
 30
-1e+20
  9
$PLIMMIN
 10
0.0
 20
0.0
  9
$PLIMMAX
 10
420.0
 20
297.0
  9
$INSUNITS
 70
4
  9
$FINGERPRINTGUID
  2
{F2B579B7-9557-41E7-93D9-409A72432969}
  9
$VERSIONGUID
  2
{E0AF0147-2C5F-4DED-B749-F83C6612D8F9}
  0
ENDSEC
  0
SECTION
  2
CLASSES
  0
CLASS
  1
ACDBDICTIONARYWDFLT
  2
AcDbDictionaryWithDefault
  3
ObjectDBX Classes
 90
0
280
0
281
0
  0
CLASS
  1
SUN
  2
AcDbSun
  3
SCENEOE
 90
1153
280
0
281
0
  0
CLASS
  1
VISUALSTYLE
  2
AcDbVisualStyle
  3
ObjectDBX Classes
 90
4095
280
0
281
0
  0
CLASS
  1
MATERIAL
  2
AcDbMaterial
  3
ObjectDBX Classes
 90
1153
280
0
281
0
  0
CLASS
  1
SCALE
  2
AcDbScale
  3
ObjectDBX Classes
 90
1153
280
0
281
0
  0
CLASS
  1
TABLESTYLE
  2
AcDbTableStyle
  3
ObjectDBX Classes
 90
4095
280
0
281
0
  0
CLASS
  1
MLEADERSTYLE
  2
AcDbMLeaderStyle
  3
ACDB_MLEADERSTYLE_CLASS
 90
4095
280
0
281
0
  0
CLASS
  1
DICTIONARYVAR
  2
AcDbDictionaryVar
  3
ObjectDBX Classes
 90
0
280
0
281
0
  0
CLASS
  1
CELLSTYLEMAP
  2
AcDbCellStyleMap
  3
ObjectDBX Classes
 90
1152
280
0
281
0
  0
CLASS
  1
MENTALRAYRENDERSETTINGS
  2
AcDbMentalRayRenderSettings
  3
SCENEOE
 90
1024
280
0
281
0
  0
CLASS
  1
ACDBDETAILVIEWSTYLE
  2
AcDbDetailViewStyle
  3
ObjectDBX Classes
 90
1025
280
0
281
0
  0
CLASS
  1
ACDBSECTIONVIEWSTYLE
  2
AcDbSectionViewStyle
  3
ObjectDBX Classes
 90
1025
280
0
281
0
  0
CLASS
  1
RASTERVARIABLES
  2
AcDbRasterVariables
  3
ISM
 90
0
280
0
281
0
  0
CLASS
  1
ACDBPLACEHOLDER
  2
AcDbPlaceHolder
  3
ObjectDBX Classes
 90
0
280
0
281
0
  0
CLASS
  1
LAYOUT
  2
AcDbLayout
  3
ObjectDBX Classes
 90
0
280
0
281
0
  0
ENDSEC
  0
SECTION
  2
TABLES
  0
TABLE
  2
VPORT
  5
8
330
0
100
AcDbSymbolTable
 70
1
  0
VPORT
  5
1006A
330
8
100
AcDbSymbolTableRecord
100
AcDbViewportTableRecord
  2
*Active
 70
0
 10
0.0
 20
0.0
 11
1.0
 21
1.0
 12
0.0
 22
0.0
 13
0.0
 23
0.0
 14
0.5
 24
0.5
 15
0.5
 25
0.5
 16
0.0
 26
0.0
 36
1.0
 17
0.0
 27
0.0
 37
0.0
 40
1000.0
 41
1.34
 42
50.0
 43
0.0
 44
0.0
 50
0.0
 51
0.0
 71
0
 72
1000
 73
1
 74
3
 75
0
 76
0
 77
0
 78
0
281
0
 65
0
146
0.0
  0
ENDTAB
  0
TABLE
  2
LTYPE
  5
5
330
0
100
AcDbSymbolTable
 70
4
  0
LTYPE
  5
16
330
5
100
AcDbSymbolTableRecord
100
AcDbLinetypeTableRecord
  2
DASHED
 70
0
  3
Dashed __ __ __ __ __ __ __ __ __ __ __ __ __ _
 72
65
 73
2
 40
0.75
 49
0.5
 74
0
 49
-0.25
 74
0
  0
LTYPE
  5
1006B
330
5
100
AcDbSymbolTableRecord
100
AcDbLinetypeTableRecord
  2
Continuous
 70
0
  3

 72
65
 73
0
 40
0.0
  0
ENDTAB
  0
TABLE
  2
LAYER
  5
2
330
0
100
AcDbSymbolTable
 70
2
  0
LAYER
  5
50
330
2
100
AcDbSymbolTableRecord
100
AcDbLayerTableRecord
  2
0
 70
0
 62
7
  6
CONTINUOUS
370
-3
390
10060
  0
LAYER
  5
1006C
330
2
100
AcDbSymbolTableRecord
100
AcDbLayerTableRecord
  2
Defpoints
 70
0
 62
7
  6
Continuous
290
0
370
-3
390
10060
  0
ENDTAB
  0
TABLE
  2
STYLE
  5
3
330
0
100
AcDbSymbolTable
 70
1
  0
STYLE
  5
11
330
3
100
AcDbSymbolTableRecord
100
AcDbTextStyleTableRecord
  2
STANDARD
 70
0
 40
0.0
 41
1.0
 50
0.0
 71
0
 42
2.5
  3
txt
  4

  0
ENDTAB
  0
TABLE
  2
VIEW
  5
6
330
0
100
AcDbSymbolTable
 70
0
  0
ENDTAB
  0
TABLE
  2
UCS
  5
7
330
0
100
AcDbSymbolTable
 70
0
  0
ENDTAB
  0
TABLE
  2
APPID
  5
9
330
0
100
AcDbSymbolTable
 70
4
  0
APPID
  5
12
330
9
100
AcDbSymbolTableRecord
100
AcDbRegAppTableRecord
  2
ACAD
 70
0
  0
APPID
  5
10070
330
9
100
AcDbSymbolTableRecord
100
AcDbRegAppTableRecord
  2
FORGE
 70
0
  0
APPID
  5
10071
330
9
100
AcDbSymbolTableRecord
100
AcDbRegAppTableRecord
  2
HATCHBACKGROUNDCOLOR
 70
0
  0
APPID
  5
10072
330
9
100
AcDbSymbolTableRecord
100
AcDbRegAppTableRecord
  2
EZDXF
 70
0
  0
ENDTAB
  0
TABLE
  2
DIMSTYLE
  5
A
330
0
100
AcDbSymbolTable
 70
1
100
AcDbDimStyleTable
  0
DIMSTYLE
105
1006D
330
A
100
AcDbSymbolTableRecord
100
AcDbDimStyleTableRecord
  2
Standard
 70
0
  3

  4

 40
1.0
 41
2.5
 42
0.625
 43
3.75
 44
1.25
 45
0.0
 46
0.0
 47
0.0
 48
0.0
140
2.5
141
2.5
142
0.0
143
0.03937007874
144
1.0
145
0.0
146
1.0
147
0.625
148
0.0
 71
0
 72
0
 73
0
 74
0
 75
0
 76
0
 77
1
 78
8
 79
3
170
0
171
3
172
1
173
0
174
0
175
0
176
0
177
0
178
0
179
2
271
2
272
2
273
2
274
3
275
0
276
0
277
2
278
44
279
0
280
0
281
0
282
0
283
0
284
8
285
0
286
0
288
0
289
3
371
-2
372
-2
  0
ENDTAB
  0
TABLE
  2
BLOCK_RECORD
  5
1
330
0
100
AcDbSymbolTable
 70
22
  0
BLOCK_RECORD
  5
1F
330
1
100
AcDbSymbolTableRecord
100
AcDbBlockTableRecord
  2
*MODEL_SPACE
340
10064
  0
BLOCK_RECORD
  5
1B
330
1
100
AcDbSymbolTableRecord
100
AcDbBlockTableRecord
  2
*PAPER_SPACE
340
10065
  0
BLOCK_RECORD
  5
FFFF
330
1
100
AcDbSymbolTableRecord
100
AcDbBlockTableRecord
  2
_CLOSEDFILLED
340
0
  0
BLOCK_RECORD
  5
10003
330
1
100
AcDbSymbolTableRecord
100
AcDbBlockTableRecord
  2
_OBLIQUE
340
0
  0
BLOCK_RECORD
  5
10007
330
1
100
AcDbSymbolTableRecord
100
AcDbBlockTableRecord
  2
_NONE
340
0
  0
BLOCK_RECORD
  5
1000A
330
1
100
AcDbSymbolTableRecord
100
AcDbBlockTableRecord
  2
_SMALL
340
0
  0
BLOCK_RECORD
  5
1000E
330
1
100
AcDbSymbolTableRecord
100
AcDbBlockTableRecord
  2
_ORIGIN
340
0
  0
BLOCK_RECORD
  5
10013
330
1
100
AcDbSymbolTableRecord
100
AcDbBlockTableRecord
  2
_DATUMFILLED
340
0
  0
BLOCK_RECORD
  5
10017
330
1
100
AcDbSymbolTableRecord
100
AcDbBlockTableRecord
  2
_DATUMBLANK
340
0
  0
BLOCK_RECORD
  5
1001B
330
1
100
AcDbSymbolTableRecord
100
AcDbBlockTableRecord
  2
_DOT
340
0
  0
BLOCK_RECORD
  5
10020
330
1
100
AcDbSymbolTableRecord
100
AcDbBlockTableRecord
  2
_BOXBLANK
340
0
  0
BLOCK_RECORD
  5
10025
330
1
100
AcDbSymbolTableRecord
100
AcDbBlockTableRecord
  2
_BOXFILLED
340
0
  0
BLOCK_RECORD
  5
1002A
330
1
100
AcDbSymbolTableRecord
100
AcDbBlockTableRecord
  2
_ORIGIN2
340
0
  0
BLOCK_RECORD
  5
10030
330
1
100
AcDbSymbolTableRecord
100
AcDbBlockTableRecord
  2
_CLOSED
340
0
  0
BLOCK_RECORD
  5
10035
330
1
100
AcDbSymbolTableRecord
100
AcDbBlockTableRecord
  2
_CLOSEDBLANK
340
0
  0
BLOCK_RECORD
  5
10039
330
1
100
AcDbSymbolTableRecord
100
AcDbBlockTableRecord
  2
_DOTBLANK
340
0
  0
BLOCK_RECORD
  5
1003E
330
1
100
AcDbSymbolTableRecord
100
AcDbBlockTableRecord
  2
_OPEN
340
0
  0
BLOCK_RECORD
  5
10043
330
1
100
AcDbSymbolTableRecord
100
AcDbBlockTableRecord
  2
_DOTSMALL
340
0
  0
BLOCK_RECORD
  5
10047
330
1
100
AcDbSymbolTableRecord
100
AcDbBlockTableRecord
  2
_INTEGRAL
340
0
  0
BLOCK_RECORD
  5
1004C
330
1
100
AcDbSymbolTableRecord
100
AcDbBlockTableRecord
  2
_ARCHTICK
340
0
  0
BLOCK_RECORD
  5
10050
330
1
100
AcDbSymbolTableRecord
100
AcDbBlockTableRecord
  2
_OPEN90
340
0
  0
BLOCK_RECORD
  5
10055
330
1
100
AcDbSymbolTableRecord
100
AcDbBlockTableRecord
  2
_OPEN30
340
0
  0
ENDTAB
  0
ENDSEC
  0
SECTION
  2
BLOCKS
  0
BLOCK
  5
20
330
1F
100
AcDbEntity
  8
0
100
AcDbBlockBegin
  2
*MODEL_SPACE
 70
0
 10
0.0
 20
0.0
 30
0.0
  3
*MODEL_SPACE
  1

  0
ENDBLK
  5
21
330
1F
100
AcDbEntity
  8
0
100
AcDbBlockEnd
  0
BLOCK
  5
1C
330
1B
100
AcDbEntity
  8
0
100
AcDbBlockBegin
  2
*PAPER_SPACE
 70
0
 10
0.0
 20
0.0
 30
0.0
  3
*PAPER_SPACE
  1

  0
ENDBLK
  5
1D
330
1B
100
AcDbEntity
  8
0
100
AcDbBlockEnd
  0
BLOCK
  5
10000
330
FFFF
100
AcDbEntity
  8
0
100
AcDbBlockBegin
  2
_CLOSEDFILLED
 70
0
 10
0.0
 20
0.0
 30
0.0
  3
_CLOSEDFILLED
  1

  0
SOLID
  5
10002
330
FFFF
100
AcDbEntity
  8
0
  6
BYBLOCK
 62
0
100
AcDbTrace
 10
-1.0
 20
0.16439898372402537
 30
0.0
 11
0.0
 21
0.0
 31
0.0
 12
-1.0
 22
-0.16439898372402537
 32
0.0
 13
-1.0
 23
-0.16439898372402537
 33
0.0
  0
ENDBLK
  5
10001
330
FFFF
100
AcDbEntity
  8
0
100
AcDbBlockEnd
  0
BLOCK
  5
10004
330
10003
100
AcDbEntity
  8
0
100
AcDbBlockBegin
  2
_OBLIQUE
 70
0
 10
0.0
 20
0.0
 30
0.0
  3
_OBLIQUE
  1

  0
LINE
  5
10006
330
10003
100
AcDbEntity
  8
0
  6
BYBLOCK
 62
0
100
AcDbLine
 10
-0.5
 20
-0.5
 30
0.0
 11
0.5
 21
0.5
 31
0.0
  0
ENDBLK
  5
10005
330
10003
100
AcDbEntity
  8
0
100
AcDbBlockEnd
  0
BLOCK
  5
10008
330
10007
100
AcDbEntity
  8
0
100
AcDbBlockBegin
  2
_NONE
 70
0
 10
0.0
 20
0.0
 30
0.0
  3
_NONE
  1

  0
ENDBLK
  5
10009
330
10007
100
AcDbEntity
  8
0
100
AcDbBlockEnd
  0
BLOCK
  5
1000B
330
1000A
100
AcDbEntity
  8
0
100
AcDbBlockBegin
  2
_SMALL
 70
0
 10
0.0
 20
0.0
 30
0.0
  3
_SMALL
  1

  0
CIRCLE
  5
1000D
330
1000A
100
AcDbEntity
  8
0
  6
BYBLOCK
 62
0
100
AcDbCircle
 10
0.0
 20
0.0
 30
0.0
 40
0.25
  0
ENDBLK
  5
1000C
330
1000A
100
AcDbEntity
  8
0
100
AcDbBlockEnd
  0
BLOCK
  5
1000F
330
1000E
100
AcDbEntity
  8
0
100
AcDbBlockBegin
  2
_ORIGIN
 70
0
 10
0.0
 20
0.0
 30
0.0
  3
_ORIGIN
  1

  0
CIRCLE
  5
10011
330
1000E
100
AcDbEntity
  8
0
  6
BYBLOCK
 62
0
100
AcDbCircle
 10
0.0
 20
0.0
 30
0.0
 40
0.5
  0
LINE
  5
10012
330
1000E
100
AcDbEntity
  8
0
  6
BYBLOCK
 62
0
100
AcDbLine
 10
0.0
 20
0.0
 30
0.0
 11
-1.0
 21
0.0
 31
0.0
  0
ENDBLK
  5
10010
330
1000E
100
AcDbEntity
  8
0
100
AcDbBlockEnd
  0
BLOCK
  5
10014
330
10013
100
AcDbEntity
  8
0
100
AcDbBlockBegin
  2
_DATUMFILLED
 70
0
 10
0.0
 20
0.0
 30
0.0
  3
_DATUMFILLED
  1

  0
SOLID
  5
10016
330
10013
100
AcDbEntity
  8
0
  6
BYBLOCK
 62
0
100
AcDbTrace
 10
0.0
 20
0.577350269
 30
0.0
 11
0.0
 21
-0.577350269
 31
0.0
 12
-1.0
 22
0.0
 32
0.0
 13
-1.0
 23
0.0
 33
0.0
  0
ENDBLK
  5
10015
330
10013
100
AcDbEntity
  8
0
100
AcDbBlockEnd
  0
BLOCK
  5
10018
330
10017
100
AcDbEntity
  8
0
100
AcDbBlockBegin
  2
_DATUMBLANK
 70
0
 10
0.0
 20
0.0
 30
0.0
  3
_DATUMBLANK
  1

  0
LWPOLYLINE
  5
1001A
330
10017
100
AcDbEntity
  8
0
  6
BYBLOCK
 62
0
100
AcDbPolyline
 90
3
 70
1
 10
0.0
 20
0.577350269
 10
0.0
 20
-0.577350269
 10
-1.0
 20
0.0
  0
ENDBLK
  5
10019
330
10017
100
AcDbEntity
  8
0
100
AcDbBlockEnd
  0
BLOCK
  5
1001C
330
1001B
100
AcDbEntity
  8
0
100
AcDbBlockBegin
  2
_DOT
 70
0
 10
0.0
 20
0.0
 30
0.0
  3
_DOT
  1

  0
LINE
  5
1001E
330
1001B
100
AcDbEntity
  8
0
  6
BYBLOCK
 62
0
100
AcDbLine
 10
-0.5
 20
0.0
 30
0.0
 11
-1.0
 21
0.0
 31
0.0
  0
LWPOLYLINE
  5
1001F
330
1001B
100
AcDbEntity
  8
0
  6
BYBLOCK
 62
0
100
AcDbPolyline
 90
2
 70
1
 43
0.5
 10
-0.25
 20
0.0
 42
1.0
 10
0.25
 20
0.0
 42
1.0
  0
ENDBLK
  5
1001D
330
1001B
100
AcDbEntity
  8
0
100
AcDbBlockEnd
  0
BLOCK
  5
10021
330
10020
100
AcDbEntity
  8
0
100
AcDbBlockBegin
  2
_BOXBLANK
 70
0
 10
0.0
 20
0.0
 30
0.0
  3
_BOXBLANK
  1

  0
LWPOLYLINE
  5
10023
330
10020
100
AcDbEntity
  8
0
  6
BYBLOCK
 62
0
100
AcDbPolyline
 90
4
 70
1
 10
-0.5
 20
-0.5
 10
0.5
 20
-0.5
 10
0.5
 20
0.5
 10
-0.5
 20
0.5
  0
LINE
  5
10024
330
10020
100
AcDbEntity
  8
0
  6
BYBLOCK
 62
0
100
AcDbLine
 10
-0.5
 20
0.0
 30
0.0
 11
-1.0
 21
0.0
 31
0.0
  0
ENDBLK
  5
10022
330
10020
100
AcDbEntity
  8
0
100
AcDbBlockEnd
  0
BLOCK
  5
10026
330
10025
100
AcDbEntity
  8
0
100
AcDbBlockBegin
  2
_BOXFILLED
 70
0
 10
0.0
 20
0.0
 30
0.0
  3
_BOXFILLED
  1

  0
SOLID
  5
10028
330
10025
100
AcDbEntity
  8
0
  6
BYBLOCK
 62
0
100
AcDbTrace
 10
-0.5
 20
-0.5
 30
0.0
 11
0.5
 21
-0.5
 31
0.0
 12
-0.5
 22
0.5
 32
0.0
 13
0.5
 23
0.5
 33
0.0
  0
LINE
  5
10029
330
10025
100
AcDbEntity
  8
0
  6
BYBLOCK
 62
0
100
AcDbLine
 10
-0.5
 20
0.0
 30
0.0
 11
-1.0
 21
0.0
 31
0.0
  0
ENDBLK
  5
10027
330
10025
100
AcDbEntity
  8
0
100
AcDbBlockEnd
  0
BLOCK
  5
1002B
330
1002A
100
AcDbEntity
  8
0
100
AcDbBlockBegin
  2
_ORIGIN2
 70
0
 10
0.0
 20
0.0
 30
0.0
  3
_ORIGIN2
  1

  0
CIRCLE
  5
1002D
330
1002A
100
AcDbEntity
  8
0
  6
BYBLOCK
 62
0
100
AcDbCircle
 10
0.0
 20
0.0
 30
0.0
 40
0.5
  0
CIRCLE
  5
1002E
330
1002A
100
AcDbEntity
  8
0
  6
BYBLOCK
 62
0
100
AcDbCircle
 10
0.0
 20
0.0
 30
0.0
 40
0.25
  0
LINE
  5
1002F
330
1002A
100
AcDbEntity
  8
0
  6
BYBLOCK
 62
0
100
AcDbLine
 10
-0.5
 20
0.0
 30
0.0
 11
-1.0
 21
0.0
 31
0.0
  0
ENDBLK
  5
1002C
330
1002A
100
AcDbEntity
  8
0
100
AcDbBlockEnd
  0
BLOCK
  5
10031
330
10030
100
AcDbEntity
  8
0
100
AcDbBlockBegin
  2
_CLOSED
 70
0
 10
0.0
 20
0.0
 30
0.0
  3
_CLOSED
  1

  0
LWPOLYLINE
  5
10033
330
10030
100
AcDbEntity
  8
0
  6
BYBLOCK
 62
0
100
AcDbPolyline
 90
3
 70
1
 10
-1.0
 20
0.16439898372402537
 10
0.0
 20
0.0
 10
-1.0
 20
-0.16439898372402537
  0
LINE
  5
10034
330
10030
100
AcDbEntity
  8
0
  6
BYBLOCK
 62
0
100
AcDbLine
 10
0.0
 20
0.0
 30
0.0
 11
-1.0
 21
0.0
 31
0.0
  0
ENDBLK
  5
10032
330
10030
100
AcDbEntity
  8
0
100
AcDbBlockEnd
  0
BLOCK
  5
10036
330
10035
100
AcDbEntity
  8
0
100
AcDbBlockBegin
  2
_CLOSEDBLANK
 70
0
 10
0.0
 20
0.0
 30
0.0
  3
_CLOSEDBLANK
  1

  0
LWPOLYLINE
  5
10038
330
10035
100
AcDbEntity
  8
0
  6
BYBLOCK
 62
0
100
AcDbPolyline
 90
3
 70
1
 10
-1.0
 20
0.16439898372402537
 10
0.0
 20
0.0
 10
-1.0
 20
-0.16439898372402537
  0
ENDBLK
  5
10037
330
10035
100
AcDbEntity
  8
0
100
AcDbBlockEnd
  0
BLOCK
  5
1003A
330
10039
100
AcDbEntity
  8
0
100
AcDbBlockBegin
  2
_DOTBLANK
 70
0
 10
0.0
 20
0.0
 30
0.0
  3
_DOTBLANK
  1

  0
CIRCLE
  5
1003C
330
10039
100
AcDbEntity
  8
0
  6
BYBLOCK
 62
0
100
AcDbCircle
 10
0.0
 20
0.0
 30
0.0
 40
0.5
  0
LINE
  5
1003D
330
10039
100
AcDbEntity
  8
0
  6
BYBLOCK
 62
0
100
AcDbLine
 10
-0.5
 20
0.0
 30
0.0
 11
-1.0
 21
0.0
 31
0.0
  0
ENDBLK
  5
1003B
330
10039
100
AcDbEntity
  8
0
100
AcDbBlockEnd
  0
BLOCK
  5
1003F
330
1003E
100
AcDbEntity
  8
0
100
AcDbBlockBegin
  2
_OPEN
 70
0
 10
0.0
 20
0.0
 30
0.0
  3
_OPEN
  1

  0
LWPOLYLINE
  5
10041
330
1003E
100
AcDbEntity
  8
0
  6
BYBLOCK
 62
0
100
AcDbPolyline
 90
3
 70
0
 10
-1.0
 20
0.16439898372402537
 10
0.0
 20
0.0
 10
-1.0
 20
-0.16439898372402537
  0
LINE
  5
10042
330
1003E
100
AcDbEntity
  8
0
  6
BYBLOCK
 62
0
100
AcDbLine
 10
0.0
 20
0.0
 30
0.0
 11
-1.0
 21
0.0
 31
0.0
  0
ENDBLK
  5
10040
330
1003E
100
AcDbEntity
  8
0
100
AcDbBlockEnd
  0
BLOCK
  5
10044
330
10043
100
AcDbEntity
  8
0
100
AcDbBlockBegin
  2
_DOTSMALL
 70
0
 10
0.0
 20
0.0
 30
0.0
  3
_DOTSMALL
  1

  0
LWPOLYLINE
  5
10046
330
10043
100
AcDbEntity
  8
0
  6
BYBLOCK
 62
0
100
AcDbPolyline
 90
2
 70
1
 43
0.125
 10
-0.0625
 20
0.0
 42
1.0
 10
0.0625
 20
0.0
 42
1.0
  0
ENDBLK
  5
10045
330
10043
100
AcDbEntity
  8
0
100
AcDbBlockEnd
  0
BLOCK
  5
10048
330
10047
100
AcDbEntity
  8
0
100
AcDbBlockBegin
  2
_INTEGRAL
 70
0
 10
0.0
 20
0.0
 30
0.0
  3
_INTEGRAL
  1

  0
ARC
  5
1004A
330
10047
100
AcDbEntity
  8
0
  6
BYBLOCK
 62
0
100
AcDbCircle
 10
-0.3535534
 20
0.0
 30
0.0
 40
0.3535534
100
AcDbArc
 50
-90.0
 51
0.0
  0
ARC
  5
1004B
330
10047
100
AcDbEntity
  8
0
  6
BYBLOCK
 62
0
100
AcDbCircle
 10
0.3535534
 20
0.0
 30
0.0
 40
0.3535534
100
AcDbArc
 50
90.0
 51
180.0
  0
ENDBLK
  5
10049
330
10047
100
AcDbEntity
  8
0
100
AcDbBlockEnd
  0
BLOCK
  5
1004D
330
1004C
100
AcDbEntity
  8
0
100
AcDbBlockBegin
  2
_ARCHTICK
 70
0
 10
0.0
 20
0.0
 30
0.0
  3
_ARCHTICK
  1

  0
LWPOLYLINE
  5
1004F
330
1004C
100
AcDbEntity
  8
0
  6
BYBLOCK
 62
0
100
AcDbPolyline
 90
2
 70
0
 43
0.15
 10
-0.5
 20
-0.5
 10
0.5
 20
0.5
  0
ENDBLK
  5
1004E
330
1004C
100
AcDbEntity
  8
0
100
AcDbBlockEnd
  0
BLOCK
  5
10051
330
10050
100
AcDbEntity
  8
0
100
AcDbBlockBegin
  2
_OPEN90
 70
0
 10
0.0
 20
0.0
 30
0.0
  3
_OPEN90
  1

  0
LWPOLYLINE
  5
10053
330
10050
100
AcDbEntity
  8
0
  6
BYBLOCK
 62
0
100
AcDbPolyline
 90
3
 70
0
 10
-1.0
 20
0.7071067811865476
 10
0.0
 20
0.0
 10
-1.0
 20
-0.7071067811865476
  0
LINE
  5
10054
330
10050
100
AcDbEntity
  8
0
  6
BYBLOCK
 62
0
100
AcDbLine
 10
0.0
 20
0.0
 30
0.0
 11
-1.0
 21
0.0
 31
0.0
  0
ENDBLK
  5
10052
330
10050
100
AcDbEntity
  8
0
100
AcDbBlockEnd
  0
BLOCK
  5
10056
330
10055
100
AcDbEntity
  8
0
100
AcDbBlockBegin
  2
_OPEN30
 70
0
 10
0.0
 20
0.0
 30
0.0
  3
_OPEN30
  1

  0
LWPOLYLINE
  5
10058
330
10055
100
AcDbEntity
  8
0
  6
BYBLOCK
 62
0
100
AcDbPolyline
 90
3
 70
0
 10
-1.0
 20
0.25881904510252074
 10
0.0
 20
0.0
 10
-1.0
 20
-0.25881904510252074
  0
LINE
  5
10059
330
10055
100
AcDbEntity
  8
0
  6
BYBLOCK
 62
0
100
AcDbLine
 10
0.0
 20
0.0
 30
0.0
 11
-1.0
 21
0.0
 31
0.0
  0
ENDBLK
  5
10057
330
10055
100
AcDbEntity
  8
0
100
AcDbBlockEnd
  0
ENDSEC
  0
SECTION
  2
ENTITIES
  0
SPLINE
  5
101
330
1F
100
AcDbEntity
  8
Trash
 62
1
100
AcDbSpline
 70
4
 71
5
 72
49
 73
43
 74
0
 42
1e-09
 40
0.7142520050509167
 40
0.7142520050509167
 40
0.7142520050509167
 40
0.7142520050509167
 40
0.7142520050509167
 40
0.7142520050509167
 40
0.7333333333333334
 40
0.7555555555555556
 40
0.7777777777777779
 40
0.8000000000000002
 40
0.8222222222222224
 40
0.8444444444444447
 40
0.8666666666666669
 40
0.8888888888888892
 40
0.9111111111111114
 40
0.9333333333333337
 40
0.9555555555555559
 40
0.9777777777777782
 40
1.0
 40
1.0
 40
1.0
 40
1.0
 40
1.0
 40
1.0222222222222221
 40
1.0444444444444445
 40
1.0666666666666667
 40
1.0888888888888888
 40
1.1111111111111112
 40
1.1333333333333333
 40
1.1555555555555554
 40
1.1777777777777778
 40
1.2
 40
1.2222222222222223
 40
1.2444444444444445
 40
1.2666666666666666
 40
1.2888888888888888
 40
1.3111111111111111
 40
1.3333333333333333
 40
1.3555555555555554
 40
1.3777777777777778
 40
1.4
 40
1.422222222222222
 40
1.4444444444444442
 40
1.4626223056330707
 40
1.4626223056330707
 40
1.4626223056330707
 40
1.4626223056330707
 40
1.4626223056330707
 40
1.4626223056330707
 41
1.0
 41
1.0
 41
1.0
 41
1.0
 41
1.0
 41
1.0
 41
1.0
 41
1.0
 41
1.0
 41
1.0
 41
1.0
 41
1.0
 41
1.0
 41
1.0
 41
1.0
 41
1.0
 41
1.0
 41
1.0
 41
1.0
 41
1.0
 41
1.0
 41
1.0
 41
1.0
 41
1.0
 41
1.0
 41
1.0
 41
1.0
 41
1.0
 41
1.0
 41
1.0
 41
1.0
 41
1.0
 41
1.0
 41
1.0
 41
1.0
 41
1.0
 41
1.0
 41
1.0
 41
1.0
 41
1.0
 41
1.0
 41
1.0
 41
1.0
 10
-15.030334741370442
 20
-43.21221238151043
 30
0.0
 10
-14.564692579383907
 20
-42.144079410529685
 30
0.0
 10
-13.327305933918868
 20
-39.878825496699086
 30
0.0
 10
-10.711193619510848
 20
-36.56850124594065
 30
0.0
 10
-6.023304402663959
 20
-32.49595957575954
 30
0.0
 10
0.6362572591370159
 20
-27.940574087215385
 30
0.0
 10
6.803669418678693
 20
-23.635098474852732
 30
0.0
 10
10.942769848191983
 20
-19.47748354917749
 30
0.0
 10
12.127186232463261
 20
-15.325255915060849
 30
0.0
 10
10.193079503200671
 20
-11.26523642998249
 30
0.0
 10
5.811403966084853
 20
-7.61572456714119
 30
0.0
 10
0.08032277568109952
 20
-4.678100145659893
 30
0.0
 10
-5.752120195120581
 20
-2.572648120834841
 30
0.0
 10
-10.65851598883089
 20
-0.980625145875022
 30
0.0
 10
-13.353182544257255
 20
0.5081963881491274
 30
0.0
 10
-14.533052254673322
 20
2.102749692736627
 30
0.0
 10
-14.930128382165586
 20
3.4380541396195365
 30
0.0
 10
-15.03033474149163
 20
4.175092983747676
 30
0.0
 10
-15.130541100817677
 20
4.912131827875827
 30
0.0
 10
-15.134290410629605
 20
6.524982757505516
 30
0.0
 10
-14.544189441479238
 20
9.368495234451878
 30
0.0
 10
-12.567064719596583
 20
13.892091043062544
 30
0.0
 10
-8.24111945583976
 20
19.990513210006007
 30
0.0
 10
-2.3173050705188025
 20
25.512773898639267
 30
0.0
 10
4.815043062388429
 20
29.446566619923008
 30
0.0
 10
12.63395720497168
 20
31.02199176591273
 30
0.0
 10
20.47165177951709
 20
29.987508221167126
 30
0.0
 10
27.611772442089503
 20
26.52140524887432
 30
0.0
 10
33.400614017753846
 20
21.089267892397313
 30
0.0
 10
37.35909886274688
 20
14.31890548427418
 30
0.0
 10
39.28252385891098
 20
6.874684542785384
 30
0.0
 10
39.37646091753103
 20
-0.6819675529935323
 30
0.0
 10
38.27969403615981
 20
-7.978925627358359
 30
0.0
 10
36.827298816201605
 20
-14.795810951088956
 30
0.0
 10
35.86934267184578
 20
-21.051752720385167
 30
0.0
 10
36.06260168358187
 20
-26.78420148662633
 30
0.0
 10
37.68512833846147
 20
-32.13051097222278
 30
0.0
 10
40.40835794279648
 20
-37.3127800984211
 30
0.0
 10
43.36642886995765
 20
-42.37664820979457
 30
0.0
 10
45.273801253358236
 20
-46.56798011539558
 30
0.0
 10
46.09689965276527
 20
-49.77201020763829
 30
0.0
 10
46.314203394437435
 20
-51.86829404155799
 30
0.0
 10
46.34353211979235
 20
-52.814926250642955
 30
0.0
  0
LWPOLYLINE
  5
1006F
330
1F
100
AcDbEntity
  8
OuterContour
 62
3
100
AcDbPolyline
 90
221
 70
1
 10
-15.030334741491629
 20
-43.21221238178843
 10
46.34353211959919
 20
-52.814926244408085
 10
46.31460511523766
 20
-52.223862768547164
 10
46.26489170514843
 20
-51.63414387865389
 10
46.1057074222696
 20
-50.45971611984422
 10
45.87156295871773
 20
-49.29332302678289
 10
45.56860595299828
 20
-48.13622066065204
 10
45.35237039910089
 20
-47.43390409247458
 10
45.11450109509886
 20
-46.73550540443631
 10
44.58052582660625
 20
-45.3506927042112
 10
43.98043404344271
 20
-43.98176886701687
 10
43.32849921556248
 20
-42.628018083474096
 10
42.63928606994912
 20
-41.28810674355251
 10
41.927427848775025
 20
-39.960164607550716
 10
41.207417719895474
 20
-38.64185799415315
 10
40.493405762504885
 20
-37.33045982369893
 10
39.798995953788214
 20
-36.02291960668637
 10
39.13703760628348
 20
-34.71593515319078
 10
38.519402718588836
 20
-33.40602865075534
 10
37.95675777678058
 20
-32.08962446319522
 10
37.45833577236882
 20
-30.763126915735928
 10
37.03171939951611
 20
-29.42299600392611
 10
36.84720999289563
 20
-28.746744397661853
 10
36.68265263038489
 20
-28.065817832131785
 10
36.53844893222908
 20
-27.37982048994517
 10
36.414863469747964
 20
-26.688372975805066
 10
36.312018339694866
 20
-25.991114404894148
 10
36.22989046117181
 20
-25.287704254640776
 10
36.168315706101254
 20
-24.577823109891412
 10
36.12699575601148
 20
-23.861173170413934
 10
36.103297773481636
 20
-22.406486556472235
 10
36.15399043883656
 20
-20.92171188767474
 10
36.27256538341682
 20
-19.405292178659906
 10
36.45102518238059
 20
-17.85606129898693
 10
36.68007376189779
 20
-16.27326144411914
 10
36.949297831565914
 20
-14.656561029040866
 10
37.247348156585495
 20
-13.006072697062672
 10
37.56212566490322
 20
-11.322371914513864
 10
37.880979827735196
 20
-9.606517052687371
 10
38.190911875058035
 20
-7.860070055672063
 10
38.47877797746982
 20
-6.085117057894658
 10
38.73148671870111
 20
-4.284287108227532
 10
38.93618207516066
 20
-2.460766087685747
 10
39.08042068613093
 20
-0.6183087336900823
 10
39.15234935845564
 20
1.2387492862841747
 10
39.15770060879066
 20
2.171235722886735
 10
39.14089432617813
 20
3.1054736094886763
 10
39.10070411311527
 20
4.04074749955989
 10
39.0359804158225
 20
4.976300314657401
 10
38.945657754483186
 20
5.911332198312604
 10
38.8287619534835
 20
6.844999369918524
 10
38.684417312692126
 20
7.77641296828215
 10
38.51185203459588
 20
8.704638882272594
 10
38.310399324931716
 20
9.628699409455939
 10
38.07949675413262
 20
10.547575902223766
 10
37.8186855573441
 20
11.460211403383836
 10
37.52760993444052
 20
12.365513281750612
 10
37.206016350041416
 20
13.262355867735838
 10
36.85375283352794
 20
14.149583088939114
 10
36.47076825033109
 20
15.026011119250963
 10
36.05711082629018
 20
15.89043137928115
 10
35.61292477595856
 20
16.74161442861246
 10
35.13844618397952
 20
17.57831420937978
 10
34.633998857734156
 20
18.39927230336161
 10
34.09999017998908
 20
19.20322218907163
 10
33.536906961544354
 20
19.988893498850235
 10
32.94531129388125
 20
20.75501627595607
 10
32.32583641100436
 20
21.500325228140618
 10
31.679182790334924
 20
22.223563889781353
 10
31.00611486042653
 20
22.92348855189453
 10
30.30745794773193
 20
23.598872100706608
 10
29.584095232564334
 20
24.248507852708524
 10
28.836964705058552
 20
24.8712133897102
 10
28.06705612113214
 20
25.465834393894955
 10
27.27540795844659
 20
26.031248482873885
 10
26.463104369257998
 20
26.566369044588733
 10
25.631272052392717
 20
27.070149068276915
 10
24.781076919925425
 20
27.541584965439732
 10
23.91372068298207
 20
27.97972038687281
 10
23.03043743443246
 20
28.383650039544815
 10
22.132490231582768
 20
28.752523503476375
 10
21.221167678868017
 20
29.085549048618862
 10
20.297780510544623
 20
29.381997451733273
 10
19.36365813131937
 20
29.641205828527436
 10
18.420145330250136
 20
29.862581534563386
 10
17.468598756406003
 20
30.045606434404924
 10
16.510383565864252
 20
30.18984123282042
 10
15.54687002760987
 20
30.294929824595254
 10
14.57943012943503
 20
30.360603644344128
 10
13.60943418383865
 20
30.38668601632343
 10
12.638247433925892
 20
30.373096504243605
 10
11.66722670653207
 20
30.31985525063343
 10
10.697716982824423
 20
30.22708694950717
 10
9.731048465803104
 20
30.095023921582946
 10
8.768533565248273
 20
29.924008829958403
 10
7.811463929906309
 20
29.71449738177069
 10
6.861107479676091
 20
29.467061029856247
 10
5.918705437795291
 20
29.1823896744107
 10
4.98546936302663
 20
28.861294364648703
 10
4.0625782099292875
 20
28.504709907771907
 10
3.1511761193432526
 20
28.11369506794739
 10
2.2523720624912937
 20
27.68942664762026
 10
1.3672402152938847
 20
27.233191158836856
 10
0.4968203607692599
 20
26.74637640187591
 10
-0.35788170856653073
 20
26.230463043879766
 10
-1.1958937882995764
 20
25.687016197485622
 10
-2.0162768597180487
 20
25.117676999456705
 10
-2.8181246907738697
 20
24.524154199823492
 10
-3.6005635244493726
 20
23.908216024283586
 10
-4.362751988998001
 20
23.271682730258647
 10
-5.103881095589954
 20
22.616419436209995
 10
-5.823174239319653
 20
21.944328961464226
 10
-6.519887200213117
 20
21.257344666038772
 10
-7.1933081442353375
 20
20.557423290467558
 10
-7.842757624297708
 20
19.846537795626546
 10
-8.467588607456236
 20
19.126670165729568
 10
-9.067186354147935
 20
18.399804230200925
 10
-9.640968379586734
 20
17.66791801065458
 10
-10.188384262760932
 20
16.93297608513293
 10
-10.708915483836817
 20
16.196921916324268
 10
-11.202075261562372
 20
15.461670179780253
 10
-11.667408390670913
 20
14.72909909213328
 10
-12.104491079284767
 20
14.00104273931396
 10
-12.512930769735457
 20
13.279283439388832
 10
-12.892366062733773
 20
12.565544035385233
 10
-13.24246660298516
 20
11.86148053654234
 10
-13.562933073315818
 20
11.168674688406139
 10
-13.853497169637686
 20
10.488626578110935
 10
-14.11392157591348
 20
9.822747239660847
 10
-14.343999939121685
 20
9.172351259211347
 10
-14.543556844221575
 20
8.538649380350739
 10
-14.712447787752485
 20
7.922741106525561
 10
-14.850559115923728
 20
7.325607229206871
 10
-14.957807872565448
 20
6.748102167552686
 10
-15.034141611570112
 20
6.190946233811375
 10
-15.079538207968278
 20
5.654717895868823
 10
-15.094005669004355
 20
5.139846039795692
 10
-15.077581945212344
 20
4.646602232394669
 10
-15.03033474149163
 20
4.175092983747676
 10
-14.95236135356275
 20
3.7252521746829874
 10
-14.843789162277332
 20
3.2968377739645542
 10
-14.704777796983011
 20
2.8894394459928896
 10
-14.535521956801311
 20
2.5024904486544393
 10
-14.336254257291452
 20
2.1352796961335265
 10
-14.107248077114136
 20
1.7869638217242845
 10
-13.848820404695365
 20
1.4565792406425917
 10
-13.56133468489024
 20
1.143054212838014
 10
-13.245203659038399
 20
0.8452208955204873
 10
-12.900892033202318
 20
0.5618271282709306
 10
-12.528918710254423
 20
0.29154753932636324
 10
-12.129858850146986
 20
0.032994384448902736
 10
-11.704345923573737
 20
-0.21527162449045464
 10
-11.253073765631429
 20
-0.454730490928059
 10
-10.276341240011307
 20
-0.9132854150774804
 10
-9.20649777800822
 20
-1.3549124558705818
 10
-8.051492554467645
 20
-1.7917896782339593
 10
-6.820503855935873
 20
-2.235610358699584
 10
-5.524069917136311
 20
-2.6971413375803017
 10
-4.174217644847008
 20
-3.185784457942563
 10
-2.784521431637961
 20
-3.709239169057026
 10
-1.3699854845168733
 20
-4.273421583246072
 10
0.053143746682855195
 20
-4.882484692030881
 10
1.4675691937372448
 20
-5.538844347932239
 10
2.855171982542231
 20
-6.243254603920258
 10
4.197334646122878
 20
-6.995008345357385
 10
5.4753015257179625
 20
-7.792187279590341
 10
6.0844016370876775
 20
-8.206942510271944
 10
6.670539843816958
 20
-8.631913060908863
 10
7.231490395360061
 20
-9.066627093378486
 10
7.765081059885052
 20
-9.510578577393202
 10
8.269201587661806
 20
-9.963232300733186
 10
8.74181217445004
 20
-10.42402887947918
 10
9.180951924887353
 20
-10.892389768245327
 10
9.58474731587724
 20
-11.36772227041194
 10
9.951420708742498
 20
-11.849424591588148
 10
10.279299656529158
 20
-12.336891363216592
 10
10.566828501942092
 20
-12.82952070914124
 10
10.812580763731965
 20
-13.326721783464553
 10
11.01527157518775
 20
-13.8279223510612
 10
11.173770122629273
 20
-14.332576368091756
 10
11.287112083899748
 20
-14.840171562516469
 10
11.354512066858284
 20
-15.350237014608945
 10
11.37537592595651
 20
-15.862350650657962
 10
11.349309909790106
 20
-16.37614517198682
 10
11.276121742612679
 20
-16.891309639961108
 10
11.155818545234764
 20
-17.407589495954685
 10
10.988604629820093
 20
-17.924786494688462
 10
10.774879294681936
 20
-18.442758637569227
 10
10.515234619079383
 20
-18.961420106028463
 10
10.210453258013656
 20
-19.480741194861128
 10
9.861506167288631
 20
-20.000748211228057
 10
9.469548515440797
 20
-20.521522480911866
 10
9.035910993107013
 20
-21.04319708837007
 10
8.56208930926175
 20
-21.565952724041782
 10
8.049733617718516
 20
-22.09001349731791
 10
7.50063794363127
 20
-22.615642749511384
 10
6.916729609995869
 20
-23.143138866827428
 10
6.300058664151489
 20
-23.672831093333794
 10
4.977179966479741
 20
-24.74025033419767
 10
3.550474079550693
 20
-25.821001664148127
 10
2.039780045896356
 20
-26.918450373038226
 10
0.4660439765804086
 20
-28.036129571738538
 10
-1.148940237320948
 20
-29.17764413533753
 10
-2.782795517642809
 20
-30.346572127346484
 10
-4.412839657082643
 20
-31.5463598295311
 10
-6.0163686815560435
 20
-32.780214252747626
 10
-7.5709405469338265
 20
-34.05099556885668
 10
-8.322996060561879
 20
-34.70100604018679
 10
-9.054660162258896
 20
-35.36110827166629
 10
-9.763328936095276
 20
-36.03151337997153
 10
-10.446468924965687
 20
-36.712390029449836
 10
-11.101626223950479
 20
-37.40386091971034
 10
-11.72643557367707
 20
-38.10599927321506
 10
-12.23699019693387
 20
-38.71742648949148
 10
-12.72212256443037
 20
-39.336714438860845
 10
-13.180520946208533
 20
-39.96381101602508
 10
-13.610938595082402
 20
-40.59863098031147
 10
-14.012197200683325
 20
-41.24105474539412
 10
-14.383190343505134
 20
-41.890927169015264
 10
-14.722886948949359
 20
-42.548056342706545
 10
-15.030334741370442
 20
-43.21221238151043
1001
FORGE
1000
{"label": "spline_line", "source_file": "spline_line.dxf", "quantity": 1, "material": "S275JR", "thickness_mm": 0.0, "bending_lines": 0, "countersink_count": 0, "threaded_holes_count": 0, "total_engrave_length_mm": 0.0, "area_mm2": 3225.563, "holes_count": 0, "inner_contours_count": 0, "outer_perimeter_mm": 277.8149, "inner_perimeter_mm": 0, "total_perimeter_mm": 277.8149, "bbox": {"minx": -15.094, "miny": -52.8149, "maxx": 46.3435, "maxy": 30.3867}}
  0
ENDSEC
  0
SECTION
  2
OBJECTS
  0
DICTIONARY
  5
C
330
0
100
AcDbDictionary
281
1
  3
ACAD_GROUP
350
D
  3
ACAD_MLINESTYLE
350
17
  3
ACAD_COLOR
350
1005A
  3
ACAD_LAYOUT
350
1005B
  3
ACAD_MATERIAL
350
1005C
  3
ACAD_MLEADERSTYLE
350
1005D
  3
ACAD_PLOTSETTINGS
350
1005E
  3
ACAD_PLOTSTYLENAME
350
1005F
  3
ACAD_SCALELIST
350
10061
  3
ACAD_TABLESTYLE
350
10062
  3
ACAD_VISUALSTYLE
350
10063
  3
EZDXF_META
350
10073
  0
DICTIONARY
  5
D
330
0
100
AcDbDictionary
281
1
  0
DICTIONARY
  5
1A
330
C
100
AcDbDictionary
281
1
  0
DICTIONARY
  5
17
330
0
100
AcDbDictionary
281
1
  3
Standard
350
10069
  0
DICTIONARY
  5
1005A
330
C
100
AcDbDictionary
281
1
  0
DICTIONARY
  5
1005B
330
C
100
AcDbDictionary
281
1
  3
Model
350
10064
  3
Layout1
350
10065
  0
DICTIONARY
  5
1005C
330
C
100
AcDbDictionary
281
1
  3
ByBlock
350
10066
  3
ByLayer
350
10067
  3
Global
350
10068
  0
DICTIONARY
  5
1005D
330
C
100
AcDbDictionary
281
1
  3
Standard
350
1006E
  0
DICTIONARY
  5
1005E
330
C
100
AcDbDictionary
281
1
  0
ACDBDICTIONARYWDFLT
  5
1005F
330
C
100
AcDbDictionary
281
1
  3
Normal
350
10060
100
AcDbDictionaryWithDefault
340
10060
  0
ACDBPLACEHOLDER
  5
10060
330
1005F
  0
DICTIONARY
  5
10061
330
C
100
AcDbDictionary
281
1
  0
DICTIONARY
  5
10062
330
C
100
AcDbDictionary
281
1
  0
DICTIONARY
  5
10063
330
C
100
AcDbDictionary
281
1
  0
LAYOUT
  5
10064
330
1005B
100
AcDbPlotSettings
  1

  4
A3
  6

 40
7.5
 41
20.0
 42
7.5
 43
20.0
 44
420.0
 45
297.0
 46
0.0
 47
0.0
 48
0.0
 49
0.0
140
0.0
141
0.0
142
1.0
143
1.0
 70
1024
 72
1
 73
0
 74
5
  7

 75
16
 76
0
 77
2
 78
300
147
1.0
148
0.0
149
0.0
100
AcDbLayout
  1
Model
 70
1
 71
0
 10
0.0
 20
0.0
 11
420.0
 21
297.0
 12
0.0
 22
0.0
 32
0.0
 14
1e+20
 24
1e+20
 34
1e+20
 15
-1e+20
 25
-1e+20
 35
-1e+20
146
0.0
 13
0.0
 23
0.0
 33
0.0
 16
1.0
 26
0.0
 36
0.0
 17
0.0
 27
1.0
 37
0.0
 76
1
330
1F
  0
LAYOUT
  5
10065
330
1005B
100
AcDbPlotSettings
  1

  4
A3
  6

 40
7.5
 41
20.0
 42
7.5
 43
20.0
 44
420.0
 45
297.0
 46
0.0
 47
0.0
 48
0.0
 49
0.0
140
0.0
141
0.0
142
1.0
143
1.0
 70
0
 72
1
 73
0
 74
5
  7

 75
16
 76
0
 77
2
 78
300
147
1.0
148
0.0
149
0.0
100
AcDbLayout
  1
Layout1
 70
1
 71
1
 10
0.0
 20
0.0
 11
420.0
 21
297.0
 12
0.0
 22
0.0
 32
0.0
 14
1e+20
 24
1e+20
 34
1e+20
 15
-1e+20
 25
-1e+20
 35
-1e+20
146
0.0
 13
0.0
 23
0.0
 33
0.0
 16
1.0
 26
0.0
 36
0.0
 17
0.0
 27
1.0
 37
0.0
 76
1
330
1B
  0
MATERIAL
  5
10066
102
{ACAD_REACTORS
330
1005C
102
}
330
1005C
100
AcDbMaterial
  1
ByBlock
  2

 70
0
 40
1.0
 71
1
 41
1.0
 91
-1023410177
 42
1.0
 72
1
  3

 73
1
 74
1
 75
1
 44
0.5
 73
0
 45
1.0
 46
1.0
 77
1
  4

 78
1
 79
1
170
1
 48
1.0
171
1
  6

172
1
173
1
174
1
140
1.0
141
1.0
175
1
  7

176
1
177
1
178
1
143
1.0
179
1
  8

270
1
271
1
272
1
145
1.0
146
1.0
273
1
  9

274
1
275
1
276
1
 42
1.0
 72
1
  3

 73
1
 74
1
 75
1
 94
63
  0
MATERIAL
  5
10067
102
{ACAD_REACTORS
330
1005C
102
}
330
1005C
100
AcDbMaterial
  1
ByLayer
  2

 70
0
 40
1.0
 71
1
 41
1.0
 91
-1023410177
 42
1.0
 72
1
  3

 73
1
 74
1
 75
1
 44
0.5
 73
0
 45
1.0
 46
1.0
 77
1
  4

 78
1
 79
1
170
1
 48
1.0
171
1
  6

172
1
173
1
174
1
140
1.0
141
1.0
175
1
  7

176
1
177
1
178
1
143
1.0
179
1
  8

270
1
271
1
272
1
145
1.0
146
1.0
273
1
  9

274
1
275
1
276
1
 42
1.0
 72
1
  3

 73
1
 74
1
 75
1
 94
63
  0
MATERIAL
  5
10068
102
{ACAD_REACTORS
330
1005C
102
}
330
1005C
100
AcDbMaterial
  1
Global
  2

 70
0
 40
1.0
 71
1
 41
1.0
 91
-1023410177
 42
1.0
 72
1
  3

 73
1
 74
1
 75
1
 44
0.5
 73
0
 45
1.0
 46
1.0
 77
1
  4

 78
1
 79
1
170
1
 48
1.0
171
1
  6

172
1
173
1
174
1
140
1.0
141
1.0
175
1
  7

176
1
177
1
178
1
143
1.0
179
1
  8

270
1
271
1
272
1
145
1.0
146
1.0
273
1
  9

274
1
275
1
276
1
 42
1.0
 72
1
  3

 73
1
 74
1
 75
1
 94
63
  0
MLINESTYLE
  5
10069
102
{ACAD_REACTORS
330
17
102
}
330
17
100
AcDbMlineStyle
  2
Standard
 70
0
  3

 62
256
 51
90.0
 52
90.0
 71
2
 49
0.5
 62
256
  6
BYLAYER
 49
-0.5
 62
256
  6
BYLAYER
  0
MLEADERSTYLE
  5
1006E
102
{ACAD_REACTORS
330
1005D
102
}
330
1005D
100
AcDbMLeaderStyle
179
2
170
2
171
1
172
0
 90
2
 40
0.0
 41
0.0
173
1
 91
-1056964608
 92
-2
290
1
 42
2.0
291
1
 43
8.0
  3
Standard
 44
4.0
300

342
11
174
1
175
1
176
0
178
1
 93
-1056964608
 45
4.0
292
0
297
0
 46
4.0
 94
-1056964608
 47
1.0
 49
1.0
140
1.0
294
1
141
0.0
177
0
142
1.0
295
0
296
0
143
3.75
271
0
272
9
273
9
  0
DICTIONARY
  5
10073
330
C
100
AcDbDictionary
280
1
281
1
  3
WRITTEN_BY_EZDXF
350
10074
  0
DICTIONARYVAR
  5
10074
330
10073
100
DictionaryVariables
280
0
  1
1.4.3 @ 2026-06-01T10:28:15.583895+00:00
  0
ENDSEC
  0
EOF
