0
SECTION
2
HEADER
9
$INSUNITS
70
4
9
$ACADVER
1
AC1014
9
$HANDSEED
5
FFFF
0
ENDSEC
0
SECTION
2
TABLES
0
TABLE
2
VPORT
5
8
100
AcDbSymbolTable
0
ENDTAB
0
TABLE
2
LTYPE
5
5
100
AcDbSymbolTable
0
LTYPE
5
14
100
AcDbSymbolTableRecord
100
AcDbLinetypeTableRecord
2
BYBLOCK
70
0
0
LTYPE
5
15
100
AcDbSymbolTableRecord
100
AcDbLinetypeTableRecord
2
BYLAYER
70
0
0
LTYPE
5
16
100
AcDbSymbolTableRecord
100
AcDbLinetypeTableRecord
2
DASHED
70
0
3
Dashed __ __ __ __ __ __ __ __ __ __ __ __ __ _
72
65
73
2
40
0.75
49
0.5
74
0
49
-0.25
74
0
0
ENDTAB
0
TABLE
2
LAYER
5
2
100
AcDbSymbolTable
70
2
0
LAYER
5
50
100
AcDbSymbolTableRecord
100
AcDbLayerTableRecord
2
0
70
0
62
7
6
CONTINUOUS
0
ENDTAB
0
TABLE
2
STYLE
5
3
100
AcDbSymbolTable
70
1
0
STYLE
5
11
100
AcDbSymbolTableRecord
100
AcDbTextStyleTableRecord
2
STANDARD
70
0
0
ENDTAB
0
TABLE
2
VIEW
5
6
100
AcDbSymbolTable
70
0
0
ENDTAB
0
TABLE
2
UCS
5
7
100
AcDbSymbolTable
70
0
0
ENDTAB
0
TABLE
2
APPID
5
9
100
AcDbSymbolTable
70
2
0
APPID
5
12
100
AcDbSymbolTableRecord
100
AcDbRegAppTableRecord
2
ACAD
70
0
0
ENDTAB
0
TABLE
2
DIMSTYLE
5
A
100
AcDbSymbolTable
70
1
0
ENDTAB
0
TABLE
2
BLOCK_RECORD
5
1
100
AcDbSymbolTable
70
1
0
BLOCK_RECORD
5
1F
100
AcDbSymbolTableRecord
100
AcDbBlockTableRecord
2
*MODEL_SPACE
0
BLOCK_RECORD
5
1B
100
AcDbSymbolTableRecord
100
AcDbBlockTableRecord
2
*PAPER_SPACE
0
ENDTAB
0
ENDSEC
0
SECTION
2
BLOCKS
0
BLOCK
5
20
100
AcDbEntity
100
AcDbBlockBegin
2
*MODEL_SPACE
0
ENDBLK
5
21
100
AcDbEntity
100
AcDbBlockEnd
0
BLOCK
5
1C
100
AcDbEntity
100
AcDbBlockBegin
2
*PAPER_SPACE
0
ENDBLK
5
1D
100
AcDbEntity
100
AcDbBlockEnd
0
ENDSEC
0
SECTION
2
ENTITIES
0
LINE
5
100
100
AcDbEntity
8
0
100
AcDbLine
10
-15.030334741491629
20
-43.212212381788433
30
0
11
46.343532119599189
21
-52.814926244408085
31
0
0
SPLINE
5
101
100
AcDbEntity
8
0
100
AcDbSpline
70
4
71
5
72
49
73
43
74
0
42
0.000000001
43
0.0000000001
44
0.0000000001
40
0.71425200505091668
40
0.71425200505091668
40
0.71425200505091668
40
0.71425200505091668
40
0.71425200505091668
40
0.71425200505091668
40
0.73333333333333339
40
0.75555555555555565
40
0.7777777777777779
40
0.80000000000000016
40
0.82222222222222241
40
0.84444444444444466
40
0.86666666666666692
40
0.88888888888888917
40
0.91111111111111143
40
0.93333333333333368
40
0.95555555555555594
40
0.97777777777777819
40
1
40
1
40
1
40
1
40
1
40
1.0222222222222221
40
1.0444444444444445
40
1.0666666666666667
40
1.0888888888888888
40
1.1111111111111112
40
1.1333333333333333
40
1.1555555555555554
40
1.1777777777777778
40
1.2
40
1.2222222222222223
40
1.2444444444444445
40
1.2666666666666666
40
1.2888888888888888
40
1.3111111111111111
40
1.3333333333333333
40
1.3555555555555554
40
1.3777777777777778
40
1.3999999999999999
40
1.4222222222222221
40
1.4444444444444442
40
1.4626223056330707
40
1.4626223056330707
40
1.4626223056330707
40
1.4626223056330707
40
1.4626223056330707
40
1.4626223056330707
41
1
41
1
41
1
41
1
41
1
41
1
41
1
41
1
41
1
41
1
41
1
41
1
41
1
41
1
41
1
41
1
41
1
41
1
41
1
41
1
41
1
41
1
41
1
41
1
41
1
41
1
41
1
41
1
41
1
41
1
41
1
41
1
41
1
41
1
41
1
41
1
41
1
41
1
41
1
41
1
41
1
41
1
41
1
10
-15.030334741370442
20
-43.212212381510433
30
0
10
-14.564692579383907
20
-42.144079410529685
30
0
10
-13.327305933918868
20
-39.878825496699086
30
0
10
-10.711193619510848
20
-36.568501245940652
30
0
10
-6.0233044026639586
20
-32.495959575759542
30
0
10
0.63625725913701592
20
-27.940574087215385
30
0
10
6.8036694186786928
20
-23.635098474852732
30
0
10
10.942769848191983
20
-19.477483549177489
30
0
10
12.127186232463261
20
-15.325255915060849
30
0
10
10.193079503200671
20
-11.26523642998249
30
0
10
5.8114039660848533
20
-7.6157245671411902
30
0
10
0.080322775681099523
20
-4.6781001456598927
30
0
10
-5.7521201951205807
20
-2.5726481208348408
30
0
10
-10.65851598883089
20
-0.98062514587502203
30
0
10
-13.353182544257255
20
0.50819638814912738
30
0
10
-14.533052254673322
20
2.1027496927366269
30
0
10
-14.930128382165586
20
3.4380541396195365
30
0
10
-15.030334741491631
20
4.1750929837476756
30
0
10
-15.130541100817677
20
4.912131827875827
30
0
10
-15.134290410629605
20
6.5249827575055157
30
0
10
-14.544189441479238
20
9.3684952344518777
30
0
10
-12.567064719596583
20
13.892091043062544
30
0
10
-8.24111945583976
20
19.990513210006007
30
0
10
-2.3173050705188025
20
25.512773898639267
30
0
10
4.8150430623884288
20
29.446566619923008
30
0
10
12.633957204971679
20
31.02199176591273
30
0
10
20.471651779517089
20
29.987508221167126
30
0
10
27.611772442089503
20
26.52140524887432
30
0
10
33.400614017753846
20
21.089267892397313
30
0
10
37.359098862746883
20
14.318905484274181
30
0
10
39.282523858910977
20
6.874684542785384
30
0
10
39.376460917531027
20
-0.68196755299353229
30
0
10
38.27969403615981
20
-7.9789256273583593
30
0
10
36.827298816201605
20
-14.795810951088956
30
0
10
35.869342671845779
20
-21.051752720385167
30
0
10
36.062601683581867
20
-26.78420148662633
30
0
10
37.685128338461467
20
-32.13051097222278
30
0
10
40.408357942796478
20
-37.312780098421101
30
0
10
43.366428869957652
20
-42.376648209794567
30
0
10
45.273801253358236
20
-46.567980115395578
30
0
10
46.096899652765273
20
-49.772010207638289
30
0
10
46.314203394437435
20
-51.868294041557988
30
0
10
46.34353211979235
20
-52.814926250642955
30
0
0
CIRCLE
5
102
100
AcDbEntity
8
0
100
AcDbCircle
10
9.4347655913274497
20
13.4652161764933
30
0
40
6.1554580772090883
210
0
220
0
230
1
0
LWPOLYLINE
5
103
100
AcDbEntity
8
0
100
AcDbPolyline
90
4
70
1
43
0.0
10
15.306796655115225
20
-29.900546170175488
10
23.6416728043638
20
-29.900546170175488
10
23.6416728043638
20
-37.290597030923465
10
15.306796655115225
20
-37.290597030923465
0
ENDSEC
0
SECTION
2
OBJECTS
0
DICTIONARY
5
C
100
AcDbDictionary
3
ACAD_GROUP
350
D
3
ACAD_MLINESTYLE
350
17
0
DICTIONARY
5
D
100
AcDbDictionary
0
DICTIONARY
5
1A
330
C
100
AcDbDictionary
0
DICTIONARY
5
17
100
AcDbDictionary
0
ENDSEC
0
EOF
