  0
SECTION
  2
HEADER
  9
$ACADVER
  1
AC1024
  9
$ACADMAINTVER
 70
6
  9
$DWGCODEPAGE
  3
ANSI_1252
  9
$LASTSAVEDBY
  1
ezdxf
  9
$INSBASE
 10
0.0
 20
0.0
 30
0.0
  9
$EXTMIN
 10
1e+20
 20
1e+20
 30
1e+20
  9
$EXTMAX
 10
-1e+20
 20
-1e+20
 30
-1e+20
  9
$LIMMIN
 10
0.0
 20
0.0
  9
$LIMMAX
 10
420.0
 20
297.0
  9
$ORTHOMODE
 70
0
  9
$REGENMODE
 70
1
  9
$FILLMODE
 70
1
  9
$QTEXTMODE
 70
0
  9
$MIRRTEXT
 70
1
  9
$LTSCALE
 40
1.0
  9
$ATTMODE
 70
1
  9
$TEXTSIZE
 40
2.5
  9
$TRACEWID
 40
1.0
  9
$TEXTSTYLE
  7
Standard
  9
$CLAYER
  8
0
  9
$CELTYPE
  6
ByLayer
  9
$CECOLOR
 62
256
  9
$CELTSCALE
 40
1.0
  9
$DISPSILH
 70
0
  9
$DIMSCALE
 40
1.0
  9
$DIMASZ
 40
2.5
  9
$DIMEXO
 40
0.625
  9
$DIMDLI
 40
3.75
  9
$DIMRND
 40
0.0
  9
$DIMDLE
 40
0.0
  9
$DIMEXE
 40
1.25
  9
$DIMTP
 40
0.0
  9
$DIMTM
 40
0.0
  9
$DIMTXT
 40
2.5
  9
$DIMCEN
 40
2.5
  9
$DIMTSZ
 40
0.0
  9
$DIMTOL
 70
0
  9
$DIMLIM
 70
0
  9
$DIMTIH
 70
0
  9
$DIMTOH
 70
0
  9
$DIMSE1
 70
0
  9
$DIMSE2
 70
0
  9
$DIMTAD
 70
1
  9
$DIMZIN
 70
8
  9
$DIMBLK
  1

  9
$DIMASO
 70
1
  9
$DIMSHO
 70
1
  9
$DIMPOST
  1

  9
$DIMAPOST
  1

  9
$DIMALT
 70
0
  9
$DIMALTD
 70
3
  9
$DIMALTF
 40
0.03937007874
  9
$DIMLFAC
 40
1.0
  9
$DIMTOFL
 70
1
  9
$DIMTVP
 40
0.0
  9
$DIMTIX
 70
0
  9
$DIMSOXD
 70
0
  9
$DIMSAH
 70
0
  9
$DIMBLK1
  1

  9
$DIMBLK2
  1

  9
$DIMSTYLE
  2
ISO-25
  9
$DIMCLRD
 70
0
  9
$DIMCLRE
 70
0
  9
$DIMCLRT
 70
0
  9
$DIMTFAC
 40
1.0
  9
$DIMGAP
 40
0.625
  9
$DIMJUST
 70
0
  9
$DIMSD1
 70
0
  9
$DIMSD2
 70
0
  9
$DIMTOLJ
 70
0
  9
$DIMTZIN
 70
8
  9
$DIMALTZ
 70
0
  9
$DIMALTTZ
 70
0
  9
$DIMUPT
 70
0
  9
$DIMDEC
 70
2
  9
$DIMTDEC
 70
2
  9
$DIMALTU
 70
2
  9
$DIMALTTD
 70
3
  9
$DIMTXSTY
  7
Standard
  9
$DIMAUNIT
 70
0
  9
$DIMADEC
 70
0
  9
$DIMALTRND
 40
0.0
  9
$DIMAZIN
 70
0
  9
$DIMDSEP
 70
44
  9
$DIMATFIT
 70
3
  9
$DIMFRAC
 70
0
  9
$DIMLDRBLK
  1

  9
$DIMLUNIT
 70
2
  9
$DIMLWD
 70
-2
  9
$DIMLWE
 70
-2
  9
$DIMTMOVE
 70
0
  9
$DIMFXL
 40
1.0
  9
$DIMFXLON
 70
0
  9
$DIMJOGANG
 40
0.785398163397
  9
$DIMTFILL
 70
0
  9
$DIMTFILLCLR
 70
0
  9
$DIMARCSYM
 70
0
  9
$DIMLTYPE
  6

  9
$DIMLTEX1
  6

  9
$DIMLTEX2
  6

  9
$DIMTXTDIRECTION
 70
0
  9
$LUNITS
 70
2
  9
$LUPREC
 70
4
  9
$SKETCHINC
 40
1.0
  9
$FILLETRAD
 40
10.0
  9
$AUNITS
 70
0
  9
$AUPREC
 70
2
  9
$MENU
  1
.
  9
$ELEVATION
 40
0.0
  9
$PELEVATION
 40
0.0
  9
$THICKNESS
 40
0.0
  9
$LIMCHECK
 70
0
  9
$CHAMFERA
 40
0.0
  9
$CHAMFERB
 40
0.0
  9
$CHAMFERC
 40
0.0
  9
$CHAMFERD
 40
0.0
  9
$SKPOLY
 70
0
  9
$TDCREATE
 40
2461290.635266204
  9
$TDUCREATE
 40
2458532.153996898
  9
$TDUPDATE
 40
2461290.635266204
  9
$TDUUPDATE
 40
2458532.1544311
  9
$TDINDWG
 40
0.0
  9
$TDUSRTIMER
 40
0.0
  9
$USRTIMER
 70
1
  9
$ANGBASE
 50
0.0
  9
$ANGDIR
 70
0
  9
$PDMODE
 70
0
  9
$PDSIZE
 40
0.0
  9
$PLINEWID
 40
0.0
  9
$SPLFRAME
 70
0
  9
$SPLINETYPE
 70
6
  9
$SPLINESEGS
 70
8
  9
$HANDSEED
  5
6D
  9
$SURFTAB1
 70
6
  9
$SURFTAB2
 70
6
  9
$SURFTYPE
 70
6
  9
$SURFU
 70
6
  9
$SURFV
 70
6
  9
$UCSBASE
  2

  9
$UCSNAME
  2

  9
$UCSORG
 10
0.0
 20
0.0
 30
0.0
  9
$UCSXDIR
 10
1.0
 20
0.0
 30
0.0
  9
$UCSYDIR
 10
0.0
 20
1.0
 30
0.0
  9
$UCSORTHOREF
  2

  9
$UCSORTHOVIEW
 70
0
  9
$UCSORGTOP
 10
0.0
 20
0.0
 30
0.0
  9
$UCSORGBOTTOM
 10
0.0
 20
0.0
 30
0.0
  9
$UCSORGLEFT
 10
0.0
 20
0.0
 30
0.0
  9
$UCSORGRIGHT
 10
0.0
 20
0.0
 30
0.0
  9
$UCSORGFRONT
 10
0.0
 20
0.0
 30
0.0
  9
$UCSORGBACK
 10
0.0
 20
0.0
 30
0.0
  9
$PUCSBASE
  2

  9
$PUCSNAME
  2

  9
$PUCSORG
 10
0.0
 20
0.0
 30
0.0
  9
$PUCSXDIR
 10
1.0
 20
0.0
 30
0.0
  9
$PUCSYDIR
 10
0.0
 20
1.0
 30
0.0
  9
$PUCSORTHOREF
  2

  9
$PUCSORTHOVIEW
 70
0
  9
$PUCSORGTOP
 10
0.0
 20
0.0
 30
0.0
  9
$PUCSORGBOTTOM
 10
0.0
 20
0.0
 30
0.0
  9
$PUCSORGLEFT
 10
0.0
 20
0.0
 30
0.0
  9
$PUCSORGRIGHT
 10
0.0
 20
0.0
 30
0.0
  9
$PUCSORGFRONT
 10
0.0
 20
0.0
 30
0.0
  9
$PUCSORGBACK
 10
0.0
 20
0.0
 30
0.0
  9
$USERI1
 70
0
  9
$USERI2
 70
0
  9
$USERI3
 70
0
  9
$USERI4
 70
0
  9
$USERI5
 70
0
  9
$USERR1
 40
0.0
  9
$USERR2
 40
0.0
  9
$USERR3
 40
0.0
  9
$USERR4
 40
0.0
  9
$USERR5
 40
0.0
  9
$WORLDVIEW
 70
1
  9
$SHADEDGE
 70
3
  9
$SHADEDIF
 70
70
  9
$TILEMODE
 70
1
  9
$MAXACTVP
 70
64
  9
$PINSBASE
 10
0.0
 20
0.0
 30
0.0
  9
$PLIMCHECK
 70
0
  9
$PEXTMIN
 10
1e+20
 20
1e+20
 30
1e+20
  9
$PEXTMAX
 10
-1e+20
 20
-1e+20
 30
-1e+20
  9
$PLIMMIN
 10
0.0
 20
0.0
  9
$PLIMMAX
 10
420.0
 20
297.0
  9
$UNITMODE
 70
0
  9
$VISRETAIN
 70
1
  9
$PLINEGEN
 70
0
  9
$PSLTSCALE
 70
1
  9
$TREEDEPTH
 70
3020
  9
$CMLSTYLE
  2
Standard
  9
$CMLJUST
 70
0
  9
$CMLSCALE
 40
20.0
  9
$PROXYGRAPHICS
 70
1
  9
$MEASUREMENT
 70
1
  9
$CELWEIGHT
370
-1
  9
$ENDCAPS
280
0
  9
$JOINSTYLE
280
0
  9
$LWDISPLAY
290
0
  9
$INSUNITS
 70
4
  9
$HYPERLINKBASE
  1

  9
$STYLESHEET
  1

  9
$XEDIT
290
1
  9
$CEPSNTYPE
380
0
  9
$PSTYLEMODE
290
1
  9
$FINGERPRINTGUID
  2
{F1BB7F7F-8041-4037-B6CD-73B3752C16C0}
  9
$VERSIONGUID
  2
{325BEBED-3272-4F65-9B35-5E9AB3AF92B8}
  9
$EXTNAMES
290
1
  9
$PSVPSCALE
 40
0.0
  9
$OLESTARTUP
290
0
  9
$SORTENTS
280
127
  9
$INDEXCTL
280
0
  9
$HIDETEXT
280
1
  9
$XCLIPFRAME
280
1
  9
$HALOGAP
280
0
  9
$OBSCOLOR
 70
257
  9
$OBSLTYPE
280
0
  9
$INTERSECTIONDISPLAY
280
0
  9
$INTERSECTIONCOLOR
 70
257
  9
$DIMASSOC
280
2
  9
$PROJECTNAME
  1

  9
$CAMERADISPLAY
290
0
  9
$LENSLENGTH
 40
50.0
  9
$CAMERAHEIGHT
 40
0.0
  9
$STEPSPERSEC
 40
24.0
  9
$STEPSIZE
 40
100.0
  9
$3DDWFPREC
 40
2.0
  9
$PSOLWIDTH
 40
0.005
  9
$PSOLHEIGHT
 40
0.08
  9
$LOFTANG1
 40
1.570796326795
  9
$LOFTANG2
 40
1.570796326795
  9
$LOFTMAG1
 40
0.0
  9
$LOFTMAG2
 40
0.0
  9
$LOFTPARAM
 70
7
  9
$LOFTNORMALS
280
1
  9
$LATITUDE
 40
37.795
  9
$LONGITUDE
 40
-122.394
  9
$NORTHDIRECTION
 40
0.0
  9
$TIMEZONE
 70
-8000
  9
$LIGHTGLYPHDISPLAY
280
1
  9
$TILEMODELIGHTSYNCH
280
1
  9
$CMATERIAL
347
20
  9
$SOLIDHIST
280
0
  9
$SHOWHIST
280
1
  9
$DWFFRAME
280
2
  9
$DGNFRAME
280
2
  9
$REALWORLDSCALE
290
1
  9
$INTERFERECOLOR
 62
256
  9
$CSHADOW
280
0
  9
$SHADOWPLANELOCATION
 40
0.0
  0
ENDSEC
  0
SECTION
  2
CLASSES
  0
CLASS
  1
ACDBDICTIONARYWDFLT
  2
AcDbDictionaryWithDefault
  3
ObjectDBX Classes
 90
0
 91
0
280
0
281
0
  0
CLASS
  1
SUN
  2
AcDbSun
  3
SCENEOE
 90
1153
 91
0
280
0
281
0
  0
CLASS
  1
VISUALSTYLE
  2
AcDbVisualStyle
  3
ObjectDBX Classes
 90
4095
 91
0
280
0
281
0
  0
CLASS
  1
MATERIAL
  2
AcDbMaterial
  3
ObjectDBX Classes
 90
1153
 91
0
280
0
281
0
  0
CLASS
  1
SCALE
  2
AcDbScale
  3
ObjectDBX Classes
 90
1153
 91
0
280
0
281
0
  0
CLASS
  1
TABLESTYLE
  2
AcDbTableStyle
  3
ObjectDBX Classes
 90
4095
 91
0
280
0
281
0
  0
CLASS
  1
MLEADERSTYLE
  2
AcDbMLeaderStyle
  3
ACDB_MLEADERSTYLE_CLASS
 90
4095
 91
0
280
0
281
0
  0
CLASS
  1
DICTIONARYVAR
  2
AcDbDictionaryVar
  3
ObjectDBX Classes
 90
0
 91
0
280
0
281
0
  0
CLASS
  1
CELLSTYLEMAP
  2
AcDbCellStyleMap
  3
ObjectDBX Classes
 90
1152
 91
0
280
0
281
0
  0
CLASS
  1
MENTALRAYRENDERSETTINGS
  2
AcDbMentalRayRenderSettings
  3
SCENEOE
 90
1024
 91
0
280
0
281
0
  0
CLASS
  1
ACDBDETAILVIEWSTYLE
  2
AcDbDetailViewStyle
  3
ObjectDBX Classes
 90
1025
 91
0
280
0
281
0
  0
CLASS
  1
ACDBSECTIONVIEWSTYLE
  2
AcDbSectionViewStyle
  3
ObjectDBX Classes
 90
1025
 91
0
280
0
281
0
  0
CLASS
  1
RASTERVARIABLES
  2
AcDbRasterVariables
  3
ISM
 90
0
 91
0
280
0
281
0
  0
CLASS
  1
LAYOUT
  2
AcDbLayout
  3
ObjectDBX Classes
 90
0
 91
0
280
0
281
0
  0
CLASS
  1
ACDBPLACEHOLDER
  2
AcDbPlaceHolder
  3
ObjectDBX Classes
 90
0
 91
0
280
0
281
0
  0
ENDSEC
  0
SECTION
  2
TABLES
  0
TABLE
  2
VPORT
  5
8
330
0
100
AcDbSymbolTable
 70
1
  0
VPORT
  5
23
330
8
100
AcDbSymbolTableRecord
100
AcDbViewportTableRecord
  2
*Active
 70
0
 10
0.0
 20
0.0
 11
1.0
 21
1.0
 12
0.0
 22
0.0
 13
0.0
 23
0.0
 14
0.5
 24
0.5
 15
0.5
 25
0.5
 16
0.0
 26
0.0
 36
1.0
 17
0.0
 27
0.0
 37
0.0
 40
1000.0
 41
1.34
 42
50.0
 43
0.0
 44
0.0
 50
0.0
 51
0.0
 71
0
 72
1000
 73
1
 74
3
 75
0
 76
0
 77
0
 78
0
281
0
 65
0
146
0.0
  0
ENDTAB
  0
TABLE
  2
LTYPE
  5
2
330
0
100
AcDbSymbolTable
 70
3
  0
LTYPE
  5
24
330
2
100
AcDbSymbolTableRecord
100
AcDbLinetypeTableRecord
  2
ByBlock
 70
0
  3

 72
65
 73
0
 40
0.0
  0
LTYPE
  5
25
330
2
100
AcDbSymbolTableRecord
100
AcDbLinetypeTableRecord
  2
ByLayer
 70
0
  3

 72
65
 73
0
 40
0.0
  0
LTYPE
  5
26
330
2
100
AcDbSymbolTableRecord
100
AcDbLinetypeTableRecord
  2
Continuous
 70
0
  3

 72
65
 73
0
 40
0.0
  0
ENDTAB
  0
TABLE
  2
LAYER
  5
1
330
0
100
AcDbSymbolTable
 70
12
  0
LAYER
  5
27
330
1
100
AcDbSymbolTableRecord
100
AcDbLayerTableRecord
  2
0
 70
0
 62
7
  6
Continuous
370
-3
390
13
347
21
  0
LAYER
  5
28
330
1
100
AcDbSymbolTableRecord
100
AcDbLayerTableRecord
  2
Defpoints
 70
0
 62
7
  6
Continuous
290
0
370
-3
390
13
347
21
  0
LAYER
  5
2F
330
1
100
AcDbSymbolTableRecord
100
AcDbLayerTableRecord
  2
OuterContour
 70
0
 62
3
  6
Continuous
370
-3
390
13
347
21
  0
LAYER
  5
30
330
1
100
AcDbSymbolTableRecord
100
AcDbLayerTableRecord
  2
InnerContour
 70
0
 62
2
  6
Continuous
370
-3
390
13
347
21
  0
LAYER
  5
31
330
1
100
AcDbSymbolTableRecord
100
AcDbLayerTableRecord
  2
Hole
 70
0
 62
6
  6
Continuous
370
-3
390
13
347
21
  0
LAYER
  5
32
330
1
100
AcDbSymbolTableRecord
100
AcDbLayerTableRecord
  2
Bending
 70
0
 62
11
  6
Continuous
370
-3
390
13
347
21
  0
LAYER
  5
33
330
1
100
AcDbSymbolTableRecord
100
AcDbLayerTableRecord
  2
Engrave
 70
0
 62
9
  6
Continuous
370
-3
390
13
347
21
  0
LAYER
  5
34
330
1
100
AcDbSymbolTableRecord
100
AcDbLayerTableRecord
  2
Marking
 70
0
 62
8
  6
Continuous
370
-3
390
13
347
21
  0
LAYER
  5
35
330
1
100
AcDbSymbolTableRecord
100
AcDbLayerTableRecord
  2
Countersink
 70
0
 62
5
  6
Continuous
370
-3
390
13
347
21
  0
LAYER
  5
36
330
1
100
AcDbSymbolTableRecord
100
AcDbLayerTableRecord
  2
ThreadHole
 70
0
 62
4
  6
Continuous
370
-3
390
13
347
21
  0
LAYER
  5
37
330
1
100
AcDbSymbolTableRecord
100
AcDbLayerTableRecord
  2
Annotation
 70
0
 62
7
  6
Continuous
370
-3
390
13
347
21
  0
LAYER
  5
38
330
1
100
AcDbSymbolTableRecord
100
AcDbLayerTableRecord
  2
Trash
 70
0
 62
1
  6
Continuous
370
-3
390
13
347
21
  0
ENDTAB
  0
TABLE
  2
STYLE
  5
5
330
0
100
AcDbSymbolTable
 70
1
  0
STYLE
  5
29
330
5
100
AcDbSymbolTableRecord
100
AcDbTextStyleTableRecord
  2
Standard
 70
0
 40
0.0
 41
1.0
 50
0.0
 71
0
 42
2.5
  3
txt
  4

  0
ENDTAB
  0
TABLE
  2
VIEW
  5
7
330
0
100
AcDbSymbolTable
 70
0
  0
ENDTAB
  0
TABLE
  2
UCS
  5
6
330
0
100
AcDbSymbolTable
 70
0
  0
ENDTAB
  0
TABLE
  2
APPID
  5
3
330
0
100
AcDbSymbolTable
 70
3
  0
APPID
  5
2A
330
3
100
AcDbSymbolTableRecord
100
AcDbRegAppTableRecord
  2
ACAD
 70
0
  0
APPID
  5
6A
330
3
100
AcDbSymbolTableRecord
100
AcDbRegAppTableRecord
  2
HATCHBACKGROUNDCOLOR
 70
0
  0
APPID
  5
6B
330
3
100
AcDbSymbolTableRecord
100
AcDbRegAppTableRecord
  2
EZDXF
 70
0
  0
ENDTAB
  0
TABLE
  2
DIMSTYLE
  5
4
330
0
100
AcDbSymbolTable
 70
1
100
AcDbDimStyleTable
  0
DIMSTYLE
105
2B
330
4
100
AcDbSymbolTableRecord
100
AcDbDimStyleTableRecord
  2
Standard
 70
0
 40
1.0
 41
2.5
 42
0.625
 43
3.75
 44
1.25
 45
0.0
 46
0.0
 47
0.0
 48
0.0
 49
2.5
140
2.5
141
2.5
142
0.0
143
0.03937007874
144
1.0
145
0.0
146
1.0
147
0.625
148
0.0
 69
0
 70
0
 71
0
 72
0
 73
0
 74
0
 75
0
 76
0
 77
1
 78
8
 79
3
170
0
171
3
172
1
173
0
174
0
175
0
176
0
177
0
178
0
179
2
271
2
272
2
273
2
274
3
275
0
276
0
277
2
278
44
279
0
280
0
281
0
282
0
283
0
284
8
285
0
286
0
288
0
289
3
290
0
371
-2
372
-2
  0
ENDTAB
  0
TABLE
  2
BLOCK_RECORD
  5
9
330
0
100
AcDbSymbolTable
 70
2
  0
BLOCK_RECORD
  5
17
330
9
100
AcDbSymbolTableRecord
100
AcDbBlockTableRecord
  2
*Model_Space
340
1A
 70
0
280
1
281
0
  0
BLOCK_RECORD
  5
1B
330
9
100
AcDbSymbolTableRecord
100
AcDbBlockTableRecord
  2
*Paper_Space
340
1E
 70
0
280
1
281
0
  0
ENDTAB
  0
ENDSEC
  0
SECTION
  2
BLOCKS
  0
BLOCK
  5
18
330
17
100
AcDbEntity
  8
0
100
AcDbBlockBegin
  2
*Model_Space
 70
0
 10
0.0
 20
0.0
 30
0.0
  3
*Model_Space
  1

  0
ENDBLK
  5
19
330
17
100
AcDbEntity
  8
0
100
AcDbBlockEnd
  0
BLOCK
  5
1C
330
1B
100
AcDbEntity
  8
0
100
AcDbBlockBegin
  2
*Paper_Space
 70
0
 10
0.0
 20
0.0
 30
0.0
  3
*Paper_Space
  1

  0
ENDBLK
  5
1D
330
1B
100
AcDbEntity
  8
0
100
AcDbBlockEnd
  0
ENDSEC
  0
SECTION
  2
ENTITIES
  0
LWPOLYLINE
  5
39
330
17
100
AcDbEntity
  8
OuterContour
  6
Continuous
100
AcDbPolyline
 90
28
 70
1
 10
-335.00000000000006
 20
5.0
 10
455.0
 20
5.0
 10
455.0
 20
55.0
 10
344.3299999999999
 20
55.0
 10
344.3299999999999
 20
30.0
 10
342.3299999999999
 20
30.0
 10
342.3299999999999
 20
55.0
 10
230.99799999999993
 20
55.0
 10
230.99799999999993
 20
30.0
 10
228.99799999999993
 20
30.0
 10
228.99799999999993
 20
55.0
 10
117.66599999999994
 20
55.0
 10
117.66599999999994
 20
30.0
 10
115.66599999999994
 20
30.0
 10
115.66599999999994
 20
55.0
 10
4.333999999999946
 20
55.0
 10
4.333999999999946
 20
30.0
 10
2.3339999999999463
 20
30.0
 10
2.3339999999999463
 20
55.0
 10
-108.99800000000005
 20
55.0
 10
-108.99800000000005
 20
30.0
 10
-110.99800000000005
 20
30.0
 10
-110.99800000000005
 20
55.0
 10
-222.33000000000004
 20
55.0
 10
-222.33000000000004
 20
30.0
 10
-224.33000000000004
 20
30.0
 10
-224.33000000000004
 20
55.0
 10
-335.00000000000006
 20
55.0
  0
LWPOLYLINE
  5
3A
330
17
100
AcDbEntity
  8
InnerContour
  6
Continuous
100
AcDbPolyline
 90
12
 70
1
 10
37.85831381739996
 20
25.5085362998
 10
35.63114754099996
 20
25.5085362998
 10
35.63114754099996
 20
20.625632318499996
 10
35.51873536299996
 20
20.625632318499996
 10
33.27751756439994
 20
25.5085362998
 10
31.64051522249997
 20
25.5085362998
 10
31.64051522249997
 20
13.887927400500004
 10
33.86768149889997
 20
13.887927400500004
 10
33.86768149889997
 20
18.7567798595
 10
33.99414519909993
 20
18.7567798595
 10
36.24941451999996
 20
13.887927400500004
 10
37.85831381739996
 20
13.887927400500004
  0
LWPOLYLINE
  5
3B
330
17
100
AcDbEntity
  8
InnerContour
  6
Continuous
100
AcDbPolyline
 90
12
 70
1
 10
78.48126463699992
 20
25.5085362998
 10
76.25409836069997
 20
25.5085362998
 10
76.25409836069997
 20
20.625632318499996
 10
76.14168618269997
 20
20.625632318499996
 10
73.90046838409995
 20
25.5085362998
 10
72.26346604219992
 20
25.5085362998
 10
72.26346604219992
 20
13.887927400500004
 10
74.49063231849993
 20
13.887927400500004
 10
74.49063231849993
 20
18.7567798595
 10
74.61709601879994
 20
18.7567798595
 10
76.87236533959992
 20
13.887927400500004
 10
78.48126463699992
 20
13.887927400500004
  0
LWPOLYLINE
  5
3C
330
17
100
AcDbEntity
  8
InnerContour
  6
Continuous
100
AcDbPolyline
 90
2
 70
0
 10
83.53981264639992
 20
25.705257611199997
 10
83.53981264639992
 20
24.553032786900005
  0
SPLINE
  5
3D
330
17
100
AcDbEntity
  8
InnerContour
  6
Continuous
100
AcDbSpline
 70
8
 71
3
 72
11
 73
7
 74
0
 40
0.0
 40
0.0
 40
0.0
 40
0.0
 40
0.466807877221611
 40
0.466807877221611
 40
0.466807877221611
 40
1.0
 40
1.0
 40
1.0
 40
1.0
 10
83.53981264641624
 20
24.553032786883065
 30
0.0
 10
83.65222482440225
 20
24.531955503510716
 30
0.0
 10
83.75648711948423
 20
24.504695550349112
 30
0.0
 10
83.84192037475367
 20
24.44062060889712
 30
0.0
 10
83.92622950824307
 20
24.377388758780015
 30
0.0
 10
84.01053864173247
 20
24.286053864166448
 30
0.0
 10
84.08079625297376
 20
24.15959016393225
 30
0.0
  0
SPLINE
  5
3E
330
17
100
AcDbEntity
  8
InnerContour
  6
Continuous
100
AcDbSpline
 70
8
 71
3
 72
22
 73
18
 74
0
 40
0.0
 40
0.0
 40
0.0
 40
0.0
 40
0.11999725860632715
 40
0.11999725860632715
 40
0.18914822119302588
 40
0.18914822119302588
 40
0.18914822119302588
 40
0.3087292714636074
 40
0.3087292714636074
 40
0.3087292714636074
 40
0.44262477091217733
 40
0.44262477091217733
 40
0.44262477091217733
 40
0.673074791496701
 40
0.673074791496701
 40
0.673074791496701
 40
1.0
 40
1.0
 40
1.0
 40
1.0
 10
84.08079625297376
 20
24.15959016393225
 30
0.0
 10
84.24238875882855
 20
23.927740046836234
 30
0.0
 10
84.32669789231795
 20
23.604555035126637
 30
0.0
 10
84.32669789231795
 20
22.951159250583302
 30
0.0
 10
84.27493512252244
 20
22.65471010823252
 30
0.0
 10
84.16510538646315
 20
22.29776346603998
 30
0.0
 10
84.05269320847714
 20
21.932423887585642
 30
0.0
 10
83.89531615929695
 20
21.56146370023201
 30
0.0
 10
83.70140515227115
 20
21.17364168618049
 30
0.0
 10
83.57494145203697
 20
20.92071428571211
 30
0.0
 10
83.33476598675463
 20
20.53617530616134
 30
0.0
 10
83.01990632323134
 20
19.99331381732803
 30
0.0
 10
82.81615925063187
 20
19.642025761121943
 30
0.0
 10
82.40872854736926
 20
18.977210081325993
 30
0.0
 10
81.79742388763412
 20
17.990971896953326
 30
0.0
 10
81.27049180332506
 20
17.14085480093459
 30
0.0
 10
80.68735363002287
 20
16.19940281030226
 30
0.0
 10
80.04800936772784
 20
15.15959016393225
 30
0.0
  0
LWPOLYLINE
  5
3F
330
17
100
AcDbEntity
  8
InnerContour
  6
Continuous
100
AcDbPolyline
 90
5
 70
0
 10
80.04800936769993
 20
15.159590163900006
 10
80.04800936769993
 20
13.887927400500004
 10
86.18852459019996
 20
13.887927400500004
 10
86.18852459019996
 20
15.215796252900006
 10
82.75292740049997
 20
15.215796252900006
  0
SPLINE
  5
40
330
17
100
AcDbEntity
  8
InnerContour
  6
Continuous
100
AcDbSpline
 70
8
 71
3
 72
16
 73
12
 74
0
 40
0.0
 40
0.0
 40
0.0
 40
0.0
 40
0.39773925796175313
 40
0.39773925796175313
 40
0.39773925796175313
 40
0.595281430937848
 40
0.595281430937848
 40
0.595281430937848
 40
0.7768374245358228
 40
0.7768374245358228
 40
1.0
 40
1.0
 40
1.0
 40
1.0
 10
82.75292740051464
 20
15.215796252925223
 30
0.0
 10
83.70140515227115
 20
16.60689695550134
 30
0.0
 10
84.45847528112893
 20
17.830318943106192
 30
0.0
 10
85.03629976585427
 20
18.88324355971679
 30
0.0
 10
85.35245901643975
 20
19.45935597189478
 30
0.0
 10
85.66015209729824
 20
20.102594672264274
 30
0.0
 10
85.98477751761072
 20
20.808302107726163
 30
0.0
 10
86.30796252932032
 20
21.510878220138352
 30
0.0
 10
86.46955503517512
 20
22.192377049178162
 30
0.0
 10
86.46955503517512
 20
23.695889929740204
 30
0.0
 10
86.18177856077682
 20
24.370460404226762
 30
0.0
 10
85.63348946140462
 20
24.904320843089153
 30
0.0
  0
SPLINE
  5
41
330
17
100
AcDbEntity
  8
InnerContour
  6
Continuous
100
AcDbSpline
 70
8
 71
3
 72
11
 73
7
 74
0
 40
0.0
 40
0.0
 40
0.0
 40
0.0
 40
0.48558773856588056
 40
0.48558773856588056
 40
0.48558773856588056
 40
1.0
 40
1.0
 40
1.0
 40
1.0
 10
85.63348946140462
 20
24.904320843089153
 30
0.0
 10
85.36651053868792
 20
25.164274004681673
 30
0.0
 10
85.05350600190917
 20
25.369463232164208
 30
0.0
 10
84.69906323189645
 20
25.501510538639508
 30
0.0
 10
84.34074941456623
 20
25.634999999997817
 30
0.0
 10
83.95433255273957
 20
25.705257611239034
 30
0.0
 10
83.53981264641635
 20
25.705257611239034
 30
0.0
  0
LWPOLYLINE
  5
42
330
17
100
AcDbEntity
  8
InnerContour
  6
Continuous
100
AcDbPolyline
 90
2
 70
0
 10
43.61241217799994
 20
25.5085362998
 10
41.63114754099996
 20
25.5085362998
  0
SPLINE
  5
43
330
17
100
AcDbEntity
  8
InnerContour
  6
Continuous
100
AcDbSpline
 70
8
 71
3
 72
11
 73
7
 74
0
 40
0.0
 40
0.0
 40
0.0
 40
0.0
 40
0.3667428169218433
 40
0.3667428169218433
 40
0.3667428169218433
 40
1.0
 40
1.0
 40
1.0
 40
1.0
 10
41.63114754102992
 20
25.508536299763634
 30
0.0
 10
41.48360655742334
 20
25.01673302107511
 30
0.0
 10
41.294780005481925
 20
24.657061573373582
 30
0.0
 10
41.07611241222435
 20
24.419543325524756
 30
0.0
 10
40.66861826702524
 20
23.976920374705088
 30
0.0
 10
40.029274004730155
 20
23.709941451988456
 30
0.0
 10
39.15807962533904
 20
23.604555035126637
 30
0.0
  0
LWPOLYLINE
  5
44
330
17
100
AcDbEntity
  8
InnerContour
  6
Continuous
100
AcDbPolyline
 90
2
 70
0
 10
39.15807962529993
 20
23.604555035100006
 10
39.15807962529993
 20
22.677154566699997
  0
SPLINE
  5
45
330
17
100
AcDbEntity
  8
InnerContour
  6
Continuous
100
AcDbSpline
 70
8
 71
3
 72
22
 73
18
 74
0
 40
0.0
 40
0.0
 40
0.0
 40
0.0
 40
0.03353081957122417
 40
0.03353081957122417
 40
0.03353081957122417
 40
0.1451350117389093
 40
0.1451350117389093
 40
0.1451350117389093
 40
0.2027765090836916
 40
0.2027765090836916
 40
0.2027765090836916
 40
0.26885136901901097
 40
0.26885136901901097
 40
0.3349262289543298
 40
0.3349262289543298
 40
0.3349262289543298
 40
1.0
 40
1.0
 40
1.0
 40
1.0
 10
39.15807962533904
 20
22.67715456674256
 30
0.0
 10
39.305620608945674
 20
22.663103044494306
 30
0.0
 10
39.418665500878944
 20
22.670379254889284
 30
0.0
 10
39.50234192042103
 20
22.663103044494306
 30
0.0
 10
39.98711943798537
 20
22.62094847774958
 30
0.0
 10
40.36064366599675
 20
22.53924684323401
 30
0.0
 10
40.61943793915634
 20
22.424227166274164
 30
0.0
 10
40.809133489507644
 20
22.339918032784723
 30
0.0
 10
40.95977407361016
 20
22.215314092848075
 30
0.0
 10
41.06206088997607
 20
22.0448360655716
 30
0.0
 10
41.12529274009313
 20
21.93944964870977
 30
0.0
 10
41.174473067962026
 20
21.805960187351445
 30
0.0
 10
41.27283372369976
 20
21.482775175641848
 30
0.0
 10
41.293911007072154
 20
21.17364168618049
 30
0.0
 10
41.293911007072154
 20
20.723992974236694
 30
0.0
 10
41.293911007072154
 20
18.445304449646528
 30
0.0
 10
41.293911007072154
 20
16.16661592505637
 30
0.0
 10
41.293911007072154
 20
13.887927400466204
 30
0.0
  0
LWPOLYLINE
  5
46
330
17
100
AcDbEntity
  8
InnerContour
  6
Continuous
100
AcDbPolyline
 90
3
 70
0
 10
41.29391100709995
 20
13.887927400500004
 10
43.61241217799994
 20
13.887927400500004
 10
43.61241217799994
 20
25.5085362998
  0
LWPOLYLINE
  5
47
330
17
100
AcDbEntity
  8
InnerContour
  6
Continuous
100
AcDbPolyline
 90
4
 70
1
 10
25.97775175649997
 20
25.5085362998
 10
23.511709601899952
 20
25.5085362998
 10
23.511709601899952
 20
13.887927400500004
 10
25.97775175649997
 20
13.887927400500004
  0
LWPOLYLINE
  5
48
330
17
100
AcDbEntity
  8
InnerContour
  6
Continuous
100
AcDbPolyline
 90
4
 70
1
 10
66.59367681499992
 20
25.5085362998
 10
64.13466042159996
 20
25.5085362998
 10
64.13466042159996
 20
13.887927400500004
 10
66.59367681499992
 20
13.887927400500004
  0
LWPOLYLINE
  5
49
330
17
100
AcDbEntity
  8
InnerContour
  6
Continuous
100
AcDbPolyline
 90
2
 70
0
 10
67.13466042159996
 20
13.887927400500004
 10
67.13466042159996
 20
15.250925058500002
  0
SPLINE
  5
4A
330
17
100
AcDbEntity
  8
InnerContour
  6
Continuous
100
AcDbSpline
 70
8
 71
3
 72
32
 73
28
 74
0
 40
0.0
 40
0.0
 40
0.0
 40
0.0
 40
0.0767223672749169
 40
0.0767223672749169
 40
0.0767223672749169
 40
0.1620878763149354
 40
0.1620878763149354
 40
0.1620878763149354
 40
0.2573796990172456
 40
0.2573796990172456
 40
0.2573796990172456
 40
0.3586673629110292
 40
0.3586673629110292
 40
0.4798804688822782
 40
0.4798804688822782
 40
0.6010935748535271
 40
0.6010935748535271
 40
0.7445703125337808
 40
0.7445703125337808
 40
0.7445703125337808
 40
0.853428448408804
 40
0.853428448408804
 40
0.853428448408804
 40
0.9240279142545419
 40
0.9240279142545419
 40
0.9240279142545419
 40
1.0
 40
1.0
 40
1.0
 40
1.0
 10
67.13466042159206
 20
15.250925058545832
 30
0.0
 10
67.45784543330166
 20
15.29307962529056
 30
0.0
 10
67.71779859489402
 20
15.370362997655903
 30
0.0
 10
67.90749414524532
 20
15.475749414517736
 30
0.0
 10
68.14670142729216
 20
15.608642348988155
 30
0.0
 10
68.30796252932032
 20
15.855140515220306
 30
0.0
 10
68.38524590168566
 20
16.2064285714264
 30
0.0
 10
68.46105496324662
 20
16.551015214885325
 30
0.0
 10
68.51873536304407
 20
16.88090163934207
 30
0.0
 10
68.55386416866463
 20
17.19706088992757
 30
0.0
 10
68.58753641405212
 20
17.5001110984156
 30
0.0
 10
68.61007025765753
 20
17.871533957843255
 30
0.0
 10
68.61007025765753
 20
18.81298594847557
 30
0.0
 10
68.61007025765753
 20
19.28371194379173
 30
0.0
 10
68.61007025765753
 20
20.14085480093459
 30
0.0
 10
68.61007025765753
 20
20.53429742388542
 30
0.0
 10
68.61007025765753
 20
21.286053864166448
 30
0.0
 10
68.58899297428513
 20
21.770831381730844
 30
0.0
 10
68.53981264641635
 20
22.332892271660583
 30
0.0
 10
68.49129578397236
 20
22.887370699592523
 30
0.0
 10
68.44145199067867
 20
23.267318501168774
 30
0.0
 10
68.39227166280972
 20
23.471065573768314
 30
0.0
 10
68.34469384000636
 20
23.668173696811238
 30
0.0
 10
68.18149882908602
 20
23.850456674470905
 30
0.0
 10
67.91451990636943
 20
24.019074941449816
 30
0.0
 10
67.75961926408047
 20
24.11690692605343
 30
0.0
 10
67.50000000004633
 20
24.15959016393225
 30
0.0
 10
67.13466042159206
 20
24.15959016393225
 30
0.0
  0
LWPOLYLINE
  5
4B
330
17
100
AcDbEntity
  8
InnerContour
  6
Continuous
100
AcDbPolyline
 90
2
 70
0
 10
67.13466042159996
 20
24.159590163900006
 10
67.13466042159996
 20
25.5085362998
  0
SPLINE
  5
4C
330
17
100
AcDbEntity
  8
InnerContour
  6
Continuous
100
AcDbSpline
 70
8
 71
3
 72
48
 73
44
 74
0
 40
0.0
 40
0.0
 40
0.0
 40
0.0
 40
0.0572490301732139
 40
0.0572490301732139
 40
0.1144980603464279
 40
0.1144980603464279
 40
0.1144980603464279
 40
0.1553375756495068
 40
0.1553375756495068
 40
0.1553375756495068
 40
0.1941092119149219
 40
0.1941092119149219
 40
0.1941092119149219
 40
0.2271981838045774
 40
0.2271981838045774
 40
0.2271981838045774
 40
0.2683198570604247
 40
0.2683198570604247
 40
0.2683198570604247
 40
0.3668687695265805
 40
0.3668687695265805
 40
0.3668687695265805
 40
0.5022561963041507
 40
0.5022561963041507
 40
0.7515208979413582
 40
0.7515208979413582
 40
0.7515208979413582
 40
0.8119161843736346
 40
0.8119161843736346
 40
0.8119161843736346
 40
0.8423966796446313
 40
0.8423966796446313
 40
0.8423966796446313
 40
0.8754236748479659
 40
0.8754236748479659
 40
0.8754236748479659
 40
0.9081634056738861
 40
0.9081634056738861
 40
0.9081634056738861
 40
0.9589262236482213
 40
0.9589262236482213
 40
0.9589262236482213
 40
1.0
 40
1.0
 40
1.0
 40
1.0
 10
67.13466042159206
 20
25.508536299763634
 30
0.0
 10
67.64051522252873
 20
25.508536299763634
 30
0.0
 10
68.01990632323123
 20
25.494484777515396
 30
0.0
 10
68.55386416866463
 20
25.438278688522416
 30
0.0
 10
68.80679156913294
 20
25.39612412177769
 30
0.0
 10
69.03864168622897
 20
25.325866510536457
 30
0.0
 10
69.27692666780285
 20
25.25365894036257
 30
0.0
 10
69.48126463704864
 20
25.164274004681673
 30
0.0
 10
69.66393442627583
 20
25.051861826695713
 30
0.0
 10
69.84974017754973
 20
24.937519825911735
 30
0.0
 10
70.00819672135776
 20
24.791908665103207
 30
0.0
 10
70.14871194384023
 20
24.623290398124283
 30
0.0
 10
70.28577187396655
 20
24.458818481972713
 30
0.0
 10
70.40163934430853
 20
24.30713114753881
 30
0.0
 10
70.47189695554982
 20
24.17364168618049
 30
0.0
 10
70.54505021671207
 20
24.03465048997228
 30
0.0
 10
70.60538641690812
 20
23.815327868850275
 30
0.0
 10
70.66159250590113
 20
23.51322014051304
 30
0.0
 10
70.71756354590713
 20
23.2123758004804
 30
0.0
 10
70.76697892276297
 20
22.663103044494306
 30
0.0
 10
70.81615925063187
 20
21.86919203746855
 30
0.0
 10
70.86493287583613
 20
21.081846373456116
 30
0.0
 10
70.89344262299716
 20
20.309473067913515
 30
0.0
 10
70.89344262299716
 20
18.17364168618049
 30
0.0
 10
70.78805620613525
 20
16.803618266976756
 30
0.0
 10
70.56323185016333
 20
15.44062060889712
 30
0.0
 10
70.51116052881383
 20
15.124938223215672
 30
0.0
 10
70.35948477756386
 20
14.82937939109852
 30
0.0
 10
70.11358313821967
 20
14.54834894613365
 30
0.0
 10
70.01870427560533
 20
14.4399159602888
 30
0.0
 10
69.88875878224763
 20
14.330550351285886
 30
0.0
 10
69.72014051526872
 20
14.225163934424053
 30
0.0
 10
69.54836460284082
 20
14.11780398915657
 30
0.0
 10
69.38290398131096
 20
14.04249414519689
 30
0.0
 10
69.21428571433205
 20
14.007365339576275
 30
0.0
 10
69.03753112498646
 20
13.970541466795936
 30
0.0
 10
68.85597189700184
 20
13.93710772833505
 30
0.0
 10
68.67330210777476
 20
13.9160304449627
 30
0.0
 10
68.48369886669366
 20
13.894153147914885
 30
0.0
 10
68.20257611245853
 20
13.887927400466204
 30
0.0
 10
67.82318501175587
 20
13.887927400466204
 30
0.0
 10
67.59367681503466
 20
13.887927400466204
 30
0.0
 10
67.36416861831333
 20
13.887927400466204
 30
0.0
 10
67.13466042159206
 20
13.887927400466204
 30
0.0
  0
SPLINE
  5
4D
330
17
100
AcDbEntity
  8
InnerContour
  6
Continuous
100
AcDbSpline
 70
8
 71
3
 72
47
 73
43
 74
0
 40
0.0
 40
0.0
 40
0.0
 40
0.0
 40
0.0410701983321784
 40
0.0410701983321784
 40
0.0410701983321784
 40
0.08282333612398096
 40
0.08282333612398096
 40
0.12457647391578353
 40
0.12457647391578353
 40
0.12457647391578353
 40
0.15760346350672827
 40
0.15760346350672827
 40
0.15760346350672827
 40
0.1880839535980695
 40
0.1880839535980695
 40
0.1880839535980695
 40
0.24847922976716763
 40
0.24847922976716763
 40
0.24847922976716763
 40
0.4977438890459691
 40
0.4977438890459691
 40
0.6331312928166889
 40
0.6331312928166889
 40
0.6331312928166889
 40
0.73168018853609
 40
0.73168018853609
 40
0.73168018853609
 40
0.7728018548039901
 40
0.7728018548039901
 40
0.7728018548039901
 40
0.8058908210707232
 40
0.8058908210707232
 40
0.8058908210707232
 40
0.8446624507475415
 40
0.8446624507475415
 40
0.8446624507475415
 40
0.8855019591106215
 40
0.8855019591106215
 40
0.8855019591106215
 40
0.9427509795553095
 40
0.9427509795553095
 40
1.0
 40
1.0
 40
1.0
 40
1.0
 10
26.511709601919847
 20
13.887927400466204
 30
0.0
 10
26.741217798641173
 20
13.887927400466204
 30
0.0
 10
26.970725995362557
 20
13.887927400466204
 30
0.0
 10
27.20023419208377
 20
13.887927400466204
 30
0.0
 10
27.579625292786318
 20
13.887927400466204
 30
0.0
 10
27.860655737751244
 20
13.89495316159033
 30
0.0
 10
28.24004683845385
 20
13.93710772833505
 30
0.0
 10
28.414580305314246
 20
13.970541466795936
 30
0.0
 10
28.591334894659838
 20
14.007365339576275
 30
0.0
 10
28.75995316163886
 20
14.04249414519689
 30
0.0
 10
28.92541378316872
 20
14.11780398915657
 30
0.0
 10
29.097189695596626
 20
14.225163934424053
 30
0.0
 10
29.265807962575536
 20
14.330550351285886
 30
0.0
 10
29.39575345593323
 20
14.4399159602888
 30
0.0
 10
29.49063231854757
 20
14.54834894613365
 30
0.0
 10
29.736533957891766
 20
14.82937939109852
 30
0.0
 10
29.888209709141734
 20
15.124938223215672
 30
0.0
 10
29.940281030491235
 20
15.44062060889712
 30
0.0
 10
30.165105386463154
 20
16.803618266976756
 30
0.0
 10
30.270491803325058
 20
18.17364168618049
 30
0.0
 10
30.270491803325058
 20
20.309473067913515
 30
0.0
 10
30.24198205616392
 20
21.081846373456116
 30
0.0
 10
30.193208430959658
 20
21.86919203746855
 30
0.0
 10
30.144028103090818
 20
22.663103044494306
 30
0.0
 10
30.094612726235027
 20
23.2123758004804
 30
0.0
 10
30.038641686229028
 20
23.51322014051304
 30
0.0
 10
29.98243559723602
 20
23.815327868850275
 30
0.0
 10
29.922099397039972
 20
24.03465048997228
 30
0.0
 10
29.848946135877725
 20
24.17364168618049
 30
0.0
 10
29.778688524636436
 20
24.30713114753881
 30
0.0
 10
29.662821054294454
 20
24.458818481972713
 30
0.0
 10
29.525761124168127
 20
24.623290398124283
 30
0.0
 10
29.385245901685664
 20
24.791908665103207
 30
0.0
 10
29.226789357877635
 20
24.937519825911735
 30
0.0
 10
29.040983606603618
 20
25.051861826695713
 30
0.0
 10
28.85831381737654
 20
25.164274004681673
 30
0.0
 10
28.653975848130756
 20
25.253658940362556
 30
0.0
 10
28.415690866556872
 20
25.325866510536457
 30
0.0
 10
28.183840749460842
 20
25.39612412177769
 30
0.0
 10
27.93091334899242
 20
25.438278688522416
 30
0.0
 10
27.396955503559127
 20
25.494484777515396
 30
0.0
 10
27.017564402856635
 20
25.508536299763634
 30
0.0
 10
26.511709601919847
 20
25.508536299763634
 30
0.0
  0
LWPOLYLINE
  5
4E
330
17
100
AcDbEntity
  8
InnerContour
  6
Continuous
100
AcDbPolyline
 90
2
 70
0
 10
26.511709601899952
 20
25.5085362998
 10
26.511709601899952
 20
24.159590163900006
  0
SPLINE
  5
4F
330
17
100
AcDbEntity
  8
InnerContour
  6
Continuous
100
AcDbSpline
 70
8
 71
3
 72
32
 73
28
 74
0
 40
0.0
 40
0.0
 40
0.0
 40
0.0
 40
0.07597887042858342
 40
0.07597887042858342
 40
0.07597887042858342
 40
0.14646544792491145
 40
0.14646544792491145
 40
0.14646544792491145
 40
0.2553631936535842
 40
0.2553631936535842
 40
0.2553631936535842
 40
0.398852744516357
 40
0.398852744516357
 40
0.5200766754176653
 40
0.5200766754176653
 40
0.6413006063189741
 40
0.6413006063189741
 40
0.7425973157022592
 40
0.7425973157022592
 40
0.7425973157022592
 40
0.8378976484357885
 40
0.8378976484357885
 40
0.8378976484357885
 40
0.9232707810381058
 40
0.9232707810381058
 40
0.9232707810381058
 40
1.0
 40
1.0
 40
1.0
 40
1.0
 10
26.511709601919847
 20
24.15959016393225
 30
0.0
 10
26.877049180374172
 20
24.15959016393225
 30
0.0
 10
27.13666844440837
 20
24.11690692605343
 30
0.0
 10
27.291569086697336
 20
24.019074941449816
 30
0.0
 10
27.558548009413926
 20
23.850456674470905
 30
0.0
 10
27.715412682644967
 20
23.66648265555439
 30
0.0
 10
27.76932084313762
 20
23.471065573768314
 30
0.0
 10
27.825526932130572
 20
23.267318501168774
 30
0.0
 10
27.86834496430015
 20
22.887370699592523
 30
0.0
 10
27.916861826744253
 20
22.332892271660583
 30
0.0
 10
27.966042154613035
 20
21.770831381730844
 30
0.0
 10
27.987119437985427
 20
21.286053864166448
 30
0.0
 10
27.987119437985427
 20
20.53429742388542
 30
0.0
 10
27.987119437985427
 20
20.14085480093459
 30
0.0
 10
27.987119437985427
 20
19.28371194379173
 30
0.0
 10
27.987119437985427
 20
18.81298594847557
 30
0.0
 10
27.987119437985427
 20
17.871533957843255
 30
0.0
 10
27.96458559437997
 20
17.5001110984156
 30
0.0
 10
27.93091334899242
 20
17.19706088992757
 30
0.0
 10
27.89578454337186
 20
16.88090163934207
 30
0.0
 10
27.83810414357447
 20
16.551015214885332
 30
0.0
 10
27.762295082013566
 20
16.2064285714264
 30
0.0
 10
27.685011709648165
 20
15.855140515220306
 30
0.0
 10
27.52375060762006
 20
15.608642348988155
 30
0.0
 10
27.284543325573225
 20
15.475749414517736
 30
0.0
 10
27.094847775221922
 20
15.370362997655903
 30
0.0
 10
26.834894613629444
 20
15.29307962529056
 30
0.0
 10
26.511709601919847
 20
15.250925058545832
 30
0.0
  0
LWPOLYLINE
  5
50
330
17
100
AcDbEntity
  8
InnerContour
  6
Continuous
100
AcDbPolyline
 90
2
 70
0
 10
26.511709601899952
 20
15.250925058500002
 10
26.511709601899952
 20
13.887927400500004
  0
SPLINE
  5
51
330
17
100
AcDbEntity
  8
InnerContour
  6
Continuous
100
AcDbSpline
 70
8
 71
3
 72
22
 73
18
 74
0
 40
0.0
 40
0.0
 40
0.0
 40
0.0
 40
0.043685969467734176
 40
0.043685969467734176
 40
0.08401147974564716
 40
0.08401147974564716
 40
0.08401147974564716
 40
0.2333583556112745
 40
0.2333583556112745
 40
0.2333583556112745
 40
0.8179474677381958
 40
0.8179474677381958
 40
0.8179474677381958
 40
0.9604044364282162
 40
0.9604044364282162
 40
0.9604044364282162
 40
1.0
 40
1.0
 40
1.0
 40
1.0
 10
91.17681498833667
 20
15.00502341920157
 30
0.0
 10
91.04332552697832
 20
15.026100702573935
 30
0.0
 10
90.93793911011653
 20
15.0823067915669
 30
0.0
 10
90.76229508201357
 20
15.25795081966995
 30
0.0
 10
90.67880647537066
 20
15.382158071075963
 30
0.0
 10
90.62177985953116
 20
15.53898126463482
 30
0.0
 10
90.56557377053804
 20
15.6935480093655
 30
0.0
 10
90.53044496491742
 20
16.17129976580579
 30
0.0
 10
90.53044496491742
 20
16.972236533955673
 30
0.0
 10
90.53044496491742
 20
18.85045667447089
 30
0.0
 10
90.53044496491742
 20
20.728676814986116
 30
0.0
 10
90.53044496491742
 20
22.60689695550134
 30
0.0
 10
90.53044496491742
 20
23.337576112410005
 30
0.0
 10
90.59151504238093
 20
23.78398216537343
 30
0.0
 10
90.70608899302056
 20
23.955843091332724
 30
0.0
 10
90.81850117100657
 20
24.124461358311635
 30
0.0
 10
90.89578454337186
 20
24.222822014049342
 30
0.0
 10
90.93793911011653
 20
24.257950819669958
 30
0.0
  0
SPLINE
  5
52
330
17
100
AcDbEntity
  8
InnerContour
  6
Continuous
100
AcDbSpline
 70
8
 71
3
 72
8
 73
4
 74
0
 40
0.0
 40
0.0
 40
0.0
 40
0.0
 40
1.0
 40
1.0
 40
1.0
 40
1.0
 10
90.93793911011653
 20
24.257950819669958
 30
0.0
 10
90.98009367686126
 20
24.286053864166448
 30
0.0
 10
91.04332552697832
 20
24.314156908662937
 30
0.0
 10
91.12763466046783
 20
24.3352341920353
 30
0.0
  0
LWPOLYLINE
  5
53
330
17
100
AcDbEntity
  8
InnerContour
  6
Continuous
100
AcDbPolyline
 90
2
 70
0
 10
91.12763466049995
 20
24.335234192
 10
91.12763466049995
 20
25.6701288056
  0
SPLINE
  5
54
330
17
100
AcDbEntity
  8
InnerContour
  6
Continuous
100
AcDbSpline
 70
8
 71
3
 72
16
 73
12
 74
0
 40
0.0
 40
0.0
 40
0.0
 40
0.0
 40
0.34693462247428897
 40
0.34693462247428897
 40
0.34693462247428897
 40
0.6813797892341492
 40
0.6813797892341492
 40
0.6813797892341492
 40
0.8406898946170737
 40
0.8406898946170737
 40
1.0
 40
1.0
 40
1.0
 40
1.0
 10
91.12763466046783
 20
25.670128805618432
 30
0.0
 10
90.60772833728282
 20
25.670128805618432
 30
0.0
 10
90.14450063215753
 20
25.546413234956688
 30
0.0
 10
89.70843091339526
 20
25.3680210772812
 30
0.0
 10
89.24473067920326
 20
25.178325526929896
 30
0.0
 10
88.89850117100656
 20
24.87593676814771
 30
0.0
 10
88.61943793915646
 20
24.503852459014226
 30
0.0
 10
88.47189695554982
 20
24.30713114753881
 30
0.0
 10
88.35948477756392
 20
24.103384074939285
 30
0.0
 10
88.20491803283323
 20
23.695889929740204
 30
0.0
 10
88.16276346608856
 20
23.485117096016566
 30
0.0
 10
88.16276346608856
 20
23.267318501168774
 30
0.0
  0
SPLINE
  5
55
330
17
100
AcDbEntity
  8
InnerContour
  6
Continuous
100
AcDbSpline
 70
8
 71
3
 72
25
 73
21
 74
0
 40
0.0
 40
0.0
 40
0.0
 40
0.0
 40
0.22822373919069183
 40
0.22822373919069183
 40
0.22822373919069183
 40
0.4002781056607936
 40
0.4002781056607936
 40
0.4002781056607936
 40
0.6266019742276214
 40
0.6266019742276214
 40
0.6266019742276214
 40
0.75028625041746
 40
0.75028625041746
 40
0.8739705266073006
 40
0.8739705266073006
 40
0.8739705266073006
 40
0.9393737894118838
 40
0.9393737894118838
 40
0.9393737894118838
 40
1.0
 40
1.0
 40
1.0
 40
1.0
 10
88.16276346608856
 20
23.267318501168774
 30
0.0
 10
88.09953161597133
 20
22.761463700232014
 30
0.0
 10
88.07142857147483
 20
21.89729508196504
 30
0.0
 10
88.07142857147483
 20
20.660761124119603
 30
0.0
 10
88.07142857147483
 20
20.005023419201564
 30
0.0
 10
88.07142857147483
 20
19.34928571428354
 30
0.0
 10
88.07142857147483
 20
18.693548009365514
 30
0.0
 10
88.07142857147483
 20
17.435936768147712
 30
0.0
 10
88.10017360184776
 20
16.57958323790195
 30
0.0
 10
88.14871194384023
 20
16.108067915688693
 30
0.0
 10
88.19789227170907
 20
15.630316159248416
 30
0.0
 10
88.36651053868792
 20
15.201744730676985
 30
0.0
 10
88.94262295086605
 20
14.42891100702358
 30
0.0
 10
89.32721062044732
 20
14.160352327367804
 30
0.0
 10
89.77868852463644
 20
13.972236533955666
 30
0.0
 10
90.03161592510486
 20
13.86685011709384
 30
0.0
 10
90.26918107958477
 20
13.782794672070246
 30
0.0
 10
90.48829039817275
 20
13.74038641685965
 30
0.0
 10
90.70608899302056
 20
13.698231850114915
 30
0.0
 10
90.93793911011653
 20
13.670128805618432
 30
0.0
 10
91.17681498833667
 20
13.670128805618432
 30
0.0
  0
LWPOLYLINE
  5
56
330
17
100
AcDbEntity
  8
InnerContour
  6
Continuous
100
AcDbPolyline
 90
2
 70
0
 10
91.17681498829995
 20
13.670128805600001
 10
91.17681498829995
 20
15.0050234192
  0
LWPOLYLINE
  5
57
330
17
100
AcDbEntity
  8
InnerContour
  6
Continuous
100
AcDbPolyline
 90
2
 70
0
 10
91.73887587829995
 20
15.0050234192
 10
91.73887587829995
 20
13.670128805600001
  0
SPLINE
  5
58
330
17
100
AcDbEntity
  8
InnerContour
  6
Continuous
100
AcDbSpline
 70
8
 71
3
 72
41
 73
37
 74
0
 40
0.0
 40
0.0
 40
0.0
 40
0.0
 40
0.04513331395820874
 40
0.04513331395820874
 40
0.04513331395820874
 40
0.0912348219932384
 40
0.0912348219932384
 40
0.0912348219932384
 40
0.13644530769511565
 40
0.13644530769511565
 40
0.18165579339699334
 40
0.18165579339699334
 40
0.18165579339699334
 40
0.26769350296154004
 40
0.26769350296154004
 40
0.26769350296154004
 40
0.43516678354673666
 40
0.43516678354673666
 40
0.43516678354673666
 40
0.5614223137292462
 40
0.5614223137292462
 40
0.5614223137292462
 40
0.7270514434079317
 40
0.7270514434079317
 40
0.7270514434079317
 40
0.817143300732271
 40
0.817143300732271
 40
0.817143300732271
 40
0.862353055109964
 40
0.862353055109964
 40
0.9075628094876568
 40
0.9075628094876568
 40
0.9527725638653474
 40
0.9527725638653474
 40
0.9527725638653474
 40
1.0
 40
1.0
 40
1.0
 40
1.0
 10
91.73887587826647
 20
13.670128805618432
 30
0.0
 10
91.97775175648667
 20
13.670128805618432
 30
0.0
 10
92.20760321820643
 20
13.706476303541585
 30
0.0
 10
92.43442622955456
 20
13.761463700232014
 30
0.0
 10
92.66627634665053
 20
13.817669789224993
 30
0.0
 10
92.88865081441827
 20
13.893957894507366
 30
0.0
 10
93.11592505859437
 20
13.986288056203911
 30
0.0
 10
93.34074941456623
 20
14.0776229508175
 30
0.0
 10
93.54449648716576
 20
14.197060889927563
 30
0.0
 10
93.90983606562003
 20
14.492142857140685
 30
0.0
 10
94.06747272722072
 20
14.663672028382116
 30
0.0
 10
94.20491803283323
 20
14.850456674470891
 30
0.0
 10
94.47892271667394
 20
15.222822014049356
 30
0.0
 10
94.62667987754583
 20
15.639071338495391
 30
0.0
 10
94.68266978927346
 20
16.086990632316336
 30
0.0
 10
94.74590163939052
 20
16.592845433253096
 30
0.0
 10
94.77400468388703
 20
17.457014051520076
 30
0.0
 10
94.77400468388703
 20
18.693548009365514
 30
0.0
 10
94.77400468388703
 20
19.34928571428354
 30
0.0
 10
94.77400468388703
 20
20.005023419201564
 30
0.0
 10
94.77400468388703
 20
20.660761124119603
 30
0.0
 10
94.77400468388703
 20
21.911346604213293
 30
0.0
 10
94.74525139265802
 20
22.774713251510164
 30
0.0
 10
94.69672131152174
 20
23.239215456672298
 30
0.0
 10
94.64754098365285
 20
23.709941451988456
 30
0.0
 10
94.46696469508856
 20
24.127882775252502
 30
0.0
 10
94.17681498833667
 20
24.524929742386576
 30
0.0
 10
94.04332552697832
 20
24.707599531613752
 30
0.0
 10
93.88173302112352
 20
24.876217798592663
 30
0.0
 10
93.50234192042103
 20
25.185351288054036
 30
0.0
 10
93.30562060894567
 20
25.29776346603998
 30
0.0
 10
92.89812646374656
 20
25.466381733018906
 30
0.0
 10
92.66780239349555
 20
25.544705591869487
 30
0.0
 10
92.41334894618217
 20
25.59284543325309
 30
0.0
 10
92.15339578458963
 20
25.642025761121943
 30
0.0
 10
91.91451990636943
 20
25.670128805618432
 30
0.0
 10
91.68266978927346
 20
25.670128805618432
 30
0.0
  0
LWPOLYLINE
  5
59
330
17
100
AcDbEntity
  8
InnerContour
  6
Continuous
100
AcDbPolyline
 90
2
 70
0
 10
91.68266978929995
 20
25.6701288056
 10
91.68266978929995
 20
24.335234192
  0
SPLINE
  5
5A
330
17
100
AcDbEntity
  8
InnerContour
  6
Continuous
100
AcDbSpline
 70
8
 71
3
 72
17
 73
13
 74
0
 40
0.0
 40
0.0
 40
0.0
 40
0.0
 40
0.07596374062280586
 40
0.07596374062280586
 40
0.07596374062280586
 40
0.22115508462754285
 40
0.22115508462754285
 40
0.22115508462754285
 40
0.8343786558854727
 40
0.8343786558854727
 40
0.8343786558854727
 40
1.0
 40
1.0
 40
1.0
 40
1.0
 10
91.68266978927346
 20
24.3352341920353
 30
0.0
 10
91.92857142861777
 20
24.27902810304232
 30
0.0
 10
92.08870931335127
 20
24.13506772527269
 30
0.0
 10
92.18149882908614
 20
23.90666276346387
 30
0.0
 10
92.27283372369976
 20
23.681838407491966
 30
0.0
 10
92.31498829044443
 20
23.246241217796424
 30
0.0
 10
92.31498829044443
 20
22.60689695550134
 30
0.0
 10
92.31498829044443
 20
20.75912177985731
 30
0.0
 10
92.31498829044443
 20
18.91134660421328
 30
0.0
 10
92.31498829044443
 20
17.06357142856924
 30
0.0
 10
92.31498829044443
 20
16.31181498828822
 30
0.0
 10
92.27283372369976
 20
15.812985948475571
 30
0.0
 10
92.20257611245847
 20
15.574110070255436
 30
0.0
  0
SPLINE
  5
5B
330
17
100
AcDbEntity
  8
InnerContour
  6
Continuous
100
AcDbSpline
 70
8
 71
3
 72
8
 73
4
 74
0
 40
0.0
 40
0.0
 40
0.0
 40
0.0
 40
1.0
 40
1.0
 40
1.0
 40
1.0
 10
92.20257611245847
 20
15.574110070255436
 30
0.0
 10
92.09718969559663
 20
15.26497658079407
 30
0.0
 10
91.94262295086605
 20
15.0823067915669
 30
0.0
 10
91.73887587826647
 20
15.00502341920157
 30
0.0
  0
LWPOLYLINE
  5
5C
330
17
100
AcDbEntity
  8
InnerContour
  6
Continuous
100
AcDbPolyline
 90
2
 70
0
 10
48.30562060889997
 20
21.553032786900005
 10
48.30562060889997
 20
20.625632318499996
  0
SPLINE
  5
5D
330
17
100
AcDbEntity
  8
InnerContour
  6
Continuous
100
AcDbSpline
 70
8
 71
3
 72
34
 73
30
 74
0
 40
0.0
 40
0.0
 40
0.0
 40
0.0
 40
0.040895204233092675
 40
0.040895204233092675
 40
0.08179040846618368
 40
0.08179040846618368
 40
0.2020704209164521
 40
0.2020704209164521
 40
0.2020704209164521
 40
0.26298104729962535
 40
0.26298104729962535
 40
0.26298104729962535
 40
0.35313766796353085
 40
0.35313766796353085
 40
0.35313766796353085
 40
0.6650391252026324
 40
0.6650391252026324
 40
0.8613535718178313
 40
0.8613535718178313
 40
0.8613535718178313
 40
0.8991366858360056
 40
0.8991366858360056
 40
0.9369197998541772
 40
0.9369197998541772
 40
0.9369197998541772
 40
0.9697748725395416
 40
0.9697748725395416
 40
0.9697748725395416
 40
1.0
 40
1.0
 40
1.0
 40
1.0
 10
48.305620608945674
 20
20.625632318498987
 30
0.0
 10
48.40398126468335
 20
20.716967213112582
 30
0.0
 10
48.516393442669255
 20
20.780199063229688
 30
0.0
 10
48.76932084313762
 20
20.86450819671913
 30
0.0
 10
48.88875878224775
 20
20.885585480091507
 30
0.0
 10
49.359484777563864
 20
20.885585480091507
 30
0.0
 10
49.585277549258365
 20
20.787737515030415
 30
0.0
 10
49.68969555039763
 20
20.590503512878385
 30
0.0
 10
49.752927400514636
 20
20.471065573768314
 30
0.0
 10
49.80083629579326
 20
20.33147104385128
 30
0.0
 10
49.83021077288004
 20
20.147880562058702
 30
0.0
 10
49.85831381737643
 20
19.972236533955666
 30
0.0
 10
49.872365339624764
 20
19.74038641685965
 30
0.0
 10
49.872365339624764
 20
19.45935597189478
 30
0.0
 10
49.872365339624764
 20
18.663103044494306
 30
0.0
 10
49.872365339624764
 20
17.866850117093833
 30
0.0
 10
49.872365339624764
 20
16.56942622950602
 30
0.0
 10
49.90562889892914
 20
16.06603769869836
 30
0.0
 10
49.872365339624764
 20
15.56708430913131
 30
0.0
 10
49.86533957850065
 20
15.461697892269491
 30
0.0
 10
49.83723653400426
 20
15.370362997655903
 30
0.0
 10
49.752927400514636
 20
15.201744730676985
 30
0.0
 10
49.70060294750192
 20
15.113942124805355
 30
0.0
 10
49.640515222528734
 20
15.047177985946306
 30
0.0
 10
49.57728337241167
 20
14.976920374705081
 30
0.0
 10
49.51124121784483
 20
14.926334894611415
 30
0.0
 10
49.44379391105332
 20
14.892611241215626
 30
0.0
 10
49.373536299812145
 20
14.85748243559501
 30
0.0
 10
49.30327868857097
 20
14.836405152222646
 30
0.0
 10
49.22599531620557
 20
14.815327868850282
 30
0.0
  0
LWPOLYLINE
  5
5E
330
17
100
AcDbEntity
  8
InnerContour
  6
Continuous
100
AcDbPolyline
 90
2
 70
0
 10
49.22599531619994
 20
14.815327868900006
 10
49.22599531619994
 20
13.635000000000005
  0
SPLINE
  5
5F
330
17
100
AcDbEntity
  8
InnerContour
  6
Continuous
100
AcDbSpline
 70
8
 71
3
 72
34
 73
30
 74
0
 40
0.0
 40
0.0
 40
0.0
 40
0.0
 40
0.050261542433816975
 40
0.050261542433816975
 40
0.050261542433816975
 40
0.10455807429698494
 40
0.10455807429698494
 40
0.10455807429698494
 40
0.19328012230593317
 40
0.19328012230593317
 40
0.19328012230593317
 40
0.2778502424074122
 40
0.2778502424074122
 40
0.2778502424074122
 40
0.4095061617593614
 40
0.4095061617593614
 40
0.4095061617593614
 40
0.5397568547837401
 40
0.5397568547837401
 40
0.5397568547837401
 40
0.729244480133005
 40
0.729244480133005
 40
0.729244480133005
 40
0.8727163639472539
 40
0.8727163639472539
 40
0.9282102057999313
 40
0.9282102057999313
 40
0.9282102057999313
 40
1.0
 40
1.0
 40
1.0
 40
1.0
 10
49.22599531620557
 20
13.634999999997824
 30
0.0
 10
49.401639344308535
 20
13.634999999997824
 30
0.0
 10
49.63447366444876
 20
13.657479027099626
 30
0.0
 10
49.90749414524532
 20
13.705257611239041
 30
0.0
 10
50.18852459021025
 20
13.754437939107895
 30
0.0
 10
50.42885554992205
 20
13.807127581162604
 30
0.0
 10
50.62412177990586
 20
13.887927400466204
 30
0.0
 10
51.03161592510486
 20
14.056545667445135
 30
0.0
 10
51.357023713386354
 20
14.292416887887235
 30
0.0
 10
51.60070257615877
 20
14.583477751754266
 30
0.0
 10
51.85362997662713
 20
14.8855854800915
 30
0.0
 10
52.01499765812582
 20
15.228611241215624
 30
0.0
 10
52.08548009372316
 20
15.616264637000164
 30
0.0
 10
52.15573770496434
 20
16.002681498826874
 30
0.0
 10
52.190866510584954
 20
16.599871194377215
 30
0.0
 10
52.190866510584954
 20
17.407833723651223
 30
0.0
 10
52.190866510584954
 20
18.000339578452156
 30
0.0
 10
52.190866510584954
 20
18.59284543325309
 30
0.0
 10
52.190866510584954
 20
19.185351288054022
 30
0.0
 10
52.190866510584954
 20
20.435936768147712
 30
0.0
 10
52.01487958321144
 20
21.26466429752989
 30
0.0
 10
51.64988290402755
 20
21.665444964869025
 30
0.0
 10
51.291569086697336
 20
22.058887587819825
 30
0.0
 10
50.743559719015934
 20
22.262634660419366
 30
0.0
 10
49.710772833769965
 20
22.262634660419366
 30
0.0
 10
49.41480047306783
 20
22.208765854335027
 30
0.0
 10
49.11358313821967
 20
22.094016393440455
 30
0.0
 10
48.818501171006574
 20
21.981604215454496
 30
0.0
 10
48.55152224828987
 20
21.798934426227333
 30
0.0
 10
48.305620608945674
 20
21.553032786883065
 30
0.0
  0
LWPOLYLINE
  5
60
330
17
100
AcDbEntity
  8
InnerContour
  6
Continuous
100
AcDbPolyline
 90
6
 70
1
 10
47.75058548009997
 20
24.3071311475
 10
51.60070257619992
 20
24.3071311475
 10
51.60070257619992
 20
25.5085362998
 10
45.72014051529993
 20
25.5085362998
 10
45.60772833729993
 20
20.021416861800006
 10
47.75058548009997
 20
20.021416861800006
  0
SPLINE
  5
61
330
17
100
AcDbEntity
  8
InnerContour
  6
Continuous
100
AcDbSpline
 70
8
 71
3
 72
16
 73
12
 74
0
 40
0.0
 40
0.0
 40
0.0
 40
0.0
 40
0.1145763515028584
 40
0.1145763515028584
 40
0.1145763515028584
 40
0.4802635597003858
 40
0.4802635597003858
 40
0.8459507678979162
 40
0.8459507678979162
 40
0.8459507678979162
 40
1.0
 40
1.0
 40
1.0
 40
1.0
 10
47.87704918037423
 20
17.745070257609058
 30
0.0
 10
47.87704918037417
 20
17.618606557374875
 30
0.0
 10
47.87704918037417
 20
17.492142857140678
 30
0.0
 10
47.87704918037417
 20
17.365679156906495
 30
0.0
 10
47.87704918037417
 20
16.536639344260124
 30
0.0
 10
47.90515222487062
 20
15.97457845433037
 30
0.0
 10
48.003512880608355
 20
15.370362997655903
 30
0.0
 10
48.09484777522192
 20
15.152564402808125
 30
0.0
 10
48.22833723658027
 20
15.01204918032569
 30
0.0
 10
48.35498558231052
 20
14.878735132188616
 30
0.0
 10
48.50234192042103
 20
14.80127634660203
 30
0.0
 10
48.67096018739994
 20
14.780199063229674
 30
0.0
  0
LWPOLYLINE
  5
62
330
17
100
AcDbEntity
  8
InnerContour
  6
Continuous
100
AcDbPolyline
 90
2
 70
0
 10
48.67096018739994
 20
14.780199063200001
 10
48.67096018739994
 20
13.635000000000005
  0
SPLINE
  5
63
330
17
100
AcDbEntity
  8
InnerContour
  6
Continuous
100
AcDbSpline
 70
8
 71
3
 72
20
 73
16
 74
0
 40
0.0
 40
0.0
 40
0.0
 40
0.0
 40
0.142897711114418
 40
0.142897711114418
 40
0.142897711114418
 40
0.2874608433297991
 40
0.2874608433297991
 40
0.2874608433297991
 40
0.5451120701220319
 40
0.5451120701220319
 40
0.5451120701220319
 40
0.9519416635638996
 40
0.9519416635638996
 40
0.9519416635638996
 40
1.0
 40
1.0
 40
1.0
 40
1.0
 10
48.67096018739994
 20
13.634999999997824
 30
0.0
 10
48.37587822018685
 20
13.634999999997824
 30
0.0
 10
48.09484777522192
 20
13.670128805618432
 30
0.0
 10
47.82084309138122
 20
13.726334894611405
 30
0.0
 10
47.54545541859994
 20
13.782824673643454
 30
0.0
 10
47.27283372369976
 20
13.887927400466204
 30
0.0
 10
47.00585480098306
 20
14.0143911007004
 30
0.0
 10
46.483071412722325
 20
14.26202533724495
 30
0.0
 10
46.12060889934372
 20
14.604555035126623
 30
0.0
 10
45.91686182674425
 20
15.06122950819455
 30
0.0
 10
45.67852681840924
 20
15.595428664807343
 30
0.0
 10
45.55854800941404
 20
16.39612412177768
 30
0.0
 10
45.55854800941404
 20
17.457014051520076
 30
0.0
 10
45.55854800941404
 20
17.553032786883065
 30
0.0
 10
45.55854800941404
 20
17.64905152224607
 30
0.0
 10
45.55854800941404
 20
17.745070257609058
 30
0.0
  0
LWPOLYLINE
  5
64
330
17
100
AcDbEntity
  8
InnerContour
  6
Continuous
100
AcDbPolyline
 90
2
 70
0
 10
45.55854800939994
 20
17.745070257600005
 10
47.87704918039992
 20
17.745070257600005
  0
LWPOLYLINE
  5
65
330
17
100
AcDbEntity
  8
InnerContour
  6
Continuous
100
AcDbPolyline
 90
2
 70
0
 10
80.13934426229997
 20
22.094016393399997
 10
82.13466042159996
 20
22.094016393399997
  0
SPLINE
  5
66
330
17
100
AcDbEntity
  8
InnerContour
  6
Continuous
100
AcDbSpline
 70
8
 71
3
 72
17
 73
13
 74
0
 40
0.0
 40
0.0
 40
0.0
 40
0.0
 40
0.2609927081196569
 40
0.2609927081196569
 40
0.2609927081196569
 40
0.5434458044251391
 40
0.5434458044251391
 40
0.5434458044251391
 40
0.7332091339991248
 40
0.7332091339991248
 40
0.7332091339991248
 40
1.0
 40
1.0
 40
1.0
 40
1.0
 10
82.13466042159206
 20
22.094016393440455
 30
0.0
 10
82.13466042159206
 20
22.339918032784723
 30
0.0
 10
82.13466042159206
 20
22.585819672128963
 30
0.0
 10
82.13466042159206
 20
22.83172131147323
 30
0.0
 10
82.13466042159206
 20
23.11977751756224
 30
0.0
 10
82.15431156188907
 20
23.387058955476647
 30
0.0
 10
82.20491803283323
 20
23.625632318499
 30
0.0
 10
82.25409836070207
 20
23.857482435595017
 30
0.0
 10
82.30183933385786
 20
24.03221439734523
 30
0.0
 10
82.37353629981214
 20
24.13148711943576
 30
0.0
 10
82.55620608903934
 20
24.384414519904155
 30
0.0
 10
82.75995316163886
 20
24.517903981262464
 30
0.0
 10
82.97775175648667
 20
24.54600702575894
 30
0.0
  0
LWPOLYLINE
  5
67
330
17
100
AcDbEntity
  8
InnerContour
  6
Continuous
100
AcDbPolyline
 90
2
 70
0
 10
82.97775175649997
 20
24.54600702580001
 10
82.97775175649997
 20
25.705257611199997
  0
SPLINE
  5
68
330
17
100
AcDbEntity
  8
InnerContour
  6
Continuous
100
AcDbSpline
 70
8
 71
3
 72
17
 73
13
 74
0
 40
0.0
 40
0.0
 40
0.0
 40
0.0
 40
0.2599049137141023
 40
0.2599049137141023
 40
0.2599049137141023
 40
0.49515230787280573
 40
0.49515230787280573
 40
0.49515230787280573
 40
0.7068916831436918
 40
0.7068916831436918
 40
0.7068916831436918
 40
1.0
 40
1.0
 40
1.0
 40
1.0
 10
82.97775175648667
 20
25.705257611239034
 30
0.0
 10
82.50702576117044
 20
25.705257611239034
 30
0.0
 10
82.06052779435782
 20
25.615364583041426
 30
0.0
 10
81.64285714290344
 20
25.424227166274164
 30
0.0
 10
81.22833723658033
 20
25.23453161592289
 30
0.0
 10
80.90751181142076
 20
24.977896622916376
 30
0.0
 10
80.68032786889887
 20
24.6584192037449
 30
0.0
 10
80.45550351292684
 20
24.342259953159413
 30
0.0
 10
80.29996047751217
 20
23.99938262858271
 30
0.0
 10
80.23770491807903
 20
23.63968384074724
 30
0.0
 10
80.17447306796203
 20
23.274344262292914
 30
0.0
 10
80.13934426234147
 20
22.761463700232014
 30
0.0
 10
80.13934426234147
 20
22.094016393440455
 30
0.0
  0
LWPOLYLINE
  5
69
330
17
100
AcDbEntity
  8
InnerContour
  6
Continuous
100
AcDbPolyline
 90
4
 70
1
 10
59.89110070259994
 20
19.15724824360001
 10
56.60304449649993
 20
19.15724824360001
 10
56.60304449649993
 20
17.8153278689
 10
59.89110070259994
 20
17.8153278689
  0
ENDSEC
  0
SECTION
  2
OBJECTS
  0
DICTIONARY
  5
A
330
0
100
AcDbDictionary
281
1
  3
ACAD_COLOR
350
B
  3
ACAD_GROUP
350
C
  3
ACAD_LAYOUT
350
D
  3
ACAD_MATERIAL
350
E
  3
ACAD_MLEADERSTYLE
350
F
  3
ACAD_MLINESTYLE
350
10
  3
ACAD_PLOTSETTINGS
350
11
  3
ACAD_PLOTSTYLENAME
350
12
  3
ACAD_SCALELIST
350
14
  3
ACAD_TABLESTYLE
350
15
  3
ACAD_VISUALSTYLE
350
16
  3
EZDXF_META
350
2D
  0
DICTIONARY
  5
B
330
A
100
AcDbDictionary
281
1
  0
DICTIONARY
  5
C
330
A
100
AcDbDictionary
281
1
  0
DICTIONARY
  5
D
330
A
100
AcDbDictionary
281
1
  3
Model
350
1A
  3
Layout1
350
1E
  0
DICTIONARY
  5
E
330
A
100
AcDbDictionary
281
1
  3
ByBlock
350
1F
  3
ByLayer
350
20
  3
Global
350
21
  0
DICTIONARY
  5
F
330
A
100
AcDbDictionary
281
1
  3
Standard
350
2C
  0
DICTIONARY
  5
10
330
A
100
AcDbDictionary
281
1
  3
Standard
350
22
  0
DICTIONARY
  5
11
330
A
100
AcDbDictionary
281
1
  0
ACDBDICTIONARYWDFLT
  5
12
330
A
100
AcDbDictionary
281
1
  3
Normal
350
13
100
AcDbDictionaryWithDefault
340
13
  0
ACDBPLACEHOLDER
  5
13
330
12
  0
DICTIONARY
  5
14
330
A
100
AcDbDictionary
281
1
  0
DICTIONARY
  5
15
330
A
100
AcDbDictionary
281
1
  0
DICTIONARY
  5
16
330
A
100
AcDbDictionary
281
1
  0
LAYOUT
  5
1A
330
D
100
AcDbPlotSettings
  1

  4
A3
  6

 40
7.5
 41
20.0
 42
7.5
 43
20.0
 44
420.0
 45
297.0
 46
0.0
 47
0.0
 48
0.0
 49
0.0
140
0.0
141
0.0
142
1.0
143
1.0
 70
1024
 72
1
 73
0
 74
5
  7

 75
16
 76
0
 77
2
 78
300
147
1.0
148
0.0
149
0.0
100
AcDbLayout
  1
Model
 70
1
 71
0
 10
0.0
 20
0.0
 11
420.0
 21
297.0
 12
0.0
 22
0.0
 32
0.0
 14
1e+20
 24
1e+20
 34
1e+20
 15
-1e+20
 25
-1e+20
 35
-1e+20
146
0.0
 13
0.0
 23
0.0
 33
0.0
 16
1.0
 26
0.0
 36
0.0
 17
0.0
 27
1.0
 37
0.0
 76
1
330
17
  0
LAYOUT
  5
1E
330
D
100
AcDbPlotSettings
  1

  4
A3
  6

 40
7.5
 41
20.0
 42
7.5
 43
20.0
 44
420.0
 45
297.0
 46
0.0
 47
0.0
 48
0.0
 49
0.0
140
0.0
141
0.0
142
1.0
143
1.0
 70
0
 72
1
 73
0
 74
5
  7

 75
16
 76
0
 77
2
 78
300
147
1.0
148
0.0
149
0.0
100
AcDbLayout
  1
Layout1
 70
1
 71
1
 10
0.0
 20
0.0
 11
420.0
 21
297.0
 12
0.0
 22
0.0
 32
0.0
 14
1e+20
 24
1e+20
 34
1e+20
 15
-1e+20
 25
-1e+20
 35
-1e+20
146
0.0
 13
0.0
 23
0.0
 33
0.0
 16
1.0
 26
0.0
 36
0.0
 17
0.0
 27
1.0
 37
0.0
 76
1
330
1B
  0
MATERIAL
  5
1F
102
{ACAD_REACTORS
330
E
102
}
330
E
100
AcDbMaterial
  1
ByBlock
  2

 70
0
 40
1.0
 71
1
 41
1.0
 91
-1023410177
 42
1.0
 72
1
  3

 73
1
 74
1
 75
1
 44
0.5
 73
0
 45
1.0
 46
1.0
 77
1
  4

 78
1
 79
1
170
1
 48
1.0
171
1
  6

172
1
173
1
174
1
140
1.0
141
1.0
175
1
  7

176
1
177
1
178
1
143
1.0
179
1
  8

270
1
271
1
272
1
145
1.0
146
1.0
273
1
  9

274
1
275
1
276
1
 42
1.0
 72
1
  3

 73
1
 74
1
 75
1
 94
63
  0
MATERIAL
  5
20
102
{ACAD_REACTORS
330
E
102
}
330
E
100
AcDbMaterial
  1
ByLayer
  2

 70
0
 40
1.0
 71
1
 41
1.0
 91
-1023410177
 42
1.0
 72
1
  3

 73
1
 74
1
 75
1
 44
0.5
 73
0
 45
1.0
 46
1.0
 77
1
  4

 78
1
 79
1
170
1
 48
1.0
171
1
  6

172
1
173
1
174
1
140
1.0
141
1.0
175
1
  7

176
1
177
1
178
1
143
1.0
179
1
  8

270
1
271
1
272
1
145
1.0
146
1.0
273
1
  9

274
1
275
1
276
1
 42
1.0
 72
1
  3

 73
1
 74
1
 75
1
 94
63
  0
MATERIAL
  5
21
102
{ACAD_REACTORS
330
E
102
}
330
E
100
AcDbMaterial
  1
Global
  2

 70
0
 40
1.0
 71
1
 41
1.0
 91
-1023410177
 42
1.0
 72
1
  3

 73
1
 74
1
 75
1
 44
0.5
 73
0
 45
1.0
 46
1.0
 77
1
  4

 78
1
 79
1
170
1
 48
1.0
171
1
  6

172
1
173
1
174
1
140
1.0
141
1.0
175
1
  7

176
1
177
1
178
1
143
1.0
179
1
  8

270
1
271
1
272
1
145
1.0
146
1.0
273
1
  9

274
1
275
1
276
1
 42
1.0
 72
1
  3

 73
1
 74
1
 75
1
 94
63
  0
MLINESTYLE
  5
22
102
{ACAD_REACTORS
330
10
102
}
330
10
100
AcDbMlineStyle
  2
Standard
 70
0
  3

 62
256
 51
90.0
 52
90.0
 71
2
 49
0.5
 62
256
  6
BYLAYER
 49
-0.5
 62
256
  6
BYLAYER
  0
MLEADERSTYLE
  5
2C
102
{ACAD_REACTORS
330
F
102
}
330
F
100
AcDbMLeaderStyle
179
2
170
2
171
1
172
0
 90
2
 40
0.0
 41
0.0
173
1
 91
-1056964608
 92
-2
290
1
 42
2.0
291
1
 43
8.0
  3
Standard
 44
4.0
300

342
29
174
1
175
1
176
0
178
1
 93
-1056964608
 45
4.0
292
0
297
0
 46
4.0
 94
-1056964608
 47
1.0
 49
1.0
140
1.0
294
1
141
0.0
177
0
142
1.0
295
0
296
0
143
3.75
271
0
272
9
273
9
  0
DICTIONARY
  5
2D
330
A
100
AcDbDictionary
280
1
281
1
  3
CREATED_BY_EZDXF
350
2E
  3
WRITTEN_BY_EZDXF
350
6C
  0
DICTIONARYVAR
  5
2E
330
2D
100
DictionaryVariables
280
0
  1
1.4.3 @ 2026-09-06T13:14:47.919541+00:00
  0
DICTIONARYVAR
  5
6C
330
2D
100
DictionaryVariables
280
0
  1
1.4.3 @ 2026-09-06T13:14:47.923044+00:00
  0
ENDSEC
  0
EOF
